<?xml version="1.0" encoding="UTF-8" standalone="no"?>
<!-- Generator: Adobe Illustrator 18.0.0, SVG Export Plug-In . SVG Version: 6.00 Build 0)  -->

<svg
   xmlns:dc="http://purl.org/dc/elements/1.1/"
   xmlns:cc="http://creativecommons.org/ns#"
   xmlns:rdf="http://www.w3.org/1999/02/22-rdf-syntax-ns#"
   xmlns:svg="http://www.w3.org/2000/svg"
   xmlns="http://www.w3.org/2000/svg"
   xmlns:sodipodi="http://sodipodi.sourceforge.net/DTD/sodipodi-0.dtd"
   xmlns:inkscape="http://www.inkscape.org/namespaces/inkscape"
   version="1.1"
   id="Layer_1"
   x="0px"
   y="0px"
   viewBox="0 0 256 256"
   enable-background="new 0 0 792 612"
   xml:space="preserve"
   inkscape:version="0.48.4 r9939"
   width="100%"
   height="100%"
   sodipodi:docname="gns3_base_ico.svg"
   inkscape:export-filename="/home/grossmj/Downloads/gns3_icon_128x128.png"
   inkscape:export-xdpi="45"
   inkscape:export-ydpi="45"><metadata
     id="metadata30"><rdf:RDF><cc:Work
         rdf:about=""><dc:format>image/svg+xml</dc:format><dc:type
           rdf:resource="http://purl.org/dc/dcmitype/StillImage" /><dc:title /></cc:Work></rdf:RDF></metadata><defs
     id="defs28" /><sodipodi:namedview
     pagecolor="#000000"
     bordercolor="#666666"
     borderopacity="1"
     objecttolerance="10"
     gridtolerance="10"
     guidetolerance="10"
     inkscape:pageopacity="0"
     inkscape:pageshadow="2"
     inkscape:window-width="1855"
     inkscape:window-height="1056"
     id="namedview26"
     showgrid="false"
     inkscape:zoom="1.0428039"
     inkscape:cx="191.27614"
     inkscape:cy="171.26464"
     inkscape:window-x="1985"
     inkscape:window-y="24"
     inkscape:window-maximized="1"
     inkscape:current-layer="g3"
     fit-margin-top="0"
     fit-margin-left="0"
     fit-margin-right="0"
     fit-margin-bottom="0" /><g
     id="g3"
     transform="translate(-19.09309,-355.40651)"><linearGradient
       id="SVGID_1_"
       gradientUnits="userSpaceOnUse"
       x1="404.2251"
       y1="365.32321"
       x2="384.2139"
       y2="136.595"
       gradientTransform="matrix(1.0930955,0,0,1.0930955,-283.62241,209.60237)"><stop
         offset="0"
         style="stop-color:#00A5CE"
         id="stop6" /><stop
         offset="0.1989"
         style="stop-color:#1295CB"
         id="stop8" /><stop
         offset="0.5994"
         style="stop-color:#426BC5"
         id="stop10" /><stop
         offset="1"
         style="stop-color:#783CBD"
         id="stop12" /></linearGradient><path
       d="m 167.16999,421.66332 c 0,6.34 -5.13717,11.47729 -11.47726,11.47729 -6.33986,0 -11.47761,-5.13729 -11.47761,-11.47729 0,-6.34019 5.13775,-11.47804 11.47761,-11.47804 6.34009,0 11.47726,5.13785 11.47726,11.47804 z M 41.57341,479.37865 c -6.886487,37.71152 2.514172,64.92952 17.161614,84.38707 26.124988,36.83736 64.492516,43.28645 64.492516,43.28645 44.81704,8.52584 78.92153,-6.99569 99.36233,-26.23425 25.68784,-24.37577 24.81373,-48.53334 24.92311,-48.86119 0.21851,-11.25931 -3.49797,-19.34782 -10.05651,-24.92306 -11.0404,-9.29128 -24.4855,-5.68414 -24.4855,-5.68414 -23.2827,5.46564 -19.457,26.67165 -19.457,26.67165 1.31155,6.33984 4.59052,10.49362 8.30733,12.89839 7.10497,4.37239 14.64752,3.49799 14.64752,3.49799 11.14958,-1.31129 14.42894,-11.80519 13.77292,-17.05238 -1.09318,-8.30719 -8.63562,-9.83784 -8.63562,-9.83784 -2.84184,-0.54643 -5.02802,-0.10925 -6.66791,0.76517 -2.40425,0.98433 -3.38861,2.62342 -3.38861,2.62342 -1.74868,2.95142 -0.65568,4.59143 0.43749,5.24736 0.65611,0.43714 1.42132,0.43714 1.42132,0.43714 0.87411,0 1.42053,-0.2185 2.07653,-0.54638 1.53057,-0.8745 2.73256,-2.29597 5.02855,-1.42145 3.3886,1.31184 2.514,4.91929 2.514,4.91929 -0.76536,3.93499 -3.06079,5.79343 -5.57488,6.44908 -3.3886,0.8745 -6.88644,-0.21851 -6.88644,-0.21851 -12.02422,-4.9193 -6.66794,-16.943 -6.66794,-16.943 3.71635,-7.54269 12.02432,-8.41719 12.02432,-8.41719 13.00749,-2.07647 21.64316,6.6679 20.22168,21.42461 -1.63939,18.36446 -15.73999,30.49734 -30.82506,38.14961 -56.51289,29.07595 -98.7065,-7.76156 -98.7065,-7.76156 -15.740627,-14.97516 -12.0241,-30.82515 -10.275139,-35.853 0.655867,-1.85856 2.404853,-2.18667 3.279285,-2.18667 12.898524,-1.09269 23.610724,22.73676 24.703824,26.01608 2.2955,5.46552 5.90259,8.52567 9.29119,10.49354 7.65184,4.2631 15.74104,2.18631 15.74104,2.18631 11.14918,-3.82574 7.32358,-12.89835 7.32358,-12.89835 -1.31154,-3.60724 -3.27936,-4.5916 -4.80941,-4.48175 -1.42153,0 -2.51417,1.09316 -2.51417,1.09316 -0.54659,0.65552 -1.20277,1.09252 -1.74915,1.63926 -7.10531,6.01193 -10.6033,-0.32811 -10.6033,-0.32811 -2.51397,-4.04423 1.31224,-6.23061 1.31224,-6.23061 0.76515,-0.43697 1.53004,-0.65583 2.07635,-0.87447 2.84229,-0.874 2.40529,-3.27934 2.40529,-3.27934 -0.43714,-4.4811 -5.46562,-2.62337 -5.46562,-2.62337 -4.9188,1.74936 -6.44941,5.79346 -6.88681,7.54276 -0.10925,0.54665 -0.21864,0.9838 -0.9834,1.09305 -1.42087,0.2185 -1.42087,-2.2956 -1.42087,-2.2956 -0.43766,-17.92675 -5.3563,-25.90628 -7.65197,-28.74817 -0.65595,-0.87508 -1.74896,-1.42143 -2.0767,-1.6399 -5.13777,-2.29543 -10.82182,-6.7772 -10.82182,-6.7772 -10.821645,-7.76093 -6.55856,-14.75663 -6.55856,-14.75663 6.44925,-16.1782 11.69615,-21.75305 11.69615,-21.75305 4.37223,-4.15383 8.96356,-0.43707 8.96356,-0.43707 -3.38859,4.154 -6.01223,8.19861 -6.01223,8.19861 -7.76098,12.35148 -9.07272,17.38012 -9.07272,17.38012 -0.10931,0.43699 -0.10931,1.2022 0.54656,2.0769 7.97963,13.66362 29.51353,15.74023 29.62279,15.74023 5.903,0.87439 10.71217,0.10925 10.71217,0.10925 2.84217,-0.5464 3.27932,1.31202 3.27932,1.31202 0.32816,1.09313 1.53073,4.15392 1.53073,4.15392 2.07675,4.37191 5.24645,2.07639 5.24645,2.07639 1.2029,-0.87441 1.74925,-2.07639 1.74925,-3.06023 0,-0.98427 -0.54635,-1.63992 -0.54635,-1.63992 -1.42154,-2.07704 -1.85853,-4.04413 -1.85853,-4.04413 -0.65564,-2.40529 2.07709,-3.38858 2.07709,-3.38858 5.35574,-2.40531 8.3072,2.18559 8.3072,2.18559 2.84233,3.3886 8.52646,-0.87441 8.52646,-0.87441 4.59089,-3.49785 -1.09323,-8.96303 -1.09323,-8.96303 -11.80522,-10.82192 -25.68768,2.84173 -25.68768,2.84173 -0.76544,0.98401 -1.53071,0.98401 -1.53071,0.98401 -11.47697,0.32817 -22.40799,-8.08903 -22.40799,-8.52636 4.37237,-7.32359 12.78893,-20.11308 12.78893,-20.11308 l 44.48933,17.16181 c 1.74859,0.54637 3.60712,0.10928 3.60712,0.10928 l 69.30196,-13.99174 c 1.53069,-0.21862 1.3122,-2.07653 1.3122,-2.07653 0,-1.53068 -0.10984,-1.74919 -1.42146,-1.96769 -1.42085,-0.21851 -67.44413,-5.35634 -67.44413,-5.35634 -3.6071,-0.21853 -3.6071,-5.13719 0.10925,-5.46498 l 48.53404,-4.04469 c 1.09314,-0.10926 1.31163,-1.20245 1.31163,-1.20245 1.31159,-6.44938 0.87399,-14.86588 0.87399,-14.86588 14.10125,-15.7411 7.32407,-31.26273 7.32407,-31.26273 -8.63521,-21.4247 -27.65565,-21.75286 -27.65565,-21.75286 -31.26208,-34.54162 -72.36236,-30.49735 -72.36236,-30.49735 -1.85878,0 -1.96813,1.53056 -1.96813,1.53056 l -4.69982,29.73201 c -0.21882,1.63996 -1.09349,2.07694 -1.09349,2.07694 l -6.23028,4.91872 c -0.76548,0.76538 -0.98406,0.76538 -2.07708,0.76538 -0.98378,0.10951 -4.04425,0.54685 -4.04425,0.54685 -73.45622,15.63074 -84.0593,81.43551 -84.0593,81.43551 z m 198.5063,-70.39575 c 2.95154,9.40107 -5.13786,12.35249 -5.13786,12.35249 -1.53006,-7.3239 -6.88645,-17.59894 -6.88645,-17.59894 9.07316,-2.84204 12.02431,5.24645 12.02431,5.24645 z m -45.47307,16.7245 c 0,17.27084 -13.99154,31.37192 -31.3715,31.37192 -17.27088,0 -31.37183,-13.99182 -31.37183,-31.37192 0,-17.37995 14.10095,-31.37147 31.37183,-31.37147 17.37996,0 31.3715,14.10077 31.3715,31.37147 z"
       id="path14"
       inkscape:connector-curvature="0"
       style="fill:url(#SVGID_1_);stroke:#000000;stroke-width:2;stroke-miterlimit:4;stroke-opacity:1;stroke-dasharray:none" /><path
       style="fill:#ffffff;fill-opacity:1;stroke:#000000;stroke-width:1.91790617;stroke-miterlimit:4;stroke-opacity:1;stroke-dasharray:none"
       d="m 151.83142,455.26154 c -23.96855,-9.44645 -27.34253,-42.34042 -5.74285,-55.98886 6.54544,-4.13594 12.74132,-5.73572 19.75212,-5.1 11.58014,1.05005 20.98272,7.77387 26.15388,18.70272 2.5761,5.44441 2.8107,6.75131 2.49607,13.90482 -0.41307,9.39154 -2.77208,14.98685 -8.89599,21.10029 -6.31829,6.30749 -12.06684,8.77216 -21.15927,9.07198 -5.8906,0.19424 -8.81671,-0.19833 -12.60396,-1.69095 z m 10.2743,-24.94922 c 5.58915,-3.97982 5.49073,-13.59528 -0.1798,-17.56708 -5.82683,-4.08126 -15.44947,-0.25379 -16.74672,6.66114 -1.81064,9.65158 8.95069,16.58523 16.92652,10.90594 z"
       id="path3756"
       inkscape:connector-curvature="0" /><path
       style="fill:#ffffff;fill-opacity:1;stroke:#000000;stroke-width:1.91790617;stroke-miterlimit:4;stroke-opacity:1;stroke-dasharray:none"
       d="m 233.94777,420.0518 c -0.006,-0.92299 -1.46617,-5.0095 -3.24383,-9.08114 -3.04978,-6.98532 -3.12905,-7.43569 -1.40518,-7.98282 6.84649,-2.17299 13.23135,5.07043 11.19971,12.7057 -1.17825,4.42812 -6.5254,7.98563 -6.5507,4.35826 z"
       id="path3758"
       inkscape:connector-curvature="0" /></g></svg>