<?xml version="1.0" encoding="UTF-8" standalone="no"?>
<!-- Generator: Adobe Illustrator 18.0.0, SVG Export Plug-In . SVG Version: 6.00 Build 0)  -->

<svg
   xmlns:dc="http://purl.org/dc/elements/1.1/"
   xmlns:cc="http://creativecommons.org/ns#"
   xmlns:rdf="http://www.w3.org/1999/02/22-rdf-syntax-ns#"
   xmlns:svg="http://www.w3.org/2000/svg"
   xmlns="http://www.w3.org/2000/svg"
   xmlns:sodipodi="http://sodipodi.sourceforge.net/DTD/sodipodi-0.dtd"
   xmlns:inkscape="http://www.inkscape.org/namespaces/inkscape"
   version="1.1"
   id="Layer_1"
   x="0px"
   y="0px"
   viewBox="0 0 256 256"
   enable-background="new 0 0 792 612"
   xml:space="preserve"
   inkscape:version="0.48.4 r9939"
   width="100%"
   height="100%"
   sodipodi:docname="gns3_project_base_icon.svg"
   inkscape:export-filename="/home/grossmj/Downloads/Logos/gns3_project.png"
   inkscape:export-xdpi="90"
   inkscape:export-ydpi="90"><metadata
     id="metadata30"><rdf:RDF><cc:Work
         rdf:about=""><dc:format>image/svg+xml</dc:format><dc:type
           rdf:resource="http://purl.org/dc/dcmitype/StillImage" /><dc:title></dc:title></cc:Work></rdf:RDF></metadata><defs
     id="defs28" /><sodipodi:namedview
     pagecolor="#000000"
     bordercolor="#666666"
     borderopacity="1"
     objecttolerance="10"
     gridtolerance="10"
     guidetolerance="10"
     inkscape:pageopacity="0"
     inkscape:pageshadow="2"
     inkscape:window-width="688"
     inkscape:window-height="508"
     id="namedview26"
     showgrid="false"
     inkscape:zoom="2.8284271"
     inkscape:cx="99.209744"
     inkscape:cy="115.40526"
     inkscape:window-x="692"
     inkscape:window-y="203"
     inkscape:window-maximized="0"
     inkscape:current-layer="g3"
     fit-margin-top="0"
     fit-margin-left="0"
     fit-margin-right="0"
     fit-margin-bottom="0" /><g
     id="g3"
     transform="translate(-19.09309,-355.40651)"><linearGradient
       id="SVGID_1_"
       gradientUnits="userSpaceOnUse"
       x1="404.2251"
       y1="365.32321"
       x2="384.2139"
       y2="136.595"
       gradientTransform="matrix(0.9154681,0,0,0.8343604,-205.93817,243.15241)"><stop
         offset="0"
         style="stop-color:#00A5CE"
         id="stop6" /><stop
         offset="0.1989"
         style="stop-color:#1295CB"
         id="stop8" /><stop
         offset="0.5994"
         style="stop-color:#426BC5"
         id="stop10" /><stop
         offset="1"
         style="stop-color:#783CBD"
         id="stop12" /></linearGradient><path
       d="m 171.60071,405.01864 c 0,4.83934 -4.30236,8.76063 -9.61217,8.76063 -5.30966,0 -9.61254,-3.92129 -9.61254,-8.76063 0,-4.83945 4.30288,-8.76118 9.61254,-8.76118 5.30981,0 9.61217,3.92173 9.61217,8.76118 z M 66.413524,449.07279 c -5.767437,28.78523 2.105621,49.56075 14.372861,64.41269 21.879695,28.11798 54.012515,33.04057 54.012515,33.04057 37.53432,6.50778 66.09685,-5.33982 83.21603,-20.02463 21.51357,-18.60601 20.7815,-37.04552 20.87311,-37.29575 0.18299,-8.59424 -2.92957,-14.7682 -8.42235,-19.02378 -9.24633,-7.09206 -20.86017,2.69341 -20.86017,2.69341 -19.49927,4.17192 -15.94169,13.32637 -15.94169,13.32637 1.09845,4.83918 3.84457,8.00978 6.95741,9.84533 5.9504,3.33747 12.26728,2.67002 12.26728,2.67002 9.3378,-1.0009 12.08427,-9.0109 11.53485,-13.01608 -0.91555,-6.34088 -7.23234,-7.50924 -7.23234,-7.50924 -2.38005,-0.41709 -4.21098,-0.0833 -5.58438,0.58407 -2.01358,0.75135 -2.83796,2.00243 -2.83796,2.00243 -1.46454,2.25284 -0.54914,3.50469 0.36639,4.00532 0.54947,0.33369 1.19036,0.33369 1.19036,0.33369 0.73207,0 1.18967,-0.16678 1.73912,-0.41707 1.28185,-0.6675 2.2885,-1.7525 4.21141,-1.085 2.83793,1.00135 2.10546,3.7549 2.10546,3.7549 -0.641,3.00358 -2.5634,4.42215 -4.66897,4.9226 -2.83795,0.66751 -5.76742,-0.16678 -5.76742,-0.16678 -10.07028,-3.75491 -5.58438,-12.93261 -5.58438,-12.93261 3.11245,-5.75734 10.07038,-6.42485 10.07038,-6.42485 10.89377,-1.58499 18.12615,5.08962 16.93565,16.35342 -1.37299,14.0176 -13.18224,23.27863 -25.81601,29.11962 -47.32956,22.19367 -82.66676,-5.92441 -82.66676,-5.92441 -13.18276,-11.43056 -10.07016,-23.52883 -8.60541,-27.3666 0.54929,-1.41865 2.01406,-1.6691 2.74639,-1.6691 10.80253,-0.83407 19.774,17.35498 20.68947,19.85809 1.92249,4.17184 4.94343,6.50765 7.78138,8.00972 6.40841,3.25405 13.18313,1.66883 13.18313,1.66883 9.33745,-2.9202 6.1335,-9.84533 6.1335,-9.84533 -1.09842,-2.75341 -2.74644,-3.50477 -4.02786,-3.42093 -1.19054,0 -2.10564,0.83442 -2.10564,0.83442 -0.45776,0.50034 -1.00731,0.83393 -1.46489,1.25125 -5.95071,4.58892 -8.8803,-0.25044 -8.8803,-0.25044 -2.10546,-3.08697 1.09901,-4.75583 1.09901,-4.75583 0.64083,-0.33355 1.28141,-0.50061 1.73895,-0.66748 2.38042,-0.66714 2.01441,-2.50311 2.01441,-2.50311 -0.36609,-3.42046 -4.57745,-2.00244 -4.57745,-2.00244 -4.1195,1.3353 -5.40139,4.42214 -5.76771,5.75738 -0.0915,0.41727 -0.1831,0.75095 -0.8236,0.83435 -1.18996,0.16676 -1.18996,-1.75225 -1.18996,-1.75225 -0.36654,-13.68349 -4.4859,-19.77428 -6.40854,-21.94348 -0.54936,-0.66796 -1.46475,-1.08497 -1.73923,-1.25176 -4.30289,-1.7521 -9.06329,-5.17302 -9.06329,-5.17302 -9.06314,-5.92391 -5.4928,-11.26375 -5.4928,-11.26375 5.40125,-12.34883 9.79555,-16.60411 9.79555,-16.60411 3.66173,-3.17061 7.50696,-0.33364 7.50696,-0.33364 -2.83792,3.17075 -5.03524,6.25803 -5.03524,6.25803 -6.49982,9.42787 -7.59841,13.26624 -7.59841,13.26624 -0.0915,0.33355 -0.0915,0.91765 0.45776,1.58531 6.68291,10.42945 24.7176,12.01453 24.80912,12.01453 4.94374,0.66741 8.97144,0.0834 8.97144,0.0834 2.38032,-0.41707 2.74642,1.00145 2.74642,1.00145 0.27482,0.83443 1.28199,3.17072 1.28199,3.17072 1.73928,3.33708 4.3939,1.5849 4.3939,1.5849 1.00743,-0.66745 1.465,-1.5849 1.465,-2.33588 0,-0.75128 -0.45757,-1.25175 -0.45757,-1.25175 -1.19053,-1.58542 -1.55653,-3.0869 -1.55653,-3.0869 -0.54909,-1.83594 1.73957,-2.58648 1.73957,-2.58648 4.48544,-1.83599 6.95727,1.66826 6.95727,1.66826 2.38047,2.5865 7.14092,-0.66745 7.14092,-0.66745 3.8449,-2.66992 -4.0976,0.19062 -4.0976,0.19062 -9.88688,-8.26038 -16.56361,-1.34696 -16.56361,-1.34696 -0.64104,0.7511 -3.04976,-2.76495 -3.04976,-2.76495 -9.61199,0.25048 -18.76672,-6.17438 -18.76672,-6.50818 3.66187,-5.5901 10.71075,-15.35234 10.71075,-15.35234 l 37.25985,13.09964 c 1.46442,0.41703 3.02095,0.0833 3.02095,0.0833 l 58.04043,-10.67989 c 1.28195,-0.16687 1.09896,-1.58503 1.09896,-1.58503 0,-1.16837 -0.0919,-1.33515 -1.19046,-1.50194 -1.18994,-0.16678 -56.48449,-4.08849 -56.48449,-4.08849 -3.02097,-0.16681 -3.02097,-3.92122 0.0915,-4.17141 l 40.64728,-3.08733 c 0.91552,-0.0834 1.09848,-0.91783 1.09848,-0.91783 1.09844,-4.92279 0.73198,-11.34711 0.73198,-11.34711 11.80979,-12.01521 6.1339,-23.86288 6.1339,-23.86288 -7.23198,-16.35348 -23.1616,-16.60396 -23.1616,-16.60396 -26.18203,-26.36565 -60.60355,-23.27867 -60.60355,-23.27867 -1.55672,0 -1.6483,1.1683 -1.6483,1.1683 l -3.93608,22.69445 c -0.18325,1.25177 -0.91581,1.58533 -0.91581,1.58533 l -5.21788,3.75447 c -0.6411,0.58421 -0.82414,0.58421 -1.73956,0.58421 -0.82389,0.0835 -3.38706,0.41742 -3.38706,0.41742 -61.519582,11.93091 -70.399667,62.15974 -70.399667,62.15974 z M 232.66269,395.33968 c 2.47189,7.17584 -4.30298,9.42866 -4.30298,9.42866 -1.28144,-5.59034 -5.76742,-13.4333 -5.76742,-13.4333 7.59878,-2.16932 10.0704,4.00464 10.0704,4.00464 z m -38.08373,12.7658 c 0,13.18286 -11.71793,23.94621 -26.27368,23.94621 -14.46437,0 -26.27391,-10.67996 -26.27391,-23.94621 0,-13.26611 11.80954,-23.94585 26.27391,-23.94585 14.55575,0 26.27368,10.76313 26.27368,23.94585 z"
       id="path14"
       inkscape:connector-curvature="0"
       style="fill:url(#SVGID_1_);stroke:#000000;stroke-width:1.59908056;stroke-miterlimit:4;stroke-opacity:1;stroke-dasharray:none"
       sodipodi:nodetypes="ssssscccccccccccccccccccccccccccccccccccccccccccccccccccccccccscccccccccccccccccccccccccccccccccccsssss" /><path
       style="fill:#ffffff;fill-opacity:1;stroke:#000000;stroke-width:1.53344321;stroke-miterlimit:4;stroke-opacity:1;stroke-dasharray:none"
       d="m 158.75467,430.66421 c -20.07367,-7.21051 -22.89938,-32.31848 -4.80964,-42.73635 5.48181,-3.15698 10.67085,-4.37809 16.54241,-3.89283 9.69836,0.8015 17.57306,5.9338 21.90388,14.2758 2.15749,4.15572 2.35397,5.15328 2.09049,10.61352 -0.34596,7.1686 -2.32163,11.43951 -7.45042,16.1059 -5.29156,4.81452 -10.10597,6.6958 -17.7209,6.92464 -4.93337,0.14827 -7.384,-0.1514 -10.55582,-1.29068 z m 8.60473,-19.04379 c 4.68093,-3.03776 4.59848,-10.37728 -0.15058,-13.40894 -4.87998,-3.11524 -12.93893,-0.19374 -14.0254,5.08442 -1.51639,7.36707 7.49622,12.65953 14.17598,8.32452 z"
       id="path3756"
       inkscape:connector-curvature="0" /><path
       style="fill:#ffffff;fill-opacity:1;stroke:#000000;stroke-width:1.53344321;stroke-miterlimit:4;stroke-opacity:1;stroke-dasharray:none"
       d="m 227.52716,403.78857 c -0.005,-0.70451 -1.22789,-3.82375 -2.7167,-6.93163 -2.55419,-5.33189 -2.6206,-5.67568 -1.17683,-6.09329 5.73392,-1.65864 11.08127,3.87024 9.37974,9.69827 -0.98678,3.37997 -5.465,6.09542 -5.48621,3.32665 z"
       id="path3758"
       inkscape:connector-curvature="0" /><path
       sodipodi:nodetypes="sccccccccccscssccsscccccccsss"
       style="fill:#000000;fill-opacity:1;fill-rule:evenodd;stroke:none"
       inkscape:connector-curvature="0"
       id="path3810"
       d="m 239.93926,461.59913 0.0895,0.12221 -1.17469,-1.46733 -32.98343,9.00545 -37.23862,-8.13752 -55.68743,19.71173 -26.020537,-23.43049 -22.596889,16.06861 -11.889522,-13.06537 -0.909404,1.46024 -0.899284,1.4798 c -10.753621,17.54929 -16.66218,36.40349 -16.66218,54.40796 0,27.619 11.056869,51.53032 32.647508,68.48515 20.408405,16.0284 49.491298,25.55892 80.597778,25.55892 31.10647,0 59.83583,-9.88212 80.24671,-25.91052 21.59065,-16.95484 32.29143,-40.51455 32.29143,-68.13355 -0.002,-19.76102 -7.4557,-37.40288 -19.8109,-56.15529 z m -93.0808,146.64361 c -64.382901,0 -109.352655,-37.21035 -109.352655,-90.48655 0,-17.02801 5.398302,-34.83435 15.234948,-51.5232 l 9.904862,13.47926 23.843928,-16.75492 25.086777,22.57192 56.84998,-20.39383 37.73928,8.09108 30.77268,-8.56604 c 12.01921,18.34365 19.27279,33.79352 19.27279,53.09573 0,53.2762 -44.96719,90.48655 -109.35259,90.48655 z" /><path
       style="fill:#fefefa;fill-opacity:1;stroke:#ffffff;stroke-width:1.04580986000000009;stroke-miterlimit:4;stroke-opacity:1;stroke-dasharray:none;stroke-dashoffset:0"
       d="M 138.44788,607.85596 C 113.73945,606.22444 93.962212,600.20959 76.995281,589.1664 55.352378,575.07977 42.490317,555.32103 38.520707,530.06164 c -0.759205,-4.83094 -0.874973,-17.42518 -0.205365,-22.34039 1.791597,-13.15109 5.868285,-25.3134 12.758033,-38.06201 0.84206,-1.55812 1.659698,-2.75565 1.816969,-2.66115 0.157281,0.0945 2.381859,3.03194 4.9435,6.5277 2.561642,3.49575 4.723755,6.35591 4.80468,6.35591 0.0809,0 5.326847,-3.64298 11.657596,-8.0955 6.330738,-4.45253 11.699908,-8.16513 11.931484,-8.25022 0.231577,-0.085 4.398802,3.42528 9.260505,7.80084 4.861701,4.37556 10.457641,9.41045 12.435431,11.18865 l 3.59596,3.23309 28.31322,-10.1561 c 15.57226,-5.58585 28.50887,-10.1561 28.74803,-10.1561 0.23916,0 8.7836,1.79241 18.98766,3.9831 l 18.55285,3.98308 14.95072,-4.15493 c 8.2229,-2.28522 15.17245,-4.15493 15.44345,-4.15493 0.27101,0 1.79664,2.10211 3.39032,4.67137 11.40625,18.38862 15.96668,32.0966 15.97665,48.02357 0.006,9.17148 -1.01587,16.56703 -3.40156,24.6239 -9.62567,32.50771 -38.51348,55.82167 -78.32153,63.20957 -10.50247,1.94913 -25.62193,2.8911 -35.71143,2.22487 z"
       id="path3821"
       inkscape:connector-curvature="0" /></g></svg>