<?xml version="1.0" encoding="UTF-8" standalone="no"?>
<!-- Created with Inkscape (http://www.inkscape.org/) -->

<svg
   xmlns:dc="http://purl.org/dc/elements/1.1/"
   xmlns:cc="http://creativecommons.org/ns#"
   xmlns:rdf="http://www.w3.org/1999/02/22-rdf-syntax-ns#"
   xmlns:svg="http://www.w3.org/2000/svg"
   xmlns="http://www.w3.org/2000/svg"
   xmlns:sodipodi="http://sodipodi.sourceforge.net/DTD/sodipodi-0.dtd"
   xmlns:inkscape="http://www.inkscape.org/namespaces/inkscape"
   version="1.1"
   width="100%"
   height="100%"
   viewBox="0 0 288 288"
   id="svg7631"
   xml:space="preserve"
   inkscape:version="0.91 r13725"
   sodipodi:docname="command_line-hover.svg"><sodipodi:namedview
     pagecolor="#ffffff"
     bordercolor="#666666"
     borderopacity="1"
     objecttolerance="10"
     gridtolerance="10"
     guidetolerance="10"
     inkscape:pageopacity="0"
     inkscape:pageshadow="2"
     inkscape:window-width="3070"
     inkscape:window-height="1752"
     id="namedview10"
     showgrid="false"
     inkscape:zoom="0.81944444"
     inkscape:cx="-408.81356"
     inkscape:cy="144"
     inkscape:window-x="130"
     inkscape:window-y="48"
     inkscape:window-maximized="1"
     inkscape:current-layer="g3" /><metadata
     id="metadata17"><rdf:RDF><cc:Work
         rdf:about=""><dc:format>image/svg+xml</dc:format><dc:type
           rdf:resource="http://purl.org/dc/dcmitype/StillImage" /><dc:title /></cc:Work></rdf:RDF></metadata><defs
     id="defs15" /><g
     id="g3"><polygon
       points="144.1,97.9 144.1,133.2 10,177.1 10,145 96.2,115.1 10,80.6 10,48.5 "
       id="polygon5"
       style="fill:#231f20" /><polygon
       points="144.1,107.4 144.1,142.7 10,186.7 10,154.5 96.2,124.7 10,90.2 10,58 "
       id="polygon7"
       style="fill:#ffffff;fill-opacity:1" /><rect
       width="124.4"
       height="26.5"
       x="153.8"
       y="193"
       id="rect9"
       style="fill:#231f20" /><rect
       width="124.4"
       height="26.5"
       x="153.8"
       y="202.60001"
       id="rect11"
       style="fill:#ffffff;fill-opacity:1" /><path
       inkscape:connector-curvature="0"
       d="m 216.22927,48.939072 c -1.27025,0.08698 -2.50488,0.283677 -3.75253,0.426434 l -0.0854,0 -2.98498,16.289432 c -4.86525,1.108001 -9.44249,2.988358 -13.5603,5.543525 l -13.38974,-9.637204 c -3.6196,2.810166 -6.9134,6.087565 -9.80778,9.637204 l 9.29606,13.560311 c -2.82254,4.313408 -4.94507,9.238693 -6.14051,14.41317 -2.1e-4,0.0242 -1.8e-4,0.0811 0,0.0854 l -16.20416,2.558536 c -0.29623,2.41974 -0.42641,4.92042 -0.42641,7.41979 0,2.04494 0.0564,4.06253 0.25583,6.05524 l 16.20415,2.89969 c 1.15245,5.62714 3.34169,10.88239 6.39637,15.52185 l -9.63721,13.2192 c 2.76004,3.42644 5.94646,6.54611 9.38134,9.29606 l 13.6456,-9.38135 c 4.76896,3.04219 10.09251,5.17543 15.86301,6.22579 l 2.55856,16.11886 c 1.81807,0.16563 3.68251,0.17046 5.54352,0.17046 2.62726,0 5.13685,-0.0996 7.67563,-0.4264 l 3.07027,-16.46001 c 5.47889,-1.36348 10.62574,-3.72877 15.09544,-6.90808 l 13.13388,9.55192 c 3.40601,-2.89779 6.52063,-6.22856 9.2108,-9.80778 l -9.55192,-13.81618 c 2.58679,-4.46752 4.37921,-9.39672 5.28767,-14.669 l 16.11885,-2.55855 c 0.14148,-1.68209 0.17047,-3.3134 0.17047,-5.0318 0,-2.98624 -0.34711,-5.91427 -0.76759,-8.78438 l -16.37471,-2.984966 c -1.28318,-4.738359 -3.38863,-9.1592 -6.05518,-13.133898 l 9.63719,-13.219165 c -2.98722,-3.653204 -6.39482,-7.027968 -10.1489,-9.893062 l -13.90146,9.551921 c -3.99543,-2.362957 -8.29507,-4.176043 -12.96331,-5.202383 l -2.55857,-16.204143 c -2.32876,-0.273926 -4.67667,-0.426431 -7.07863,-0.426431 -0.64919,2.3e-5 -1.31732,-0.02147 -1.96157,0 -0.31406,0.01071 -0.62487,-0.0188 -0.93813,0 -0.0848,0.0054 -0.17127,-0.0054 -0.25583,0 z m 2.2174,41.448514 c 0.31159,-0.01614 0.62267,0 0.93815,0 10.09535,0 18.33626,8.240908 18.33626,18.336274 0,10.09535 -8.24091,18.25096 -18.33626,18.25096 -10.09537,0 -18.25099,-8.15561 -18.25099,-18.25096 0,-9.779876 7.65408,-17.846136 17.31284,-18.336274 z"
       id="path3243-4"
       style="color:#000000;display:inline;overflow:visible;visibility:visible;fill:#000000;fill-opacity:1;fill-rule:nonzero;stroke:none;stroke-width:0;marker:none" /><path
       inkscape:connector-curvature="0"
       d="m 216.49996,55.190491 c -1.27025,0.08698 -2.50488,0.283672 -3.75253,0.426435 l -0.0854,0 -2.98498,16.289427 c -4.86526,1.108001 -9.44249,2.988363 -13.56031,5.543524 l -13.38973,-9.637203 c -3.6196,2.810165 -6.9134,6.08757 -9.80778,9.637203 l 9.29606,13.560312 c -2.82254,4.313405 -4.94507,9.238681 -6.14051,14.413171 -2.1e-4,0.0242 -1.9e-4,0.0811 0,0.0854 l -16.20414,2.55854 c -0.29623,2.41973 -0.42641,4.92042 -0.42641,7.41978 0,2.04495 0.0564,4.06254 0.25584,6.05524 l 16.20414,2.89971 c 1.15246,5.62713 3.3417,10.88238 6.39637,15.52185 l -9.63721,13.21918 c 2.76005,3.42644 5.94647,6.54611 9.38135,9.29606 l 13.6456,-9.38135 c 4.76897,3.04219 10.09251,5.17543 15.86301,6.22579 l 2.55856,16.11887 c 1.81807,0.16562 3.68251,0.17045 5.54352,0.17045 2.62726,0 5.13685,-0.0996 7.67563,-0.4264 l 3.07027,-16.46001 c 5.47889,-1.36348 10.62574,-3.72877 15.09544,-6.90808 l 13.13388,9.55192 c 3.40601,-2.89779 6.52063,-6.22856 9.2108,-9.80778 l -9.55196,-13.81617 c 2.58679,-4.46752 4.3792,-9.39672 5.28767,-14.66901 l 16.11885,-2.55855 c 0.14148,-1.68208 0.17047,-3.3134 0.17047,-5.0318 0,-2.98624 -0.34711,-5.91426 -0.76758,-8.78437 l -16.37472,-2.98498 c -1.28322,-4.738359 -3.38867,-9.159198 -6.05522,-13.133896 l 9.63718,-13.21916 c -2.98722,-3.65321 -6.39481,-7.027979 -10.14889,-9.893067 l -13.90147,9.55192 c -3.99542,-2.362956 -8.29506,-4.176042 -12.9633,-5.202378 l -2.55857,-16.204144 c -2.32876,-0.273926 -4.67667,-0.426434 -7.07863,-0.426434 -0.64919,2.7e-5 -1.31731,-0.02147 -1.96157,0 -0.31406,0.01076 -0.62487,-0.0188 -0.93813,0 -0.0848,0.0054 -0.17127,-0.0054 -0.25583,0 z m 2.2174,41.448503 c 0.31159,-0.0161 0.62267,0 0.93815,0 10.09535,0 18.33626,8.240916 18.33626,18.336276 0,10.09535 -8.24091,18.25097 -18.33626,18.25097 -10.09537,0 -18.25099,-8.15562 -18.25099,-18.25097 0,-9.77988 7.65408,-17.846136 17.31284,-18.336276 z"
       id="path3243"
       style="color:#000000;display:inline;overflow:visible;visibility:visible;fill:#ffffff;fill-opacity:1;fill-rule:nonzero;stroke:none;stroke-width:0;marker:none" /></g></svg>