<?xml version="1.0" encoding="utf-8"?>
<!-- Generator: Adobe Illustrator 18.0.0, SVG Export Plug-In . SVG Version: 6.00 Build 0)  -->
<!DOCTYPE svg PUBLIC "-//W3C//DTD SVG 1.1//EN" "http://www.w3.org/Graphics/SVG/1.1/DTD/svg11.dtd">
<svg version="1.1"
	 id="svg7631" xmlns:cc="http://creativecommons.org/ns#" xmlns:inkscape="http://www.inkscape.org/namespaces/inkscape" xmlns:sodipodi="http://sodipodi.sourceforge.net/DTD/sodipodi-0.dtd" xmlns:dc="http://purl.org/dc/elements/1.1/" xmlns:svg="http://www.w3.org/2000/svg" xmlns:rdf="http://www.w3.org/1999/02/22-rdf-syntax-ns#" sodipodi:docname="camera-photo.svg" sodipodi:version="0.32" inkscape:version="0.48.3.1 r9886" inkscape:output_extension="org.inkscape.output.svg.inkscape"
	 xmlns="http://www.w3.org/2000/svg" xmlns:xlink="http://www.w3.org/1999/xlink" x="0px" y="0px" viewBox="0 0 288 288"
	 enable-background="new 0 0 288 288" xml:space="preserve">
<g>
	<path fill="#CDCDCD" d="M23,241.2h199.4l57.5-94.3c2.2-3.5-0.4-8.1-4.5-8.1H75.5c-2,0-3.9,1.2-4.8,3L23,241.2z"/>
	<path fill="#231F20" d="M232.1,73c-1.7-0.9-95,0-95,0c-2-25.2-27.1-23.4-27.1-23.4s-39.5,0-66.1,0c-28.7,0-30.6,23.3-30.6,23.3
		l-0.5,150.9h5.8l11.8-24.6V96.7h197.4v23h18.8V96.4C247.7,78.3,233.7,73.9,232.1,73z"/>
	<path fill="#A4A5A6" d="M232.1,81.6c-1.7-0.9-95,0-95,0c-2-25.2-27.1-23.4-27.1-23.4s-39.5,0-66.1,0c-28.7,0-30.6,23.3-30.6,23.3
		l-0.5,150.9h5.8l11.8-24.6V105.2h197.4v23h18.8v-23.3C247.7,86.8,233.7,82.5,232.1,81.6z"/>
</g>
</svg>
