<?xml version="1.0" encoding="utf-8"?>
<!-- Generator: Adobe Illustrator 18.0.0, SVG Export Plug-In . SVG Version: 6.00 Build 0)  -->
<!DOCTYPE svg PUBLIC "-//W3C//DTD SVG 1.1//EN" "http://www.w3.org/Graphics/SVG/1.1/DTD/svg11.dtd">
<svg version="1.1"
	 id="svg7631" xmlns:cc="http://creativecommons.org/ns#" xmlns:inkscape="http://www.inkscape.org/namespaces/inkscape" xmlns:sodipodi="http://sodipodi.sourceforge.net/DTD/sodipodi-0.dtd" xmlns:dc="http://purl.org/dc/elements/1.1/" xmlns:svg="http://www.w3.org/2000/svg" xmlns:rdf="http://www.w3.org/1999/02/22-rdf-syntax-ns#" sodipodi:docname="camera-photo.svg" sodipodi:version="0.32" inkscape:version="0.48.3.1 r9886" inkscape:output_extension="org.inkscape.output.svg.inkscape"
	 xmlns="http://www.w3.org/2000/svg" xmlns:xlink="http://www.w3.org/1999/xlink" x="0px" y="0px" viewBox="0 0 288 288"
	 enable-background="new 0 0 288 288" xml:space="preserve">
<rect x="187.8" y="230.1" fill="#CDCDCD" width="4.1" height="33"/>
<rect x="199.7" y="230.1" fill="#CDCDCD" width="4.1" height="33"/>
<rect x="211.2" y="230.1" fill="#CDCDCD" width="4.1" height="33"/>
<rect x="222.8" y="230.1" fill="#CDCDCD" width="4.1" height="33"/>
<rect x="234.3" y="230.1" fill="#CDCDCD" width="4.1" height="33"/>
<g>
	<path fill="#231F20" d="M154.6,55.5L182.4,42l-19.5,89.2l-41.8-39.7L117,73.7C100.9-24.5,9.7,63.9,9.7,63.9
		C82.1-47.9,145.2,38.4,154.6,55.5z"/>
	<g>
		<polygon fill="#231F20" points="60.2,79.6 62.3,68.7 106.3,68.7 107.3,78.4 		"/>
		<path fill="#231F20" d="M187.3,77.4l1.1-7.9h57.7l0.6,10.4C246.7,79.9,186.8,77.5,187.3,77.4z"/>
	</g>
</g>
<path fill="#CDCDCD" d="M154.6,67.6l27.8-13.5l-19.5,89.2l-79.6-41.2L117,85.8C100.9-12.3,9.7,76.1,9.7,76.1
	C82.1-35.7,145.2,50.5,154.6,67.6z"/>
<path fill="#FFFFFF" d="M246.6,77.4l-59.2,0l-19.8,78.4L66.5,101.4l40.9-19.5c-0.4-2.5,0.5-2.4-0.5-4.6l-46.3,0.2L39.8,230.8H268
	L246.6,77.4z M153.5,210.1c-48.3,0-87.5-25.2-87.5-56.2c0-1.7,0.2-3.3,0.4-4.9c3.9,28.7,41.4,51.3,87.1,51.3s83.2-22.6,87.1-51.3
	c0.2,1.6,0.4,3.3,0.4,4.9C240.9,184.9,201.8,210.1,153.5,210.1z"/>
<path fill="#CDCDCD" d="M258.1,221.4H49c-5.5,0-9.9,4.4-9.9,9.9v29.9c0,5.5,4.4,9.9,9.9,9.9h209.1c5.5,0,9.9-4.4,9.9-9.9v-29.9
	C268,225.8,263.6,221.4,258.1,221.4z"/>
</svg>
