<?xml version="1.0" encoding="UTF-8" standalone="no"?>
<!-- Created with Inkscape (http://www.inkscape.org/) -->

<svg
   xmlns:dc="http://purl.org/dc/elements/1.1/"
   xmlns:cc="http://creativecommons.org/ns#"
   xmlns:rdf="http://www.w3.org/1999/02/22-rdf-syntax-ns#"
   xmlns:svg="http://www.w3.org/2000/svg"
   xmlns="http://www.w3.org/2000/svg"
   xmlns:sodipodi="http://sodipodi.sourceforge.net/DTD/sodipodi-0.dtd"
   xmlns:inkscape="http://www.inkscape.org/namespaces/inkscape"
   version="1.1"
   width="100%"
   height="100%"
   viewBox="0 0 288 288"
   id="svg7631"
   xml:space="preserve"
   inkscape:version="0.91 r13725"
   sodipodi:docname="show-hostname-hover.svg"><sodipodi:namedview
     pagecolor="#ffffff"
     bordercolor="#666666"
     borderopacity="1"
     objecttolerance="10"
     gridtolerance="10"
     guidetolerance="10"
     inkscape:pageopacity="0"
     inkscape:pageshadow="2"
     inkscape:window-width="1801"
     inkscape:window-height="1283"
     id="namedview23"
     showgrid="false"
     inkscape:zoom="2.3177389"
     inkscape:cx="39.042878"
     inkscape:cy="96.760388"
     inkscape:window-x="458"
     inkscape:window-y="199"
     inkscape:window-maximized="0"
     inkscape:current-layer="g3" /><metadata
     id="metadata43"><rdf:RDF><cc:Work
         rdf:about=""><dc:format>image/svg+xml</dc:format><dc:type
           rdf:resource="http://purl.org/dc/dcmitype/StillImage" /><dc:title /></cc:Work></rdf:RDF></metadata><defs
     id="defs41" /><g
     id="g3"><g
       id="g5"><polygon
         points="172.7,53.7 165.1,60.8 40.9,60.8 40.9,232.2 232.1,232.2 232.1,130.5 232.1,52.4 188,52.4 187.8,52.6 177.5,56.1 "
         id="polygon7"
         style="fill:none" /><rect
         width="191.10001"
         height="8.5"
         x="40.900002"
         y="232.2"
         id="rect9"
         style="fill:#221f1f" /><path
         d="m 33.782426,29.2 184.578274,0 7.61262,-8.3 0.11033,-0.2 -192.301224,0 C 20.322444,20.7 9.4,30.6 9.4,42.8 l 0,8.5 C 9.4,39.2 20.322444,29.2 33.782426,29.2 Z"
         id="path11"
         style="fill:#221f1f"
         inkscape:connector-curvature="0" /><polygon
         points="232.1,120.4 232.1,130.5 263.6,101 263.6,90.6 "
         id="polygon13"
         style="fill:#221f1f"
         transform="matrix(0.99217276,0,0,1.0701643,2.9258897,-33.997962)" /><polygon
         points="174,52.4 40.9,52.4 40.9,60.8 165.1,60.8 172.7,53.7 172.6,53.6 "
         id="polygon15"
         style="fill:#cccccc"
         transform="matrix(1.1444053,0,0,1,-5.9061748,0)" /><path
         d="m 241.5,263.8 h -210 c -12.2,0 -22.1,-9.9 -22.1,-22.1 v 8.5 c 0,12.2 9.9,22.1 22.1,22.1 h 210.1 c 12.2,0 22.1,-9.9 22.1,-22.1 v -8.5 c -0.1,12.2 -10,22.1 -22.2,22.1 z"
         id="path17"
         style="fill:#cccccc" /><path
         d="m 232.1,232.2 0,8.5 -191.2,0 0,-8.5 0,-171.4 0,-8.5 152.01526,0.457625 L 218.02034,29.200001 31.5,29.2 C 19.3,29.2 9.4,39.1 9.4,51.3 l 0,190.3 c 0,12.2 9.9,22.1 22.1,22.1 l 38.059322,0 31.728818,0 140.31186,0 c 12.2,0 22.1,-9.9 22.1,-22.1 l 1.22034,-172.023729 -31.60001,31.330509 z"
         id="path19"
         style="fill:#ffffff;fill-opacity:1"
         inkscape:connector-curvature="0"
         sodipodi:nodetypes="ccccccccssssccssccc" /></g><g
       id="g21"
       transform="matrix(0.59401734,0,0,0.59401734,105.40064,9.0991628)"><path
         d="M 279.4,56.4 135.7,191.6 90.8,143.9 233.8,9.3 c 2.8,-2.7 7.3,-2.5 10,0.3 l 35.9,38.1 c 2.3,2.5 2.2,6.4 -0.3,8.7 z"
         id="path23"
         style="fill:#221f1f"
         inkscape:connector-curvature="0" /></g><path
       d="M 271.36909,42.601737 186.00878,122.91288 159.33741,94.57827 244.28189,14.623524 c 1.66326,-1.603846 4.33632,-1.485043 5.94017,0.178207 l 21.32522,22.632055 c 1.36625,1.485051 1.30684,3.801716 -0.17819,5.167951 z"
       id="path25"
       style="fill:#221f1f"
       inkscape:connector-curvature="0" /><path
       d="M 271.36909,47.650883 186.00878,127.96203 159.33741,99.627417 244.28189,19.672672 c 1.66326,-1.603847 4.33632,-1.485042 5.94017,0.178206 l 21.32522,22.632054 c 1.36625,1.485051 1.30684,3.742307 -0.17819,5.167951 z"
       id="path27"
       style="fill:#cdcdcd"
       inkscape:connector-curvature="0" /><polygon
       points="232.1,240.7 232.1,130.5 147,210.1 80.7,139.7 165.1,60.8 40.9,60.8 40.9,240.7 "
       id="polygon29"
       style="fill:none"
       transform="matrix(0.97008595,0,0,0.97008595,20.338322,-11.372358)" /><polygon
       points="232.1,88 232.1,60.8 210.8,60.8 112.8,153 136.3,178.1 "
       id="polygon31"
       style="fill:none"
       transform="matrix(0.59401734,0,0,0.59401734,105.40064,9.0991628)" /><polygon
       points="261.9,60 238.3,34.9 210.8,60.8 232.1,60.8 232.1,88 "
       id="polygon33"
       style="fill:#cdcdcd"
       transform="matrix(0.59401734,0,0,0.59401734,105.40064,9.0991628)" /><path
       d="M 271.36909,47.650883 186.00878,127.96203 159.33741,99.627417 244.28189,19.672672 c 1.66326,-1.603847 4.33632,-1.485042 5.94017,0.178206 l 21.32522,22.632054 c 1.36625,1.485051 1.30684,3.742307 -0.17819,5.167951 z"
       id="path35"
       style="fill:#ffffff;fill-opacity:1"
       inkscape:connector-curvature="0" /><path
       d="m 182.38527,131.70436 -26.73076,-28.33465 -1.66325,23.34489 c -0.11876,1.54445 1.06923,2.91069 2.61365,3.02949 l 25.78036,1.96027 z"
       id="path37"
       style="fill:#ffffff;fill-opacity:1"
       inkscape:connector-curvature="0" /><path
       inkscape:connector-curvature="0"
       style="font-style:italic;font-variant:normal;font-weight:normal;font-stretch:normal;font-size:24px;line-height:120.00000477%;font-family:'Times New Roman';text-align:start;writing-mode:lr-tb;text-anchor:start;fill:#ffffff;fill-opacity:1;stroke:none;stroke-width:1pt;stroke-linecap:butt;stroke-linejoin:miter;stroke-opacity:1"
       d="m 100.57115,73.769769 -10.033808,34.886781 -1.13201,4.68245 c -0.10297,0.44595 -0.15439,0.82329 -0.15439,1.13202 -3e-5,0.54886 0.17147,1.02911 0.51456,1.44075 0.27439,0.30872 0.61743,0.4631 1.02911,0.4631 0.44591,0 1.02907,-0.27443 1.74948,-0.82329 1.3378,-0.9948 3.12159,-3.05301 5.35137,-6.17465 l 1.74948,1.23493 c -2.36699,3.56758 -4.80255,6.29472 -7.30667,8.18141 -2.5042,1.8524 -4.81969,2.77859 -6.94648,2.77859 -1.47509,0 -2.58996,-0.37735 -3.34461,-1.13202 -0.7204,-0.72037 -1.08059,-1.78378 -1.08056,-3.19023 -3e-5,-1.68087 0.37731,-3.89345 1.13202,-6.63775 l 1.08057,-3.85916 c -4.49381,5.86593 -8.62739,9.96521 -12.40076,12.29785 -2.71001,1.68087 -5.36853,2.52131 -7.9756,2.52131 -2.50417,0 -4.66529,-1.02911 -6.48338,-3.08732 -1.8181,-2.09251 -2.72714,-4.95686 -2.72714,-8.59306 0,-5.45426 1.62942,-11.200105 4.88827,-17.237564 3.29313,-6.071708 7.46102,-10.925667 12.50367,-14.561891 3.94489,-2.88146 7.66683,-4.322208 11.16583,-4.322256 2.09249,4.8e-5 3.82482,0.548906 5.197,1.646574 1.40641,1.09776 2.46982,2.915849 3.19023,5.454278 l 1.8524,-5.865922 8.181408,-1.23493 m -18.318128,2.675682 c -2.19546,4.4e-5 -4.52811,1.029153 -6.99794,3.087326 -3.49899,2.915845 -6.62062,7.238102 -9.36489,12.966773 -2.71,5.728725 -4.06499,10.90857 -4.06498,15.53954 -10e-6,2.33265 0.58315,4.18505 1.74948,5.55719 1.16631,1.33784 2.50415,2.00676 4.01353,2.00676 3.73908,0 7.80405,-2.76144 12.19494,-8.28432 5.86588,-7.340963 8.79884,-14.8706 8.79888,-22.588943 -3e-5,-2.91577 -0.56604,-5.02544 -1.69802,-6.329017 -1.13206,-1.303494 -2.67572,-1.955265 -4.63099,-1.955309"
       id="text3423" /><path
       inkscape:connector-curvature="0"
       style="font-style:normal;font-variant:normal;font-weight:bold;font-stretch:normal;font-size:29.01771545px;line-height:120.00000477%;font-family:'Arial Rounded CE';text-align:start;writing-mode:lr-tb;text-anchor:start;fill:#ffffff;fill-opacity:1;stroke:none;stroke-width:1pt;stroke-linecap:butt;stroke-linejoin:miter;stroke-opacity:1"
       d="m 116.74226,137.55236 0,25.94294 c 3.19357,-3.31798 6.44939,-5.84799 9.76748,-7.59002 3.318,-1.78338 7.42407,-2.67511 12.31822,-2.67517 5.64063,6e-5 10.57623,1.34802 14.80678,4.04386 4.27191,2.6545 7.56919,6.53245 9.89191,11.63389 2.36404,5.06006 3.54606,11.07401 3.54615,18.04185 -9e-5,5.14299 -0.66368,9.8712 -1.99082,14.18463 -1.28582,4.272 -3.17297,7.98406 -5.6614,11.13618 -2.48861,3.15215 -5.51633,5.5992 -9.08316,7.34117 -3.52547,1.7005 -7.42416,2.55075 -11.69608,2.55075 -2.613,0 -5.0808,-0.31105 -7.40339,-0.9332 -2.28118,-0.62213 -4.23055,-1.4309 -5.84806,-2.42632 -1.61759,-1.03688 -3.00699,-2.09451 -4.16829,-3.17288 -1.11984,-1.07836 -2.613,-2.6959 -4.47934,-4.85263 l 0,1.67976 c -4e-5,3.19362 -0.76734,5.61993 -2.30191,7.27895 -1.5346,1.61755 -3.48396,2.42632 -5.84805,2.42632 -2.40557,0 -4.33417,-0.80877 -5.78584,-2.42632 -1.41017,-1.65902 -2.11525,-4.08533 -2.11525,-7.27895 l 0,-74.15826 c 0,-3.44238 0.68436,-6.0346 2.05308,-7.77665 1.41013,-1.78336 3.35949,-2.67508 5.84801,-2.67518 2.61296,10e-5 4.6245,0.85034 6.03471,2.55075 1.41013,1.65911 2.11521,4.04395 2.11525,7.15453 m 0.80876,50.45498 c 0,6.76053 1.53456,11.96571 4.60377,15.61553 3.11067,3.60839 7.17525,5.41257 12.19383,5.41256 4.27191,1e-5 7.9425,-1.84565 11.01176,-5.53698 3.11062,-3.73277 4.6659,-9.06238 4.66599,-15.98882 -9e-5,-4.47932 -0.64295,-8.33654 -1.92864,-11.57167 -1.28578,-3.23504 -3.11071,-5.72357 -5.47475,-7.4656 -2.36417,-1.78339 -5.12229,-2.67511 -8.27436,-2.67517 -3.23515,6e-5 -6.11771,0.89178 -8.64768,2.67517 -2.53001,1.74203 -4.52083,4.29277 -5.97245,7.65224 -1.45166,3.31808 -2.17747,7.27899 -2.17747,11.88274"
       id="text3427" /><path
       inkscape:connector-curvature="0"
       style="font-style:normal;font-variant:normal;font-weight:normal;font-stretch:normal;font-size:19.52186584px;line-height:120.00000477%;font-family:'Carbon Block';text-align:start;writing-mode:lr-tb;text-anchor:start;fill:#ffffff;fill-opacity:1;stroke:none;stroke-width:1pt;stroke-linecap:butt;stroke-linejoin:miter;stroke-opacity:1"
       d="m 218.9602,171.13593 c -5e-5,0.85722 -0.0571,2.11441 -0.17125,3.77158 -0.0571,1.6001 -0.0856,2.77158 -0.0856,3.51444 l -12.00054,0 0,-10.5433 c 0,-2.05718 -1.14289,-3.08579 -3.42869,-3.08584 -2.28584,5e-5 -3.42874,1.02866 -3.42869,3.08584 l 0,33.85855 c -5e-5,2.11438 1.14285,3.17156 3.42869,3.17156 2.2858,0 3.42869,-1.05718 3.42869,-3.17156 l 0,-11.22904 12.00054,0 0,10.97188 c -4e-5,3.37158 -1.82871,5.94311 -5.48594,7.71461 -2.91444,1.42863 -6.22888,2.14294 -9.94329,2.14294 -3.77162,0 -7.08602,-0.71431 -9.94329,-2.14294 -3.65728,-1.7715 -5.48594,-4.34303 -5.48594,-7.71461 l 0,-33.00136 c 0,-6.34308 5.14306,-9.51463 15.42923,-9.51469 5.14306,6e-5 8.91464,0.77152 11.31477,2.31439 2.91435,1.88584 4.37155,5.17169 4.37159,9.85755"
       id="text3431" /></g></svg>