<?xml version="1.0" encoding="utf-8"?>
<!-- Generator: Adobe Illustrator 18.0.0, SVG Export Plug-In . SVG Version: 6.00 Build 0)  -->
<!DOCTYPE svg PUBLIC "-//W3C//DTD SVG 1.1//EN" "http://www.w3.org/Graphics/SVG/1.1/DTD/svg11.dtd">
<svg version="1.1"
	 id="svg7631" xmlns:cc="http://creativecommons.org/ns#" xmlns:inkscape="http://www.inkscape.org/namespaces/inkscape" xmlns:sodipodi="http://sodipodi.sourceforge.net/DTD/sodipodi-0.dtd" xmlns:dc="http://purl.org/dc/elements/1.1/" xmlns:svg="http://www.w3.org/2000/svg" xmlns:rdf="http://www.w3.org/1999/02/22-rdf-syntax-ns#" sodipodi:docname="camera-photo.svg" sodipodi:version="0.32" inkscape:version="0.48.3.1 r9886" inkscape:output_extension="org.inkscape.output.svg.inkscape"
	 xmlns="http://www.w3.org/2000/svg" xmlns:xlink="http://www.w3.org/1999/xlink" x="0px" y="0px" viewBox="0 0 288 288"
	 enable-background="new 0 0 288 288" xml:space="preserve">
<g>
	<g>
		<path fill="#231F20" d="M144.5,11C74.3,11,17.4,67.9,17.4,138.2c0,70.2,56.9,127.2,127.2,127.2c70.2,0,127.2-56.9,127.2-127.2
			C271.7,67.9,214.8,11,144.5,11z M144.5,235.7c-53.9,0-97.6-43.7-97.6-97.6c0-53.9,43.7-97.6,97.6-97.6c53.9,0,97.6,43.7,97.6,97.6
			C242.1,192.1,198.4,235.7,144.5,235.7z"/>
		<path fill="#231F20" d="M189.6,177.2L155,142.5V74.5c0-6.3-5.2-11.5-11.5-11.5c-6.3,0-11.5,5.2-11.5,11.5v72.9
			c0,0.2,0.1,0.3,0.1,0.5c0,2.6,1,5.3,3,7.2l0.2,0.2c0.1,0.1,0.2,0.2,0.3,0.3l37.8,37.8c4,4,10.5,4,14.5,0l1.8-1.8
			C193.6,187.7,193.6,181.1,189.6,177.2z"/>
	</g>
	<g>
		<path fill="#FFFFFF" d="M144.5,23.3c-70.2,0-127.2,56.9-127.2,127.2c0,70.2,56.9,127.2,127.2,127.2c70.2,0,127.2-56.9,127.2-127.2
			C271.7,80.3,214.8,23.3,144.5,23.3z M144.5,248.1c-53.9,0-97.6-43.7-97.6-97.6C47,96.6,90.7,53,144.5,53
			c53.9,0,97.6,43.7,97.6,97.6C242.1,204.4,198.4,248.1,144.5,248.1z"/>
		<path fill="#FFFFFF" d="M189.6,189.5L155,154.9V86.8c0-6.3-5.2-11.5-11.5-11.5c-6.3,0-11.5,5.2-11.5,11.5v72.9
			c0,0.2,0.1,0.3,0.1,0.5c0,2.6,1,5.3,3,7.2l0.2,0.2c0.1,0.1,0.2,0.2,0.3,0.3l37.8,37.8c4,4,10.5,4,14.5,0l1.8-1.8
			C193.6,200,193.6,193.5,189.6,189.5z"/>
	</g>
</g>
</svg>
