<?xml version="1.0" encoding="UTF-8" standalone="no"?>
<!-- Generator: Adobe Illustrator 18.0.0, SVG Export Plug-In . SVG Version: 6.00 Build 0)  -->

<svg
   xmlns:dc="http://purl.org/dc/elements/1.1/"
   xmlns:cc="http://creativecommons.org/ns#"
   xmlns:rdf="http://www.w3.org/1999/02/22-rdf-syntax-ns#"
   xmlns:svg="http://www.w3.org/2000/svg"
   xmlns="http://www.w3.org/2000/svg"
   xmlns:sodipodi="http://sodipodi.sourceforge.net/DTD/sodipodi-0.dtd"
   xmlns:inkscape="http://www.inkscape.org/namespaces/inkscape"
   version="1.1"
   id="svg7631"
   sodipodi:docname="switch.svg"
   sodipodi:version="0.32"
   inkscape:version="0.48.4 r9939"
   inkscape:output_extension="org.inkscape.output.svg.inkscape"
   x="0px"
   y="0px"
   viewBox="0 0 288 288"
   enable-background="new 0 0 288 288"
   xml:space="preserve"
   width="100%"
   height="100%"><metadata
     id="metadata65"><rdf:RDF><cc:Work
         rdf:about=""><dc:format>image/svg+xml</dc:format><dc:type
           rdf:resource="http://purl.org/dc/dcmitype/StillImage" /></cc:Work></rdf:RDF></metadata><defs
     id="defs63" /><sodipodi:namedview
     pagecolor="#ffffff"
     bordercolor="#666666"
     borderopacity="1"
     objecttolerance="10"
     gridtolerance="10"
     guidetolerance="10"
     inkscape:pageopacity="0"
     inkscape:pageshadow="2"
     inkscape:window-width="927"
     inkscape:window-height="696"
     id="namedview61"
     showgrid="false"
     inkscape:zoom="1.6388889"
     inkscape:cx="111.1176"
     inkscape:cy="156.50266"
     inkscape:window-x="569"
     inkscape:window-y="231"
     inkscape:window-maximized="0"
     inkscape:current-layer="g13" /><g
     id="g11"
     transform="translate(-113.49153,18.305085)"><g
       id="g13"><polygon
         points="240.1,80.4 277.1,52.4 240.1,22.3 240.1,38.4 195.6,38.4 195.6,66.4 240.1,66.3 "
         id="polygon15"
         style="fill:#231f20"
         transform="matrix(2.1538462,0,0,2.1538462,-204.40874,-32.442633)" /><polygon
         points="189.3,120.2 152.3,92.2 189.3,62.1 189.3,78.2 233.8,78.2 233.8,106.2 189.3,106.1 "
         id="polygon17"
         style="fill:#231f20"
         transform="matrix(2.1538462,0,0,2.1538462,-204.40874,-32.442633)" /></g><g
       id="g19"
       transform="matrix(2.1538462,0,0,2.1538462,-204.40874,-32.442633)"><polygon
         points="240.1,84.9 277.1,56.9 240.1,26.8 240.1,42.9 195.6,42.9 195.6,70.9 240.1,70.8 "
         id="polygon21"
         style="fill:#cdcdcd" /><polygon
         points="189.3,124.6 152.3,96.7 189.3,66.5 189.3,82.6 233.8,82.6 233.8,110.7 189.3,110.6 "
         id="polygon23"
         style="fill:#a4a5a6" /></g></g></svg>