<?xml version="1.0" encoding="UTF-8" standalone="no"?>
<svg
   enable-background="new -0.709 -32.081 141.732 141.732"
   height="141.732px"
   id="Livello_1"
   version="1.1"
   viewBox="-0.709 -32.081 141.732 141.732"
   width="141.732px"
   xml:space="preserve"
   sodipodi:docname="eye_off2.svg"
   inkscape:version="1.1.2 (0a00cf5339, 2022-02-04)"
   xmlns:inkscape="http://www.inkscape.org/namespaces/inkscape"
   xmlns:sodipodi="http://sodipodi.sourceforge.net/DTD/sodipodi-0.dtd"
   xmlns="http://www.w3.org/2000/svg"
   xmlns:svg="http://www.w3.org/2000/svg"><defs
     id="defs9" /><sodipodi:namedview
     id="namedview7"
     pagecolor="#ffffff"
     bordercolor="#666666"
     borderopacity="1.0"
     inkscape:pageshadow="2"
     inkscape:pageopacity="0.0"
     inkscape:pagecheckerboard="0"
     showgrid="false"
     inkscape:zoom="5.0729548"
     inkscape:cx="71.161683"
     inkscape:cy="70.865997"
     inkscape:window-width="1658"
     inkscape:window-height="1016"
     inkscape:window-x="70"
     inkscape:window-y="27"
     inkscape:window-maximized="1"
     inkscape:current-layer="Livello_1" /><g
     id="Livello_80"><path
       d="M89.668,38.786c0-10.773-8.731-19.512-19.51-19.512S50.646,28.01,50.646,38.786c0,10.774,8.732,19.511,19.512,19.511   C80.934,58.297,89.668,49.561,89.668,38.786 M128.352,38.727c-13.315,17.599-34.426,28.972-58.193,28.972   c-23.77,0-44.879-11.373-58.194-28.972C25.279,21.129,46.389,9.756,70.158,9.756C93.927,9.756,115.036,21.129,128.352,38.727    M140.314,38.76C125.666,15.478,99.725,0,70.158,0S14.648,15.478,0,38.76c14.648,23.312,40.591,38.81,70.158,38.81   S125.666,62.072,140.314,38.76"
       id="path2" /></g><g
     id="Livello_1_1_" /><path
     d="m 19.354144,-16.791815 c 2.079678,-2.079624 5.451424,-2.079624 7.5311,0 L 122.74,79.063042 c 2.07952,2.079517 2.07952,5.451476 0,7.530992 -2.07952,2.079517 -5.45148,2.079517 -7.53099,0 L 19.354144,-9.2607185 c -2.079623,-2.0796765 -2.079623,-5.4514205 0,-7.5310965 z"
     id="path905"
     style="fill:#ffffff;stroke-width:5.32526" /><path
     d="m 13.899155,-13.386617 c 2.079678,-2.079624 5.451424,-2.079624 7.5311,0 L 117.28501,82.46824 c 2.07952,2.079517 2.07952,5.451476 0,7.530992 -2.07952,2.079517 -5.45148,2.079517 -7.53099,0 L 13.899155,-5.8555208 c -2.079623,-2.0796767 -2.079623,-5.4514202 0,-7.5310962 z"
     id="path2-3"
     style="stroke-width:5.32526" /></svg>
