<?xml version="1.0" encoding="UTF-8" standalone="no"?>
<!-- Generator: Adobe Illustrator 18.0.0, SVG Export Plug-In . SVG Version: 6.00 Build 0)  -->

<svg
   xmlns:dc="http://purl.org/dc/elements/1.1/"
   xmlns:cc="http://creativecommons.org/ns#"
   xmlns:rdf="http://www.w3.org/1999/02/22-rdf-syntax-ns#"
   xmlns:svg="http://www.w3.org/2000/svg"
   xmlns="http://www.w3.org/2000/svg"
   xmlns:xlink="http://www.w3.org/1999/xlink"
   xmlns:sodipodi="http://sodipodi.sourceforge.net/DTD/sodipodi-0.dtd"
   xmlns:inkscape="http://www.inkscape.org/namespaces/inkscape"
   version="1.1"
   id="svg7631"
   sodipodi:docname="add-link-1-cancel.svg"
   sodipodi:version="0.32"
   inkscape:version="0.48.4 r9939"
   inkscape:output_extension="org.inkscape.output.svg.inkscape"
   x="0px"
   y="0px"
   viewBox="0 0 288 288"
   enable-background="new 0 0 288 288"
   xml:space="preserve"
   width="100%"
   height="100%"><metadata
     id="metadata13"><rdf:RDF><cc:Work
         rdf:about=""><dc:format>image/svg+xml</dc:format><dc:type
           rdf:resource="http://purl.org/dc/dcmitype/StillImage" /></cc:Work></rdf:RDF></metadata><defs
     id="defs11"><radialGradient
       inkscape:collect="always"
       xlink:href="#linearGradient9647"
       id="radialGradient2239"
       cx="24.30225"
       cy="33.30225"
       fx="24.30225"
       fy="33.30225"
       r="12.30225"
       gradientUnits="userSpaceOnUse"
       gradientTransform="matrix(5.2598365,0,0,4.8645536,-47.769532,37.912044)" /><linearGradient
       id="linearGradient9647"><stop
         style="stop-color:#ffffff;stop-opacity:1;"
         offset="0"
         id="stop9649" /><stop
         style="stop-color:#dbdbdb;stop-opacity:1;"
         offset="1"
         id="stop9651" /></linearGradient><linearGradient
       inkscape:collect="always"
       xlink:href="#linearGradient2256"
       id="linearGradient2262"
       x1="21.75"
       y1="15.80225"
       x2="24.30225"
       y2="35.05225"
       gradientUnits="userSpaceOnUse"
       gradientTransform="matrix(3.1050151,0,0,2.8716695,4.5974381,104.2795)" /><linearGradient
       id="linearGradient2256"><stop
         style="stop-color:#ff0202;stop-opacity:1;"
         offset="0"
         id="stop2258" /><stop
         style="stop-color:#ff9b9b;stop-opacity:1;"
         offset="1"
         id="stop2260" /></linearGradient><linearGradient
       inkscape:collect="always"
       xlink:href="#linearGradient4981"
       id="linearGradient4987"
       x1="23.995985"
       y1="20.105337"
       x2="41.047836"
       y2="37.959785"
       gradientUnits="userSpaceOnUse"
       gradientTransform="matrix(0.77341714,0,0,0.7152939,58.687079,13.581359)" /><linearGradient
       id="linearGradient4981"><stop
         style="stop-color:#cc0000;stop-opacity:1;"
         offset="0"
         id="stop4983" /><stop
         style="stop-color:#b30000;stop-opacity:1.0000000;"
         offset="1.0000000"
         id="stop4985" /></linearGradient><linearGradient
       y2="37.959785"
       x2="41.047836"
       y1="20.105337"
       x1="23.995985"
       gradientTransform="matrix(3.1050151,0,0,2.8716695,6.0344481,105.49984)"
       gradientUnits="userSpaceOnUse"
       id="linearGradient3129"
       xlink:href="#linearGradient4981"
       inkscape:collect="always" /></defs><sodipodi:namedview
     pagecolor="#ffffff"
     bordercolor="#666666"
     borderopacity="1"
     objecttolerance="10"
     gridtolerance="10"
     guidetolerance="10"
     inkscape:pageopacity="0"
     inkscape:pageshadow="2"
     inkscape:window-width="993"
     inkscape:window-height="803"
     id="namedview9"
     showgrid="false"
     inkscape:zoom="0.81944444"
     inkscape:cx="144"
     inkscape:cy="115.51747"
     inkscape:window-x="0"
     inkscape:window-y="0"
     inkscape:window-maximized="0"
     inkscape:current-layer="svg7631" /><g
     id="g3"><path
       fill="#231F20"
       d="M245.6,107.2V49.7h-24.8l-39.6-35.1c-1.3-1.2-3.3-1-4.5,0.3L173,19c-1.2,1.3-1,3.3,0.3,4.5l29.5,26.2h-35.4   v21H73.9c-0.7,0-21.2-0.3-35,13.3c-8.2,8-12.3,18.9-12.3,32.3c0,10.5,3.9,19.6,11.6,27c24.3,23.5,80,21.8,82.8,21.6   c0.4-0.1,39.7-3.9,59.5,14c7.5,6.7,11.1,15.6,11.1,27.2c0,10.7-3.5,19.1-10.7,25.8c-21.7,20-68.1,16.6-68.6,16.6l-1.2,14.5   c0.5,0,4.1,0.3,9.6,0.3c16.5,0,50.2-2.4,70-20.7c10.2-9.4,15.4-21.7,15.4-36.5c0-15.7-5.3-28.4-15.9-38   c-24.6-22.2-68.9-17.9-70.3-17.7c-14.4,0.5-55.2-1.7-71.7-17.6c-4.8-4.7-7.2-10.1-7.2-16.6c0-9.4,2.6-16.7,7.9-21.9   c9.4-9.3,24.7-9.1,24.8-9.2h93.5v22H245.6z"
       id="path5" /><path
       fill="#CDCDCD"
       d="M245.6,115.9V58.3h-24.8l-39.6-35.1c-1.3-1.2-3.3-1-4.5,0.3l-3.7,4.2c-1.2,1.3-1,3.3,0.3,4.5l29.5,26.2   h-35.4v21H73.9c-0.7,0-21.2-0.3-35,13.3c-8.2,8-12.3,18.9-12.3,32.3c0,10.5,3.9,19.6,11.6,27c24.3,23.5,80,21.8,82.8,21.6   c0.4-0.1,39.7-3.9,59.5,14c7.5,6.7,11.1,15.6,11.1,27.2c0,10.7-3.5,19.1-10.7,25.8c-21.7,20-68.1,16.6-68.6,16.6l-1.2,14.5   c0.5,0,4.1,0.3,9.6,0.3c16.5,0,50.2-2.4,70-20.7c10.2-9.4,15.4-21.7,15.4-36.5c0-15.7-5.3-28.4-15.9-38   c-24.6-22.2-68.9-17.9-70.3-17.7c-14.4,0.5-55.2-1.7-71.7-17.6c-4.8-4.7-7.2-10.1-7.2-16.6c0-9.4,2.6-16.7,7.9-21.9   c9.4-9.3,24.7-9.1,24.8-9.2h93.5v22H245.6z"
       id="path7" /></g><path
     style="fill:url(#linearGradient3129);fill-opacity:1;fill-rule:evenodd;stroke:#860000;stroke-width:2.98606396;stroke-linecap:butt;stroke-linejoin:miter;stroke-miterlimit:4;stroke-opacity:1;stroke-dasharray:none"
     d="m 54.444768,112.65579 53.050142,0 39.81028,37.60297 0,51.38461 -39.27412,34.50859 -54.121462,0 -40.13004,-36.86841 0,-49.37599 40.6652,-37.25177 z"
     id="path9480"
     sodipodi:nodetypes="ccccccccc"
     inkscape:connector-curvature="0" /><path
     style="fill:url(#radialGradient2239);fill-opacity:1;fill-rule:evenodd;stroke:url(#linearGradient2262);stroke-width:2.98606253;stroke-linecap:round;stroke-linejoin:round;stroke-miterlimit:4;stroke-opacity:1;stroke-dasharray:none"
     d="m 56.659778,140.17535 -13.24961,12.2539 23.39649,21.63827 -23.39649,21.63823 13.24961,12.2539 23.39654,-21.63823 23.396542,21.63823 13.24961,-12.2539 -23.396494,-21.63823 23.396494,-21.63827 -13.24961,-12.2539 -23.396542,21.63823 -23.39654,-21.63823 z"
     id="path2787"
     inkscape:connector-curvature="0" /></svg>