<?xml version="1.0" encoding="utf-8"?>
<!-- Generator: Adobe Illustrator 18.0.0, SVG Export Plug-In . SVG Version: 6.00 Build 0)  -->
<!DOCTYPE svg PUBLIC "-//W3C//DTD SVG 1.1//EN" "http://www.w3.org/Graphics/SVG/1.1/DTD/svg11.dtd">
<svg version="1.1"
	 id="svg7631" xmlns:cc="http://creativecommons.org/ns#" xmlns:inkscape="http://www.inkscape.org/namespaces/inkscape" xmlns:sodipodi="http://sodipodi.sourceforge.net/DTD/sodipodi-0.dtd" xmlns:dc="http://purl.org/dc/elements/1.1/" xmlns:svg="http://www.w3.org/2000/svg" xmlns:rdf="http://www.w3.org/1999/02/22-rdf-syntax-ns#" sodipodi:docname="camera-photo.svg" sodipodi:version="0.32" inkscape:version="0.48.3.1 r9886" inkscape:output_extension="org.inkscape.output.svg.inkscape"
	 xmlns="http://www.w3.org/2000/svg" xmlns:xlink="http://www.w3.org/1999/xlink" x="0px" y="0px" viewBox="0 0 288 288"
	 enable-background="new 0 0 288 288" xml:space="preserve">
<g>
	<path fill="#231F20" d="M245.6,107.2V49.7h-24.8l-39.6-35.1c-1.3-1.2-3.3-1-4.5,0.3L173,19c-1.2,1.3-1,3.3,0.3,4.5l29.5,26.2h-35.4
		v21H73.9c-0.7,0-21.2-0.3-35,13.3c-8.2,8-12.3,18.9-12.3,32.3c0,10.5,3.9,19.6,11.6,27c24.3,23.5,80,21.8,82.8,21.6
		c0.4-0.1,39.7-3.9,59.5,14c7.5,6.7,11.1,15.6,11.1,27.2c0,10.7-3.5,19.1-10.7,25.8c-21.7,20-68.1,16.6-68.6,16.6l-1.2,14.5
		c0.5,0,4.1,0.3,9.6,0.3c16.5,0,50.2-2.4,70-20.7c10.2-9.4,15.4-21.7,15.4-36.5c0-15.7-5.3-28.4-15.9-38
		c-24.6-22.2-68.9-17.9-70.3-17.7c-14.4,0.5-55.2-1.7-71.7-17.6c-4.8-4.7-7.2-10.1-7.2-16.6c0-9.4,2.6-16.7,7.9-21.9
		c9.4-9.3,24.7-9.1,24.8-9.2h93.5v22H245.6z"/>
	<path fill="#CDCDCD" d="M245.6,115.9V58.3h-24.8l-39.6-35.1c-1.3-1.2-3.3-1-4.5,0.3l-3.7,4.2c-1.2,1.3-1,3.3,0.3,4.5l29.5,26.2
		h-35.4v21H73.9c-0.7,0-21.2-0.3-35,13.3c-8.2,8-12.3,18.9-12.3,32.3c0,10.5,3.9,19.6,11.6,27c24.3,23.5,80,21.8,82.8,21.6
		c0.4-0.1,39.7-3.9,59.5,14c7.5,6.7,11.1,15.6,11.1,27.2c0,10.7-3.5,19.1-10.7,25.8c-21.7,20-68.1,16.6-68.6,16.6l-1.2,14.5
		c0.5,0,4.1,0.3,9.6,0.3c16.5,0,50.2-2.4,70-20.7c10.2-9.4,15.4-21.7,15.4-36.5c0-15.7-5.3-28.4-15.9-38
		c-24.6-22.2-68.9-17.9-70.3-17.7c-14.4,0.5-55.2-1.7-71.7-17.6c-4.8-4.7-7.2-10.1-7.2-16.6c0-9.4,2.6-16.7,7.9-21.9
		c9.4-9.3,24.7-9.1,24.8-9.2h93.5v22H245.6z"/>
</g>
</svg>
