<?xml version="1.0" encoding="utf-8"?>
<!-- Generator: Adobe Illustrator 18.0.0, SVG Export Plug-In . SVG Version: 6.00 Build 0)  -->
<!DOCTYPE svg PUBLIC "-//W3C//DTD SVG 1.1//EN" "http://www.w3.org/Graphics/SVG/1.1/DTD/svg11.dtd">
<svg version="1.1"
	 id="svg7631" xmlns:cc="http://creativecommons.org/ns#" xmlns:inkscape="http://www.inkscape.org/namespaces/inkscape" xmlns:sodipodi="http://sodipodi.sourceforge.net/DTD/sodipodi-0.dtd" xmlns:dc="http://purl.org/dc/elements/1.1/" xmlns:svg="http://www.w3.org/2000/svg" xmlns:rdf="http://www.w3.org/1999/02/22-rdf-syntax-ns#" sodipodi:docname="camera-photo.svg" sodipodi:version="0.32" inkscape:version="0.48.3.1 r9886" inkscape:output_extension="org.inkscape.output.svg.inkscape"
	 xmlns="http://www.w3.org/2000/svg" xmlns:xlink="http://www.w3.org/1999/xlink" x="0px" y="0px" viewBox="0 0 48 48"
	 enable-background="new 0 0 48 48" xml:space="preserve">
<g>
	<path fill="#231F20" d="M43.6,43.1H4.2c-1.6,0-2.8-1.3-2.8-2.8V12.2c0-1.6,1.3-2.8,2.8-2.8h8.4V6.5c0-1.6,1.3-2.8,2.8-2.8h16.9
		c1.6,0,2.8,1.3,2.8,2.8v2.8h8.5c1.6,0,2.8,1.3,2.8,2.8v28.2C46.5,41.9,45.2,43.1,43.6,43.1z M40.8,15h-8.5h-2.8V9.3H18.3V15h-2.8H7
		v22.5h33.8V15z M11.3,17.8c0.8,0,1.4,0.6,1.4,1.4s-0.6,1.4-1.4,1.4c-0.8,0-1.4-0.6-1.4-1.4S10.5,17.8,11.3,17.8z M23.9,17.8
		c4.7,0,8.4,3.8,8.4,8.4c0,4.7-3.8,8.5-8.4,8.5c-4.7,0-8.5-3.8-8.5-8.5C15.5,21.6,19.3,17.8,23.9,17.8z M23.9,31.9
		c3.1,0,5.6-2.5,5.6-5.6c0-3.1-2.5-5.6-5.6-5.6c-3.1,0-5.6,2.5-5.6,5.6C18.3,29.3,20.8,31.9,23.9,31.9z"/>
	<path fill="#CDCDCD" d="M43.6,44.6H4.2c-1.6,0-2.8-1.3-2.8-2.8V13.6c0-1.6,1.3-2.8,2.8-2.8h8.4V7.9c0-1.6,1.3-2.8,2.8-2.8h16.9
		c1.6,0,2.8,1.3,2.8,2.8v2.8h8.5c1.6,0,2.8,1.3,2.8,2.8v28.2C46.5,43.3,45.2,44.6,43.6,44.6z M40.8,16.4h-8.5h-2.8v-5.6H18.3v5.6
		h-2.8H7v22.5h33.8V16.4z M11.3,19.2c0.8,0,1.4,0.6,1.4,1.4c0,0.8-0.6,1.4-1.4,1.4c-0.8,0-1.4-0.6-1.4-1.4
		C9.8,19.8,10.5,19.2,11.3,19.2z M23.9,19.2c4.7,0,8.4,3.8,8.4,8.4c0,4.7-3.8,8.5-8.4,8.5c-4.7,0-8.5-3.8-8.5-8.5
		C15.5,23,19.3,19.2,23.9,19.2z M23.9,33.3c3.1,0,5.6-2.5,5.6-5.6c0-3.1-2.5-5.6-5.6-5.6c-3.1,0-5.6,2.5-5.6,5.6
		C18.3,30.8,20.8,33.3,23.9,33.3z"/>
</g>
</svg>
