<?xml version="1.0" encoding="utf-8"?>
<!-- Generator: Adobe Illustrator 18.0.0, SVG Export Plug-In . SVG Version: 6.00 Build 0)  -->
<!DOCTYPE svg PUBLIC "-//W3C//DTD SVG 1.1//EN" "http://www.w3.org/Graphics/SVG/1.1/DTD/svg11.dtd">
<svg version="1.1"
	 id="svg7631" xmlns:cc="http://creativecommons.org/ns#" xmlns:inkscape="http://www.inkscape.org/namespaces/inkscape" xmlns:sodipodi="http://sodipodi.sourceforge.net/DTD/sodipodi-0.dtd" xmlns:dc="http://purl.org/dc/elements/1.1/" xmlns:svg="http://www.w3.org/2000/svg" xmlns:rdf="http://www.w3.org/1999/02/22-rdf-syntax-ns#" sodipodi:docname="camera-photo.svg" sodipodi:version="0.32" inkscape:version="0.48.3.1 r9886" inkscape:output_extension="org.inkscape.output.svg.inkscape"
	 xmlns="http://www.w3.org/2000/svg" xmlns:xlink="http://www.w3.org/1999/xlink" x="0px" y="0px" viewBox="0 0 288 288"
	 enable-background="new 0 0 288 288" xml:space="preserve">
<g>
	<path fill="#231F20" d="M261.6,258.6H25.2c-9.6,0-16.8-7.8-16.8-16.8V73.2c0-9.6,7.8-16.8,16.8-16.8h50.4V39
		c0-9.6,7.8-16.8,16.8-16.8h101.4c9.6,0,16.8,7.8,16.8,16.8v16.8h51c9.6,0,16.8,7.8,16.8,16.8v169.2
		C279,251.4,271.2,258.6,261.6,258.6z M244.8,90h-51H177V55.8h-67.2V90H93H42v135h202.8V90z M67.8,106.8c4.8,0,8.4,3.6,8.4,8.4
		c0,4.8-3.6,8.4-8.4,8.4c-4.8,0-8.4-3.6-8.4-8.4C59.4,110.4,63,106.8,67.8,106.8z M143.4,106.8c28.2,0,50.4,22.8,50.4,50.4
		c0,28.2-22.8,51-50.4,51c-28.2,0-51-22.8-51-51C93,129.6,115.8,106.8,143.4,106.8z M143.4,191.4c18.6,0,33.6-15,33.6-33.6
		s-15-33.6-33.6-33.6s-33.6,15-33.6,33.6C109.8,175.8,124.8,191.4,143.4,191.4z"/>
	<path fill="#FFFFFF" d="M261.6,267.6H25.2c-9.6,0-16.8-7.8-16.8-16.8V81.6c0-9.6,7.8-16.8,16.8-16.8h50.4V47.4
		c0-9.6,7.8-16.8,16.8-16.8h101.4c9.6,0,16.8,7.8,16.8,16.8v16.8h51c9.6,0,16.8,7.8,16.8,16.8v169.2
		C279,259.8,271.2,267.6,261.6,267.6z M244.8,98.4h-51H177V64.8h-67.2v33.6H93H42v135h202.8V98.4z M67.8,115.2
		c4.8,0,8.4,3.6,8.4,8.4c0,4.8-3.6,8.4-8.4,8.4c-4.8,0-8.4-3.6-8.4-8.4C58.8,118.8,63,115.2,67.8,115.2z M143.4,115.2
		c28.2,0,50.4,22.8,50.4,50.4c0,28.2-22.8,51-50.4,51c-28.2,0-51-22.8-51-51C93,138,115.8,115.2,143.4,115.2z M143.4,199.8
		c18.6,0,33.6-15,33.6-33.6s-15-33.6-33.6-33.6s-33.6,15-33.6,33.6S124.8,199.8,143.4,199.8z"/>
</g>
</svg>
