<?xml version="1.0" encoding="UTF-8" standalone="no"?>
<!-- Created with Inkscape (http://www.inkscape.org/) -->

<svg
   xmlns:dc="http://purl.org/dc/elements/1.1/"
   xmlns:cc="http://creativecommons.org/ns#"
   xmlns:rdf="http://www.w3.org/1999/02/22-rdf-syntax-ns#"
   xmlns:svg="http://www.w3.org/2000/svg"
   xmlns="http://www.w3.org/2000/svg"
   xmlns:sodipodi="http://sodipodi.sourceforge.net/DTD/sodipodi-0.dtd"
   xmlns:inkscape="http://www.inkscape.org/namespaces/inkscape"
   version="1.1"
   width="100%"
   height="100%"
   viewBox="0 0 48 48"
   id="svg7631"
   xml:space="preserve"
   inkscape:version="0.91 r13725"
   sodipodi:docname="capture-stop-hover.svg"><sodipodi:namedview
     pagecolor="#ffffff"
     bordercolor="#666666"
     borderopacity="1"
     objecttolerance="10"
     gridtolerance="10"
     guidetolerance="10"
     inkscape:pageopacity="0"
     inkscape:pageshadow="2"
     inkscape:window-width="2093"
     inkscape:window-height="1354"
     id="namedview12"
     showgrid="false"
     inkscape:zoom="6.9532167"
     inkscape:cx="-66.793363"
     inkscape:cy="42.682582"
     inkscape:window-x="150"
     inkscape:window-y="68"
     inkscape:window-maximized="0"
     inkscape:current-layer="g5" /><metadata
     id="metadata21"><rdf:RDF><cc:Work
         rdf:about=""><dc:format>image/svg+xml</dc:format><dc:type
           rdf:resource="http://purl.org/dc/dcmitype/StillImage" /><dc:title /></cc:Work></rdf:RDF></metadata><defs
     id="defs19" /><g
     id="g3"><g
       id="g5"
       style="fill:#808080"><path
         d="m 46.754768,35.698776 -7.4,-9 c 1.6,-2.6 2.5,-5.6 2.5,-8.8 0,-9.2999987 -7.5,-16.799999 -16.8,-16.799999 -9.300001,0 -16.8000005,7.5000003 -16.8000005,16.799999 0,9.3 7.4999995,16.8 16.8000005,16.8 3.7,0 7.1,-1.2 9.9,-3.2 l 6.8,8.3 c 0.6,0.7 1.5,0.8 2.2,0.2 l 2.5,-2.1 c 0.7,-0.5 0.8,-1.5 0.3,-2.2 z m -33.800001,-17.8 c 0,-6.7 5.400001,-12.0999981 12.100001,-12.0999981 6.7,0 12.1,5.3999981 12.1,12.0999981 0,6.7 -5.4,12.1 -12.1,12.1 -6.7,0 -12.100001,-5.4 -12.100001,-12.1 z"
         id="path7-3"
         style="fill:#000000"
         inkscape:connector-curvature="0" /><path
         d="m 46.562712,37.383051 -7.4,-9 c 1.6,-2.6 2.5,-5.6 2.5,-8.8 0,-9.3 -7.5,-16.8000001 -16.8,-16.8000001 -9.3,0 -16.8000001,7.5000001 -16.8000001,16.8000001 0,9.3 7.5000001,16.8 16.8000001,16.8 3.7,0 7.1,-1.2 9.9,-3.2 l 6.8,8.3 c 0.6,0.7 1.5,0.8 2.2,0.2 l 2.5,-2.1 c 0.7,-0.5 0.8,-1.5 0.3,-2.2 z m -33.8,-17.8 c 0,-6.7 5.4,-12.0999997 12.1,-12.0999997 6.7,0 12.1,5.3999997 12.1,12.0999997 0,6.7 -5.4,12.1 -12.1,12.1 -6.7,0 -12.1,-5.4 -12.1,-12.1 z"
         id="path7"
         style="fill:#ffffff"
         inkscape:connector-curvature="0" /><rect
         style="opacity:1;fill:#000000;fill-opacity:1;stroke:none;stroke-width:1.23792636;stroke-linejoin:round;stroke-miterlimit:4;stroke-dasharray:none;stroke-dashoffset:0;stroke-opacity:1"
         id="rect4165-6-7"
         width="23.640957"
         height="20.557354"
         x="3.4242597"
         y="23.627129" /><rect
         style="opacity:1;fill:#ff4444;fill-opacity:1;stroke:#ffffff;stroke-width:1.23792636;stroke-linejoin:round;stroke-miterlimit:4;stroke-dasharray:none;stroke-dashoffset:0;stroke-opacity:1"
         id="rect4165-6"
         width="23.640957"
         height="20.557354"
         x="1.7915854"
         y="25.315504" /></g></g></svg>