<?xml version="1.0" encoding="utf-8"?>
<!-- Generator: Adobe Illustrator 18.0.0, SVG Export Plug-In . SVG Version: 6.00 Build 0)  -->
<!DOCTYPE svg PUBLIC "-//W3C//DTD SVG 1.1//EN" "http://www.w3.org/Graphics/SVG/1.1/DTD/svg11.dtd">
<svg version="1.1"
	 id="svg7631" xmlns:cc="http://creativecommons.org/ns#" xmlns:inkscape="http://www.inkscape.org/namespaces/inkscape" xmlns:sodipodi="http://sodipodi.sourceforge.net/DTD/sodipodi-0.dtd" xmlns:dc="http://purl.org/dc/elements/1.1/" xmlns:svg="http://www.w3.org/2000/svg" xmlns:rdf="http://www.w3.org/1999/02/22-rdf-syntax-ns#" sodipodi:docname="camera-photo.svg" sodipodi:version="0.32" inkscape:version="0.48.3.1 r9886" inkscape:output_extension="org.inkscape.output.svg.inkscape"
	 xmlns="http://www.w3.org/2000/svg" xmlns:xlink="http://www.w3.org/1999/xlink" x="0px" y="0px" viewBox="0 0 288 288"
	 enable-background="new 0 0 288 288" xml:space="preserve">
<g>
	<path fill="#121212" d="M143.9,219c-1.7,0-3.5,0-5.2-0.1l-7.6-0.2l0.5-16.3l7.5,0.2c10.4,0.3,21-0.3,31.2-1.7l7.1-1.1L179,216
		l-6.5,1.1C163.1,218.4,153.5,219,143.9,219z M113,217l-8-1.5c-11.6-2.2-22.6-5.4-32.8-9.4l-7.6-3l6-15.1l7.6,3
		c9.2,3.7,19.2,6.6,29.8,8.5l8,1.5L113,217z M197.9,212.1l-5.1-15.5l7.7-2.5c10.3-3.4,19.7-7.6,27.8-12.7l6.9-4.3l8.6,13.9l-6.9,4.3
		c-9.3,5.7-19.8,10.5-31.3,14.3L197.9,212.1z M48.4,194.2l-6.5-4.9c-10.6-8-18.6-17.1-23.7-27.1l-3.7-7.3l14.5-7.4l3.7,7.3
		c3.9,7.7,10.3,15,19,21.5l6.5,4.9L48.4,194.2z M258.6,178.3l-13.1-9.7l4.9-6.5c6-8.1,9.1-16.6,9.1-25.3v-5.2l-1.4-5.1
		c-2.3-8.2-7.4-16.1-15.1-23.4l-5.9-5.6l11.2-11.8l5.9,5.6c9.9,9.3,14.2,19.6,17.3,30.7l2.4,9.6l-0.7,1.8l-0.8,3.4
		c0,12.3-0.8,24.1-8.9,35L258.6,178.3z M24.5,136.8l-13.1-3.7l1.8-8c2.5-11.4,8.7-22.1,18.2-31.8l5.7-5.8L48.8,99l-5.7,5.8
		c-7.4,7.5-12.1,15.5-13.9,23.9L24.5,136.8z M60.1,91.3l-7.4-14.5L60,73c9.7-4.9,20.5-9,32.1-12l7.9-2.1l4.1,15.8l-7.9,2.1
		c-10.4,2.7-20.1,6.4-28.8,10.8L60.1,91.3z M225.4,90l-7.3-3.5c-8.8-4.3-18.6-7.7-29.1-10.3l-6.8-2.9l3.6-14.5l7.2,1.6
		c11.6,2.9,22.4,6.7,32.3,11.5l7.3,3.5L225.4,90z M118.8,72.2L117.4,56l8.1-0.7c11.1-1,22.7-1,33.8-0.2l8.1,0.6l-1.2,16.3l-8.1-0.6
		c-10.3-0.7-21-0.7-31.3,0.2L118.8,72.2z"/>
	<path fill="#CDCDCD" d="M143.3,228.6c-1.5,0-3.1,0-4.6,0l-8.2-0.2l0.3-16.5l8.2,0.2c10.6,0.2,21.3-0.4,31.6-1.8l8.2-1.1l2.2,16.3
		l-8.2,1.1C163.2,227.9,153.3,228.6,143.3,228.6z M112.8,226.7l-8.1-1.5c-11.7-2.1-22.9-5.2-33.2-9.1l-7.7-2.9l5.9-15.4l7.7,2.9
		c9.4,3.6,19.6,6.4,30.2,8.3l8.1,1.5L112.8,226.7z M198.6,221.7l-5-15.7l7.8-2.5c10.5-3.4,20-7.6,28.3-12.6l7.1-4.2l8.5,14.1
		l-7.1,4.2c-9.4,5.6-20.1,10.4-31.8,14.1L198.6,221.7z M47.3,204.6l-6.7-4.8C29.7,192,21.3,183,15.9,173.3l-4-7.2l14.4-8l4,7.2
		c4.3,7.6,10.9,14.8,19.9,21.2l6.7,4.8L47.3,204.6z M260.2,188.1l-13.1-10l5-6.5c6.2-8.1,9.4-16.6,9.4-25.3v-6.2l-2.1-6.1
		c-2.8-8.1-8.4-15.8-16.6-22.9l-6.2-5.4l10.8-12.4l6.2,5.4c10.4,9,17.6,19.1,21.4,29.9c0,0,2.5,6.6,3,10.8c0.5,4.2,0,6.9,0,6.9
		c0,12.4-4.3,24.3-12.7,35.3L260.2,188.1z M24.2,147.2L8.1,144l1.6-8.1c2.3-11.6,8.4-22.5,18.2-32.4l5.8-5.9l11.7,11.6l-5.8,5.9
		c-7.4,7.6-12.1,15.7-13.8,24.1L24.2,147.2z M56.9,101.4l-7.5-14.7l7.3-3.7c9.8-5,20.7-9.1,32.4-12.2l8-2.1l4.2,15.9l-8,2.1
		c-10.6,2.8-20.4,6.5-29.2,11L56.9,101.4z M224.5,98.4L217,95c-9-4.1-19-7.4-29.7-9.8l-8-1.8l3.7-16.1l8,1.8
		c11.7,2.7,22.7,6.3,32.8,10.8l7.5,3.4L224.5,98.4z M116.2,82l-1.5-16.4l8.2-0.8c11.2-1,22.9-1.2,34.1-0.5l8.2,0.5l-1,16.4l-8.2-0.5
		c-10.4-0.6-21.2-0.5-31.6,0.5L116.2,82z"/>
</g>
</svg>
