<?xml version="1.0" encoding="utf-8"?>
<!-- Generator: Adobe Illustrator 18.0.0, SVG Export Plug-In . SVG Version: 6.00 Build 0)  -->
<!DOCTYPE svg PUBLIC "-//W3C//DTD SVG 1.1//EN" "http://www.w3.org/Graphics/SVG/1.1/DTD/svg11.dtd">
<svg version="1.1"
	 id="svg7631" xmlns:cc="http://creativecommons.org/ns#" xmlns:inkscape="http://www.inkscape.org/namespaces/inkscape" xmlns:sodipodi="http://sodipodi.sourceforge.net/DTD/sodipodi-0.dtd" xmlns:dc="http://purl.org/dc/elements/1.1/" xmlns:svg="http://www.w3.org/2000/svg" xmlns:rdf="http://www.w3.org/1999/02/22-rdf-syntax-ns#" sodipodi:docname="camera-photo.svg" sodipodi:version="0.32" inkscape:version="0.48.3.1 r9886" inkscape:output_extension="org.inkscape.output.svg.inkscape"
	 xmlns="http://www.w3.org/2000/svg" xmlns:xlink="http://www.w3.org/1999/xlink" x="0px" y="0px" viewBox="0 0 288 288"
	 enable-background="new 0 0 288 288" xml:space="preserve">
<g>
	<path fill="#231F20" d="M9.4,44.4v187.5h271.5V44.4H9.4z M97.3,198.3c-24.3,0-44-19.7-44-44s19.7-44,44-44s44,19.7,44,44
		S121.6,198.3,97.3,198.3z M162,145.2l49.1-81.5l51.7,81.5H162z"/>
	<path fill="#FFFFFF" d="M9.4,53.7v187.5h271.5V53.7H9.4z M97.3,207.6c-24.3,0-44-19.7-44-44s19.7-44,44-44s44,19.7,44,44
		S121.6,207.6,97.3,207.6z M162,154.6l49.1-81.5l51.7,81.5H162z"/>
</g>
</svg>
