<?xml version="1.0" encoding="UTF-8" standalone="no"?>
<!-- Generator: Adobe Illustrator 18.0.0, SVG Export Plug-In . SVG Version: 6.00 Build 0)  -->

<svg
   xmlns:dc="http://purl.org/dc/elements/1.1/"
   xmlns:cc="http://creativecommons.org/ns#"
   xmlns:rdf="http://www.w3.org/1999/02/22-rdf-syntax-ns#"
   xmlns:svg="http://www.w3.org/2000/svg"
   xmlns="http://www.w3.org/2000/svg"
   xmlns:sodipodi="http://sodipodi.sourceforge.net/DTD/sodipodi-0.dtd"
   xmlns:inkscape="http://www.inkscape.org/namespaces/inkscape"
   version="1.1"
   id="svg7631"
   sodipodi:docname="inspect-hover.svg"
   sodipodi:version="0.32"
   inkscape:version="0.91 r13725"
   inkscape:output_extension="org.inkscape.output.svg.inkscape"
   x="0px"
   y="0px"
   viewBox="0 0 48 48"
   enable-background="new 0 0 48 48"
   xml:space="preserve"><metadata
     id="metadata21"><rdf:RDF><cc:Work
         rdf:about=""><dc:format>image/svg+xml</dc:format><dc:type
           rdf:resource="http://purl.org/dc/dcmitype/StillImage" /></cc:Work></rdf:RDF></metadata><defs
     id="defs19" /><sodipodi:namedview
     pagecolor="#ffffff"
     bordercolor="#666666"
     borderopacity="1"
     objecttolerance="10"
     gridtolerance="10"
     guidetolerance="10"
     inkscape:pageopacity="0"
     inkscape:pageshadow="2"
     inkscape:window-width="866"
     inkscape:window-height="480"
     id="namedview17"
     showgrid="false"
     inkscape:zoom="4.9166667"
     inkscape:cx="24"
     inkscape:cy="24"
     inkscape:window-x="150"
     inkscape:window-y="68"
     inkscape:window-maximized="0"
     inkscape:current-layer="g5" /><g
     id="g3"><g
       id="g5"><path
         fill="#231F20"
         d="M42.8,38.4l-7.4-9c1.6-2.6,2.5-5.6,2.5-8.8c0-9.3-7.5-16.8-16.8-16.8S4.3,11.3,4.3,20.6    c0,9.3,7.5,16.8,16.8,16.8c3.7,0,7.1-1.2,9.9-3.2l6.8,8.3c0.6,0.7,1.5,0.8,2.2,0.2l2.5-2.1C43.2,40.1,43.3,39.1,42.8,38.4z     M9,20.6c0-6.7,5.4-12.1,12.1-12.1s12.1,5.4,12.1,12.1c0,6.7-5.4,12.1-12.1,12.1S9,27.3,9,20.6z"
         id="path7" /></g><g
       id="g11"><path
         fill="#FFFFFF"
         d="M42.6,40l-7.4-9c1.6-2.6,2.5-5.6,2.5-8.8C37.7,13,30.2,5.4,21,5.4S4.2,13,4.2,22.2C4.2,31.5,11.7,39,21,39    c3.7,0,7.1-1.2,9.9-3.2l6.8,8.3c0.6,0.7,1.5,0.8,2.2,0.2l2.5-2.1C43.1,41.7,43.2,40.7,42.6,40z M8.9,22.2    c0-6.7,5.4-12.1,12.1-12.1S33,15.6,33,22.2c0,6.7-5.4,12.1-12.1,12.1S8.9,28.9,8.9,22.2z"
         id="path13" /></g></g></svg>