<?xml version="1.0" encoding="utf-8"?>
<!-- Generator: Adobe Illustrator 18.0.0, SVG Export Plug-In . SVG Version: 6.00 Build 0)  -->
<!DOCTYPE svg PUBLIC "-//W3C//DTD SVG 1.1//EN" "http://www.w3.org/Graphics/SVG/1.1/DTD/svg11.dtd">
<svg version="1.1"
	 id="svg7631" xmlns:cc="http://creativecommons.org/ns#" xmlns:inkscape="http://www.inkscape.org/namespaces/inkscape" xmlns:sodipodi="http://sodipodi.sourceforge.net/DTD/sodipodi-0.dtd" xmlns:dc="http://purl.org/dc/elements/1.1/" xmlns:svg="http://www.w3.org/2000/svg" xmlns:rdf="http://www.w3.org/1999/02/22-rdf-syntax-ns#" sodipodi:docname="camera-photo.svg" sodipodi:version="0.32" inkscape:version="0.48.3.1 r9886" inkscape:output_extension="org.inkscape.output.svg.inkscape"
	 xmlns="http://www.w3.org/2000/svg" xmlns:xlink="http://www.w3.org/1999/xlink" x="0px" y="0px" viewBox="0 0 288 288"
	 enable-background="new 0 0 288 288" xml:space="preserve">
<g>
	<path fill="#231F20" d="M278.3,233.7h-59.9v-20h59.9V233.7z M198.4,233.7h-59.9v-20h59.9V233.7z M118.5,233.7H58.6v-20h59.9V233.7z
		 M38.6,233.7h-30v-49.9h20l0,30h10V233.7z M278.3,213.7h-20v-59.9h20V213.7z M28.7,163.8h-20v-59.9h20V163.8z M278.3,133.8h-20
		V73.9h20V133.8z M28.7,83.9h-20V34h29.9v20h-10V83.9z M278.3,54h-59.9V34h59.9V54z M198.4,54h-59.9V34h59.9V54z M118.5,54H58.6V34
		h59.9V54z"/>
	<path fill="#CDCDCD" d="M278.3,246.6h-59.9v-20h59.9V246.6z M198.4,246.6h-59.9v-20h59.9V246.6z M118.5,246.6H58.6v-20h59.9V246.6z
		 M38.6,246.6h-30v-49.9h20l0,30h10V246.6z M278.3,226.6h-20v-59.9h20V226.6z M28.7,176.7h-20v-59.9h20V176.7z M278.3,146.7h-20
		V86.8h20V146.7z M28.7,96.8h-20V46.9h29.9v20h-10V96.8z M278.3,66.9h-59.9v-20h59.9V66.9z M198.4,66.9h-59.9v-20h59.9V66.9z
		 M118.5,66.9H58.6v-20h59.9V66.9z"/>
</g>
</svg>
