<?xml version="1.0" encoding="utf-8"?>
<!-- Generator: Adobe Illustrator 18.0.0, SVG Export Plug-In . SVG Version: 6.00 Build 0)  -->
<!DOCTYPE svg PUBLIC "-//W3C//DTD SVG 1.1//EN" "http://www.w3.org/Graphics/SVG/1.1/DTD/svg11.dtd">
<svg version="1.1"
	 id="svg7631" xmlns:cc="http://creativecommons.org/ns#" xmlns:inkscape="http://www.inkscape.org/namespaces/inkscape" xmlns:sodipodi="http://sodipodi.sourceforge.net/DTD/sodipodi-0.dtd" xmlns:dc="http://purl.org/dc/elements/1.1/" xmlns:svg="http://www.w3.org/2000/svg" xmlns:rdf="http://www.w3.org/1999/02/22-rdf-syntax-ns#" sodipodi:docname="camera-photo.svg" sodipodi:version="0.32" inkscape:version="0.48.3.1 r9886" inkscape:output_extension="org.inkscape.output.svg.inkscape"
	 xmlns="http://www.w3.org/2000/svg" xmlns:xlink="http://www.w3.org/1999/xlink" x="0px" y="0px" viewBox="0 0 288 288"
	 enable-background="new 0 0 288 288" xml:space="preserve">
<g>
	<path fill="#CDCDCD" d="M143.7,23.4c-69.5,0-125.8,56.3-125.8,125.8c0,69.5,56.3,125.8,125.8,125.8s125.8-56.3,125.8-125.8
		C269.5,79.7,213.2,23.4,143.7,23.4z M143.4,44.9l37.2,37.2h-22.3v44.7h-29.8l0.1-44.7h-22.5L143.4,44.9z M36.3,166.9v-29.8H81
		v-22.3l37.2,37.2L81,189.3v-22.5L36.3,166.9z M143.4,259.1l-37.2-37.2h22.5l-0.1-44.7h29.8v44.7h22.3L143.4,259.1z M205.9,166.8
		v22.5L168.6,152l37.2-37.2v22.3h44.7v29.8L205.9,166.8z"/>
	<g>
		<path d="M143.9,23.1c68.2,0,123.5,54.5,125.2,122.2c0.1-2.1,0.3-4.3,0.3-6.4c0-69.5-56.3-125.8-125.8-125.8S17.9,69.4,17.9,138.9
			c0,4.8,0.3,9.6,0.9,14.3c-0.1-1.6-0.2-3.1-0.2-4.7C18.6,79.2,74.7,23.1,143.9,23.1z"/>
	</g>
</g>
</svg>
