<?xml version="1.0" encoding="UTF-8" standalone="no"?>
<!-- Generator: Adobe Illustrator 18.0.0, SVG Export Plug-In . SVG Version: 6.00 Build 0)  -->

<svg
   xmlns:dc="http://purl.org/dc/elements/1.1/"
   xmlns:cc="http://creativecommons.org/ns#"
   xmlns:rdf="http://www.w3.org/1999/02/22-rdf-syntax-ns#"
   xmlns:svg="http://www.w3.org/2000/svg"
   xmlns="http://www.w3.org/2000/svg"
   xmlns:xlink="http://www.w3.org/1999/xlink"
   xmlns:sodipodi="http://sodipodi.sourceforge.net/DTD/sodipodi-0.dtd"
   xmlns:inkscape="http://www.inkscape.org/namespaces/inkscape"
   version="1.1"
   id="svg7631"
   sodipodi:docname="save-as-project.svg"
   sodipodi:version="0.32"
   inkscape:version="0.48.4 r9939"
   inkscape:output_extension="org.inkscape.output.svg.inkscape"
   x="0px"
   y="0px"
   viewBox="0 0 288 288"
   enable-background="new 0 0 288 288"
   xml:space="preserve"
   width="100%"
   height="100%"><metadata
     id="metadata33"><rdf:RDF><cc:Work
         rdf:about=""><dc:format>image/svg+xml</dc:format><dc:type
           rdf:resource="http://purl.org/dc/dcmitype/StillImage" /></cc:Work></rdf:RDF></metadata><defs
     id="defs31"><radialGradient
       r="14.375"
       fy="125"
       fx="55"
       cy="125"
       cx="55"
       gradientUnits="userSpaceOnUse"
       id="radialGradient278"
       xlink:href="#linearGradient12512"
       inkscape:collect="always" /><linearGradient
       id="linearGradient12512"><stop
         id="stop12513"
         offset="0.0000000"
         style="stop-color:#ffffff;stop-opacity:1.0000000;" /><stop
         id="stop12517"
         offset="0.50000000"
         style="stop-color:#fff520;stop-opacity:0.89108908;" /><stop
         id="stop12514"
         offset="1.0000000"
         style="stop-color:#fff300;stop-opacity:0.0000000;" /></linearGradient><radialGradient
       r="14.375"
       fy="125"
       fx="55"
       cy="125"
       cx="55"
       gradientUnits="userSpaceOnUse"
       id="radialGradient3149"
       xlink:href="#linearGradient12512"
       inkscape:collect="always" /></defs><sodipodi:namedview
     pagecolor="#ffffff"
     bordercolor="#666666"
     borderopacity="1"
     objecttolerance="10"
     gridtolerance="10"
     guidetolerance="10"
     inkscape:pageopacity="0"
     inkscape:pageshadow="2"
     inkscape:window-width="1010"
     inkscape:window-height="762"
     id="namedview29"
     showgrid="false"
     inkscape:zoom="0.81944444"
     inkscape:cx="188.31204"
     inkscape:cy="134.58545"
     inkscape:window-x="0"
     inkscape:window-y="0"
     inkscape:window-maximized="0"
     inkscape:current-layer="svg7631" /><rect
     x="187.8"
     y="230.1"
     fill="#CDCDCD"
     width="4.1"
     height="33"
     id="rect3" /><rect
     x="199.7"
     y="230.1"
     fill="#CDCDCD"
     width="4.1"
     height="33"
     id="rect5" /><rect
     x="211.2"
     y="230.1"
     fill="#CDCDCD"
     width="4.1"
     height="33"
     id="rect7" /><rect
     x="222.8"
     y="230.1"
     fill="#CDCDCD"
     width="4.1"
     height="33"
     id="rect9" /><rect
     x="234.3"
     y="230.1"
     fill="#CDCDCD"
     width="4.1"
     height="33"
     id="rect11" /><g
     id="g13"><path
       fill="#231F20"
       d="M154.6,55.5L182.4,42l-19.5,89.2l-41.8-39.7L117,73.7C100.9-24.5,9.7,63.9,9.7,63.9   C82.1-47.9,145.2,38.4,154.6,55.5z"
       id="path15" /><g
       id="g17"><polygon
         fill="#231F20"
         points="60.2,79.6 62.3,68.7 106.3,68.7 107.3,78.4   "
         id="polygon19" /><path
         fill="#231F20"
         d="M187.3,77.4l1.1-7.9h57.7l0.6,10.4C246.7,79.9,186.8,77.5,187.3,77.4z"
         id="path21" /></g></g><path
     fill="#A4A5A6"
     d="M154.6,67.6l27.8-13.5l-19.5,89.2l-79.6-41.2L117,85.8C100.9-12.3,9.7,76.1,9.7,76.1  C82.1-35.7,145.2,50.5,154.6,67.6z"
     id="path23" /><path
     fill="#CDCDCD"
     d="M246.6,77.4l-59.2,0l-19.8,78.4L66.5,101.4l40.9-19.5c-0.4-2.5,0.5-2.4-0.5-4.6l-46.3,0.2L39.8,230.8H268  L246.6,77.4z M153.5,210.1c-48.3,0-87.5-25.2-87.5-56.2c0-1.7,0.2-3.3,0.4-4.9c3.9,28.7,41.4,51.3,87.1,51.3s83.2-22.6,87.1-51.3  c0.2,1.6,0.4,3.3,0.4,4.9C240.9,184.9,201.8,210.1,153.5,210.1z"
     id="path25" /><path
     fill="#A4A5A6"
     d="M258.1,221.4H49c-5.5,0-9.9,4.4-9.9,9.9v29.9c0,5.5,4.4,9.9,9.9,9.9h209.1c5.5,0,9.9-4.4,9.9-9.9v-29.9  C268,225.8,263.6,221.4,258.1,221.4z"
     id="path27" /><g
     style="display:inline"
     inkscape:label="new"
     id="layer4"
     transform="matrix(5.3730865,0,0,5.3730865,33.091853,7.0000142)"><path
       inkscape:export-ydpi="33.852203"
       inkscape:export-xdpi="33.852203"
       inkscape:export-filename="/home/jimmac/ximian_art/icons/nautilus/suse93/stock_new-16.png"
       transform="matrix(0.783292,0,0,0.783292,-6.340883,-86.65168)"
       d="m 69.375,125 c 0,7.93909 -6.435907,14.375 -14.375,14.375 -7.939093,0 -14.375,-6.43591 -14.375,-14.375 0,-7.93909 6.435907,-14.375 14.375,-14.375 7.939093,0 14.375,6.43591 14.375,14.375 z"
       sodipodi:ry="14.375"
       sodipodi:rx="14.375"
       sodipodi:cy="125"
       sodipodi:cx="55"
       id="path12511"
       style="color:#000000;fill:url(#radialGradient3149);fill-opacity:1;fill-rule:nonzero;stroke:none;stroke-width:1.25000024;marker:none;visibility:visible;display:block"
       sodipodi:type="arc" /></g></svg>