<?xml version="1.0" encoding="utf-8"?>
<!-- Generator: Adobe Illustrator 18.0.0, SVG Export Plug-In . SVG Version: 6.00 Build 0)  -->
<!DOCTYPE svg PUBLIC "-//W3C//DTD SVG 1.1//EN" "http://www.w3.org/Graphics/SVG/1.1/DTD/svg11.dtd">
<svg version="1.1"
	 id="svg7631" xmlns:cc="http://creativecommons.org/ns#" xmlns:inkscape="http://www.inkscape.org/namespaces/inkscape" xmlns:sodipodi="http://sodipodi.sourceforge.net/DTD/sodipodi-0.dtd" xmlns:dc="http://purl.org/dc/elements/1.1/" xmlns:svg="http://www.w3.org/2000/svg" xmlns:rdf="http://www.w3.org/1999/02/22-rdf-syntax-ns#" sodipodi:docname="camera-photo.svg" sodipodi:version="0.32" inkscape:version="0.48.3.1 r9886" inkscape:output_extension="org.inkscape.output.svg.inkscape"
	 xmlns="http://www.w3.org/2000/svg" xmlns:xlink="http://www.w3.org/1999/xlink" x="0px" y="0px" viewBox="0 0 288 288"
	 enable-background="new 0 0 288 288" xml:space="preserve">
<g>
	<rect x="20.6" y="14.9" fill="#231F20" width="245.3" height="17.8"/>
	<g>
		<path fill="#FFFFFF" d="M52.2,92c0,6.7,4.5,9.8,9.7,9.8c7.4,0,12.1-4.7,13.7-9.5c0.4-1.1,0.6-2.2,0.6-3.3v-9.8
			C65,79,52.2,81,52.2,92z"/>
		<path fill="#FFFFFF" d="M72.8,199c-7,0-13.6,4.8-15.7,12.6c-0.2,1.2-0.6,2.6-0.6,4.2v10.2c0,1.3,0.2,2.6,0.5,3.7
			c2,7.1,8,12.1,15.5,12.1c10.8,0,17.2-8.8,17.2-21.8C89.7,208.8,83.8,199,72.8,199z"/>
		<path fill="#FFFFFF" d="M207.2,235.5L207.2,235.5l-44.7-38.6l-10.3,11.9l-54.5-47.1l37.4-43.2l17.2,14.9l34.9-0.5
			c5.7,0,10.3,4.5,10.4,10.1l0.1,4.1c0,2.8-1,5.3-2.9,7.3c-1.9,2-4.5,3.1-7.2,3.1l-7.3,0.1l9.4,8.1l-9.9,11.4l46.5,40.2
			c22.9,20.5,34.2,30.7,39.8,35.8V26.3H20.6v245.4h226.8c-9.5-8.6-28.2-25.4-35.6-32C209.8,237.9,208.3,236.6,207.2,235.5z
			 M218.4,50.3c6.1,0,11.5,1.5,14.3,2.9l-2.3,8c-2.5-1.4-6.3-2.7-11.9-2.7c-13,0-20,9.6-20,21.4c0,13.1,8.4,21.2,19.7,21.2
			c5.9,0,9.7-1.5,12.6-2.8l1.8,7.7c-2.7,1.4-8.7,3.4-16.3,3.4c-17.1,0-28.2-11.7-28.2-29C188,62.9,199.9,50.3,218.4,50.3z
			 M63.1,57.8c-5.3,0-10.8,1.6-14.8,4.2L46,55.2c4.7-3,11.5-5,18.6-5C82,50.2,86.2,62,86.2,73.4v21.2c0,4.9,0.2,9.7,0.9,13.6h-9.4
			l-0.8-7.1h-0.4c-3.2,4.4-9.3,8.4-17.3,8.4c-11.5,0-17.3-8.1-17.3-16.3C41.9,79.5,54.1,72,76,72.1v-1.2
			C76,66.2,74.7,57.8,63.1,57.8z M74.6,250.1c-8.2,0-14.8-3.2-19-10.7h-0.4l-0.5,9.4h-8.9c0.2-3.9,0.5-9.6,0.5-14.6v-68.5h10.2v35.6
			h0.2c3.6-6.3,10.2-10.4,19.3-10.4c14.1,0,24,11.7,23.9,28.9C100,240,87.2,250.1,74.6,250.1z"/>
	</g>
	<g>
		<path fill="#CDCDCD" d="M219.1,221.6l-50.6-43.8l9.9-11.4l-19.2-16.6l28.2-0.4c1.3,0,2.3-1.1,2.3-2.3l-0.1-4
			c0-1.3-1.1-2.3-2.3-2.3l-37.9,0.5l-13.5-11.6l-27,31.2l42.4,36.7l10.3-11.9l50.7,43.8c0,0,45,40.4,46.6,42.1l7,0l0-7.8
			C264.3,262.1,219.3,221.7,219.1,221.6z"/>
	</g>
</g>
</svg>
