<?xml version="1.0" encoding="UTF-8" standalone="no"?>
<!-- Generator: Adobe Illustrator 18.0.0, SVG Export Plug-In . SVG Version: 6.00 Build 0)  -->

<svg
   xmlns:dc="http://purl.org/dc/elements/1.1/"
   xmlns:cc="http://creativecommons.org/ns#"
   xmlns:rdf="http://www.w3.org/1999/02/22-rdf-syntax-ns#"
   xmlns:svg="http://www.w3.org/2000/svg"
   xmlns="http://www.w3.org/2000/svg"
   xmlns:sodipodi="http://sodipodi.sourceforge.net/DTD/sodipodi-0.dtd"
   xmlns:inkscape="http://www.inkscape.org/namespaces/inkscape"
   version="1.1"
   id="svg7631"
   sodipodi:docname="unlock.svg"
   sodipodi:version="0.32"
   inkscape:version="0.91 r13725"
   inkscape:output_extension="org.inkscape.output.svg.inkscape"
   x="0px"
   y="0px"
   viewBox="0 0 288 288"
   enable-background="new 0 0 288 288"
   xml:space="preserve"><metadata
     id="metadata43"><rdf:RDF><cc:Work
         rdf:about=""><dc:format>image/svg+xml</dc:format><dc:type
           rdf:resource="http://purl.org/dc/dcmitype/StillImage" /></cc:Work></rdf:RDF></metadata><defs
     id="defs41" /><sodipodi:namedview
     pagecolor="#ffffff"
     bordercolor="#666666"
     borderopacity="1"
     objecttolerance="10"
     gridtolerance="10"
     guidetolerance="10"
     inkscape:pageopacity="0"
     inkscape:pageshadow="2"
     inkscape:window-width="3070"
     inkscape:window-height="1752"
     id="namedview39"
     showgrid="false"
     inkscape:zoom="6.5555556"
     inkscape:cx="79.360005"
     inkscape:cy="125.77353"
     inkscape:window-x="130"
     inkscape:window-y="48"
     inkscape:window-maximized="1"
     inkscape:current-layer="svg7631" /><path
     style="fill:#000000;fill-opacity:1"
     d="M 152.06836 2.3964844 C 114.42165 2.3964844 83.791016 33.033698 83.791016 70.671875 L 83.791016 121.87891 C 64.93833 121.87891 49.654297 137.1649 49.654297 156.01758 L 49.654297 241.36133 C 49.654297 260.21402 64.93833 275.5 83.791016 275.5 L 220.34375 275.5 C 239.19646 275.5 254.48047 260.21402 254.48047 241.36133 L 254.48047 156.01758 C 254.48047 137.53188 239.78269 122.48539 221.4375 121.90625 L 221.4375 121.91602 L 181.21094 121.91602 L 181.21094 121.87891 L 117.92969 121.87891 L 117.92969 70.671875 C 117.92969 51.835717 133.24074 36.533203 152.06836 36.533203 C 166.26338 36.533203 178.46146 45.241674 183.60156 57.603516 L 219.07422 57.603516 C 212.95856 26.193712 185.2521 2.3964844 152.06836 2.3964844 z M 152.06836 173.08594 C 161.4947 173.08594 169.13672 180.71996 169.13672 190.1543 C 169.13672 196.40528 165.61077 201.64008 160.60156 204.60742 L 160.60156 232.82617 C 160.60156 237.54361 156.7858 241.36133 152.06836 241.36133 C 147.35092 241.36133 137.22266 239.34831 137.22266 234.63086 L 137.22266 207.31055 C 132.21344 204.34321 131.84375 197.75684 131.84375 191.50586 C 131.84375 182.07098 142.64202 173.08594 152.06836 173.08594 z "
     id="path3-3" /><path
     style="fill:#cdcdcd;fill-opacity:1"
     d="M 139.77344 11.765625 C 102.12672 11.765625 71.498047 42.40284 71.498047 80.041016 L 71.498047 131.24805 C 52.645362 131.24805 37.359375 146.53402 37.359375 165.38672 L 37.359375 250.73047 C 37.359375 269.58317 52.645362 284.86914 71.498047 284.86914 L 208.04883 284.86914 C 226.90152 284.86914 242.1875 269.58317 242.1875 250.73047 L 242.1875 165.38672 C 242.1875 146.53402 226.90152 131.24805 208.04883 131.24805 L 208.04883 121.89062 L 173.91211 121.89062 L 173.91211 131.24805 L 105.63477 131.24805 L 105.63477 80.041016 C 105.63477 61.204859 120.94581 45.904297 139.77344 45.904297 C 150.01245 45.904297 159.20938 50.439433 165.47266 57.603516 L 204.24219 57.603516 C 194.93864 30.952339 169.56639 11.765625 139.77344 11.765625 z M 139.77344 182.45508 C 149.19978 182.45508 156.8418 190.09104 156.8418 199.52539 C 156.8418 205.77638 153.3178 211.00922 148.30859 213.97656 L 148.30859 242.19727 C 148.30859 246.91471 144.49087 250.73047 139.77344 250.73047 C 135.05599 250.73047 131.23828 246.91471 131.23828 242.19727 L 131.23828 213.97656 C 126.22907 211.00922 122.70508 205.77638 122.70508 199.52539 C 122.70508 190.09052 130.3471 182.45508 139.77344 182.45508 z "
     id="path3" /><rect
     style="opacity:1;fill:#000000;fill-opacity:1;stroke:none;stroke-width:3;stroke-miterlimit:4;stroke-dasharray:none;stroke-dashoffset:0;stroke-opacity:1"
     id="rect4136"
     width="34.322033"
     height="9.3813562"
     x="173.86569"
     y="121.89123" /></svg>