<?xml version="1.0" encoding="utf-8"?>
<!-- Generator: Adobe Illustrator 18.0.0, SVG Export Plug-In . SVG Version: 6.00 Build 0)  -->
<!DOCTYPE svg PUBLIC "-//W3C//DTD SVG 1.1//EN" "http://www.w3.org/Graphics/SVG/1.1/DTD/svg11.dtd">
<svg version="1.1"
	 id="svg7631" xmlns:cc="http://creativecommons.org/ns#" xmlns:inkscape="http://www.inkscape.org/namespaces/inkscape" xmlns:sodipodi="http://sodipodi.sourceforge.net/DTD/sodipodi-0.dtd" xmlns:dc="http://purl.org/dc/elements/1.1/" xmlns:svg="http://www.w3.org/2000/svg" xmlns:rdf="http://www.w3.org/1999/02/22-rdf-syntax-ns#" sodipodi:docname="camera-photo.svg" sodipodi:version="0.32" inkscape:version="0.48.3.1 r9886" inkscape:output_extension="org.inkscape.output.svg.inkscape"
	 xmlns="http://www.w3.org/2000/svg" xmlns:xlink="http://www.w3.org/1999/xlink" x="0px" y="0px" viewBox="0 0 48 48"
	 enable-background="new 0 0 48 48" xml:space="preserve">
<g>
	<g>
		<path fill="#231F20" d="M42.7,38.5l-7.4-9c1.6-2.6,2.5-5.6,2.5-8.8c0-9.3-7.5-16.8-16.8-16.8S4.1,11.3,4.1,20.6
			c0,9.3,7.5,16.8,16.8,16.8c3.7,0,7.1-1.2,9.9-3.3l6.9,8.4c0.6,0.7,1.6,0.8,2.2,0.2l2.5-2.1C43.1,40.1,43.2,39.1,42.7,38.5z
			 M8.8,20.6c0-6.7,5.4-12.1,12.1-12.1S33,13.9,33,20.6c0,6.7-5.4,12.1-12.1,12.1S8.8,27.3,8.8,20.6z"/>
		<rect x="14.5" y="19" fill="#231F20" width="13.4" height="4.3"/>
	</g>
	<g>
		<path fill="#CDCDCD" d="M42.7,40l-7.4-9c1.6-2.6,2.5-5.6,2.5-8.8c0-9.3-7.5-16.8-16.8-16.8S4.1,12.8,4.1,22.1
			c0,9.3,7.5,16.8,16.8,16.8c3.7,0,7.1-1.2,9.9-3.3l6.9,8.4c0.6,0.7,1.6,0.8,2.2,0.2l2.5-2.1C43.1,41.7,43.2,40.7,42.7,40z
			 M8.8,22.1c0-6.7,5.4-12.1,12.1-12.1S33,15.5,33,22.1c0,6.7-5.4,12.1-12.1,12.1S8.8,28.8,8.8,22.1z"/>
		<rect x="14.5" y="20.5" fill="#CDCDCD" width="13.4" height="4.3"/>
	</g>
</g>
</svg>
