<?xml version="1.0" encoding="UTF-8" standalone="no"?>
<!-- Generator: Adobe Illustrator 18.0.0, SVG Export Plug-In . SVG Version: 6.00 Build 0)  -->

<svg
   xmlns:dc="http://purl.org/dc/elements/1.1/"
   xmlns:cc="http://creativecommons.org/ns#"
   xmlns:rdf="http://www.w3.org/1999/02/22-rdf-syntax-ns#"
   xmlns:svg="http://www.w3.org/2000/svg"
   xmlns="http://www.w3.org/2000/svg"
   xmlns:xlink="http://www.w3.org/1999/xlink"
   xmlns:sodipodi="http://sodipodi.sourceforge.net/DTD/sodipodi-0.dtd"
   xmlns:inkscape="http://www.inkscape.org/namespaces/inkscape"
   version="1.1"
   id="Layer_1"
   x="0px"
   y="0px"
   viewBox="0 0 256 256"
   enable-background="new 0 0 792 612"
   xml:space="preserve"
   inkscape:version="0.48.4 r9939"
   width="100%"
   height="100%"
   sodipodi:docname="gns3_appliance_base_icon.svg"
   inkscape:export-filename="/home/grossmj/Downloads/Logos/gns3_appliance.png"
   inkscape:export-xdpi="90"
   inkscape:export-ydpi="90"><metadata
     id="metadata30"><rdf:RDF><cc:Work
         rdf:about=""><dc:format>image/svg+xml</dc:format><dc:type
           rdf:resource="http://purl.org/dc/dcmitype/StillImage" /><dc:title></dc:title><dc:contributor><cc:Agent><dc:title>Hard hat by John Brüggemann from the Noun Project</dc:title></cc:Agent></dc:contributor></cc:Work></rdf:RDF></metadata><defs
     id="defs28"><linearGradient
       id="aigrd1"
       gradientUnits="userSpaceOnUse"
       x1="99.777298"
       y1="15.4238"
       x2="153.0005"
       y2="248.6311"><stop
         offset="0"
         style="stop-color:#184375"
         id="stop53300" /><stop
         offset="1"
         style="stop-color:#C8BDDC"
         id="stop53302" /></linearGradient><radialGradient
       gradientUnits="userSpaceOnUse"
       r="11.68987"
       fy="72.568001"
       fx="14.287618"
       cy="68.872971"
       cx="14.287618"
       gradientTransform="matrix(1.399258,-2.234445e-7,8.196178e-8,0.513264,4.365074,4.839285)"
       id="radialGradient2308"
       xlink:href="#linearGradient2300"
       inkscape:collect="always" /><linearGradient
       id="linearGradient2300"><stop
         id="stop2302"
         offset="0.0000000"
         style="stop-color:#000000;stop-opacity:0.32673267;" /><stop
         id="stop2304"
         offset="1"
         style="stop-color:#000000;stop-opacity:0;" /></linearGradient><linearGradient
       id="linearGradient9649"><stop
         style="stop-color:#fcaf3e;stop-opacity:1;"
         offset="0"
         id="stop9651" /><stop
         style="stop-color:#d37f03;stop-opacity:1;"
         offset="1"
         id="stop9653" /></linearGradient><radialGradient
       gradientUnits="userSpaceOnUse"
       r="11.68987"
       fy="72.568001"
       fx="14.287618"
       cy="68.872971"
       cx="14.287618"
       gradientTransform="matrix(1.399258,-2.234445e-7,8.196178e-8,0.513264,4.365074,4.839285)"
       id="radialGradient2308-7"
       xlink:href="#linearGradient2300-2"
       inkscape:collect="always" /><linearGradient
       id="linearGradient2300-2"><stop
         id="stop2302-3"
         offset="0.0000000"
         style="stop-color:#000000;stop-opacity:0.32673267;" /><stop
         id="stop2304-1"
         offset="1"
         style="stop-color:#000000;stop-opacity:0;" /></linearGradient><linearGradient
       id="aigrd1-3"
       gradientUnits="userSpaceOnUse"
       x1="99.777298"
       y1="15.4238"
       x2="153.0005"
       y2="248.6311"><stop
         offset="0"
         style="stop-color:#184375"
         id="stop53300-9" /><stop
         offset="1"
         style="stop-color:#C8BDDC"
         id="stop53302-5" /></linearGradient><radialGradient
       gradientUnits="userSpaceOnUse"
       r="11.68987"
       fy="72.568001"
       fx="14.287618"
       cy="68.872971"
       cx="14.287618"
       gradientTransform="matrix(1.399258,-2.234445e-7,8.196178e-8,0.513264,4.365074,4.839285)"
       id="radialGradient2308-0"
       xlink:href="#linearGradient2300-1"
       inkscape:collect="always" /><linearGradient
       id="linearGradient2300-1"><stop
         id="stop2302-34"
         offset="0.0000000"
         style="stop-color:#000000;stop-opacity:0.32673267;" /><stop
         id="stop2304-8"
         offset="1"
         style="stop-color:#000000;stop-opacity:0;" /></linearGradient><linearGradient
       inkscape:collect="always"
       xlink:href="#aigrd1-3-3"
       id="linearGradient3773-3"
       gradientUnits="userSpaceOnUse"
       gradientTransform="matrix(0.56533511,0,0,0.53959443,-8.1744492,484.92513)"
       x1="99.777298"
       y1="15.4238"
       x2="153.0005"
       y2="248.6311" /><linearGradient
       id="aigrd1-3-3"
       gradientUnits="userSpaceOnUse"
       x1="99.777298"
       y1="15.4238"
       x2="153.0005"
       y2="248.6311"><stop
         offset="0"
         style="stop-color:#184375"
         id="stop53300-9-5" /><stop
         offset="1"
         style="stop-color:#C8BDDC"
         id="stop53302-5-1" /></linearGradient><linearGradient
       y2="248.6311"
       x2="153.0005"
       y1="15.4238"
       x1="99.777298"
       gradientTransform="matrix(0.56533511,0,0,0.53959443,-346.98942,523.67583)"
       gradientUnits="userSpaceOnUse"
       id="linearGradient3037"
       xlink:href="#aigrd1-3-3"
       inkscape:collect="always" /><linearGradient
       inkscape:collect="always"
       xlink:href="#linearGradient3049"
       id="linearGradient3055"
       x1="19.648342"
       y1="42.253601"
       x2="20.631224"
       y2="6.7758031"
       gradientUnits="userSpaceOnUse"
       gradientTransform="matrix(0.87827,0,0,0.87827,-56.213012,-11.032319)" /><linearGradient
       id="linearGradient3049"><stop
         style="stop-color:#b6b6b6;stop-opacity:1;"
         offset="0"
         id="stop3051" /><stop
         id="stop2262"
         offset="0.5"
         style="stop-color:#f2f2f2;stop-opacity:1;" /><stop
         style="stop-color:#fafafa;stop-opacity:1;"
         offset="0.67612958"
         id="stop2264" /><stop
         id="stop2268"
         offset="0.84051722"
         style="stop-color:#d8d8d8;stop-opacity:1;" /><stop
         id="stop2266"
         offset="0.875"
         style="stop-color:#f2f2f2;stop-opacity:1;" /><stop
         style="stop-color:#dbdbdb;stop-opacity:1;"
         offset="1"
         id="stop3053" /></linearGradient><linearGradient
       y2="6.7758031"
       x2="20.631224"
       y1="42.253601"
       x1="19.648342"
       gradientTransform="matrix(0.45729502,2.1247182,-2.2343618,0.41998003,171.54496,469.03301)"
       gradientUnits="userSpaceOnUse"
       id="linearGradient3075"
       xlink:href="#linearGradient3049"
       inkscape:collect="always" /><linearGradient
       id="SVGID_1_-9"
       gradientUnits="userSpaceOnUse"
       x1="404.2251"
       y1="365.32321"
       x2="384.2139"
       y2="136.595"
       gradientTransform="matrix(1.0930955,0,0,1.0930955,-283.62241,209.60237)"><stop
         offset="0"
         style="stop-color:#00A5CE"
         id="stop6-9" /><stop
         offset="0.1989"
         style="stop-color:#1295CB"
         id="stop8-7" /><stop
         offset="0.5994"
         style="stop-color:#426BC5"
         id="stop10-8" /><stop
         offset="1"
         style="stop-color:#783CBD"
         id="stop12-6" /></linearGradient><linearGradient
       y2="136.595"
       x2="384.2139"
       y1="365.32321"
       x1="404.2251"
       gradientTransform="matrix(0.96061447,0,0,0.95098254,-246.59943,260.78395)"
       gradientUnits="userSpaceOnUse"
       id="linearGradient3008"
       xlink:href="#SVGID_1_-9"
       inkscape:collect="always" /><linearGradient
       y2="6.7758031"
       x2="20.631224"
       y1="42.253601"
       x1="19.648342"
       gradientTransform="matrix(0.56548716,1.7108388,-1.9845724,0.46188156,168.42506,119.52071)"
       gradientUnits="userSpaceOnUse"
       id="linearGradient3075-0"><stop
         style="stop-color:#b6b6b6;stop-opacity:1;"
         offset="0"
         id="stop3051-6" /><stop
         id="stop2262-3"
         offset="0.5"
         style="stop-color:#f2f2f2;stop-opacity:1;" /><stop
         style="stop-color:#fafafa;stop-opacity:1;"
         offset="0.6761"
         id="stop2264-8" /><stop
         id="stop2268-4"
         offset="0.8405"
         style="stop-color:#d8d8d8;stop-opacity:1;" /><stop
         id="stop2266-3"
         offset="0.875"
         style="stop-color:#f2f2f2;stop-opacity:1;" /><stop
         style="stop-color:#dbdbdb;stop-opacity:1;"
         offset="1"
         id="stop3053-7" /></linearGradient><linearGradient
       y2="136.595"
       x2="384.2139"
       y1="365.32321"
       x1="404.2251"
       gradientTransform="matrix(0.96061447,0,0,0.95098254,-246.59943,260.78395)"
       gradientUnits="userSpaceOnUse"
       id="linearGradient3008-1"><stop
         offset="0"
         style="stop-color:#00A5CE"
         id="stop6-9-6" /><stop
         offset="0.1989"
         style="stop-color:#1295CB"
         id="stop8-7-7" /><stop
         offset="0.5994"
         style="stop-color:#426BC5"
         id="stop10-8-8" /><stop
         offset="1"
         style="stop-color:#783CBD"
         id="stop12-6-7" /></linearGradient><linearGradient
       y2="136.595"
       x2="384.2139"
       y1="365.32321"
       x1="404.2251"
       gradientTransform="matrix(1.1046713,0,0,0.97685181,-306.83369,-103.0507)"
       gradientUnits="userSpaceOnUse"
       id="linearGradient3066"
       xlink:href="#linearGradient3008-1"
       inkscape:collect="always" /></defs><sodipodi:namedview
     pagecolor="#000000"
     bordercolor="#666666"
     borderopacity="1"
     objecttolerance="10"
     gridtolerance="10"
     guidetolerance="10"
     inkscape:pageopacity="0"
     inkscape:pageshadow="2"
     inkscape:window-width="1089"
     inkscape:window-height="769"
     id="namedview26"
     showgrid="false"
     inkscape:zoom="2"
     inkscape:cx="129.75744"
     inkscape:cy="123.62001"
     inkscape:window-x="442"
     inkscape:window-y="155"
     inkscape:window-maximized="0"
     inkscape:current-layer="Layer_1"
     fit-margin-top="0"
     fit-margin-left="0"
     fit-margin-right="0"
     fit-margin-bottom="0" /><path
     inkscape:connector-curvature="0"
     d="m 148.73258,86.458927 c 0,5.665761 -5.19158,10.256751 -11.59879,10.256751 -6.40702,0 -11.59915,-4.59099 -11.59915,-10.256751 0,-5.665958 5.19213,-10.25743 11.59915,-10.25743 6.40721,0 11.59879,4.591472 11.59879,10.25743 l 0,0 z M 21.805952,138.03659 c -6.959417,33.70114 2.540797,58.02468 17.343351,75.41304 26.40165,32.91995 65.175477,38.68319 65.175477,38.68319 45.29165,7.61918 79.75733,-6.25173 100.41457,-23.44439 25.95986,-21.78356 25.0765,-43.37212 25.18704,-43.66511 0.22081,-10.06195 -3.53502,-17.29031 -10.163,-22.27266 -11.15732,-8.30322 -24.7448,-5.07966 -24.7448,-5.07966 -23.52927,4.8844 -19.66303,23.8353 -19.66303,23.8353 1.32543,5.66563 4.63911,9.37767 8.39529,11.52673 7.18022,3.9074 14.80263,3.12598 14.80263,3.12598 11.26766,-1.17182 14.58175,-10.54979 13.91877,-15.23897 -1.10476,-7.42375 -8.72707,-8.79165 -8.72707,-8.79165 -2.87192,-0.4883 -5.08125,-0.0976 -6.73851,0.68382 -2.42973,0.87965 -3.42452,2.34443 -3.42452,2.34443 -1.7672,2.63755 -0.6626,4.10316 0.44214,4.68934 0.66307,0.39065 1.43637,0.39065 1.43637,0.39065 0.88338,0 1.43558,-0.19525 2.09853,-0.48829 1.54676,-0.78147 2.76149,-2.0518 5.0818,-1.27028 3.42449,1.17233 2.54062,4.39616 2.54062,4.39616 -0.77348,3.51653 -3.09321,5.17734 -5.63392,5.76326 -3.42447,0.78151 -6.95937,-0.19526 -6.95937,-0.19526 -12.15156,-4.39618 -6.73855,-15.14125 -6.73855,-15.14125 3.75572,-6.74055 12.15166,-7.52206 12.15166,-7.52206 13.14523,-1.85565 21.87235,5.95882 20.43583,19.14625 -1.65676,16.4115 -15.90668,27.25414 -31.15149,34.09264 -57.11137,25.9839 -99.751795,-6.93618 -99.751795,-6.93618 -15.907326,-13.38265 -12.151438,-27.54709 -10.383957,-32.04024 0.662806,-1.66094 2.430318,-1.95416 3.314009,-1.95416 13.035129,-0.97647 23.860753,20.31884 24.965423,23.24944 2.31983,4.88432 5.96508,7.61903 9.38957,9.37763 7.73291,3.80974 15.90775,1.95381 15.90775,1.95381 11.26725,-3.41892 7.40113,-11.52669 7.40113,-11.52669 -1.32539,-3.22364 -3.31408,-4.10332 -4.86031,-4.00514 -1.43661,0 -2.54082,0.9769 -2.54082,0.9769 -0.55237,0.5858 -1.2155,0.97634 -1.76766,1.46494 -7.18055,5.37259 -10.7156,-0.29322 -10.7156,-0.29322 -2.54058,-3.61415 1.32615,-5.56804 1.32615,-5.56804 0.77325,-0.39048 1.54624,-0.58607 2.09833,-0.78146 2.8724,-0.78107 2.43076,-2.93061 2.43076,-2.93061 -0.44176,-4.00456 -5.52349,-2.34437 -5.52349,-2.34437 -4.9709,1.56331 -6.51773,5.17734 -6.95974,6.74062 -0.11046,0.48852 -0.22099,0.87918 -0.99382,0.97681 -1.43591,0.19525 -1.43591,-2.05147 -1.43591,-2.05147 -0.44233,-16.02036 -5.41305,-23.15132 -7.73299,-25.69099 -0.66293,-0.78202 -1.767498,-1.27028 -2.098699,-1.46551 -5.192188,-2.05133 -10.936425,-6.05648 -10.936425,-6.05648 -10.936255,-6.93562 -6.628019,-13.18737 -6.628019,-13.18737 6.517552,-14.45773 11.82002,-19.43974 11.82002,-19.43974 4.418529,-3.7121 9.058463,-0.39059 9.058463,-0.39059 -3.424458,3.71226 -6.075882,7.32673 -6.075882,7.32673 -7.843168,11.03798 -9.1688,15.53185 -9.1688,15.53185 -0.110467,0.39051 -0.110467,1.07435 0.552347,1.85604 8.064126,12.21058 29.826075,14.06637 29.936485,14.06637 5.9655,0.78138 10.8256,0.0976 10.8256,0.0976 2.87228,-0.48829 3.31406,1.17249 3.31406,1.17249 0.33162,0.97689 1.54694,3.71219 1.54694,3.71219 2.09876,3.90696 5.30201,1.85557 5.30201,1.85557 1.21564,-0.78142 1.76777,-1.85557 1.76777,-2.7348 0,-0.87959 -0.55213,-1.46553 -0.55213,-1.46553 -1.4366,-1.85616 -1.8782,-3.61406 -1.8782,-3.61406 -0.66259,-2.1495 2.09906,-3.0282 2.09906,-3.0282 5.41248,-2.14954 8.39518,1.95314 8.39518,1.95314 2.87243,3.02826 8.61676,-0.7814 8.61676,-0.7814 4.63951,-3.12588 -1.10482,-8.00989 -1.10482,-8.00989 -11.93022,-9.67107 -25.95969,2.53954 -25.95969,2.53954 -0.77356,0.87936 -1.54694,0.87936 -1.54694,0.87936 -11.59851,0.29326 -22.64528,-7.22881 -22.64528,-7.61964 4.41867,-6.54475 12.92437,-17.97416 12.92437,-17.97416 l 44.96047,15.33674 c 1.76709,0.48829 3.64531,0.0976 3.64531,0.0976 l 70.03585,-12.50381 c 1.5469,-0.19537 1.32611,-1.8557 1.32611,-1.8557 0,-1.36788 -0.11102,-1.56316 -1.43653,-1.75843 -1.43591,-0.19527 -68.15835,-4.78674 -68.15835,-4.78674 -3.6453,-0.19527 -3.6453,-4.59087 0.11034,-4.88379 l 49.048,-3.61456 c 1.10472,-0.0976 1.32552,-1.0746 1.32552,-1.0746 1.32546,-5.76352 0.88325,-13.285 0.88325,-13.285 14.25059,-14.067125 7.40162,-27.93815 7.40162,-27.93815 -8.72659,-19.146279 -27.94845,-19.439536 -27.94845,-19.439536 -31.59315,-30.868342 -59.3482,-14.150619 -59.3482,-14.150619 -1.87846,0 -12.2132,8.118096 -12.2132,8.118096 l -8.30583,6.716374 c -0.22112,1.465551 -1.10509,1.856063 -1.10509,1.856063 l -6.29624,4.395657 c -0.77359,0.683983 -0.99449,0.683983 -2.09908,0.683983 -0.99422,0.0978 -4.08708,0.488702 -4.08708,0.488702 -74.234105,13.968457 -84.94947,72.77531 -84.94947,72.77531 l 2.2e-5,1.1e-4 z M 222.4144,75.12698 c 2.9828,8.401327 -5.19224,11.038886 -5.19224,11.038886 -1.54629,-6.545049 -6.9594,-15.727398 -6.9594,-15.727398 9.16924,-2.53981 12.15164,4.688512 12.15164,4.688512 z m -45.95462,14.945953 c 0,15.434197 -14.13971,28.035717 -31.70373,28.035717 -17.45376,0 -31.70406,-12.50389 -31.70406,-28.035717 0,-15.531694 14.2503,-28.035319 31.70406,-28.035319 17.56402,0 31.70373,12.60124 31.70373,28.035319 z"
     id="path14"
     style="fill:url(#linearGradient3066);stroke:#000000;stroke-width:1.90065265;stroke-miterlimit:4;stroke-opacity:1;stroke-dasharray:none" /><path
     style="color:#000000;fill:url(#linearGradient3075-0);fill-opacity:1;fill-rule:nonzero;stroke:#000000;stroke-width:2.81372786;stroke-linecap:butt;stroke-linejoin:miter;stroke-miterlimit:4;stroke-opacity:1;stroke-dasharray:none;stroke-dashoffset:0;marker-start:none;marker-mid:none;marker-end:none;visibility:visible;display:inline;overflow:visible"
     d="m 141.60652,158.00519 -31.68003,47.216 c -1.48975,1.9589 -1.45578,7.05918 3.1102,9.40966 4.40922,2.26971 8.96391,0.44709 11.44725,-3.35513 l 32.42296,-45.7768 c 15.57142,1.09605 24.50154,-10.53552 18.17672,-21.38806 l -3.4177,-1.85314 -5.88977,9.66172 -7.30079,2.15979 -7.98651,-4.33158 -1.39342,-7.07344 5.35759,-8.84697 c 0,0 -3.65347,-1.8142 -3.65347,-1.8142 -13.1277,1.81592 -20.72274,15.95755 -9.19305,25.99215 z"
     id="path2140"
     inkscape:connector-curvature="0" /><path
     inkscape:connector-curvature="0"
     style="fill:#ffffff;fill-opacity:1;stroke:#000000;stroke-width:1.82263649;stroke-miterlimit:4;stroke-opacity:1;stroke-dasharray:none"
     d="m 133.23159,116.48419 c -24.2224,-8.44187 -27.6321,-37.837797 -5.80368,-50.034813 6.61476,-3.696121 12.87626,-5.125771 19.96129,-4.557646 11.70278,0.93838 21.20492,6.947177 26.43084,16.713799 2.6034,4.865429 2.84048,6.033368 2.52252,12.426143 -0.41745,8.392811 -2.80145,13.393117 -8.9902,18.856397 -6.38519,5.63674 -12.19465,7.83932 -21.38334,8.10725 -5.953,0.17358 -8.91007,-0.17725 -12.73743,-1.51113 z m 10.38309,-22.296036 c 5.64835,-3.556607 5.54888,-12.149506 -0.1817,-15.698945 -5.88853,-3.647236 -15.61308,-0.226784 -16.92407,5.952785 -1.82982,8.625184 9.04547,14.821496 17.10577,9.74616 z"
     id="path3756" /><path
     inkscape:connector-curvature="0"
     style="fill:#ffffff;fill-opacity:1;stroke:#000000;stroke-width:1.82263649;stroke-miterlimit:4;stroke-opacity:1;stroke-dasharray:none"
     d="m 216.21754,85.018768 c -0.005,-0.824824 -1.48171,-4.476776 -3.27818,-8.115405 -3.08209,-6.242475 -3.1622,-6.644964 -1.42006,-7.133902 6.91898,-1.941906 13.37145,4.531218 11.31829,11.354523 -1.19074,3.957226 -6.59448,7.13642 -6.62005,3.894795 z"
     id="path3758" /><path
     inkscape:connector-curvature="0"
     style="fill:#ffe000;fill-opacity:1;stroke:#000000;stroke-width:1.086851;stroke-opacity:1"
     d="m 98.601468,64.056322 c -0.939153,-0.508532 -2.001372,-1.445727 -2.36041,-2.082658 -0.646223,-1.146238 -0.632055,-1.167993 1.390593,-2.135691 1.123915,-0.537738 2.578369,-1.18014 3.232099,-1.427552 l 1.18861,-0.449835 -0.4988,-4.927278 c -1.31223,-12.963444 1.89942,-25.962536 8.44736,-34.190283 5.90533,-7.420231 15.60323,-13.1670561 26.30432,-15.5875596 11.23232,-2.54062959 24.64319,-2.75091134 36.02109,-0.5647466 7.89503,1.5169409 14.07399,3.6844853 21.09912,7.4013602 17.11515,9.055432 22.10442,16.829591 22.97127,35.793373 0.4364,9.54711 0.88832,10.782881 5.18923,14.190538 2.1954,1.739407 3.51503,2.362702 8.19499,3.870567 8.22375,2.649668 10.64247,4.379358 7.99106,5.714731 -1.13084,0.569596 -3.03905,0.259817 -33.16503,-5.38417 -37.6594,-7.05529 -40.38502,-7.371941 -52.69153,-6.121221 -6.79274,0.69032 -9.93258,1.213588 -24.0894,4.014631 -17.61888,3.48604 -25.34815,3.984775 -29.224572,1.885794 z M 116.06036,24.721631 c 4.12613,-4.715679 11.49303,-8.598973 20.94174,-11.039011 18.34421,-4.7372129 42.22301,-2.772552 56.3666,4.637636 6.56466,3.439439 11.65902,8.420935 13.09668,12.806599 l 0.62669,1.911847 0.24508,-1.880307 c 0.93003,-7.136701 -5.97674,-14.339623 -18.76217,-19.566716 -5.5415,-2.2655671 -18.47182,-4.7127963 -26.3276,-4.9828632 -19.87037,-0.6832069 -38.2811,4.6795792 -46.20789,13.4596232 -2.96252,3.281428 -4.38718,6.513683 -4.19583,9.51954 l 0.13216,2.076094 1.02183,-2.304987 c 0.56197,-1.26771 1.94022,-3.354573 3.06271,-4.637455 z m 34.36198,6.289829 c 3.18349,-2.304592 -0.2854,-6.336903 -4.21241,-4.896573 -1.52778,0.560358 -2.22772,2.720864 -1.3342,4.118111 0.94147,1.472156 3.99615,1.900918 5.54661,0.778462 z m 10.69986,0.259371 c 0.87966,-0.322642 1.37128,-0.904773 1.63123,-1.931597 0.70591,-2.788502 -3.3297,-4.784893 -5.90453,-2.92092 -0.71731,0.519315 -1.04487,1.504644 -1.11922,1.798306 -0.0744,0.293693 -0.12899,0.818067 0.26991,1.556636 0.84475,1.564225 3.12413,2.230588 5.12261,1.497575 z m 11.47802,-0.224837 c 3.86417,-2.177563 -0.30955,-6.935174 -4.26192,-4.858123 -2.73823,1.438969 -1.92969,4.55286 1.34944,5.197083 1.06077,0.208403 2.17029,0.07924 2.91248,-0.33896 z"
     id="path3857"
     sodipodi:nodetypes="sccscsssssssscssssssscccssssccscsccccsccccccssc" /><path
     inkscape:connector-curvature="0"
     d="M 63.882163,111.92866"
     style="fill:none;stroke:#000000;stroke-width:1.086851"
     id="path21" /><path
     inkscape:connector-curvature="0"
     d="M 51.879812,167.51944 z"
     style="fill:none;stroke:#000000;stroke-width:1.086851"
     id="path25" /><path
     style="fill:#ffffff;fill-opacity:1;stroke:none;stroke-width:1.92114973000000000;stroke-miterlimit:4;stroke-opacity:1;stroke-dasharray:none;stroke-dashoffset:0"
     d="m 147.34698,30.963223 c -1.49985,-0.2613 -2.38754,-1.216545 -2.22596,-2.395369 0.18922,-1.380512 1.1334,-2.112401 2.73792,-2.122307 1.00481,-0.0062 1.73003,0.276167 2.40817,0.937642 0.94989,0.926542 1.03441,1.828347 0.25101,2.678238 -0.71847,0.779449 -1.91702,1.120286 -3.17114,0.901796 l 0,0 z"
     id="path3812"
     inkscape:connector-curvature="0" /><path
     style="fill:#ffffff;fill-opacity:1;stroke:none"
     d="m 158.50184,30.861425 c -1.28189,-0.323393 -2.30379,-1.437327 -2.17812,-2.374278 0.0731,-0.544658 0.57077,-1.342574 1.03085,-1.652624 1.54263,-1.039575 3.94787,-0.460466 4.67387,1.125324 0.24642,0.538249 0.25846,0.631534 0.14501,1.123032 -0.1857,0.804517 -0.47954,1.199533 -1.12843,1.517006 -0.64115,0.313685 -1.84553,0.437542 -2.54318,0.26154 l 0,0 z"
     id="path3814"
     inkscape:connector-curvature="0" /><path
     style="fill:#ffffff;fill-opacity:1;stroke:none"
     d="m 169.60363,30.755083 c -1.2712,-0.320991 -2.31973,-1.315759 -2.31973,-2.200792 0,-1.440004 2.22478,-2.64151 3.9564,-2.136674 1.85059,0.53952 2.78732,2.157181 1.93223,3.336795 -0.4799,0.662029 -1.25372,1.02085 -2.29716,1.06519 -0.47842,0.02033 -1.0507,-0.0087 -1.27174,-0.06452 z"
     id="path3816"
     inkscape:connector-curvature="0" /><path
     style="fill:#ffffff;fill-opacity:1;stroke:none"
     d="m 206.37263,29.362194 c -1.42747,-2.999544 -4.97382,-6.665061 -9.15082,-9.458296 -6.62942,-4.433218 -16.43382,-7.52737 -27.85667,-8.791236 -6.17029,-0.682703 -13.76246,-0.738546 -19.95861,-0.146801 -11.24237,1.073669 -21.48517,4.232192 -28.33696,8.738131 -3.74852,2.465142 -6.31328,5.149481 -8.21582,8.598889 l -0.44151,0.800479 0.0718,-0.800479 c 0.33824,-3.768918 3.54818,-8.224892 8.31867,-11.547805 8.64684,-6.023011 22.77762,-9.5819157 38.04943,-9.5829373 6.01662,-4.024e-4 11.83738,0.6512731 19.05141,2.1329411 6.51608,1.3383192 9.78649,2.3892332 14.30189,4.5957702 6.13392,2.997459 10.57081,6.547063 12.85726,10.286082 1.02899,1.68269 1.7448,3.886382 1.6885,5.19822 l -0.0304,0.708713 -0.3482,-0.731671 z"
     id="path3818"
     inkscape:connector-curvature="0" /></svg>