<?xml version="1.0" encoding="UTF-8" standalone="no"?>
<!-- Created with Inkscape (http://www.inkscape.org/) -->

<svg
   xmlns:dc="http://purl.org/dc/elements/1.1/"
   xmlns:cc="http://creativecommons.org/ns#"
   xmlns:rdf="http://www.w3.org/1999/02/22-rdf-syntax-ns#"
   xmlns:svg="http://www.w3.org/2000/svg"
   xmlns="http://www.w3.org/2000/svg"
   xmlns:sodipodi="http://sodipodi.sourceforge.net/DTD/sodipodi-0.dtd"
   xmlns:inkscape="http://www.inkscape.org/namespaces/inkscape"
   version="1.1"
   width="100%"
   height="100%"
   viewBox="0 0 288 288"
   id="svg7631"
   xml:space="preserve"
   inkscape:version="0.48.4 r9939"
   sodipodi:docname="add-link-hover.svg"><sodipodi:namedview
     pagecolor="#ffffff"
     bordercolor="#666666"
     borderopacity="1"
     objecttolerance="10"
     gridtolerance="10"
     guidetolerance="10"
     inkscape:pageopacity="0"
     inkscape:pageshadow="2"
     inkscape:window-width="741"
     inkscape:window-height="480"
     id="namedview8"
     showgrid="false"
     inkscape:zoom="0.81944444"
     inkscape:cx="144"
     inkscape:cy="144"
     inkscape:window-x="616"
     inkscape:window-y="383"
     inkscape:window-maximized="0"
     inkscape:current-layer="g3" /><metadata
     id="metadata13"><rdf:RDF><cc:Work
         rdf:about=""><dc:format>image/svg+xml</dc:format><dc:type
           rdf:resource="http://purl.org/dc/dcmitype/StillImage" /><dc:title /></cc:Work></rdf:RDF></metadata><defs
     id="defs11" /><g
     id="g3"><path
       d="M 245.6,107.2 V 49.7 H 220.8 L 181.2,14.6 c -1.3,-1.2 -3.3,-1 -4.5,0.3 L 173,19 c -1.2,1.3 -1,3.3 0.3,4.5 l 29.5,26.2 h -35.4 v 21 H 73.9 c -0.7,0 -21.2,-0.3 -35,13.3 -8.2,8 -12.3,18.9 -12.3,32.3 0,10.5 3.9,19.6 11.6,27 24.3,23.5 80,21.8 82.8,21.6 0.4,-0.1 39.7,-3.9 59.5,14 7.5,6.7 11.1,15.6 11.1,27.2 0,10.7 -3.5,19.1 -10.7,25.8 -21.7,20 -68.1,16.6 -68.6,16.6 l -1.2,14.5 c 0.5,0 4.1,0.3 9.6,0.3 16.5,0 50.2,-2.4 70,-20.7 10.2,-9.4 15.4,-21.7 15.4,-36.5 0,-15.7 -5.3,-28.4 -15.9,-38 -24.6,-22.2 -68.9,-17.9 -70.3,-17.7 -14.4,0.5 -55.2,-1.7 -71.7,-17.6 -4.8,-4.7 -7.2,-10.1 -7.2,-16.6 0,-9.4 2.6,-16.7 7.9,-21.9 9.4,-9.3 24.7,-9.1 24.8,-9.2 h 93.5 v 22 h 78.4 z"
       id="path5"
       style="fill:#231f20" /><path
       d="M 245.6,115.9 V 58.3 H 220.8 L 181.2,23.2 c -1.3,-1.2 -3.3,-1 -4.5,0.3 l -3.7,4.2 c -1.2,1.3 -1,3.3 0.3,4.5 l 29.5,26.2 h -35.4 v 21 H 73.9 c -0.7,0 -21.2,-0.3 -35,13.3 -8.2,8 -12.3,18.9 -12.3,32.3 0,10.5 3.9,19.6 11.6,27 24.3,23.5 80,21.8 82.8,21.6 0.4,-0.1 39.7,-3.9 59.5,14 7.5,6.7 11.1,15.6 11.1,27.2 0,10.7 -3.5,19.1 -10.7,25.8 -21.7,20 -68.1,16.6 -68.6,16.6 l -1.2,14.5 c 0.5,0 4.1,0.3 9.6,0.3 16.5,0 50.2,-2.4 70,-20.7 10.2,-9.4 15.4,-21.7 15.4,-36.5 0,-15.7 -5.3,-28.4 -15.9,-38 -24.6,-22.2 -68.9,-17.9 -70.3,-17.7 -14.4,0.5 -55.2,-1.7 -71.7,-17.6 -4.8,-4.7 -7.2,-10.1 -7.2,-16.6 0,-9.4 2.6,-16.7 7.9,-21.9 9.4,-9.3 24.7,-9.1 24.8,-9.2 h 93.5 v 22 h 78.4 z"
       id="path7"
       style="fill:#666666;fill-opacity:1" /></g></svg>