<?xml version="1.0" encoding="UTF-8" standalone="no"?>
<!-- Created with Inkscape (http://www.inkscape.org/) -->

<svg
   xmlns:dc="http://purl.org/dc/elements/1.1/"
   xmlns:cc="http://creativecommons.org/ns#"
   xmlns:rdf="http://www.w3.org/1999/02/22-rdf-syntax-ns#"
   xmlns:svg="http://www.w3.org/2000/svg"
   xmlns="http://www.w3.org/2000/svg"
   xmlns:sodipodi="http://sodipodi.sourceforge.net/DTD/sodipodi-0.dtd"
   xmlns:inkscape="http://www.inkscape.org/namespaces/inkscape"
   version="1.1"
   width="100%"
   height="100%"
   viewBox="0 0 288 288"
   id="svg7631"
   xml:space="preserve"
   inkscape:version="0.48.4 r9939"
   sodipodi:docname="browse-all-icons-hover.svg"><sodipodi:namedview
     pagecolor="#ffffff"
     bordercolor="#666666"
     borderopacity="1"
     objecttolerance="10"
     gridtolerance="10"
     guidetolerance="10"
     inkscape:pageopacity="0"
     inkscape:pageshadow="2"
     inkscape:window-width="1199"
     inkscape:window-height="833"
     id="namedview34"
     showgrid="false"
     inkscape:zoom="1.6388889"
     inkscape:cx="152.11873"
     inkscape:cy="146.16201"
     inkscape:window-x="549"
     inkscape:window-y="197"
     inkscape:window-maximized="0"
     inkscape:current-layer="g55" /><metadata
     id="metadata65"><rdf:RDF><cc:Work
         rdf:about=""><dc:format>image/svg+xml</dc:format><dc:type
           rdf:resource="http://purl.org/dc/dcmitype/StillImage" /><dc:title /></cc:Work></rdf:RDF></metadata><defs
     id="defs63" /><g
     id="g3"><path
       d="m 70.2,20.9 c -30.3,0 -54.8,24.5 -54.8,54.8 0,30.3 24.5,54.8 54.8,54.8 30.3,0 54.8,-24.5 54.8,-54.8 0,-30.3 -24.5,-54.8 -54.8,-54.8 z m -0.1,9.4 16.2,16.2 H 76.6 V 66 h -13 L 63.7,46.5 H 53.9 L 70.1,30.3 z M 23.5,83.4 v -13 H 43 V 60.7 L 59.2,76.9 42.9,93.2 v -9.8 l -19.4,0 z m 46.6,40.2 -16.2,-16.2 h 9.8 L 63.6,87.9 h 13 v 19.5 h 9.7 L 70.1,123.6 z M 97.3,83.4 v 9.8 L 81.1,76.9 97.3,60.7 v 9.7 h 19.5 v 13 l -19.5,0 z"
       id="path5"
       style="fill:#666666" /><g
       id="g7"><path
         d="m 70.3,20.8 c 29.7,0 53.8,23.7 54.5,53.2 0,-0.9 0.1,-1.9 0.1,-2.8 0,-30.3 -24.5,-54.8 -54.8,-54.8 -30.3,0 -54.6,24.6 -54.6,54.8 0,2.1 0.1,4.2 0.4,6.2 0,-0.7 -0.1,-1.4 -0.1,-2 C 15.7,45.2 40.2,20.8 70.3,20.8 z"
         id="path9" /></g></g><g
     id="g11"><g
       id="g13"><polygon
         points="240.1,22.3 240.1,38.4 195.6,38.4 195.6,66.4 240.1,66.3 240.1,80.4 277.1,52.4 "
         id="polygon15"
         style="fill:#231f20" /><polygon
         points="189.3,62.1 189.3,78.2 233.8,78.2 233.8,106.2 189.3,106.1 189.3,120.2 152.3,92.2 "
         id="polygon17"
         style="fill:#231f20" /></g><g
       id="g19"><polygon
         points="240.1,26.8 240.1,42.9 195.6,42.9 195.6,70.9 240.1,70.8 240.1,84.9 277.1,56.9 "
         id="polygon21"
         style="fill:#666666" /><polygon
         points="189.3,66.5 189.3,82.6 233.8,82.6 233.8,110.7 189.3,110.6 189.3,124.6 152.3,96.7 "
         id="polygon23"
         style="fill:#808080" /></g></g><g
     id="g25"><g
       id="g27"><path
         d="M 119.4,160.6 H 21.1 c -3.7,0 -6.7,3 -6.7,6.7 v 67.2 c 0,3.7 3,6.7 6.7,6.7 h 98.3 c 3.7,0 6.7,-3 6.7,-6.7 v -67.2 c 0,-3.7 -3,-6.7 -6.7,-6.7 z m -6.6,68.2 H 28 v -54 h 84.8 v 54 z"
         id="path29"
         style="fill:#231f20" /><g
         id="g31"><rect
           width="13.6"
           height="20.1"
           x="63.5"
           y="237.7"
           id="rect33"
           style="fill:#231f20" /><rect
           width="36.200001"
           height="4.6999998"
           x="52.400002"
           y="255.5"
           id="rect35"
           style="fill:#231f20" /><rect
           width="42.400002"
           height="4.6999998"
           x="49.299999"
           y="259.89999"
           id="rect37"
           style="fill:#231f20" /><rect
           width="44.799999"
           height="4.6999998"
           x="48.099998"
           y="264.29999"
           id="rect39"
           style="fill:#231f20" /></g></g><g
       id="g41"><path
         d="M 119.4,165.1 H 21.1 c -3.7,0 -6.7,3 -6.7,6.7 V 239 c 0,3.7 3,6.7 6.7,6.7 h 98.3 c 3.7,0 6.7,-3 6.7,-6.7 v -67.2 c 0,-3.7 -3,-6.7 -6.7,-6.7 z m -6.6,68.2 H 28 v -54 h 84.8 v 54 z"
         id="path43"
         style="fill:#666666" /><g
         id="g45"
         style="fill:#666666"><rect
           width="13.6"
           height="20.1"
           x="63.5"
           y="242.2"
           id="rect47"
           style="fill:#666666" /><rect
           width="36.200001"
           height="4.6999998"
           x="52.400002"
           y="260"
           id="rect49"
           style="fill:#666666" /><rect
           width="42.400002"
           height="4.6999998"
           x="49.299999"
           y="264.39999"
           id="rect51"
           style="fill:#666666" /><rect
           width="44.799999"
           height="4.6999998"
           x="48.099998"
           y="268.79999"
           id="rect53"
           style="fill:#666666" /></g></g></g><g
     id="g55"><path
       d="m 214.7,163.9 c 29.8,0 54,23.6 55.2,53.1 0,-0.7 0.1,-1.5 0.1,-2.2 0,-30.6 -24.8,-55.3 -55.3,-55.3 -30.6,0 -55.3,24.8 -55.3,55.3 0,0.8 0.1,1.5 0.1,2.2 1.2,-29.5 25.4,-53.1 55.2,-53.1 z"
       id="path57"
       style="fill:#231f20" /><path
       d="m 214.7,163.9 c -30.6,0 -55.3,24.8 -55.3,55.3 0,30.6 24.8,55.3 55.3,55.3 30.6,0 55.3,-24.8 55.3,-55.3 0,-30.5 -24.8,-55.3 -55.3,-55.3 z m -30.6,76.2 v -44.8 l 26.8,22.4 -26.8,22.4 z m 53.7,4.7 H 224 v -54.4 h 13.8 v 54.4 z"
       id="path59"
       style="fill:#666666" /></g></svg>