<?xml version="1.0" encoding="UTF-8" standalone="no"?>
<!-- Generator: Adobe Illustrator 18.0.0, SVG Export Plug-In . SVG Version: 6.00 Build 0)  -->

<svg
   xmlns:dc="http://purl.org/dc/elements/1.1/"
   xmlns:cc="http://creativecommons.org/ns#"
   xmlns:rdf="http://www.w3.org/1999/02/22-rdf-syntax-ns#"
   xmlns:svg="http://www.w3.org/2000/svg"
   xmlns="http://www.w3.org/2000/svg"
   xmlns:sodipodi="http://sodipodi.sourceforge.net/DTD/sodipodi-0.dtd"
   xmlns:inkscape="http://www.inkscape.org/namespaces/inkscape"
   version="1.1"
   id="svg7631"
   sodipodi:docname="calculate.svg"
   sodipodi:version="0.32"
   inkscape:version="0.91 r13725"
   inkscape:output_extension="org.inkscape.output.svg.inkscape"
   x="0px"
   y="0px"
   viewBox="0 0 288 288"
   enable-background="new 0 0 288 288"
   xml:space="preserve"
   width="100%"
   height="100%"><metadata
     id="metadata21"><rdf:RDF><cc:Work
         rdf:about=""><dc:format>image/svg+xml</dc:format><dc:type
           rdf:resource="http://purl.org/dc/dcmitype/StillImage" /></cc:Work></rdf:RDF></metadata><defs
     id="defs19"><linearGradient
       id="linearGradient30685"><stop
         style="stop-color:#8d8d8d;stop-opacity:1;"
         offset="0"
         id="stop30687" /><stop
         style="stop-color:#747474;stop-opacity:1.0000000;"
         offset="1.0000000"
         id="stop30689" /></linearGradient><linearGradient
       id="linearGradient30649"><stop
         style="stop-color:#858585;stop-opacity:1.0000000;"
         offset="0.0000000"
         id="stop30651" /><stop
         style="stop-color:#5f5f5f;stop-opacity:1.0000000;"
         offset="1.0000000"
         id="stop30653" /></linearGradient><linearGradient
       id="linearGradient30518"><stop
         style="stop-color:#ffffff;stop-opacity:1;"
         offset="0"
         id="stop30520" /><stop
         style="stop-color:#ffffff;stop-opacity:0.78698224;"
         offset="1.0000000"
         id="stop30522" /></linearGradient><linearGradient
       id="linearGradient30695"><stop
         style="stop-color:#b8babc;stop-opacity:1.0000000;"
         offset="0.0000000"
         id="stop30697" /><stop
         id="stop30703"
         offset="0.37383178"
         style="stop-color:#5d6062;stop-opacity:1.0000000;" /><stop
         style="stop-color:#585b5d;stop-opacity:1.0000000;"
         offset="1.0000000"
         id="stop30699" /></linearGradient><linearGradient
       id="linearGradient5048"><stop
         style="stop-color:black;stop-opacity:0;"
         offset="0"
         id="stop5050" /><stop
         id="stop5056"
         offset="0.5"
         style="stop-color:black;stop-opacity:1;" /><stop
         style="stop-color:black;stop-opacity:0;"
         offset="1"
         id="stop5052" /></linearGradient></defs><sodipodi:namedview
     pagecolor="#ffffff"
     bordercolor="#666666"
     borderopacity="1"
     objecttolerance="10"
     gridtolerance="10"
     guidetolerance="10"
     inkscape:pageopacity="0"
     inkscape:pageshadow="2"
     inkscape:window-width="3070"
     inkscape:window-height="1752"
     id="namedview17"
     showgrid="false"
     inkscape:zoom="3.2777778"
     inkscape:cx="107.92408"
     inkscape:cy="101.077"
     inkscape:window-x="130"
     inkscape:window-y="48"
     inkscape:window-maximized="1"
     inkscape:current-layer="g3" /><g
     id="g3"><rect
       style="color:#000000;display:block;overflow:visible;visibility:visible;fill:none;fill-opacity:1;fill-rule:nonzero;stroke:#666666;stroke-width:6.39890003;stroke-linecap:butt;stroke-linejoin:miter;stroke-miterlimit:4;stroke-dashoffset:0;stroke-opacity:1;marker:none;marker-start:none;marker-mid:none;marker-end:none"
       id="rect30499"
       width="236.63042"
       height="269.42017"
       x="27.927692"
       y="9.3558435"
       rx="12.528617"
       ry="12.535645" /><rect
       style="color:#000000;display:block;overflow:visible;visibility:visible;fill:#666666;fill-opacity:1;fill-rule:nonzero;stroke:none;stroke-width:1;stroke-linecap:butt;stroke-linejoin:miter;stroke-miterlimit:4;stroke-dashoffset:0;stroke-opacity:1;marker:none;marker-start:none;marker-mid:none;marker-end:none"
       id="rect30514"
       width="187.79066"
       height="71.384247"
       x="49.457901"
       y="35.044331"
       rx="5.2920589"
       ry="10.617056" /><rect
       style="color:#000000;font-family:'Bitstream Vera Sans';display:block;overflow:visible;visibility:visible;fill:#666666;fill-opacity:1;fill-rule:nonzero;stroke:#343434;stroke-width:6.39889956;stroke-linecap:butt;stroke-linejoin:miter;stroke-miterlimit:4;stroke-dashoffset:0;stroke-opacity:1;marker:none;marker-start:none;marker-mid:none;marker-end:none"
       id="rect30528"
       width="44.366283"
       height="69.567352"
       x="194.33139"
       y="182.70251"
       rx="9.7611685"
       ry="8.8502007" /><rect
       style="color:#000000;font-family:'Bitstream Vera Sans';display:block;overflow:visible;visibility:visible;fill:#666666;fill-opacity:1;fill-rule:nonzero;stroke:#343434;stroke-width:6.39890432;stroke-linecap:butt;stroke-linejoin:miter;stroke-miterlimit:4;stroke-dashoffset:0;stroke-opacity:1;marker:none;marker-start:none;marker-mid:none;marker-end:none"
       id="rect30540"
       width="33.102634"
       height="32.652447"
       x="53.098961"
       y="130.21027"
       rx="6.4181261"
       ry="6.4181261" /><rect
       ry="6.4181261"
       rx="6.4181261"
       y="130.21027"
       x="98.251205"
       height="32.652447"
       width="33.102634"
       id="rect30551"
       style="color:#000000;font-family:'Bitstream Vera Sans';display:block;overflow:visible;visibility:visible;fill:#666666;fill-opacity:1;fill-rule:nonzero;stroke:#343434;stroke-width:6.39890432;stroke-linecap:butt;stroke-linejoin:miter;stroke-miterlimit:4;stroke-dashoffset:0;stroke-opacity:1;marker:none;marker-start:none;marker-mid:none;marker-end:none" /><rect
       style="color:#000000;font-family:'Bitstream Vera Sans';display:block;overflow:visible;visibility:visible;fill:#666666;fill-opacity:1;fill-rule:nonzero;stroke:#343434;stroke-width:6.39890432;stroke-linecap:butt;stroke-linejoin:miter;stroke-miterlimit:4;stroke-dashoffset:0;stroke-opacity:1;marker:none;marker-start:none;marker-mid:none;marker-end:none"
       id="rect30553"
       width="33.102634"
       height="32.652447"
       x="143.04352"
       y="130.21027"
       rx="6.4181261"
       ry="6.4181261" /><rect
       ry="6.4181261"
       rx="6.4181261"
       y="174.47952"
       x="53.098961"
       height="32.652447"
       width="33.102634"
       id="rect30555"
       style="color:#000000;font-family:'Bitstream Vera Sans';display:block;overflow:visible;visibility:visible;fill:#666666;fill-opacity:1;fill-rule:nonzero;stroke:#343434;stroke-width:6.39890432;stroke-linecap:butt;stroke-linejoin:miter;stroke-miterlimit:4;stroke-dashoffset:0;stroke-opacity:1;marker:none;marker-start:none;marker-mid:none;marker-end:none" /><rect
       style="color:#000000;font-family:'Bitstream Vera Sans';display:block;overflow:visible;visibility:visible;fill:#666666;fill-opacity:1;fill-rule:nonzero;stroke:#343434;stroke-width:6.39890432;stroke-linecap:butt;stroke-linejoin:miter;stroke-miterlimit:4;stroke-dashoffset:0;stroke-opacity:1;marker:none;marker-start:none;marker-mid:none;marker-end:none"
       id="rect30557"
       width="33.102634"
       height="32.652447"
       x="98.251205"
       y="174.47952"
       rx="6.4181261"
       ry="6.4181261" /><rect
       ry="6.4181261"
       rx="6.4181261"
       y="174.47952"
       x="143.04352"
       height="32.652447"
       width="33.102634"
       id="rect30559"
       style="color:#000000;font-family:'Bitstream Vera Sans';display:block;overflow:visible;visibility:visible;fill:#666666;fill-opacity:1;fill-rule:nonzero;stroke:#343434;stroke-width:6.39890432;stroke-linecap:butt;stroke-linejoin:miter;stroke-miterlimit:4;stroke-dashoffset:0;stroke-opacity:1;marker:none;marker-start:none;marker-mid:none;marker-end:none" /><rect
       style="color:#000000;font-family:'Bitstream Vera Sans';display:block;overflow:visible;visibility:visible;fill:#666666;fill-opacity:1;fill-rule:nonzero;stroke:#343434;stroke-width:6.39890432;stroke-linecap:butt;stroke-linejoin:miter;stroke-miterlimit:4;stroke-dashoffset:0;stroke-opacity:1;marker:none;marker-start:none;marker-mid:none;marker-end:none"
       id="rect30561"
       width="33.102634"
       height="32.652447"
       x="53.098961"
       y="219.27184"
       rx="6.4181261"
       ry="6.4181261" /><rect
       ry="6.4181261"
       rx="6.4181261"
       y="219.27184"
       x="98.251205"
       height="32.652447"
       width="33.102634"
       id="rect30563"
       style="color:#000000;font-family:'Bitstream Vera Sans';display:block;overflow:visible;visibility:visible;fill:#666666;fill-opacity:1;fill-rule:nonzero;stroke:#343434;stroke-width:6.39890432;stroke-linecap:butt;stroke-linejoin:miter;stroke-miterlimit:4;stroke-dashoffset:0;stroke-opacity:1;marker:none;marker-start:none;marker-mid:none;marker-end:none" /><rect
       style="color:#000000;font-family:'Bitstream Vera Sans';display:block;overflow:visible;visibility:visible;fill:#666666;fill-opacity:1;fill-rule:nonzero;stroke:#343434;stroke-width:6.39890432;stroke-linecap:butt;stroke-linejoin:miter;stroke-miterlimit:4;stroke-dashoffset:0;stroke-opacity:1;marker:none;marker-start:none;marker-mid:none;marker-end:none"
       id="rect30565"
       width="33.102634"
       height="32.652447"
       x="143.04352"
       y="219.27184"
       rx="6.4181261"
       ry="6.4181261" /><rect
       ry="7.7712679"
       rx="8.5711803"
       y="130.33711"
       x="194.33139"
       height="40.098576"
       width="44.366283"
       id="rect30567"
       style="color:#000000;font-family:'Bitstream Vera Sans';display:block;overflow:visible;visibility:visible;fill:#666666;fill-opacity:1;fill-rule:nonzero;stroke:#343434;stroke-width:6.39889956;stroke-linecap:butt;stroke-linejoin:miter;stroke-miterlimit:4;stroke-dashoffset:0;stroke-opacity:1;marker:none;marker-start:none;marker-mid:none;marker-end:none" /><path
       inkscape:connector-curvature="0"
       style="font-style:normal;font-variant:normal;font-weight:bold;font-stretch:normal;font-size:3.53047323px;font-family:'Bitstream Vera Sans';writing-mode:lr-tb;text-anchor:start;fill:#000000;fill-opacity:1;stroke:none;stroke-width:1pt;stroke-linecap:butt;stroke-linejoin:miter;stroke-opacity:1"
       d="m 169.632,71.625849 c 1.2906,0.639912 2.26927,1.755646 2.93596,3.347145 0.67523,1.575162 1.01283,3.585074 1.01285,6.029791 -2e-5,3.642481 -0.72656,6.415351 -2.17954,8.318641 -1.45303,1.88686 -3.57275,2.83028 -6.35912,2.83028 -0.98295,0 -1.97014,-0.15589 -2.96161,-0.46757 -0.98294,-0.29539 -1.95731,-0.74654 -2.92315,-1.35357 l 0,-7.30959 c 0.9231,0.88603 1.83765,1.55874 2.74366,2.01814 0.91455,0.443 1.812,0.66459 2.69238,0.66445 1.3077,0 2.30773,-0.43473 3.00006,-1.30448 0.70087,-0.86961 1.05129,-2.116561 1.05132,-3.740906 -3e-5,-1.673588 -0.35901,-2.936962 -1.07697,-3.79015 -0.70943,-0.869613 -1.76073,-1.304335 -3.15391,-1.304335 l -1.97441,0 0,-6.103622 2.07697,0 c 1.23935,2.7e-5 2.16245,-0.369197 2.7693,-1.107454 0.60687,-0.754678 0.91026,-1.895061 0.91027,-3.420981 -10e-6,-1.410987 -0.29488,-2.5021 -0.88463,-3.273314 -0.58977,-0.771072 -1.42312,-1.156692 -2.50006,-1.156692 -0.7949,2.6e-5 -1.59833,0.172286 -2.41031,0.516809 -0.812,0.344659 -1.61972,0.85319 -2.42314,1.525892 l 0,-6.94038 c 0.97438,-0.524963 1.94021,-0.918859 2.8975,-1.181411 0.95728,-0.262405 1.89748,-0.393756 2.82058,-0.393756 2.48724,4.4e-5 4.34625,0.787657 5.57707,2.36269 1.23932,1.55876 1.85899,3.913245 1.85901,7.063457 -2e-5,2.149435 -0.2949,3.913225 -0.88464,5.291448 -0.58976,1.361857 -1.46159,2.321671 -2.61544,2.879523 m 8.70533,10.287536 4.61549,0 0,9.524606 -4.61549,0 0,-9.524606 m 10.3464,2.977976 4.35908,0 0,-23.749958 -4.47447,1.772015 0,-6.448157 4.44882,-1.772014 4.69242,0 0,30.198114 4.35907,0 0,6.54663 -13.38492,0 0,-6.54663 m 24.84674,-22.396325 -5.41038,15.382075 5.41038,0 0,-15.382075 m -0.82054,-7.801789 5.48731,0 0,23.183864 2.73083,0 0,6.86658 -2.73083,0 0,6.6943 -4.66677,0 0,-6.6943 -8.48738,0 0,-8.121756 7.66684,-21.928688"
       id="text30569" /><path
       inkscape:connector-curvature="0"
       style="font-style:normal;font-variant:normal;font-weight:bold;font-stretch:normal;font-size:4.74078846px;font-family:'Bitstream Vera Sans';writing-mode:lr-tb;text-anchor:start;fill:#000000;fill-opacity:1;stroke:#000000;stroke-width:3.0729816;stroke-linecap:butt;stroke-linejoin:miter;stroke-miterlimit:4;stroke-dasharray:none;stroke-opacity:1"
       d="m 218.35496,204.64548 0,10.94357 10.9018,0 0,4.9288 -10.9018,0 0,10.94352 -4.97057,0 0,-10.94352 -10.9018,0 0,-4.9288 10.9018,0 0,-8.75512 0,-2.18845 0.32854,0 0.0426,0 4.94329,-0.0426 0.19387,0.0762 0.91113,0.009"
       id="text30574"
       sodipodi:nodetypes="cccccccccccccccccc" /><path
       inkscape:connector-curvature="0"
       style="font-style:normal;font-variant:normal;font-weight:bold;font-stretch:normal;font-size:4.74078846px;font-family:'Bitstream Vera Sans';writing-mode:lr-tb;text-anchor:start;fill:#000000;fill-opacity:1;stroke:none;stroke-width:1pt;stroke-linecap:butt;stroke-linejoin:miter;stroke-opacity:1"
       d="m 205.46672,146.05854 21.46148,0 0,9.9447 -21.46148,0 0,-9.9447"
       id="text30578" /><text
       xml:space="preserve"
       style="font-style:normal;font-weight:normal;font-size:40px;line-height:125%;font-family:Sans;letter-spacing:0px;word-spacing:0px;fill:#000000;fill-opacity:1;stroke:none;stroke-width:1px;stroke-linecap:butt;stroke-linejoin:miter;stroke-opacity:1"
       x="64.983047"
       y="146.74576"
       id="text4330"
       sodipodi:linespacing="125%"><tspan
         sodipodi:role="line"
         id="tspan4332"
         x="64.983047"
         y="146.74576" /></text>
</g></svg>