<?xml version="1.0" encoding="UTF-8" standalone="no"?>
<!-- Created with Inkscape (http://www.inkscape.org/) -->

<svg
   xmlns:dc="http://purl.org/dc/elements/1.1/"
   xmlns:cc="http://creativecommons.org/ns#"
   xmlns:rdf="http://www.w3.org/1999/02/22-rdf-syntax-ns#"
   xmlns:svg="http://www.w3.org/2000/svg"
   xmlns="http://www.w3.org/2000/svg"
   version="1.1"
   width="100%"
   height="100%"
   viewBox="0 0 288 288"
   id="svg7631"
   xml:space="preserve"><metadata
     id="metadata13"><rdf:RDF><cc:Work
         rdf:about=""><dc:format>image/svg+xml</dc:format><dc:type
           rdf:resource="http://purl.org/dc/dcmitype/StillImage" /><dc:title></dc:title></cc:Work></rdf:RDF></metadata><defs
     id="defs11" /><g
     id="g3"><path
       d="M 261.6,258.6 H 25.2 c -9.6,0 -16.8,-7.8 -16.8,-16.8 V 73.2 c 0,-9.6 7.8,-16.8 16.8,-16.8 H 75.6 V 39 c 0,-9.6 7.8,-16.8 16.8,-16.8 h 101.4 c 9.6,0 16.8,7.8 16.8,16.8 v 16.8 h 51 c 9.6,0 16.8,7.8 16.8,16.8 v 169.2 c 0.6,9.6 -7.2,16.8 -16.8,16.8 z M 244.8,90 H 193.8 177 V 55.8 H 109.8 V 90 H 93 42 V 225 H 244.8 V 90 z m -177,16.8 c 4.8,0 8.4,3.6 8.4,8.4 0,4.8 -3.6,8.4 -8.4,8.4 -4.8,0 -8.4,-3.6 -8.4,-8.4 0,-4.8 3.6,-8.4 8.4,-8.4 z m 75.6,0 c 28.2,0 50.4,22.8 50.4,50.4 0,28.2 -22.8,51 -50.4,51 -28.2,0 -51,-22.8 -51,-51 0.6,-27.6 23.4,-50.4 51,-50.4 z m 0,84.6 c 18.6,0 33.6,-15 33.6,-33.6 0,-18.6 -15,-33.6 -33.6,-33.6 -18.6,0 -33.6,15 -33.6,33.6 0,18 15,33.6 33.6,33.6 z"
       id="path5"
       style="fill:#231f20" /><path
       d="M 261.6,267.6 H 25.2 c -9.6,0 -16.8,-7.8 -16.8,-16.8 V 81.6 C 8.4,72 16.2,64.8 25.2,64.8 H 75.6 V 47.4 c 0,-9.6 7.8,-16.8 16.8,-16.8 h 101.4 c 9.6,0 16.8,7.8 16.8,16.8 v 16.8 h 51 c 9.6,0 16.8,7.8 16.8,16.8 v 169.2 c 0.6,9.6 -7.2,17.4 -16.8,17.4 z M 244.8,98.4 H 193.8 177 V 64.8 H 109.8 V 98.4 H 93 42 v 135 h 202.8 v -135 z m -177,16.8 c 4.8,0 8.4,3.6 8.4,8.4 0,4.8 -3.6,8.4 -8.4,8.4 -4.8,0 -8.4,-3.6 -8.4,-8.4 -0.6,-4.8 3.6,-8.4 8.4,-8.4 z m 75.6,0 c 28.2,0 50.4,22.8 50.4,50.4 0,28.2 -22.8,51 -50.4,51 -28.2,0 -51,-22.8 -51,-51 0.6,-27.6 23.4,-50.4 51,-50.4 z m 0,84.6 c 18.6,0 33.6,-15 33.6,-33.6 0,-18.6 -15,-33.6 -33.6,-33.6 -18.6,0 -33.6,15 -33.6,33.6 0,18.6 15,33.6 33.6,33.6 z"
       id="path7"
       style="fill:#808080" /></g></svg>