<?xml version="1.0" encoding="UTF-8" standalone="no"?>
<!-- Created with Inkscape (http://www.inkscape.org/) -->

<svg
   xmlns:dc="http://purl.org/dc/elements/1.1/"
   xmlns:cc="http://creativecommons.org/ns#"
   xmlns:rdf="http://www.w3.org/1999/02/22-rdf-syntax-ns#"
   xmlns:svg="http://www.w3.org/2000/svg"
   xmlns="http://www.w3.org/2000/svg"
   xmlns:sodipodi="http://sodipodi.sourceforge.net/DTD/sodipodi-0.dtd"
   xmlns:inkscape="http://www.inkscape.org/namespaces/inkscape"
   version="1.1"
   width="100%"
   height="100%"
   viewBox="0 0 288 288"
   id="svg7631"
   xml:space="preserve"
   inkscape:version="0.91 r13725"
   sodipodi:docname="console_edit.svg"><sodipodi:namedview
     pagecolor="#ffffff"
     bordercolor="#666666"
     borderopacity="1"
     objecttolerance="10"
     gridtolerance="10"
     guidetolerance="10"
     inkscape:pageopacity="0"
     inkscape:pageshadow="2"
     inkscape:window-width="2537"
     inkscape:window-height="1564"
     id="namedview10"
     showgrid="false"
     inkscape:zoom="1.6388889"
     inkscape:cx="244.04772"
     inkscape:cy="157.89749"
     inkscape:window-x="130"
     inkscape:window-y="48"
     inkscape:window-maximized="0"
     inkscape:current-layer="g3" /><metadata
     id="metadata17"><rdf:RDF><cc:Work
         rdf:about=""><dc:format>image/svg+xml</dc:format><dc:type
           rdf:resource="http://purl.org/dc/dcmitype/StillImage" /><dc:title /></cc:Work></rdf:RDF></metadata><defs
     id="defs15" /><g
     id="g3"><polygon
       points="10,177.1 10,145 96.2,115.1 10,80.6 10,48.5 144.1,97.9 144.1,133.2 "
       id="polygon5"
       style="fill:#231f20"
       transform="matrix(0.62006599,0,0,0.69953814,47.121372,49.962232)" /><polygon
       points="10,186.7 10,154.5 96.2,124.7 10,90.2 10,58 144.1,107.4 144.1,142.7 "
       id="polygon7"
       style="fill:#808080;fill-opacity:1"
       transform="matrix(0.62006599,0,0,0.69953814,47.121372,49.962232)" /><rect
       width="88.729431"
       height="18.901367"
       x="130.8943"
       y="185.37933"
       id="rect9"
       style="fill:#231f20" /><rect
       width="88.729431"
       height="18.901367"
       x="130.8943"
       y="192.22662"
       id="rect11"
       style="fill:#808080;fill-opacity:1" /><polygon
       transform="translate(1.8150221,1.1075328)"
       points="232.1,52.4 188,52.4 187.8,52.6 177.5,56.1 172.7,53.7 165.1,60.8 40.9,60.8 40.9,232.2 232.1,232.2 232.1,130.5 "
       id="polygon7-3"
       style="fill:none" /><rect
       width="191.10001"
       height="8.5"
       x="42.715012"
       y="233.30754"
       id="rect9-6"
       style="fill:#221f1f" /><path
       d="m 35.597452,30.307533 184.578268,0 7.61262,-8.3 0.11033,-0.2 -192.301218,0 c -13.45998,0 -24.38243,9.9 -24.38243,22.1 l 0,8.5 c 0,-12.1 10.92245,-22.1 24.38243,-22.1 z"
       id="path11"
       style="fill:#221f1f"
       inkscape:connector-curvature="0" /><polygon
       points="263.6,101 263.6,90.6 232.1,120.4 232.1,130.5 "
       id="polygon13"
       style="fill:#221f1f"
       transform="matrix(0.99217276,0,0,1.0701643,4.7409121,-32.890429)" /><polygon
       points="174,52.4 40.9,52.4 40.9,60.8 165.1,60.8 172.7,53.7 172.6,53.6 "
       id="polygon15"
       style="fill:#666666"
       transform="matrix(1.1444053,0,0,1,-4.0911479,1.1075328)" /><path
       inkscape:connector-curvature="0"
       d="m 243.31502,264.90753 -209.999998,0 c -12.2,0 -22.1,-9.9 -22.1,-22.1 l 0,8.5 c 0,12.2 9.9,22.1 22.1,22.1 l 210.099998,0 c 12.2,0 22.1,-9.9 22.1,-22.1 l 0,-8.5 c -0.1,12.2 -10,22.1 -22.2,22.1 z"
       id="path17"
       style="fill:#666666" /><path
       d="m 233.91502,233.30753 0,8.5 -191.199998,0 0,-8.5 0,-171.399997 0,-8.5 152.015258,0.45763 25.10508,-23.557629 -186.520338,-1e-6 c -12.2,0 -22.1,9.9 -22.1,22.1 l 0,190.299997 c 0,12.2 9.9,22.1 22.1,22.1 l 38.05932,0 31.728818,0 140.31186,0 c 12.2,0 22.1,-9.9 22.1,-22.1 l 1.22034,-172.023727 -31.60001,31.330507 z"
       id="path19"
       style="fill:#808080;fill-opacity:1"
       inkscape:connector-curvature="0"
       sodipodi:nodetypes="ccccccccssssccssccc" /><g
       id="g21"
       transform="matrix(0.59401734,0,0,0.59401734,107.21566,10.206696)"><path
         d="M 279.4,56.4 135.7,191.6 90.8,143.9 233.8,9.3 c 2.8,-2.7 7.3,-2.5 10,0.3 l 35.9,38.1 c 2.3,2.5 2.2,6.4 -0.3,8.7 z"
         id="path23"
         style="fill:#221f1f"
         inkscape:connector-curvature="0" /></g><path
       d="M 273.18411,43.709273 187.8238,124.02041 161.15243,95.685803 246.09691,15.731057 c 1.66326,-1.603846 4.33632,-1.485043 5.94017,0.178207 l 21.32522,22.632059 c 1.36625,1.48505 1.30684,3.80171 -0.17819,5.16795 z"
       id="path25"
       style="fill:#221f1f"
       inkscape:connector-curvature="0" /><path
       d="M 273.18411,48.758413 187.8238,129.06956 161.15243,100.73495 246.09691,20.780205 c 1.66326,-1.603847 4.33632,-1.485042 5.94017,0.178206 l 21.32522,22.632052 c 1.36625,1.48505 1.30684,3.74231 -0.17819,5.16795 z"
       id="path27"
       style="fill:#cdcdcd"
       inkscape:connector-curvature="0" /><polygon
       points="40.9,240.7 232.1,240.7 232.1,130.5 147,210.1 80.7,139.7 165.1,60.8 40.9,60.8 "
       id="polygon29"
       style="fill:none"
       transform="matrix(0.97008595,0,0,0.97008595,22.153342,-10.264825)" /><polygon
       points="232.1,60.8 210.8,60.8 112.8,153 136.3,178.1 232.1,88 "
       id="polygon31"
       style="fill:none"
       transform="matrix(0.59401734,0,0,0.59401734,107.21566,10.206696)" /><polygon
       points="238.3,34.9 210.8,60.8 232.1,60.8 232.1,88 261.9,60 "
       id="polygon33"
       style="fill:#cdcdcd"
       transform="matrix(0.59401734,0,0,0.59401734,107.21566,10.206696)" /><path
       d="M 273.18411,48.758413 187.8238,129.06956 161.15243,100.73495 246.09691,20.780205 c 1.66326,-1.603847 4.33632,-1.485042 5.94017,0.178206 l 21.32522,22.632052 c 1.36625,1.48505 1.30684,3.74231 -0.17819,5.16795 z"
       id="path35"
       style="fill:#808080;fill-opacity:1"
       inkscape:connector-curvature="0" /><path
       d="m 184.20029,132.81189 -26.73076,-28.33465 -1.66325,23.34489 c -0.11876,1.54445 1.06923,2.91069 2.61365,3.02949 l 25.78036,1.96027 z"
       id="path37"
       style="fill:#808080;fill-opacity:1"
       inkscape:connector-curvature="0" /></g></svg>