<?xml version="1.0" encoding="UTF-8" standalone="no"?>
<!-- Created with Inkscape (http://www.inkscape.org/) -->

<svg
   xmlns:dc="http://purl.org/dc/elements/1.1/"
   xmlns:cc="http://creativecommons.org/ns#"
   xmlns:rdf="http://www.w3.org/1999/02/22-rdf-syntax-ns#"
   xmlns:svg="http://www.w3.org/2000/svg"
   xmlns="http://www.w3.org/2000/svg"
   xmlns:sodipodi="http://sodipodi.sourceforge.net/DTD/sodipodi-0.dtd"
   xmlns:inkscape="http://www.inkscape.org/namespaces/inkscape"
   version="1.1"
   width="100%"
   height="100%"
   viewBox="0 0 288 288"
   id="svg7631"
   xml:space="preserve"
   inkscape:version="0.48.4 r9939"
   sodipodi:docname="ellipse.svg"><sodipodi:namedview
     pagecolor="#ffffff"
     bordercolor="#666666"
     borderopacity="1"
     objecttolerance="10"
     gridtolerance="10"
     guidetolerance="10"
     inkscape:pageopacity="0"
     inkscape:pageshadow="2"
     inkscape:window-width="640"
     inkscape:window-height="480"
     id="namedview8"
     showgrid="false"
     inkscape:zoom="0.81944444"
     inkscape:cx="144"
     inkscape:cy="144"
     inkscape:window-x="75"
     inkscape:window-y="34"
     inkscape:window-maximized="0"
     inkscape:current-layer="g3" /><metadata
     id="metadata13"><rdf:RDF><cc:Work
         rdf:about=""><dc:format>image/svg+xml</dc:format><dc:type
           rdf:resource="http://purl.org/dc/dcmitype/StillImage" /><dc:title /></cc:Work></rdf:RDF></metadata><defs
     id="defs11" /><g
     id="g3"><path
       d="m 143.9,219 c -1.7,0 -3.5,0 -5.2,-0.1 l -7.6,-0.2 0.5,-16.3 7.5,0.2 c 10.4,0.3 21,-0.3 31.2,-1.7 l 7.1,-1.1 1.6,16.2 -6.5,1.1 c -9.4,1.3 -19,1.9 -28.6,1.9 z m -30.9,-2 -8,-1.5 c -11.6,-2.2 -22.6,-5.4 -32.8,-9.4 l -7.6,-3 6,-15.1 7.6,3 c 9.2,3.7 19.2,6.6 29.8,8.5 l 8,1.5 -3,16 z m 84.9,-4.9 -5.1,-15.5 7.7,-2.5 c 10.3,-3.4 19.7,-7.6 27.8,-12.7 l 6.9,-4.3 8.6,13.9 -6.9,4.3 c -9.3,5.7 -19.8,10.5 -31.3,14.3 l -7.7,2.5 z M 48.4,194.2 41.9,189.3 c -10.6,-8 -18.6,-17.1 -23.7,-27.1 l -3.7,-7.3 14.5,-7.4 3.7,7.3 c 3.9,7.7 10.3,15 19,21.5 l 6.5,4.9 -9.8,13 z m 210.2,-15.9 -13.1,-9.7 4.9,-6.5 c 6,-8.1 9.1,-16.6 9.1,-25.3 v -5.2 l -1.4,-5.1 c -2.3,-8.2 -7.4,-16.1 -15.1,-23.4 l -5.9,-5.6 11.2,-11.8 5.9,5.6 c 9.9,9.3 14.2,19.6 17.3,30.7 l 2.4,9.6 -0.7,1.8 -0.8,3.4 c 0,12.3 -0.8,24.1 -8.9,35 l -4.9,6.5 z m -234.1,-41.5 -13.1,-3.7 1.8,-8 C 15.7,113.7 21.9,103 31.4,93.3 l 5.7,-5.8 11.7,11.5 -5.7,5.8 c -7.4,7.5 -12.1,15.5 -13.9,23.9 l -4.7,8.1 z M 60.1,91.3 52.7,76.8 60,73 c 9.7,-4.9 20.5,-9 32.1,-12 l 7.9,-2.1 4.1,15.8 -7.9,2.1 C 85.8,79.5 76.1,83.2 67.4,87.6 l -7.3,3.7 z M 225.4,90 218.1,86.5 C 209.3,82.2 199.5,78.8 189,76.2 l -6.8,-2.9 3.6,-14.5 7.2,1.6 c 11.6,2.9 22.4,6.7 32.3,11.5 l 7.3,3.5 -7.2,14.6 z M 118.8,72.2 117.4,56 l 8.1,-0.7 c 11.1,-1 22.7,-1 33.8,-0.2 l 8.1,0.6 -1.2,16.3 -8.1,-0.6 c -10.3,-0.7 -21,-0.7 -31.3,0.2 l -8,0.6 z"
       id="path5"
       style="fill:#121212" /><path
       d="m 143.3,228.6 c -1.5,0 -3.1,0 -4.6,0 l -8.2,-0.2 0.3,-16.5 8.2,0.2 c 10.6,0.2 21.3,-0.4 31.6,-1.8 l 8.2,-1.1 2.2,16.3 -8.2,1.1 c -9.6,1.3 -19.5,2 -29.5,2 z m -30.5,-1.9 -8.1,-1.5 C 93,223.1 81.8,220 71.5,216.1 l -7.7,-2.9 5.9,-15.4 7.7,2.9 c 9.4,3.6 19.6,6.4 30.2,8.3 l 8.1,1.5 -2.9,16.2 z m 85.8,-5 -5,-15.7 7.8,-2.5 c 10.5,-3.4 20,-7.6 28.3,-12.6 l 7.1,-4.2 8.5,14.1 -7.1,4.2 c -9.4,5.6 -20.1,10.4 -31.8,14.1 l -7.8,2.6 z M 47.3,204.6 40.6,199.8 C 29.7,192 21.3,183 15.9,173.3 l -4,-7.2 14.4,-8 4,7.2 c 4.3,7.6 10.9,14.8 19.9,21.2 l 6.7,4.8 -9.6,13.3 z m 212.9,-16.5 -13.1,-10 5,-6.5 c 6.2,-8.1 9.4,-16.6 9.4,-25.3 v -6.2 l -2.1,-6.1 c -2.8,-8.1 -8.4,-15.8 -16.6,-22.9 l -6.2,-5.4 10.8,-12.4 6.2,5.4 c 10.4,9 17.6,19.1 21.4,29.9 0,0 2.5,6.6 3,10.8 0.5,4.2 0,6.9 0,6.9 0,12.4 -4.3,24.3 -12.7,35.3 l -5.1,6.5 z M 24.2,147.2 8.1,144 9.7,135.9 c 2.3,-11.6 8.4,-22.5 18.2,-32.4 l 5.8,-5.9 11.7,11.6 -5.8,5.9 c -7.4,7.6 -12.1,15.7 -13.8,24.1 l -1.6,8 z M 56.9,101.4 49.4,86.7 56.7,83 c 9.8,-5 20.7,-9.1 32.4,-12.2 l 8,-2.1 4.2,15.9 -8,2.1 c -10.6,2.8 -20.4,6.5 -29.2,11 l -7.2,3.7 z M 224.5,98.4 217,95 c -9,-4.1 -19,-7.4 -29.7,-9.8 l -8,-1.8 3.7,-16.1 8,1.8 c 11.7,2.7 22.7,6.3 32.8,10.8 l 7.5,3.4 -6.8,15.1 z M 116.2,82 l -1.5,-16.4 8.2,-0.8 c 11.2,-1 22.9,-1.2 34.1,-0.5 l 8.2,0.5 -1,16.4 -8.2,-0.5 c -10.4,-0.6 -21.2,-0.5 -31.6,0.5 l -8.2,0.8 z"
       id="path7"
       style="fill:#808080;fill-opacity:1" /></g></svg>