<?xml version="1.0" encoding="UTF-8" standalone="no"?>
<!-- Created with Inkscape (http://www.inkscape.org/) -->

<svg
   xmlns:dc="http://purl.org/dc/elements/1.1/"
   xmlns:cc="http://creativecommons.org/ns#"
   xmlns:rdf="http://www.w3.org/1999/02/22-rdf-syntax-ns#"
   xmlns:svg="http://www.w3.org/2000/svg"
   xmlns="http://www.w3.org/2000/svg"
   version="1.1"
   width="100%"
   height="100%"
   viewBox="0 0 288 288"
   id="svg7631"
   xml:space="preserve"><metadata
     id="metadata13"><rdf:RDF><cc:Work
         rdf:about=""><dc:format>image/svg+xml</dc:format><dc:type
           rdf:resource="http://purl.org/dc/dcmitype/StillImage" /><dc:title></dc:title></cc:Work></rdf:RDF></metadata><defs
     id="defs11" /><g
     id="g3"><path
       d="m 144.1,21.6 c 68.4,0 124.1,54.2 126.8,121.9 0.1,-1.7 0.3,-3.4 0.3,-5.1 C 271.2,68.2 214.3,11.3 144.1,11.3 73.9,11.3 17,68.2 17,138.4 c 0,1.7 0.2,3.4 0.3,5.1 C 20,75.8 75.6,21.6 144.1,21.6 z"
       id="path5"
       style="fill:#231f20" /><path
       d="M 144.1,21.6 C 73.9,21.6 17,78.5 17,148.7 c 0,70.2 56.9,127.1 127.1,127.1 70.2,0 127.1,-56.9 127.1,-127.1 C 271.1,78.5 214.3,21.6 144.1,21.6 z m -70.4,175 V 93.7 l 61.5,51.4 -61.5,51.5 z m 123.4,10.9 h -31.6 v -125 h 31.6 v 125 z"
       id="path7"
       style="fill:#808080" /></g></svg>