<?xml version="1.0" encoding="UTF-8" standalone="no"?>
<!-- Created with Inkscape (http://www.inkscape.org/) -->

<svg
   xmlns:dc="http://purl.org/dc/elements/1.1/"
   xmlns:cc="http://creativecommons.org/ns#"
   xmlns:rdf="http://www.w3.org/1999/02/22-rdf-syntax-ns#"
   xmlns:svg="http://www.w3.org/2000/svg"
   xmlns="http://www.w3.org/2000/svg"
   xmlns:xlink="http://www.w3.org/1999/xlink"
   xmlns:sodipodi="http://sodipodi.sourceforge.net/DTD/sodipodi-0.dtd"
   xmlns:inkscape="http://www.inkscape.org/namespaces/inkscape"
   version="1.1"
   width="100%"
   height="100%"
   viewBox="0 0 288 288"
   id="svg7631"
   xml:space="preserve"
   inkscape:version="0.48.4 r9939"
   sodipodi:docname="help.svg"><sodipodi:namedview
     pagecolor="#ffffff"
     bordercolor="#666666"
     borderopacity="1"
     objecttolerance="10"
     gridtolerance="10"
     guidetolerance="10"
     inkscape:pageopacity="0"
     inkscape:pageshadow="2"
     inkscape:window-width="741"
     inkscape:window-height="480"
     id="namedview16"
     showgrid="false"
     inkscape:zoom="0.81944444"
     inkscape:cx="144"
     inkscape:cy="144"
     inkscape:window-x="739"
     inkscape:window-y="475"
     inkscape:window-maximized="0"
     inkscape:current-layer="svg7631" /><metadata
     id="metadata21"><rdf:RDF><cc:Work
         rdf:about=""><dc:format>image/svg+xml</dc:format><dc:type
           rdf:resource="http://purl.org/dc/dcmitype/StillImage" /><dc:title /></cc:Work></rdf:RDF></metadata><defs
     id="defs19"><radialGradient
       cx="-19.515638"
       cy="16.855663"
       r="8.753643"
       fx="-19.515638"
       fy="16.855663"
       id="radialGradient2437"
       xlink:href="#linearGradient2431"
       gradientUnits="userSpaceOnUse"
       gradientTransform="matrix(4.445991,0,0,6.8665,67.25071,-104.6679)" /><linearGradient
       id="linearGradient2431"><stop
         id="stop2433"
         style="stop-color:#ffffff;stop-opacity:1"
         offset="0" /><stop
         id="stop2435"
         style="stop-color:#b8b8b8;stop-opacity:1"
         offset="1" /></linearGradient></defs><g
     id="g3"><g
       id="g5"><path
         d="M 144.5,11 C 74.3,11 17.4,67.9 17.4,138.2 c 0,70.2 56.9,127.2 127.2,127.2 70.2,0 127.2,-56.9 127.2,-127.2 C 271.7,67.9 214.8,11 144.5,11 z m 0,224.7 c -53.9,0 -97.6,-43.7 -97.6,-97.6 0,-53.9 43.7,-97.6 97.6,-97.6 53.9,0 97.6,43.7 97.6,97.6 0,54 -43.7,97.6 -97.6,97.6 z"
         id="path7"
         style="fill:#231f20" /></g><g
       id="g11"><path
         d="m 144.5,23.3 c -70.2,0 -127.2,56.9 -127.2,127.2 0,70.2 56.9,127.2 127.2,127.2 70.2,0 127.2,-56.9 127.2,-127.2 0,-70.2 -56.9,-127.2 -127.2,-127.2 z m 0,224.8 C 90.6,248.1 46.9,204.4 46.9,150.5 47,96.6 90.7,53 144.5,53 c 53.9,0 97.6,43.7 97.6,97.6 0,53.8 -43.7,97.5 -97.6,97.5 z"
         id="path13"
         style="fill:#808080;fill-opacity:1" /></g></g><path
     d="m -20.25,5.875 c -1.059019,2.63e-5 -2.147637,0.1232356 -3.28125,0.34375 -1.132925,0.2204283 -2.380162,0.5375125 -3.75,1 a 0.13496364,0.13496364 0 0 0 -0.03125,0 0.13496364,0.13496364 0 0 0 -0.03125,0.03125 0.13496364,0.13496364 0 0 0 -0.03125,0.03125 0.13496364,0.13496364 0 0 0 0,0.03125 0.13496364,0.13496364 0 0 0 0,0.03125 l 0,5.15625 a 0.13496364,0.13496364 0 0 0 0,0.03125 0.13496364,0.13496364 0 0 0 0,0.03125 0.13496364,0.13496364 0 0 0 0.03125,0.03125 0.13496364,0.13496364 0 0 0 0.03125,0.03125 0.13496364,0.13496364 0 0 0 0.03125,0 0.13496364,0.13496364 0 0 0 0.03125,0 0.13496364,0.13496364 0 0 0 0.03125,0 0.13496364,0.13496364 0 0 0 0.03125,0 c 1.142438,-0.719043 2.233352,-1.267138 3.28125,-1.625 1.048141,-0.368756 2.043116,-0.562479 2.9375,-0.5625 0.949218,2.1e-5 1.644925,0.210545 2.15625,0.625 0.508723,0.40209 0.781238,0.98304 0.78125,1.71875 -10e-6,0.480657 -0.144188,0.95141 -0.4375,1.4375 -0.282991,0.487016 -0.740265,1.030495 -1.375,1.59375 L -20.9375,16.75 c -1.201459,1.08049 -1.989243,1.991022 -2.375,2.71875 -0.383113,0.711446 -0.562505,1.519324 -0.5625,2.4375 l 0,0.8125 a 0.13496364,0.13496364 0 0 0 0,0.03125 0.13496364,0.13496364 0 0 0 0,0.03125 0.13496364,0.13496364 0 0 0 0.03125,0.03125 0.13496364,0.13496364 0 0 0 0.03125,0.03125 0.13496364,0.13496364 0 0 0 0.03125,0 0.13496364,0.13496364 0 0 0 0.03125,0 l 6.09375,0 a 0.13496364,0.13496364 0 0 0 0.03125,0 0.13496364,0.13496364 0 0 0 0.03125,0 0.13496364,0.13496364 0 0 0 0.03125,-0.03125 0.13496364,0.13496364 0 0 0 0.03125,-0.03125 0.13496364,0.13496364 0 0 0 0,-0.03125 0.13496364,0.13496364 0 0 0 0,-0.03125 l 0,-0.75 c -1.1e-5,-0.468196 0.14837,-0.892849 0.375,-1.28125 0.222295,-0.391284 0.708073,-0.950359 1.46875,-1.625 l 1.0625,-0.9375 c 1.066588,-0.98231 1.830659,-1.884654 2.28125,-2.75 0.449269,-0.874046 0.687482,-1.87342 0.6875,-2.96875 -1.8e-5,-2.126265 -0.743769,-3.7340276 -2.21875,-4.84375 -1.475197,-1.1210252 -3.60624,-1.6874737 -6.375,-1.6875 z m -3.5625,19.15625 a 0.13496364,0.13496364 0 0 0 -0.03125,0.03125 0.13496364,0.13496364 0 0 0 -0.03125,0.03125 0.13496364,0.13496364 0 0 0 0,0.03125 0.13496364,0.13496364 0 0 0 0,0.03125 l 0,5.84375 a 0.13496364,0.13496364 0 0 0 0,0.03125 0.13496364,0.13496364 0 0 0 0,0.03125 0.13496364,0.13496364 0 0 0 0.03125,0.03125 0.13496364,0.13496364 0 0 0 0.03125,0.03125 0.13496364,0.13496364 0 0 0 0.03125,0 0.13496364,0.13496364 0 0 0 0.03125,0 l 6.09375,0 a 0.13496364,0.13496364 0 0 0 0.03125,0 0.13496364,0.13496364 0 0 0 0.03125,0 0.13496364,0.13496364 0 0 0 0.03125,-0.03125 0.13496364,0.13496364 0 0 0 0.03125,-0.03125 0.13496364,0.13496364 0 0 0 0,-0.03125 0.13496364,0.13496364 0 0 0 0,-0.03125 l 0,-5.84375 a 0.13496364,0.13496364 0 0 0 0,-0.03125 0.13496364,0.13496364 0 0 0 0,-0.03125 0.13496364,0.13496364 0 0 0 -0.03125,-0.03125 0.13496364,0.13496364 0 0 0 -0.03125,-0.03125 0.13496364,0.13496364 0 0 0 -0.03125,0 0.13496364,0.13496364 0 0 0 -0.03125,0 l -6.09375,0 a 0.13496364,0.13496364 0 0 0 -0.03125,0 0.13496364,0.13496364 0 0 0 -0.03125,0 z"
     transform="matrix(6.0207222,0,0,5.8827313,269.43309,33.235346)"
     id="path1554-1"
     style="font-size:34.15322876px;font-style:normal;font-variant:normal;font-weight:bold;font-stretch:normal;text-align:start;line-height:125%;writing-mode:lr-tb;text-anchor:start;fill:#000000;fill-opacity:1;stroke:none;font-family:Bitstream Vera Sans" /><path
     d="m -20.25,5.875 c -1.059019,2.63e-5 -2.147637,0.1232356 -3.28125,0.34375 -1.132925,0.2204283 -2.380162,0.5375125 -3.75,1 a 0.13496364,0.13496364 0 0 0 -0.03125,0 0.13496364,0.13496364 0 0 0 -0.03125,0.03125 0.13496364,0.13496364 0 0 0 -0.03125,0.03125 0.13496364,0.13496364 0 0 0 0,0.03125 0.13496364,0.13496364 0 0 0 0,0.03125 l 0,5.15625 a 0.13496364,0.13496364 0 0 0 0,0.03125 0.13496364,0.13496364 0 0 0 0,0.03125 0.13496364,0.13496364 0 0 0 0.03125,0.03125 0.13496364,0.13496364 0 0 0 0.03125,0.03125 0.13496364,0.13496364 0 0 0 0.03125,0 0.13496364,0.13496364 0 0 0 0.03125,0 0.13496364,0.13496364 0 0 0 0.03125,0 0.13496364,0.13496364 0 0 0 0.03125,0 c 1.142438,-0.719043 2.233352,-1.267138 3.28125,-1.625 1.048141,-0.368756 2.043116,-0.562479 2.9375,-0.5625 0.949218,2.1e-5 1.644925,0.210545 2.15625,0.625 0.508723,0.40209 0.781238,0.98304 0.78125,1.71875 -10e-6,0.480657 -0.144188,0.95141 -0.4375,1.4375 -0.282991,0.487016 -0.740265,1.030495 -1.375,1.59375 L -20.9375,16.75 c -1.201459,1.08049 -1.989243,1.991022 -2.375,2.71875 -0.383113,0.711446 -0.562505,1.519324 -0.5625,2.4375 l 0,0.8125 a 0.13496364,0.13496364 0 0 0 0,0.03125 0.13496364,0.13496364 0 0 0 0,0.03125 0.13496364,0.13496364 0 0 0 0.03125,0.03125 0.13496364,0.13496364 0 0 0 0.03125,0.03125 0.13496364,0.13496364 0 0 0 0.03125,0 0.13496364,0.13496364 0 0 0 0.03125,0 l 6.09375,0 a 0.13496364,0.13496364 0 0 0 0.03125,0 0.13496364,0.13496364 0 0 0 0.03125,0 0.13496364,0.13496364 0 0 0 0.03125,-0.03125 0.13496364,0.13496364 0 0 0 0.03125,-0.03125 0.13496364,0.13496364 0 0 0 0,-0.03125 0.13496364,0.13496364 0 0 0 0,-0.03125 l 0,-0.75 c -1.1e-5,-0.468196 0.14837,-0.892849 0.375,-1.28125 0.222295,-0.391284 0.708073,-0.950359 1.46875,-1.625 l 1.0625,-0.9375 c 1.066588,-0.98231 1.830659,-1.884654 2.28125,-2.75 0.449269,-0.874046 0.687482,-1.87342 0.6875,-2.96875 -1.8e-5,-2.126265 -0.743769,-3.7340276 -2.21875,-4.84375 -1.475197,-1.1210252 -3.60624,-1.6874737 -6.375,-1.6875 z m -3.5625,19.15625 a 0.13496364,0.13496364 0 0 0 -0.03125,0.03125 0.13496364,0.13496364 0 0 0 -0.03125,0.03125 0.13496364,0.13496364 0 0 0 0,0.03125 0.13496364,0.13496364 0 0 0 0,0.03125 l 0,5.84375 a 0.13496364,0.13496364 0 0 0 0,0.03125 0.13496364,0.13496364 0 0 0 0,0.03125 0.13496364,0.13496364 0 0 0 0.03125,0.03125 0.13496364,0.13496364 0 0 0 0.03125,0.03125 0.13496364,0.13496364 0 0 0 0.03125,0 0.13496364,0.13496364 0 0 0 0.03125,0 l 6.09375,0 a 0.13496364,0.13496364 0 0 0 0.03125,0 0.13496364,0.13496364 0 0 0 0.03125,0 0.13496364,0.13496364 0 0 0 0.03125,-0.03125 0.13496364,0.13496364 0 0 0 0.03125,-0.03125 0.13496364,0.13496364 0 0 0 0,-0.03125 0.13496364,0.13496364 0 0 0 0,-0.03125 l 0,-5.84375 a 0.13496364,0.13496364 0 0 0 0,-0.03125 0.13496364,0.13496364 0 0 0 0,-0.03125 0.13496364,0.13496364 0 0 0 -0.03125,-0.03125 0.13496364,0.13496364 0 0 0 -0.03125,-0.03125 0.13496364,0.13496364 0 0 0 -0.03125,0 0.13496364,0.13496364 0 0 0 -0.03125,0 l -6.09375,0 a 0.13496364,0.13496364 0 0 0 -0.03125,0 0.13496364,0.13496364 0 0 0 -0.03125,0 z"
     transform="matrix(6.0207222,0,0,5.8827313,269.4331,38.318597)"
     id="path1554"
     style="font-size:34.15322875999999752px;font-style:normal;font-variant:normal;font-weight:bold;font-stretch:normal;text-align:start;line-height:125%;writing-mode:lr-tb;text-anchor:start;fill:#808080;fill-opacity:1;stroke:none;font-family:Bitstream Vera Sans" /></svg>