<?xml version="1.0" encoding="UTF-8" standalone="no"?>
<!-- Created with Inkscape (http://www.inkscape.org/) -->

<svg
   xmlns:dc="http://purl.org/dc/elements/1.1/"
   xmlns:cc="http://creativecommons.org/ns#"
   xmlns:rdf="http://www.w3.org/1999/02/22-rdf-syntax-ns#"
   xmlns:svg="http://www.w3.org/2000/svg"
   xmlns="http://www.w3.org/2000/svg"
   xmlns:sodipodi="http://sodipodi.sourceforge.net/DTD/sodipodi-0.dtd"
   xmlns:inkscape="http://www.inkscape.org/namespaces/inkscape"
   version="1.1"
   width="100%"
   height="100%"
   viewBox="0 0 288 288"
   id="svg7631"
   xml:space="preserve"
   inkscape:version="0.48.4 r9939"
   sodipodi:docname="image.svg"><sodipodi:namedview
     pagecolor="#ffffff"
     bordercolor="#666666"
     borderopacity="1"
     objecttolerance="10"
     gridtolerance="10"
     guidetolerance="10"
     inkscape:pageopacity="0"
     inkscape:pageshadow="2"
     inkscape:window-width="640"
     inkscape:window-height="480"
     id="namedview8"
     showgrid="false"
     inkscape:zoom="0.81944444"
     inkscape:cx="144"
     inkscape:cy="144"
     inkscape:window-x="75"
     inkscape:window-y="34"
     inkscape:window-maximized="0"
     inkscape:current-layer="g3" /><metadata
     id="metadata13"><rdf:RDF><cc:Work
         rdf:about=""><dc:format>image/svg+xml</dc:format><dc:type
           rdf:resource="http://purl.org/dc/dcmitype/StillImage" /><dc:title /></cc:Work></rdf:RDF></metadata><defs
     id="defs11" /><g
     id="g3"><path
       d="M 9.4,44.4 V 231.9 H 280.9 V 44.4 H 9.4 z m 87.9,153.9 c -24.3,0 -44,-19.7 -44,-44 0,-24.3 19.7,-44 44,-44 24.3,0 44,19.7 44,44 0,24.3 -19.7,44 -44,44 z m 64.7,-53.1 49.1,-81.5 51.7,81.5 H 162 z"
       id="path5"
       style="fill:#231f20" /><path
       d="M 9.4,53.7 V 241.2 H 280.9 V 53.7 H 9.4 z m 87.9,153.9 c -24.3,0 -44,-19.7 -44,-44 0,-24.3 19.7,-44 44,-44 24.3,0 44,19.7 44,44 0,24.3 -19.7,44 -44,44 z m 64.7,-53 49.1,-81.5 51.7,81.5 H 162 z"
       id="path7"
       style="fill:#808080;fill-opacity:1" /></g></svg>