<?xml version="1.0" encoding="UTF-8" standalone="no"?>
<!-- Created with Inkscape (http://www.inkscape.org/) -->

<svg
   xmlns:dc="http://purl.org/dc/elements/1.1/"
   xmlns:cc="http://creativecommons.org/ns#"
   xmlns:rdf="http://www.w3.org/1999/02/22-rdf-syntax-ns#"
   xmlns:svg="http://www.w3.org/2000/svg"
   xmlns="http://www.w3.org/2000/svg"
   xmlns:sodipodi="http://sodipodi.sourceforge.net/DTD/sodipodi-0.dtd"
   xmlns:inkscape="http://www.inkscape.org/namespaces/inkscape"
   version="1.1"
   width="100%"
   height="100%"
   viewBox="0 0 288 288"
   id="svg7631"
   xml:space="preserve"
   inkscape:version="0.48.4 r9939"
   sodipodi:docname="import_export_configs.svg"><sodipodi:namedview
     pagecolor="#ffffff"
     bordercolor="#666666"
     borderopacity="1"
     objecttolerance="10"
     gridtolerance="10"
     guidetolerance="10"
     inkscape:pageopacity="0"
     inkscape:pageshadow="2"
     inkscape:window-width="640"
     inkscape:window-height="480"
     id="namedview12"
     showgrid="false"
     inkscape:zoom="0.81944444"
     inkscape:cx="144"
     inkscape:cy="144"
     inkscape:window-x="75"
     inkscape:window-y="34"
     inkscape:window-maximized="0"
     inkscape:current-layer="g11" /><metadata
     id="metadata21"><rdf:RDF><cc:Work
         rdf:about=""><dc:format>image/svg+xml</dc:format><dc:type
           rdf:resource="http://purl.org/dc/dcmitype/StillImage" /><dc:title /></cc:Work></rdf:RDF></metadata><defs
     id="defs19" /><g
     id="g3"><g
       id="g5"><path
         d="M 95.6,53.2 80.1,11.3 11.3,123.9 135.5,160.5 116.6,109.7 c 26.7,-40.9 85,-27 85,-27 l 17,5.4 C 180.6,34.7 122.5,44.7 95.6,53.2 z"
         id="path7"
         style="fill:#231f20" /><path
         d="M 95.6,63.8 80.1,21.9 11.3,134.6 135.5,171.2 116.6,120.4 c 26.7,-40.9 85,-27 85,-27 l 17,5.4 c -38,-53.4 -96.1,-43.5 -123,-35 z"
         id="path9"
         style="fill:#666666;fill-opacity:1" /></g><g
       id="g11"><path
         d="m 193.3,228.9 15.5,41.8 68.8,-112.6 -124.2,-36.6 18.9,50.8 c -26.7,40.9 -85,27 -85,27 l -17,-5.4 c 38,53.4 96.1,43.4 123,35 z"
         id="path13"
         style="fill:#231f20" /><path
         d="m 193.3,235.8 15.5,41.8 68.8,-112.6 -124.2,-36.6 18.9,50.8 c -26.7,40.9 -85,27 -85,27 l -17,-5.4 c 38,53.4 96.1,43.5 123,35 z"
         id="path15"
         style="fill:#808080;fill-opacity:1" /></g></g></svg>