<?xml version="1.0" encoding="UTF-8" standalone="no"?>
<!-- Created with Inkscape (http://www.inkscape.org/) -->

<svg
   xmlns:dc="http://purl.org/dc/elements/1.1/"
   xmlns:cc="http://creativecommons.org/ns#"
   xmlns:rdf="http://www.w3.org/1999/02/22-rdf-syntax-ns#"
   xmlns:svg="http://www.w3.org/2000/svg"
   xmlns="http://www.w3.org/2000/svg"
   xmlns:sodipodi="http://sodipodi.sourceforge.net/DTD/sodipodi-0.dtd"
   xmlns:inkscape="http://www.inkscape.org/namespaces/inkscape"
   version="1.1"
   width="100%"
   height="100%"
   viewBox="0 0 48 48"
   id="svg7631"
   xml:space="preserve"
   inkscape:version="0.91 r13725"
   sodipodi:docname="inspect-hover.svg"><sodipodi:namedview
     pagecolor="#ffffff"
     bordercolor="#666666"
     borderopacity="1"
     objecttolerance="10"
     gridtolerance="10"
     guidetolerance="10"
     inkscape:pageopacity="0"
     inkscape:pageshadow="2"
     inkscape:window-width="866"
     inkscape:window-height="480"
     id="namedview12"
     showgrid="false"
     inkscape:zoom="4.9166667"
     inkscape:cx="24"
     inkscape:cy="24"
     inkscape:window-x="150"
     inkscape:window-y="68"
     inkscape:window-maximized="0"
     inkscape:current-layer="g5" /><metadata
     id="metadata21"><rdf:RDF><cc:Work
         rdf:about=""><dc:format>image/svg+xml</dc:format><dc:type
           rdf:resource="http://purl.org/dc/dcmitype/StillImage" /><dc:title /></cc:Work></rdf:RDF></metadata><defs
     id="defs19" /><g
     id="g3"><g
       id="g5"><path
         d="m 42.8,38.4 -7.4,-9 c 1.6,-2.6 2.5,-5.6 2.5,-8.8 0,-9.3 -7.5,-16.8 -16.8,-16.8 -9.3,0 -16.8,7.5 -16.8,16.8 0,9.3 7.5,16.8 16.8,16.8 3.7,0 7.1,-1.2 9.9,-3.2 l 6.8,8.3 c 0.6,0.7 1.5,0.8 2.2,0.2 l 2.5,-2.1 c 0.7,-0.5 0.8,-1.5 0.3,-2.2 z M 9,20.6 C 9,13.9 14.4,8.5 21.1,8.5 c 6.7,0 12.1,5.4 12.1,12.1 0,6.7 -5.4,12.1 -12.1,12.1 C 14.4,32.7 9,27.3 9,20.6 z"
         id="path7"
         style="fill:#231f20" /></g><g
       id="g11"><path
         d="m 42.6,40 -7.4,-9 c 1.6,-2.6 2.5,-5.6 2.5,-8.8 C 37.7,13 30.2,5.4 21,5.4 11.8,5.4 4.2,13 4.2,22.2 4.2,31.5 11.7,39 21,39 c 3.7,0 7.1,-1.2 9.9,-3.2 l 6.8,8.3 c 0.6,0.7 1.5,0.8 2.2,0.2 l 2.5,-2.1 c 0.7,-0.5 0.8,-1.5 0.2,-2.2 z M 8.9,22.2 c 0,-6.7 5.4,-12.1 12.1,-12.1 6.7,0 12,5.5 12,12.1 0,6.7 -5.4,12.1 -12.1,12.1 -6.7,0 -12,-5.4 -12,-12.1 z"
         id="path13"
         style="fill:#666666" /></g></g></svg>