<?xml version="1.0" encoding="UTF-8" standalone="no"?>
<!-- Generator: Adobe Illustrator 18.0.0, SVG Export Plug-In . SVG Version: 6.00 Build 0)  -->

<svg
   xmlns:dc="http://purl.org/dc/elements/1.1/"
   xmlns:cc="http://creativecommons.org/ns#"
   xmlns:rdf="http://www.w3.org/1999/02/22-rdf-syntax-ns#"
   xmlns:svg="http://www.w3.org/2000/svg"
   xmlns="http://www.w3.org/2000/svg"
   xmlns:sodipodi="http://sodipodi.sourceforge.net/DTD/sodipodi-0.dtd"
   xmlns:inkscape="http://www.inkscape.org/namespaces/inkscape"
   version="1.1"
   id="svg7631"
   sodipodi:docname="lock-hover.svg"
   sodipodi:version="0.32"
   inkscape:version="0.91 r13725"
   inkscape:output_extension="org.inkscape.output.svg.inkscape"
   x="0px"
   y="0px"
   viewBox="0 0 288 288"
   enable-background="new 0 0 288 288"
   xml:space="preserve"><metadata
     id="metadata43"><rdf:RDF><cc:Work
         rdf:about=""><dc:format>image/svg+xml</dc:format><dc:type
           rdf:resource="http://purl.org/dc/dcmitype/StillImage" /></cc:Work></rdf:RDF></metadata><defs
     id="defs41" /><sodipodi:namedview
     pagecolor="#ffffff"
     bordercolor="#666666"
     borderopacity="1"
     objecttolerance="10"
     gridtolerance="10"
     guidetolerance="10"
     inkscape:pageopacity="0"
     inkscape:pageshadow="2"
     inkscape:window-width="3070"
     inkscape:window-height="1752"
     id="namedview39"
     showgrid="false"
     inkscape:zoom="2.3177389"
     inkscape:cx="-296.05214"
     inkscape:cy="108.61757"
     inkscape:window-x="130"
     inkscape:window-y="48"
     inkscape:window-maximized="1"
     inkscape:current-layer="svg7631" /><path
     inkscape:connector-curvature="0"
     d="m 220.34335,121.87868 0,-51.206948 c 0,-37.638177 -30.62068,-68.2759372 -68.27593,-68.2759372 -37.64671,0 -68.275945,30.6377602 -68.275945,68.2759372 l 0,51.206948 c -18.852686,0 -34.137962,15.28528 -34.137962,34.13796 l 0,85.34492 c 0,18.85269 15.285276,34.13797 34.137962,34.13797 l 136.551875,0 c 18.85271,0 34.13798,-15.28528 34.13798,-34.13797 l 0,-85.34492 c 0,-18.85268 -15.28527,-34.13796 -34.13798,-34.13796 z m -59.74144,82.72803 0,28.22036 c 0,4.71744 -3.81705,8.53449 -8.53449,8.53449 -4.71744,0 -14.84473,-2.01412 -14.84473,-6.73157 l 0,-27.31889 c -5.00922,-2.96734 -5.37936,-9.55332 -5.37936,-15.8043 0,-9.43488 10.79775,-18.42117 20.22409,-18.42117 9.42634,0 17.06898,7.63463 17.06898,17.06897 0,6.25098 -3.52528,11.48477 -8.53449,14.45211 z m 25.60348,-82.72803 -68.27594,0 0,-51.206948 c 0,-18.836158 15.31035,-34.137969 34.13797,-34.137969 18.81909,0 34.13797,15.302345 34.13797,34.137969 z"
     id="path3-3"
     style="fill:#000000;fill-opacity:1"
     sodipodi:nodetypes="cssscssssssccssscssscccsssc" /><path
     inkscape:connector-curvature="0"
     d="m 208.04924,131.24852 0,-51.206944 c 0,-37.638176 -30.62069,-68.275936 -68.27593,-68.275936 -37.64672,0 -68.275957,30.63776 -68.275957,68.275936 l 0,51.206944 c -18.852685,0 -34.137961,15.28527 -34.137961,34.13797 l 0,85.34491 c 0,18.8527 15.285276,34.13797 34.137961,34.13797 l 136.551887,0 c 18.85269,0 34.13797,-15.28527 34.13797,-34.13797 l 0,-85.34491 c 0,-18.8527 -15.28528,-34.13797 -34.13797,-34.13797 z m -59.74144,82.72803 0,28.22036 c 0,4.71744 -3.81706,8.53449 -8.53449,8.53449 -4.71745,0 -8.53449,-3.81705 -8.53449,-8.53449 l 0,-28.22036 c -5.00921,-2.96734 -8.5345,-8.20111 -8.5345,-14.4521 0,-9.43487 7.64265,-17.06898 17.06899,-17.06898 9.42634,0 17.06897,7.63463 17.06897,17.06898 0,6.25099 -3.52527,11.48476 -8.53448,14.4521 z m 25.60346,-82.72803 -68.27593,0 0,-51.206944 c 0,-18.836157 15.31035,-34.137968 34.13798,-34.137968 18.81908,0 34.13795,15.302344 34.13795,34.137968 l 0,51.206944 z"
     id="path3"
     style="fill:#666666;fill-opacity:1" /></svg>