<?xml version="1.0" encoding="UTF-8" standalone="no"?>
<!-- Created with Inkscape (http://www.inkscape.org/) -->

<svg
   xmlns:dc="http://purl.org/dc/elements/1.1/"
   xmlns:cc="http://creativecommons.org/ns#"
   xmlns:rdf="http://www.w3.org/1999/02/22-rdf-syntax-ns#"
   xmlns:svg="http://www.w3.org/2000/svg"
   xmlns="http://www.w3.org/2000/svg"
   xmlns:xlink="http://www.w3.org/1999/xlink"
   xmlns:sodipodi="http://sodipodi.sourceforge.net/DTD/sodipodi-0.dtd"
   xmlns:inkscape="http://www.inkscape.org/namespaces/inkscape"
   version="1.1"
   width="100%"
   height="100%"
   viewBox="0 0 288 288"
   id="svg7631"
   xml:space="preserve"
   inkscape:version="0.48.4 r9939"
   sodipodi:docname="new-project.svg"><sodipodi:namedview
     pagecolor="#ffffff"
     bordercolor="#666666"
     borderopacity="1"
     objecttolerance="10"
     gridtolerance="10"
     guidetolerance="10"
     inkscape:pageopacity="0"
     inkscape:pageshadow="2"
     inkscape:window-width="640"
     inkscape:window-height="480"
     id="namedview10"
     showgrid="false"
     inkscape:zoom="0.81944444"
     inkscape:cx="144"
     inkscape:cy="144"
     inkscape:window-x="636"
     inkscape:window-y="323"
     inkscape:window-maximized="0"
     inkscape:current-layer="g7" /><metadata
     id="metadata17"><rdf:RDF><cc:Work
         rdf:about=""><dc:format>image/svg+xml</dc:format><dc:type
           rdf:resource="http://purl.org/dc/dcmitype/StillImage" /><dc:title /></cc:Work></rdf:RDF></metadata><defs
     id="defs15"><radialGradient
       r="14.375"
       fy="125"
       fx="55"
       cy="125"
       cx="55"
       gradientUnits="userSpaceOnUse"
       id="radialGradient3149"
       xlink:href="#linearGradient12512"
       inkscape:collect="always" /><linearGradient
       id="linearGradient12512"><stop
         id="stop12513"
         offset="0.0000000"
         style="stop-color:#ffffff;stop-opacity:1.0000000;" /><stop
         id="stop12517"
         offset="0.50000000"
         style="stop-color:#fff520;stop-opacity:0.89108908;" /><stop
         id="stop12514"
         offset="1.0000000"
         style="stop-color:#fff300;stop-opacity:0.0000000;" /></linearGradient><radialGradient
       r="14.375"
       fy="125"
       fx="55"
       cy="125"
       cx="55"
       gradientUnits="userSpaceOnUse"
       id="radialGradient3019"
       xlink:href="#linearGradient12512"
       inkscape:collect="always" /></defs><g
     id="g3"><path
       d="m 66.8,122.8 c 0.9,-1.9 2.8,-3 4.8,-3 H 248 V 96.2 C 249,77.9 234.9,73.5 233.2,72.6 h -92 C 134.2,50.7 109.8,49 109.8,49 c 0,0 -39.8,0 -66.7,0 -29,0 -30.9,23.5 -30.9,23.5 l -0.5,152.4 h 5.9 L 66.8,122.8 z"
       id="path5"
       style="fill:#231f20" /><g
       id="g7"><path
         d="m 66.8,130.7 c 0.9,-1.9 2.8,-3 4.8,-3 H 248 v -23.5 c 1,-18.3 -13.1,-22.7 -14.8,-23.6 -1.7,-0.9 -96,0 -96,0 C 135.2,55.2 109.8,57 109.8,57 109.8,57 69.9,57 43,57 14,57 12.1,80.5 12.1,80.5 l -0.5,152.4 h 5.9 L 66.8,130.7 z"
         id="path9"
         style="fill:#666666;fill-opacity:1" /><path
         d="m 22.1,241.8 h 201.4 l 58.1,-95.2 c 2.2,-3.6 -0.4,-8.2 -4.6,-8.2 H 75.1 c -2.1,0 -3.9,1.2 -4.8,3 L 22.1,241.8 z"
         id="path11"
         style="fill:#808080;fill-opacity:1" /><g
         style="display:inline"
         inkscape:label="new"
         id="layer4"
         transform="matrix(5.3730865,0,0,5.3730865,28.354851,20.042013)"><path
           inkscape:export-ydpi="33.852203"
           inkscape:export-xdpi="33.852203"
           inkscape:export-filename="/home/jimmac/ximian_art/icons/nautilus/suse93/stock_new-16.png"
           transform="matrix(0.783292,0,0,0.783292,-6.340883,-86.65168)"
           d="m 69.375,125 c 0,7.93909 -6.435907,14.375 -14.375,14.375 -7.939093,0 -14.375,-6.43591 -14.375,-14.375 0,-7.93909 6.435907,-14.375 14.375,-14.375 7.939093,0 14.375,6.43591 14.375,14.375 z"
           sodipodi:ry="14.375"
           sodipodi:rx="14.375"
           sodipodi:cy="125"
           sodipodi:cx="55"
           id="path12511"
           style="color:#000000;fill:url(#radialGradient3019);fill-opacity:1;fill-rule:nonzero;stroke:none;stroke-width:1.25000024;marker:none;visibility:visible;display:block"
           sodipodi:type="arc" /></g></g></g></svg>