<?xml version="1.0" encoding="UTF-8" standalone="no"?>
<!-- Created with Inkscape (http://www.inkscape.org/) -->

<svg
   xmlns:dc="http://purl.org/dc/elements/1.1/"
   xmlns:cc="http://creativecommons.org/ns#"
   xmlns:rdf="http://www.w3.org/1999/02/22-rdf-syntax-ns#"
   xmlns:svg="http://www.w3.org/2000/svg"
   xmlns="http://www.w3.org/2000/svg"
   xmlns:sodipodi="http://sodipodi.sourceforge.net/DTD/sodipodi-0.dtd"
   xmlns:inkscape="http://www.inkscape.org/namespaces/inkscape"
   version="1.1"
   width="100%"
   height="100%"
   viewBox="0 0 288 288"
   id="svg7631"
   xml:space="preserve"
   inkscape:version="0.48.4 r9939"
   sodipodi:docname="open.svg"><sodipodi:namedview
     pagecolor="#ffffff"
     bordercolor="#666666"
     borderopacity="1"
     objecttolerance="10"
     gridtolerance="10"
     guidetolerance="10"
     inkscape:pageopacity="0"
     inkscape:pageshadow="2"
     inkscape:window-width="640"
     inkscape:window-height="480"
     id="namedview9"
     showgrid="false"
     inkscape:zoom="0.81944444"
     inkscape:cx="144"
     inkscape:cy="144"
     inkscape:window-x="75"
     inkscape:window-y="34"
     inkscape:window-maximized="0"
     inkscape:current-layer="g3" /><metadata
     id="metadata15"><rdf:RDF><cc:Work
         rdf:about=""><dc:format>image/svg+xml</dc:format><dc:type
           rdf:resource="http://purl.org/dc/dcmitype/StillImage" /><dc:title /></cc:Work></rdf:RDF></metadata><defs
     id="defs13" /><g
     id="g3"><path
       d="m 23,241.2 h 199.4 l 57.5,-94.3 c 2.2,-3.5 -0.4,-8.1 -4.5,-8.1 H 75.5 c -2,0 -3.9,1.2 -4.8,3 L 23,241.2 z"
       id="path5"
       style="fill:#808080;fill-opacity:1" /><path
       d="m 232.1,73 c -1.7,-0.9 -95,0 -95,0 -2,-25.2 -27.1,-23.4 -27.1,-23.4 0,0 -39.5,0 -66.1,0 -28.7,0 -30.6,23.3 -30.6,23.3 l -0.5,150.9 h 5.8 L 30.4,199.2 V 96.7 h 197.4 v 23 h 18.8 V 96.4 C 247.7,78.3 233.7,73.9 232.1,73 z"
       id="path7"
       style="fill:#231f20" /><path
       d="m 232.1,81.6 c -1.7,-0.9 -95,0 -95,0 -2,-25.2 -27.1,-23.4 -27.1,-23.4 0,0 -39.5,0 -66.1,0 -28.7,0 -30.6,23.3 -30.6,23.3 l -0.5,150.9 h 5.8 L 30.4,207.8 V 105.2 h 197.4 v 23 h 18.8 V 104.9 C 247.7,86.8 233.7,82.5 232.1,81.6 z"
       id="path9"
       style="fill:#666666;fill-opacity:1" /></g></svg>