<?xml version="1.0" encoding="UTF-8" standalone="no"?>
<!-- Created with Inkscape (http://www.inkscape.org/) -->

<svg
   xmlns:dc="http://purl.org/dc/elements/1.1/"
   xmlns:cc="http://creativecommons.org/ns#"
   xmlns:rdf="http://www.w3.org/1999/02/22-rdf-syntax-ns#"
   xmlns:svg="http://www.w3.org/2000/svg"
   xmlns="http://www.w3.org/2000/svg"
   xmlns:sodipodi="http://sodipodi.sourceforge.net/DTD/sodipodi-0.dtd"
   xmlns:inkscape="http://www.inkscape.org/namespaces/inkscape"
   version="1.1"
   width="100%"
   height="100%"
   viewBox="0 0 288 288"
   id="svg7631"
   xml:space="preserve"
   inkscape:version="0.48.4 r9939"
   sodipodi:docname="preferences-hover.svg"><sodipodi:namedview
     pagecolor="#ffffff"
     bordercolor="#666666"
     borderopacity="1"
     objecttolerance="10"
     gridtolerance="10"
     guidetolerance="10"
     inkscape:pageopacity="0"
     inkscape:pageshadow="2"
     inkscape:window-width="640"
     inkscape:window-height="480"
     id="namedview7"
     showgrid="false"
     inkscape:zoom="0.81944444"
     inkscape:cx="144"
     inkscape:cy="144"
     inkscape:window-x="75"
     inkscape:window-y="34"
     inkscape:window-maximized="0"
     inkscape:current-layer="svg7631" /><metadata
     id="metadata13"><rdf:RDF><cc:Work
         rdf:about=""><dc:format>image/svg+xml</dc:format><dc:type
           rdf:resource="http://purl.org/dc/dcmitype/StillImage" /><dc:title /></cc:Work></rdf:RDF></metadata><defs
     id="defs11" /><path
     d="m 137.75602,7.5552808 c -2.76308,0.1892037 -5.44868,0.6170523 -8.1626,0.9275881 l -0.1857,0 -6.493,35.4331711 c -10.58302,2.410148 -20.53954,6.50035 -29.4967,12.058411 L 64.292335,35.011371 C 56.418902,41.124104 49.25414,48.253187 42.958218,55.974451 l 20.221016,29.496717 c -6.139657,9.382626 -10.75664,20.096232 -13.356979,31.351882 -4.65e-4,0.0526 -4.07e-4,0.17636 0,0.1857 l -35.247706,5.5654 c -0.644373,5.26345 -0.92753,10.70302 -0.92753,16.13969 0,4.44821 0.12263,8.83692 0.556493,13.1715 l 35.247647,6.30749 c 2.506852,12.2403 7.268943,23.67163 13.91354,33.76351 l -20.96309,28.7547 c 6.00372,7.45329 12.934902,14.23927 20.406529,20.22102 l 29.682236,-20.40653 c 10.373566,6.61744 21.953486,11.25771 34.505616,13.54249 l 5.56543,35.06213 c 3.95472,0.36029 8.0103,0.37079 12.0584,0.37079 5.71489,0 11.1738,-0.21662 16.69623,-0.92752 l 6.67852,-35.80421 c 11.91781,-2.96588 23.11338,-8.11091 32.83598,-15.02663 l 28.56912,20.77758 c 7.40885,-6.30335 14.18385,-13.54852 20.03556,-21.33413 l -20.77756,-30.05326 c 5.62684,-9.71787 9.52575,-20.43999 11.50186,-31.9084 l 35.06212,-5.5654 c 0.30775,-3.65891 0.37082,-7.2074 0.37082,-10.9453 0,-6.49576 -0.75506,-12.86485 -1.66968,-19.10799 l -35.61868,-6.49298 c -2.79129,-10.307 -7.37112,-19.923319 -13.17146,-28.569179 L 246.09569,55.78887 C 239.59783,47.842326 232.18554,40.501454 224.01956,34.269238 l -30.2388,20.777567 C 185.08981,49.90685 175.73714,45.962976 165.58267,43.730458 L 160.0172,8.4828108 c -5.06557,-0.5958522 -10.17281,-0.9275881 -15.39761,-0.9275881 -1.41214,5.81e-5 -2.86546,-0.046681 -4.26685,0 -0.68316,0.02334 -1.35924,-0.04087 -2.04064,0 -0.18453,0.011719 -0.37255,-0.011719 -0.55649,0 z m 4.82333,90.1598122 c 0.67779,-0.03506 1.35445,0 2.0407,0 21.95965,0 39.88547,17.925837 39.88547,39.885507 0,21.95965 -17.92582,39.69996 -39.88547,39.69996 -21.9597,0 -39.70001,-17.74031 -39.70001,-39.69996 0,-21.27342 16.64934,-38.819348 37.65931,-39.885507 z"
     id="path3243-4"
     style="color:#000000;fill:#000000;fill-opacity:1;fill-rule:nonzero;stroke:none;stroke-width:0;marker:none;visibility:visible;display:inline;overflow:visible" /><path
     d="m 138.34483,21.153516 c -2.76308,0.189196 -5.44868,0.61705 -8.1626,0.927587 l -0.1857,0 -6.493,35.433166 c -10.58302,2.410152 -20.53954,6.500357 -29.496705,12.058412 L 64.881145,48.609599 c -7.873436,6.112738 -15.0382,13.241824 -21.33412,20.963082 l 20.221016,29.496713 c -6.139662,9.382626 -10.756639,20.096226 -13.356981,31.351886 -4.67e-4,0.0526 -4.09e-4,0.17636 0,0.1857 l -35.247706,5.5654 c -0.644378,5.26346 -0.92753,10.70303 -0.92753,16.1397 0,4.44821 0.122628,8.83692 0.556496,13.1715 l 35.247647,6.30749 c 2.506852,12.2403 7.268939,23.67163 13.913533,33.76351 l -20.963086,28.7547 c 6.003717,7.45329 12.934905,14.23926 20.40653,20.22102 l 29.682237,-20.40653 c 10.373579,6.61744 21.953489,11.2577 34.505619,13.54249 l 5.56543,35.06213 c 3.95472,0.36029 8.0103,0.37079 12.0584,0.37079 5.71489,0 11.1738,-0.21662 16.69623,-0.92752 l 6.67852,-35.80421 c 11.91781,-2.96588 23.11338,-8.11091 32.83598,-15.02663 l 28.56912,20.77758 c 7.40885,-6.30335 14.18385,-13.54852 20.03556,-21.33413 l -20.77756,-30.05326 c 5.62684,-9.71787 9.52575,-20.43999 11.50186,-31.9084 l 35.06212,-5.56541 c 0.30775,-3.6589 0.37082,-7.20739 0.37082,-10.9453 0,-6.49575 -0.75505,-12.86484 -1.66967,-19.10798 l -35.61869,-6.49299 c -2.79129,-10.307 -7.37112,-19.92332 -13.17146,-28.56918 L 246.6845,69.387104 C 240.18664,61.440561 232.77435,54.099681 224.60837,47.867469 l -30.2388,20.777565 c -8.69095,-5.139953 -18.04362,-9.083823 -28.19809,-11.316342 l -5.56547,-35.247647 c -5.06557,-0.595851 -10.17281,-0.927587 -15.39761,-0.927587 -1.41214,5.8e-5 -2.86545,-0.04672 -4.26685,0 -0.68316,0.02336 -1.35924,-0.04088 -2.04064,0 -0.18453,0.01169 -0.37255,-0.01168 -0.55649,0 z m 4.82333,90.159804 c 0.67779,-0.0351 1.35445,0 2.0407,0 21.95965,0 39.88548,17.92584 39.88548,39.88552 0,21.95965 -17.92583,39.69996 -39.88548,39.69996 -21.9597,0 -39.70001,-17.74031 -39.70001,-39.69996 0,-21.27343 16.64934,-38.81936 37.65931,-39.88552 z"
     id="path3243"
     style="color:#000000;fill:#666666;fill-opacity:1;fill-rule:nonzero;stroke:none;stroke-width:0;marker:none;visibility:visible;display:inline;overflow:visible" /></svg>