<?xml version="1.0" encoding="UTF-8" standalone="no"?>
<!-- Created with Inkscape (http://www.inkscape.org/) -->

<svg
   xmlns:dc="http://purl.org/dc/elements/1.1/"
   xmlns:cc="http://creativecommons.org/ns#"
   xmlns:rdf="http://www.w3.org/1999/02/22-rdf-syntax-ns#"
   xmlns:svg="http://www.w3.org/2000/svg"
   xmlns="http://www.w3.org/2000/svg"
   version="1.1"
   width="100%"
   height="100%"
   viewBox="0 0 288 288"
   id="svg7631"
   xml:space="preserve"><metadata
     id="metadata13"><rdf:RDF><cc:Work
         rdf:about=""><dc:format>image/svg+xml</dc:format><dc:type
           rdf:resource="http://purl.org/dc/dcmitype/StillImage" /><dc:title></dc:title></cc:Work></rdf:RDF></metadata><defs
     id="defs11" /><g
     id="g3"><path
       d="m 278.3,233.7 h -59.9 v -20 h 59.9 v 20 z m -79.9,0 h -59.9 v -20 h 59.9 v 20 z m -79.9,0 H 58.6 v -20 h 59.9 v 20 z m -79.9,0 h -30 v -49.9 h 20 l 0,30 h 10 v 19.9 z m 239.7,-20 h -20 v -59.9 h 20 v 59.9 z M 28.7,163.8 h -20 v -59.9 h 20 v 59.9 z m 249.6,-30 h -20 V 73.9 h 20 v 59.9 z M 28.7,83.9 H 8.7 V 34 h 29.9 v 20 h -10 V 83.9 z M 278.3,54 H 218.4 V 34 h 59.9 v 20 z m -79.9,0 H 138.5 V 34 h 59.9 v 20 z m -79.9,0 H 58.6 V 34 h 59.9 v 20 z"
       id="path5"
       style="fill:#231f20" /><path
       d="m 278.3,246.6 h -59.9 v -20 h 59.9 v 20 z m -79.9,0 h -59.9 v -20 h 59.9 v 20 z m -79.9,0 H 58.6 v -20 h 59.9 v 20 z m -79.9,0 h -30 v -49.9 h 20 l 0,30 h 10 v 19.9 z m 239.7,-20 h -20 v -59.9 h 20 v 59.9 z M 28.7,176.7 h -20 v -59.9 h 20 v 59.9 z m 249.6,-30 h -20 V 86.8 h 20 v 59.9 z M 28.7,96.8 H 8.7 V 46.9 h 29.9 v 20 h -10 V 96.8 z M 278.3,66.9 h -59.9 v -20 h 59.9 v 20 z m -79.9,0 h -59.9 v -20 h 59.9 v 20 z m -79.9,0 H 58.6 v -20 h 59.9 v 20 z"
       id="path7"
       style="fill:#808080" /></g></svg>