<?xml version="1.0" encoding="UTF-8" standalone="no"?>
<!-- Created with Inkscape (http://www.inkscape.org/) -->

<svg
   xmlns:dc="http://purl.org/dc/elements/1.1/"
   xmlns:cc="http://creativecommons.org/ns#"
   xmlns:rdf="http://www.w3.org/1999/02/22-rdf-syntax-ns#"
   xmlns:svg="http://www.w3.org/2000/svg"
   xmlns="http://www.w3.org/2000/svg"
   xmlns:sodipodi="http://sodipodi.sourceforge.net/DTD/sodipodi-0.dtd"
   xmlns:inkscape="http://www.inkscape.org/namespaces/inkscape"
   version="1.1"
   width="100%"
   height="100%"
   viewBox="0 0 288 288"
   id="svg7631"
   xml:space="preserve"
   inkscape:version="0.48.4 r9939"
   sodipodi:docname="reload-hover.svg"><sodipodi:namedview
     pagecolor="#ffffff"
     bordercolor="#666666"
     borderopacity="1"
     objecttolerance="10"
     gridtolerance="10"
     guidetolerance="10"
     inkscape:pageopacity="0"
     inkscape:pageshadow="2"
     inkscape:window-width="640"
     inkscape:window-height="480"
     id="namedview8"
     showgrid="false"
     inkscape:zoom="0.81944444"
     inkscape:cx="144"
     inkscape:cy="144"
     inkscape:window-x="75"
     inkscape:window-y="34"
     inkscape:window-maximized="0"
     inkscape:current-layer="g3" /><metadata
     id="metadata13"><rdf:RDF><cc:Work
         rdf:about=""><dc:format>image/svg+xml</dc:format><dc:type
           rdf:resource="http://purl.org/dc/dcmitype/StillImage" /><dc:title /></cc:Work></rdf:RDF></metadata><defs
     id="defs11" /><g
     id="g3"><path
       d="m 142.8,217.1 c -39.7,0 -71.9,-32.2 -71.9,-71.9 0,-39.7 32.2,-71.9 71.9,-71.9 14.6,0 28,4.6 39.4,12.1 L 167.9,115.8 270.6,103.3 221.8,5.1 206.4,36.3 C 187.7,25.3 166,18.9 142.8,18.9 73,18.9 16.4,75.5 16.4,145.3 c 0,69.8 56.6,126.4 126.4,126.4 43.5,0 81.9,-22 104.6,-55.5 l -43.3,-33.6 c -12.5,20.7 -35.2,34.5 -61.3,34.5 z"
       id="path5"
       style="fill:#231f20" /><path
       d="m 142.8,227.1 c -39.7,0 -71.9,-32.2 -71.9,-71.9 0,-39.7 32.2,-71.9 71.9,-71.9 14.6,0 28,4.6 39.4,12.1 l -15.6,31.8 104,-13.9 L 221.8,15 206.4,46.2 C 187.7,35.2 166,28.8 142.8,28.8 73,28.8 16.4,85.4 16.4,155.2 c 0,69.8 56.6,126.4 126.4,126.4 43.5,0 81.9,-22 104.6,-55.5 l -43.3,-33.6 c -12.5,20.7 -35.2,34.6 -61.3,34.6 z"
       id="path7"
       style="fill:#666666" /></g></svg>