<?xml version="1.0" encoding="UTF-8" standalone="no"?>
<!-- Created with Inkscape (http://www.inkscape.org/) -->

<svg
   xmlns:dc="http://purl.org/dc/elements/1.1/"
   xmlns:cc="http://creativecommons.org/ns#"
   xmlns:rdf="http://www.w3.org/1999/02/22-rdf-syntax-ns#"
   xmlns:svg="http://www.w3.org/2000/svg"
   xmlns="http://www.w3.org/2000/svg"
   xmlns:sodipodi="http://sodipodi.sourceforge.net/DTD/sodipodi-0.dtd"
   xmlns:inkscape="http://www.inkscape.org/namespaces/inkscape"
   version="1.1"
   width="100%"
   height="100%"
   viewBox="0 0 288 288"
   id="svg7631"
   xml:space="preserve"
   inkscape:version="0.48.4 r9939"
   sodipodi:docname="router.svg"><sodipodi:namedview
     pagecolor="#ffffff"
     bordercolor="#666666"
     borderopacity="1"
     objecttolerance="10"
     gridtolerance="10"
     guidetolerance="10"
     inkscape:pageopacity="0"
     inkscape:pageshadow="2"
     inkscape:window-width="640"
     inkscape:window-height="480"
     id="namedview9"
     showgrid="false"
     inkscape:zoom="0.81944444"
     inkscape:cx="144"
     inkscape:cy="144"
     inkscape:window-x="75"
     inkscape:window-y="34"
     inkscape:window-maximized="0"
     inkscape:current-layer="g3" /><metadata
     id="metadata15"><rdf:RDF><cc:Work
         rdf:about=""><dc:format>image/svg+xml</dc:format><dc:type
           rdf:resource="http://purl.org/dc/dcmitype/StillImage" /><dc:title /></cc:Work></rdf:RDF></metadata><defs
     id="defs13" /><g
     id="g3"><path
       d="M 143.7,23.4 C 74.2,23.4 17.9,79.7 17.9,149.2 17.9,218.7 74.2,275 143.7,275 213.2,275 269.5,218.7 269.5,149.2 269.5,79.7 213.2,23.4 143.7,23.4 z m -0.3,21.5 37.2,37.2 h -22.3 v 44.7 h -29.8 l 0.1,-44.7 H 106.1 L 143.4,44.9 z M 36.3,166.9 V 137.1 H 81 V 114.8 L 118.2,152 81,189.3 v -22.5 l -44.7,0.1 z m 107.1,92.2 -37.2,-37.2 h 22.5 l -0.1,-44.7 h 29.8 v 44.7 h 22.3 l -37.3,37.2 z m 62.5,-92.3 v 22.5 L 168.6,152 205.8,114.8 v 22.3 h 44.7 v 29.8 l -44.6,-0.1 z"
       id="path5"
       style="fill:#808080;fill-opacity:1" /><g
       id="g7"><path
         d="m 143.9,23.1 c 68.2,0 123.5,54.5 125.2,122.2 0.1,-2.1 0.3,-4.3 0.3,-6.4 0,-69.5 -56.3,-125.8 -125.8,-125.8 -69.5,0 -125.7,56.3 -125.7,125.8 0,4.8 0.3,9.6 0.9,14.3 -0.1,-1.6 -0.2,-3.1 -0.2,-4.7 0,-69.3 56.1,-125.4 125.3,-125.4 z"
         id="path9" /></g></g></svg>