<?xml version="1.0" encoding="UTF-8" standalone="no"?>
<!-- Created with Inkscape (http://www.inkscape.org/) -->

<svg
   xmlns:dc="http://purl.org/dc/elements/1.1/"
   xmlns:cc="http://creativecommons.org/ns#"
   xmlns:rdf="http://www.w3.org/1999/02/22-rdf-syntax-ns#"
   xmlns:svg="http://www.w3.org/2000/svg"
   xmlns="http://www.w3.org/2000/svg"
   xmlns:xlink="http://www.w3.org/1999/xlink"
   xmlns:sodipodi="http://sodipodi.sourceforge.net/DTD/sodipodi-0.dtd"
   xmlns:inkscape="http://www.inkscape.org/namespaces/inkscape"
   version="1.1"
   width="100%"
   height="100%"
   viewBox="0 0 288 288"
   id="svg7631"
   xml:space="preserve"
   inkscape:version="0.48.4 r9939"
   sodipodi:docname="save-as-project.svg"><sodipodi:namedview
     pagecolor="#ffffff"
     bordercolor="#666666"
     borderopacity="1"
     objecttolerance="10"
     gridtolerance="10"
     guidetolerance="10"
     inkscape:pageopacity="0"
     inkscape:pageshadow="2"
     inkscape:window-width="640"
     inkscape:window-height="480"
     id="namedview26"
     showgrid="false"
     inkscape:zoom="0.81944444"
     inkscape:cx="144"
     inkscape:cy="144"
     inkscape:window-x="75"
     inkscape:window-y="34"
     inkscape:window-maximized="0"
     inkscape:current-layer="svg7631" /><metadata
     id="metadata33"><rdf:RDF><cc:Work
         rdf:about=""><dc:format>image/svg+xml</dc:format><dc:type
           rdf:resource="http://purl.org/dc/dcmitype/StillImage" /><dc:title /></cc:Work></rdf:RDF></metadata><defs
     id="defs31"><radialGradient
       cx="55"
       cy="125"
       r="14.375"
       fx="55"
       fy="125"
       id="radialGradient278"
       xlink:href="#linearGradient12512"
       gradientUnits="userSpaceOnUse" /><linearGradient
       id="linearGradient12512"><stop
         id="stop12513"
         style="stop-color:#ffffff;stop-opacity:1"
         offset="0" /><stop
         id="stop12517"
         style="stop-color:#fff520;stop-opacity:0.89108908"
         offset="0.5" /><stop
         id="stop12514"
         style="stop-color:#fff300;stop-opacity:0"
         offset="1" /></linearGradient><radialGradient
       cx="55"
       cy="125"
       r="14.375"
       fx="55"
       fy="125"
       id="radialGradient3149"
       xlink:href="#linearGradient12512"
       gradientUnits="userSpaceOnUse" /></defs><rect
     width="4.0999999"
     height="33"
     x="187.8"
     y="230.10001"
     id="rect3"
     style="fill:#cdcdcd" /><rect
     width="4.0999999"
     height="33"
     x="199.7"
     y="230.10001"
     id="rect5"
     style="fill:#cdcdcd" /><rect
     width="4.0999999"
     height="33"
     x="211.2"
     y="230.10001"
     id="rect7"
     style="fill:#cdcdcd" /><rect
     width="4.0999999"
     height="33"
     x="222.8"
     y="230.10001"
     id="rect9"
     style="fill:#cdcdcd" /><rect
     width="4.0999999"
     height="33"
     x="234.3"
     y="230.10001"
     id="rect11"
     style="fill:#cdcdcd" /><g
     id="g13"><path
       d="M 154.6,55.5 182.4,42 162.9,131.2 121.1,91.5 117,73.7 C 100.9,-24.5 9.7,63.9 9.7,63.9 82.1,-47.9 145.2,38.4 154.6,55.5 z"
       id="path15"
       style="fill:#231f20" /><g
       id="g17"><polygon
         points="62.3,68.7 106.3,68.7 107.3,78.4 60.2,79.6 "
         id="polygon19"
         style="fill:#231f20" /><path
         d="m 187.3,77.4 1.1,-7.9 h 57.7 l 0.6,10.4 c 0,0 -59.9,-2.4 -59.4,-2.5 z"
         id="path21"
         style="fill:#231f20" /></g></g><path
     d="M 154.6,67.6 182.4,54.1 162.9,143.3 83.3,102.1 117,85.8 C 100.9,-12.3 9.7,76.1 9.7,76.1 82.1,-35.7 145.2,50.5 154.6,67.6 z"
     id="path23"
     style="fill:#666666;fill-opacity:1" /><path
     d="m 246.6,77.4 -59.2,0 -19.8,78.4 -101.1,-54.4 40.9,-19.5 c -0.4,-2.5 0.5,-2.4 -0.5,-4.6 L 60.6,77.5 39.8,230.8 H 268 L 246.6,77.4 z m -93.1,132.7 c -48.3,0 -87.5,-25.2 -87.5,-56.2 0,-1.7 0.2,-3.3 0.4,-4.9 3.9,28.7 41.4,51.3 87.1,51.3 45.7,0 83.2,-22.6 87.1,-51.3 0.2,1.6 0.4,3.3 0.4,4.9 -0.1,31 -39.2,56.2 -87.5,56.2 z"
     id="path25"
     style="fill:#808080;fill-opacity:1" /><path
     d="M 258.1,221.4 H 49 c -5.5,0 -9.9,4.4 -9.9,9.9 v 29.9 c 0,5.5 4.4,9.9 9.9,9.9 h 209.1 c 5.5,0 9.9,-4.4 9.9,-9.9 v -29.9 c 0,-5.5 -4.4,-9.9 -9.9,-9.9 z"
     id="path27"
     style="fill:#666666;fill-opacity:1" /><g
     transform="matrix(5.3730865,0,0,5.3730865,33.091853,7.0000142)"
     id="layer4"
     style="display:inline"><path
       d="m 69.375,125 a 14.375,14.375 0 1 1 -28.75,0 14.375,14.375 0 1 1 28.75,0 z"
       transform="matrix(0.783292,0,0,0.783292,-6.340883,-86.65168)"
       id="path12511"
       style="color:#000000;fill:url(#radialGradient3149);fill-opacity:1;fill-rule:nonzero;stroke:none;stroke-width:1.25000024;marker:none;visibility:visible;display:block" /></g></svg>