<?xml version="1.0" encoding="UTF-8" standalone="no"?>
<!-- Created with Inkscape (http://www.inkscape.org/) -->

<svg
   xmlns:dc="http://purl.org/dc/elements/1.1/"
   xmlns:cc="http://creativecommons.org/ns#"
   xmlns:rdf="http://www.w3.org/1999/02/22-rdf-syntax-ns#"
   xmlns:svg="http://www.w3.org/2000/svg"
   xmlns="http://www.w3.org/2000/svg"
   xmlns:sodipodi="http://sodipodi.sourceforge.net/DTD/sodipodi-0.dtd"
   xmlns:inkscape="http://www.inkscape.org/namespaces/inkscape"
   version="1.1"
   width="100%"
   height="100%"
   viewBox="0 0 288 288"
   id="svg7631"
   xml:space="preserve"
   inkscape:version="0.48.4 r9939"
   sodipodi:docname="show-interface-names-hover.svg"><sodipodi:namedview
     pagecolor="#ffffff"
     bordercolor="#666666"
     borderopacity="1"
     objecttolerance="10"
     gridtolerance="10"
     guidetolerance="10"
     inkscape:pageopacity="0"
     inkscape:pageshadow="2"
     inkscape:window-width="824"
     inkscape:window-height="680"
     id="namedview13"
     showgrid="false"
     inkscape:zoom="0.81944444"
     inkscape:cx="144"
     inkscape:cy="144"
     inkscape:window-x="434"
     inkscape:window-y="163"
     inkscape:window-maximized="0"
     inkscape:current-layer="g15" /><metadata
     id="metadata23"><rdf:RDF><cc:Work
         rdf:about=""><dc:format>image/svg+xml</dc:format><dc:type
           rdf:resource="http://purl.org/dc/dcmitype/StillImage" /><dc:title /></cc:Work></rdf:RDF></metadata><defs
     id="defs21" /><g
     id="g3"><rect
       width="245.3"
       height="17.799999"
       x="20.6"
       y="14.9"
       id="rect5"
       style="fill:#231f20" /><g
       id="g7"><path
         d="m 52.2,92 c 0,6.7 4.5,9.8 9.7,9.8 7.4,0 12.1,-4.7 13.7,-9.5 0.4,-1.1 0.6,-2.2 0.6,-3.3 V 79.2 C 65,79 52.2,81 52.2,92 z"
         id="path9"
         style="fill:#666666" /><path
         d="m 72.8,199 c -7,0 -13.6,4.8 -15.7,12.6 -0.2,1.2 -0.6,2.6 -0.6,4.2 V 226 c 0,1.3 0.2,2.6 0.5,3.7 2,7.1 8,12.1 15.5,12.1 10.8,0 17.2,-8.8 17.2,-21.8 0,-11.2 -5.9,-21 -16.9,-21 z"
         id="path11"
         style="fill:#666666" /><path
         d="m 207.2,235.5 0,0 -44.7,-38.6 -10.3,11.9 -54.5,-47.1 37.4,-43.2 17.2,14.9 34.9,-0.5 c 5.7,0 10.3,4.5 10.4,10.1 l 0.1,4.1 c 0,2.8 -1,5.3 -2.9,7.3 -1.9,2 -4.5,3.1 -7.2,3.1 l -7.3,0.1 9.4,8.1 -9.9,11.4 46.5,40.2 c 22.9,20.5 34.2,30.7 39.8,35.8 V 26.3 H 20.6 v 245.4 h 226.8 c -9.5,-8.6 -28.2,-25.4 -35.6,-32 -2,-1.8 -3.5,-3.1 -4.6,-4.2 z M 218.4,50.3 c 6.1,0 11.5,1.5 14.3,2.9 l -2.3,8 c -2.5,-1.4 -6.3,-2.7 -11.9,-2.7 -13,0 -20,9.6 -20,21.4 0,13.1 8.4,21.2 19.7,21.2 5.9,0 9.7,-1.5 12.6,-2.8 l 1.8,7.7 c -2.7,1.4 -8.7,3.4 -16.3,3.4 -17.1,0 -28.2,-11.7 -28.2,-29 C 188,62.9 199.9,50.3 218.4,50.3 z M 63.1,57.8 c -5.3,0 -10.8,1.6 -14.8,4.2 L 46,55.2 c 4.7,-3 11.5,-5 18.6,-5 17.4,0 21.6,11.8 21.6,23.2 v 21.2 c 0,4.9 0.2,9.7 0.9,13.6 h -9.4 l -0.8,-7.1 h -0.4 c -3.2,4.4 -9.3,8.4 -17.3,8.4 -11.5,0 -17.3,-8.1 -17.3,-16.3 C 41.9,79.5 54.1,72 76,72.1 V 70.9 C 76,66.2 74.7,57.8 63.1,57.8 z m 11.5,192.3 c -8.2,0 -14.8,-3.2 -19,-10.7 h -0.4 l -0.5,9.4 h -8.9 c 0.2,-3.9 0.5,-9.6 0.5,-14.6 v -68.5 h 10.2 v 35.6 h 0.2 c 3.6,-6.3 10.2,-10.4 19.3,-10.4 14.1,0 24,11.7 23.9,28.9 0.1,20.2 -12.7,30.3 -25.3,30.3 z"
         id="path13"
         style="fill:#666666" /></g><g
       id="g15"><path
         d="m 219.1,221.6 -50.6,-43.8 9.9,-11.4 -19.2,-16.6 28.2,-0.4 c 1.3,0 2.3,-1.1 2.3,-2.3 l -0.1,-4 c 0,-1.3 -1.1,-2.3 -2.3,-2.3 l -37.9,0.5 -13.5,-11.6 -27,31.2 42.4,36.7 10.3,-11.9 50.7,43.8 c 0,0 45,40.4 46.6,42.1 l 7,0 0,-7.8 c -1.6,-1.7 -46.6,-42.1 -46.8,-42.2 z"
         id="path17"
         style="fill:#808080" /></g></g></svg>