<?xml version="1.0" encoding="UTF-8" standalone="no"?>
<!-- Created with Inkscape (http://www.inkscape.org/) -->

<svg
   xmlns:dc="http://purl.org/dc/elements/1.1/"
   xmlns:cc="http://creativecommons.org/ns#"
   xmlns:rdf="http://www.w3.org/1999/02/22-rdf-syntax-ns#"
   xmlns:svg="http://www.w3.org/2000/svg"
   xmlns="http://www.w3.org/2000/svg"
   xmlns:sodipodi="http://sodipodi.sourceforge.net/DTD/sodipodi-0.dtd"
   xmlns:inkscape="http://www.inkscape.org/namespaces/inkscape"
   version="1.1"
   width="100%"
   height="100%"
   viewBox="0 0 288 288"
   id="svg7631"
   xml:space="preserve"
   inkscape:version="0.48.4 r9939"
   sodipodi:docname="snapshot.svg"><sodipodi:namedview
     pagecolor="#ffffff"
     bordercolor="#666666"
     borderopacity="1"
     objecttolerance="10"
     gridtolerance="10"
     guidetolerance="10"
     inkscape:pageopacity="0"
     inkscape:pageshadow="2"
     inkscape:window-width="1134"
     inkscape:window-height="628"
     id="namedview12"
     showgrid="false"
     inkscape:zoom="0.81944444"
     inkscape:cx="144"
     inkscape:cy="144"
     inkscape:window-x="75"
     inkscape:window-y="34"
     inkscape:window-maximized="0"
     inkscape:current-layer="g11" /><metadata
     id="metadata21"><rdf:RDF><cc:Work
         rdf:about=""><dc:format>image/svg+xml</dc:format><dc:type
           rdf:resource="http://purl.org/dc/dcmitype/StillImage" /><dc:title /></cc:Work></rdf:RDF></metadata><defs
     id="defs19" /><g
     id="g3"><g
       id="g5"><path
         d="M 144.5,11 C 74.3,11 17.4,67.9 17.4,138.2 c 0,70.2 56.9,127.2 127.2,127.2 70.2,0 127.2,-56.9 127.2,-127.2 C 271.7,67.9 214.8,11 144.5,11 z m 0,224.7 c -53.9,0 -97.6,-43.7 -97.6,-97.6 0,-53.9 43.7,-97.6 97.6,-97.6 53.9,0 97.6,43.7 97.6,97.6 0,54 -43.7,97.6 -97.6,97.6 z"
         id="path7"
         style="fill:#231f20" /><path
         d="M 189.6,177.2 155,142.5 v -68 C 155,68.2 149.8,63 143.5,63 137.2,63 132,68.2 132,74.5 v 72.9 c 0,0.2 0.1,0.3 0.1,0.5 0,2.6 1,5.3 3,7.2 l 0.2,0.2 c 0.1,0.1 0.2,0.2 0.3,0.3 l 37.8,37.8 c 4,4 10.5,4 14.5,0 l 1.8,-1.8 c 3.9,-3.9 3.9,-10.5 -0.1,-14.4 z"
         id="path9"
         style="fill:#231f20" /></g><g
       id="g11"><path
         d="m 144.5,23.3 c -70.2,0 -127.2,56.9 -127.2,127.2 0,70.2 56.9,127.2 127.2,127.2 70.2,0 127.2,-56.9 127.2,-127.2 0,-70.2 -56.9,-127.2 -127.2,-127.2 z m 0,224.8 C 90.6,248.1 46.9,204.4 46.9,150.5 47,96.6 90.7,53 144.5,53 c 53.9,0 97.6,43.7 97.6,97.6 0,53.8 -43.7,97.5 -97.6,97.5 z"
         id="path13"
         style="fill:#808080;fill-opacity:1" /><path
         d="M 189.6,189.5 155,154.9 V 86.8 c 0,-6.3 -5.2,-11.5 -11.5,-11.5 -6.3,0 -11.5,5.2 -11.5,11.5 v 72.9 c 0,0.2 0.1,0.3 0.1,0.5 0,2.6 1,5.3 3,7.2 l 0.2,0.2 c 0.1,0.1 0.2,0.2 0.3,0.3 l 37.8,37.8 c 4,4 10.5,4 14.5,0 l 1.8,-1.8 c 3.9,-3.9 3.9,-10.4 -0.1,-14.4 z"
         id="path15"
         style="fill:#808080;fill-opacity:1" /></g></g></svg>