<?xml version="1.0" encoding="UTF-8" standalone="no"?>
<!-- Created with Inkscape (http://www.inkscape.org/) -->

<svg
   xmlns:dc="http://purl.org/dc/elements/1.1/"
   xmlns:cc="http://creativecommons.org/ns#"
   xmlns:rdf="http://www.w3.org/1999/02/22-rdf-syntax-ns#"
   xmlns:svg="http://www.w3.org/2000/svg"
   xmlns="http://www.w3.org/2000/svg"
   xmlns:sodipodi="http://sodipodi.sourceforge.net/DTD/sodipodi-0.dtd"
   xmlns:inkscape="http://www.inkscape.org/namespaces/inkscape"
   version="1.1"
   width="100%"
   height="100%"
   viewBox="0 0 288 288"
   id="svg7631"
   xml:space="preserve"
   inkscape:version="0.48.4 r9939"
   sodipodi:docname="switch.svg"><sodipodi:namedview
     pagecolor="#ffffff"
     bordercolor="#666666"
     borderopacity="1"
     objecttolerance="10"
     gridtolerance="10"
     guidetolerance="10"
     inkscape:pageopacity="0"
     inkscape:pageshadow="2"
     inkscape:window-width="640"
     inkscape:window-height="480"
     id="namedview12"
     showgrid="false"
     inkscape:zoom="0.81944444"
     inkscape:cx="144"
     inkscape:cy="144"
     inkscape:window-x="75"
     inkscape:window-y="34"
     inkscape:window-maximized="0"
     inkscape:current-layer="g19" /><metadata
     id="metadata65"><rdf:RDF><cc:Work
         rdf:about=""><dc:format>image/svg+xml</dc:format><dc:type
           rdf:resource="http://purl.org/dc/dcmitype/StillImage" /><dc:title /></cc:Work></rdf:RDF></metadata><defs
     id="defs63" /><g
     transform="translate(-113.49153,18.305085)"
     id="g11"><g
       id="g13"><polygon
         points="277.1,52.4 240.1,22.3 240.1,38.4 195.6,38.4 195.6,66.4 240.1,66.3 240.1,80.4 "
         transform="matrix(2.1538462,0,0,2.1538462,-204.40874,-32.442633)"
         id="polygon15"
         style="fill:#231f20" /><polygon
         points="152.3,92.2 189.3,62.1 189.3,78.2 233.8,78.2 233.8,106.2 189.3,106.1 189.3,120.2 "
         transform="matrix(2.1538462,0,0,2.1538462,-204.40874,-32.442633)"
         id="polygon17"
         style="fill:#231f20" /></g><g
       transform="matrix(2.1538462,0,0,2.1538462,-204.40874,-32.442633)"
       id="g19"><polygon
         points="277.1,56.9 240.1,26.8 240.1,42.9 195.6,42.9 195.6,70.9 240.1,70.8 240.1,84.9 "
         id="polygon21"
         style="fill:#808080;fill-opacity:1" /><polygon
         points="152.3,96.7 189.3,66.5 189.3,82.6 233.8,82.6 233.8,110.7 189.3,110.6 189.3,124.6 "
         id="polygon23"
         style="fill:#666666;fill-opacity:1" /></g></g></svg>