<?xml version="1.0" encoding="UTF-8" standalone="no"?>
<!-- Created with Inkscape (http://www.inkscape.org/) -->

<svg
   xmlns:dc="http://purl.org/dc/elements/1.1/"
   xmlns:cc="http://creativecommons.org/ns#"
   xmlns:rdf="http://www.w3.org/1999/02/22-rdf-syntax-ns#"
   xmlns:svg="http://www.w3.org/2000/svg"
   xmlns="http://www.w3.org/2000/svg"
   xmlns:sodipodi="http://sodipodi.sourceforge.net/DTD/sodipodi-0.dtd"
   xmlns:inkscape="http://www.inkscape.org/namespaces/inkscape"
   version="1.1"
   width="100%"
   height="100%"
   viewBox="0 0 48 48"
   id="svg7631"
   xml:space="preserve"
   inkscape:version="0.48.4 r9939"
   sodipodi:docname="zoom-out.svg"><sodipodi:namedview
     pagecolor="#ffffff"
     bordercolor="#666666"
     borderopacity="1"
     objecttolerance="10"
     gridtolerance="10"
     guidetolerance="10"
     inkscape:pageopacity="0"
     inkscape:pageshadow="2"
     inkscape:window-width="640"
     inkscape:window-height="480"
     id="namedview12"
     showgrid="false"
     inkscape:zoom="4.9166667"
     inkscape:cx="24"
     inkscape:cy="24"
     inkscape:window-x="75"
     inkscape:window-y="34"
     inkscape:window-maximized="0"
     inkscape:current-layer="g11" /><metadata
     id="metadata21"><rdf:RDF><cc:Work
         rdf:about=""><dc:format>image/svg+xml</dc:format><dc:type
           rdf:resource="http://purl.org/dc/dcmitype/StillImage" /><dc:title /></cc:Work></rdf:RDF></metadata><defs
     id="defs19" /><g
     id="g3"><g
       id="g5"><path
         d="m 42.7,38.5 -7.4,-9 c 1.6,-2.6 2.5,-5.6 2.5,-8.8 C 37.8,11.4 30.3,3.9 21,3.9 11.7,3.9 4.1,11.3 4.1,20.6 c 0,9.3 7.5,16.8 16.8,16.8 3.7,0 7.1,-1.2 9.9,-3.3 l 6.9,8.4 c 0.6,0.7 1.6,0.8 2.2,0.2 l 2.5,-2.1 c 0.7,-0.5 0.8,-1.5 0.3,-2.1 z M 8.8,20.6 C 8.8,13.9 14.2,8.5 20.9,8.5 27.6,8.5 33,13.9 33,20.6 33,27.3 27.6,32.7 20.9,32.7 14.2,32.7 8.8,27.3 8.8,20.6 z"
         id="path7"
         style="fill:#231f20" /><rect
         width="13.4"
         height="4.3000002"
         x="14.5"
         y="19"
         id="rect9"
         style="fill:#231f20" /></g><g
       id="g11"
       style="fill:#999999"><path
         d="m 42.7,40 -7.4,-9 c 1.6,-2.6 2.5,-5.6 2.5,-8.8 C 37.8,12.9 30.3,5.4 21,5.4 11.7,5.4 4.1,12.8 4.1,22.1 c 0,9.3 7.5,16.8 16.8,16.8 3.7,0 7.1,-1.2 9.9,-3.3 l 6.9,8.4 c 0.6,0.7 1.6,0.8 2.2,0.2 l 2.5,-2.1 c 0.7,-0.4 0.8,-1.4 0.3,-2.1 z M 8.8,22.1 C 8.8,15.4 14.2,10 20.9,10 27.6,10 33,15.5 33,22.1 33,28.8 27.6,34.2 20.9,34.2 14.2,34.2 8.8,28.8 8.8,22.1 z"
         id="path13"
         style="fill:#808080;fill-opacity:1" /><rect
         width="13.4"
         height="4.3000002"
         x="14.5"
         y="20.5"
         id="rect15"
         style="fill:#808080;fill-opacity:1" /></g></g></svg>