<?xml version="1.0" encoding="UTF-8" standalone="no"?>
<!-- Created by diasvg.py -->
<svg
   xmlns:dc="http://purl.org/dc/elements/1.1/"
   xmlns:cc="http://web.resource.org/cc/"
   xmlns:rdf="http://www.w3.org/1999/02/22-rdf-syntax-ns#"
   xmlns:svg="http://www.w3.org/2000/svg"
   xmlns="http://www.w3.org/2000/svg"
   xmlns:sodipodi="http://sodipodi.sourceforge.net/DTD/sodipodi-0.dtd"
   xmlns:inkscape="http://www.inkscape.org/namespaces/inkscape"
   width="4.501cm"
   height="2.001cm"
   viewBox="0.200 0.149 4.700 2.151"
   id="svg2"
   sodipodi:version="0.32"
   inkscape:version="0.45"
   sodipodi:docname="cloud.normal.svg"
   sodipodi:docbase="/home/grossmj/workspace/gns3-artwork/symbols"
   inkscape:output_extension="org.inkscape.output.svg.inkscape"
   sodipodi:modified="true">
  <metadata
     id="metadata57">
    <rdf:RDF>
      <cc:Work
         rdf:about="">
        <dc:format>image/svg+xml</dc:format>
        <dc:type
           rdf:resource="http://purl.org/dc/dcmitype/StillImage" />
        <dc:title>Cloud</dc:title>
        <dc:creator>
          <cc:Agent>
            <dc:title>Jeremy Grossmann</dc:title>
          </cc:Agent>
        </dc:creator>
        <dc:publisher>
          <cc:Agent>
            <dc:title>GNS-3</dc:title>
          </cc:Agent>
        </dc:publisher>
        <dc:description>Created for the GNS-3 project (www.gns3.net)</dc:description>
        <cc:license
           rdf:resource="http://creativecommons.org/licenses/GPL/2.0/" />
      </cc:Work>
      <cc:License
         rdf:about="http://creativecommons.org/licenses/GPL/2.0/">
        <cc:permits
           rdf:resource="http://web.resource.org/cc/Reproduction" />
        <cc:permits
           rdf:resource="http://web.resource.org/cc/Distribution" />
        <cc:requires
           rdf:resource="http://web.resource.org/cc/Notice" />
        <cc:permits
           rdf:resource="http://web.resource.org/cc/DerivativeWorks" />
        <cc:requires
           rdf:resource="http://web.resource.org/cc/ShareAlike" />
        <cc:requires
           rdf:resource="http://web.resource.org/cc/SourceCode" />
      </cc:License>
    </rdf:RDF>
  </metadata>
  <defs
     id="defs55" />
  <sodipodi:namedview
     inkscape:window-height="953"
     inkscape:window-width="1280"
     inkscape:pageshadow="2"
     inkscape:pageopacity="0.0"
     guidetolerance="10.0"
     gridtolerance="10.0"
     objecttolerance="10.0"
     borderopacity="1.0"
     bordercolor="#666666"
     pagecolor="#ffffff"
     id="base"
     inkscape:zoom="5.129033"
     inkscape:cx="79.742126"
     inkscape:cy="35.353302"
     inkscape:window-x="50"
     inkscape:window-y="25"
     inkscape:current-layer="svg2" />
  <path
     d="M 3.7599791,0.61531938 L 3.7589791,0.59431938 L 3.7559791,0.57331938 L 3.7489791,0.55331938 L 3.7399791,0.53331938 L 3.7289791,0.51231938 L 3.7159791,0.49231938 L 3.6989791,0.47231938 L 3.6809791,0.45331938 L 3.6599791,0.43431938 L 3.6369791,0.41531938 L 3.6129791,0.39831938 L 3.5849791,0.38131938 L 3.5549791,0.36431938 L 3.5239791,0.34731938 L 3.4909791,0.33231938 L 3.4559791,0.31731938 L 3.4189791,0.30331938 L 3.3809791,0.29031938 L 3.3409791,0.27831938 L 3.2999791,0.26731938 L 3.2569791,0.25631938 L 3.2119791,0.24631938 L 3.1679791,0.23831938 L 3.1219791,0.23031938 L 3.0739791,0.22331938 L 3.0269791,0.21731938 L 2.9789791,0.21331938 L 2.9299791,0.20931938 L 2.8799791,0.20631938 L 2.8309791,0.20531938 L 2.7819791,0.20431938 L 2.7819791,0.20431938 L 2.7319791,0.20531938 L 2.6829791,0.20631938 L 2.6329791,0.20931938 L 2.5849791,0.21331938 L 2.5359791,0.21731938 L 2.4889791,0.22331938 L 2.4419791,0.23031938 L 2.3959791,0.23831938 L 2.3509791,0.24631938 L 2.3079791,0.25631938 L 2.2649791,0.26731938 L 2.2229791,0.27831938 L 2.1829791,0.29031938 L 2.1439791,0.30331938 L 2.1079791,0.31731938 L 2.0729791,0.33231938 L 2.0399791,0.34731938 L 2.0079791,0.36431938 L 1.9789791,0.38131938 L 1.9519791,0.39831938 L 1.9259791,0.41531938 L 1.9029791,0.43431938 L 1.8829791,0.45331938 L 1.8639791,0.47231938 L 1.8479791,0.49231938 L 1.8339791,0.51231938 L 1.8239791,0.53331938 L 1.8149791,0.55331938 L 1.8089791,0.57331938 L 1.8039791,0.59431938 L 1.8029791,0.61531938 L 1.8029791,0.61531938 L 1.8039791,0.63531938 L 1.8089791,0.65731938 L 1.8149791,0.67731938 L 1.8239791,0.69831938 L 1.8339791,0.71831938 L 1.8479791,0.73731938 L 1.8639791,0.75731938 L 1.8829791,0.77731938 L 1.9029791,0.79631938 L 1.9259791,0.81431938 L 1.9519791,0.83231938 L 1.9789791,0.84931938 L 2.0079791,0.86631938 L 2.0399791,0.88231938 L 2.0729791,0.89831938 L 2.1079791,0.91231938 L 2.1439791,0.92631938 L 2.1829791,0.93931938 L 2.2229791,0.95231938 L 2.2649791,0.96331938 L 2.3079791,0.97331938 L 2.3509791,0.98431938 L 2.3959791,0.99231938 L 2.4419791,0.99931938 L 2.4889791,1.0063194 L 2.5359791,1.0123194 L 2.5849791,1.0173194 L 2.6329791,1.0203194 L 2.6829791,1.0233194 L 2.7319791,1.0243194 L 2.7819791,1.0253194 L 2.7819791,1.0253194 L 2.8309791,1.0243194 L 2.8799791,1.0233194 L 2.9299791,1.0203194 L 2.9789791,1.0173194 L 3.0269791,1.0123194 L 3.0739791,1.0063194 L 3.1219791,0.99931938 L 3.1679791,0.99231938 L 3.2119791,0.98431938 L 3.2569791,0.97331938 L 3.2999791,0.96331938 L 3.3409791,0.95231938 L 3.3809791,0.93931938 L 3.4189791,0.92631938 L 3.4559791,0.91231938 L 3.4909791,0.89831938 L 3.5239791,0.88231938 L 3.5549791,0.86631938 L 3.5849791,0.84931938 L 3.6129791,0.83231938 L 3.6369791,0.81431938 L 3.6599791,0.79631938 L 3.6809791,0.77731938 L 3.6989791,0.75731938 L 3.7159791,0.73731938 L 3.7289791,0.71831938 L 3.7399791,0.69831938 L 3.7489791,0.67731938 L 3.7559791,0.65731938 L 3.7589791,0.63531938 L 3.7599791,0.61531938"
     id="path4"
     style="fill:white;stroke:none;stroke-width:0.01516892;stroke-miterlimit:4;stroke-dasharray:none" />
  <path
     d="M 2.2259791,0.83031938 L 2.2249791,0.80931938 L 2.2219791,0.78931938 L 2.2179791,0.76831938 L 2.2109791,0.74831938 L 2.2019791,0.72731938 L 2.1919791,0.70731938 L 2.1799791,0.68731938 L 2.1649791,0.66931938 L 2.1499791,0.65031938 L 2.1319791,0.63131938 L 2.1129791,0.61331938 L 2.0919791,0.59631938 L 2.0699791,0.57931938 L 2.0459791,0.56331938 L 2.0199791,0.54831938 L 1.9939791,0.53331938 L 1.9649791,0.51931938 L 1.9359791,0.50631938 L 1.9049791,0.49331938 L 1.8729791,0.48231938 L 1.8409791,0.47131938 L 1.8069791,0.46231938 L 1.7719791,0.45331938 L 1.7369791,0.44531938 L 1.7009791,0.43931938 L 1.6649791,0.43331938 L 1.6279791,0.42831938 L 1.5899791,0.42431938 L 1.5529791,0.42231938 L 1.5139791,0.42031938 L 1.4759791,0.42031938 L 1.4759791,0.42031938 L 1.4389791,0.42031938 L 1.4009791,0.42231938 L 1.3629791,0.42431938 L 1.3249791,0.42831938 L 1.2879791,0.43331938 L 1.2519791,0.43931938 L 1.2159791,0.44531938 L 1.1809791,0.45331938 L 1.1459791,0.46231938 L 1.1129791,0.47131938 L 1.0799791,0.48231938 L 1.0479791,0.49331938 L 1.0179791,0.50631938 L 0.98797907,0.51931938 L 0.95997907,0.53331938 L 0.93297907,0.54831938 L 0.90797907,0.56331938 L 0.88397907,0.57931938 L 0.86097907,0.59631938 L 0.83997907,0.61331938 L 0.82197907,0.63131938 L 0.80297907,0.65031938 L 0.78797907,0.66931938 L 0.77297907,0.68731938 L 0.76097907,0.70731938 L 0.74997907,0.72731938 L 0.74197907,0.74831938 L 0.73497907,0.76831938 L 0.72997907,0.78931938 L 0.72797907,0.80931938 L 0.72697907,0.83031938 L 0.72697907,0.83031938 L 0.72797907,0.85131938 L 0.72997907,0.87231938 L 0.73497907,0.89231938 L 0.74197907,0.91331938 L 0.74997907,0.93331938 L 0.76097907,0.95331938 L 0.77297907,0.97331938 L 0.78797907,0.99231938 L 0.80297907,1.0113194 L 0.82197907,1.0293194 L 0.83997907,1.0473194 L 0.86097907,1.0653194 L 0.88397907,1.0813194 L 0.90797907,1.0973194 L 0.93297907,1.1133194 L 0.95997907,1.1273194 L 0.98797907,1.1423194 L 1.0179791,1.1543194 L 1.0479791,1.1673194 L 1.0799791,1.1793194 L 1.1129791,1.1893194 L 1.1459791,1.1993194 L 1.1809791,1.2073194 L 1.2159791,1.2153194 L 1.2519791,1.2223194 L 1.2879791,1.2273194 L 1.3249791,1.2323194 L 1.3629791,1.2363194 L 1.4009791,1.2383194 L 1.4389791,1.2403194 L 1.4759791,1.2403194 L 1.4759791,1.2403194 L 1.5139791,1.2403194 L 1.5529791,1.2383194 L 1.5899791,1.2363194 L 1.6279791,1.2323194 L 1.6649791,1.2273194 L 1.7009791,1.2223194 L 1.7369791,1.2153194 L 1.7719791,1.2073194 L 1.8069791,1.1993194 L 1.8409791,1.1893194 L 1.8729791,1.1793194 L 1.9049791,1.1673194 L 1.9359791,1.1543194 L 1.9649791,1.1423194 L 1.9939791,1.1273194 L 2.0199791,1.1133194 L 2.0459791,1.0973194 L 2.0699791,1.0813194 L 2.0919791,1.0653194 L 2.1129791,1.0473194 L 2.1319791,1.0293194 L 2.1499791,1.0113194 L 2.1649791,0.99231938 L 2.1799791,0.97331938 L 2.1919791,0.95331938 L 2.2019791,0.93331938 L 2.2109791,0.91331938 L 2.2179791,0.89231938 L 2.2219791,0.87231938 L 2.2249791,0.85131938 L 2.2259791,0.83031938"
     id="path6"
     style="fill:white;stroke:none;stroke-width:0.01516892;stroke-miterlimit:4;stroke-dasharray:none" />
  <path
     d="M 1.2809791,1.2493194 L 1.2799791,1.2323194 L 1.2789791,1.2153194 L 1.2749791,1.1983194 L 1.2699791,1.1813194 L 1.2649791,1.1653194 L 1.2579791,1.1493194 L 1.2489791,1.1333194 L 1.2399791,1.1163194 L 1.2289791,1.1013194 L 1.2169791,1.0863194 L 1.2049791,1.0723194 L 1.1909791,1.0573194 L 1.1759791,1.0433194 L 1.1589791,1.0313194 L 1.1419791,1.0183194 L 1.1239791,1.0063194 L 1.1049791,0.99531938 L 1.0849791,0.98431938 L 1.0649791,0.97431938 L 1.0429791,0.96431938 L 1.0209791,0.95631938 L 0.99797907,0.94831938 L 0.97497907,0.94131938 L 0.95097907,0.93531938 L 0.92697907,0.92931938 L 0.90197907,0.92531938 L 0.87797907,0.92031938 L 0.85197907,0.91831938 L 0.82697907,0.91631938 L 0.80197907,0.91431938 L 0.77597907,0.91431938 L 0.77597907,0.91431938 L 0.74997907,0.91431938 L 0.72397907,0.91631938 L 0.69897907,0.91831938 L 0.67397907,0.92031938 L 0.64997907,0.92531938 L 0.62397907,0.92931938 L 0.59997907,0.93531938 L 0.57697907,0.94131938 L 0.55397907,0.94831938 L 0.53097907,0.95631938 L 0.50897907,0.96431938 L 0.48697907,0.97431938 L 0.46597907,0.98431938 L 0.44697907,0.99531938 L 0.42797907,1.0063194 L 0.40997907,1.0183194 L 0.39297907,1.0313194 L 0.37597907,1.0433194 L 0.36097907,1.0573194 L 0.34697907,1.0723194 L 0.33397907,1.0863194 L 0.32297907,1.1013194 L 0.31197907,1.1163194 L 0.30197907,1.1333194 L 0.29397907,1.1493194 L 0.28697907,1.1653194 L 0.28097907,1.1813194 L 0.27697907,1.1983194 L 0.27297907,1.2153194 L 0.27097907,1.2323194 L 0.27097907,1.2493194 L 0.27097907,1.2493194 L 0.27097907,1.2653194 L 0.27297907,1.2833194 L 0.27697907,1.2993194 L 0.28097907,1.3163194 L 0.28697907,1.3333194 L 0.29397907,1.3493194 L 0.30197907,1.3653194 L 0.31197907,1.3803194 L 0.32297907,1.3963194 L 0.33397907,1.4113194 L 0.34697907,1.4263194 L 0.36097907,1.4403194 L 0.37597907,1.4543194 L 0.39297907,1.4673194 L 0.40997907,1.4793194 L 0.42797907,1.4913194 L 0.44697907,1.5033194 L 0.46597907,1.5133194 L 0.48697907,1.5233194 L 0.50897907,1.5333194 L 0.53097907,1.5413194 L 0.55397907,1.5493194 L 0.57697907,1.5563194 L 0.59997907,1.5633194 L 0.62397907,1.5683194 L 0.64997907,1.5733194 L 0.67397907,1.5773194 L 0.69897907,1.5803194 L 0.72397907,1.5813194 L 0.74997907,1.5833194 L 0.77597907,1.5843194 L 0.77597907,1.5843194 L 0.80197907,1.5833194 L 0.82697907,1.5813194 L 0.85197907,1.5803194 L 0.87797907,1.5773194 L 0.90197907,1.5733194 L 0.92697907,1.5683194 L 0.95097907,1.5633194 L 0.97497907,1.5563194 L 0.99797907,1.5493194 L 1.0209791,1.5413194 L 1.0429791,1.5333194 L 1.0649791,1.5233194 L 1.0849791,1.5133194 L 1.1049791,1.5033194 L 1.1239791,1.4913194 L 1.1419791,1.4793194 L 1.1589791,1.4673194 L 1.1759791,1.4543194 L 1.1909791,1.4403194 L 1.2049791,1.4263194 L 1.2169791,1.4113194 L 1.2289791,1.3963194 L 1.2399791,1.3803194 L 1.2489791,1.3653194 L 1.2579791,1.3493194 L 1.2649791,1.3333194 L 1.2699791,1.3163194 L 1.2749791,1.2993194 L 1.2789791,1.2833194 L 1.2799791,1.2653194 L 1.2809791,1.2493194"
     id="path8"
     style="fill:white;stroke:none;stroke-width:0.01516892;stroke-miterlimit:4;stroke-dasharray:none" />
  <path
     d="M 2.0969791,1.5713194 L 2.0949791,1.5533194 L 2.0919791,1.5353194 L 2.0879791,1.5163194 L 2.0809791,1.4983194 L 2.0719791,1.4813194 L 2.0619791,1.4633194 L 2.0489791,1.4463194 L 2.0339791,1.4283194 L 2.0179791,1.4123194 L 2.0009791,1.3963194 L 1.9819791,1.3803194 L 1.9609791,1.3643194 L 1.9369791,1.3493194 L 1.9129791,1.3353194 L 1.8869791,1.3223194 L 1.8599791,1.3093194 L 1.8319791,1.2973194 L 1.8009791,1.2853194 L 1.7709791,1.2743194 L 1.7389791,1.2643194 L 1.7049791,1.2553194 L 1.6699791,1.2463194 L 1.6359791,1.2383194 L 1.5999791,1.2313194 L 1.5639791,1.2263194 L 1.5259791,1.2203194 L 1.4889791,1.2163194 L 1.4509791,1.2133194 L 1.4129791,1.2113194 L 1.3739791,1.2093194 L 1.3359791,1.2093194 L 1.3359791,1.2093194 L 1.2979791,1.2093194 L 1.2589791,1.2113194 L 1.2199791,1.2133194 L 1.1819791,1.2163194 L 1.1449791,1.2203194 L 1.1079791,1.2263194 L 1.0709791,1.2313194 L 1.0359791,1.2383194 L 1.0009791,1.2463194 L 0.96697907,1.2553194 L 0.93297907,1.2643194 L 0.90097907,1.2743194 L 0.86997907,1.2853194 L 0.83997907,1.2973194 L 0.81097907,1.3093194 L 0.78397907,1.3223194 L 0.75797907,1.3353194 L 0.73397907,1.3493194 L 0.71097907,1.3643194 L 0.68997907,1.3803194 L 0.67097907,1.3963194 L 0.65297907,1.4123194 L 0.63597907,1.4283194 L 0.62197907,1.4463194 L 0.60997907,1.4633194 L 0.59997907,1.4813194 L 0.58997907,1.4983194 L 0.58397907,1.5163194 L 0.57897907,1.5353194 L 0.57597907,1.5533194 L 0.57497907,1.5713194 L 0.57497907,1.5713194 L 0.57597907,1.5903194 L 0.57897907,1.6083194 L 0.58397907,1.6263194 L 0.58997907,1.6443194 L 0.59997907,1.6633194 L 0.60997907,1.6803194 L 0.62197907,1.6973194 L 0.63597907,1.7153194 L 0.65297907,1.7313194 L 0.67097907,1.7473194 L 0.68997907,1.7633194 L 0.71097907,1.7783194 L 0.73397907,1.7933194 L 0.75797907,1.8083194 L 0.78397907,1.8223194 L 0.81097907,1.8343194 L 0.83997907,1.8473194 L 0.86997907,1.8583194 L 0.90097907,1.8693194 L 0.93297907,1.8793194 L 0.96697907,1.8893194 L 1.0009791,1.8973194 L 1.0359791,1.9053194 L 1.0709791,1.9113194 L 1.1079791,1.9183194 L 1.1449791,1.9223194 L 1.1819791,1.9273194 L 1.2199791,1.9303194 L 1.2589791,1.9333194 L 1.2979791,1.9343194 L 1.3359791,1.9343194 L 1.3359791,1.9343194 L 1.3739791,1.9343194 L 1.4129791,1.9333194 L 1.4509791,1.9303194 L 1.4889791,1.9273194 L 1.5259791,1.9223194 L 1.5639791,1.9183194 L 1.5999791,1.9113194 L 1.6359791,1.9053194 L 1.6699791,1.8973194 L 1.7049791,1.8893194 L 1.7389791,1.8793194 L 1.7709791,1.8693194 L 1.8009791,1.8583194 L 1.8319791,1.8473194 L 1.8599791,1.8343194 L 1.8869791,1.8223194 L 1.9129791,1.8083194 L 1.9369791,1.7933194 L 1.9609791,1.7783194 L 1.9819791,1.7633194 L 2.0009791,1.7473194 L 2.0179791,1.7313194 L 2.0339791,1.7153194 L 2.0489791,1.6973194 L 2.0619791,1.6803194 L 2.0719791,1.6633194 L 2.0809791,1.6443194 L 2.0879791,1.6263194 L 2.0919791,1.6083194 L 2.0949791,1.5903194 L 2.0969791,1.5713194"
     id="path10"
     style="fill:white;stroke:none;stroke-width:0.01516892;stroke-miterlimit:4;stroke-dasharray:none" />
  <path
     d="M 3.9229791,1.7583194 L 3.9209791,1.7373194 L 3.9169791,1.7153194 L 3.9099791,1.6933194 L 3.8989791,1.6723194 L 3.8869791,1.6513194 L 3.8709791,1.6303194 L 3.8519791,1.6093194 L 3.8309791,1.5893194 L 3.8069791,1.5693194 L 3.7799791,1.5493194 L 3.7509791,1.5313194 L 3.7189791,1.5123194 L 3.6859791,1.4953194 L 3.6489791,1.4783194 L 3.6099791,1.4623194 L 3.5699791,1.4463194 L 3.5269791,1.4323194 L 3.4819791,1.4183194 L 3.4359791,1.4053194 L 3.3879791,1.3933194 L 3.3379791,1.3833194 L 3.2869791,1.3723194 L 3.2349791,1.3633194 L 3.1809791,1.3553194 L 3.1269791,1.3483194 L 3.0709791,1.3423194 L 3.0159791,1.3373194 L 2.9589791,1.3333194 L 2.9019791,1.3313194 L 2.8439791,1.3293194 L 2.7869791,1.3293194 L 2.7869791,1.3293194 L 2.7299791,1.3293194 L 2.6719791,1.3313194 L 2.6149791,1.3333194 L 2.5579791,1.3373194 L 2.5019791,1.3423194 L 2.4469791,1.3483194 L 2.3929791,1.3553194 L 2.3389791,1.3633194 L 2.2869791,1.3723194 L 2.2359791,1.3833194 L 2.1859791,1.3933194 L 2.1379791,1.4053194 L 2.0909791,1.4183194 L 2.0469791,1.4323194 L 2.0039791,1.4463194 L 1.9639791,1.4623194 L 1.9249791,1.4783194 L 1.8879791,1.4953194 L 1.8539791,1.5123194 L 1.8229791,1.5313194 L 1.7939791,1.5493194 L 1.7669791,1.5693194 L 1.7429791,1.5893194 L 1.7219791,1.6093194 L 1.7039791,1.6303194 L 1.6869791,1.6513194 L 1.6749791,1.6723194 L 1.6639791,1.6933194 L 1.6569791,1.7153194 L 1.6519791,1.7373194 L 1.6509791,1.7583194 L 1.6509791,1.7583194 L 1.6519791,1.7813194 L 1.6569791,1.8023194 L 1.6639791,1.8243194 L 1.6749791,1.8453194 L 1.6869791,1.8673194 L 1.7039791,1.8873194 L 1.7219791,1.9083194 L 1.7429791,1.9283194 L 1.7669791,1.9483194 L 1.7939791,1.9683194 L 1.8229791,1.9863194 L 1.8539791,2.0043194 L 1.8879791,2.0223194 L 1.9249791,2.0393194 L 1.9639791,2.0553194 L 2.0039791,2.0713194 L 2.0469791,2.0863194 L 2.0909791,2.0993194 L 2.1379791,2.1123194 L 2.1859791,2.1243194 L 2.2359791,2.1353194 L 2.2869791,2.1453194 L 2.3389791,2.1543194 L 2.3929791,2.1633194 L 2.4469791,2.1703194 L 2.5019791,2.1753194 L 2.5579791,2.1803194 L 2.6149791,2.1843194 L 2.6719791,2.1873194 L 2.7299791,2.1893194 L 2.7869791,2.1893194 L 2.7869791,2.1893194 L 2.8439791,2.1893194 L 2.9019791,2.1873194 L 2.9589791,2.1843194 L 3.0159791,2.1803194 L 3.0709791,2.1753194 L 3.1269791,2.1703194 L 3.1809791,2.1633194 L 3.2349791,2.1543194 L 3.2869791,2.1453194 L 3.3379791,2.1353194 L 3.3879791,2.1243194 L 3.4359791,2.1123194 L 3.4819791,2.0993194 L 3.5269791,2.0863194 L 3.5699791,2.0713194 L 3.6099791,2.0553194 L 3.6489791,2.0393194 L 3.6859791,2.0223194 L 3.7189791,2.0043194 L 3.7509791,1.9863194 L 3.7799791,1.9683194 L 3.8069791,1.9483194 L 3.8309791,1.9283194 L 3.8519791,1.9083194 L 3.8709791,1.8873194 L 3.8869791,1.8673194 L 3.8989791,1.8453194 L 3.9099791,1.8243194 L 3.9169791,1.8023194 L 3.9209791,1.7813194 L 3.9229791,1.7583194"
     id="path12"
     style="fill:white;stroke:none;stroke-width:0.01516892;stroke-miterlimit:4;stroke-dasharray:none" />
  <path
     d="M 4.5529791,0.76631938 L 4.5529791,0.75031938 L 4.5499791,0.73431938 L 4.5459791,0.71731938 L 4.5379791,0.70131938 L 4.5309791,0.68531938 L 4.5199791,0.66931938 L 4.5079791,0.65431938 L 4.4949791,0.63931938 L 4.4789791,0.62431938 L 4.4619791,0.60931938 L 4.4429791,0.59631938 L 4.4229791,0.58231938 L 4.4009791,0.56931938 L 4.3779791,0.55631938 L 4.3529791,0.54431938 L 4.3269791,0.53331938 L 4.2999791,0.52131938 L 4.2709791,0.51131938 L 4.2409791,0.50131938 L 4.2099791,0.49231938 L 4.1789791,0.48431938 L 4.1459791,0.47631938 L 4.1119791,0.46931938 L 4.0779791,0.46331938 L 4.0429791,0.45831938 L 4.0079791,0.45331938 L 3.9719791,0.45031938 L 3.9349791,0.44731938 L 3.8989791,0.44531938 L 3.8619791,0.44431938 L 3.8249791,0.44431938 L 3.8249791,0.44431938 L 3.7879791,0.44431938 L 3.7519791,0.44531938 L 3.7139791,0.44731938 L 3.6789791,0.45031938 L 3.6429791,0.45331938 L 3.6069791,0.45831938 L 3.5729791,0.46331938 L 3.5379791,0.46931938 L 3.5039791,0.47631938 L 3.4719791,0.48431938 L 3.4399791,0.49231938 L 3.4089791,0.50131938 L 3.3789791,0.51131938 L 3.3509791,0.52131938 L 3.3229791,0.53331938 L 3.2969791,0.54431938 L 3.2719791,0.55631938 L 3.2489791,0.56931938 L 3.2269791,0.58231938 L 3.2069791,0.59631938 L 3.1879791,0.60931938 L 3.1719791,0.62431938 L 3.1559791,0.63931938 L 3.1419791,0.65431938 L 3.1299791,0.66931938 L 3.1199791,0.68531938 L 3.1109791,0.70131938 L 3.1049791,0.71731938 L 3.0999791,0.73431938 L 3.0979791,0.75031938 L 3.0969791,0.76631938 L 3.0969791,0.76631938 L 3.0979791,0.78231938 L 3.0999791,0.79831938 L 3.1049791,0.81531938 L 3.1109791,0.83131938 L 3.1199791,0.84731938 L 3.1299791,0.86331938 L 3.1419791,0.87931938 L 3.1559791,0.89331938 L 3.1719791,0.90931938 L 3.1879791,0.92331938 L 3.2069791,0.93731938 L 3.2269791,0.95031938 L 3.2489791,0.96431938 L 3.2719791,0.97731938 L 3.2969791,0.98931938 L 3.3229791,1.0003194 L 3.3509791,1.0113194 L 3.3789791,1.0223194 L 3.4089791,1.0313194 L 3.4399791,1.0403194 L 3.4719791,1.0493194 L 3.5039791,1.0563194 L 3.5379791,1.0633194 L 3.5729791,1.0693194 L 3.6069791,1.0753194 L 3.6429791,1.0793194 L 3.6789791,1.0823194 L 3.7139791,1.0853194 L 3.7519791,1.0883194 L 3.7879791,1.0883194 L 3.8249791,1.0893194 L 3.8249791,1.0893194 L 3.8619791,1.0883194 L 3.8989791,1.0883194 L 3.9349791,1.0853194 L 3.9719791,1.0823194 L 4.0079791,1.0793194 L 4.0429791,1.0753194 L 4.0779791,1.0693194 L 4.1119791,1.0633194 L 4.1459791,1.0563194 L 4.1789791,1.0493194 L 4.2099791,1.0403194 L 4.2409791,1.0313194 L 4.2709791,1.0223194 L 4.2999791,1.0113194 L 4.3269791,1.0003194 L 4.3529791,0.98931938 L 4.3779791,0.97731938 L 4.4009791,0.96431938 L 4.4229791,0.95031938 L 4.4429791,0.93731938 L 4.4619791,0.92331938 L 4.4789791,0.90931938 L 4.4949791,0.89331938 L 4.5079791,0.87931938 L 4.5199791,0.86331938 L 4.5309791,0.84731938 L 4.5379791,0.83131938 L 4.5459791,0.81531938 L 4.5499791,0.79831938 L 4.5529791,0.78231938 L 4.5529791,0.76631938"
     id="path14"
     style="fill:white;stroke:none;stroke-width:0.01516892;stroke-miterlimit:4;stroke-dasharray:none" />
  <path
     d="M 4.7599791,1.1813194 L 4.7589791,1.1653194 L 4.7569791,1.1493194 L 4.7519791,1.1323194 L 4.7449791,1.1163194 L 4.7369791,1.1003194 L 4.7269791,1.0843194 L 4.7149791,1.0683194 L 4.7019791,1.0543194 L 4.6869791,1.0393194 L 4.6689791,1.0243194 L 4.6499791,1.0103194 L 4.6309791,0.99731938 L 4.6089791,0.98431938 L 4.5859791,0.97031938 L 4.5619791,0.95931938 L 4.5349791,0.94731938 L 4.5079791,0.93631938 L 4.4799791,0.92631938 L 4.4499791,0.91631938 L 4.4199791,0.90731938 L 4.3879791,0.89931938 L 4.3549791,0.89131938 L 4.3219791,0.88431938 L 4.2889791,0.87931938 L 4.2539791,0.87331938 L 4.2189791,0.86931938 L 4.1829791,0.86531938 L 4.1469791,0.86231938 L 4.1109791,0.86031938 L 4.0739791,0.85931938 L 4.0379791,0.85831938 L 4.0379791,0.85831938 L 3.9999791,0.85931938 L 3.9639791,0.86031938 L 3.9279791,0.86231938 L 3.8919791,0.86531938 L 3.8559791,0.86931938 L 3.8209791,0.87331938 L 3.7859791,0.87931938 L 3.7529791,0.88431938 L 3.7189791,0.89131938 L 3.6869791,0.89931938 L 3.6549791,0.90731938 L 3.6249791,0.91631938 L 3.5949791,0.92631938 L 3.5669791,0.93631938 L 3.5399791,0.94731938 L 3.5129791,0.95931938 L 3.4889791,0.97031938 L 3.4669791,0.98431938 L 3.4449791,0.99731938 L 3.4239791,1.0103194 L 3.4059791,1.0243194 L 3.3879791,1.0393194 L 3.3729791,1.0543194 L 3.3599791,1.0683194 L 3.3479791,1.0843194 L 3.3379791,1.1003194 L 3.3299791,1.1163194 L 3.3229791,1.1323194 L 3.3179791,1.1493194 L 3.3159791,1.1653194 L 3.3149791,1.1813194 L 3.3149791,1.1813194 L 3.3159791,1.1973194 L 3.3179791,1.2133194 L 3.3229791,1.2293194 L 3.3299791,1.2453194 L 3.3379791,1.2623194 L 3.3479791,1.2783194 L 3.3599791,1.2933194 L 3.3729791,1.3083194 L 3.3879791,1.3233194 L 3.4059791,1.3383194 L 3.4239791,1.3513194 L 3.4449791,1.3653194 L 3.4669791,1.3783194 L 3.4889791,1.3913194 L 3.5129791,1.4033194 L 3.5399791,1.4143194 L 3.5669791,1.4263194 L 3.5949791,1.4363194 L 3.6249791,1.4463194 L 3.6549791,1.4553194 L 3.6869791,1.4633194 L 3.7189791,1.4703194 L 3.7529791,1.4773194 L 3.7859791,1.4833194 L 3.8209791,1.4883194 L 3.8559791,1.4933194 L 3.8919791,1.4973194 L 3.9279791,1.5003194 L 3.9639791,1.5023194 L 3.9999791,1.5033194 L 4.0379791,1.5033194 L 4.0379791,1.5033194 L 4.0739791,1.5033194 L 4.1109791,1.5023194 L 4.1469791,1.5003194 L 4.1829791,1.4973194 L 4.2189791,1.4933194 L 4.2539791,1.4883194 L 4.2889791,1.4833194 L 4.3219791,1.4773194 L 4.3549791,1.4703194 L 4.3879791,1.4633194 L 4.4199791,1.4553194 L 4.4499791,1.4463194 L 4.4799791,1.4363194 L 4.5079791,1.4263194 L 4.5349791,1.4143194 L 4.5619791,1.4033194 L 4.5859791,1.3913194 L 4.6089791,1.3783194 L 4.6309791,1.3653194 L 4.6499791,1.3513194 L 4.6689791,1.3383194 L 4.6869791,1.3233194 L 4.7019791,1.3083194 L 4.7149791,1.2933194 L 4.7269791,1.2783194 L 4.7369791,1.2623194 L 4.7449791,1.2453194 L 4.7519791,1.2293194 L 4.7569791,1.2133194 L 4.7589791,1.1973194 L 4.7599791,1.1813194"
     id="path16"
     style="fill:white;stroke:none;stroke-width:0.01516892;stroke-miterlimit:4;stroke-dasharray:none" />
  <path
     d="M 4.6189791,1.5243194 L 4.6179791,1.4973194 L 4.6159791,1.4703194 L 4.6109791,1.4443194 L 4.6049791,1.4173194 L 4.5959791,1.3913194 L 4.5859791,1.3653194 L 4.5739791,1.3403194 L 4.5599791,1.3153194 L 4.5459791,1.2903194 L 4.5289791,1.2673194 L 4.5109791,1.2433194 L 4.4899791,1.2213194 L 4.4689791,1.1993194 L 4.4459791,1.1793194 L 4.4219791,1.1583194 L 4.3949791,1.1403194 L 4.3679791,1.1223194 L 4.3409791,1.1043194 L 4.3119791,1.0893194 L 4.2809791,1.0743194 L 4.2489791,1.0613194 L 4.2179791,1.0483194 L 4.1849791,1.0373194 L 4.1509791,1.0273194 L 4.1159791,1.0183194 L 4.0809791,1.0113194 L 4.0449791,1.0053194 L 4.0099791,1.0003194 L 3.9739791,0.99731938 L 3.9379791,0.99531938 L 3.9019791,0.99431938 L 3.9019791,0.99431938 L 3.8649791,0.99531938 L 3.8289791,0.99731938 L 3.7929791,1.0003194 L 3.7569791,1.0053194 L 3.7219791,1.0113194 L 3.6869791,1.0183194 L 3.6519791,1.0273194 L 3.6179791,1.0373194 L 3.5849791,1.0483194 L 3.5529791,1.0613194 L 3.5219791,1.0743194 L 3.4909791,1.0893194 L 3.4619791,1.1043194 L 3.4339791,1.1223194 L 3.4069791,1.1403194 L 3.3809791,1.1583194 L 3.3569791,1.1793194 L 3.3339791,1.1993194 L 3.3119791,1.2213194 L 3.2929791,1.2433194 L 3.2739791,1.2673194 L 3.2569791,1.2903194 L 3.2419791,1.3153194 L 3.2279791,1.3403194 L 3.2169791,1.3653194 L 3.2069791,1.3913194 L 3.1989791,1.4173194 L 3.1919791,1.4443194 L 3.1869791,1.4703194 L 3.1849791,1.4973194 L 3.1839791,1.5243194 L 3.1839791,1.5243194 L 3.1849791,1.5513194 L 3.1869791,1.5783194 L 3.1919791,1.6043194 L 3.1989791,1.6303194 L 3.2069791,1.6563194 L 3.2169791,1.6823194 L 3.2279791,1.7083194 L 3.2419791,1.7333194 L 3.2569791,1.7573194 L 3.2739791,1.7813194 L 3.2929791,1.8043194 L 3.3119791,1.8263194 L 3.3339791,1.8483194 L 3.3569791,1.8693194 L 3.3809791,1.8893194 L 3.4069791,1.9083194 L 3.4339791,1.9263194 L 3.4619791,1.9433194 L 3.4909791,1.9593194 L 3.5219791,1.9743194 L 3.5529791,1.9873194 L 3.5849791,2.0003194 L 3.6179791,2.0113194 L 3.6519791,2.0213194 L 3.6869791,2.0293194 L 3.7219791,2.0373194 L 3.7569791,2.0433194 L 3.7929791,2.0483194 L 3.8289791,2.0513194 L 3.8649791,2.0533194 L 3.9019791,2.0543194 L 3.9019791,2.0543194 L 3.9379791,2.0533194 L 3.9739791,2.0513194 L 4.0099791,2.0483194 L 4.0449791,2.0433194 L 4.0809791,2.0373194 L 4.1159791,2.0293194 L 4.1509791,2.0213194 L 4.1849791,2.0113194 L 4.2179791,2.0003194 L 4.2489791,1.9873194 L 4.2809791,1.9743194 L 4.3119791,1.9593194 L 4.3409791,1.9433194 L 4.3679791,1.9263194 L 4.3949791,1.9083194 L 4.4219791,1.8893194 L 4.4459791,1.8693194 L 4.4689791,1.8483194 L 4.4899791,1.8263194 L 4.5109791,1.8043194 L 4.5289791,1.7813194 L 4.5459791,1.7573194 L 4.5599791,1.7333194 L 4.5739791,1.7083194 L 4.5859791,1.6823194 L 4.5959791,1.6563194 L 4.6049791,1.6303194 L 4.6109791,1.6043194 L 4.6159791,1.5783194 L 4.6179791,1.5513194 L 4.6189791,1.5243194"
     id="path18"
     style="fill:white;stroke:none;stroke-width:0.01516892;stroke-miterlimit:4;stroke-dasharray:none" />
  <path
     d="M 2.7919791,0.61131938 L 3.7569791,0.52031938 L 3.7439791,0.49931938 L 3.7299791,0.48031938 L 3.7129791,0.46031938 L 3.6939791,0.44031938 L 3.6719791,0.42131938 L 3.6479791,0.40331938 L 3.6219791,0.38531938 L 3.5939791,0.36831938 L 3.5629791,0.35131938 L 3.5309791,0.33531938 L 3.4969791,0.32031938 L 3.4609791,0.30631938 L 3.4229791,0.29231938 L 3.3839791,0.27931938 L 3.3419791,0.26731938 L 3.2999791,0.25631938 L 3.2569791,0.24531938 L 3.2119791,0.23631938 L 3.1659791,0.22731938 L 3.1189791,0.22031938 L 3.0709791,0.21331938 L 3.0229791,0.20831938 L 2.9739791,0.20431938 L 2.9249791,0.20031938 L 2.8759791,0.19831938 L 2.8249791,0.19731938 L 2.7749791,0.19731938 L 2.7249791,0.19731938 L 2.6759791,0.20031938 L 2.6259791,0.20231938 L 2.5769791,0.20631938 L 2.5279791,0.21231938 L 2.4809791,0.21831938 L 2.4329791,0.22531938 L 2.3869791,0.23331938 L 2.3419791,0.24231938 L 2.2979791,0.25231938 L 2.2549791,0.26331938 L 2.2139791,0.27531938 L 2.1739791,0.28831938 L 2.1359791,0.30131938 L 2.0999791,0.31531938 L 2.0639791,0.33131938 L 2.0319791,0.34631938 L 1.9999791,0.36331938 L 1.9709791,0.38031938 L 1.9449791,0.39831938 L 1.9209791,0.41631938 L 1.8969791,0.43531938 L 1.8769791,0.45331938 L 1.8589791,0.47331938 L 1.8439791,0.49331938 L 1.8319791,0.51431938 L 1.8209791,0.53431938 L 2.7919791,0.61131938"
     id="path22"
     style="fill:white;stroke:none;stroke-width:0.01516892;stroke-miterlimit:4;stroke-dasharray:none" />
  <path
     d="M 3.7569791,0.51931938 L 3.7439791,0.49831938 L 3.7299791,0.47931938 L 3.7129791,0.45931938 L 3.6929791,0.44031938 L 3.6709791,0.42131938 L 3.6469791,0.40331938 L 3.6209791,0.38531938 L 3.5919791,0.36731938 L 3.5619791,0.35131938 L 3.5299791,0.33531938 L 3.4949791,0.31931938 L 3.4599791,0.30531938 L 3.4219791,0.29131938 L 3.3819791,0.27931938 L 3.3419791,0.26631938 L 3.2999791,0.25531938 L 3.2559791,0.24531938 L 3.2109791,0.23531938 L 3.1649791,0.22731938 L 3.1189791,0.21931938 L 3.0709791,0.21331938 L 3.0229791,0.20831938 L 2.9739791,0.20431938 L 2.9239791,0.20031938 L 2.8739791,0.19831938 L 2.8249791,0.19731938 L 2.7739791,0.19731938 L 2.7249791,0.19731938 L 2.6759791,0.20031938 L 2.6249791,0.20231938 L 2.5769791,0.20631938 L 2.5279791,0.21231938 L 2.4809791,0.21831938 L 2.4329791,0.22531938 L 2.3869791,0.23331938 L 2.3419791,0.24231938 L 2.2989791,0.25231938 L 2.2559791,0.26331938 L 2.2139791,0.27531938 L 2.1749791,0.28831938 L 2.1369791,0.30131938 L 2.1009791,0.31531938 L 2.0649791,0.33031938 L 2.0319791,0.34531938 L 2.0009791,0.36231938 L 1.9729791,0.38031938 L 1.9449791,0.39731938 L 1.9209791,0.41531938 L 1.8989791,0.43431938 L 1.8779791,0.45331938 L 1.8599791,0.47231938 L 1.8439791,0.49231938 L 1.8319791,0.51331938 L 1.8209791,0.53331938"
     id="path24"
     style="fill:none;stroke:#6c8f93;stroke-width:0.06067566;stroke-miterlimit:4;stroke-dasharray:none;stroke-linejoin:round;stroke-linecap:round" />
  <path
     d="M 1.4819791,0.82631938 L 1.9679791,0.50931938 L 1.9389791,0.49631938 L 1.9069791,0.48431938 L 1.8749791,0.47231938 L 1.8419791,0.46231938 L 1.8079791,0.45231938 L 1.7729791,0.44431938 L 1.7369791,0.43631938 L 1.7009791,0.43031938 L 1.6639791,0.42431938 L 1.6269791,0.41931938 L 1.5889791,0.41631938 L 1.5509791,0.41331938 L 1.5119791,0.41231938 L 1.4739791,0.41231938 L 1.4359791,0.41231938 L 1.3979791,0.41431938 L 1.3599791,0.41731938 L 1.3219791,0.42131938 L 1.2849791,0.42631938 L 1.2489791,0.43231938 L 1.2119791,0.43931938 L 1.1769791,0.44731938 L 1.1429791,0.45631938 L 1.1089791,0.46531938 L 1.0759791,0.47631938 L 1.0449791,0.48931938 L 1.0139791,0.50131938 L 0.98497907,0.51431938 L 0.95697907,0.52931938 L 0.92997907,0.54431938 L 0.90397907,0.55931938 L 0.87997907,0.57531938 L 0.85797907,0.59331938 L 0.83697907,0.61031938 L 0.81897907,0.62831938 L 0.80097907,0.64831938 L 0.78497907,0.66631938 L 0.77097907,0.68631938 L 0.75897907,0.70631938 L 0.74897907,0.72631938 L 0.74097907,0.74631938 L 0.73497907,0.76831938 L 0.72997907,0.78831938 L 0.72697907,0.80931938 L 0.72697907,0.83031938 L 0.72797907,0.85131938 L 0.73097907,0.87231938 L 0.73597907,0.89331938 L 1.4819791,0.82631938"
     id="path26"
     style="fill:white;stroke:none;stroke-width:0.01516892;stroke-miterlimit:4;stroke-dasharray:none" />
  <path
     d="M 1.9659791,0.50831938 L 1.9359791,0.49431938 L 1.9049791,0.48331938 L 1.8719791,0.47131938 L 1.8389791,0.46131938 L 1.8039791,0.45131938 L 1.7699791,0.44331938 L 1.7339791,0.43531938 L 1.6979791,0.42931938 L 1.6609791,0.42431938 L 1.6239791,0.41931938 L 1.5859791,0.41531938 L 1.5479791,0.41331938 L 1.5089791,0.41231938 L 1.4709791,0.41231938 L 1.4329791,0.41231938 L 1.3949791,0.41531938 L 1.3569791,0.41731938 L 1.3189791,0.42131938 L 1.2819791,0.42631938 L 1.2459791,0.43331938 L 1.2099791,0.43931938 L 1.1749791,0.44831938 L 1.1409791,0.45631938 L 1.1069791,0.46731938 L 1.0739791,0.47831938 L 1.0419791,0.48931938 L 1.0119791,0.50231938 L 0.98297907,0.51531938 L 0.95497907,0.53031938 L 0.92797907,0.54531938 L 0.90297907,0.56031938 L 0.87897907,0.57631938 L 0.85697907,0.59431938 L 0.83697907,0.61131938 L 0.81697907,0.63031938 L 0.79997907,0.64831938 L 0.78397907,0.66731938 L 0.77097907,0.68731938 L 0.75897907,0.70731938 L 0.74897907,0.72731938 L 0.74097907,0.74831938 L 0.73497907,0.76831938 L 0.72997907,0.78931938 L 0.72697907,0.80931938 L 0.72697907,0.83131938 L 0.72897907,0.85231938 L 0.73097907,0.87231938 L 0.73697907,0.89331938"
     id="path28"
     style="fill:none;stroke:#6c8f93;stroke-width:0.06067566;stroke-miterlimit:4;stroke-dasharray:none;stroke-linejoin:round;stroke-linecap:round" />
  <path
     d="M 1.3459791,1.5683194 L 0.56497907,1.5563194 L 0.56497907,1.5753194 L 0.56597907,1.5943194 L 0.56897907,1.6133194 L 0.57497907,1.6313194 L 0.58297907,1.6503194 L 0.59197907,1.6683194 L 0.60397907,1.6863194 L 0.61797907,1.7043194 L 0.63297907,1.7213194 L 0.64997907,1.7383194 L 0.66897907,1.7553194 L 0.68897907,1.7713194 L 0.71197907,1.7863194 L 0.73497907,1.8013194 L 0.76097907,1.8163194 L 0.78797907,1.8303194 L 0.81497907,1.8423194 L 0.84497907,1.8553194 L 0.87597907,1.8673194 L 0.90797907,1.8773194 L 0.94197907,1.8883194 L 0.97497907,1.8973194 L 1.0099791,1.9053194 L 1.0459791,1.9133194 L 1.0829791,1.9203194 L 1.1209791,1.9263194 L 1.1579791,1.9313194 L 1.1969791,1.9353194 L 1.2359791,1.9383194 L 1.2749791,1.9413194 L 1.3149791,1.9423194 L 1.3539791,1.9423194 L 1.3929791,1.9413194 L 1.4319791,1.9393194 L 1.4709791,1.9373194 L 1.5099791,1.9343194 L 1.5489791,1.9293194 L 1.5859791,1.9233194 L 1.6229791,1.9183194 L 1.6599791,1.9103194 L 1.6949791,1.9023194 L 1.7299791,1.8933194 L 1.7629791,1.8843194 L 1.7959791,1.8743194 L 1.8289791,1.8633194 L 1.8589791,1.8503194 L 1.3459791,1.5683194"
     id="path30"
     style="fill:white;stroke:none;stroke-width:0.01516892;stroke-miterlimit:4;stroke-dasharray:none" />
  <path
     d="M 0.56497907,1.5563194 L 0.56397907,1.5753194 L 0.56597907,1.5943194 L 0.56897907,1.6123194 L 0.57497907,1.6313194 L 0.58297907,1.6493194 L 0.59297907,1.6683194 L 0.60397907,1.6863194 L 0.61797907,1.7043194 L 0.63297907,1.7213194 L 0.64997907,1.7383194 L 0.66797907,1.7543194 L 0.68797907,1.7703194 L 0.71097907,1.7863194 L 0.73497907,1.8013194 L 0.75897907,1.8153194 L 0.78497907,1.8293194 L 0.81397907,1.8423194 L 0.84297907,1.8553194 L 0.87497907,1.8663194 L 0.90697907,1.8773194 L 0.93897907,1.8873194 L 0.97297907,1.8963194 L 1.0079791,1.9053194 L 1.0449791,1.9133194 L 1.0809791,1.9193194 L 1.1179791,1.9263194 L 1.1559791,1.9313194 L 1.1939791,1.9353194 L 1.2329791,1.9383194 L 1.2719791,1.9403194 L 1.3109791,1.9423194 L 1.3509791,1.9423194 L 1.3899791,1.9423194 L 1.4289791,1.9393194 L 1.4679791,1.9373194 L 1.5059791,1.9343194 L 1.5439791,1.9293194 L 1.5819791,1.9253194 L 1.6199791,1.9183194 L 1.6559791,1.9113194 L 1.6919791,1.9033194 L 1.7259791,1.8943194 L 1.7599791,1.8853194 L 1.7939791,1.8753194 L 1.8249791,1.8643194 L 1.8549791,1.8523194"
     id="path32"
     style="fill:none;stroke:#6c8f93;stroke-width:0.06067566;stroke-miterlimit:4;stroke-dasharray:none;stroke-linejoin:round;stroke-linecap:round" />
  <path
     d="M 3.8359791,0.75931938 L 4.5249791,0.86331938 L 4.5359791,0.84731938 L 4.5459791,0.83231938 L 4.5529791,0.81631938 L 4.5589791,0.80031938 L 4.5619791,0.78431938 L 4.5639791,0.76731938 L 4.5639791,0.75131938 L 4.5619791,0.73431938 L 4.5589791,0.71831938 L 4.5529791,0.70231938 L 4.5459791,0.68631938 L 4.5359791,0.67031938 L 4.5259791,0.65431938 L 4.5129791,0.63931938 L 4.4979791,0.62431938 L 4.4819791,0.60931938 L 4.4639791,0.59531938 L 4.4439791,0.58131938 L 4.4219791,0.56731938 L 4.4009791,0.55531938 L 4.3759791,0.54231938 L 4.3509791,0.53031938 L 4.3239791,0.51931938 L 4.2949791,0.50831938 L 4.2669791,0.49831938 L 4.2369791,0.48931938 L 4.2049791,0.48031938 L 4.1729791,0.47231938 L 4.1389791,0.46531938 L 4.1059791,0.45931938 L 4.0699791,0.45331938 L 4.0359791,0.44831938 L 3.9989791,0.44431938 L 3.9629791,0.44131938 L 3.9259791,0.43831938 L 3.8889791,0.43731938 L 3.8529791,0.43631938 L 3.8159791,0.43631938 L 3.7789791,0.43731938 L 3.7419791,0.43931938 L 3.7059791,0.44131938 L 3.6699791,0.44431938 L 3.6339791,0.44831938 L 3.5979791,0.45331938 L 3.8359791,0.75931938"
     id="path34"
     style="fill:white;stroke:none;stroke-width:0.06067566;stroke-miterlimit:4;stroke-dasharray:none" />
  <path
     d="M 4.4569791,0.92331938 L 4.5239791,0.86431938 L 4.5349791,0.84831938 L 4.5439791,0.83331938 L 4.5529791,0.81731938 L 4.5579791,0.80031938 L 4.5619791,0.78431938 L 4.5639791,0.76831938 L 4.5649791,0.75231938 L 4.5619791,0.73531938 L 4.5589791,0.71931938 L 4.5529791,0.70231938 L 4.5459791,0.68731938 L 4.5369791,0.67131938 L 4.5259791,0.65531938 L 4.5139791,0.64031938 L 4.4979791,0.62531938 L 4.4819791,0.61031938 L 4.4649791,0.59631938 L 4.4449791,0.58231938 L 4.4239791,0.56831938 L 4.4009791,0.55531938 L 4.3779791,0.54331938 L 4.3519791,0.53131938 L 4.3249791,0.52031938 L 4.2969791,0.50931938 L 4.2679791,0.49831938 L 4.2379791,0.48931938 L 4.2059791,0.48131938 L 4.1749791,0.47331938 L 4.1419791,0.46531938 L 4.1079791,0.45931938 L 4.0729791,0.45331938 L 4.0379791,0.44831938 L 4.0019791,0.44431938 L 3.9659791,0.44131938 L 3.9289791,0.43931938 L 3.8919791,0.43731938 L 3.8549791,0.43631938 L 3.8179791,0.43631938 L 3.7809791,0.43731938 L 3.7439791,0.43931938 L 3.7079791,0.44131938 L 3.6719791,0.44431938 L 3.6359791,0.44831938 L 3.6009791,0.45331938"
     id="path36"
     style="fill:none;stroke:#6c8f93;stroke-width:0.06067566;stroke-miterlimit:4;stroke-dasharray:none;stroke-linejoin:round;stroke-linecap:round" />
  <path
     d="M 3.9329791,1.1853194 L 4.7079791,1.3173194 L 4.7239791,1.3003194 L 4.7369791,1.2833194 L 4.7489791,1.2653194 L 4.7569791,1.2473194 L 4.7649791,1.2293194 L 4.7689791,1.2103194 L 4.7699791,1.1923194 L 4.7699791,1.1743194 L 4.7669791,1.1553194 L 4.7629791,1.1363194 L 4.7549791,1.1183194 L 4.7459791,1.1003194 L 4.7339791,1.0833194 L 4.7199791,1.0653194 L 4.7039791,1.0483194 L 4.6859791,1.0313194 L 4.6659791,1.0153194 L 4.6429791,0.99931938 L 4.6189791,0.98431938 L 3.9329791,1.1853194"
     id="path38"
     style="fill:white;stroke:none;stroke-width:0.01516892;stroke-miterlimit:4;stroke-dasharray:none" />
  <path
     d="M 4.6121701,1.38473 L 4.7106494,1.3256015 L 4.7251317,1.3075622 L 4.7386485,1.2895231 L 4.7492688,1.2714838 L 4.7579581,1.2534446 L 4.7656819,1.2354053 L 4.7695439,1.2173662 L 4.7714748,1.1983248 L 4.7714748,1.1802855 L 4.7676129,1.160242 L 4.7637509,1.1422027 L 4.7569926,1.1241635 L 4.7473377,1.1061242 L 4.7357519,1.0880851 L 4.7222352,1.0700458 L 4.7067875,1.0530089 L 4.6884433,1.0359718 L 4.6672028,1.0199369 L 4.6469275,1.003902 L 4.6227905,0.98786714 L 4.4683132,0.92873858"
     id="path40"
     style="fill:none;stroke:#6c8f93;stroke-width:0.0596842;stroke-linecap:round;stroke-linejoin:round;stroke-miterlimit:4;stroke-dasharray:none" />
  <path
     d="M 3.9009791,1.5363194 L 3.6559791,2.0393194 L 3.6919791,2.0473194 L 3.7279791,2.0543194 L 3.7649791,2.0603194 L 3.8029791,2.0643194 L 3.8409791,2.0673194 L 3.8779791,2.0693194 L 3.9149791,2.0693194 L 3.9529791,2.0673194 L 3.9899791,2.0653194 L 4.0279791,2.0613194 L 4.0639791,2.0563194 L 4.1019791,2.0493194 L 4.1369791,2.0413194 L 4.1729791,2.0323194 L 4.2069791,2.0213194 L 4.2409791,2.0093194 L 4.2739791,1.9963194 L 4.3059791,1.9823194 L 4.3369791,1.9663194 L 4.3669791,1.9503194 L 4.3949791,1.9323194 L 4.4219791,1.9133194 L 4.4489791,1.8933194 L 4.4739791,1.8733194 L 4.4959791,1.8513194 L 4.5179791,1.8303194 L 4.5379791,1.8063194 L 4.5559791,1.7823194 L 4.5719791,1.7583194 L 4.5869791,1.7333194 L 4.6009791,1.7073194 L 4.6109791,1.6823194 L 4.6209791,1.6553194 L 4.6289791,1.6283194 L 4.6349791,1.6023194 L 4.6379791,1.5743194 L 4.6399791,1.5473194 L 4.6399791,1.5203194 L 4.6379791,1.4933194 L 4.6339791,1.4663194 L 4.6279791,1.4403194 L 4.6199791,1.4123194 L 4.6109791,1.3873194 L 3.9009791,1.5363194"
     id="path42"
     style="fill:white;stroke:none;stroke-width:0.01516892;stroke-miterlimit:4;stroke-dasharray:none" />
  <path
     d="M 3.6589791,2.0403194 L 3.6949791,2.0483194 L 3.7309791,2.0553194 L 3.7679791,2.0613194 L 3.8049791,2.0653194 L 3.8419791,2.0673194 L 3.8799791,2.0693194 L 3.9179791,2.0703194 L 3.9549791,2.0673194 L 3.9929791,2.0653194 L 4.0299791,2.0613194 L 4.0669791,2.0563194 L 4.1029791,2.0493194 L 4.1389791,2.0403194 L 4.1749791,2.0313194 L 4.2089791,2.0203194 L 4.2419791,2.0093194 L 4.2759791,1.9953194 L 4.3079791,1.9813194 L 4.3389791,1.9663194 L 4.3679791,1.9483194 L 4.3969791,1.9313194 L 4.4239791,1.9123194 L 4.4499791,1.8933194 L 4.4749791,1.8723194 L 4.4979791,1.8503194 L 4.5189791,1.8283194 L 4.5379791,1.8043194 L 4.5569791,1.7813194 L 4.5729791,1.7573194 L 4.5879791,1.7323194 L 4.6019791,1.7063194 L 4.6129791,1.6803194 L 4.6209791,1.6543194 L 4.6289791,1.6273194 L 4.6349791,1.6003194 L 4.6379791,1.5733194 L 4.6399791,1.5463194 L 4.6399791,1.5193194 L 4.6379791,1.4923194 L 4.6329791,1.4653194 L 4.6279791,1.4373194 L 4.6199791,1.4113194 L 4.6099791,1.3853194"
     id="path44"
     style="fill:none;stroke:#6c8f93;stroke-width:0.06067566;stroke-miterlimit:4;stroke-dasharray:none;stroke-linejoin:round;stroke-linecap:round" />
  <path
     d="M 0.80297907,1.2493194 L 0.76597907,0.90731938 L 0.73797907,0.90931938 L 0.71197907,0.91131938 L 0.68497907,0.91531938 L 0.65897907,0.91931938 L 0.63297907,0.92431938 L 0.60697907,0.93031938 L 0.58297907,0.93731938 L 0.55797907,0.94531938 L 0.53397907,0.95331938 L 0.51097907,0.96231938 L 0.48897907,0.97231938 L 0.46797907,0.98231938 L 0.44697907,0.99431938 L 0.42697907,1.0063194 L 0.40797907,1.0193194 L 0.39097907,1.0323194 L 0.37397907,1.0463194 L 0.35897907,1.0603194 L 0.34397907,1.0753194 L 0.33097907,1.0903194 L 0.31997907,1.1063194 L 0.30897907,1.1223194 L 0.29897907,1.1383194 L 0.29097907,1.1553194 L 0.28497907,1.1723194 L 0.27897907,1.1883194 L 0.27497907,1.2063194 L 0.27197907,1.2243194 L 0.27097907,1.2413194 L 0.27097907,1.2583194 L 0.27197907,1.2763194 L 0.27497907,1.2933194 L 0.27897907,1.3103194 L 0.28497907,1.3273194 L 0.29197907,1.3443194 L 0.29997907,1.3613194 L 0.30897907,1.3773194 L 0.31997907,1.3933194 L 0.33197907,1.4093194 L 0.34497907,1.4243194 L 0.36097907,1.4393194 L 0.37597907,1.4533194 L 0.39297907,1.4673194 L 0.41097907,1.4803194 L 0.42897907,1.4933194 L 0.44897907,1.5043194 L 0.46997907,1.5153194 L 0.49097907,1.5273194 L 0.51297907,1.5363194 L 0.53697907,1.5453194 L 0.55997907,1.5543194 L 0.80297907,1.2493194"
     id="path46"
     style="fill:white;stroke:none;stroke-width:0.01516892;stroke-miterlimit:4;stroke-dasharray:none" />
  <path
     d="M 0.76697907,0.90731938 L 0.73997907,0.90931938 L 0.71297907,0.91131938 L 0.68697907,0.91431938 L 0.66097907,0.91931938 L 0.63597907,0.92331938 L 0.60997907,0.92931938 L 0.58497907,0.93631938 L 0.56197907,0.94331938 L 0.53897907,0.95231938 L 0.51597907,0.96131938 L 0.49297907,0.97031938 L 0.47197907,0.98031938 L 0.45197907,0.99131938 L 0.43197907,1.0033194 L 0.41397907,1.0153194 L 0.39597907,1.0283194 L 0.37897907,1.0413194 L 0.36297907,1.0563194 L 0.34797907,1.0703194 L 0.33597907,1.0843194 L 0.32397907,1.1003194 L 0.31197907,1.1153194 L 0.30297907,1.1313194 L 0.29397907,1.1473194 L 0.28697907,1.1643194 L 0.28097907,1.1813194 L 0.27597907,1.1983194 L 0.27297907,1.2153194 L 0.27097907,1.2323194 L 0.27097907,1.2493194 L 0.27097907,1.2663194 L 0.27397907,1.2833194 L 0.27697907,1.3013194 L 0.28097907,1.3173194 L 0.28797907,1.3343194 L 0.29397907,1.3503194 L 0.30297907,1.3673194 L 0.31197907,1.3833194 L 0.32397907,1.3983194 L 0.33597907,1.4143194 L 0.34997907,1.4283194 L 0.36397907,1.4423194 L 0.37997907,1.4573194 L 0.39597907,1.4703194 L 0.41397907,1.4833194 L 0.43297907,1.4953194 L 0.45197907,1.5063194 L 0.47297907,1.5183194 L 0.49397907,1.5283194 L 0.51597907,1.5373194 L 0.53897907,1.5463194 L 0.56297907,1.5553194"
     id="path48"
     style="fill:none;stroke:#6c8f93;stroke-width:0.06067566;stroke-miterlimit:4;stroke-dasharray:none;stroke-linejoin:round;stroke-linecap:round" />
  <path
     d="M 2.7759791,1.7874896 L 1.6669791,1.8276488 L 1.6749791,1.8482432 L 1.6839791,1.867808 L 1.6969791,1.8884024 L 1.7119791,1.9089969 L 1.7299791,1.9285616 L 1.7509791,1.9470967 L 1.7739791,1.9656317 L 1.7989791,1.9841667 L 1.8279791,2.0027017 L 1.8589791,2.020207 L 1.8909791,2.0356529 L 1.9269791,2.0521284 L 1.9639791,2.0675743 L 2.0029791,2.0830201 L 2.0449791,2.0964065 L 2.0879791,2.1097929 L 2.1329791,2.1211199 L 2.1799791,2.1334766 L 2.2279791,2.1437738 L 2.2769791,2.1530413 L 2.3279791,2.1623088 L 2.3799791,2.1705466 L 2.4329791,2.1767249 L 2.4859791,2.1829033 L 2.5409791,2.1880519 L 2.5959791,2.1921708 L 2.6519791,2.1942302 L 2.7069791,2.1962897 L 2.7639791,2.1973194 L 2.8189791,2.1973194 L 2.8759791,2.1962897 L 2.9309791,2.1932005 L 2.9859791,2.1901113 L 3.0409791,2.1849627 L 3.0949791,2.1798141 L 3.1479791,2.1736358 L 3.1999791,2.1664277 L 3.2519791,2.1581899 L 3.3019791,2.1478927 L 3.3509791,2.1386252 L 3.3979791,2.1272982 L 3.4439791,2.1159713 L 3.4879791,2.1025849 L 3.5299791,2.0881687 L 3.5699791,2.0747823 L 3.6089791,2.0593365 L 3.6449791,2.0438906 L 3.6789791,2.0274151 L 3.7099791,2.0109395 L 3.7399791,1.9934342 L 3.7669791,1.9738695 L 3.7919791,1.9563642 L 3.8139791,1.9367994 L 3.8319791,1.9182644 L 2.7759791,1.7874896"
     id="path50"
     style="fill:#ffffff;stroke:none;stroke-width:0.01516892;stroke-miterlimit:4;stroke-dasharray:none" />
  <path
     d="M 1.6669791,1.8393194 L 1.6749791,1.8583194 L 1.6849791,1.8783194 L 1.6969791,1.8983194 L 1.7129791,1.9173194 L 1.7299791,1.9363194 L 1.7509791,1.9543194 L 1.7739791,1.9723194 L 1.7989791,1.9913194 L 1.8289791,2.0083194 L 1.8589791,2.0253194 L 1.8909791,2.0403194 L 1.9269791,2.0563194 L 1.9639791,2.0713194 L 2.0029791,2.0863194 L 2.0449791,2.0993194 L 2.0889791,2.1123194 L 2.1319791,2.1233194 L 2.1799791,2.1353194 L 2.2269791,2.1453194 L 2.2759791,2.1543194 L 2.3269791,2.1633194 L 2.3789791,2.1713194 L 2.4319791,2.1773194 L 2.4849791,2.1823194 L 2.5399791,2.1883194 L 2.5939791,2.1913194 L 2.6499791,2.1943194 L 2.7059791,2.1963194 L 2.7619791,2.1973194 L 2.8179791,2.1973194 L 2.8739791,2.1963194 L 2.9289791,2.1933194 L 2.9839791,2.1903194 L 3.0389791,2.1853194 L 3.0929791,2.1803194 L 3.1469791,2.1743194 L 3.1979791,2.1673194 L 3.2499791,2.1593194 L 3.2999791,2.1503194 L 3.3479791,2.1403194 L 3.3959791,2.1293194 L 3.4419791,2.1183194 L 3.4849791,2.1053194 L 3.5279791,2.0933194 L 3.5679791,2.0783194 L 3.6069791,2.0643194 L 3.6429791,2.0483194 L 3.6769791,2.0333194 L 3.7089791,2.0163194 L 3.7379791,2.0003194 L 3.7649791,1.9823194 L 3.7889791,1.9643194 L 3.8109791,1.9453194 L 3.8309791,1.9273194"
     id="path52"
     style="fill:none;stroke:#6c8f93;stroke-width:0.06067566;stroke-miterlimit:4;stroke-dasharray:none;stroke-linejoin:round;stroke-linecap:round" />
  <rect
     style="opacity:1;fill:white;fill-opacity:1;fill-rule:evenodd;stroke:none;stroke-width:0.5;stroke-linecap:round;stroke-linejoin:round;stroke-miterlimit:4;stroke-dasharray:none;stroke-dashoffset:0;stroke-opacity:1"
     id="rect1892"
     width="2.7800133"
     height="0.61515152"
     x="1.2692652"
     y="0.80605406"
     rx="0"
     ry="0.28983101"
     transform="matrix(0.999604,2.812984e-2,-2.812984e-2,0.999604,0,0)" />
</svg>
