<svg width="60" height="60" viewBox="0 0 300 300" xmlns="http://www.w3.org/2000/svg" xml:space="preserve" style="fill-rule:evenodd;clip-rule:evenodd;stroke-linejoin:round;stroke-miterlimit:1.41421">
    <path d="M300 30.271C300 13.564 286.436 0 269.729 0H30.271C13.564 0 0 13.564 0 30.271v239.458C0 286.436 13.564 300 30.271 300h239.458C286.436 300 300 286.436 300 269.729V30.271Z" style="fill:#fffefe"/>
    <path d="m269.925.001.195.001.39.008.195.005.194.007.194.008.193.009.386.022.193.013.192.014.192.016.191.016.192.018.191.018.19.02.38.044.19.023.189.025.188.026.189.027.188.028.187.029.188.031.186.031.187.033.186.034.186.035.185.036.185.037.368.078.184.041.183.042.183.043.182.043.364.092.181.047.18.048.181.05.179.05.18.052.179.052.178.054.178.055.177.056.177.057.177.058.176.059.175.06.175.061.175.062.174.063.174.064.173.066.172.066.172.067.172.068.171.07.17.07.17.071.17.073.169.073.168.074.168.076.167.076.167.077.332.158.165.08.165.081.164.083.163.083.163.084.162.085.162.086.161.087.161.088.16.088.159.09.159.091.316.184.157.094.156.094.156.095.155.096.308.196.306.198.152.101.302.204.15.104.149.104.149.105.148.106.294.214.146.109.145.109.145.111.144.111.143.112.143.113.142.113.282.23.139.116.14.117.276.236.137.12.136.12.135.121.135.122.134.122.134.124.132.124.132.125.131.125.26.254.129.128.128.129.254.26.125.131.125.132.124.132.124.134.122.134.122.135.121.135.12.136.12.137.236.276.117.14.116.139.23.282.113.142.113.143.112.143.111.144.111.145.109.145.109.146.214.294.106.148.105.149.104.149.104.15.204.302.101.152.198.306.196.308.096.155.095.156.094.156.094.157.184.316.091.159.09.159.088.16.088.161.087.161.086.162.085.162.084.163.083.163.083.164.081.165.08.165.158.332.077.167.076.167.076.168.074.168.073.169.073.17.071.17.07.17.07.171.068.172.067.172.066.172.066.173.064.174.063.174.062.175.061.175.06.175.059.176.058.177.057.177.056.177.055.178.054.178.052.179.052.18.05.179.05.181.048.18.047.181.092.364.043.182.043.183.042.183.041.184.078.368.037.185.036.185.035.186.034.186.033.187.031.186.031.188.029.187.028.188.027.189.026.188.025.189.023.19.044.38.02.19.018.191.018.192.016.191.016.192.014.192.013.193.022.386.009.193.008.194.007.194.005.195.008.39.002.391v239.458l-.001.196-.001.195-.004.195-.004.195-.005.195-.007.194-.008.194-.009.193-.011.193-.011.193-.013.193-.014.192-.016.192-.016.191-.018.192-.018.191-.02.19-.022.19-.022.19-.023.19-.025.189-.026.188-.027.189-.028.188-.029.187-.031.188-.031.186-.033.187-.034.186-.035.186-.036.185-.037.185-.039.184-.039.184-.041.184-.042.183-.043.183-.043.182-.046.182-.046.182-.047.181-.048.18-.05.181-.05.179-.052.18-.052.179-.054.178-.055.178-.056.177-.057.177-.058.177-.059.176-.06.175-.061.175-.062.175-.063.174-.064.174-.066.173-.066.172-.067.172-.068.172-.07.171-.07.17-.071.17-.073.17-.073.169-.074.168-.076.168-.076.167-.077.167-.079.166-.079.166-.08.165-.081.165-.083.164-.083.163-.084.163-.085.162-.086.162-.087.161-.088.161-.088.16-.09.159-.091.159-.092.158-.092.158-.094.157-.094.156-.095.156-.096.155-.098.154-.098.154-.099.153-.099.153-.101.152-.102.151-.102.151-.104.15-.104.149-.105.149-.106.148-.107.147-.107.147-.109.146-.109.145-.111.145-.111.144-.112.143-.113.143-.113.142-.115.141-.115.141-.116.139-.117.14-.118.138-.118.138-.12.137-.12.136-.121.135-.122.135-.122.134-.124.134-.124.132-.125.132-.125.131-.127.13-.127.13-.128.129-.129.128-.13.127-.13.127-.131.125-.132.125-.132.124-.134.124-.134.122-.135.122-.135.121-.136.12-.137.12-.138.118-.138.118-.14.117-.139.116-.141.115-.141.115-.142.113-.143.113-.143.112-.144.111-.145.111-.145.109-.146.109-.147.107-.147.107-.148.106-.149.105-.149.104-.15.104-.151.102-.151.102-.152.101-.153.099-.153.099-.154.098-.154.098-.155.096-.156.095-.156.094-.157.094-.158.092-.158.092-.159.091-.159.09-.16.088-.161.088-.161.087-.162.086-.162.085-.163.084-.163.083-.164.083-.165.081-.165.08-.166.079-.166.079-.167.077-.167.076-.168.076-.168.074-.169.073-.17.073-.17.071-.17.07-.171.07-.172.068-.172.067-.172.066-.173.066-.174.064-.174.063-.175.062-.175.061-.175.06-.176.059-.177.058-.177.057-.177.056-.178.055-.178.054-.179.052-.18.052-.179.05-.181.05-.18.048-.181.047-.182.046-.182.046-.182.043-.183.043-.183.042-.184.041-.184.039-.184.039-.185.037-.185.036-.186.035-.186.034-.187.033-.186.031-.188.031-.187.029-.188.028-.189.027-.188.026-.189.025-.19.023-.19.022-.19.022-.19.02-.191.018-.192.018-.191.016-.192.016-.192.014-.193.013-.193.011-.193.011-.193.009-.194.008-.194.007-.195.005-.195.004-.195.004-.195.001-.196.001H30.271l-.196-.001-.195-.001-.195-.004-.195-.004-.195-.005-.194-.007-.194-.008-.193-.009-.193-.011-.193-.011-.193-.013-.192-.014-.192-.016-.191-.016-.192-.018-.191-.018-.19-.02-.19-.022-.19-.022-.19-.023-.189-.025-.188-.026-.189-.027-.188-.028-.187-.029-.188-.031-.186-.031-.187-.033-.186-.034-.186-.035-.185-.036-.185-.037-.184-.039-.184-.039-.184-.041-.183-.042-.183-.043-.182-.043-.182-.046-.182-.046-.181-.047-.18-.048-.181-.05-.179-.05-.18-.052-.179-.052-.178-.054-.178-.055-.177-.056-.177-.057-.177-.058-.176-.059-.175-.06-.175-.061-.175-.062-.174-.063-.174-.064-.173-.066-.172-.066-.172-.067-.172-.068-.171-.07-.17-.07-.17-.071-.17-.073-.169-.073-.168-.074-.168-.076-.167-.076-.167-.077-.166-.079-.166-.079-.165-.08-.165-.081-.164-.083-.163-.083-.163-.084-.162-.085-.162-.086-.161-.087-.161-.088-.16-.088-.159-.09-.159-.091-.158-.092-.158-.092-.157-.094-.156-.094-.156-.095-.155-.096-.154-.098-.154-.098-.153-.099-.153-.099-.152-.101-.151-.102-.151-.102-.15-.104-.149-.104-.149-.105-.148-.106-.147-.107-.147-.107-.146-.109-.145-.109-.145-.111-.144-.111-.143-.112-.143-.113-.142-.113-.141-.115-.141-.115-.139-.116-.14-.117-.138-.118-.138-.118-.137-.12-.136-.12-.135-.121-.135-.122-.134-.122-.134-.124-.132-.124-.132-.125-.131-.125-.13-.127-.13-.127-.129-.128-.128-.129-.127-.13-.127-.13-.125-.131-.125-.132-.124-.132-.124-.134-.122-.134-.122-.135-.121-.135-.12-.136-.12-.137-.118-.138-.118-.138-.117-.14-.116-.139-.115-.141-.115-.141-.113-.142-.113-.143-.112-.143-.111-.144-.111-.145-.109-.145-.109-.146-.107-.147-.107-.147-.106-.148-.105-.149-.104-.149-.104-.15-.102-.151-.102-.151-.101-.152-.099-.153-.099-.153-.098-.154-.098-.154-.096-.155-.095-.156-.094-.156-.094-.157-.092-.158-.092-.158-.091-.159-.09-.159-.088-.16-.088-.161-.087-.161-.086-.162-.085-.162-.084-.163-.083-.163-.083-.164-.081-.165-.08-.165-.079-.166-.079-.166-.077-.167-.076-.167-.076-.168-.074-.168-.073-.169-.073-.17-.071-.17-.07-.17-.07-.171-.068-.172-.067-.172-.066-.172-.066-.173-.064-.174-.063-.174-.062-.175-.061-.175-.06-.175-.059-.176-.058-.177-.057-.177-.056-.177-.055-.178-.054-.178-.052-.179-.052-.18-.05-.179-.05-.181-.048-.18-.047-.181-.046-.182-.046-.182-.043-.182-.043-.183-.042-.183-.041-.184-.039-.184-.039-.184-.037-.185-.036-.185-.035-.186-.034-.186-.033-.187-.031-.186-.031-.188-.029-.187-.028-.188-.027-.189-.026-.188-.025-.189-.023-.19-.022-.19-.022-.19-.02-.19-.018-.191-.018-.192-.016-.191-.016-.192-.014-.192-.013-.193-.011-.193-.011-.193-.009-.193-.008-.194-.007-.194-.005-.195-.004-.195-.004-.195-.001-.195-.001-.196V30.271l.001-.196.001-.195.004-.195.004-.195.005-.195.007-.194.008-.194.009-.193.011-.193.011-.193.013-.193.014-.192.016-.192.016-.191.018-.192.018-.191.02-.19.022-.19.022-.19.023-.19.025-.189.026-.188.027-.189.028-.188.029-.187.031-.188.031-.186.033-.187.034-.186.035-.186.036-.185.037-.185.039-.184.039-.184.041-.184.042-.183.043-.183.043-.182.046-.182.046-.182.047-.181.048-.18.05-.181.05-.179.052-.18.052-.179.054-.178.055-.178.056-.177.057-.177.058-.177.059-.176.06-.175.061-.175.062-.175.063-.174.064-.174.066-.173.066-.172.067-.172.068-.172.07-.171.07-.17.071-.17.073-.17.073-.169.074-.168.076-.168.076-.167.077-.167.079-.166.079-.166.08-.165.081-.165.083-.164.083-.163.084-.163.085-.162.086-.162.087-.161.088-.161.088-.16.09-.159.091-.159.092-.158.092-.158.094-.157.094-.156.095-.156.096-.155.098-.154.098-.154.099-.153.099-.153.101-.152.102-.151.102-.151.104-.15.104-.149.105-.149.106-.148.107-.147.107-.147.109-.146.109-.145.111-.145.111-.144.112-.143.113-.143.113-.142.115-.141.115-.141.116-.139.117-.14.118-.138.118-.138.12-.137.12-.136.121-.135.122-.135.122-.134.124-.134.124-.132.125-.132.125-.131.127-.13.127-.13.128-.129.129-.128.13-.127.13-.127.131-.125.132-.125.132-.124.134-.124.134-.122.135-.122.135-.121.136-.12.137-.12.138-.118.138-.118.14-.117.139-.116.141-.115.141-.115.142-.113.143-.113.143-.112.144-.111.145-.111.145-.109.146-.109.147-.107.147-.107.148-.106.149-.105.149-.104.15-.104.151-.102.151-.102.152-.101.153-.099.153-.099.154-.098.154-.098.155-.096.156-.095.156-.094.157-.094.158-.092.158-.092.159-.091.159-.09.16-.088.161-.088.161-.087.162-.086.162-.085.163-.084.163-.083.164-.083.165-.081.165-.08.166-.079.166-.079.167-.077.167-.076.168-.076.168-.074.169-.073.17-.073.17-.071.17-.07.171-.07.172-.068.172-.067.172-.066.173-.066.174-.064.174-.063.175-.062.175-.061.175-.06.176-.059.177-.058.177-.057.177-.056.178-.055.178-.054.179-.052.18-.052.179-.05.181-.05.18-.048.181-.047.182-.046.182-.046.182-.043.183-.043.183-.042.184-.041.184-.039.184-.039.185-.037.185-.036.186-.035.186-.034.187-.033.186-.031.188-.031.187-.029.188-.028.189-.027.188-.026.189-.025.19-.023.19-.022.19-.022.19-.02.191-.018.192-.018.191-.016.192-.016.192-.014.193-.013.193-.011.193-.011.193-.009.194-.008.194-.007.195-.005.195-.004.195-.004.195-.001.196-.001h239.458l.196.001ZM30.296 16h-.12l-.093.001-.094.002-.093.002-.093.002-.093.004-.093.004-.092.004-.092.005-.092.005-.091.007-.091.006-.091.007-.091.008-.091.009-.09.008-.09.01-.09.01-.089.01-.089.011-.09.012-.088.012-.089.013-.088.013-.088.014-.088.014-.088.015-.087.015-.088.016-.087.017-.086.017-.087.017-.086.018-.086.018-.086.019-.086.02-.085.02-.085.021-.085.021-.085.021-.085.022-.084.023-.084.023-.084.023-.084.025-.084.024-.083.025-.083.026-.083.026-.082.026-.083.028-.082.027-.082.028-.082.029-.081.029-.082.029-.081.03-.081.031-.081.031-.08.031-.08.032-.08.033-.08.033-.08.033-.079.034-.079.034-.079.035-.079.035-.078.036-.078.036-.078.037-.078.037-.078.038-.077.038-.077.039-.077.039-.076.039-.077.04-.076.041-.076.041-.075.041-.075.042-.075.042-.075.043-.075.043-.074.044-.074.044-.074.044-.073.045-.073.046-.073.045-.073.047-.072.046-.073.048-.071.047-.072.048-.071.049-.071.049-.071.049-.07.05-.07.05-.07.051-.07.051-.069.051-.069.052-.068.052-.069.053-.068.053-.067.053-.068.054-.067.055-.066.054-.067.056-.066.055-.066.056-.065.056-.065.057-.065.057-.064.058-.064.057-.064.059-.063.058-.063.059-.063.06-.062.06-.062.06-.062.06-.061.061-.061.061-.06.062-.06.062-.06.062-.06.063-.059.063-.058.063-.059.064-.057.064-.058.064-.057.065-.057.065-.056.065-.056.066-.055.066-.056.067-.054.066-.055.067-.054.068-.053.067-.053.068-.053.069-.052.068-.052.069-.051.069-.051.07-.051.07-.05.07-.05.07-.049.071-.049.071-.049.071-.048.072-.047.071-.048.073-.046.072-.047.073-.045.073-.046.073-.045.073-.044.074-.044.074-.044.074-.043.075-.043.075-.042.075-.042.075-.041.075-.041.076-.041.076-.04.077-.039.076-.039.077-.039.077-.038.077-.038.078-.037.078-.037.078-.036.078-.036.078-.035.079-.035.079-.034.079-.034.079-.033.08-.033.08-.033.08-.032.08-.031.08-.031.081-.031.081-.03.081-.029.082-.029.081-.029.082-.028.082-.027.082-.028.083-.026.082-.026.083-.026.083-.025.083-.024.084-.025.084-.023.084-.023.084-.023.084-.022.085-.021.085-.021.085-.021.085-.02.085-.02.086-.019.086-.018.086-.018.086-.017.087-.017.086-.017.087-.016.088-.015.087-.015.088-.014.088-.014.088-.013.088-.013.089-.012.088-.012.09-.011.089-.01.089-.01.09-.01.09-.008.09-.009.091-.008.091-.007.091-.006.091-.007.091-.005.092-.005.092-.004.092-.004.093-.004.093-.002.093-.002.093-.002.094-.001.093v239.648l.001.093.004.187.002.093.008.186.004.092.01.184.007.091.006.091.007.091.008.091.009.091.008.09.02.18.01.089.011.089.012.09.012.088.013.089.013.088.028.176.015.088.015.087.016.087.051.261.018.086.019.086.018.086.02.086.02.085.021.085.021.086.021.084.022.085.069.252.025.084.024.084.025.083.078.249.028.082.027.082.028.082.029.082.029.081.029.082.03.081.062.162.031.08.032.08.099.24.034.08.034.078.07.158.072.156.074.156.038.078.038.077.117.231.04.076.04.075.041.076.042.077.042.074.042.075.043.075.043.074.044.075.088.148.09.146.047.074.092.144.048.073.048.072.047.071.049.071.048.071.05.071.05.07.05.071.051.069.05.069.052.07.052.069.052.068.053.069.053.068.053.067.055.068.054.067.055.067.054.065.056.067.056.066.056.065.114.13.057.064.058.064.118.128.059.062.058.062.061.064.06.061.06.062.122.122.062.061.061.059.126.12.063.059.063.058.064.059.064.057.064.058.13.114.065.056.066.056.066.055.067.056.066.054.068.055.067.054.067.053.136.106.068.052.07.052.069.052.069.05.071.051.14.1.071.05.071.048.071.049.071.048.073.047.072.048.072.047.072.045.073.046.074.046.073.045.074.044.074.045.148.086.076.043.074.042.075.042.152.082.077.041.076.04.077.039.076.04.231.114.078.037.078.036.079.037.079.036.156.07.079.034.08.034.081.034.078.032.081.033.081.032.079.031.162.062.082.03.081.029.08.029.083.029.164.056.083.027.164.052.085.026.083.025.082.024.084.024.085.024.168.046.085.022.086.022.083.02.086.021.085.02.085.019.087.02.172.036.086.017.088.017.087.017.087.016.174.03.088.014.089.014.176.026.091.012.088.012.089.011.089.01.18.02.09.008.09.009.091.008.184.014.091.006.09.005.093.005.093.004.092.004.093.004.092.002.188.004.093.001h239.648l.093-.001.094-.002.094-.002.092-.002.093-.004.092-.004.093-.004.093-.005.09-.005.091-.006.092-.007.092-.007.091-.008.09-.009.09-.008.09-.01.09-.01.089-.01.089-.011.088-.012.091-.012.088-.013.088-.013.089-.014.088-.014.087-.015.087-.015.087-.016.087-.017.088-.017.086-.017.086-.018.086-.018.087-.02.085-.019.085-.02.086-.021.084-.02.085-.022.085-.022.084-.023.084-.023.085-.024.084-.024.082-.024.083-.025.085-.026.082-.026.082-.026.083-.028.082-.027.082-.028.082-.029.081-.029.081-.029.082-.03.081-.031.081-.031.079-.031.081-.032.081-.033.078-.032.081-.034.081-.034.077-.034.078-.035.079-.035.079-.036.079-.036.078-.037.078-.037.077-.038.076-.038.078-.039.077-.039.076-.039.077-.04.075-.04.076-.041.077-.043.074-.041.075-.042.076-.043.074-.043.074-.043.074-.045.074-.044.073-.045.073-.046.074-.046.072-.045.071-.047.074-.048.072-.048.071-.047.071-.049.07-.048.072-.05.07-.05.071-.05.07-.051.068-.05.07-.052.07-.053.067-.051.069-.053.068-.053.067-.053.067-.054.068-.055.067-.055.065-.054.067-.057.066-.055.065-.056.065-.057.064-.057.065-.058.064-.057.064-.059.064-.059.062-.058.063-.06.063-.06.061-.059.062-.061.061-.061.061-.061.061-.062.059-.061.06-.063.06-.063.058-.062.059-.064.059-.064.057-.064.058-.065.057-.064.057-.065.056-.065.055-.066.057-.067.054-.065.055-.067.055-.068.054-.067.053-.067.053-.068.053-.069.051-.067.053-.07.052-.07.05-.068.051-.07.05-.071.05-.07.05-.072.048-.07.049-.071.047-.071.048-.072.048-.074.047-.071.045-.072.046-.074.046-.073.045-.073.044-.074.045-.074.043-.074.043-.074.043-.076.042-.075.041-.074.043-.077.041-.076.04-.075.04-.077.039-.076.039-.077.039-.078.038-.076.038-.077.037-.078.037-.078.036-.079.036-.079.035-.079.035-.078.034-.077.034-.081.034-.081.032-.078.033-.081.032-.081.031-.079.031-.081.031-.081.03-.082.029-.081.029-.081.029-.082.028-.082.027-.082.028-.083.026-.082.026-.082.026-.085.025-.083.024-.082.024-.084.024-.085.023-.084.023-.084.022-.085.022-.085.02-.084.021-.086.02-.085.019-.085.02-.087.018-.086.018-.086.017-.086.017-.088.017-.087.016-.087.015-.087.015-.087.014-.088.014-.089.013-.088.013-.088.012-.091.012-.088.011-.089.01-.089.01-.09.01-.09.008-.09.009-.09.008-.091.007-.092.007-.092.006-.091.005-.09.005-.093.004-.093.004-.092.004-.093.002-.092.002-.094.002-.094.001-.093V30.176l-.001-.093-.002-.094-.002-.094-.002-.092-.004-.093-.004-.092-.004-.093-.005-.093-.005-.09-.006-.091-.007-.092-.007-.092-.008-.091-.009-.09-.008-.09-.01-.09-.01-.09-.01-.089-.011-.089-.012-.088-.012-.091-.013-.088-.013-.088-.014-.089-.014-.088-.015-.087-.015-.087-.016-.087-.017-.087-.017-.088-.017-.086-.018-.086-.018-.086-.02-.087-.019-.085-.02-.085-.021-.086-.02-.083-.022-.086-.022-.085-.023-.084-.023-.084-.024-.085-.024-.084-.024-.082-.025-.083-.026-.085-.026-.082-.026-.082-.027-.083-.028-.082-.028-.082-.029-.083-.029-.08-.029-.081-.03-.082-.031-.081-.031-.081-.031-.079-.032-.081-.033-.081-.032-.078-.034-.081-.034-.08-.034-.079-.035-.078-.035-.078-.036-.079-.037-.079-.036-.078-.037-.078-.038-.077-.038-.077-.038-.077-.04-.076-.039-.077-.04-.076-.041-.077-.041-.076-.041-.076-.042-.075-.042-.074-.043-.076-.043-.074-.043-.074-.045-.074-.044-.074-.045-.073-.046-.074-.046-.073-.045-.072-.047-.072-.048-.072-.047-.073-.048-.071-.049-.071-.048-.071-.05-.071-.05-.07-.05-.07-.051-.071-.05-.069-.052-.069-.052-.07-.052-.068-.053-.068-.053-.068-.053-.067-.054-.067-.055-.068-.054-.066-.056-.067-.055-.066-.056-.066-.056-.065-.057-.065-.057-.065-.058-.064-.057-.064-.059-.064-.058-.063-.059-.063-.06-.063-.06-.063-.059-.061-.061-.062-.061-.061-.061-.061-.062-.06-.061-.06-.064-.061-.062-.058-.062-.059-.064-.059-.064-.059-.064-.058-.064-.057-.065-.057-.065-.057-.065-.056-.066-.056-.067-.056-.065-.054-.067-.055-.067-.054-.068-.055-.067-.053-.068-.053-.069-.053-.068-.052-.069-.052-.07-.052-.069-.05-.069-.051-.071-.05-.07-.05-.071-.05-.071-.048-.071-.049-.071-.047-.072-.048-.073-.048-.072-.046-.072-.046-.074-.047-.073-.045-.073-.045-.074-.044-.074-.044-.075-.044-.074-.043-.075-.043-.075-.042-.074-.042-.077-.042-.076-.041-.075-.04-.076-.04-.077-.039-.077-.039-.077-.039-.077-.038-.078-.038-.078-.037-.078-.037-.078-.036-.078-.036-.079-.035-.079-.035-.078-.034-.08-.034-.08-.033-.08-.033-.08-.033-.08-.032-.08-.031-.081-.031-.081-.031-.081-.03-.082-.029-.081-.029-.082-.029-.082-.028-.082-.027-.082-.028-.083-.026-.083-.026-.083-.026-.083-.025-.084-.024-.084-.025-.084-.023-.084-.023-.084-.023-.085-.022-.084-.021-.086-.021-.085-.021-.085-.02-.086-.02-.086-.018-.086-.019-.086-.018-.087-.017-.087-.017-.087-.017-.087-.016-.087-.015-.088-.015-.088-.014-.088-.014-.088-.013-.089-.013-.088-.012-.09-.012-.089-.011-.089-.01-.09-.01-.09-.01-.09-.008-.091-.009-.091-.008-.091-.007-.091-.006-.091-.007-.092-.005-.092-.005-.092-.004-.093-.004-.093-.004-.093-.002-.093-.002-.094-.002-.093-.001H30.296Z" style="fill:#2d67b9"/>
    <g>
        <path d="M94.657 208.957h-1.486v-.027c-21.178-.783-38.132-18.223-38.132-39.592 0-19.576 14.229-35.855 32.9-39.05v-.161c0-35.453 28.783-64.237 64.237-64.237 35.454 0 64.238 28.784 64.238 64.237 0 .271-.002.538-.005.804 19.045 3.122 33.574 19.29 33.574 38.74 0 21.683-18.054 39.286-40.293 39.286H94.657Zm105.717-77.514.019-.004c.011-.436.017-.873.017-1.312 0-26.621-21.613-48.234-48.234-48.234-4.677 0-9.199.667-13.476 1.911-20.932 5.493-36.369 24.279-36.369 46.582a47.305 47.305 0 0 0 3.775 18.568 23.546 23.546 0 0 0-11.449-2.952c-13.063 0-23.669 10.606-23.669 23.669 0 13.064 10.606 23.67 23.669 23.67h115.614c13.064 0 23.67-10.606 23.67-23.67 0-13.063-10.606-23.669-23.67-23.669a23.56 23.56 0 0 0-14.616 5.056 47.28 47.28 0 0 0 4.719-19.615Z" style="fill:#2d67b9" transform="translate(-2.511 12.577)"/>
        <path d="m152.591 65.891.415.004.414.007.413.009.413.012.412.014.411.017.411.019.41.023.409.024.409.027.407.03.408.033.406.034.406.038.405.04.404.042.404.045.403.047.402.05.401.053.401.054.399.058.399.059.398.063.398.064.396.067.396.07.395.072.394.074.393.077.392.079.392.081.39.084.39.086.389.089.388.091.387.093.386.096.385.098.384.1.384.102.382.105.381.107.381.11.379.112.379.114.378.116.376.118.376.121.374.123.374.125.372.128.372.129.37.132.37.134.368.137.367.138.366.141.366.142.364.145.363.148.361.149.361.151.36.154.358.155.358.158.356.16.355.162.354.164.353.166.351.168.351.171.349.172.348.174.347.177.345.178.345.181.343.182.342.185.341.186.339.189.338.19.337.193.336.194.334.196.333.199.332.2.33.202.33.205.327.206.327.208.325.21.324.211.322.214.321.216.32.217.319.22.316.221.316.223.314.225.313.226.311.229.31.23.309.233.307.234.305.235.304.238.303.239.301.242.3.242.298.245.297.247.295.248.294.25.292.251.291.254.289.255.287.256.286.259.285.26.283.262.281.263.28.265.278.267.277.269.275.27.273.271.272.274.27.275.268.276.267.278.265.28.264.281.261.283.261.285.258.286.257.287.255.29.253.29.252.292.25.294.248.295.246.297.245.298.243.3.241.301.239.303.238.304.236.306.234.307.232.308.23.31.229.311.227.313.224.314.224.316.221.317.219.318.218.32.215.321.214.322.212.324.21.325.208.327.206.328.204.329.202.33.2.332.199.333.196.335.195.335.192.337.191.338.188.34.187.34.184.342.183.343.18.345.179.346.176.346.174.348.173.35.17.35.168.352.166.352.164.354.162.355.16.357.158.357.156.359.153.359.152.361.149.362.147.363.145.364.143.365.14.366.139.367.136.369.134.369.132.371.13.371.127.373.125.373.123.375.121.375.119.377.116.377.114.379.112.379.109.381.107.381.105.383.103.383.1.384.098.385.095.387.094.387.09.387.089.389.086.39.084.391.082.391.079.392.076.393.075.395.072.394.069.396.067.397.065.397.062.398.06.399.057.4.055.4.052.402.05.402.047.402.045.404.043.404.04.405.037.406.035.407.032.407.03.408.027.408.025.41.022.41.019.41.017.412.015.412.012.412.009.414.006.414.004.414.002.415-.001.404-.004.4.223.037.223.038.222.04.222.041.221.042.221.043.22.044.22.045.22.047.219.048.218.049.219.05.217.051.218.052.216.054.217.055.216.055.215.057.215.059.214.059.214.06.214.062.213.062.212.064.212.065.212.066.211.067.21.068.21.069.21.07.208.072.209.072.208.074.207.074.207.076.206.077.206.078.205.079.204.08.205.081.203.082.203.083.202.084.202.085.402.174.2.088.2.09.199.09.198.091.198.093.197.093.392.19.196.097.194.097.388.198.193.101.192.101.192.103.191.103.38.21.189.106.376.216.187.109.187.11.37.224.185.113.184.114.183.115.364.232.181.118.36.238.179.121.178.121.178.123.177.123.176.124.176.125.174.126.174.127.174.128.172.128.172.13.171.13.171.131.338.266.168.133.168.135.332.272.165.137.328.278.163.139.162.141.161.142.16.142.16.143.159.144.158.145.157.145.157.147.155.147.155.148.154.149.306.3.151.151.151.153.15.152.149.154.148.154.147.155.147.156.146.157.288.316.143.159.143.16.141.16.14.161.14.162.139.163.138.163.137.165.136.165.135.165.268.334.132.167.132.169.13.169.13.17.129.171.128.171.127.172.126.173.125.173.124.174.123.175.123.176.121.176.24.354.118.178.118.179.116.179.116.18.115.181.226.364.112.182.22.368.109.184.108.185.106.186.106.187.105.187.103.187.103.189.102.189.1.189.1.19.099.191.097.191.097.192.095.192.095.193.093.194.092.194.092.195.09.195.089.196.088.196.087.197.086.198.085.198.084.198.082.2.082.199.081.201.079.2.078.202.078.201.076.203.075.203.074.203.073.204.071.204.071.205.069.205.069.206.067.207.066.207.065.207.126.416.122.418.059.21.058.21.057.211.11.422.053.212.052.213.051.213.05.213.096.428.046.215.045.215.044.215.084.432.04.217.039.217.074.436.035.218.034.219.033.219.062.44.029.22.027.22.027.222.025.221.024.222.023.222.021.222.02.223.019.223.018.224.016.224.015.224.014.225.013.225.011.225.01.225.008.226.008.227.006.226.004.227.003.227.002.228.001.227-.001.254-.002.254-.004.253-.006.253-.007.252-.009.252-.011.252-.012.251-.014.251-.016.25-.017.25-.018.249-.021.249-.022.249-.023.248-.025.248-.027.247-.028.247-.03.246-.031.246-.033.246-.034.244-.036.245-.038.244-.039.243-.04.243-.042.243-.044.242-.045.241-.046.241-.049.241-.049.24-.051.239-.053.239-.054.238-.055.238-.057.237-.059.237-.06.236-.061.236-.063.235-.065.234-.065.234-.068.233-.068.233-.07.232-.072.231-.073.231-.074.231-.076.229-.077.229-.078.229-.08.228-.082.227-.082.226-.085.226-.085.226-.087.224-.088.224-.09.223-.091.223-.092.222-.093.221-.095.221-.097.22-.097.219-.099.219-.101.218-.101.217-.103.216-.104.216-.106.215-.107.214-.108.214-.109.213-.111.212-.112.211-.113.211-.114.21-.116.209-.117.208-.118.208-.12.207-.12.206-.122.205-.124.204-.124.204-.126.203-.127.202-.128.201-.129.201-.13.199-.132.199-.133.198-.134.198-.135.196-.137.195-.137.195-.139.194-.14.193-.141.192-.142.191-.144.191-.144.189-.146.189-.146.188-.148.187-.149.186-.151.185-.151.184-.152.183-.154.183-.154.181-.156.181-.157.179-.157.179-.159.178-.16.177-.161.175-.162.175-.164.174-.164.173-.165.172-.166.171-.168.171-.168.169-.17.168-.17.167-.171.166-.173.165-.173.165-.175.163-.175.162-.177.161-.177.16-.179.159-.179.158-.18.157-.182.156-.182.155-.183.154-.185.153-.185.152-.186.15-.187.15-.188.149-.189.147-.19.146-.191.146-.191.144-.193.143-.193.142-.195.141-.195.14-.196.138-.197.138-.198.136-.199.136-.2.134-.2.133-.202.132-.202.13-.203.13-.204.128-.205.127-.205.127-.207.124-.207.124-.208.123-.209.121-.21.12-.21.119-.212.118-.212.116-.213.115-.213.114-.215.113-.215.112-.216.11-.217.109-.217.108-.219.107-.219.105-.22.104-.22.103-.221.102-.222.1-.223.099-.224.098-.224.097-.225.095-.225.094-.227.092-.226.092-.228.089-.229.089-.229.087-.229.086-.231.085-.231.083-.231.082-.233.081-.233.079-.233.078-.235.077-.235.075-.235.074-.236.073-.237.071-.238.069-.238.069-.238.067-.24.065-.239.064-.241.063-.241.061-.242.06-.242.059-.242.057-.244.055-.244.054-.244.053-.245.051-.246.05-.246.049-.246.047-.247.045-.248.044-.248.042-.249.041-.249.04-.25.038-.25.037-.251.035-.251.033-.252.032-.252.031-.253.029-.253.027-.254.026-.254.024-.254.023-.255.022-.256.019-.255.019-.257.016-.256.015-.258.014-.257.012-.258.01-.259.009-.258.007-.26.006-.259.004-.26.002-.261.001H93.171v-.027l-.248-.01-.247-.012-.248-.013-.246-.014-.247-.016-.246-.018-.245-.019-.245-.02-.245-.022-.245-.024-.243-.025-.244-.026-.243-.028-.242-.029-.242-.031-.242-.032-.241-.034-.241-.035-.24-.037-.24-.038-.239-.039-.239-.041-.239-.043-.237-.043-.238-.045-.237-.047-.236-.048-.236-.049-.235-.051-.235-.052-.234-.054-.234-.055-.233-.056-.233-.058-.232-.059-.231-.06-.231-.062-.231-.063-.23-.065-.229-.066-.229-.067-.228-.069-.228-.069-.227-.072-.226-.072-.226-.074-.226-.075-.224-.077-.224-.077-.224-.079-.223-.081-.222-.082-.221-.082-.221-.085-.221-.085-.22-.087-.219-.088-.218-.089-.218-.091-.217-.092-.216-.093-.216-.094-.215-.096-.215-.097-.213-.098-.214-.099-.212-.101-.212-.101-.211-.103-.21-.105-.21-.105-.208-.106-.209-.108-.207-.109-.207-.11-.206-.112-.205-.112-.205-.114-.203-.115-.204-.116-.202-.117-.201-.118-.201-.12-.2-.12-.199-.122-.199-.123-.198-.124-.197-.125-.196-.127-.195-.127-.195-.129-.193-.129-.193-.131-.192-.132-.192-.133-.19-.134-.19-.135-.189-.136-.188-.138-.187-.138-.186-.139-.186-.141-.184-.142-.184-.142-.183-.144-.182-.145-.181-.145-.18-.147-.18-.148-.178-.149-.178-.15-.177-.151-.176-.152-.175-.153-.174-.153-.173-.155-.172-.156-.171-.157-.171-.158-.169-.159-.169-.16-.167-.161-.167-.162-.166-.163-.164-.163-.164-.165-.163-.166-.162-.166-.161-.168-.16-.168-.159-.17-.158-.17-.157-.171-.156-.173-.155-.173-.154-.174-.153-.175-.152-.175-.151-.177-.149-.178-.149-.178-.148-.18-.147-.18-.146-.181-.145-.182-.143-.183-.143-.184-.142-.184-.14-.186-.14-.186-.138-.187-.138-.188-.136-.189-.135-.19-.134-.19-.133-.191-.132-.192-.131-.193-.129-.194-.129-.195-.128-.195-.126-.196-.125-.197-.124-.197-.123-.199-.122-.199-.121-.2-.119-.201-.119-.201-.117-.203-.116-.203-.115-.203-.114-.205-.112-.205-.112-.206-.11-.207-.109-.207-.108-.209-.106-.208-.106-.21-.104-.21-.103-.211-.102-.212-.1-.212-.099-.213-.099-.214-.096-.214-.096-.216-.095-.215-.093-.217-.092-.217-.09-.218-.09-.218-.088-.219-.087-.22-.085-.22-.084-.221-.083-.222-.082-.222-.081-.223-.079-.223-.078-.224-.076-.225-.075-.225-.074-.226-.073-.226-.071-.227-.07-.228-.069-.228-.067-.229-.066-.229-.064-.23-.064-.231-.061-.231-.061-.231-.059-.232-.058-.233-.056-.233-.055-.234-.054-.234-.052-.235-.051-.235-.049-.236-.048-.236-.047-.237-.045-.237-.044-.238-.042-.239-.041-.238-.04-.24-.038-.239-.037-.241-.035-.24-.034-.242-.032-.241-.031-.242-.029-.243-.028-.243-.027-.243-.025-.244-.023-.244-.022-.245-.021-.245-.019-.246-.017-.246-.016-.246-.015-.247-.013-.247-.011-.248-.01-.248-.009-.248-.007-.249-.005-.249-.004-.249-.002-.25-.001-.251v-.229l.002-.229.004-.228.004-.229.006-.228.007-.227.009-.228.009-.227.011-.227.012-.226.014-.226.015-.226.016-.225.017-.225.018-.225.02-.224.021-.224.022-.224.024-.223.025-.223.026-.222.027-.222.028-.222.03-.221.031-.221.032-.221.033-.22.035-.22.035-.219.037-.219.038-.219.04-.218.04-.218.042-.217.043-.217.044-.216.045-.216.046-.216.048-.215.049-.215.05-.214.051-.214.052-.214.053-.213.055-.212.055-.212.057-.212.058-.211.059-.21.06-.211.062-.209.062-.21.064-.208.064-.209.066-.207.067-.208.068-.206.069-.207.07-.205.072-.206.072-.204.074-.205.074-.203.076-.203.077-.203.077-.202.079-.202.08-.201.081-.2.082-.2.083-.2.085-.199.085-.198.086-.198.088-.197.088-.197.089-.196.091-.195.091-.195.093-.194.093-.194.095-.193.095-.193.097-.192.098-.191.098-.191.1-.19.1-.19.102-.189.102-.188.104-.188.105-.187.105-.187.107-.186.107-.185.109-.185.109-.184.11-.183.112-.183.112-.182.113-.181.114-.181.116-.18.116-.179.117-.179.118-.178.118-.177.12-.177.121-.176.122-.176.122-.174.124-.174.124-.174.125-.172.127-.172.127-.171.128-.171.129-.17.13-.169.13-.168.132-.168.132-.167.134-.166.134-.165.135-.165.136-.164.136-.163.138-.162.139-.162.139-.161.14-.16.141-.16.142-.159.143-.157.143-.158.145-.156.145-.156.146-.154.147-.154.148-.154.148-.152.149-.152.15-.151.151-.15.152-.149.152-.148.154-.148.154-.147.155-.146.155-.145.157-.144.157-.144.158-.142.159-.142.159-.141.16-.14.161-.14.162-.138.163-.138.163-.137.164-.135.165-.135.165-.135.166-.133.167-.132.168-.132.168-.13.169-.13.17-.129.171-.128.171-.127.172-.126.173-.125.173-.125.174-.123.175-.123.175-.121.176-.121.177-.12.177-.119.179-.118.178-.117.18-.116.18-.115.181-.114.181-.113.182-.112.183-.111.183-.111.184-.109.185-.109.185-.107.186-.106.187-.106.187-.104.188-.104.188-.102.189-.102.19-.1.19-.1.191-.099.191-.097.192-.097.193-.095.193-.095.194-.093.194-.093.195-.091.196-.09.196-.09.197-.088.197-.087.198-.087.198-.085.199-.084.199-.083.2-.082.201-.081.201-.08.202-.079.202-.077.202-.077.204-.076.203-.074.205-.074.204-.072.206-.071.205-.07.207-.069.206-.068.208-.067.208-.066.208-.065.209-.063.209-.063.21-.061.21-.06.21-.059.212-.058.211-.057.212-.055.213-.055.213-.053.213-.052.214-.051.214-.05.215-.048.215-.048.216-.046.216-.045.217-.044.217-.043.217-.042.218-.04.218-.039.219-.039v-.161l.001-.415.004-.414.006-.414.01-.414.011-.412.015-.412.017-.412.019-.41.022-.41.025-.41.027-.408.03-.408.032-.407.035-.407.038-.406.039-.405.043-.404.045-.404.047-.402.05-.402.052-.402.055-.4.057-.4.06-.399.062-.398.065-.397.067-.397.07-.396.071-.394.075-.395.076-.393.08-.392.081-.391.084-.391.086-.39.089-.389.091-.387.093-.387.095-.387.098-.385.101-.384.102-.383.105-.383.107-.381.11-.381.111-.379.114-.379.117-.377.118-.377.121-.375.123-.375.125-.373.127-.373.13-.371.132-.371.134-.369.136-.369.139-.367.14-.366.143-.365.145-.364.147-.363.15-.362.151-.361.153-.359.156-.359.158-.357.16-.357.162-.355.164-.354.166-.352.168-.352.17-.35.173-.35.174-.348.176-.346.179-.346.18-.345.183-.343.184-.342.187-.34.188-.34.191-.338.192-.337.195-.335.196-.335.199-.333.2-.332.202-.33.204-.329.206-.328.208-.327.21-.325.212-.324.214-.322.216-.321.217-.32.219-.318.222-.317.223-.316.225-.314.226-.313.229-.311.23-.31.232-.308.234-.307.236-.306.238-.304.239-.303.241-.301.243-.3.245-.298.246-.297.248-.295.25-.294.252-.292.253-.29.255-.29.257-.287.259-.286.26-.285.262-.283.263-.281.265-.28.267-.278.268-.276.27-.275.272-.274.273-.271.275-.27.277-.269.278-.267.28-.265.281-.263.283-.262.285-.26.286-.259.287-.256.289-.255.291-.254.292-.251.294-.25.295-.248.297-.247.298-.245.3-.242.301-.242.303-.239.304-.238.305-.235.307-.234.309-.233.31-.23.311-.229.313-.226.314-.225.316-.223.317-.221.318-.22.32-.217.321-.216.322-.214.324-.211.325-.21.327-.208.327-.206.33-.205.33-.202.332-.2.333-.199.334-.196.336-.194.337-.193.338-.19.339-.189.341-.186.342-.185.343-.182.345-.181.345-.178.347-.177.348-.174.349-.172.351-.171.351-.168.353-.166.354-.164.355-.162.356-.16.358-.158.358-.155.36-.154.361-.151.362-.149.362-.148.365-.145.365-.142.366-.141.367-.138.369-.137.369-.134.37-.132.372-.129.372-.128.374-.125.374-.123.376-.121.377-.118.377-.116.379-.114.379-.112.381-.11.381-.107.382-.105.384-.102.384-.1.385-.098.386-.096.387-.093.388-.091.389-.089.39-.086.39-.084.392-.081.392-.079.393-.077.394-.074.395-.072.396-.07.396-.067.398-.064.398-.063.399-.059.399-.058.401-.054.401-.053.402-.05.403-.047.404-.045.404-.042.405-.04.406-.038.406-.034.408-.033.408-.03.408-.027.409-.024.41-.023.411-.019.411-.017.412-.014.413-.012.413-.009.414-.007.415-.004.415-.001.415.001Zm-.634 16.003-.219.001-.219.003-.218.003-.218.004-.218.006-.218.006-.217.007-.218.009-.217.009-.216.01-.217.011-.216.012-.216.013-.216.014-.215.015-.215.016-.215.016-.215.018-.214.019-.215.019-.213.021-.214.021-.213.023-.213.023-.213.024-.213.026-.212.026-.212.027-.211.028-.212.028-.211.03-.211.031-.21.031-.21.033-.21.033-.21.035-.209.035-.209.036-.209.037-.208.038-.208.039-.208.039-.207.041-.207.041-.207.043-.207.043-.206.044-.206.045-.205.046-.205.046-.205.048-.205.048-.204.05-.204.05-.203.051-.203.052-.203.053-.202.053-.202.055-.202.055-.202.056-.201.057-.2.058-.245.065-.245.066-.244.068-.243.068-.243.07-.243.071-.242.072-.241.074-.241.074-.241.076-.239.077-.24.078-.238.08-.239.08-.237.082-.237.083-.237.084-.236.085-.235.086-.235.087-.234.089-.234.09-.233.091-.232.092-.232.093-.232.094-.23.095-.23.097-.23.098-.229.098-.228.1-.228.101-.227.102-.226.103-.226.105-.225.105-.225.107-.224.107-.223.109-.223.109-.222.111-.221.112-.221.113-.22.114-.219.115-.219.116-.218.117-.217.119-.217.119-.216.12-.216.122-.214.122-.214.123-.214.125-.212.125-.212.127-.211.128-.211.128-.209.13-.21.13-.208.132-.208.132-.206.134-.207.135-.205.135-.205.137-.204.137-.203.139-.203.14-.201.14-.201.142-.2.142-.2.143-.199.145-.198.145-.197.146-.196.148-.196.148-.195.149-.194.15-.193.151-.193.152-.191.153-.191.154-.19.154-.189.156-.189.157-.188.157-.186.158-.186.16-.186.16-.184.161-.184.162-.182.163-.182.164-.181.164-.18.166-.18.166-.178.168-.178.168-.177.169-.176.17-.175.17-.174.172-.173.172-.173.174-.171.174-.171.175-.17.176-.169.176-.167.178-.168.178-.166.179-.165.18-.164.181-.164.182-.163.182-.161.183-.161.184-.16.185-.159.186-.157.186-.157.188-.156.188-.156.188-.154.19-.153.19-.152.191-.152.192-.15.193-.149.193-.149.195-.147.194-.146.196-.146.197-.144.197-.144.198-.142.198-.142.2-.14.2-.14.201-.139.201-.137.203-.137.203-.135.203-.134.205-.134.205-.132.206-.132.206-.13.208-.129.207-.129.209-.127.209-.126.21-.125.211-.124.211-.123.212-.122.213-.121.213-.12.214-.119.215-.117.215-.117.216-.116.217-.114.217-.113.218-.113.219-.111.219-.11.22-.109.22-.108.221-.106.222-.106.222-.104.223-.104.224-.102.224-.101.224-.1.226-.099.226-.098.226-.096.227-.096.228-.094.228-.093.229-.092.229-.091.23-.089.231-.089.231-.087.232-.086.232-.085.233-.084.233-.083.234-.081.234-.08.235-.079.236-.078.236-.077.236-.075.237-.074.238-.073.238-.072.239-.07.239-.07.239-.068.241-.067.24-.065.241-.065.242-.063.242-.062.243-.06.243-.06.243-.058.244-.057.245-.055.245-.054.245-.053.246-.052.247-.051.246-.049.248-.048.247-.047.249-.045.248-.044.249-.043.25-.041.25-.04.25-.039.251-.038.251-.036.252-.035.252-.033.252-.033.253-.03.253-.03.254-.028.254-.027.254-.026.255-.024.255-.023.256-.021.256-.02.256-.019.257-.017.257-.016.257-.015.258-.013.258-.012.259-.011.258-.009.26-.008.259-.006.26-.005.26-.003.261-.002.261-.001.261.001.308.003.308.005.307.007.307.008.306.011.306.013.305.014.305.017.305.018.303.021.304.022.303.024.302.026.302.028.301.03.301.031.3.034.3.035.299.038.298.039.298.041.298.042.297.045.296.047.296.048.295.05.294.052.294.054.293.055.293.057.292.059.291.061.291.063.29.064.29.067.289.067.288.07.288.072.286.073.287.075.285.076.285.079.284.08.284.081.282.084.282.085.282.087.28.089.28.09.279.092.279.093.277.096.277.097.277.098.275.1.275.102.274.104.273.105.272.107.272.108.27.11.27.111.269.114.269-.16-.088-.16-.086-.161-.085-.162-.084-.162-.083-.163-.082-.164-.08-.164-.079-.166-.078-.165-.077-.167-.075-.167-.074-.168-.073-.169-.072-.169-.07-.17-.069-.171-.068-.171-.066-.172-.065-.172-.064-.173-.063-.174-.061-.174-.06-.175-.059-.176-.057-.176-.056-.177-.055-.177-.053-.178-.052-.179-.05-.179-.05-.179-.047-.18-.047-.181-.045-.181-.044-.182-.042-.183-.041-.182-.039-.184-.038-.184-.037-.184-.035-.185-.034-.185-.032-.186-.031-.187-.03-.187-.028-.187-.026-.188-.025-.188-.024-.189-.022-.189-.021-.189-.019-.19-.018-.191-.016-.191-.014-.191-.013-.192-.012-.192-.01-.192-.009-.193-.007-.194-.005-.193-.004-.194-.002-.195-.001h-.153l-.152.002-.153.002-.152.004-.152.004-.152.005-.152.006-.151.008-.151.008-.151.009-.15.01-.151.011-.15.012-.15.013-.149.013-.149.015-.149.016-.149.016-.148.018-.149.018-.147.019-.148.021-.147.021-.147.022-.147.023-.146.024-.147.024-.145.026-.146.026-.145.028-.145.028-.144.029-.145.03-.144.031-.143.032-.143.032-.143.034-.143.034-.142.036-.142.036-.142.037-.141.037-.141.039-.14.039-.141.041-.139.041-.14.042-.139.043-.139.043-.138.045-.138.045-.138.046-.137.047-.137.048-.136.049-.137.049-.135.05-.136.051-.135.052-.134.053-.134.053-.134.054-.133.055-.133.056-.133.057-.132.057-.132.058-.131.059-.131.06-.13.06-.13.061-.13.062-.129.063-.128.064-.129.064-.127.065-.128.066-.127.066-.126.067-.126.068-.126.069-.125.07-.124.07-.124.071-.124.071-.123.073-.123.073-.122.074-.122.074-.121.075-.121.076-.12.077-.12.077-.12.078-.118.079-.119.08-.118.08-.117.081-.117.081-.116.082-.116.083-.115.084-.115.084-.114.085-.113.085-.114.087-.112.086-.112.088-.112.088-.111.089-.11.09-.11.09-.109.09-.109.092-.108.092-.108.093-.107.093-.107.094-.106.095-.105.095-.105.096-.104.096-.104.097-.103.098-.102.098-.102.099-.102.1-.1.1-.1.101-.1.101-.099.102-.098.102-.098.103-.097.104-.096.104-.096.105-.095.105-.095.106-.094.107-.093.107-.093.108-.092.108-.092.109-.09.109-.091.11-.089.11-.089.111-.088.112-.088.112-.087.113-.086.113-.085.113-.085.115-.084.114-.084.115-.083.116-.082.117-.082.116-.08.118-.081.117-.079.119-.079.119-.078.119-.077.12-.077.12-.076.121-.075.121-.074.122-.074.122-.073.123-.073.123-.071.124-.071.124-.071.124-.069.125-.069.126-.068.126-.067.126-.066.127-.066.128-.065.127-.064.129-.064.128-.063.13-.062.129-.061.13-.06.13-.06.131-.059.132-.058.131-.057.132-.057.133-.056.133-.055.133-.054.134-.053.134-.053.135-.052.135-.051.135-.05.136-.049.136-.049.136-.048.137-.047.137-.046.138-.045.138-.045.138-.043.139-.043.139-.042.14-.041.14-.041.14-.039.14-.039.141-.038.141-.037.142-.036.142-.035.142-.034.143-.034.143-.032.143-.032.144-.031.143-.03.145-.029.144-.028.145-.028.145-.026.146-.026.146-.025.146-.023.146-.023.147-.022.147-.021.147-.021.148-.019.148-.018.148-.018.148-.016.149-.016.149-.015.149-.013.15-.013.149-.012.15-.011.151-.01.15-.009.151-.008.151-.008.152-.006.151-.005.152-.005.152-.003.152-.002.153-.002.152v.306l.004.306.003.152.01.304.006.151.008.152.008.151.009.151.01.15.011.15.012.151.013.149.013.15.015.149.032.298.036.296.019.148.021.148.021.147.022.147.023.147.023.146.025.146.052.292.056.29.029.144.03.144.031.144.032.144.032.143.068.286.035.142.036.142.037.142.038.141.039.141.039.14.082.28.042.14.086.278.09.276.046.138.047.137.048.137.098.272.05.136.051.135.052.135.053.135.053.134.054.134.055.133.056.133.057.133.057.132.058.131.059.132.06.13.06.131.061.13.062.129.063.129.064.129.064.128.065.128.066.128.066.126.067.127.068.126.069.125.069.126.213.372.146.246.148.244.075.121.076.121.154.24.078.119.079.119.079.118.081.118.08.118.082.116.082.117.083.115.084.116.084.114.085.115.085.113.086.113.087.113.176.224.089.111.089.11.091.11.09.109.092.109.092.108.093.108.093.107.094.107.095.105.095.106.096.105.096.104.097.104.098.103.098.102.099.102.2.202.1.1.102.1.102.099.102.098.103.098.104.097.104.096.105.096.105.095.106.095.107.094.107.093.108.093.108.092.218.182.22.18.111.089.112.088.224.174.114.087.113.085.114.085.23.168.116.083.116.082.234.162.118.08.119.08.118.079.12.078.24.154.121.076.121.075.244.148.246.146.248.142.124.07.125.07.378.204.127.066.128.066.127.065.129.064.128.064.129.062.26.124.13.06.131.06.131.059.132.058.132.057.133.057.133.056.133.055.134.054.268.106.135.052.136.051.135.05.137.049.136.049.137.048.137.047.138.046.138.045.138.044.139.044.139.043.14.042.139.041.141.04.14.04.141.039.141.037.142.037.284.072.143.034.286.066.143.032.144.031.145.03.144.029.29.056.146.026.145.026.147.024.146.024.147.023.147.022.147.021.148.02.147.02.149.018.148.018.298.032.298.028.15.013.15.012.151.011.15.01.151.009.151.008.151.007.152.007.152.005.304.008.305.004h115.92l.153-.002.152-.002.153-.004.152-.004.151-.005.152-.007.151-.007.151-.008.151-.009.151-.01.15-.011.15-.012.15-.013.149-.014.15-.014.149-.016.148-.016.149-.018.148-.018.148-.02.147-.02.148-.021.147-.022.146-.023.147-.024.146-.024.146-.026.145-.026.145-.028.145-.028.145-.029.144-.03.144-.031.143-.032.144-.033.143-.033.142-.034.143-.036.141-.036.142-.037.141-.037.141-.039.141-.04.14-.04.14-.041.139-.042.139-.043.139-.044.138-.044.138-.045.138-.046.137-.047.137-.048.137-.049.136-.049.136-.05.135-.051.135-.052.134-.053.135-.053.133-.054.134-.055.133-.056.132-.057.132-.057.132-.058.131-.059.131-.06.13-.06.13-.062.13-.062.129-.062.129-.064.128-.064.128-.065.127-.066.127-.066.126-.068.126-.068.126-.068.125-.07.125-.07.124-.071.123-.071.124-.073.122-.073.123-.074.121-.074.122-.075.12-.076.121-.077.12-.077.119-.078.119-.079.118-.08.118-.08.117-.081.117-.081.116-.082.116-.083.115-.084.115-.084.114-.085.114-.085.113-.087.113-.087.112-.087.111-.088.111-.089.111-.09.109-.09.11-.091.109-.091.108-.092.107-.093.107-.093.107-.094.106-.095.105-.095.105-.096.104-.096.104-.097.103-.098.103-.098.102-.099.101-.1.101-.1.1-.101.099-.101.099-.102.098-.102.098-.103.097-.104.097-.104.096-.105.095-.106.094-.105.094-.107.094-.107.092-.108.093-.108.091-.109.091-.109.09-.11.089-.11.089-.111.088-.112.088-.112.087-.113.086-.113.086-.113.085-.115.084-.114.083-.116.083-.115.082-.117.082-.116.081-.118.08-.118.079-.118.079-.119.078-.119.077-.12.077-.12.076-.121.075-.121.075-.122.074-.122.073-.123.072-.123.072-.124.071-.124.07-.124.069-.126.069-.125.068-.126.067-.127.067-.126.065-.128.065-.128.065-.128.063-.129.063-.129.062-.129.061-.13.061-.131.059-.13.059-.132.058-.131.058-.132.056-.133.056-.133.055-.133.054-.134.054-.134.052-.135.052-.135.051-.135.05-.136.05-.136.048-.136.048-.137.047-.137.046-.138.046-.138.044-.138.044-.139.043-.139.042-.14.041-.14.04-.14.039-.14.039-.141.038-.141.037-.142.036-.142.035-.142.035-.143.033-.143.033-.143.031-.144.031-.144.03-.144.029-.144.029-.145.027-.145.027-.146.025-.146.025-.146.024-.146.023-.147.022-.147.021-.147.02-.148.019-.148.019-.148.017-.148.017-.149.015-.149.015-.149.014-.15.013-.149.011-.151.011-.15.01-.15.01-.151.008-.151.007-.152.006-.151.005-.152.005-.152.003-.152.003-.153.001-.153.001-.153-.001-.153-.001-.152-.003-.153-.003-.152-.005-.152-.005-.152-.006-.151-.007-.152-.008-.151-.01-.151-.01-.15-.011-.151-.011-.15-.013-.149-.014-.15-.015-.149-.015-.149-.017-.149-.017-.148-.019-.148-.019-.148-.02-.148-.021-.147-.022-.147-.023-.147-.024-.146-.025-.146-.025-.146-.027-.146-.027-.145-.029-.145-.029-.144-.03-.145-.031-.143-.031-.144-.033-.143-.033-.143-.035-.143-.035-.142-.036-.142-.037-.142-.038-.141-.039-.141-.039-.14-.04-.14-.041-.14-.042-.14-.043-.139-.044-.139-.044-.138-.046-.138-.046-.138-.047-.137-.048-.137-.048-.136-.05-.136-.05-.136-.051-.135-.052-.135-.052-.135-.054-.134-.054-.134-.055-.133-.056-.133-.056-.133-.058-.132-.058-.131-.059-.132-.059-.131-.061-.13-.061-.13-.062-.129-.063-.13-.063-.128-.065-.129-.065-.127-.065-.128-.067-.127-.067-.126-.068-.126-.069-.126-.069-.125-.07-.124-.071-.124-.072-.124-.072-.123-.073-.123-.074-.122-.075-.122-.075-.121-.076-.121-.077-.12-.077-.12-.078-.119-.079-.119-.079-.119-.08-.117-.081-.118-.082-.116-.082-.117-.083-.116-.083-.115-.084-.114-.085-.115-.086-.113-.086-.113-.087-.113-.088-.112-.088-.112-.089-.111-.089-.11-.09-.11-.091-.109-.091-.109-.093-.108-.092-.108-.094-.107-.094-.107-.094-.106-.095-.105-.096-.105-.097-.104-.097-.104-.098-.103-.098-.102-.099-.102-.099-.101-.1-.101-.101-.1-.101-.1-.102-.099-.103-.098-.103-.098-.104-.097-.104-.096-.105-.096-.105-.095-.106-.095-.107-.094-.107-.093-.107-.093-.108-.092-.109-.092-.11-.09-.109-.09-.111-.09-.111-.089-.111-.088-.112-.088-.113-.086-.113-.087-.114-.085-.114-.085-.115-.084-.115-.084-.116-.083-.116-.082-.117-.081-.117-.081-.118-.08-.118-.08-.119-.079-.119-.078-.12-.077-.121-.077-.12-.076-.122-.075-.121-.074-.123-.074-.122-.073-.124-.073-.123-.071-.124-.071-.125-.07-.125-.07-.126-.069-.126-.068-.126-.067-.127-.066-.127-.066-.128-.065-.128-.064-.129-.064-.129-.063-.13-.062-.13-.061-.13-.06-.131-.06-.131-.059-.132-.058-.132-.057-.132-.057-.133-.056-.134-.055-.133-.054-.135-.053-.134-.053-.135-.052-.135-.051-.136-.05-.136-.049-.137-.049-.137-.048-.137-.047-.138-.046-.138-.045-.138-.045-.139-.043-.139-.043-.139-.042-.14-.041-.14-.041-.141-.039-.141-.039-.141-.037-.142-.037-.141-.036-.143-.036-.142-.034-.143-.034-.144-.032-.143-.032-.144-.031-.144-.03-.145-.029-.145-.028-.145-.028-.145-.026-.146-.026-.146-.024-.147-.024-.146-.023-.147-.022-.148-.021-.147-.021-.148-.019-.148-.018-.149-.018-.148-.016-.149-.016-.15-.015-.149-.013-.15-.013-.15-.012-.15-.011-.151-.01-.151-.009-.151-.008-.151-.008-.152-.006-.151-.005-.152-.004-.153-.004-.152-.002-.153-.002h-.153l-.258.001-.258.004-.256.007-.257.01-.255.012-.255.015-.254.018-.253.02-.253.023-.251.026-.251.028-.25.031-.25.034-.248.036-.248.038-.247.042-.246.043-.245.047-.244.048-.243.052-.243.054-.241.056-.241.059-.239.061-.239.063-.237.066-.237.069-.235.071-.235.073-.233.075-.233.078-.231.08-.23.083-.229.085-.228.087-.227.089-.226.092-.225.094-.223.096-.222.099-.221.1-.22.103-.218.105-.218.107-.216.109-.215.112-.213.113-.212.116-.211.118-.21.12-.208.122-.207.123-.205.126-.204.128-.203.131-.201.132-.2.134-.198.136-.197.137-.196.14-.194.142-.192.144-.191.145-.19.148.135-.28.132-.281.131-.283.129-.283.128-.284.125-.285.124-.286.122-.287.12-.287.118-.289.116-.29.115-.291.113-.291.11-.292.109-.294.107-.294.105-.295.104-.296.101-.297.1-.297.097-.299.096-.299.093-.3.092-.301.09-.302.088-.302.085-.304.084-.304.082-.305.08-.306.078-.306.076-.307.074-.309.072-.308.07-.31.068-.31.066-.311.064-.312.061-.312.06-.314.058-.314.055-.314.054-.315.051-.316.05-.317.047-.317.045-.318.043-.319.041-.319.039-.32.037-.321.034-.321.033-.322.03-.322.028-.323.026-.324.024-.324.021-.325.019-.325.018-.326.015-.327.012-.327.011-.328.008-.328.019-.004.007-.327.006-.328.003-.328.001-.329-.001-.311-.003-.312-.005-.311-.007-.31-.008-.31-.011-.309-.013-.309-.015-.308-.016-.308-.019-.307-.02-.307-.023-.307-.024-.305-.026-.306-.028-.304-.03-.304-.032-.304-.034-.303-.035-.303-.038-.301-.039-.302-.041-.3-.043-.301-.045-.299-.047-.299-.048-.298-.051-.298-.052-.297-.054-.297-.056-.296-.057-.295-.06-.294-.061-.294-.063-.294-.064-.292-.067-.292-.068-.291-.07-.291-.072-.29-.073-.289-.076-.289-.077-.288-.078-.287-.081-.286-.082-.286-.084-.285-.086-.284-.087-.283-.089-.283-.091-.282-.092-.281-.094-.281-.096-.28-.097-.279-.099-.278-.101-.277-.102-.277-.104-.275-.106-.275-.107-.275-.109-.273-.11-.272-.112-.272-.114-.271-.115-.27-.117-.269-.118-.269-.12-.267-.122-.267-.123-.266-.125-.264-.126-.264-.128-.264-.13-.262-.13-.261-.133-.261-.134-.259-.135-.259-.137-.257-.139-.257-.14-.256-.142-.255-.143-.254-.144-.253-.146-.252-.148-.251-.149-.25-.15-.249-.152-.248-.153-.247-.155-.246-.156-.246-.158-.244-.159-.243-.16-.242-.162-.241-.163-.24-.165-.239-.166-.238-.168-.237-.169-.236-.17-.235-.171-.234-.173-.232-.175-.232-.176-.23-.177-.23-.178-.228-.18-.228-.181-.226-.182-.225-.184-.224-.185-.222-.186-.222-.188-.221-.189-.219-.19-.218-.192-.217-.192-.216-.194-.215-.196-.214-.196-.212-.198-.211-.199-.21-.201-.209-.201-.208-.203-.206-.204-.206-.205-.204-.207-.203-.207-.201-.209-.2-.21-.199-.211-.198-.213-.197-.213-.195-.215-.194-.216-.193-.217-.192-.219-.19-.219-.189-.22-.187-.222-.187-.223-.185-.224-.183-.225-.183-.226-.181-.227-.18-.229-.178-.229-.177-.231-.176-.231-.174-.233-.173-.234-.172-.235-.17-.236-.169-.237-.167-.238-.166-.239-.165-.24-.163-.241-.162-.242-.161-.243-.159-.244-.158-.245-.156-.246-.154-.248-.154-.248-.152-.249-.15-.25-.149-.251-.147-.252-.146-.253-.145-.254-.143-.255-.142-.256-.14-.256-.138-.258-.137-.259-.136-.259-.134-.261-.132-.261-.131-.262-.13-.263-.127-.264-.127-.265-.124-.266-.124-.267-.121-.267-.12-.268-.119-.27-.117-.27-.115-.27-.114-.272-.112-.273-.11-.273-.109-.274-.107-.275-.106-.276-.104-.277-.102-.277-.101-.278-.099-.279-.097-.28-.096-.28-.094-.281-.092-.282-.091-.283-.089-.284-.087-.284-.086-.285-.084-.286-.082-.286-.08-.287-.079-.288-.077-.288-.075-.29-.074-.29-.071-.29-.071-.291-.068-.292-.066-.293-.065-.293-.063-.294-.061-.295-.06-.295-.057-.296-.056-.296-.054-.297-.052-.298-.05-.299-.049-.298-.047-.3-.044-.3-.044-.301-.041-.301-.039-.302-.037-.303-.036-.303-.034-.303-.032-.304-.03-.305-.028-.305-.026-.306-.024-.306-.022-.307-.021-.308-.018-.307-.017-.309-.015-.309-.012-.309-.011-.31-.009-.31-.007-.311-.005-.311-.003-.312-.001-.219.001Z" style="fill:#2d67b9" transform="translate(-2.511 12.577)"/>
        <g>
            <path d="M94.657 208.957h-1.486v-.027c-21.178-.783-38.132-18.223-38.132-39.592 0-19.576 14.229-35.855 32.9-39.05v-.161c0-35.453 28.783-64.237 64.237-64.237 35.454 0 64.238 28.784 64.238 64.237 0 .271-.002.538-.005.804 19.045 3.122 33.574 19.29 33.574 38.74 0 21.683-18.054 39.286-40.293 39.286H94.657Zm105.717-77.514.019-.004c.011-.436.017-.873.017-1.312 0-26.621-21.613-48.234-48.234-48.234-4.677 0-9.199.667-13.476 1.911-20.932 5.493-36.369 24.279-36.369 46.582a47.305 47.305 0 0 0 3.775 18.568 23.546 23.546 0 0 0-11.449-2.952c-13.063 0-23.669 10.606-23.669 23.669 0 13.064 10.606 23.67 23.669 23.67h115.614c13.064 0 23.67-10.606 23.67-23.67 0-13.063-10.606-23.669-23.67-23.669a23.56 23.56 0 0 0-14.616 5.056 47.28 47.28 0 0 0 4.719-19.615Z" style="fill:#2d67b9" transform="matrix(-1 0 0 1 302.511 12.577)"/>
            <path d="m151.761 65.891-.415.004-.414.007-.413.009-.413.012-.412.014-.411.017-.411.019-.41.023-.409.024-.408.027-.408.03-.408.033-.406.034-.406.038-.405.04-.404.042-.404.045-.403.047-.402.05-.401.053-.401.054-.399.058-.399.059-.398.063-.398.064-.396.067-.396.07-.395.072-.394.074-.393.077-.392.079-.392.081-.39.084-.39.086-.389.089-.388.091-.387.093-.386.096-.385.098-.384.1-.384.102-.382.105-.381.107-.381.11-.379.112-.379.114-.377.116-.377.118-.376.121-.374.123-.374.125-.372.128-.372.129-.37.132-.369.134-.369.137-.367.138-.366.141-.365.142-.365.145-.362.148-.362.149-.361.151-.36.154-.358.155-.358.158-.356.16-.355.162-.354.164-.353.166-.351.168-.351.171-.349.172-.348.174-.347.177-.345.178-.345.181-.343.182-.342.185-.341.186-.339.189-.338.19-.337.193-.336.194-.334.196-.333.199-.332.2-.33.202-.33.205-.327.206-.327.208-.325.21-.324.211-.322.214-.321.216-.32.217-.318.22-.317.221-.316.223-.314.225-.313.226-.311.229-.31.23-.309.233-.307.234-.305.235-.304.238-.303.239-.301.242-.3.242-.298.245-.297.247-.295.248-.294.25-.292.251-.291.254-.289.255-.287.256-.286.259-.285.26-.283.262-.281.263-.28.265-.278.267-.277.269-.275.27-.273.271-.272.274-.27.275-.268.276-.267.278-.265.28-.263.281-.262.283-.26.285-.259.286-.257.287-.255.29-.253.29-.252.292-.25.294-.248.295-.246.297-.245.298-.243.3-.241.301-.239.303-.238.304-.236.306-.234.307-.232.308-.23.31-.229.311-.226.313-.225.314-.223.316-.222.317-.219.318-.217.32-.216.321-.214.322-.212.324-.21.325-.208.327-.206.328-.204.329-.202.33-.2.332-.199.333-.196.335-.195.335-.192.337-.191.338-.188.34-.187.34-.184.342-.183.343-.18.345-.179.346-.176.346-.174.348-.173.35-.17.35-.168.352-.166.352-.164.354-.162.355-.16.357-.158.357-.156.359-.153.359-.151.361-.15.362-.147.363-.145.364-.143.365-.14.366-.139.367-.136.369-.134.369-.132.371-.13.371-.127.373-.125.373-.123.375-.121.375-.118.377-.117.377-.114.379-.111.379-.11.381-.107.381-.105.383-.102.383-.101.384-.098.385-.095.387-.093.387-.091.387-.089.389-.086.39-.084.391-.081.391-.08.392-.076.393-.075.395-.071.394-.07.396-.067.397-.065.397-.062.398-.06.399-.057.4-.055.4-.052.402-.05.402-.047.402-.045.404-.043.404-.039.405-.038.406-.035.407-.032.407-.03.408-.027.408-.025.41-.022.41-.019.41-.017.412-.015.412-.011.412-.01.414-.006.414-.004.414-.001.415v.161l-.219.039-.218.039-.218.04-.217.042-.217.043-.217.044-.216.045-.216.046-.215.048-.215.048-.214.05-.214.051-.213.052-.213.053-.213.055-.212.055-.211.057-.212.058-.21.059-.21.06-.21.061-.209.063-.209.063-.208.065-.208.066-.208.067-.206.068-.207.069-.205.07-.206.071-.204.072-.205.074-.203.074-.204.076-.202.077-.202.077-.202.079-.201.08-.201.081-.2.082-.199.083-.199.084-.198.085-.198.087-.197.087-.197.088-.196.09-.196.09-.195.091-.194.093-.194.093-.193.095-.193.095-.192.097-.191.097-.191.099-.19.1-.19.1-.189.102-.188.102-.188.104-.187.104-.187.106-.186.106-.185.107-.185.109-.184.109-.183.111-.183.111-.182.112-.181.113-.181.114-.18.115-.18.116-.178.117-.179.118-.177.119-.177.12-.176.121-.175.121-.175.123-.174.123-.173.125-.173.125-.172.126-.171.127-.171.128-.17.129-.169.13-.168.13-.168.132-.167.132-.166.133-.165.135-.165.135-.164.135-.163.137-.163.138-.162.138-.161.14-.16.14-.159.141-.159.142-.158.142-.157.144-.157.144-.155.145-.155.146-.154.147-.154.148-.152.148-.152.149-.151.15-.15.151-.149.152-.148.152-.148.154-.147.154-.146.154-.145.156-.145.156-.143.158-.143.157-.142.159-.141.16-.14.16-.139.161-.139.162-.138.162-.136.163-.136.164-.135.165-.134.165-.134.166-.132.167-.132.168-.13.168-.13.169-.129.17-.128.171-.127.171-.127.172-.125.172-.124.174-.124.174-.122.174-.122.176-.121.176-.12.177-.118.177-.118.178-.117.179-.116.179-.116.18-.114.181-.113.181-.112.182-.112.183-.11.183-.109.184-.109.185-.107.185-.107.186-.105.187-.105.187-.104.188-.102.188-.102.189-.1.19-.1.19-.098.191-.098.191-.097.192-.095.193-.095.193-.093.194-.093.194-.091.195-.091.195-.089.196-.088.197-.088.197-.086.198-.085.198-.085.199-.083.2-.082.2-.081.2-.08.201-.079.202-.077.202-.077.203-.076.203-.074.203-.074.205-.072.204-.072.206-.07.205-.069.207-.068.206-.067.208-.066.207-.064.209-.064.208-.062.21-.062.209-.06.211-.059.21-.058.211-.057.212-.055.212-.055.212-.053.213-.052.214-.051.214-.05.214-.049.215-.048.215-.046.216-.045.216-.044.216-.043.217-.042.217-.04.218-.04.218-.038.219-.037.219-.035.219-.035.22-.033.22-.032.221-.031.221-.03.221-.028.222-.027.222-.026.222-.025.223-.024.223-.022.224-.021.224-.02.224-.018.225-.017.225-.016.225-.015.226-.014.226-.012.226-.011.227-.009.227-.009.228-.007.227-.006.228-.004.229-.004.228-.002.229v.229l.001.251.002.25.004.249.005.249.007.249.009.248.01.248.011.248.013.247.015.247.016.246.017.246.019.246.021.245.022.245.023.244.025.244.027.243.028.243.029.243.031.242.032.241.034.242.035.24.037.241.038.239.04.24.041.238.042.239.044.238.045.237.047.237.048.236.049.236.051.235.052.235.054.234.055.234.056.233.058.233.059.232.122.462.064.231.064.23.066.229.067.229.069.228.07.228.071.227.073.226.074.226.075.225.076.225.078.224.079.223.081.223.082.222.083.222.084.221.085.22.087.22.088.219.18.436.092.217.093.217.095.215.096.216.096.214.099.214.099.213.1.212.102.212.103.211.104.21.106.21.106.208.108.209.109.207.11.207.112.206.112.205.114.205.115.203.116.203.117.203.238.402.121.2.122.199.123.199.124.197.125.197.126.196.128.195.129.195.129.194.131.193.132.192.133.191.134.19.135.19.136.189.138.188.138.187.28.372.142.184.143.184.143.183.145.182.146.181.147.18.148.18.298.356.151.177.152.175.153.175.154.174.155.173.156.173.157.171.158.17.159.17.16.168.161.168.162.166.163.166.164.165.164.163.166.163.167.162.167.161.169.16.169.159.171.158.171.157.172.156.173.155.174.153.175.153.176.152.177.151.178.15.178.149.18.148.18.147.181.145.182.145.183.144.368.284.186.141.186.139.187.138.188.138.189.136.19.135.19.134.192.133.192.132.193.131.193.129.195.129.195.127.196.127.197.125.198.124.199.123.199.122.2.12.201.12.201.118.202.117.204.116.203.115.205.114.205.112.206.112.207.11.207.109.209.108.208.106.42.21.211.103.424.202.214.099.213.098.215.097.215.096.216.094.216.093.217.092.218.091.218.089.219.088.22.087.442.17.221.082.222.082.223.081.224.079.448.154.226.075.226.074.226.072.227.072.456.138.229.067.229.066.23.065.231.063.231.062.231.06.232.059.233.058.233.056.234.055.234.054.235.052.235.051.236.049.236.048.237.047.238.045.237.043.239.043.239.041.239.039.24.038.24.037.241.035.241.034.242.032.242.031.242.029.243.028.244.026.243.025.245.024.245.022.245.02.245.019.246.018.247.016.246.014.248.013.247.012.248.01v.027H209.69l.261-.001.26-.002.259-.004.26-.006.258-.007.259-.009.258-.01.257-.012.258-.014.256-.015.257-.016.255-.019.256-.019.255-.022.254-.023.254-.024.254-.026.253-.027.253-.029.252-.031.252-.032.251-.033.251-.035.25-.037.25-.038.249-.04.249-.041.248-.042.248-.044.247-.045.246-.047.246-.049.246-.05.245-.051.244-.053.244-.054.244-.055.242-.057.242-.059.242-.06.241-.061.241-.063.239-.064.24-.065.238-.067.238-.069.238-.069.237-.071.236-.073.235-.074.235-.075.235-.077.233-.078.233-.079.233-.081.231-.082.231-.083.231-.085.229-.086.229-.087.229-.089.228-.089.226-.092.227-.092.225-.094.225-.095.224-.097.224-.098.223-.099.222-.1.221-.102.22-.103.22-.104.219-.105.219-.107.217-.108.217-.109.216-.11.215-.112.215-.113.213-.114.213-.115.212-.116.212-.118.21-.119.21-.12.209-.121.208-.123.207-.124.207-.124.205-.127.205-.127.204-.128.203-.13.202-.13.202-.132.2-.133.2-.134.199-.136.198-.136.197-.138.196-.138.195-.14.195-.141.193-.142.193-.143.191-.144.191-.146.19-.146.189-.147.188-.149.187-.15.186-.15.185-.152.185-.153.183-.154.182-.155.182-.156.18-.157.179-.158.179-.159.177-.16.177-.161.175-.162.175-.163.173-.165.173-.165.171-.166.17-.167.17-.168.168-.169.168-.171.166-.171.165-.172.164-.173.164-.174.162-.175.161-.175.16-.177.159-.178.157-.179.157-.179.156-.181.154-.181.154-.183.152-.183.151-.184.151-.185.149-.186.148-.187.146-.188.146-.189.144-.189.144-.191.142-.191.141-.192.14-.193.139-.194.137-.195.137-.195.135-.196.134-.198.133-.198.132-.199.13-.199.129-.201.128-.201.127-.202.126-.203.124-.204.124-.204.122-.205.12-.206.12-.207.118-.208.117-.208.116-.209.114-.21.113-.211.112-.211.111-.212.109-.213.108-.214.107-.214.106-.215.104-.216.103-.216.101-.217.101-.218.099-.219.097-.219.097-.22.095-.221.093-.221.092-.222.091-.223.09-.223.088-.224.087-.224.085-.226.085-.226.082-.226.082-.227.08-.228.078-.229.077-.229.076-.229.074-.231.073-.231.072-.231.07-.232.068-.233.068-.233.065-.234.065-.234.063-.235.061-.236.06-.236.059-.237.057-.237.055-.238.054-.238.053-.239.051-.239.049-.24.049-.241.046-.241.045-.241.044-.242.042-.243.04-.243.039-.243.038-.244.036-.245.034-.244.033-.246.031-.246.03-.246.028-.247.027-.247.025-.248.023-.248.022-.249.021-.249.018-.249.017-.25.016-.25.014-.251.012-.251.011-.252.009-.252.007-.252.006-.253.004-.253.002-.254.001-.254-.001-.227-.002-.228-.003-.227-.004-.227-.006-.226-.008-.227-.008-.226-.01-.225-.011-.225-.013-.225-.014-.225-.015-.224-.016-.224-.018-.224-.019-.223-.02-.223-.021-.222-.023-.222-.024-.222-.025-.221-.027-.222-.027-.22-.029-.22-.031-.22-.031-.22-.033-.219-.034-.219-.035-.218-.037-.218-.037-.218-.039-.217-.04-.217-.042-.216-.042-.216-.044-.215-.045-.215-.046-.215-.048-.214-.048-.214-.05-.213-.051-.213-.052-.213-.053-.212-.055-.211-.055-.211-.057-.211-.058-.21-.059-.21-.061-.209-.061-.209-.063-.208-.063-.208-.065-.207-.066-.207-.067-.207-.069-.206-.069-.205-.071-.205-.071-.204-.073-.204-.074-.203-.075-.203-.076-.203-.078-.201-.078-.202-.079-.2-.081-.201-.082-.199-.082-.2-.084-.198-.085-.198-.086-.198-.087-.197-.088-.196-.089-.196-.09-.195-.092-.195-.092-.194-.093-.194-.095-.193-.095-.192-.097-.192-.097-.191-.099-.191-.1-.19-.1-.189-.102-.189-.103-.189-.103-.187-.105-.187-.106-.187-.106-.186-.108-.185-.109-.184-.11-.184-.11-.184-.112-.182-.113-.182-.113-.182-.115-.181-.116-.18-.116-.179-.118-.179-.118-.178-.12-.177-.12-.177-.121-.176-.123-.176-.123-.175-.124-.174-.125-.173-.126-.173-.127-.172-.128-.171-.129-.171-.13-.17-.13-.169-.132-.169-.132-.167-.134-.167-.134-.167-.135-.165-.136-.165-.137-.165-.138-.163-.139-.163-.14-.162-.14-.161-.141-.16-.143-.16-.143-.159-.144-.158-.144-.158-.146-.157-.147-.156-.147-.155-.148-.154-.149-.154-.15-.152-.151-.153-.151-.151-.153-.15-.153-.15-.154-.149-.155-.148-.155-.147-.157-.147-.157-.145-.158-.145-.159-.144-.16-.143-.16-.142-.161-.142-.162-.141-.163-.139-.164-.139-.164-.139-.165-.137-.166-.136-.166-.136-.168-.135-.168-.133-.169-.133-.169-.133-.171-.131-.171-.13-.172-.13-.172-.128-.174-.128-.174-.127-.174-.126-.176-.125-.176-.124-.177-.123-.178-.123-.178-.121-.179-.121-.18-.119-.18-.119-.181-.118-.182-.116-.182-.116-.183-.115-.184-.114-.185-.113-.185-.112-.185-.112-.187-.11-.187-.109-.188-.108-.188-.108-.189-.106-.19-.105-.19-.105-.191-.103-.192-.103-.192-.101-.193-.101-.194-.099-.194-.099-.194-.097-.196-.097-.196-.095-.196-.095-.197-.093-.198-.093-.198-.091-.199-.09-.2-.09-.2-.088-.201-.087-.201-.087-.202-.085-.202-.084-.203-.083-.203-.082-.205-.081-.204-.08-.205-.079-.206-.078-.206-.077-.207-.076-.207-.074-.208-.074-.209-.072-.208-.072-.21-.07-.21-.069-.21-.068-.211-.067-.212-.066-.212-.065-.212-.064-.213-.062-.214-.062-.214-.06-.214-.059-.215-.059-.215-.057-.216-.055-.217-.055-.216-.054-.218-.052-.217-.051-.219-.05-.218-.049-.219-.048-.22-.047-.22-.045-.22-.044-.221-.043-.221-.042-.222-.041-.222-.04-.223-.038-.223-.037.004-.4.001-.404-.002-.415-.004-.414-.006-.414-.009-.414-.012-.412-.015-.412-.017-.412-.019-.41-.022-.41-.025-.41-.027-.408-.03-.408-.032-.407-.035-.407-.037-.406-.04-.405-.043-.404-.045-.404-.047-.402-.05-.402-.052-.402-.055-.4-.057-.4-.06-.399-.062-.398-.065-.397-.067-.397-.069-.396-.072-.394-.075-.395-.076-.393-.079-.392-.082-.391-.084-.391-.086-.39-.089-.389-.09-.387-.094-.387-.095-.387-.098-.385-.1-.384-.103-.383-.105-.383-.107-.381-.109-.381-.112-.379-.114-.379-.116-.377-.119-.377-.121-.375-.123-.375-.125-.373-.127-.373-.13-.371-.132-.371-.134-.369-.136-.369-.139-.367-.14-.366-.143-.365-.145-.364-.147-.363-.149-.362-.152-.361-.153-.359-.156-.359-.158-.357-.16-.357-.162-.355-.164-.354-.166-.352-.168-.352-.17-.35-.173-.35-.174-.348-.176-.346-.179-.346-.18-.345-.183-.343-.184-.342-.187-.34-.188-.34-.191-.338-.192-.337-.195-.335-.196-.335-.199-.333-.2-.332-.202-.33-.204-.329-.206-.328-.208-.327-.21-.325-.212-.324-.214-.322-.215-.321-.218-.32-.219-.318-.221-.317-.224-.316-.224-.314-.227-.313-.229-.311-.23-.31-.232-.308-.234-.307-.236-.306-.238-.304-.239-.303-.241-.301-.243-.3-.245-.298-.246-.297-.248-.295-.25-.294-.252-.292-.253-.29-.255-.29-.257-.287-.258-.286-.261-.285-.261-.283-.264-.281-.265-.28-.267-.278-.268-.276-.27-.275-.272-.274-.273-.271-.275-.27-.277-.269-.278-.267-.28-.265-.281-.263-.283-.262-.285-.26-.286-.259-.287-.256-.289-.255-.291-.254-.292-.251-.294-.25-.295-.248-.297-.247-.298-.245-.3-.242-.301-.242-.303-.239-.304-.238-.305-.235-.307-.234-.309-.233-.31-.23-.311-.229-.313-.226-.314-.225-.316-.223-.316-.221-.319-.22-.32-.217-.321-.216-.322-.214-.324-.211-.325-.21-.327-.208-.327-.206-.33-.205-.33-.202-.332-.2-.333-.199-.334-.196-.336-.194-.337-.193-.338-.19-.339-.189-.341-.186-.342-.185-.343-.182-.345-.181-.345-.178-.347-.177-.348-.174-.349-.172-.351-.171-.351-.168-.353-.166-.354-.164-.355-.162-.356-.16-.358-.158-.358-.155-.36-.154-.361-.151-.361-.149-.363-.148-.364-.145-.366-.142-.366-.141-.367-.138-.368-.137-.37-.134-.37-.132-.372-.129-.372-.128-.374-.125-.374-.123-.376-.121-.376-.118-.378-.116-.379-.114-.379-.112-.381-.11-.381-.107-.382-.105-.384-.102-.384-.1-.385-.098-.386-.096-.387-.093-.388-.091-.389-.089-.39-.086-.39-.084-.392-.081-.392-.079-.393-.077-.394-.074-.395-.072-.396-.07-.396-.067-.398-.064-.398-.063-.399-.059-.399-.058-.401-.054-.401-.053-.402-.05-.403-.047-.404-.045-.404-.042-.405-.04-.406-.038-.406-.034-.408-.033-.407-.03-.409-.027-.409-.024-.41-.023-.411-.019-.411-.017-.412-.014-.413-.012-.413-.009-.414-.007-.415-.004-.415-.001-.415.001Zm.727 16.003.311.003.311.005.31.007.31.009.309.011.309.012.309.015.307.017.308.018.307.021.306.022.306.024.305.026.305.028.304.03.303.032.303.034.303.036.302.037.301.039.301.041.6.088.298.047.299.049.298.05.297.052.296.054.296.056.295.057.295.06.294.061.293.063.293.065.292.066.291.068.58.142.29.074.288.075.288.077.287.079.286.08.286.082.285.084.284.086.284.087.283.089.282.091.281.092.28.094.28.096.279.097.278.099.277.101.277.102.276.104.275.106.274.107.273.109.273.11.272.112.27.114.27.115.27.117.268.119.267.12.267.121.266.124.265.124.264.127.263.127.262.13.261.131.261.132.259.134.259.136.258.137.256.138.256.14.255.142.254.143.253.145.252.146.251.147.25.149.249.15.248.152.248.154.246.154.245.156.244.158.243.159.242.161.241.162.24.163.239.165.238.166.237.167.236.169.235.17.234.172.233.173.231.174.231.176.229.177.229.178.227.18.226.181.225.183.224.183.223.185.222.187.22.187.219.189.219.19.217.192.216.193.215.194.213.195.213.197.211.198.21.199.209.2.207.201.207.203.205.204.204.206.203.206.201.208.201.209.199.21.198.211.196.212.196.214.194.215.192.216.192.217.19.218.189.219.188.221.186.222.185.222.184.224.182.225.181.226.18.228.178.228.177.23.176.23.175.232.173.232.171.234.17.235.169.236.168.237.166.238.165.239.163.24.162.241.16.242.159.243.158.244.156.246.155.246.153.247.152.248.15.249.149.25.148.251.146.252.144.253.143.254.142.255.14.256.139.257.137.257.135.259.134.259.133.261.13.261.13.262.128.264.126.264.125.264.123.266.122.267.12.267.118.269.117.269.115.27.114.271.112.272.11.272.109.273.107.275.106.275.104.275.102.277.101.277.099.278.097.279.096.28.094.281.092.281.091.282.089.283.087.283.086.284.084.285.082.286.081.286.078.287.077.288.076.289.073.289.072.29.07.291.068.291.067.292.064.292.063.294.061.294.06.294.057.295.056.296.054.297.052.297.051.298.048.298.047.299.045.299.043.301.041.3.039.302.038.301.035.303.034.303.032.304.03.304.028.304.026.306.024.305.023.307.02.307.019.307.016.308.015.308.013.309.011.309.008.31.007.31.005.311.003.312.001.311-.001.329-.003.328-.006.328-.007.327-.019.004-.008.328-.011.328-.012.327-.015.327-.018.326-.019.325-.021.325-.024.324-.026.324-.028.323-.03.322-.033.322-.034.321-.037.321-.039.32-.041.319-.043.319-.045.318-.047.317-.05.317-.051.316-.054.315-.055.314-.058.314-.06.314-.061.312-.064.312-.066.311-.068.31-.07.31-.072.308-.074.309-.076.307-.078.306-.08.306-.082.305-.084.304-.085.304-.088.302-.09.302-.092.301-.093.3-.096.299-.097.299-.1.297-.101.297-.104.296-.105.295-.107.294-.109.294-.11.292-.113.291-.115.291-.116.29-.118.289-.12.287-.122.287-.124.286-.125.285-.128.284-.129.283-.131.283-.132.281-.135.28.19-.148.191-.145.192-.144.194-.142.196-.14.197-.137.198-.136.2-.134.201-.132.203-.131.204-.128.205-.126.207-.123.208-.122.21-.12.211-.118.212-.116.213-.113.215-.112.216-.109.218-.107.218-.105.22-.103.221-.1.222-.099.223-.096.225-.094.226-.092.227-.089.228-.087.229-.085.23-.083.231-.08.233-.078.233-.075.235-.073.235-.071.237-.069.237-.066.239-.063.239-.061.241-.059.241-.056.243-.054.243-.052.244-.048.245-.047.246-.043.247-.042.248-.038.248-.036.25-.034.25-.031.251-.028.251-.026.253-.023.253-.02.254-.018.255-.015.255-.012.257-.01.256-.007.258-.004.258-.001h.153l.153.002.152.002.153.004.152.004.151.005.152.006.302.016.151.009.151.01.15.011.15.012.15.013.149.013.15.015.149.016.148.016.149.018.148.018.148.019.147.021.148.021.147.022.146.023.147.024.146.024.146.026.145.026.29.056.145.029.144.03.144.031.143.032.144.032.143.034.142.034.143.036.141.036.142.037.141.037.282.078.28.082.139.042.278.086.276.09.138.046.137.047.137.048.137.049.136.049.136.05.135.051.135.052.134.053.135.053.133.054.134.055.133.056.264.114.132.058.131.059.131.06.13.06.13.061.13.062.129.063.129.064.128.064.128.065.254.132.126.067.126.068.126.069.25.14.124.071.123.071.124.073.122.073.123.074.121.074.122.075.12.076.121.077.12.077.119.078.119.079.236.16.234.162.116.082.116.083.23.168.228.17.113.087.113.086.112.088.111.088.111.089.111.09.109.09.11.09.109.092.108.092.214.186.107.094.106.095.105.095.105.096.104.096.104.097.206.196.102.099.202.2.1.101.099.101.099.102.098.102.098.103.194.208.096.105.095.105.094.106.188.214.092.108.093.108.182.218.09.11.089.11.089.111.176.224.087.113.172.226.085.115.084.114.083.115.083.116.082.117.082.116.081.118.08.117.158.238.078.119.154.24.076.121.075.121.075.122.074.122.073.123.072.123.072.124.071.124.07.124.069.125.069.126.068.126.067.126.067.127.065.128.065.127.065.129.063.128.063.13.062.129.122.26.059.131.059.132.058.131.058.132.112.266.055.133.108.268.104.27.051.135.1.272.048.136.048.137.047.137.092.276.044.138.044.139.043.139.042.14.041.14.04.14.039.14.039.141.038.141.037.142.036.142.035.142.035.143.066.286.031.144.031.143.03.145.029.144.029.145.027.145.027.146.05.292.024.146.023.147.022.147.021.147.02.148.038.296.017.148.017.149.03.298.014.15.013.149.011.15.011.151.01.15.01.151.008.151.007.152.006.151.01.304.003.152.003.153.002.305-.001.153-.001.153-.003.153-.003.152-.005.152-.005.152-.006.151-.007.152-.008.151-.01.151-.01.15-.011.15-.011.151-.013.149-.014.15-.015.149-.015.149-.017.149-.017.148-.019.148-.019.148-.02.148-.021.147-.022.147-.023.147-.024.146-.025.146-.025.146-.027.146-.027.145-.029.145-.029.144-.03.144-.031.144-.031.144-.033.143-.033.143-.035.143-.035.142-.036.142-.037.142-.038.141-.039.141-.039.14-.04.14-.041.14-.042.14-.043.139-.044.139-.044.138-.046.138-.046.138-.047.137-.048.137-.048.136-.05.136-.05.136-.051.135-.052.135-.052.135-.054.134-.054.134-.055.133-.056.133-.056.133-.058.132-.058.131-.059.132-.059.13-.061.131-.061.13-.062.129-.063.129-.063.129-.065.128-.065.128-.065.128-.067.126-.067.127-.068.126-.069.125-.069.126-.07.124-.071.124-.072.124-.072.123-.073.123-.074.122-.075.122-.075.121-.076.121-.077.12-.077.12-.078.119-.079.119-.079.118-.08.118-.081.118-.082.116-.082.117-.083.115-.083.116-.084.114-.085.115-.086.113-.086.113-.087.113-.088.112-.088.112-.089.111-.089.11-.09.11-.091.109-.091.109-.093.108-.092.108-.094.107-.094.107-.094.105-.095.106-.096.105-.097.104-.097.104-.098.103-.098.102-.099.102-.099.101-.1.101-.101.1-.101.1-.102.099-.103.098-.103.098-.104.097-.104.096-.105.096-.105.095-.106.095-.107.094-.107.093-.107.093-.108.092-.109.091-.11.091-.109.09-.111.09-.111.089-.111.088-.112.087-.113.087-.113.087-.114.085-.114.085-.115.084-.115.084-.116.083-.116.082-.117.081-.117.081-.118.08-.118.08-.119.079-.119.078-.12.077-.121.077-.12.076-.122.075-.121.074-.123.074-.122.073-.124.073-.123.071-.124.071-.125.07-.125.07-.126.068-.126.068-.126.068-.127.066-.127.066-.128.065-.128.064-.129.064-.129.062-.13.062-.13.062-.13.06-.131.06-.131.059-.132.058-.132.057-.132.057-.133.056-.134.055-.133.054-.135.053-.134.053-.135.052-.135.051-.136.05-.136.049-.137.049-.137.048-.137.047-.138.046-.138.045-.138.044-.139.044-.139.043-.139.042-.14.041-.14.04-.141.04-.141.039-.141.037-.142.037-.141.036-.143.036-.142.034-.143.033-.144.033-.143.032-.144.031-.144.03-.145.029-.145.028-.145.028-.145.026-.146.026-.146.024-.147.024-.146.023-.147.022-.148.021-.147.02-.148.02-.148.018-.149.018-.148.016-.149.016-.15.014-.149.014-.15.013-.15.012-.15.011-.151.01-.151.009-.151.008-.151.007-.152.007-.151.005-.152.004-.153.004-.152.002-.153.002H94.504l-.152-.002-.153-.002-.152-.004-.152-.004-.152-.005-.152-.007-.151-.007-.151-.008-.151-.009-.15-.01-.151-.011-.15-.012-.15-.013-.149-.014-.149-.014-.149-.016-.149-.016-.148-.018-.149-.018-.147-.02-.148-.02-.147-.021-.147-.022-.147-.023-.146-.024-.147-.024-.145-.026-.146-.026-.145-.028-.145-.028-.144-.029-.145-.03-.144-.031-.143-.032-.143-.033-.143-.033-.143-.034-.142-.036-.142-.036-.142-.037-.141-.037-.141-.039-.14-.04-.141-.04-.139-.041-.14-.042-.139-.043-.139-.044-.138-.044-.138-.045-.138-.046-.137-.047-.137-.048-.136-.049-.137-.049-.135-.05-.136-.051-.135-.052-.134-.053-.134-.053-.134-.054-.133-.055-.133-.056-.133-.057-.132-.057-.132-.058-.131-.059-.131-.06-.13-.06-.13-.062-.13-.062-.129-.062-.128-.064-.129-.064-.127-.065-.128-.066-.127-.066-.126-.068-.126-.068-.126-.068-.125-.07-.124-.07-.124-.071-.124-.071-.123-.073-.123-.073-.122-.074-.122-.074-.121-.075-.121-.076-.12-.077-.12-.077-.12-.078-.118-.079-.119-.08-.118-.08-.117-.081-.117-.081-.116-.082-.116-.083-.115-.084-.115-.084-.114-.085-.113-.085-.114-.087-.112-.087-.112-.087-.112-.088-.111-.089-.11-.09-.11-.09-.109-.091-.109-.091-.108-.092-.108-.093-.107-.093-.107-.094-.106-.095-.105-.095-.105-.096-.104-.096-.104-.097-.103-.098-.102-.098-.102-.099-.102-.1-.1-.1-.1-.101-.1-.101-.099-.102-.098-.102-.098-.103-.097-.104-.096-.104-.096-.105-.095-.106-.095-.105-.094-.107-.093-.107-.093-.108-.092-.108-.092-.109-.09-.109-.091-.11-.089-.11-.089-.111-.088-.112-.088-.112-.087-.113-.086-.113-.085-.113-.085-.115-.084-.114-.084-.116-.083-.115-.082-.117-.082-.116-.08-.118-.081-.118-.079-.118-.079-.119-.078-.119-.077-.12-.077-.12-.076-.121-.075-.121-.074-.122-.074-.122-.073-.123-.073-.123-.071-.124-.071-.124-.071-.124-.069-.126-.069-.125-.068-.126-.067-.127-.066-.126-.066-.128-.065-.128-.064-.128-.064-.129-.063-.129-.062-.129-.061-.13-.06-.131-.06-.13-.059-.132-.058-.131-.057-.132-.057-.133-.056-.133-.055-.133-.054-.134-.053-.134-.053-.135-.052-.135-.051-.135-.05-.136-.049-.136-.049-.136-.048-.137-.047-.137-.046-.138-.045-.138-.045-.138-.043-.139-.043-.139-.042-.14-.041-.14-.041-.14-.039-.14-.039-.141-.038-.141-.037-.142-.036-.142-.035-.142-.034-.143-.034-.143-.032-.143-.032-.144-.031-.144-.03-.144-.029-.144-.028-.145-.028-.145-.026-.146-.026-.146-.025-.146-.023-.146-.023-.147-.022-.147-.021-.147-.021-.148-.019-.148-.018-.148-.018-.148-.016-.149-.016-.149-.015-.149-.013-.15-.013-.149-.012-.151-.011-.15-.01-.15-.009-.151-.008-.151-.008-.152-.006-.151-.005-.152-.005-.152-.003-.152-.002-.153-.002-.153v-.306l.002-.152.002-.153.003-.152.005-.152.005-.152.006-.151.008-.152.008-.151.009-.151.01-.15.011-.151.012-.15.013-.149.013-.15.015-.149.016-.149.016-.149.018-.148.018-.148.019-.148.021-.148.021-.147.022-.147.023-.147.023-.146.025-.146.026-.146.026-.146.028-.145.028-.145.029-.144.03-.145.031-.143.032-.144.032-.143.034-.143.034-.143.035-.142.036-.142.037-.142.038-.141.039-.141.039-.14.041-.14.041-.14.042-.14.043-.139.043-.139.045-.138.045-.138.046-.138.047-.137.048-.137.049-.136.049-.136.05-.136.051-.135.052-.135.053-.135.053-.134.054-.134.055-.133.056-.133.057-.133.057-.132.058-.131.059-.132.06-.131.06-.13.061-.13.062-.129.063-.13.064-.128.064-.129.065-.127.066-.128.066-.127.067-.126.068-.126.069-.126.069-.125.071-.124.071-.124.071-.124.073-.123.073-.123.074-.122.074-.122.075-.121.076-.121.077-.12.077-.12.078-.119.079-.119.079-.119.081-.117.08-.118.082-.116.082-.117.083-.116.084-.115.084-.114.085-.115.085-.113.086-.113.087-.113.088-.112.088-.112.089-.111.089-.11.091-.11.09-.109.092-.109.092-.108.093-.108.093-.107.094-.107.095-.106.095-.105.096-.105.096-.104.097-.104.098-.103.098-.102.099-.102.1-.101.1-.101.1-.1.102-.1.102-.099.102-.098.103-.098.104-.097.104-.096.105-.096.105-.095.106-.095.107-.094.107-.093.108-.093.108-.092.109-.092.109-.09.11-.09.11-.09.111-.089.112-.088.112-.088.112-.086.114-.087.113-.085.114-.085.115-.084.115-.084.116-.083.116-.082.117-.081.117-.081.118-.08.119-.08.118-.079.12-.078.12-.077.12-.077.121-.076.121-.075.122-.074.122-.074.123-.073.123-.073.124-.071.124-.071.124-.07.125-.07.126-.069.126-.068.126-.067.127-.066.128-.066.127-.065.129-.064.128-.064.129-.063.13-.062.13-.061.13-.06.131-.06.131-.059.132-.058.132-.057.133-.057.133-.056.133-.055.134-.054.134-.053.134-.053.135-.052.136-.051.135-.05.137-.049.136-.049.137-.048.137-.047.138-.046.138-.045.138-.045.139-.043.139-.043.14-.042.139-.041.141-.041.14-.039.141-.039.141-.037.142-.037.142-.036.142-.036.143-.034.143-.034.143-.032.143-.032.144-.031.145-.03.144-.029.145-.028.145-.028.146-.026.145-.026.147-.024.146-.024.147-.023.147-.022.147-.021.148-.021.147-.019.149-.018.148-.018.149-.016.149-.016.149-.015.149-.013.15-.013.15-.012.151-.011.15-.01.151-.009.151-.008.151-.008.152-.006.152-.005.152-.004.152-.004.153-.002.152-.002h.153l.195.001.194.002.193.004.194.005.193.007.192.009.192.01.192.012.191.013.191.014.191.016.19.018.189.019.189.021.189.022.188.024.188.025.187.026.187.028.187.03.186.031.185.032.185.034.184.035.184.037.184.038.182.039.183.041.182.042.181.044.181.045.18.047.179.047.358.1.178.052.177.053.177.055.176.056.176.057.175.059.174.06.174.061.173.063.172.064.172.065.171.066.171.068.17.069.169.07.169.072.168.073.167.074.167.075.165.077.166.078.164.079.164.08.163.082.162.083.162.084.161.085.16.086.16.088-.114-.269-.111-.269-.11-.27-.108-.27-.107-.272-.105-.272-.104-.273-.102-.274-.1-.275-.098-.275-.097-.277-.096-.277-.093-.277-.092-.279-.09-.279-.089-.28-.087-.28-.085-.282-.084-.282-.081-.282-.08-.284-.079-.284-.076-.285-.075-.285-.073-.287-.072-.286-.07-.288-.067-.288-.067-.289-.064-.29-.063-.29-.061-.291-.059-.291-.057-.292-.055-.293-.054-.293-.052-.294-.05-.294-.048-.295-.047-.296-.045-.296-.042-.297-.041-.298-.039-.298-.038-.298-.035-.299-.034-.3-.031-.3-.03-.301-.028-.301-.026-.302-.024-.302-.022-.303-.021-.304-.018-.303-.017-.305-.014-.305-.013-.305-.011-.306-.008-.306-.007-.307-.005-.307-.003-.308-.001-.308.001-.261.002-.261.003-.261.005-.26.006-.26.008-.259.009-.26.011-.258.012-.259.013-.258.015-.258.016-.257.017-.257.019-.257.02-.256.021-.256.023-.256.024-.255.026-.255.027-.254.028-.254.03-.254.03-.253.033-.253.033-.252.035-.252.036-.252.038-.251.039-.251.04-.25.041-.25.043-.25.044-.249.045-.248.047-.249.048-.247.049-.248.051-.246.052-.247.053-.246.054-.245.055-.245.057-.245.058-.244.06-.243.06-.243.062-.243.063-.242.065-.242.065-.241.067-.24.068-.241.07-.239.07-.239.072-.239.073-.238.074-.238.075-.237.077-.236.078-.236.079-.236.08-.235.081-.234.083-.234.084-.233.085-.233.086-.232.087-.232.089-.231.089-.231.091-.23.092-.229.093-.229.094-.228.096-.228.096-.227.098-.226.099-.226.1-.226.101-.224.102-.224.104-.224.104-.223.106-.222.106-.222.108-.221.109-.22.11-.22.111-.219.113-.219.113-.218.114-.217.116-.217.117-.216.117-.215.119-.215.12-.214.121-.213.122-.213.123-.212.124-.211.125-.211.126-.21.127-.209.129-.209.129-.207.13-.208.132-.206.132-.206.134-.205.134-.205.135-.203.137-.203.137-.203.139-.201.14-.201.14-.2.142-.2.142-.198.144-.198.144-.197.146-.197.146-.196.147-.194.149-.195.149-.193.15-.193.152-.192.152-.191.153-.19.154-.19.156-.188.156-.188.157-.188.157-.186.159-.186.16-.185.161-.184.161-.183.163-.182.164-.182.164-.181.165-.18.166-.179.168-.178.167-.178.169-.176.17-.176.171-.175.171-.174.173-.174.173-.172.174-.172.175-.17.176-.17.177-.169.178-.168.178-.168.18-.166.18-.166.181-.164.182-.164.182-.163.184-.162.184-.161.186-.16.186-.16.186-.158.188-.157.189-.157.189-.156.19-.154.191-.154.191-.153.193-.152.193-.151.194-.15.195-.149.196-.148.196-.148.197-.146.198-.145.199-.145.2-.143.2-.142.201-.142.201-.14.203-.14.203-.139.204-.137.205-.137.205-.135.207-.135.206-.134.208-.132.208-.132.21-.13.209-.13.211-.128.211-.128.212-.127.212-.125.214-.125.214-.123.214-.122.216-.122.216-.12.217-.119.217-.119.218-.117.219-.116.219-.115.22-.114.221-.113.221-.112.222-.111.223-.109.223-.109.224-.107.225-.107.225-.105.226-.105.226-.103.227-.102.228-.101.228-.1.229-.098.23-.098.23-.097.23-.095.232-.094.232-.093.232-.092.233-.091.234-.09.234-.089.235-.087.235-.086.236-.085.237-.084.237-.083.237-.082.239-.08.238-.08.24-.078.239-.077.241-.076.241-.074.241-.074.242-.072.243-.071.243-.07.243-.068.244-.068.245-.066.245-.065.2-.058.201-.057.202-.056.202-.055.202-.055.202-.053.203-.053.203-.052.203-.051.204-.05.204-.05.205-.048.205-.048.205-.046.205-.046.206-.045.206-.044.207-.043.207-.043.207-.041.207-.041.208-.039.208-.039.208-.038.209-.037.209-.036.209-.035.21-.035.21-.033.21-.033.21-.031.211-.031.211-.03.212-.028.211-.028.212-.027.212-.026.213-.026.213-.024.213-.023.213-.023.214-.021.213-.021.215-.019.214-.019.215-.018.215-.016.215-.016.215-.015.216-.014.216-.013.216-.012.217-.011.216-.01.217-.009.218-.009.217-.007.218-.006.218-.006.218-.004.218-.003.219-.003.219-.001.219-.001.312.001Z" style="fill:#2d67b9" transform="matrix(-1 0 0 1 302.511 12.577)"/>
        </g>
    </g>
</svg>
