<?xml version="1.0" encoding="UTF-8" standalone="no"?>
<!-- Created by diasvg.py -->
<svg
   xmlns:dc="http://purl.org/dc/elements/1.1/"
   xmlns:cc="http://web.resource.org/cc/"
   xmlns:rdf="http://www.w3.org/1999/02/22-rdf-syntax-ns#"
   xmlns:svg="http://www.w3.org/2000/svg"
   xmlns="http://www.w3.org/2000/svg"
   xmlns:xlink="http://www.w3.org/1999/xlink"
   xmlns:sodipodi="http://sodipodi.sourceforge.net/DTD/sodipodi-0.dtd"
   xmlns:inkscape="http://www.inkscape.org/namespaces/inkscape"
   width="50"
   height="52.851002"
   viewBox="0.549 0.399 2.292 2.401"
   id="svg2"
   sodipodi:version="0.32"
   inkscape:version="0.45.1"
   sodipodi:docname="dslam.normal.svg"
   sodipodi:docbase="/home/grossmj/workspace/gns3-artwork/symbols"
   inkscape:output_extension="org.inkscape.output.svg.inkscape"
   version="1.0">
  <metadata
     id="metadata43">
    <rdf:RDF>
      <cc:Work
         rdf:about="">
        <dc:format>image/svg+xml</dc:format>
        <dc:type
           rdf:resource="http://purl.org/dc/dcmitype/StillImage" />
      </cc:Work>
    </rdf:RDF>
  </metadata>
  <defs
     id="defs41">
    <linearGradient
       inkscape:collect="always"
       id="linearGradient3184">
      <stop
         style="stop-color:#6e8caa;stop-opacity:1;"
         offset="0"
         id="stop3186" />
      <stop
         style="stop-color:#6e8caa;stop-opacity:0;"
         offset="1"
         id="stop3188" />
    </linearGradient>
    <linearGradient
       inkscape:collect="always"
       id="linearGradient3176">
      <stop
         style="stop-color:#6e8caa;stop-opacity:1;"
         offset="0"
         id="stop3178" />
      <stop
         style="stop-color:#6e8caa;stop-opacity:0;"
         offset="1"
         id="stop3180" />
    </linearGradient>
    <linearGradient
       inkscape:collect="always"
       id="linearGradient3168">
      <stop
         style="stop-color:#6e8caa;stop-opacity:1;"
         offset="0"
         id="stop3170" />
      <stop
         style="stop-color:#6e8caa;stop-opacity:0;"
         offset="1"
         id="stop3172" />
    </linearGradient>
    <linearGradient
       inkscape:collect="always"
       xlink:href="#linearGradient3168"
       id="linearGradient3174"
       x1="0.2645601"
       y1="0.29689455"
       x2="1.7966568"
       y2="0.71062529"
       gradientUnits="userSpaceOnUse"
       gradientTransform="matrix(1.2914583,0,0,1.1929584,-0.1523275,-8.0907603e-2)" />
    <linearGradient
       inkscape:collect="always"
       xlink:href="#linearGradient3176"
       id="linearGradient3182"
       x1="1.0112149"
       y1="0.3356818"
       x2="3.0507782"
       y2="1.5413191"
       gradientUnits="userSpaceOnUse"
       gradientTransform="matrix(1.287462,0,0,1.1929584,-0.1486101,-8.0907603e-2)" />
    <linearGradient
       inkscape:collect="always"
       xlink:href="#linearGradient3184"
       id="linearGradient3190"
       x1="1.5639333"
       y1="0.5199213"
       x2="4.2693448"
       y2="1.9065658"
       gradientUnits="userSpaceOnUse"
       gradientTransform="matrix(1.2639698,0,0,1.0836045,-9.2303481e-2,2.0667472e-2)" />
  </defs>
  <sodipodi:namedview
     inkscape:window-height="944"
     inkscape:window-width="1314"
     inkscape:pageshadow="2"
     inkscape:pageopacity="0.0"
     guidetolerance="10.0"
     gridtolerance="10.0"
     objecttolerance="10.0"
     borderopacity="1.0"
     bordercolor="#666666"
     pagecolor="#ffffff"
     id="base"
     inkscape:zoom="11.474969"
     inkscape:cx="35.39742"
     inkscape:cy="28.160189"
     inkscape:window-x="207"
     inkscape:window-y="55"
     inkscape:current-layer="svg2"
     width="50px"
     height="52.851px" />
  <path
     d="M 2.3941279,0.97172994 L 1.2700398,0.39735179 L 1.0491214,0.5880117 L 2.2043972,1.1479998 L 2.3941279,0.97172994"
     id="path2181"
     style="fill:#ffffff;fill-opacity:1;stroke:none;stroke-width:0.002" />
  <path
     d="M 2.3941279,0.97065381 L 1.2700398,0.39627555 L 1.0491214,0.58693558 L 2.2043972,1.1469238 L 2.3941279,0.97065381"
     id="path4"
     style="fill:url(#linearGradient3182);fill-opacity:1;stroke:none;stroke-width:0.002" />
  <path
     d="M 1.0591098,0.59088839 L 1.2811909,0.39735179 L 0.75603212,0.39735179 L 0.54962639,0.59088839 L 1.0591098,0.59088839"
     id="path2183"
     style="fill:#ffffff;fill-opacity:1;stroke:none;stroke-width:0.001" />
  <path
     d="M 2.2179342,1.1798528 L 1.0897184,0.62274148 L 0.59477757,0.62274148 L 0.59477757,2.8189797 L 1.0897184,2.8189797 L 2.2179342,2.2916907 L 2.6037347,2.2916907 L 2.6037347,1.1798528 L 2.2179342,1.1798528"
     id="path4163"
     style="fill:#000000;fill-opacity:0.39215686;stroke:none;stroke-width:0.001" />
  <path
     d="M 2.2043303,1.1475321 L 2.6041543,1.1475321 L 2.8034512,0.97423249 L 2.3888691,0.97423249 L 2.2043303,1.1475321"
     id="path2185"
     style="fill:#ffffff;fill-opacity:1;stroke:none;stroke-width:0.001"
     sodipodi:nodetypes="ccccc" />
  <path
     d="M 2.2097502,1.1430678 L 1.0616446,0.58595627 L 0.55797522,0.58595627 L 0.55797522,2.782195 L 1.0616446,2.782195 L 2.2097502,2.2549055 L 2.6023534,2.2549055 L 2.6023534,1.1430678 L 2.2097502,1.1430678"
     id="path10"
     style="fill:#6e8caa;fill-opacity:1;stroke:none;stroke-width:0.001" />
  <path
     d="M 2.6026831,2.2913358 L 2.8416264,2.0750182 L 2.8340465,1.0205487 L 2.6026831,1.1948135 L 2.6026831,2.2913358"
     id="path3192"
     style="opacity:1;fill:#000000;fill-opacity:0.39215686;stroke:none;stroke-width:0.001"
     sodipodi:nodetypes="ccccc" />
  <path
     d="M 2.6011531,2.258763 L 2.8117998,2.0551034 L 2.8035667,0.96657373 L 2.6011531,1.1471464 L 2.6011531,2.258763"
     id="path14"
     style="fill:#6e8296;fill-opacity:1;stroke:none;stroke-width:0.001"
     sodipodi:nodetypes="ccccc" />
  <path
     d="M 1.0591098,0.58981226 L 1.2811909,0.39627555 L 0.75603222,0.39627555 L 0.54962639,0.58981226 L 1.0591098,0.58981226"
     id="path18"
     style="fill:url(#linearGradient3174);fill-opacity:1;stroke:none;stroke-width:0.001" />
  <path
     d="M 2.2043303,1.1464561 L 2.6041543,1.1464561 L 2.8034512,0.97315637 L 2.3888691,0.97315637 L 2.2043303,1.1464561"
     id="path24"
     style="fill:url(#linearGradient3190);fill-opacity:1;stroke:none;stroke-width:0.001"
     sodipodi:nodetypes="ccccc" />
  <path
     d="M 1.9101319,2.2704158 L 2.3350217,2.0055773 L 2.3673077,2.0652258 L 2.5080762,1.8600367 L 2.2562416,1.8898616 L 2.2872371,1.9328075 L 1.8791361,2.182137 L 0.80980942,2.182137 L 0.80980942,2.2704158 L 1.9101319,2.2704158"
     id="path28"
     style="fill:#000000;stroke:none;stroke-width:0.001" />
  <path
     d="M 2.2407445,1.815897 L 2.4770816,1.7133036 L 2.2407445,1.6107089 L 2.2407445,1.683478 L 0.80980942,1.683478 L 0.80980942,1.7574432 L 2.2407445,1.7574432 L 2.2407445,1.815897"
     id="path30"
     style="fill:#000000;stroke:none;stroke-width:0.001" />
  <path
     d="M 1.9101319,1.171699 L 2.3350217,1.435343 L 2.3673077,1.3768888 L 2.5080762,1.5820767 L 2.2562416,1.5522534 L 2.2872371,1.4937978 L 1.8791361,1.2456624 L 0.80980942,1.2456624 L 0.80980942,1.171699 L 1.9101319,1.171699"
     id="path32"
     style="fill:#000000;stroke:none;stroke-width:0.001" />
  <path
     d="M 1.92692,2.2549055 L 2.3505185,1.9912632 L 2.3828046,2.049717 L 2.5235732,1.8457221 L 2.2717402,1.8743513 L 2.3040263,1.9184907 L 1.894634,2.1666268 L 0.82530682,2.1666268 L 0.82530682,2.2549055 L 1.92692,2.2549055"
     id="path34"
     style="fill:#ffffff;stroke:none;stroke-width:0.001" />
  <path
     d="M 2.2562416,1.8015826 L 2.4925793,1.698988 L 2.2562416,1.5963928 L 2.2562416,1.6703555 L 0.82530682,1.6703555 L 0.82530682,1.7431273 L 2.2562416,1.7431273 L 2.2562416,1.8015826"
     id="path36"
     style="fill:#ffffff;stroke:none;stroke-width:0.001" />
  <path
     d="M 1.92692,1.1573835 L 2.3505185,1.4198351 L 2.3828046,1.361379 L 2.5235732,1.5677613 L 2.2717402,1.5379371 L 2.3040263,1.4794825 L 1.894634,1.2301546 L 0.82530682,1.2301546 L 0.82530682,1.1573835 L 1.92692,1.1573835"
     id="path38"
     style="fill:#ffffff;stroke:none;stroke-width:0.001" />
</svg>
