<?xml version="1.0" encoding="UTF-8" standalone="no"?>
<!-- Created with Inkscape (http://www.inkscape.org/) -->

<svg
   xmlns:dc="http://purl.org/dc/elements/1.1/"
   xmlns:cc="http://creativecommons.org/ns#"
   xmlns:rdf="http://www.w3.org/1999/02/22-rdf-syntax-ns#"
   xmlns:svg="http://www.w3.org/2000/svg"
   xmlns="http://www.w3.org/2000/svg"
   version="1.0"
   width="50"
   height="52.851002"
   viewBox="0.549 0.399 2.292 2.401"
   id="svg2">
  <metadata
     id="metadata43">
    <rdf:RDF>
      <cc:Work
         rdf:about="">
        <dc:format>image/svg+xml</dc:format>
        <dc:type
           rdf:resource="http://purl.org/dc/dcmitype/StillImage" />
        <dc:title></dc:title>
      </cc:Work>
    </rdf:RDF>
  </metadata>
  <defs
     id="defs41" />
  <path
     d="M 2.3941279,0.97065381 1.2700398,0.39627555 1.0491214,0.58693558 2.2043972,1.1469238 2.3941279,0.97065381"
     id="path4"
     style="fill:#4965ad;fill-opacity:1;stroke:none" />
  <path
     d="m 1.0591098,0.58981226 0.2220811,-0.19353671 -0.52515868,0 -0.20640583,0.19353671 0.50948341,0"
     id="path18"
     style="fill:#4965ad;fill-opacity:1;stroke:none" />
  <path
     d="m 2.1963407,1.1504509 0.4051559,0 0.2019546,-0.17729453 -0.4201108,0 -0.1869997,0.17729453"
     id="path24"
     style="fill:#4965ad;fill-opacity:1;stroke:none" />
  <path
     d="m 2.2179342,1.1798528 -1.1282158,-0.55711132 -0.49494083,0 0,2.19623822 0.49494083,0 1.1282158,-0.527289 0.3858005,0 0,-1.1118379 -0.3858005,0"
     id="path4163"
     style="fill:#000000;fill-opacity:0.39215686;stroke:none" />
  <path
     d="m 2.2097502,1.1430678 -1.1481056,-0.55711153 -0.50366938,0 0,2.19623873 0.50366938,0 1.1481056,-0.5272895 0.3926032,0 0,-1.1118377 -0.3926032,0"
     id="path10"
     style="fill:#4965ad;fill-opacity:1;stroke:none" />
  <path
     d="m 2.6026831,2.2913358 0.2389433,-0.2163176 -0.00758,-1.0544695 -0.2313634,0.1742648 0,1.0965223"
     id="path3192"
     style="fill:#000000;fill-opacity:0.39215686;stroke:none" />
  <path
     d="M 2.6011531,2.258763 2.8117998,2.0551034 2.8035667,0.96657373 2.6011531,1.1471464 l 0,1.1116166"
     id="path14"
     style="fill:#4965ad;fill-opacity:1;stroke:none" />
  <path
     d="m 1.9101319,2.2704158 0.4248898,-0.2648385 0.032286,0.059648 0.1407685,-0.2051891 -0.2518346,0.029825 0.030995,0.042946 -0.408101,0.2493295 -1.06932668,0 0,0.088279 1.10032248,0"
     id="path28"
     style="fill:#000000;stroke:none" />
  <path
     d="M 2.2407445,1.815897 2.4770816,1.7133036 2.2407445,1.6107089 l 0,0.072769 -1.43093508,0 0,0.073965 1.43093508,0 0,0.058454"
     id="path30"
     style="fill:#000000;stroke:none" />
  <path
     d="m 1.9101319,1.171699 0.4248898,0.263644 0.032286,-0.058454 0.1407685,0.2051879 -0.2518346,-0.029823 0.030995,-0.058456 -0.408101,-0.2481354 -1.06932668,0 0,-0.073963 1.10032248,0"
     id="path32"
     style="fill:#000000;stroke:none" />
  <path
     d="m 1.92692,2.2549055 0.4235985,-0.2636423 0.032286,0.058454 0.1407686,-0.2039949 -0.251833,0.028629 0.032286,0.044139 -0.4093923,0.2481361 -1.06932718,0 0,0.088279 1.10161318,0"
     id="path34"
     style="fill:#ffffff;stroke:none" />
  <path
     d="M 2.2562416,1.8015826 2.4925793,1.698988 2.2562416,1.5963928 l 0,0.073963 -1.43093478,0 0,0.072772 1.43093478,0 0,0.058455"
     id="path36"
     style="fill:#ffffff;stroke:none" />
  <path
     d="m 1.92692,1.1573835 0.4235985,0.2624516 0.032286,-0.058456 0.1407686,0.2063823 -0.251833,-0.029824 0.032286,-0.058455 -0.4093923,-0.2493279 -1.06932718,0 0,-0.072771 1.10161318,0"
     id="path38"
     style="fill:#ffffff;stroke:none" />
</svg>
