<?xml version="1.0" encoding="UTF-8" standalone="no"?>
<!-- Created with Inkscape (http://www.inkscape.org/) -->
<svg
   xmlns:dc="http://purl.org/dc/elements/1.1/"
   xmlns:cc="http://web.resource.org/cc/"
   xmlns:rdf="http://www.w3.org/1999/02/22-rdf-syntax-ns#"
   xmlns:svg="http://www.w3.org/2000/svg"
   xmlns="http://www.w3.org/2000/svg"
   xmlns:xlink="http://www.w3.org/1999/xlink"
   xmlns:sodipodi="http://sodipodi.sourceforge.net/DTD/sodipodi-0.dtd"
   xmlns:inkscape="http://www.inkscape.org/namespaces/inkscape"
   id="svg1998"
   sodipodi:version="0.32"
   inkscape:version="0.45.1"
   width="65.937935"
   height="55.615818"
   version="1.0"
   sodipodi:docname="gateway.svg"
   inkscape:output_extension="org.inkscape.output.svg.inkscape">
  <metadata
     id="metadata2003">
    <rdf:RDF>
      <cc:Work
         rdf:about="">
        <dc:format>image/svg+xml</dc:format>
        <dc:type
           rdf:resource="http://purl.org/dc/dcmitype/StillImage" />
        <dc:title>Router</dc:title>
        <dc:creator>
          <cc:Agent>
            <dc:title>Jeremy Grossmann</dc:title>
          </cc:Agent>
        </dc:creator>
        <dc:publisher>
          <cc:Agent>
            <dc:title>GNS-3</dc:title>
          </cc:Agent>
        </dc:publisher>
        <dc:description>Created for the GNS-3 project (www.gns3.net)</dc:description>
        <cc:license
           rdf:resource="http://creativecommons.org/licenses/GPL/2.0/" />
      </cc:Work>
      <cc:License
         rdf:about="http://creativecommons.org/licenses/GPL/2.0/">
        <cc:permits
           rdf:resource="http://web.resource.org/cc/Reproduction" />
        <cc:permits
           rdf:resource="http://web.resource.org/cc/Distribution" />
        <cc:requires
           rdf:resource="http://web.resource.org/cc/Notice" />
        <cc:permits
           rdf:resource="http://web.resource.org/cc/DerivativeWorks" />
        <cc:requires
           rdf:resource="http://web.resource.org/cc/ShareAlike" />
        <cc:requires
           rdf:resource="http://web.resource.org/cc/SourceCode" />
      </cc:License>
    </rdf:RDF>
  </metadata>
  <defs
     id="defs2001">
    <linearGradient
       inkscape:collect="always"
       id="linearGradient10123">
      <stop
         style="stop-color:#e4405c;stop-opacity:1;"
         offset="0"
         id="stop10125" />
      <stop
         style="stop-color:#e4405c;stop-opacity:0;"
         offset="1"
         id="stop10127" />
    </linearGradient>
    <linearGradient
       inkscape:collect="always"
       xlink:href="#linearGradient10123"
       id="linearGradient9177"
       gradientUnits="userSpaceOnUse"
       gradientTransform="matrix(19.859681,0,0,16.579703,8.0113379,16.798412)"
       x1="1.3990936"
       y1="1.4711363"
       x2="0.49966058"
       y2="0.56367606" />
    <linearGradient
       id="linearGradient9312">
      <stop
         style="stop-color:#3c8c8c;stop-opacity:1;"
         offset="0"
         id="stop9314" />
      <stop
         style="stop-color:#ffffff;stop-opacity:0.94117647;"
         offset="1"
         id="stop9316" />
    </linearGradient>
    <marker
       inkscape:stockid="Arrow2Lstart"
       orient="auto"
       refY="0"
       refX="0"
       id="Arrow2Lstart"
       style="overflow:visible">
      <path
         id="path11918"
         style="font-size:12px;fill-rule:evenodd;stroke-width:0.625;stroke-linejoin:round"
         d="M 8.7185878,4.0337352 L -2.2072895,0.016013256 L 8.7185884,-4.0017078 C 6.97309,-1.6296469 6.9831476,1.6157441 8.7185878,4.0337352 z "
         transform="matrix(1.1,0,0,1.1,1.1,0)" />
    </marker>
    <marker
       inkscape:stockid="Arrow1Send"
       orient="auto"
       refY="0"
       refX="0"
       id="Arrow1Send"
       style="overflow:visible">
      <path
         id="path11921"
         d="M 0,0 L 5,-5 L -12.5,0 L 5,5 L 0,0 z "
         style="fill-rule:evenodd;stroke:#000000;stroke-width:1pt;marker-start:none"
         transform="matrix(-0.2,0,0,-0.2,-1.2,0)" />
    </marker>
    <marker
       inkscape:stockid="Arrow1Lstart"
       orient="auto"
       refY="0"
       refX="0"
       id="Arrow1Lstart"
       style="overflow:visible">
      <path
         id="path11936"
         d="M 0,0 L 5,-5 L -12.5,0 L 5,5 L 0,0 z "
         style="fill-rule:evenodd;stroke:#000000;stroke-width:1pt;marker-start:none"
         transform="matrix(0.8,0,0,0.8,10,0)" />
    </marker>
    <linearGradient
       inkscape:collect="always"
       xlink:href="#linearGradient9312"
       id="linearGradient2216"
       gradientUnits="userSpaceOnUse"
       gradientTransform="matrix(15.252829,0,0,14.082619,53.467529,3.4188377)"
       x1="-1.0929121"
       y1="0.63145506"
       x2="-4.5832458"
       y2="0.070047863" />
  </defs>
  <sodipodi:namedview
     inkscape:window-height="979"
     inkscape:window-width="1400"
     inkscape:pageshadow="2"
     inkscape:pageopacity="0.0"
     guidetolerance="10.0"
     gridtolerance="10.0"
     objecttolerance="10.0"
     borderopacity="1.0"
     bordercolor="#666666"
     pagecolor="#ffffff"
     id="base"
     showguides="true"
     inkscape:guide-bbox="true"
     inkscape:zoom="11.166395"
     inkscape:cx="27.334225"
     inkscape:cy="28.112601"
     inkscape:window-x="124"
     inkscape:window-y="71"
     inkscape:current-layer="svg1998" />
  <rect
     style="opacity:1;fill:#000000;fill-opacity:0.39215686;fill-rule:evenodd;stroke:none;stroke-width:0.2;stroke-linecap:square;stroke-linejoin:miter;stroke-miterlimit:4;stroke-dasharray:none;stroke-opacity:1"
     id="rect4558"
     width="64.553001"
     height="54.450546"
     x="1.3854325"
     y="1.1652724"
     ry="15.247324"
     rx="32.213169"
     inkscape:transform-center-x="8.4568758" />
  <rect
     style="opacity:1;fill:#3c8c8c;fill-opacity:1;fill-rule:evenodd;stroke:none;stroke-width:0.015;stroke-linecap:square;stroke-linejoin:miter;stroke-miterlimit:4;stroke-dasharray:none;stroke-opacity:1"
     id="rect9971"
     width="64.499474"
     height="52.040936"
     x="0"
     y="0.91024613"
     ry="11.802391"
     rx="32.249737"
     inkscape:transform-center-x="8.2952569" />
  <g
     id="g3579"
     transform="matrix(1.0000067,0,0,0.9900067,40.759311,2.327137)">
    <path
       id="path3581"
       d="M 23.677527,9.7502028 L 23.620489,9.1645488 L 23.506407,8.5788958 L 23.316272,8.0127658 L 23.03107,7.4271138 L 22.650803,6.8609828 L 22.213492,6.2948508 L 21.681115,5.7482428 L 21.072684,5.2211558 L 20.3882,4.6940668 L 19.627661,4.1865018 L 18.810084,3.6789348 L 17.916451,3.1908918 L 16.946765,2.7028468 L 15.920038,2.2733688 L 14.817258,1.8438898 L 13.657439,1.4144108 L 12.45959,1.0239748 L 11.18569,0.6725838 L 9.8737612,0.3211921 L 8.5047922,0.0088434012 L 7.0977972,-0.2839824 L 5.6527742,-0.5572882 L 4.1697252,-0.7915484 L 2.6676622,-1.0258099 L 1.1275722,-1.2015057 L -0.45054482,-1.3576797 L -2.0476748,-1.4943326 L -3.6448038,-1.5919412 L -5.2609448,-1.6700286 L -6.8961048,-1.7285939 L -8.5122458,-1.7285939 L -8.5122458,-1.7285939 L -10.147406,-1.7285939 L -11.78256,-1.6700286 L -13.379691,-1.5919412 L -14.995836,-1.4943326 L -16.592965,-1.3576797 L -18.152069,-1.2015057 L -19.711169,-1.0258099 L -21.213234,-0.7915484 L -22.696283,-0.5572882 L -24.141307,-0.2839824 L -25.548301,0.0088434012 L -26.917268,0.3211921 L -28.229199,0.6725838 L -29.503099,1.0239748 L -30.700949,1.4144108 L -31.860772,1.8438898 L -32.963548,2.2733688 L -33.990275,2.7028468 L -34.959963,3.1908918 L -35.853593,3.6789348 L -36.671173,4.1865018 L -37.431708,4.6940668 L -38.116197,5.2211558 L -38.705611,5.7482428 L -39.257001,6.2948508 L -39.694309,6.8609828 L -40.074582,7.4271138 L -40.359781,8.0127658 L -40.568933,8.5788958 L -40.683011,9.1645488 L -40.721038,9.7502028 L -40.721038,9.7502028 L -40.683011,10.335856 L -40.568933,10.901987 L -40.359781,11.48764 L -40.074582,12.03425 L -39.694309,12.619902 L -39.257001,13.166511 L -38.705611,13.732642 L -38.116197,14.279254 L -37.431708,14.806341 L -36.671173,15.294385 L -35.853593,15.801949 L -34.959963,16.309514 L -33.990275,16.758515 L -32.963548,17.207517 L -31.860772,17.656519 L -30.700949,18.066477 L -29.503099,18.456913 L -28.229199,18.808302 L -26.917268,19.159693 L -25.548301,19.472041 L -24.141307,19.784392 L -22.696283,20.038171 L -21.213234,20.291955 L -19.711169,20.506693 L -18.152069,20.682391 L -16.592965,20.838567 L -14.995836,20.975218 L -13.379691,21.072827 L -11.78256,21.150915 L -10.147406,21.20948 L -8.5122458,21.20948 L -8.5122458,21.20948 L -6.8961048,21.20948 L -5.2609448,21.150915 L -3.6448038,21.072827 L -2.0476748,20.975218 L -0.45054482,20.838567 L 1.1275722,20.682391 L 2.6676622,20.506693 L 4.1697252,20.291955 L 5.6527742,20.038171 L 7.0977972,19.784392 L 8.5047922,19.472041 L 9.8737612,19.159693 L 11.18569,18.808302 L 12.45959,18.456913 L 13.657439,18.066477 L 14.817258,17.656519 L 15.920038,17.207517 L 16.946765,16.758515 L 17.916451,16.309514 L 18.810084,15.801949 L 19.627661,15.294385 L 20.3882,14.806341 L 21.072684,14.279254 L 21.681115,13.732642 L 22.213492,13.166511 L 22.650803,12.619902 L 23.03107,12.03425 L 23.316272,11.48764 L 23.506407,10.901987 L 23.620489,10.335856 L 23.677527,9.7502028"
       style="fill:#3c8c8c;fill-opacity:1;stroke:none;stroke-width:0.01928605;stroke-miterlimit:4;stroke-dasharray:none;stroke-opacity:1" />
  </g>
  <g
     id="g4160"
     transform="matrix(1.0000067,0,0,0.9900067,-7.7865845e-2,0.5539581)">
    <path
       id="path4815"
       d="M 64.514069,11.541297 L 64.457031,10.955643 L 64.342949,10.36999 L 64.152814,9.8038604 L 63.867612,9.2182077 L 63.487345,8.6520765 L 63.050034,8.0859452 L 62.517657,7.5393369 L 61.909226,7.0122499 L 61.224742,6.4851607 L 60.464203,5.9775955 L 59.646626,5.4700289 L 58.752993,4.9819859 L 57.783307,4.4939413 L 56.75658,4.0644625 L 55.6538,3.6349838 L 54.493981,3.2055052 L 53.296132,2.8150692 L 52.022232,2.4636777 L 50.710303,2.1122862 L 49.341334,1.7999375 L 47.934339,1.5071117 L 46.489316,1.2338059 L 45.006267,0.99954576 L 43.504204,0.76528425 L 41.964114,0.58958842 L 40.385997,0.43341443 L 38.788867,0.29676153 L 37.191738,0.19915292 L 35.575597,0.12106555 L 33.940437,0.06250017 L 32.324296,0.06250017 L 32.324296,0.06250017 L 30.689136,0.06250017 L 29.053981,0.12106555 L 27.45685,0.19915292 L 25.840705,0.29676153 L 24.243576,0.43341443 L 22.684472,0.58958842 L 21.125372,0.76528425 L 19.623307,0.99954576 L 18.140258,1.2338059 L 16.695234,1.5071117 L 15.28824,1.7999375 L 13.919273,2.1122862 L 12.607342,2.4636777 L 11.333442,2.8150692 L 10.135592,3.2055052 L 8.9757693,3.6349838 L 7.8729941,4.0644625 L 6.8462664,4.4939413 L 5.8765785,4.9819859 L 4.9829488,5.4700289 L 4.1653682,5.9775955 L 3.4048335,6.4851607 L 2.7203448,7.0122499 L 2.1309311,7.5393369 L 1.5795405,8.0859452 L 1.1422325,8.6520765 L 0.76195982,9.2182077 L 0.47676065,9.8038604 L 0.26760898,10.36999 L 0.15353084,10.955643 L 0.11550327,11.541297 L 0.11550327,11.541297 L 0.15353084,12.12695 L 0.26760898,12.693081 L 0.47676065,13.278734 L 0.76195982,13.825344 L 1.1422325,14.410996 L 1.5795405,14.957605 L 2.1309311,15.523736 L 2.7203448,16.070348 L 3.4048335,16.597435 L 4.1653682,17.085479 L 4.9829488,17.593043 L 5.8765785,18.100608 L 6.8462664,18.549609 L 7.8729941,18.998611 L 8.9757693,19.447613 L 10.135592,19.857571 L 11.333442,20.248007 L 12.607342,20.599396 L 13.919273,20.950787 L 15.28824,21.263135 L 16.695234,21.575486 L 18.140258,21.829265 L 19.623307,22.083049 L 21.125372,22.297787 L 22.684472,22.473485 L 24.243576,22.629661 L 25.840705,22.766312 L 27.45685,22.863921 L 29.053981,22.942009 L 30.689136,23.000574 L 32.324296,23.000574 L 32.324296,23.000574 L 33.940437,23.000574 L 35.575597,22.942009 L 37.191738,22.863921 L 38.788867,22.766312 L 40.385997,22.629661 L 41.964114,22.473485 L 43.504204,22.297787 L 45.006267,22.083049 L 46.489316,21.829265 L 47.934339,21.575486 L 49.341334,21.263135 L 50.710303,20.950787 L 52.022232,20.599396 L 53.296132,20.248007 L 54.493981,19.857571 L 55.6538,19.447613 L 56.75658,18.998611 L 57.783307,18.549609 L 58.752993,18.100608 L 59.646626,17.593043 L 60.464203,17.085479 L 61.224742,16.597435 L 61.909226,16.070348 L 62.517657,15.523736 L 63.050034,14.957605 L 63.487345,14.410996 L 63.867612,13.825344 L 64.152814,13.278734 L 64.342949,12.693081 L 64.457031,12.12695 L 64.514069,11.541297"
       style="fill:url(#linearGradient2216);fill-opacity:1;stroke:none;stroke-width:0.01928605;stroke-miterlimit:4;stroke-dasharray:none;stroke-opacity:1" />
    <path
       id="path4819"
       d="M 33.023738,8.6936939 L 37.664889,10.327433 L 48.909313,5.4458969 L 53.946665,7.0599533 L 51.229891,3.0248142 L 38.061087,3.0248142 L 43.475766,4.225514 L 33.023738,8.6936939"
       style="fill:#000000;stroke:none;stroke-width:0.001" />
    <path
       id="path4821"
       d="M 31.08049,13.161874 L 26.439334,11.528132 L 15.591104,16.429352 L 10.176425,14.775929 L 12.874332,19.244109 L 26.439334,19.244109 L 20.628458,17.630052 L 31.08049,13.161874"
       style="fill:#000000;stroke:none;stroke-width:0.001" />
    <path
       id="path4823"
       d="M 11.327278,4.225514 L 15.968435,2.611458 L 27.212859,7.0599533 L 32.25021,5.8592533 L 29.552303,9.8943939 L 16.364632,9.8943939 L 21.779313,8.6936939 L 11.327278,4.225514"
       style="fill:#000000;stroke:none;stroke-width:0.001" />
    <path
       id="path4825"
       d="M 53.154272,18.023723 L 48.513117,19.657467 L 37.664889,14.775929 L 32.25021,16.429352 L 34.966985,12.33516 L 48.513117,12.33516 L 42.70224,13.555544 L 53.154272,18.023723"
       style="fill:#000000;stroke:none;stroke-width:0.001" />
    <path
       id="path4827"
       d="M 33.419936,9.1070493 L 38.061087,10.721105 L 49.286643,5.8592533 L 54.323994,7.4929926 L 51.60722,3.4184854 L 38.438415,3.4184854 L 43.871962,4.6191872 L 33.419936,9.1070493"
       style="fill:#ffffff;stroke:none;stroke-width:0.001" />
    <path
       id="path4829"
       d="M 31.476681,13.555544 L 26.816665,11.941487 L 15.968435,16.803341 L 10.553753,15.189284 L 13.25166,19.657467 L 26.816665,19.657467 L 21.005786,18.023723 L 31.476681,13.555544"
       style="fill:#ffffff;stroke:none;stroke-width:0.001" />
    <path
       id="path4831"
       d="M 11.723476,4.6191872 L 16.364632,3.0248142 L 27.609055,7.4929926 L 32.627541,6.2529266 L 29.929634,10.327433 L 16.741963,10.327433 L 22.175509,9.1070493 L 11.723476,4.6191872"
       style="fill:#ffffff;stroke:none;stroke-width:0.001" />
    <path
       id="path4833"
       d="M 53.531602,18.43708 L 48.909313,20.070823 L 38.061087,15.189284 L 32.627541,16.803341 L 35.344315,12.7682 L 48.909313,12.7682 L 43.098437,13.9689 L 53.531602,18.43708"
       style="fill:#ffffff;stroke:none;stroke-width:0.001" />
  </g>
  <path
     id="path2049"
     d="M 28.943442,36.959341 L 19.490234,36.959341 L 19.490234,35.865079 L 16.59072,38.0536 L 19.490234,40.490818 L 19.490234,39.413136 L 28.943442,39.413136 L 28.943442,36.959341"
     style="fill:#000000;stroke:none;stroke-width:0.001" />
  <path
     id="path2051"
     d="M 30.869831,35.334527 L 24.05796,29.631107 L 25.031085,28.818701 L 21.138587,28.818701 L 21.138587,32.068324 L 22.091852,31.255919 L 28.943442,36.959341 L 30.869831,35.334527"
     style="fill:#000000;stroke:none;stroke-width:0.001" />
  <path
     id="path2053"
     d="M 33.789205,35.334527 L 33.789205,27.17731 L 35.080083,27.17731 L 32.498325,25.005368 L 29.578952,27.17731 L 30.869831,27.17731 L 30.869831,35.334527 L 33.789205,35.334527"
     style="fill:#000000;stroke:none;stroke-width:0.001" />
  <path
     id="path2055"
     d="M 35.755312,36.959341 L 42.587042,31.255919 L 43.540307,32.068324 L 43.540307,28.818701 L 39.667669,28.818701 L 40.620934,29.631107 L 33.789205,35.334527 L 35.755312,36.959341"
     style="fill:#000000;stroke:none;stroke-width:0.001" />
  <path
     id="path2057"
     d="M 35.755312,39.413136 L 45.486557,39.413136 L 45.486557,40.490818 L 48.108033,38.0536 L 45.486557,35.865079 L 45.486557,36.959341 L 35.755312,36.959341 L 35.755312,39.413136"
     style="fill:#000000;stroke:none;stroke-width:0.001" />
  <path
     id="path2059"
     d="M 33.789205,41.037947 L 40.620934,46.741366 L 39.667669,47.570353 L 43.540307,47.305077 L 43.540307,44.320729 L 42.587042,45.133135 L 35.755312,39.413136 L 33.789205,41.037947"
     style="fill:#000000;stroke:none;stroke-width:0.001" />
  <path
     id="path2061"
     d="M 30.869831,41.037947 L 30.869831,49.211745 L 29.578952,49.211745 L 32.498325,51.367106 L 35.080083,49.211745 L 33.789205,49.211745 L 33.789205,41.037947 L 30.869831,41.037947"
     style="fill:#000000;stroke:none;stroke-width:0.001" />
  <path
     id="path2063"
     d="M 28.943442,39.413136 L 22.091852,45.133135 L 21.138587,44.320729 L 21.138587,47.570353 L 25.031085,47.570353 L 24.05796,46.741366 L 30.869831,41.037947 L 28.943442,39.413136"
     style="fill:#000000;stroke:none;stroke-width:0.001" />
  <path
     id="path2065"
     d="M 29.241337,37.241194 L 19.827848,37.241194 L 19.827848,36.146935 L 16.908475,38.318876 L 19.827848,40.772673 L 19.827848,39.694992 L 29.241337,39.694992 L 29.241337,37.241194"
     style="fill:#ffffff;stroke:none;stroke-width:0.001" />
  <path
     id="path2067"
     d="M 31.207444,35.616383 L 24.375715,29.896383 L 25.368699,29.083976 L 21.456342,29.083976 L 21.456342,32.35018 L 22.409607,31.521194 L 29.241337,37.241194 L 31.207444,35.616383"
     style="fill:#ffffff;stroke:none;stroke-width:0.001" />
  <path
     id="path2069"
     d="M 34.126818,35.616383 L 34.126818,27.442585 L 35.417699,27.442585 L 32.816079,25.270643 L 29.896705,27.442585 L 31.207444,27.442585 L 31.207444,35.616383 L 34.126818,35.616383"
     style="fill:#ffffff;stroke:none;stroke-width:0.001" />
  <path
     id="path2071"
     d="M 36.092927,37.241194 L 42.904797,31.521194 L 43.877921,32.35018 L 43.877921,29.083976 L 39.965564,29.083976 L 40.93869,29.896383 L 34.126818,35.616383 L 36.092927,37.241194"
     style="fill:#ffffff;stroke:none;stroke-width:0.001" />
  <path
     id="path2073"
     d="M 36.092927,39.694992 L 45.804311,39.694992 L 45.804311,40.772673 L 48.425789,38.318876 L 45.804311,36.146935 L 45.804311,37.241194 L 36.092927,37.241194 L 36.092927,39.694992"
     style="fill:#ffffff;stroke:none;stroke-width:0.001" />
  <path
     id="path2075"
     d="M 34.126818,41.319804 L 40.93869,47.023223 L 39.965564,47.835628 L 43.877921,47.570353 L 43.877921,44.569425 L 42.904797,45.381831 L 36.092927,39.694992 L 34.126818,41.319804"
     style="fill:#ffffff;stroke:none;stroke-width:0.001" />
  <path
     id="path2077"
     d="M 31.207444,41.319804 L 31.207444,49.460439 L 29.896705,49.460439 L 32.816079,51.648961 L 35.417699,49.460439 L 34.126818,49.460439 L 34.126818,41.319804 L 31.207444,41.319804"
     style="fill:#ffffff;stroke:none;stroke-width:0.001" />
  <path
     id="path2079"
     d="M 29.241337,39.694992 L 22.409607,45.381831 L 21.456342,44.569425 L 21.456342,47.835628 L 25.368699,47.835628 L 24.375715,47.023223 L 31.207444,41.319804 L 29.241337,39.694992"
     style="fill:#ffffff;stroke:none;stroke-width:0.001" />
  <path
     id="path2081"
     d="M 37.701562,38.451512 L 37.681701,38.235977 L 37.661842,37.987282 L 37.622121,37.771746 L 37.582403,37.556209 L 37.522824,37.324094 L 37.443385,37.108556 L 37.344088,36.89302 L 37.264648,36.677484 L 37.145489,36.478527 L 37.026332,36.279571 L 36.887313,36.080614 L 36.728436,35.881657 L 36.56956,35.699281 L 36.390823,35.533484 L 36.212085,35.351106 L 36.033348,35.201891 L 35.814891,35.052673 L 35.616295,34.903455 L 35.397838,34.770819 L 35.179381,34.65476 L 34.921206,34.522121 L 34.702749,34.422644 L 34.444573,34.339745 L 34.186396,34.256846 L 33.948082,34.173949 L 33.670045,34.124209 L 33.431731,34.057891 L 33.133834,34.024731 L 32.875657,33.991571 L 32.597624,33.97499 L 32.339447,33.97499 L 32.339447,33.97499 L 32.061412,33.97499 L 31.803236,33.991571 L 31.5252,34.024731 L 31.267024,34.057891 L 30.988988,34.124209 L 30.730812,34.173949 L 30.472636,34.256846 L 30.214461,34.339745 L 29.976146,34.422644 L 29.757688,34.522121 L 29.499513,34.65476 L 29.261197,34.770819 L 29.062599,34.903455 L 28.844144,35.052673 L 28.645546,35.201891 L 28.46681,35.351106 L 28.268213,35.533484 L 28.109336,35.699281 L 27.950458,35.881657 L 27.791581,36.080614 L 27.652562,36.279571 L 27.533405,36.478527 L 27.414245,36.677484 L 27.314948,36.89302 L 27.21565,37.108556 L 27.156071,37.324094 L 27.096491,37.556209 L 27.036912,37.771746 L 26.997193,37.987282 L 26.997193,38.235977 L 26.977333,38.451512 L 26.977333,38.451512 L 26.997193,38.667049 L 26.997193,38.899166 L 27.036912,39.131282 L 27.096491,39.363398 L 27.156071,39.578934 L 27.21565,39.79447 L 27.314948,40.010006 L 27.414245,40.225542 L 27.533405,40.424498 L 27.652562,40.623454 L 27.791581,40.822411 L 27.950458,41.021368 L 28.109336,41.203745 L 28.268213,41.369542 L 28.46681,41.535339 L 28.645546,41.701137 L 28.844144,41.850354 L 29.062599,41.999571 L 29.261197,42.132209 L 29.499513,42.248267 L 29.757688,42.364324 L 29.976146,42.480382 L 30.214461,42.579861 L 30.472636,42.66276 L 30.730812,42.712498 L 30.988988,42.778817 L 31.267024,42.845137 L 31.5252,42.861715 L 31.803236,42.911455 L 32.061412,42.928035 L 32.339447,42.928035 L 32.339447,42.928035 L 32.597624,42.928035 L 32.875657,42.911455 L 33.133834,42.861715 L 33.431731,42.845137 L 33.670045,42.778817 L 33.948082,42.712498 L 34.186396,42.66276 L 34.444573,42.579861 L 34.702749,42.480382 L 34.921206,42.364324 L 35.179381,42.248267 L 35.397838,42.132209 L 35.616295,41.999571 L 35.814891,41.850354 L 36.033348,41.701137 L 36.212085,41.535339 L 36.390823,41.369542 L 36.56956,41.203745 L 36.728436,41.021368 L 36.887313,40.822411 L 37.026332,40.623454 L 37.145489,40.424498 L 37.264648,40.225542 L 37.344088,40.010006 L 37.443385,39.79447 L 37.522824,39.578934 L 37.582403,39.363398 L 37.622121,39.131282 L 37.661842,38.899166 L 37.681701,38.667049 L 37.701562,38.451512"
     style="fill:#000000;stroke:none;stroke-width:0.001" />
  <path
     id="path2083"
     d="M 38.337071,38.998644 L 38.31721,38.783107 L 38.29735,38.550991 L 38.257632,38.318876 L 38.237774,38.086759 L 38.158333,37.871223 L 38.078896,37.655687 L 37.999456,37.440151 L 37.900158,37.241194 L 37.780998,37.025657 L 37.661842,36.826701 L 37.522824,36.627746 L 37.383806,36.428789 L 37.205068,36.246412 L 37.026332,36.080614 L 36.867455,35.914817 L 36.668858,35.749021 L 36.450401,35.599803 L 36.251806,35.450585 L 36.033348,35.317948 L 35.814891,35.201891 L 35.576576,35.085832 L 35.338258,34.969775 L 35.080083,34.870296 L 34.841767,34.787398 L 34.583592,34.721078 L 34.325416,34.67134 L 34.067238,34.605021 L 33.789205,34.571861 L 33.531028,34.538701 L 33.252992,34.522121 L 32.974957,34.522121 L 32.974957,34.522121 L 32.696921,34.522121 L 32.438746,34.538701 L 32.18057,34.571861 L 31.902534,34.605021 L 31.644359,34.67134 L 31.386182,34.721078 L 31.108147,34.787398 L 30.869831,34.870296 L 30.631514,34.969775 L 30.373338,35.085832 L 30.154882,35.201891 L 29.916566,35.317948 L 29.698109,35.450585 L 29.479652,35.599803 L 29.281055,35.749021 L 29.10232,35.914817 L 28.903721,36.080614 L 28.744845,36.246412 L 28.585968,36.428789 L 28.42709,36.627746 L 28.288072,36.826701 L 28.168916,37.025657 L 28.049756,37.241194 L 27.950458,37.440151 L 27.871019,37.655687 L 27.791581,37.871223 L 27.732001,38.086759 L 27.692283,38.318876 L 27.652562,38.550991 L 27.632703,38.783107 L 27.632703,38.998644 L 27.632703,38.998644 L 27.632703,39.23076 L 27.652562,39.462875 L 27.692283,39.661832 L 27.732001,39.893949 L 27.791581,40.126065 L 27.871019,40.341601 L 27.950458,40.557137 L 28.049756,40.772673 L 28.168916,40.971629 L 28.288072,41.170585 L 28.42709,41.369542 L 28.585968,41.551919 L 28.744845,41.750875 L 28.903721,41.916673 L 29.10232,42.08247 L 29.281055,42.248267 L 29.479652,42.397484 L 29.698109,42.530121 L 29.916566,42.67934 L 30.154882,42.795397 L 30.373338,42.911455 L 30.631514,43.027514 L 30.869831,43.110413 L 31.108147,43.193309 L 31.386182,43.276209 L 31.644359,43.342529 L 31.902534,43.392267 L 32.18057,43.425426 L 32.438746,43.458586 L 32.696921,43.475165 L 32.974957,43.475165 L 32.974957,43.475165 L 33.252992,43.475165 L 33.531028,43.458586 L 33.789205,43.425426 L 34.067238,43.392267 L 34.325416,43.342529 L 34.583592,43.276209 L 34.841767,43.193309 L 35.080083,43.110413 L 35.338258,43.027514 L 35.576576,42.911455 L 35.814891,42.795397 L 36.033348,42.67934 L 36.251806,42.530121 L 36.450401,42.397484 L 36.668858,42.248267 L 36.867455,42.08247 L 37.026332,41.916673 L 37.205068,41.750875 L 37.383806,41.551919 L 37.522824,41.369542 L 37.661842,41.170585 L 37.780998,40.971629 L 37.900158,40.772673 L 37.999456,40.557137 L 38.078896,40.341601 L 38.158333,40.126065 L 38.237774,39.893949 L 38.257632,39.661832 L 38.29735,39.462875 L 38.31721,39.23076 L 38.337071,38.998644"
     style="fill:#ffffff;stroke:none;stroke-width:0.001" />
  <path
     id="path2085"
     d="M 37.999456,38.733368 L 37.979595,38.501252 L 37.979595,38.269136 L 37.939876,38.0536 L 37.880298,37.821484 L 37.82072,37.605948 L 37.761141,37.390412 L 37.661842,37.174875 L 37.562542,36.959341 L 37.463244,36.760383 L 37.344088,36.561426 L 37.18521,36.36247 L 37.026332,36.163513 L 36.887313,35.981137 L 36.708577,35.81534 L 36.529839,35.649542 L 36.331243,35.483745 L 36.132646,35.334527 L 35.93405,35.18531 L 35.715593,35.052673 L 35.477275,34.920034 L 35.238961,34.803977 L 35.020503,34.704498 L 34.762328,34.605021 L 34.504152,34.522121 L 34.245976,34.439224 L 33.9878,34.389486 L 33.729625,34.339745 L 33.451589,34.306585 L 33.193413,34.273426 L 32.915378,34.256846 L 32.657203,34.256846 L 32.657203,34.256846 L 32.379166,34.256846 L 32.120991,34.273426 L 31.842954,34.306585 L 31.564918,34.339745 L 31.306743,34.389486 L 31.048567,34.439224 L 30.790391,34.522121 L 30.532215,34.605021 L 30.2939,34.704498 L 30.055582,34.803977 L 29.817268,34.920034 L 29.578952,35.052673 L 29.380354,35.18531 L 29.161899,35.334527 L 28.963301,35.483745 L 28.784564,35.649542 L 28.585968,35.81534 L 28.40723,35.981137 L 28.268213,36.163513 L 28.109336,36.36247 L 27.950458,36.561426 L 27.85116,36.760383 L 27.732001,36.959341 L 27.632703,37.174875 L 27.533405,37.390412 L 27.473825,37.605948 L 27.414245,37.821484 L 27.354667,38.0536 L 27.314948,38.269136 L 27.314948,38.501252 L 27.295087,38.733368 L 27.295087,38.733368 L 27.314948,38.948905 L 27.314948,39.18102 L 27.354667,39.413136 L 27.414245,39.628672 L 27.473825,39.860787 L 27.533405,40.076325 L 27.632703,40.291862 L 27.732001,40.490818 L 27.85116,40.706354 L 27.950458,40.90531 L 28.109336,41.104268 L 28.268213,41.286643 L 28.40723,41.469021 L 28.585968,41.634817 L 28.784564,41.817194 L 28.963301,41.966412 L 29.161899,42.132209 L 29.380354,42.264847 L 29.578952,42.414063 L 29.817268,42.530121 L 30.055582,42.64618 L 30.2939,42.762237 L 30.532215,42.845137 L 30.790391,42.928035 L 31.048567,43.010934 L 31.306743,43.060674 L 31.564918,43.110413 L 31.842954,43.160151 L 32.120991,43.193309 L 32.379166,43.193309 L 32.657203,43.209889 L 32.657203,43.209889 L 32.915378,43.193309 L 33.193413,43.193309 L 33.451589,43.160151 L 33.729625,43.110413 L 33.9878,43.060674 L 34.245976,43.010934 L 34.504152,42.928035 L 34.762328,42.845137 L 35.020503,42.762237 L 35.238961,42.64618 L 35.477275,42.530121 L 35.715593,42.414063 L 35.93405,42.264847 L 36.132646,42.132209 L 36.331243,41.966412 L 36.529839,41.817194 L 36.708577,41.634817 L 36.887313,41.469021 L 37.026332,41.286643 L 37.18521,41.104268 L 37.344088,40.90531 L 37.463244,40.706354 L 37.562542,40.490818 L 37.661842,40.291862 L 37.761141,40.076325 L 37.82072,39.860787 L 37.880298,39.628672 L 37.939876,39.413136 L 37.979595,39.18102 L 37.979595,38.948905 L 37.999456,38.733368"
     style="fill:url(#linearGradient9177);fill-opacity:1;stroke:none;stroke-width:0.001" />
</svg>
