<?xml version="1.0" encoding="UTF-8" standalone="no"?>
<!-- Created with Inkscape (http://www.inkscape.org/) -->
<svg
   xmlns:dc="http://purl.org/dc/elements/1.1/"
   xmlns:cc="http://web.resource.org/cc/"
   xmlns:rdf="http://www.w3.org/1999/02/22-rdf-syntax-ns#"
   xmlns:svg="http://www.w3.org/2000/svg"
   xmlns="http://www.w3.org/2000/svg"
   xmlns:xlink="http://www.w3.org/1999/xlink"
   xmlns:sodipodi="http://sodipodi.sourceforge.net/DTD/sodipodi-0.dtd"
   xmlns:inkscape="http://www.inkscape.org/namespaces/inkscape"
   id="svg1998"
   sodipodi:version="0.32"
   inkscape:version="0.45.1"
   width="65.937935"
   height="55.615818"
   version="1.0"
   sodipodi:docbase="/home/grossmj/workspace/gns3-artwork/symbols"
   sodipodi:docname="gateway.selected.svg"
   inkscape:output_extension="org.inkscape.output.svg.inkscape">
  <metadata
     id="metadata2003">
    <rdf:RDF>
      <cc:Work
         rdf:about="">
        <dc:format>image/svg+xml</dc:format>
        <dc:type
           rdf:resource="http://purl.org/dc/dcmitype/StillImage" />
        <dc:title>Router</dc:title>
        <dc:creator>
          <cc:Agent>
            <dc:title>Jeremy Grossmann</dc:title>
          </cc:Agent>
        </dc:creator>
        <dc:publisher>
          <cc:Agent>
            <dc:title>GNS-3</dc:title>
          </cc:Agent>
        </dc:publisher>
        <dc:description>Created for the GNS-3 project (www.gns3.net)</dc:description>
        <cc:license
           rdf:resource="http://creativecommons.org/licenses/GPL/2.0/" />
      </cc:Work>
      <cc:License
         rdf:about="http://creativecommons.org/licenses/GPL/2.0/">
        <cc:permits
           rdf:resource="http://web.resource.org/cc/Reproduction" />
        <cc:permits
           rdf:resource="http://web.resource.org/cc/Distribution" />
        <cc:requires
           rdf:resource="http://web.resource.org/cc/Notice" />
        <cc:permits
           rdf:resource="http://web.resource.org/cc/DerivativeWorks" />
        <cc:requires
           rdf:resource="http://web.resource.org/cc/ShareAlike" />
        <cc:requires
           rdf:resource="http://web.resource.org/cc/SourceCode" />
      </cc:License>
    </rdf:RDF>
  </metadata>
  <defs
     id="defs2001">
    <linearGradient
       inkscape:collect="always"
       id="linearGradient10123">
      <stop
         style="stop-color:#e4405c;stop-opacity:1;"
         offset="0"
         id="stop10125" />
      <stop
         style="stop-color:#e4405c;stop-opacity:0;"
         offset="1"
         id="stop10127" />
    </linearGradient>
    <linearGradient
       inkscape:collect="always"
       xlink:href="#linearGradient10123"
       id="linearGradient9177"
       gradientUnits="userSpaceOnUse"
       gradientTransform="matrix(19.859681,0,0,16.668935,8.0113379,16.589496)"
       x1="1.3990936"
       y1="1.4711363"
       x2="0.49966058"
       y2="0.56367606" />
    <linearGradient
       id="linearGradient9312">
      <stop
         style="stop-color:#3c8c8c;stop-opacity:1;"
         offset="0"
         id="stop9314" />
      <stop
         style="stop-color:#ffffff;stop-opacity:0.94117647;"
         offset="1"
         id="stop9316" />
    </linearGradient>
    <marker
       inkscape:stockid="Arrow2Lstart"
       orient="auto"
       refY="0"
       refX="0"
       id="Arrow2Lstart"
       style="overflow:visible">
      <path
         id="path11918"
         style="font-size:12px;fill-rule:evenodd;stroke-width:0.625;stroke-linejoin:round"
         d="M 8.7185878,4.0337352 L -2.2072895,0.016013256 L 8.7185884,-4.0017078 C 6.97309,-1.6296469 6.9831476,1.6157441 8.7185878,4.0337352 z "
         transform="matrix(1.1,0,0,1.1,1.1,0)" />
    </marker>
    <marker
       inkscape:stockid="Arrow1Send"
       orient="auto"
       refY="0"
       refX="0"
       id="Arrow1Send"
       style="overflow:visible">
      <path
         id="path11921"
         d="M 0,0 L 5,-5 L -12.5,0 L 5,5 L 0,0 z "
         style="fill-rule:evenodd;stroke:#000000;stroke-width:1pt;marker-start:none"
         transform="matrix(-0.2,0,0,-0.2,-1.2,0)" />
    </marker>
    <marker
       inkscape:stockid="Arrow1Lstart"
       orient="auto"
       refY="0"
       refX="0"
       id="Arrow1Lstart"
       style="overflow:visible">
      <path
         id="path11936"
         d="M 0,0 L 5,-5 L -12.5,0 L 5,5 L 0,0 z "
         style="fill-rule:evenodd;stroke:#000000;stroke-width:1pt;marker-start:none"
         transform="matrix(0.8,0,0,0.8,10,0)" />
    </marker>
  </defs>
  <sodipodi:namedview
     inkscape:window-height="979"
     inkscape:window-width="1400"
     inkscape:pageshadow="2"
     inkscape:pageopacity="0.0"
     guidetolerance="10.0"
     gridtolerance="10.0"
     objecttolerance="10.0"
     borderopacity="1.0"
     bordercolor="#666666"
     pagecolor="#ffffff"
     id="base"
     showguides="true"
     inkscape:guide-bbox="true"
     inkscape:zoom="11.166395"
     inkscape:cx="27.334225"
     inkscape:cy="28.112601"
     inkscape:window-x="124"
     inkscape:window-y="71"
     inkscape:current-layer="svg1998" />
  <rect
     style="opacity:1;fill:#000000;fill-opacity:0.39215686;fill-rule:evenodd;stroke:none;stroke-width:0.2;stroke-linecap:square;stroke-linejoin:miter;stroke-miterlimit:4;stroke-dasharray:none;stroke-opacity:1"
     id="rect4558"
     width="64.552505"
     height="54.743599"
     x="1.3854325"
     y="0.87222236"
     ry="15.329384"
     rx="32.212925"
     inkscape:transform-center-x="8.4568136" />
  <rect
     style="opacity:1;fill:#194b4b;fill-opacity:1;fill-rule:evenodd;stroke:none;stroke-width:0.015;stroke-linecap:square;stroke-linejoin:miter;stroke-miterlimit:4;stroke-dasharray:none;stroke-opacity:1"
     id="rect9971"
     width="64.499474"
     height="52.321018"
     x="0"
     y="0.61582047"
     ry="11.865911"
     rx="32.249737"
     inkscape:transform-center-x="8.2952569" />
  <g
     id="g4160"
     transform="matrix(1.0000067,0,0,0.995335,-7.7865845e-2,0.2576149)">
    <path
       id="path4819"
       d="M 33.023738,8.6936939 L 37.664889,10.327433 L 48.909313,5.4458969 L 53.946665,7.0599533 L 51.229891,3.0248142 L 38.061087,3.0248142 L 43.475766,4.225514 L 33.023738,8.6936939"
       style="fill:#000000;stroke:none;stroke-width:0.001" />
    <path
       id="path4821"
       d="M 31.08049,13.161874 L 26.439334,11.528132 L 15.591104,16.429352 L 10.176425,14.775929 L 12.874332,19.244109 L 26.439334,19.244109 L 20.628458,17.630052 L 31.08049,13.161874"
       style="fill:#000000;stroke:none;stroke-width:0.001" />
    <path
       id="path4823"
       d="M 11.327278,4.225514 L 15.968435,2.611458 L 27.212859,7.0599533 L 32.25021,5.8592533 L 29.552303,9.8943939 L 16.364632,9.8943939 L 21.779313,8.6936939 L 11.327278,4.225514"
       style="fill:#000000;stroke:none;stroke-width:0.001" />
    <path
       id="path4825"
       d="M 53.154272,18.023723 L 48.513117,19.657467 L 37.664889,14.775929 L 32.25021,16.429352 L 34.966985,12.33516 L 48.513117,12.33516 L 42.70224,13.555544 L 53.154272,18.023723"
       style="fill:#000000;stroke:none;stroke-width:0.001" />
    <path
       id="path4827"
       d="M 33.419936,9.1070493 L 38.061087,10.721105 L 49.286643,5.8592533 L 54.323994,7.4929926 L 51.60722,3.4184854 L 38.438415,3.4184854 L 43.871962,4.6191872 L 33.419936,9.1070493"
       style="fill:#ffffff;stroke:none;stroke-width:0.001" />
    <path
       id="path4829"
       d="M 31.476681,13.555544 L 26.816665,11.941487 L 15.968435,16.803341 L 10.553753,15.189284 L 13.25166,19.657467 L 26.816665,19.657467 L 21.005786,18.023723 L 31.476681,13.555544"
       style="fill:#ffffff;stroke:none;stroke-width:0.001" />
    <path
       id="path4831"
       d="M 11.723476,4.6191872 L 16.364632,3.0248142 L 27.609055,7.4929926 L 32.627541,6.2529266 L 29.929634,10.327433 L 16.741963,10.327433 L 22.175509,9.1070493 L 11.723476,4.6191872"
       style="fill:#ffffff;stroke:none;stroke-width:0.001" />
    <path
       id="path4833"
       d="M 53.531602,18.43708 L 48.909313,20.070823 L 38.061087,15.189284 L 32.627541,16.803341 L 35.344315,12.7682 L 48.909313,12.7682 L 43.098437,13.9689 L 53.531602,18.43708"
       style="fill:#ffffff;stroke:none;stroke-width:0.001" />
  </g>
  <path
     id="path2049"
     d="M 28.943442,36.858931 L 19.490234,36.858931 L 19.490234,35.75878 L 16.59072,37.95908 L 19.490234,40.409415 L 19.490234,39.325933 L 28.943442,39.325933 L 28.943442,36.858931"
     style="fill:#000000;stroke:none;stroke-width:0.001" />
  <path
     id="path2051"
     d="M 30.869831,35.225373 L 24.05796,29.491257 L 25.031085,28.674479 L 21.138587,28.674479 L 21.138587,31.941592 L 22.091852,31.124814 L 28.943442,36.858931 L 30.869831,35.225373"
     style="fill:#000000;stroke:none;stroke-width:0.001" />
  <path
     id="path2053"
     d="M 33.789205,35.225373 L 33.789205,27.024254 L 35.080083,27.024254 L 32.498325,24.840622 L 29.578952,27.024254 L 30.869831,27.024254 L 30.869831,35.225373 L 33.789205,35.225373"
     style="fill:#000000;stroke:none;stroke-width:0.001" />
  <path
     id="path2055"
     d="M 35.755312,36.858931 L 42.587042,31.124814 L 43.540307,31.941592 L 43.540307,28.674479 L 39.667669,28.674479 L 40.620934,29.491257 L 33.789205,35.225373 L 35.755312,36.858931"
     style="fill:#000000;stroke:none;stroke-width:0.001" />
  <path
     id="path2057"
     d="M 35.755312,39.325933 L 45.486557,39.325933 L 45.486557,40.409415 L 48.108033,37.95908 L 45.486557,35.75878 L 45.486557,36.858931 L 35.755312,36.858931 L 35.755312,39.325933"
     style="fill:#000000;stroke:none;stroke-width:0.001" />
  <path
     id="path2059"
     d="M 33.789205,40.959489 L 40.620934,46.693604 L 39.667669,47.527052 L 43.540307,47.260348 L 43.540307,44.259938 L 42.587042,45.076717 L 35.755312,39.325933 L 33.789205,40.959489"
     style="fill:#000000;stroke:none;stroke-width:0.001" />
  <path
     id="path2061"
     d="M 30.869831,40.959489 L 30.869831,49.177278 L 29.578952,49.177278 L 32.498325,51.34424 L 35.080083,49.177278 L 33.789205,49.177278 L 33.789205,40.959489 L 30.869831,40.959489"
     style="fill:#000000;stroke:none;stroke-width:0.001" />
  <path
     id="path2063"
     d="M 28.943442,39.325933 L 22.091852,45.076717 L 21.138587,44.259938 L 21.138587,47.527052 L 25.031085,47.527052 L 24.05796,46.693604 L 30.869831,40.959489 L 28.943442,39.325933"
     style="fill:#000000;stroke:none;stroke-width:0.001" />
  <path
     id="path2065"
     d="M 29.241337,37.142302 L 19.827848,37.142302 L 19.827848,36.042153 L 16.908475,38.225783 L 19.827848,40.692787 L 19.827848,39.609307 L 29.241337,39.609307 L 29.241337,37.142302"
     style="fill:#ffffff;stroke:none;stroke-width:0.001" />
  <path
     id="path2067"
     d="M 31.207444,35.508746 L 24.375715,29.757961 L 25.368699,28.941182 L 21.456342,28.941182 L 21.456342,32.224964 L 22.409607,31.391517 L 29.241337,37.142302 L 31.207444,35.508746"
     style="fill:#ffffff;stroke:none;stroke-width:0.001" />
  <path
     id="path2069"
     d="M 34.126818,35.508746 L 34.126818,27.290957 L 35.417699,27.290957 L 32.816079,25.107325 L 29.896705,27.290957 L 31.207444,27.290957 L 31.207444,35.508746 L 34.126818,35.508746"
     style="fill:#ffffff;stroke:none;stroke-width:0.001" />
  <path
     id="path2071"
     d="M 36.092927,37.142302 L 42.904797,31.391517 L 43.877921,32.224964 L 43.877921,28.941182 L 39.965564,28.941182 L 40.93869,29.757961 L 34.126818,35.508746 L 36.092927,37.142302"
     style="fill:#ffffff;stroke:none;stroke-width:0.001" />
  <path
     id="path2073"
     d="M 36.092927,39.609307 L 45.804311,39.609307 L 45.804311,40.692787 L 48.425789,38.225783 L 45.804311,36.042153 L 45.804311,37.142302 L 36.092927,37.142302 L 36.092927,39.609307"
     style="fill:#ffffff;stroke:none;stroke-width:0.001" />
  <path
     id="path2075"
     d="M 34.126818,41.242862 L 40.93869,46.976978 L 39.965564,47.793755 L 43.877921,47.527052 L 43.877921,44.509973 L 42.904797,45.326752 L 36.092927,39.609307 L 34.126818,41.242862"
     style="fill:#ffffff;stroke:none;stroke-width:0.001" />
  <path
     id="path2077"
     d="M 31.207444,41.242862 L 31.207444,49.427311 L 29.896705,49.427311 L 32.816079,51.627612 L 35.417699,49.427311 L 34.126818,49.427311 L 34.126818,41.242862 L 31.207444,41.242862"
     style="fill:#ffffff;stroke:none;stroke-width:0.001" />
  <path
     id="path2079"
     d="M 29.241337,39.609307 L 22.409607,45.326752 L 21.456342,44.509973 L 21.456342,47.793755 L 25.368699,47.793755 L 24.375715,46.976978 L 31.207444,41.242862 L 29.241337,39.609307"
     style="fill:#ffffff;stroke:none;stroke-width:0.001" />
  <path
     id="path2081"
     d="M 37.701562,38.359134 L 37.681701,38.142439 L 37.661842,37.892405 L 37.622121,37.675709 L 37.582403,37.459012 L 37.522824,37.225648 L 37.443385,37.00895 L 37.344088,36.792254 L 37.264648,36.575558 L 37.145489,36.375531 L 37.026332,36.175503 L 36.887313,35.975475 L 36.728436,35.775448 L 36.56956,35.59209 L 36.390823,35.425401 L 36.212085,35.242041 L 36.033348,35.092023 L 35.814891,34.942002 L 35.616295,34.791981 L 35.397838,34.658631 L 35.179381,34.541947 L 34.921206,34.408595 L 34.702749,34.308582 L 34.444573,34.225237 L 34.186396,34.141892 L 33.948082,34.058549 L 33.670045,34.008541 L 33.431731,33.941866 L 33.133834,33.908527 L 32.875657,33.875189 L 32.597624,33.858519 L 32.339447,33.858519 L 32.339447,33.858519 L 32.061412,33.858519 L 31.803236,33.875189 L 31.5252,33.908527 L 31.267024,33.941866 L 30.988988,34.008541 L 30.730812,34.058549 L 30.472636,34.141892 L 30.214461,34.225237 L 29.976146,34.308582 L 29.757688,34.408595 L 29.499513,34.541947 L 29.261197,34.658631 L 29.062599,34.791981 L 28.844144,34.942002 L 28.645546,35.092023 L 28.46681,35.242041 L 28.268213,35.425401 L 28.109336,35.59209 L 27.950458,35.775448 L 27.791581,35.975475 L 27.652562,36.175503 L 27.533405,36.375531 L 27.414245,36.575558 L 27.314948,36.792254 L 27.21565,37.00895 L 27.156071,37.225648 L 27.096491,37.459012 L 27.036912,37.675709 L 26.997193,37.892405 L 26.997193,38.142439 L 26.977333,38.359134 L 26.977333,38.359134 L 26.997193,38.575831 L 26.997193,38.809197 L 27.036912,39.042562 L 27.096491,39.275927 L 27.156071,39.492623 L 27.21565,39.709319 L 27.314948,39.926015 L 27.414245,40.142711 L 27.533405,40.342738 L 27.652562,40.542765 L 27.791581,40.742793 L 27.950458,40.942821 L 28.109336,41.126179 L 28.268213,41.292868 L 28.46681,41.459558 L 28.645546,41.626248 L 28.844144,41.776268 L 29.062599,41.926288 L 29.261197,42.05964 L 29.499513,42.176322 L 29.757688,42.293005 L 29.976146,42.409687 L 30.214461,42.509701 L 30.472636,42.593047 L 30.730812,42.643052 L 30.988988,42.709728 L 31.267024,42.776405 L 31.5252,42.793073 L 31.803236,42.843081 L 32.061412,42.859749 L 32.339447,42.859749 L 32.339447,42.859749 L 32.597624,42.859749 L 32.875657,42.843081 L 33.133834,42.793073 L 33.431731,42.776405 L 33.670045,42.709728 L 33.948082,42.643052 L 34.186396,42.593047 L 34.444573,42.509701 L 34.702749,42.409687 L 34.921206,42.293005 L 35.179381,42.176322 L 35.397838,42.05964 L 35.616295,41.926288 L 35.814891,41.776268 L 36.033348,41.626248 L 36.212085,41.459558 L 36.390823,41.292868 L 36.56956,41.126179 L 36.728436,40.942821 L 36.887313,40.742793 L 37.026332,40.542765 L 37.145489,40.342738 L 37.264648,40.142711 L 37.344088,39.926015 L 37.443385,39.709319 L 37.522824,39.492623 L 37.582403,39.275927 L 37.622121,39.042562 L 37.661842,38.809197 L 37.681701,38.575831 L 37.701562,38.359134"
     style="fill:#000000;stroke:none;stroke-width:0.001" />
  <path
     id="path2083"
     d="M 38.337071,38.909211 L 38.31721,38.692513 L 38.29735,38.459148 L 38.257632,38.225783 L 38.237774,37.992418 L 38.158333,37.775721 L 38.078896,37.559025 L 37.999456,37.342329 L 37.900158,37.142302 L 37.780998,36.925605 L 37.661842,36.725578 L 37.522824,36.525552 L 37.383806,36.325525 L 37.205068,36.142166 L 37.026332,35.975475 L 36.867455,35.808786 L 36.668858,35.642098 L 36.450401,35.492076 L 36.251806,35.342056 L 36.033348,35.208705 L 35.814891,35.092023 L 35.576576,34.97534 L 35.338258,34.858658 L 35.080083,34.758643 L 34.841767,34.675299 L 34.583592,34.608622 L 34.325416,34.558616 L 34.067238,34.491941 L 33.789205,34.458603 L 33.531028,34.425264 L 33.252992,34.408595 L 32.974957,34.408595 L 32.974957,34.408595 L 32.696921,34.408595 L 32.438746,34.425264 L 32.18057,34.458603 L 31.902534,34.491941 L 31.644359,34.558616 L 31.386182,34.608622 L 31.108147,34.675299 L 30.869831,34.758643 L 30.631514,34.858658 L 30.373338,34.97534 L 30.154882,35.092023 L 29.916566,35.208705 L 29.698109,35.342056 L 29.479652,35.492076 L 29.281055,35.642098 L 29.10232,35.808786 L 28.903721,35.975475 L 28.744845,36.142166 L 28.585968,36.325525 L 28.42709,36.525552 L 28.288072,36.725578 L 28.168916,36.925605 L 28.049756,37.142302 L 27.950458,37.342329 L 27.871019,37.559025 L 27.791581,37.775721 L 27.732001,37.992418 L 27.692283,38.225783 L 27.652562,38.459148 L 27.632703,38.692513 L 27.632703,38.909211 L 27.632703,38.909211 L 27.632703,39.142576 L 27.652562,39.37594 L 27.692283,39.575968 L 27.732001,39.809334 L 27.791581,40.042699 L 27.871019,40.259395 L 27.950458,40.476091 L 28.049756,40.692787 L 28.168916,40.892814 L 28.288072,41.092841 L 28.42709,41.292868 L 28.585968,41.476227 L 28.744845,41.676254 L 28.903721,41.842944 L 29.10232,42.009633 L 29.281055,42.176322 L 29.479652,42.326343 L 29.698109,42.459694 L 29.916566,42.609716 L 30.154882,42.726397 L 30.373338,42.843081 L 30.631514,42.959764 L 30.869831,43.043109 L 31.108147,43.126451 L 31.386182,43.209797 L 31.644359,43.276474 L 31.902534,43.326479 L 32.18057,43.359817 L 32.438746,43.393156 L 32.696921,43.409824 L 32.974957,43.409824 L 32.974957,43.409824 L 33.252992,43.409824 L 33.531028,43.393156 L 33.789205,43.359817 L 34.067238,43.326479 L 34.325416,43.276474 L 34.583592,43.209797 L 34.841767,43.126451 L 35.080083,43.043109 L 35.338258,42.959764 L 35.576576,42.843081 L 35.814891,42.726397 L 36.033348,42.609716 L 36.251806,42.459694 L 36.450401,42.326343 L 36.668858,42.176322 L 36.867455,42.009633 L 37.026332,41.842944 L 37.205068,41.676254 L 37.383806,41.476227 L 37.522824,41.292868 L 37.661842,41.092841 L 37.780998,40.892814 L 37.900158,40.692787 L 37.999456,40.476091 L 38.078896,40.259395 L 38.158333,40.042699 L 38.237774,39.809334 L 38.257632,39.575968 L 38.29735,39.37594 L 38.31721,39.142576 L 38.337071,38.909211"
     style="fill:#ffffff;stroke:none;stroke-width:0.001" />
  <path
     id="path2085"
     d="M 37.999456,38.642507 L 37.979595,38.409142 L 37.979595,38.175776 L 37.939876,37.95908 L 37.880298,37.725715 L 37.82072,37.509019 L 37.761141,37.292323 L 37.661842,37.075625 L 37.562542,36.858931 L 37.463244,36.658903 L 37.344088,36.458875 L 37.18521,36.258848 L 37.026332,36.058821 L 36.887313,35.875463 L 36.708577,35.708773 L 36.529839,35.542083 L 36.331243,35.375394 L 36.132646,35.225373 L 35.93405,35.075353 L 35.715593,34.942002 L 35.477275,34.808649 L 35.238961,34.691968 L 35.020503,34.591953 L 34.762328,34.491941 L 34.504152,34.408595 L 34.245976,34.325251 L 33.9878,34.275246 L 33.729625,34.225237 L 33.451589,34.191899 L 33.193413,34.158561 L 32.915378,34.141892 L 32.657203,34.141892 L 32.657203,34.141892 L 32.379166,34.141892 L 32.120991,34.158561 L 31.842954,34.191899 L 31.564918,34.225237 L 31.306743,34.275246 L 31.048567,34.325251 L 30.790391,34.408595 L 30.532215,34.491941 L 30.2939,34.591953 L 30.055582,34.691968 L 29.817268,34.808649 L 29.578952,34.942002 L 29.380354,35.075353 L 29.161899,35.225373 L 28.963301,35.375394 L 28.784564,35.542083 L 28.585968,35.708773 L 28.40723,35.875463 L 28.268213,36.058821 L 28.109336,36.258848 L 27.950458,36.458875 L 27.85116,36.658903 L 27.732001,36.858931 L 27.632703,37.075625 L 27.533405,37.292323 L 27.473825,37.509019 L 27.414245,37.725715 L 27.354667,37.95908 L 27.314948,38.175776 L 27.314948,38.409142 L 27.295087,38.642507 L 27.295087,38.642507 L 27.314948,38.859204 L 27.314948,39.092568 L 27.354667,39.325933 L 27.414245,39.542629 L 27.473825,39.775994 L 27.533405,39.992692 L 27.632703,40.209388 L 27.732001,40.409415 L 27.85116,40.626111 L 27.950458,40.826138 L 28.109336,41.026166 L 28.268213,41.209524 L 28.40723,41.392883 L 28.585968,41.559571 L 28.784564,41.742929 L 28.963301,41.892951 L 29.161899,42.05964 L 29.380354,42.192992 L 29.578952,42.343011 L 29.817268,42.459694 L 30.055582,42.576378 L 30.2939,42.693059 L 30.532215,42.776405 L 30.790391,42.859749 L 31.048567,42.943094 L 31.306743,42.993102 L 31.564918,43.043109 L 31.842954,43.093114 L 32.120991,43.126451 L 32.379166,43.126451 L 32.657203,43.14312 L 32.657203,43.14312 L 32.915378,43.126451 L 33.193413,43.126451 L 33.451589,43.093114 L 33.729625,43.043109 L 33.9878,42.993102 L 34.245976,42.943094 L 34.504152,42.859749 L 34.762328,42.776405 L 35.020503,42.693059 L 35.238961,42.576378 L 35.477275,42.459694 L 35.715593,42.343011 L 35.93405,42.192992 L 36.132646,42.05964 L 36.331243,41.892951 L 36.529839,41.742929 L 36.708577,41.559571 L 36.887313,41.392883 L 37.026332,41.209524 L 37.18521,41.026166 L 37.344088,40.826138 L 37.463244,40.626111 L 37.562542,40.409415 L 37.661842,40.209388 L 37.761141,39.992692 L 37.82072,39.775994 L 37.880298,39.542629 L 37.939876,39.325933 L 37.979595,39.092568 L 37.979595,38.859204 L 37.999456,38.642507"
     style="fill:url(#linearGradient9177);fill-opacity:1;stroke:none;stroke-width:0.001" />
</svg>
