<?xml version="1.0" encoding="UTF-8" standalone="no"?>
<!-- Created with Inkscape (http://www.inkscape.org/) -->

<svg
   xmlns:dc="http://purl.org/dc/elements/1.1/"
   xmlns:cc="http://creativecommons.org/ns#"
   xmlns:rdf="http://www.w3.org/1999/02/22-rdf-syntax-ns#"
   xmlns:svg="http://www.w3.org/2000/svg"
   xmlns="http://www.w3.org/2000/svg"
   xmlns:xlink="http://www.w3.org/1999/xlink"
   xmlns:sodipodi="http://sodipodi.sourceforge.net/DTD/sodipodi-0.dtd"
   xmlns:inkscape="http://www.inkscape.org/namespaces/inkscape"
   id="svg1998"
   sodipodi:version="0.32"
   inkscape:version="0.47 r22583"
   width="51.358818"
   height="47.630692"
   version="1.0"
   sodipodi:docname="ids.svg"
   inkscape:output_extension="org.inkscape.output.svg.inkscape">
  <title
     id="title2849">IDS</title>
  <metadata
     id="metadata2003">
    <rdf:RDF>
      <cc:Work
         rdf:about="">
        <dc:format>image/svg+xml</dc:format>
        <dc:type
           rdf:resource="http://purl.org/dc/dcmitype/StillImage" />
        <cc:license
           rdf:resource="http://creativecommons.org/licenses/GPL/2.0/" />
        <dc:title>IDS</dc:title>
        <dc:creator>
          <cc:Agent>
            <dc:title>Jeremy Grossmann</dc:title>
          </cc:Agent>
        </dc:creator>
        <dc:description>Created for the GNS-3 project (www.gns3.net)</dc:description>
        <dc:publisher>
          <cc:Agent>
            <dc:title>GNS-3</dc:title>
          </cc:Agent>
        </dc:publisher>
      </cc:Work>
      <cc:License
         rdf:about="http://creativecommons.org/licenses/GPL/2.0/">
        <cc:permits
           rdf:resource="http://web.resource.org/cc/Reproduction" />
        <cc:permits
           rdf:resource="http://web.resource.org/cc/Distribution" />
        <cc:requires
           rdf:resource="http://web.resource.org/cc/Notice" />
        <cc:permits
           rdf:resource="http://web.resource.org/cc/DerivativeWorks" />
        <cc:requires
           rdf:resource="http://web.resource.org/cc/ShareAlike" />
        <cc:requires
           rdf:resource="http://web.resource.org/cc/SourceCode" />
      </cc:License>
      <cc:Work
         rdf:about="">
        <dc:format>image/svg+xml</dc:format>
        <dc:type
           rdf:resource="http://purl.org/dc/dcmitype/StillImage" />
      </cc:Work>
    </rdf:RDF>
  </metadata>
  <defs
     id="defs2001">
    <inkscape:perspective
       sodipodi:type="inkscape:persp3d"
       inkscape:vp_x="0 : 23.815346 : 1"
       inkscape:vp_y="0 : 1000 : 0"
       inkscape:vp_z="51.358818 : 23.815346 : 1"
       inkscape:persp3d-origin="25.679409 : 15.876897 : 1"
       id="perspective43" />
    <linearGradient
       inkscape:collect="always"
       id="linearGradient10123">
      <stop
         style="stop-color:#e4405c;stop-opacity:1;"
         offset="0"
         id="stop10125" />
      <stop
         style="stop-color:#e4405c;stop-opacity:0;"
         offset="1"
         id="stop10127" />
    </linearGradient>
    <linearGradient
       id="linearGradient8331">
      <stop
         style="stop-color:#6e8caa;stop-opacity:1;"
         offset="0"
         id="stop8333" />
      <stop
         style="stop-color:#dde3ef;stop-opacity:1;"
         offset="1"
         id="stop8335" />
    </linearGradient>
    <linearGradient
       inkscape:collect="always"
       id="linearGradient6603">
      <stop
         style="stop-color:#506eaa;stop-opacity:1;"
         offset="0"
         id="stop6605" />
      <stop
         style="stop-color:#506eaa;stop-opacity:0;"
         offset="1"
         id="stop6607" />
    </linearGradient>
    <linearGradient
       inkscape:collect="always"
       id="linearGradient6587">
      <stop
         style="stop-color:#506eaa;stop-opacity:1;"
         offset="0"
         id="stop6589" />
      <stop
         style="stop-color:#506eaa;stop-opacity:0;"
         offset="1"
         id="stop6591" />
    </linearGradient>
    <marker
       inkscape:stockid="Arrow2Lstart"
       orient="auto"
       refY="0"
       refX="0"
       id="Arrow2Lstart"
       style="overflow:visible">
      <path
         id="path11918"
         style="font-size:12px;fill-rule:evenodd;stroke-width:0.625;stroke-linejoin:round"
         d="M 8.7185878,4.0337352 L -2.2072895,0.016013256 L 8.7185884,-4.0017078 C 6.97309,-1.6296469 6.9831476,1.6157441 8.7185878,4.0337352 z "
         transform="matrix(1.1,0,0,1.1,1.1,0)" />
    </marker>
    <marker
       inkscape:stockid="Arrow1Send"
       orient="auto"
       refY="0"
       refX="0"
       id="Arrow1Send"
       style="overflow:visible">
      <path
         id="path11921"
         d="M 0,0 L 5,-5 L -12.5,0 L 5,5 L 0,0 z "
         style="fill-rule:evenodd;stroke:black;stroke-width:1pt;marker-start:none"
         transform="matrix(-0.2,0,0,-0.2,-1.2,0)" />
    </marker>
    <marker
       inkscape:stockid="Arrow1Lstart"
       orient="auto"
       refY="0"
       refX="0"
       id="Arrow1Lstart"
       style="overflow:visible">
      <path
         id="path11936"
         d="M 0,0 L 5,-5 L -12.5,0 L 5,5 L 0,0 z "
         style="fill-rule:evenodd;stroke:black;stroke-width:1pt;marker-start:none"
         transform="matrix(0.8,0,0,0.8,10,0)" />
    </marker>
    <linearGradient
       inkscape:collect="always"
       xlink:href="#linearGradient6587"
       id="linearGradient6593"
       x1="3.95626"
       y1="0.64267641"
       x2="-1.2664427"
       y2="0.62730032"
       gradientUnits="userSpaceOnUse"
       gradientTransform="matrix(1.060042,0,0,1.074658,-3.942481e-3,-0.356572)" />
    <linearGradient
       inkscape:collect="always"
       xlink:href="#linearGradient6603"
       id="linearGradient6609"
       x1="2.2801981"
       y1="1.4519272"
       x2="-0.41311559"
       y2="1.4649135"
       gradientUnits="userSpaceOnUse"
       gradientTransform="matrix(1.060042,0,0,1.074658,-3.942482e-3,-0.356572)" />
    <linearGradient
       inkscape:collect="always"
       xlink:href="#linearGradient10123"
       id="linearGradient10129"
       x1="1.3990936"
       y1="1.4711363"
       x2="0.49966058"
       y2="0.56367606"
       gradientUnits="userSpaceOnUse"
       gradientTransform="matrix(1.117962,0,0,1.035008,-4.0973e-2,-6.788682e-3)" />
    <linearGradient
       inkscape:collect="always"
       xlink:href="#linearGradient8331"
       id="linearGradient6875"
       gradientUnits="userSpaceOnUse"
       gradientTransform="matrix(24.897735,0,0,25.405463,-9.0988193,-4.8632254)"
       x1="2.1178279"
       y1="0.30649999"
       x2="-0.4954865"
       y2="0.30649999" />
    <inkscape:perspective
       id="perspective418"
       inkscape:persp3d-origin="283.46457 : 188.97638 : 1"
       inkscape:vp_z="566.92914 : 283.46457 : 1"
       inkscape:vp_y="0 : 1000 : 0"
       inkscape:vp_x="0 : 283.46457 : 1"
       sodipodi:type="inkscape:persp3d" />
    <inkscape:perspective
       id="perspective3145"
       inkscape:persp3d-origin="0.5 : 0.33333333 : 1"
       inkscape:vp_z="1 : 0.5 : 1"
       inkscape:vp_y="0 : 1000 : 0"
       inkscape:vp_x="0 : 0.5 : 1"
       sodipodi:type="inkscape:persp3d" />
  </defs>
  <sodipodi:namedview
     inkscape:window-height="676"
     inkscape:window-width="960"
     inkscape:pageshadow="2"
     inkscape:pageopacity="0.0"
     guidetolerance="10.0"
     gridtolerance="10.0"
     objecttolerance="10.0"
     borderopacity="1.0"
     bordercolor="#666666"
     pagecolor="#ffffff"
     id="base"
     showguides="true"
     inkscape:guide-bbox="true"
     inkscape:zoom="7.8958336"
     inkscape:cx="-14.193457"
     inkscape:cy="31.087025"
     inkscape:window-x="0"
     inkscape:window-y="0"
     inkscape:current-layer="svg1998"
     showgrid="false"
     inkscape:window-maximized="0" />
  <path
     id="path11907"
     d="M 1.8402723,44.565612 L 1.8402723,47.615693 L 44.293781,47.615693 L 44.293781,44.565612 L 1.8402723,44.565612"
     style="fill:#000000;fill-opacity:0.39215686;stroke:none;stroke-width:0.001" />
  <path
     id="path11020"
     d="M 44.370594,6.1851672 L 51.194316,1.0980117 L 51.358819,41.344844 L 44.266438,47.63069 L 44.370594,6.1851672"
     style="fill:#000000;fill-opacity:0.39215686;stroke:none;stroke-width:0.001"
     sodipodi:nodetypes="ccccc" />
  <path
     id="path2037"
     d="M 0.062500355,5.1558922 L 0.062500355,46.326915 L 44.407694,46.326915 L 44.407694,5.1558922 L 0.062500355,5.1558922"
     style="fill:#6e8caa;fill-opacity:1;stroke:none;stroke-width:0.001" />
  <path
     id="path2041"
     d="M -0.38461268,5.6292351 L 5.2920708,0.21786924 L 50.13289,0.21786924 L 44.406412,5.6292351 L -0.38461268,5.6292351"
     style="fill:url(#linearGradient6875);fill-opacity:1;stroke:none;stroke-width:0.001" />
  <path
     id="path2045"
     d="M 44.273363,5.1335036 L 49.931392,0.17309204 L 49.931392,41.393412 L 44.273363,46.353824 L 44.273363,5.1335036"
     style="fill:#6e8296;fill-opacity:1;stroke:none;stroke-width:0.001" />
  <path
     id="path3151"
     d="M 6.4284393,19.605415 L 25.596065,19.605415 L 25.596065,18.327628 L 29.718118,20.883894 L 25.596065,23.65251 L 25.596065,22.374758 L 6.4284393,22.374758 L 6.4284393,19.605415 z "
     style="fill:#000000;fill-opacity:1" />
  <path
     style="fill:#ffffff"
     d="M 6.5550771,19.225466 L 25.201535,19.225466 L 25.201535,17.947679 L 29.211514,20.503945 L 25.201535,23.272561 L 25.201535,21.994809 L 6.5550771,21.994809 L 6.5550771,19.225466 z "
     id="path134" />
  <path
     id="path3943"
     d="M 34.935195,26.761584 L 19.065272,26.761584 L 19.065272,25.483088 L 14.737122,28.039372 L 19.065272,30.808696 L 19.065272,29.530218 L 34.935195,29.530218 L 34.935195,26.761584 z "
     style="fill:#000000;fill-opacity:1" />
  <path
     style="fill:#ffffff"
     d="M 35.188506,26.254998 L 19.318583,26.254998 L 19.318583,24.976502 L 14.990433,27.532785 L 19.318583,30.30211 L 19.318583,29.023632 L 35.188506,29.023632 L 35.188506,26.254998 L 35.188506,26.254998 z "
     id="path136" />
  <path
     style="fill:#ffffff"
     d="M 42.402076,39.674104 L 39.722752,43.082694 L 30.035935,34.987744 L 32.715242,31.366803 L 42.402076,39.674104 L 42.402076,39.674104 z "
     id="path142" />
  <path
     style="fill:none;stroke:#000000;stroke-width:0.27946547"
     d="M 42.402076,39.674104 L 39.722752,43.082694 L 30.035935,34.987744 L 32.715242,31.366803 L 42.402076,39.674104"
     id="path144" />
  <path
     style="fill:#ffffff"
     d="M 7.364581,21.781714 C 6.5401598,30.089015 12.311038,37.544009 20.143004,38.396334 C 28.180978,39.461027 35.394602,33.496897 36.425155,25.189596 C 37.249488,16.882277 31.478663,9.4273013 23.4406,8.5749765 C 15.608758,7.5103013 8.18902,13.474396 7.364581,21.781714 L 9.4256341,21.994809 C 10.250073,14.965278 16.433091,9.8534548 23.234504,10.705071 C 30.242049,11.344301 35.188506,17.947679 34.364067,24.976502 C 33.539663,32.006051 27.356557,37.117856 20.3491,36.479316 C 13.547687,35.626992 8.6012129,29.023632 9.4256341,21.994809 L 7.364581,21.781714 L 7.364581,21.781714 z "
     id="path146" />
  <path
     style="fill:none;stroke:#000000;stroke-width:0.27946547"
     d="M 7.364581,21.781714 C 6.5401598,30.089015 12.311038,37.544009 20.143004,38.396334 C 28.180978,39.461027 35.394602,33.496897 36.425155,25.189596 C 37.249488,16.882277 31.478663,9.4273013 23.4406,8.5749765 C 15.608758,7.5103013 8.18902,13.474396 7.364581,21.781714"
     id="path148" />
  <path
     style="fill:none;stroke:#000000;stroke-width:0.27946547"
     d="M 9.4256341,21.994809 C 10.250073,14.965278 16.433091,9.8534548 23.234504,10.705071 C 30.242049,11.344301 35.188506,17.947679 34.364067,24.976502 C 33.539663,32.006051 27.356557,37.117856 20.3491,36.479316 C 13.547687,35.626992 8.6012129,29.023632 9.4256341,21.994809"
     id="path150" />
  <path
     style="fill:#ffffff"
     d="M 5.5096953,22.420962 C 4.6852917,30.728263 10.45617,38.18324 18.494144,39.24795 C 26.326092,40.100275 33.74576,34.136145 34.570198,25.828844 C 35.394602,17.521525 29.829821,10.066549 21.791776,9.2142245 C 13.753801,8.1495316 6.5401598,14.113661 5.5096953,22.420962 L 7.5706952,22.63333 C 8.3951165,15.604526 14.578223,10.492012 21.585679,11.344301 C 28.387092,11.983549 33.333549,18.586218 32.509145,25.61575 C 31.684777,32.645299 25.501689,37.757086 18.700258,37.117856 C 11.692731,36.26624 6.7462563,29.875939 7.5706952,22.63333 L 5.5096953,22.420962 L 5.5096953,22.420962 z "
     id="path152" />
  <path
     style="fill:none;stroke:#000000;stroke-width:0.27946547"
     d="M 5.5096953,22.420962 C 4.6852917,30.728263 10.45617,38.18324 18.494144,39.24795 C 26.326092,40.100275 33.74576,34.136145 34.570198,25.828844 C 35.394602,17.521525 29.829821,10.066549 21.791776,9.2142245 C 13.753801,8.1495316 6.5401598,14.113661 5.5096953,22.420962"
     id="path154" />
  <path
     style="fill:none;stroke:#000000;stroke-width:0.27946547"
     d="M 7.5706952,22.63333 C 8.3951165,15.604526 14.578223,10.492012 21.585679,11.344301 C 28.387092,11.983549 33.333549,18.586218 32.509145,25.61575 C 31.684777,32.645299 25.501689,37.757086 18.700258,37.117856 C 11.692731,36.26624 6.7462563,29.875939 7.5706952,22.63333"
     id="path156" />
</svg>
