<?xml version="1.0" encoding="UTF-8" standalone="no"?>
<!-- Created with Inkscape (http://www.inkscape.org/) -->

<svg
   xmlns:dc="http://purl.org/dc/elements/1.1/"
   xmlns:cc="http://creativecommons.org/ns#"
   xmlns:rdf="http://www.w3.org/1999/02/22-rdf-syntax-ns#"
   xmlns:svg="http://www.w3.org/2000/svg"
   xmlns="http://www.w3.org/2000/svg"
   xmlns:xlink="http://www.w3.org/1999/xlink"
   xmlns:sodipodi="http://sodipodi.sourceforge.net/DTD/sodipodi-0.dtd"
   xmlns:inkscape="http://www.inkscape.org/namespaces/inkscape"
   id="svg1998"
   sodipodi:version="0.32"
   inkscape:version="0.48.4 r9939"
   width="65.937935"
   height="55.615818"
   version="1.0"
   sodipodi:docname="vios.svg"
   inkscape:output_extension="org.inkscape.output.svg.inkscape">
  <metadata
     id="metadata2003">
    <rdf:RDF>
      <cc:Work
         rdf:about="">
        <dc:format>image/svg+xml</dc:format>
        <dc:type
           rdf:resource="http://purl.org/dc/dcmitype/StillImage" />
        <dc:title>Router</dc:title>
        <dc:creator>
          <cc:Agent>
            <dc:title>Jeremy Grossmann</dc:title>
          </cc:Agent>
        </dc:creator>
        <dc:publisher>
          <cc:Agent>
            <dc:title>GNS-3</dc:title>
          </cc:Agent>
        </dc:publisher>
        <dc:description>Created for the GNS-3 project (www.gns3.net)</dc:description>
        <cc:license
           rdf:resource="http://creativecommons.org/licenses/GPL/2.0/" />
      </cc:Work>
      <cc:License
         rdf:about="http://creativecommons.org/licenses/GPL/2.0/">
        <cc:permits
           rdf:resource="http://web.resource.org/cc/Reproduction" />
        <cc:permits
           rdf:resource="http://web.resource.org/cc/Distribution" />
        <cc:requires
           rdf:resource="http://web.resource.org/cc/Notice" />
        <cc:permits
           rdf:resource="http://web.resource.org/cc/DerivativeWorks" />
        <cc:requires
           rdf:resource="http://web.resource.org/cc/ShareAlike" />
        <cc:requires
           rdf:resource="http://web.resource.org/cc/SourceCode" />
      </cc:License>
    </rdf:RDF>
  </metadata>
  <defs
     id="defs2001">
    <linearGradient
       id="linearGradient9312">
      <stop
         style="stop-color:#3c8c8c;stop-opacity:1;"
         offset="0"
         id="stop9314" />
      <stop
         style="stop-color:#ffffff;stop-opacity:0.94117647;"
         offset="1"
         id="stop9316" />
    </linearGradient>
    <marker
       inkscape:stockid="Arrow2Lstart"
       orient="auto"
       refY="0"
       refX="0"
       id="Arrow2Lstart"
       style="overflow:visible">
      <path
         id="path11918"
         style="font-size:12px;fill-rule:evenodd;stroke-width:0.625;stroke-linejoin:round"
         d="M 8.7185878,4.0337352 L -2.2072895,0.016013256 L 8.7185884,-4.0017078 C 6.97309,-1.6296469 6.9831476,1.6157441 8.7185878,4.0337352 z "
         transform="matrix(1.1,0,0,1.1,1.1,0)" />
    </marker>
    <marker
       inkscape:stockid="Arrow1Send"
       orient="auto"
       refY="0"
       refX="0"
       id="Arrow1Send"
       style="overflow:visible">
      <path
         id="path11921"
         d="M 0,0 L 5,-5 L -12.5,0 L 5,5 L 0,0 z "
         style="fill-rule:evenodd;stroke:#000000;stroke-width:1pt;marker-start:none"
         transform="matrix(-0.2,0,0,-0.2,-1.2,0)" />
    </marker>
    <marker
       inkscape:stockid="Arrow1Lstart"
       orient="auto"
       refY="0"
       refX="0"
       id="Arrow1Lstart"
       style="overflow:visible">
      <path
         id="path11936"
         d="M 0,0 L 5,-5 L -12.5,0 L 5,5 L 0,0 z "
         style="fill-rule:evenodd;stroke:#000000;stroke-width:1pt;marker-start:none"
         transform="matrix(0.8,0,0,0.8,10,0)" />
    </marker>
    <linearGradient
       inkscape:collect="always"
       xlink:href="#linearGradient9312"
       id="linearGradient2216"
       gradientUnits="userSpaceOnUse"
       gradientTransform="matrix(15.252829,0,0,14.082619,53.467529,3.4188377)"
       x1="-1.0929121"
       y1="0.63145506"
       x2="-4.5832458"
       y2="0.070047863" />
    <path
       d="M 2.8117,-1.046 A 3 3 0 0 1 .5,2.958 V 4.5119 A 10.5 10.5 0 0 1 2,25.3078 V 25.8661 A 15 15 0 0 0 14.7975,8.5433 15 15 0 0 0 23.4007,-11.201 L 22.9172,-10.9218 A 10.5 10.5 0 0 1 4.1574,-1.8229 z M 6.2265,7.825 A 10 10 0 0 1 -6.2265,7.825 9.5 9.5 0 0 0 -8.4021,10.5667 13.5 13.5 0 0 0 8.4021,10.5667 10 10 0 0 0 6.2265,7.825 z"
       id="p"
       transform="scale(10,-10) translate(26,-26)" />
    <linearGradient
       y2="0.30649999"
       x2="-0.4954865"
       y1="0.30649999"
       x1="2.1178279"
       gradientTransform="matrix(24.666332,1.3331909e-2,-1.2883406e-2,23.708747,-8.6563136,-4.6316275)"
       gradientUnits="userSpaceOnUse"
       id="linearGradient9199"
       xlink:href="#linearGradient8331"
       inkscape:collect="always" />
    <linearGradient
       gradientTransform="matrix(1.117962,0,0,1.035008,-4.0973e-2,-6.788682e-3)"
       gradientUnits="userSpaceOnUse"
       y2="0.30649999"
       x2="-0.4954865"
       y1="0.30649999"
       x1="2.1178279"
       id="linearGradient8337"
       xlink:href="#linearGradient8331"
       inkscape:collect="always" />
    <linearGradient
       gradientTransform="matrix(1.060042,0,0,1.074658,-3.942482e-3,-0.356572)"
       gradientUnits="userSpaceOnUse"
       y2="1.4649135"
       x2="-0.41311559"
       y1="1.4519272"
       x1="2.2801981"
       id="linearGradient6609"
       xlink:href="#linearGradient6603"
       inkscape:collect="always" />
    <linearGradient
       gradientTransform="matrix(1.060042,0,0,1.074658,-3.942481e-3,-0.356572)"
       gradientUnits="userSpaceOnUse"
       y2="0.62730032"
       x2="-1.2664427"
       y1="0.64267641"
       x1="3.95626"
       id="linearGradient6593"
       xlink:href="#linearGradient6587"
       inkscape:collect="always" />
    <marker
       style="overflow:visible"
       id="Arrow1Lstart-0"
       refX="0"
       refY="0"
       orient="auto"
       inkscape:stockid="Arrow1Lstart">
      <path
         transform="matrix(0.8,0,0,0.8,10,0)"
         style="fill-rule:evenodd;stroke:black;stroke-width:1pt;marker-start:none"
         d="M 0,0 L 5,-5 L -12.5,0 L 5,5 L 0,0 z "
         id="path11936-1" />
    </marker>
    <marker
       style="overflow:visible"
       id="Arrow1Send-4"
       refX="0"
       refY="0"
       orient="auto"
       inkscape:stockid="Arrow1Send">
      <path
         transform="matrix(-0.2,0,0,-0.2,-1.2,0)"
         style="fill-rule:evenodd;stroke:black;stroke-width:1pt;marker-start:none"
         d="M 0,0 L 5,-5 L -12.5,0 L 5,5 L 0,0 z "
         id="path11921-5" />
    </marker>
    <marker
       style="overflow:visible"
       id="Arrow2Lstart-1"
       refX="0"
       refY="0"
       orient="auto"
       inkscape:stockid="Arrow2Lstart">
      <path
         transform="matrix(1.1,0,0,1.1,1.1,0)"
         d="M 8.7185878,4.0337352 L -2.2072895,0.016013256 L 8.7185884,-4.0017078 C 6.97309,-1.6296469 6.9831476,1.6157441 8.7185878,4.0337352 z "
         style="font-size:12px;fill-rule:evenodd;stroke-width:0.625;stroke-linejoin:round"
         id="path11918-3" />
    </marker>
    <linearGradient
       id="linearGradient6587"
       inkscape:collect="always">
      <stop
         id="stop6589"
         offset="0"
         style="stop-color:#506eaa;stop-opacity:1;" />
      <stop
         id="stop6591"
         offset="1"
         style="stop-color:#506eaa;stop-opacity:0;" />
    </linearGradient>
    <linearGradient
       id="linearGradient6603"
       inkscape:collect="always">
      <stop
         id="stop6605"
         offset="0"
         style="stop-color:#506eaa;stop-opacity:1;" />
      <stop
         id="stop6607"
         offset="1"
         style="stop-color:#506eaa;stop-opacity:0;" />
    </linearGradient>
    <linearGradient
       id="linearGradient8331">
      <stop
         id="stop8333"
         offset="0"
         style="stop-color:#6e8caa;stop-opacity:1;" />
      <stop
         id="stop8335"
         offset="1"
         style="stop-color:#cfd8e9;stop-opacity:1;" />
    </linearGradient>
  </defs>
  <sodipodi:namedview
     inkscape:window-height="979"
     inkscape:window-width="1400"
     inkscape:pageshadow="2"
     inkscape:pageopacity="0.0"
     guidetolerance="10.0"
     gridtolerance="10.0"
     objecttolerance="10.0"
     borderopacity="1.0"
     bordercolor="#666666"
     pagecolor="#ffffff"
     id="base"
     showguides="true"
     inkscape:guide-bbox="true"
     inkscape:zoom="11.166395"
     inkscape:cx="27.334225"
     inkscape:cy="20.948248"
     inkscape:window-x="124"
     inkscape:window-y="51"
     inkscape:current-layer="svg1998"
     showgrid="false"
     inkscape:window-maximized="0" />
  <rect
     style="opacity:1;fill:#000000;fill-opacity:0.39215686;fill-rule:evenodd;stroke:none;stroke-width:0.2;stroke-linecap:square;stroke-linejoin:miter;stroke-miterlimit:4;stroke-dasharray:none;stroke-opacity:1"
     id="rect4558"
     width="64.553001"
     height="54.450546"
     x="1.3854325"
     y="1.1652724"
     ry="15.247324"
     rx="32.213169"
     inkscape:transform-center-x="8.4568758" />
  <rect
     style="opacity:1;fill:#3c8c8c;fill-opacity:1;fill-rule:evenodd;stroke:none;stroke-width:0.015;stroke-linecap:square;stroke-linejoin:miter;stroke-miterlimit:4;stroke-dasharray:none;stroke-opacity:1"
     id="rect9971"
     width="64.499474"
     height="52.040936"
     x="0"
     y="0.91024613"
     ry="11.802391"
     rx="32.249737"
     inkscape:transform-center-x="8.2952569" />
  <g
     id="g3579"
     transform="matrix(1.0000067,0,0,0.9900067,40.759311,2.327137)">
    <path
       id="path3581"
       d="M 23.677527,9.7502028 L 23.620489,9.1645488 L 23.506407,8.5788958 L 23.316272,8.0127658 L 23.03107,7.4271138 L 22.650803,6.8609828 L 22.213492,6.2948508 L 21.681115,5.7482428 L 21.072684,5.2211558 L 20.3882,4.6940668 L 19.627661,4.1865018 L 18.810084,3.6789348 L 17.916451,3.1908918 L 16.946765,2.7028468 L 15.920038,2.2733688 L 14.817258,1.8438898 L 13.657439,1.4144108 L 12.45959,1.0239748 L 11.18569,0.6725838 L 9.8737612,0.3211921 L 8.5047922,0.0088434012 L 7.0977972,-0.2839824 L 5.6527742,-0.5572882 L 4.1697252,-0.7915484 L 2.6676622,-1.0258099 L 1.1275722,-1.2015057 L -0.45054482,-1.3576797 L -2.0476748,-1.4943326 L -3.6448038,-1.5919412 L -5.2609448,-1.6700286 L -6.8961048,-1.7285939 L -8.5122458,-1.7285939 L -8.5122458,-1.7285939 L -10.147406,-1.7285939 L -11.78256,-1.6700286 L -13.379691,-1.5919412 L -14.995836,-1.4943326 L -16.592965,-1.3576797 L -18.152069,-1.2015057 L -19.711169,-1.0258099 L -21.213234,-0.7915484 L -22.696283,-0.5572882 L -24.141307,-0.2839824 L -25.548301,0.0088434012 L -26.917268,0.3211921 L -28.229199,0.6725838 L -29.503099,1.0239748 L -30.700949,1.4144108 L -31.860772,1.8438898 L -32.963548,2.2733688 L -33.990275,2.7028468 L -34.959963,3.1908918 L -35.853593,3.6789348 L -36.671173,4.1865018 L -37.431708,4.6940668 L -38.116197,5.2211558 L -38.705611,5.7482428 L -39.257001,6.2948508 L -39.694309,6.8609828 L -40.074582,7.4271138 L -40.359781,8.0127658 L -40.568933,8.5788958 L -40.683011,9.1645488 L -40.721038,9.7502028 L -40.721038,9.7502028 L -40.683011,10.335856 L -40.568933,10.901987 L -40.359781,11.48764 L -40.074582,12.03425 L -39.694309,12.619902 L -39.257001,13.166511 L -38.705611,13.732642 L -38.116197,14.279254 L -37.431708,14.806341 L -36.671173,15.294385 L -35.853593,15.801949 L -34.959963,16.309514 L -33.990275,16.758515 L -32.963548,17.207517 L -31.860772,17.656519 L -30.700949,18.066477 L -29.503099,18.456913 L -28.229199,18.808302 L -26.917268,19.159693 L -25.548301,19.472041 L -24.141307,19.784392 L -22.696283,20.038171 L -21.213234,20.291955 L -19.711169,20.506693 L -18.152069,20.682391 L -16.592965,20.838567 L -14.995836,20.975218 L -13.379691,21.072827 L -11.78256,21.150915 L -10.147406,21.20948 L -8.5122458,21.20948 L -8.5122458,21.20948 L -6.8961048,21.20948 L -5.2609448,21.150915 L -3.6448038,21.072827 L -2.0476748,20.975218 L -0.45054482,20.838567 L 1.1275722,20.682391 L 2.6676622,20.506693 L 4.1697252,20.291955 L 5.6527742,20.038171 L 7.0977972,19.784392 L 8.5047922,19.472041 L 9.8737612,19.159693 L 11.18569,18.808302 L 12.45959,18.456913 L 13.657439,18.066477 L 14.817258,17.656519 L 15.920038,17.207517 L 16.946765,16.758515 L 17.916451,16.309514 L 18.810084,15.801949 L 19.627661,15.294385 L 20.3882,14.806341 L 21.072684,14.279254 L 21.681115,13.732642 L 22.213492,13.166511 L 22.650803,12.619902 L 23.03107,12.03425 L 23.316272,11.48764 L 23.506407,10.901987 L 23.620489,10.335856 L 23.677527,9.7502028"
       style="fill:#3c8c8c;fill-opacity:1;stroke:none;stroke-width:0.01928605;stroke-miterlimit:4;stroke-dasharray:none;stroke-opacity:1" />
  </g>
  <g
     id="g4160"
     transform="matrix(1.0000067,0,0,0.9900067,-7.7865845e-2,0.5539581)">
    <path
       id="path4815"
       d="M 64.514069,11.541297 L 64.457031,10.955643 L 64.342949,10.36999 L 64.152814,9.8038604 L 63.867612,9.2182077 L 63.487345,8.6520765 L 63.050034,8.0859452 L 62.517657,7.5393369 L 61.909226,7.0122499 L 61.224742,6.4851607 L 60.464203,5.9775955 L 59.646626,5.4700289 L 58.752993,4.9819859 L 57.783307,4.4939413 L 56.75658,4.0644625 L 55.6538,3.6349838 L 54.493981,3.2055052 L 53.296132,2.8150692 L 52.022232,2.4636777 L 50.710303,2.1122862 L 49.341334,1.7999375 L 47.934339,1.5071117 L 46.489316,1.2338059 L 45.006267,0.99954576 L 43.504204,0.76528425 L 41.964114,0.58958842 L 40.385997,0.43341443 L 38.788867,0.29676153 L 37.191738,0.19915292 L 35.575597,0.12106555 L 33.940437,0.06250017 L 32.324296,0.06250017 L 32.324296,0.06250017 L 30.689136,0.06250017 L 29.053981,0.12106555 L 27.45685,0.19915292 L 25.840705,0.29676153 L 24.243576,0.43341443 L 22.684472,0.58958842 L 21.125372,0.76528425 L 19.623307,0.99954576 L 18.140258,1.2338059 L 16.695234,1.5071117 L 15.28824,1.7999375 L 13.919273,2.1122862 L 12.607342,2.4636777 L 11.333442,2.8150692 L 10.135592,3.2055052 L 8.9757693,3.6349838 L 7.8729941,4.0644625 L 6.8462664,4.4939413 L 5.8765785,4.9819859 L 4.9829488,5.4700289 L 4.1653682,5.9775955 L 3.4048335,6.4851607 L 2.7203448,7.0122499 L 2.1309311,7.5393369 L 1.5795405,8.0859452 L 1.1422325,8.6520765 L 0.76195982,9.2182077 L 0.47676065,9.8038604 L 0.26760898,10.36999 L 0.15353084,10.955643 L 0.11550327,11.541297 L 0.11550327,11.541297 L 0.15353084,12.12695 L 0.26760898,12.693081 L 0.47676065,13.278734 L 0.76195982,13.825344 L 1.1422325,14.410996 L 1.5795405,14.957605 L 2.1309311,15.523736 L 2.7203448,16.070348 L 3.4048335,16.597435 L 4.1653682,17.085479 L 4.9829488,17.593043 L 5.8765785,18.100608 L 6.8462664,18.549609 L 7.8729941,18.998611 L 8.9757693,19.447613 L 10.135592,19.857571 L 11.333442,20.248007 L 12.607342,20.599396 L 13.919273,20.950787 L 15.28824,21.263135 L 16.695234,21.575486 L 18.140258,21.829265 L 19.623307,22.083049 L 21.125372,22.297787 L 22.684472,22.473485 L 24.243576,22.629661 L 25.840705,22.766312 L 27.45685,22.863921 L 29.053981,22.942009 L 30.689136,23.000574 L 32.324296,23.000574 L 32.324296,23.000574 L 33.940437,23.000574 L 35.575597,22.942009 L 37.191738,22.863921 L 38.788867,22.766312 L 40.385997,22.629661 L 41.964114,22.473485 L 43.504204,22.297787 L 45.006267,22.083049 L 46.489316,21.829265 L 47.934339,21.575486 L 49.341334,21.263135 L 50.710303,20.950787 L 52.022232,20.599396 L 53.296132,20.248007 L 54.493981,19.857571 L 55.6538,19.447613 L 56.75658,18.998611 L 57.783307,18.549609 L 58.752993,18.100608 L 59.646626,17.593043 L 60.464203,17.085479 L 61.224742,16.597435 L 61.909226,16.070348 L 62.517657,15.523736 L 63.050034,14.957605 L 63.487345,14.410996 L 63.867612,13.825344 L 64.152814,13.278734 L 64.342949,12.693081 L 64.457031,12.12695 L 64.514069,11.541297"
       style="fill:url(#linearGradient2216);fill-opacity:1;stroke:none;stroke-width:0.01928605;stroke-miterlimit:4;stroke-dasharray:none;stroke-opacity:1" />
    <path
       id="path4819"
       d="M 33.023738,8.6936939 L 37.664889,10.327433 L 48.909313,5.4458969 L 53.946665,7.0599533 L 51.229891,3.0248142 L 38.061087,3.0248142 L 43.475766,4.225514 L 33.023738,8.6936939"
       style="fill:#000000;stroke:none;stroke-width:0.001" />
    <path
       id="path4821"
       d="M 31.08049,13.161874 L 26.439334,11.528132 L 15.591104,16.429352 L 10.176425,14.775929 L 12.874332,19.244109 L 26.439334,19.244109 L 20.628458,17.630052 L 31.08049,13.161874"
       style="fill:#000000;stroke:none;stroke-width:0.001" />
    <path
       id="path4823"
       d="M 11.327278,4.225514 L 15.968435,2.611458 L 27.212859,7.0599533 L 32.25021,5.8592533 L 29.552303,9.8943939 L 16.364632,9.8943939 L 21.779313,8.6936939 L 11.327278,4.225514"
       style="fill:#000000;stroke:none;stroke-width:0.001" />
    <path
       id="path4825"
       d="M 53.154272,18.023723 L 48.513117,19.657467 L 37.664889,14.775929 L 32.25021,16.429352 L 34.966985,12.33516 L 48.513117,12.33516 L 42.70224,13.555544 L 53.154272,18.023723"
       style="fill:#000000;stroke:none;stroke-width:0.001" />
    <path
       id="path4827"
       d="M 33.419936,9.1070493 L 38.061087,10.721105 L 49.286643,5.8592533 L 54.323994,7.4929926 L 51.60722,3.4184854 L 38.438415,3.4184854 L 43.871962,4.6191872 L 33.419936,9.1070493"
       style="fill:#ffffff;stroke:none;stroke-width:0.001" />
    <path
       id="path4829"
       d="M 31.476681,13.555544 L 26.816665,11.941487 L 15.968435,16.803341 L 10.553753,15.189284 L 13.25166,19.657467 L 26.816665,19.657467 L 21.005786,18.023723 L 31.476681,13.555544"
       style="fill:#ffffff;stroke:none;stroke-width:0.001" />
    <path
       id="path4831"
       d="M 11.723476,4.6191872 L 16.364632,3.0248142 L 27.609055,7.4929926 L 32.627541,6.2529266 L 29.929634,10.327433 L 16.741963,10.327433 L 22.175509,9.1070493 L 11.723476,4.6191872"
       style="fill:#ffffff;stroke:none;stroke-width:0.001" />
    <path
       id="path4833"
       d="M 53.531602,18.43708 L 48.909313,20.070823 L 38.061087,15.189284 L 32.627541,16.803341 L 35.344315,12.7682 L 48.909313,12.7682 L 43.098437,13.9689 L 53.531602,18.43708"
       style="fill:#ffffff;stroke:none;stroke-width:0.001" />
  </g>
  <g
     id="g3377"
     transform="translate(27.261461,25.114531)">
    <g
       id="biohazard-5"
       transform="matrix(0.08208805,0,0,0.08208805,-22.699733,44.974166)">
      <use
         height="1"
         width="1"
         y="0"
         x="0"
         id="use3175"
         xlink:href="#p"
         transform="matrix(0.59107234,0,0,0.59107234,184.79656,-531.9575)"
         style="fill:#000000" />
      <use
         style="fill:#ffffff"
         transform="matrix(0.59107234,0,0,0.59107234,178.54041,-531.9575)"
         xlink:href="#p"
         id="use3341-4"
         x="0"
         y="0"
         width="1"
         height="1" />
      <use
         height="1"
         width="1"
         y="0"
         x="0"
         id="use3177"
         transform="matrix(-0.29553617,0.51188366,-0.51188366,-0.29553617,548.40456,-434.52903)"
         xlink:href="#p"
         style="fill:#000000" />
      <use
         style="fill:#ffffff"
         xlink:href="#p"
         transform="matrix(-0.29553617,0.51188366,-0.51188366,-0.29553617,542.14838,-434.52903)"
         id="use3343-1"
         x="0"
         y="0"
         width="1"
         height="1" />
      <use
         height="1"
         width="1"
         y="0"
         x="0"
         id="use3179"
         transform="matrix(-0.29400183,-0.50773227,0.5092261,-0.29313937,279.18389,-169.44999)"
         xlink:href="#p"
         style="fill:#000000" />
      <use
         style="fill:#ffffff"
         xlink:href="#p"
         transform="matrix(-0.28939879,-0.51188366,0.5012534,-0.29553617,274.12647,-168.34953)"
         id="use3345-1"
         x="0"
         y="0"
         width="1"
         height="1" />
    </g>
  </g>
</svg>
