<?xml version="1.0" encoding="UTF-8" standalone="no"?>
<!-- Created with Inkscape (http://www.inkscape.org/) -->

<svg
   xmlns:dc="http://purl.org/dc/elements/1.1/"
   xmlns:cc="http://creativecommons.org/ns#"
   xmlns:rdf="http://www.w3.org/1999/02/22-rdf-syntax-ns#"
   xmlns:svg="http://www.w3.org/2000/svg"
   xmlns="http://www.w3.org/2000/svg"
   version="1.1"
   width="40"
   height="24.999939"
   viewBox="11 7 20.696297 13.758299"
   id="svg2">
  <title
     id="title3763">IP phone</title>
  <metadata
     id="metadata160">
    <rdf:RDF>
      <cc:Work
         rdf:about="">
        <dc:format>image/svg+xml</dc:format>
        <dc:type
           rdf:resource="http://purl.org/dc/dcmitype/StillImage" />
        <dc:title>IP phone</dc:title>
        <dc:creator>
          <cc:Agent>
            <dc:title>Jeremy Grossmann</dc:title>
          </cc:Agent>
        </dc:creator>
        <dc:publisher>
          <cc:Agent>
            <dc:title>GNS-3</dc:title>
          </cc:Agent>
        </dc:publisher>
        <dc:description>Created for the GNS-3 project
(www.gns3.net)</dc:description>
      </cc:Work>
      <cc:Work
         rdf:about="">
        <dc:format>image/svg+xml</dc:format>
        <dc:type
           rdf:resource="http://purl.org/dc/dcmitype/StillImage" />
      </cc:Work>
      <cc:Work
         rdf:about="">
        <dc:format>image/svg+xml</dc:format>
        <dc:type
           rdf:resource="http://purl.org/dc/dcmitype/StillImage" />
      </cc:Work>
    </rdf:RDF>
  </metadata>
  <defs
     id="defs158" />
  <g
     transform="translate(-18.08621,-48.389319)"
     id="g4">
    <path
       d="m 46.042575,68.564438 -0.497709,0.04988 -0.477152,0.04767 -0.452811,0.04988 -0.43595,0.04553 -0.823306,0.08889 -0.761548,0.0824 -0.364865,0.03683 -0.355511,0.03252 -0.348032,0.03255 -0.336801,0.03034 -0.334953,0.02168 -0.33117,0.0195 -0.329323,0.0195 -0.325598,0.01301 -0.333047,0.0065 -0.329323,0.0065 -0.336801,-0.0022 -0.344278,-0.0065 -0.348032,-0.01301 -0.357387,-0.01733 -0.370495,-0.02171 -0.379821,-0.03034 -0.392959,-0.03687 -0.411638,-0.0455 -0.426624,-0.04771 -0.443457,-0.05637 -0.464043,-0.06504 -0.4846,-0.06938 -0.507093,-0.0824 -0.537004,-0.08889 -4.67782,0 0,-2.877012 0.8158,0 0.720404,-0.0044 0.621197,0 0.529527,0 0.452811,0 0.37422,0 0.308737,0 0.248883,0 0.192726,0 0.145952,0 0.106656,0 0.07296,0 0.04302,0 0.02622,0 0.01308,0 0.0056,0.0044 0.537004,0.08454 0.507093,0.0824 0.4846,0.06935 0.464043,0.06507 0.443456,0.05851 0.426624,0.04988 0.411639,0.04336 0.392959,0.03469 0.37982,0.03034 0.370496,0.02168 0.357386,0.01954 0.348032,0.01084 0.344279,0.0065 0.336801,0.0044 0.329322,-0.0065 0.333047,-0.0087 0.325599,-0.01301 0.329323,-0.01515 0.33117,-0.01954 0.334953,-0.02599 0.336801,-0.02603 0.348032,-0.03469 0.35551,-0.03469 0.364865,-0.03687 0.761548,-0.07805 0.823307,-0.0932 0.435949,-0.04553 0.452812,-0.04553 0.477152,-0.04988 0.497709,-0.04767 0,2.877012 -10e-7,-6e-6 2.8e-5,6e-6 z"
       id="path3757"
       style="fill:#000000;fill-opacity:0.39256197" />
    <path
       d="m 50.441025,58.072692 0,5.563542 -4.39845,5.000903 0,-2.986566 4.39845,-7.577879 0,0 z"
       id="path3740"
       style="fill:#000000;fill-opacity:0.39215686" />
    <path
       d="m 49.665662,56.379975 0,1.140101 0,0.555114 -1.060497,0 1.060497,-1.695215 0,0 0,0 z"
       id="path6"
       style="fill:#646464;fill-opacity:1" />
    <path
       d="m 48.660854,58.016409 0.08372,0.170091 0.921087,0 0,-0.222586 -0.921087,0 -0.08372,0.0525 0.08372,-0.0525 -0.01142,0 -0.01142,0.0042 -0.0133,0.0021 -0.0076,0.0042 -0.01139,0.0021 -0.0057,0.0063 -0.0095,0.0105 -0.0057,0.0063 -0.0076,0.0063 -0.0038,0.0105 -0.0057,0.0084 -0.0019,0.0105 -0.0038,0.01261 -0.0019,0.0063 0,0.01261 0,0.0084 0,0.0105 0,0.01261 0.0019,0.0084 0.0038,0.0105 0.0019,0.0105 0.0057,0.0084 0.0038,0.0105 0.0076,0.0084 0.0057,0.0063 0.0095,0.0063 0.0057,0.0063 0.01139,0.0063 0.0076,0.0042 0.0133,0.0021 0.01142,0 0.01142,0 -0.08372,-0.170091 0,0 0,-4.4e-5 z"
       id="path10"
       style="fill:#add6e7" />
    <path
       d="m 38.829545,56.418434 0,1.656756 -1.18742,0 1.18742,-1.656756 0,0 z"
       id="path14"
       style="fill:#646464;fill-opacity:1" />
    <path
       d="m 37.664839,58.01009 0.08184,0.17641 1.082863,0 0,-0.222586 -1.082863,0 -0.08184,0.04618 0.08184,-0.04618 -0.01142,0 -0.01142,0.0042 -0.01142,0.0021 -0.0095,0.0042 -0.01139,0.0021 -0.0057,0.0063 -0.0095,0.0105 -0.0057,0.0063 -0.0076,0.0063 -0.0038,0.0105 -0.0057,0.0084 -0.0019,0.0105 -0.0038,0.01261 -0.0019,0.0063 0,0.01261 0,0.0084 0,0.0105 0,0.01261 0.0019,0.0084 0.0038,0.0105 0.0019,0.0105 0.0057,0.0084 0.0038,0.0105 0.0076,0.0084 0.0057,0.0063 0.0095,0.0063 0.0057,0.0063 0.01139,0.0063 0.0095,0.0042 0.01142,0.0021 0.01142,0 0.01142,0 -0.08184,-0.17641 0,0 0,-4.4e-5 z"
       id="path18"
       style="fill:#add6e7" />
    <path
       d="m 38.829545,56.422501 -4.904261,0 -5.399015,8.61212 0.82973,0 0.732706,-0.0042 0.631804,0 0.538568,0 0.460544,0 0.38061,0 0.314008,0 0.253133,0 0.196017,0 0.148444,0 0.108477,0 0.07421,0 0.04376,0 0.02666,0 0.0133,0 0.0057,0.0042 0.546174,0.08189 0.515751,0.07981 0.492875,0.06717 0.471967,0.06303 0.451029,0.05667 0.433909,0.04832 0.418667,0.042 0.399669,0.0336 0.386306,0.02939 0.376822,0.021 0.36349,0.01892 0.353975,0.0105 0.350157,0.0063 0.342552,0.0042 0.334946,-0.0063 0.338734,-0.0084 0.331158,-0.01261 0.334946,-0.01468 0.336825,-0.01892 0.340673,-0.02518 0.342552,-0.02521 0.353975,-0.0336 0.36158,-0.0336 0.371096,-0.03571 0.774551,-0.0756 0.837365,-0.09028 0.443394,-0.0441 0.460543,-0.0441 0.485299,-0.04832 0.506207,-0.04618 4.004142,-7.070707 -1.400719,0 0.921087,-1.541413 -9.665745,0 -1.05238,1.541413 -1.200855,0 1.082863,-1.541413 0,0 2.5e-5,-1e-5 z"
       id="path22"
       style="fill:#8c8c8c;fill-opacity:1" />
    <path
       d="m 38.78576,64.578918 -3.448364,0 1.922108,-2.790927 3.328463,0 -1.802207,2.790927 0,0 z"
       id="path46"
       style="fill:#000000;fill-opacity:1" />
    <path
       d="m 35.266977,64.517998 0.07042,0.159624 3.448364,0 0,-0.197408 -3.448364,0 -0.07042,0.03778 0,0 -0.108477,0.159624 0.178896,0 -0.07042,-0.159624 10e-7,4e-6 z"
       id="path48"
       style="fill:#ffffff;fill-opacity:1" />
    <path
       d="m 37.259504,61.68932 -0.07233,0.03778 -1.920199,2.790895 0.140809,0.117595 1.920228,-2.790894 -0.06851,-0.155379 0,0 -0.04378,0 -0.02854,0.03778 0.07233,-0.03778 0,0 -8e-6,3e-6 z"
       id="path50"
       style="fill:#ffffff;fill-opacity:1" />
    <path
       d="m 40.660295,61.842592 -0.07233,-0.153272 -3.328463,0 0,0.195301 3.328463,0 0.07233,-0.04203 0,0 0.09705,-0.153272 -0.169382,0 0.07233,0.153272 0,0 2e-6,1e-6 z"
       id="path52"
       style="fill:#ffffff;fill-opacity:1" />
    <path
       d="m 38.78576,64.677622 0.07233,-0.04203 1.802207,-2.793001 -0.144626,-0.111276 -1.800328,2.790894 0.07042,0.155412 0,0 0.04378,0 0.02854,-0.04203 -0.07233,0.04203 0,0 7e-6,10e-7 z"
       id="path54"
       style="fill:#ffffff;fill-opacity:1" />
    <path
       d="m 50.046716,58.018303 0,5.191186 -4.00414,4.666203 0,-2.786682 4.00414,-7.070707 0,0 z"
       id="path56"
       style="fill:#646464;fill-opacity:1" />
    <path
       d="m 36.250848,58.390194 -0.123689,0.159624 -0.127506,0.159592 -0.129415,0.161698 -0.135112,0.163804 -0.133203,0.170091 -0.133232,0.17009 -0.131295,0.170124 -0.131323,0.174303 -0.131324,0.174271 -0.127507,0.174303 -0.06087,0.09031 -0.06281,0.0861 -0.0609,0.08821 -0.0609,0.08821 -0.06088,0.0861 -0.0533,0.09239 -0.05709,0.0861 -0.05521,0.0882 -0.05518,0.09031 -0.05518,0.0882 -0.0476,0.09028 -0.04945,0.08402 0.04375,0.611082 -1.621431,2.753111 -0.186502,-1.789209 0.03997,-0.1407 0.05709,-0.159592 0.07615,-0.18059 0.09515,-0.199514 0.108477,-0.214193 0.123688,-0.231011 0.13893,-0.24569 0.146535,-0.256222 0.161776,-0.266688 0.17317,-0.277187 0.180805,-0.283507 0.188381,-0.289792 0.192229,-0.294005 0.199834,-0.296112 0.201714,-0.298185 0.207439,-0.296112 0.205531,-0.296112 0.209349,-0.289792 0.20741,-0.28558 0.205531,-0.279326 0.201743,-0.270901 0.196017,-0.260402 0.196017,-0.247797 0.186502,-0.237297 0.178896,-0.220479 0.167473,-0.203727 0.157959,-0.186876 0.150323,-0.165911 0.135111,-0.144913 0.12181,-0.123881 0.106568,-0.0987 0.08754,-0.07139 0.18841,1.789177 -1.406385,1.784997 -0.03997,-0.573299 0,0 -1.4e-5,-5e-6 z"
       id="path66"
       style="fill:#646464;fill-opacity:1" />
    <path
       d="m 29.491111,62.701504 -0.186502,1.789209 3.38558,0 -0.186502,-1.789209 -3.012576,0 0,0 z"
       id="path84"
       style="fill:#787878;fill-opacity:1" />
    <path
       d="m 37.50879,55.389319 -0.08754,0.07139 -0.106568,0.0987 -0.121809,0.123881 -0.135112,0.144913 -0.150323,0.165911 -0.157959,0.186876 -0.167473,0.203727 -0.178896,0.220479 -0.186502,0.237297 -0.196017,0.247797 -0.196016,0.260402 -0.201743,0.270901 -0.205531,0.279326 -0.20741,0.28558 -0.209349,0.289792 -0.205531,0.296112 -0.20744,0.296112 -0.201713,0.298185 -0.199835,0.296112 -0.192228,0.294005 -0.188381,0.289792 -0.180806,0.283507 -0.173169,0.277187 -0.161777,0.266688 -0.146535,0.256222 -0.138929,0.24569 -0.123689,0.231011 -0.108477,0.214193 -0.09515,0.199514 -0.07615,0.18059 -0.05709,0.159592 -0.03997,0.1407 -3.012576,0 0.04188,-0.1407 0.059,-0.159592 0.07612,-0.18059 0.09136,-0.199514 0.112295,-0.214193 0.121779,-0.231011 0.13893,-0.24569 0.146535,-0.256222 0.163655,-0.266688 0.169382,-0.277187 0.176988,-0.283507 0.19032,-0.289792 0.196016,-0.294005 0.196017,-0.296112 0.205531,-0.298185 0.205531,-0.296112 0.20744,-0.296112 0.205531,-0.289792 0.209319,-0.28558 0.205531,-0.279326 0.201743,-0.270901 0.199834,-0.260402 0.192199,-0.247797 0.184593,-0.237297 0.178896,-0.220479 0.17317,-0.203727 0.157959,-0.186876 0.146535,-0.165911 0.135112,-0.144913 0.121809,-0.123881 0.106568,-0.0987 0.09136,-0.07139 3.008758,0 -2e-6,0 z"
       id="path94"
       style="fill:#8c8c8c;fill-opacity:1" />
    <path
       d="m 38.532657,59.96939 1.9868,-2.887492 7.745546,0 -1.781299,2.887492 -7.951047,0 0,0 z"
       id="path104"
       style="fill:#ffffff" />
    <path
       d="m 39.377628,59.433908 1.334057,-1.940409 5.208725,0 -1.197037,1.940409 -5.345745,0 z"
       id="path114"
       style="fill:#000000" />
    <path
       d="m 37.676263,64.635593 1.802206,-2.793001 -0.140808,-0.111276 -1.804116,2.790894 0.142718,0.113383 0,0 z"
       id="path124"
       style="fill:#ffffff;fill-opacity:1" />
    <path
       d="m 36.587703,64.635593 1.800327,-2.793001 -0.142747,-0.111276 -1.802207,2.790894 0.144627,0.113383 z"
       id="path126"
       style="fill:#ffffff;fill-opacity:1" />
    <path
       d="m 40.138847,62.361322 -3.315161,0 0,0.193195 3.315161,0 0,-0.193195 z"
       id="path128"
       style="fill:#ffffff;fill-opacity:1" />
    <path
       d="m 39.697333,63.073215 -3.374157,0 0,0.193195 3.374157,0 0,-0.193195 z"
       id="path130"
       style="fill:#ffffff;fill-opacity:1" />
    <path
       d="m 39.213942,63.82921 -3.425517,0 0,0.193195 3.425517,0 0,-0.193195 z"
       id="path132"
       style="fill:#ffffff;fill-opacity:1" />
    <path
       d="m 46.042574,67.821304 -0.506207,0.04832 -0.485299,0.04618 -0.460543,0.04832 -0.443394,0.0441 -0.837365,0.0861 -0.774552,0.07981 -0.371095,0.03567 -0.36158,0.0315 -0.353976,0.03153 -0.342551,0.02939 -0.340673,0.021 -0.336825,0.01889 -0.334946,0.01889 -0.331158,0.01261 -0.338734,0.0063 -0.334946,0.0063 -0.342552,-0.0021 -0.350157,-0.0063 -0.353976,-0.0126 -0.363488,-0.01679 -0.376822,-0.02103 -0.386306,-0.02939 -0.399669,-0.03571 -0.418668,-0.04407 -0.433908,-0.04621 -0.451029,-0.0546 -0.471967,-0.06299 -0.492875,-0.06721 -0.515751,-0.07981 -0.546174,-0.0861 -4.757696,0 0,-2.786682 0.82973,0 0.732705,-0.0042 0.631805,0 0.538568,0 0.460543,0 0.38061,0 0.314008,0 0.253134,0 0.196016,0 0.148444,0 0.108478,0 0.07421,0 0.04375,0 0.02667,0 0.0133,0 0.0057,0.0042 0.546174,0.08189 0.515751,0.07981 0.492875,0.06717 0.471967,0.06303 0.451029,0.05667 0.433908,0.04832 0.418668,0.042 0.399669,0.0336 0.386306,0.02939 0.376822,0.021 0.363488,0.01892 0.353976,0.0105 0.350157,0.0063 0.342552,0.0042 0.334946,-0.0063 0.338734,-0.0084 0.331158,-0.0126 0.334946,-0.01468 0.336825,-0.01893 0.340673,-0.02518 0.342551,-0.02521 0.353976,-0.0336 0.36158,-0.0336 0.371095,-0.03571 0.774552,-0.0756 0.837365,-0.09028 0.443394,-0.0441 0.460543,-0.0441 0.485299,-0.04832 0.506207,-0.04618 0,2.786682 0,-3e-6 2.5e-5,-7e-6 z"
       id="path134"
       style="fill:#787878;fill-opacity:1" />
    <path
       d="m 42.00005,64.614595 0,-3.607777 0.662286,0 0,3.607777 -0.662286,0 z"
       id="path148"
       style="fill:#1f1a17" />
    <path
       d="m 43.29417,64.614595 0,-3.607777 1.060017,0 0.144626,0 0.133203,0.0021 0.117992,0.0042 0.10278,0.0063 0.04948,0.0021 0.04376,0.0063 0.03997,0.0042 0.03806,0.0042 0.03427,0.0063 0.03045,0.0063 0.03045,0.0063 0.02282,0.0063 0.03427,0.0084 0.03424,0.01261 0.03427,0.01679 0.03233,0.01261 0.03045,0.01889 0.03236,0.01471 0.02854,0.0231 0.03236,0.01889 0.02854,0.0231 0.02854,0.02521 0.02663,0.02518 0.02854,0.02939 0.02666,0.02732 0.02473,0.02939 0.02285,0.0336 0.02663,0.0336 0.02285,0.0336 0.02094,0.03571 0.01903,0.03778 0.02094,0.03782 0.01712,0.03778 0.01521,0.042 0.01333,0.0441 0.01142,0.042 0.01142,0.0441 0.0095,0.0441 0.0076,0.04832 0.0095,0.04828 0.0019,0.05042 0.0057,0.05039 0,0.05039 0.0038,0.0546 -0.0038,0.042 0,0.03992 -0.0019,0.03989 -0.0038,0.03778 -0.0019,0.03782 -0.0057,0.03782 -0.0057,0.03568 -0.0057,0.0336 -0.0057,0.03571 -0.0095,0.03571 -0.01142,0.0315 -0.0076,0.0315 -0.01142,0.0315 -0.0095,0.02939 -0.01521,0.0315 -0.01142,0.02939 -0.01333,0.02732 -0.01521,0.02521 -0.01333,0.02939 -0.01712,0.02521 -0.01521,0.02307 -0.01715,0.02521 -0.01521,0.021 -0.01903,0.0231 -0.01715,0.021 -0.01712,0.0231 -0.01712,0.01889 -0.02094,0.02311 -0.02094,0.01889 -0.01903,0.01471 -0.02094,0.01678 -0.01903,0.01893 -0.04376,0.02939 -0.03997,0.02728 -0.04378,0.02521 -0.04375,0.02311 -0.04378,0.0231 -0.04188,0.01468 -0.04375,0.01682 -0.04378,0.0084 -0.06087,0.01261 -0.06851,0.01261 -0.07803,0.0105 -0.07993,0.0063 -0.08945,0.0021 -0.09518,0.0063 -0.10466,0.0042 -0.108477,0 -0.430091,0 0,1.360791 -0.662257,0 0.662257,-2.998801 0,1.024822 0.361581,0 0.09327,-0.0042 0.08372,0 0.07802,-0.0021 0.07233,-0.0063 0.02854,-0.0063 0.03236,-0.0042 0.02664,-0.0063 0.02472,-0.0021 0.02285,-0.0063 0.02285,-0.0063 0.02094,-0.0063 0.01712,-0.0063 0.03236,-0.01678 0.02854,-0.01682 0.02854,-0.01889 0.02663,-0.021 0.02473,-0.0231 0.02285,-0.02521 0.02094,-0.02939 0.02094,-0.02521 0.01712,-0.0315 0.01712,-0.0315 0.01142,-0.03571 0.01142,-0.0336 0.0057,-0.03568 0.0095,-0.0336 0.0019,-0.042 0,-0.03782 0,-0.0231 0,-0.02518 -0.0019,-0.0231 -0.0038,-0.021 -0.0057,-0.02521 -0.0038,-0.01889 -0.0057,-0.0231 -0.0057,-0.01889 -0.0076,-0.0231 -0.0057,-0.01889 -0.0095,-0.01892 -0.0076,-0.01889 -0.01142,-0.01471 -0.01142,-0.021 -0.01139,-0.01468 -0.01142,-0.01682 -0.01524,-0.01468 -0.01139,-0.01682 -0.01715,-0.0126 -0.01521,-0.01257 -0.01333,-0.01261 -0.01521,-0.01261 -0.01715,-0.0105 -0.01521,-0.01261 -0.01712,-0.0084 -0.01712,-0.0105 -0.01715,-0.0063 -0.01903,-0.0084 -0.01903,-0.0042 -0.01903,-0.0063 -0.02094,-0.0063 -0.01712,-0.0063 -0.03427,-0.0063 -0.03994,-0.0021 -0.04948,-0.0042 -0.05521,-0.0021 -0.06278,-0.0042 -0.06851,-0.0042 -0.08184,0 -0.08375,0 -0.319705,0 -0.662257,2.998801 0,0 -1.29e-4,-6.6e-5 z"
       id="path150"
       style="fill:#1f1a17" />
    <path
       d="m 41.899208,64.503319 0,-3.612023 0.662257,0 0,3.612023 -0.662257,0 z"
       id="path152"
       style="fill:#ffffff" />
    <path
       d="m 43.189481,64.503319 0,-3.612023 1.063834,0 0.144626,0.0042 0.133203,0.0021 0.117992,0.0042 0.102781,0.0063 0.04566,0.0021 0.04757,0.0042 0.03997,0.0063 0.03809,0.0042 0.03424,0.0063 0.03045,0.0021 0.03045,0.0063 0.02282,0.0105 0.03427,0.0084 0.03424,0.01261 0.03236,0.01261 0.03427,0.01678 0.03045,0.01471 0.03233,0.021 0.02854,0.021 0.03236,0.01889 0.02854,0.02311 0.02854,0.02521 0.02666,0.02518 0.02473,0.02942 0.03045,0.02728 0.02473,0.02942 0.02285,0.0315 0.02664,0.03568 0.02285,0.0315 0.02094,0.03782 0.01903,0.03571 0.01712,0.03989 0.01712,0.03778 0.01906,0.04203 0.01139,0.042 0.01333,0.0441 0.01142,0.0441 0.0095,0.04407 0.0076,0.04832 0.0057,0.04832 0.0057,0.05039 0.0057,0.05039 0,0.05042 0.0038,0.0546 -0.0038,0.042 0,0.03778 -0.0019,0.042 -0.0038,0.03782 -0.0019,0.03778 -0.0057,0.03571 -0.0057,0.03778 -0.0057,0.0336 -0.0095,0.03571 -0.0076,0.03571 -0.0095,0.0315 -0.0076,0.0315 -0.01139,0.0315 -0.01142,0.02939 -0.01333,0.0315 -0.01333,0.02521 -0.01521,0.02939 -0.01142,0.02732 -0.01712,0.02521 -0.01333,0.02518 -0.01521,0.02732 -0.01712,0.02518 -0.01715,0.021 -0.01712,0.02311 -0.01712,0.0231 -0.01712,0.021 -0.02094,0.01889 -0.01715,0.01892 -0.02091,0.01889 -0.01906,0.01889 -0.02091,0.01682 -0.01903,0.01678 -0.04378,0.0315 -0.04378,0.02732 -0.03994,0.02518 -0.04378,0.02311 -0.04378,0.01892 -0.04185,0.01889 -0.04378,0.01678 -0.04376,0.0084 -0.06281,0.01261 -0.06851,0.0105 -0.07612,0.0084 -0.08375,0.0105 -0.08563,0.0021 -0.09896,0.0042 -0.100871,0.0042 -0.108477,0 -0.435788,0 0,1.362897 -0.660378,0 0.660378,-2.996728 0,1.022716 0.367277,0 0.09136,-0.0042 0.08563,0 0.07803,-0.0063 0.07042,-0.0063 0.03045,-0.0021 0.03236,-0.0042 0.02663,-0.0063 0.02476,-0.0021 0.02282,-0.0063 0.02094,-0.0063 0.02094,-0.0063 0.01903,-0.0063 0.02854,-0.01679 0.03236,-0.01471 0.02854,-0.021 0.02663,-0.021 0.02285,-0.02311 0.02472,-0.02518 0.02094,-0.02732 0.02094,-0.02939 0.01712,-0.0315 0.01333,-0.02942 0.01524,-0.03568 0.0076,-0.0336 0.0095,-0.03571 0.0095,-0.03778 0,-0.03782 0.0019,-0.03778 0,-0.02521 -0.0019,-0.0231 0,-0.02521 -0.0038,-0.0231 -0.0057,-0.021 -0.0038,-0.01889 -0.0057,-0.0231 -0.0057,-0.02311 -0.0076,-0.01889 -0.0057,-0.01889 -0.0095,-0.01889 -0.01142,-0.01892 -0.0076,-0.01889 -0.01142,-0.01679 -0.01142,-0.01471 -0.01524,-0.01889 -0.01139,-0.01261 -0.01524,-0.01678 -0.0133,-0.01471 -0.01524,-0.0105 -0.01333,-0.01682 -0.01521,-0.0084 -0.01712,-0.01261 -0.01715,-0.0105 -0.01521,-0.0084 -0.01712,-0.0105 -0.01903,-0.0063 -0.01715,-0.0084 -0.01903,-0.0063 -0.01903,-0.0063 -0.02094,-0.0042 -0.01712,-0.0063 -0.03424,-0.0063 -0.03997,-0.0021 -0.04948,-0.0063 -0.05709,-0.0042 -0.0609,0 -0.07233,-0.0021 -0.07803,0 -0.08563,0 -0.323522,0 -0.660378,2.996728 0,0 -1.27e-4,-2e-5 z"
       id="path154"
       style="fill:#ffffff" />
  </g>
</svg>
