<?xml version="1.0" encoding="UTF-8" standalone="no"?>
<!-- Created with Inkscape (http://www.inkscape.org/) -->

<svg
   xmlns:dc="http://purl.org/dc/elements/1.1/"
   xmlns:cc="http://creativecommons.org/ns#"
   xmlns:rdf="http://www.w3.org/1999/02/22-rdf-syntax-ns#"
   xmlns:svg="http://www.w3.org/2000/svg"
   xmlns="http://www.w3.org/2000/svg"
   version="1.1"
   width="40"
   height="25.000114"
   viewBox="11 7 20.696297 13.758396"
   id="svg2">
  <title
     id="title3763">IP phone</title>
  <metadata
     id="metadata160">
    <rdf:RDF>
      <cc:Work
         rdf:about="">
        <dc:format>image/svg+xml</dc:format>
        <dc:type
           rdf:resource="http://purl.org/dc/dcmitype/StillImage" />
        <dc:title>IP phone</dc:title>
        <dc:creator>
          <cc:Agent>
            <dc:title>Jeremy Grossmann</dc:title>
          </cc:Agent>
        </dc:creator>
        <dc:publisher>
          <cc:Agent>
            <dc:title>GNS-3</dc:title>
          </cc:Agent>
        </dc:publisher>
        <dc:description>Created for the GNS-3 project
(www.gns3.net)</dc:description>
      </cc:Work>
      <cc:Work
         rdf:about="">
        <dc:format>image/svg+xml</dc:format>
        <dc:type
           rdf:resource="http://purl.org/dc/dcmitype/StillImage" />
      </cc:Work>
      <cc:Work
         rdf:about="">
        <dc:format>image/svg+xml</dc:format>
        <dc:type
           rdf:resource="http://purl.org/dc/dcmitype/StillImage" />
      </cc:Work>
    </rdf:RDF>
  </metadata>
  <defs
     id="defs158" />
  <g
     transform="translate(-18.08621,-19.965562)"
     id="g4">
    <path
       d="m 46.042574,40.140708 -0.497708,0.04989 -0.477151,0.04767 -0.452812,0.04988 -0.43595,0.04554 -0.823307,0.08889 -0.761547,0.0824 -0.364865,0.03684 -0.35551,0.03251 -0.348033,0.03256 -0.336801,0.03035 -0.334953,0.02168 -0.33117,0.01951 -0.329323,0.01951 -0.325598,0.01302 -0.333047,0.0065 -0.329323,0.0065 -0.3368,-0.0022 -0.344279,-0.0065 -0.348033,-0.01301 -0.357386,-0.01733 -0.370496,-0.02171 -0.37982,-0.03035 -0.392958,-0.03686 -0.411639,-0.04549 -0.426625,-0.0477 -0.443456,-0.05637 -0.464043,-0.06503 -0.4846,-0.06938 -0.507092,-0.0824 -0.537004,-0.08889 -4.67782,0 0,-2.877018 0.815799,0 0.720404,-0.0043 0.621197,0 0.529527,0 0.452811,0 0.37422,0 0.308737,0 0.248883,0 0.192725,0 0.145952,0 0.106657,0 0.07296,0 0.04302,0 0.02622,0 0.01308,0 0.0056,0.0043 0.537005,0.08454 0.507092,0.0824 0.4846,0.06935 0.464043,0.06507 0.443456,0.05851 0.426625,0.04989 0.411639,0.04335 0.392958,0.0347 0.379821,0.03035 0.370495,0.02168 0.357386,0.01954 0.348033,0.01084 0.344279,0.0065 0.3368,0.0043 0.329322,-0.0065 0.333048,-0.0086 0.325598,-0.01302 0.329323,-0.01516 0.33117,-0.01954 0.334953,-0.026 0.336801,-0.02603 0.348032,-0.0347 0.355511,-0.03469 0.364865,-0.03687 0.761547,-0.07805 0.823308,-0.09321 0.435949,-0.04554 0.452811,-0.04553 0.477152,-0.04988 0.497709,-0.04767 0,2.877018 -10e-7,-7e-6 2.7e-5,-5.3e-5 z"
       id="path3757"
       style="fill:#000000;fill-opacity:0.39256197" />
    <path
       d="m 50.441025,29.648941 0,5.563555 -4.39845,5.000912 0,-2.986572 4.39845,-7.577895 0,0 z"
       id="path3740"
       style="fill:#000000;fill-opacity:0.39215686" />
    <path
       d="m 49.665662,27.95622 0,1.140104 0,0.555115 -1.060497,0 1.060497,-1.695219 0,0 z"
       id="path6"
       style="fill:#8c8c8c;fill-opacity:1" />
    <path
       d="m 48.660854,29.592658 0.08373,0.170091 0.921087,0 0,-0.222587 -0.921087,0 -0.08373,0.0525 0.08373,-0.0525 -0.01143,0 -0.01142,0.0042 -0.01331,0.0021 -0.0076,0.0042 -0.0114,0.0021 -0.0057,0.0063 -0.0095,0.0105 -0.0057,0.0063 -0.0076,0.0063 -0.0038,0.0105 -0.0057,0.0084 -0.002,0.0105 -0.0038,0.01261 -0.002,0.0063 0,0.01261 0,0.0084 0,0.0105 0,0.01261 0.002,0.0084 0.0038,0.0105 0.002,0.0105 0.0057,0.0084 0.0038,0.0105 0.0076,0.0084 0.0057,0.0063 0.0095,0.0063 0.0057,0.0063 0.0114,0.0063 0.0076,0.0042 0.01331,0.0021 0.01142,0 0.01143,0 -0.08373,-0.170091 0,0 0,-4.3e-5 z"
       id="path10"
       style="fill:#add6e7" />
    <path
       d="m 38.829545,27.994679 0,1.65676 -1.187421,0 1.187421,-1.65676 0,0 z"
       id="path14"
       style="fill:#8c8c8c;fill-opacity:1" />
    <path
       d="m 37.664839,29.586339 0.08184,0.17641 1.082864,0 0,-0.222587 -1.082864,0 -0.08184,0.04617 0.08184,-0.04617 -0.01142,0 -0.01143,0.0042 -0.01142,0.0021 -0.0095,0.0042 -0.0114,0.0021 -0.0057,0.0063 -0.0095,0.0105 -0.0057,0.0063 -0.0076,0.0063 -0.0038,0.0105 -0.0057,0.0084 -0.0019,0.0105 -0.0038,0.01261 -0.002,0.0063 0,0.01261 0,0.0084 0,0.0105 0,0.01261 0.002,0.0084 0.0038,0.0105 0.0019,0.0105 0.0057,0.0084 0.0038,0.0105 0.0076,0.0084 0.0057,0.0063 0.0095,0.0063 0.0057,0.0063 0.0114,0.0063 0.0095,0.0042 0.01142,0.0021 0.01143,0 0.01142,0 -0.08184,-0.17641 0,0 0,-4.3e-5 z"
       id="path18"
       style="fill:#add6e7" />
    <path
       d="m 38.829545,27.998746 -4.904261,0 -5.399015,8.612139 0.82973,0 0.732706,-0.0042 0.631804,0 0.538569,0 0.460543,0 0.380609,0 0.314009,0 0.253133,0 0.196017,0 0.148444,0 0.108477,0 0.07421,0 0.04376,0 0.02666,0 0.01331,0 0.0057,0.0042 0.546173,0.08189 0.515752,0.07981 0.492874,0.06717 0.471967,0.06303 0.451029,0.05667 0.433909,0.04831 0.418668,0.042 0.399668,0.0336 0.386306,0.02939 0.376823,0.021 0.363489,0.01892 0.353975,0.0105 0.350157,0.0063 0.342552,0.0042 0.334946,-0.0063 0.338734,-0.0084 0.331158,-0.01261 0.334946,-0.01467 0.336825,-0.01892 0.340673,-0.02517 0.342552,-0.02522 0.353975,-0.03361 0.36158,-0.03361 0.371096,-0.03571 0.774551,-0.0756 0.837366,-0.09028 0.443393,-0.04411 0.460543,-0.0441 0.4853,-0.04831 0.506206,-0.04617 4.004142,-7.070722 -1.400719,0 0.921087,-1.541417 -9.665745,0 -1.05238,1.541417 -1.200855,0 1.082863,-1.541417 0,0 1.6e-5,0 z"
       id="path22"
       style="fill:#c8c8c8;fill-opacity:1" />
    <path
       d="m 38.78576,36.155181 -3.448364,0 1.922108,-2.790934 3.328463,0 -1.802207,2.790934 0,0 z"
       id="path46"
       style="fill:#000000;fill-opacity:1" />
    <path
       d="m 35.266977,36.09426 0.07042,0.159625 3.448364,0 0,-0.197408 -3.448364,0 -0.07042,0.03778 0,0 -0.108477,0.159624 0.178896,0 -0.07042,-0.159624 10e-7,3e-6 z"
       id="path48"
       style="fill:#ffffff;fill-opacity:1" />
    <path
       d="m 37.259504,33.265576 -0.07233,0.03778 -1.920199,2.790901 0.140809,0.117596 1.920228,-2.790901 -0.06851,-0.155379 0,0 -0.04379,0 -0.02854,0.03778 0.07233,-0.03778 0,0 2e-6,3e-6 z"
       id="path50"
       style="fill:#ffffff;fill-opacity:1" />
    <path
       d="m 40.660295,33.418849 -0.07233,-0.153273 -3.328463,0 0,0.195302 3.328463,0 0.07233,-0.04203 0,0 0.09705,-0.153272 -0.169381,0 0.07233,0.153272 0,0 10e-7,1e-6 z"
       id="path52"
       style="fill:#ffffff;fill-opacity:1" />
    <path
       d="m 38.78576,36.253885 0.07233,-0.04203 1.802207,-2.793007 -0.144626,-0.111277 -1.800328,2.790901 0.07042,0.155412 0,0 0.04379,0 0.02854,-0.04203 -0.07233,0.04203 0,0 -3e-6,10e-7 z"
       id="path54"
       style="fill:#ffffff;fill-opacity:1" />
    <path
       d="m 50.046715,29.594552 0,5.191197 -4.00414,4.666213 0,-2.786688 4.00414,-7.070722 0,0 0,0 z"
       id="path56"
       style="fill:#8c8c8c;fill-opacity:1" />
    <path
       d="m 36.250847,29.966443 -0.123688,0.159625 -0.127507,0.159592 -0.129414,0.161698 -0.135112,0.163805 -0.133203,0.170091 -0.133233,0.170091 -0.131294,0.170124 -0.131323,0.174304 -0.131325,0.17427 -0.127506,0.174304 -0.06088,0.09031 -0.06282,0.0861 -0.06091,0.08821 -0.06091,0.0882 -0.06088,0.0861 -0.0533,0.09239 -0.05708,0.0861 -0.05521,0.08821 -0.05517,0.09031 -0.05518,0.0882 -0.0476,0.09028 -0.04945,0.08402 0.04376,0.611083 -1.621431,2.753117 -0.186502,-1.789214 0.03997,-0.1407 0.05708,-0.159592 0.07614,-0.18059 0.09515,-0.199515 0.108477,-0.214193 0.123689,-0.231012 0.13893,-0.245691 0.146535,-0.256222 0.161777,-0.266689 0.173169,-0.277187 0.180806,-0.283507 0.18838,-0.289794 0.192229,-0.294005 0.199835,-0.296113 0.201713,-0.298185 0.20744,-0.296113 0.20553,-0.296112 0.209349,-0.289793 0.20741,-0.285581 0.205531,-0.279326 0.201744,-0.270902 0.196016,-0.260403 0.196017,-0.247796 0.186501,-0.237299 0.178897,-0.220479 0.167473,-0.203728 0.157958,-0.186876 0.150323,-0.165911 0.135113,-0.144913 0.121809,-0.123882 0.106568,-0.0987 0.08754,-0.07139 0.188411,1.78918 -1.406386,1.785002 -0.03997,-0.5733 0,0 1.4e-5,-3e-6 z"
       id="path66"
       style="fill:#8c8c8c;fill-opacity:1" />
    <path
       d="m 29.49111,34.277762 -0.186501,1.789214 3.38558,0 -0.186502,-1.789214 -3.012577,0 0,0 z"
       id="path84"
       style="fill:#b4b4b4;fill-opacity:1" />
    <path
       d="m 37.50879,26.965562 -0.08754,0.07139 -0.106568,0.0987 -0.12181,0.123882 -0.135111,0.144913 -0.150324,0.165911 -0.157957,0.186876 -0.167474,0.203728 -0.178896,0.220479 -0.186503,0.237298 -0.196016,0.247797 -0.196016,0.260403 -0.201744,0.270901 -0.20553,0.279327 -0.207411,0.28558 -0.209349,0.289794 -0.20553,0.296112 -0.20744,0.296113 -0.201714,0.298185 -0.199834,0.296113 -0.192229,0.294005 -0.188381,0.289794 -0.180804,0.283507 -0.173171,0.277187 -0.161777,0.266689 -0.146534,0.256222 -0.13893,0.245691 -0.123688,0.231012 -0.108478,0.214193 -0.09515,0.199515 -0.07614,0.18059 -0.05708,0.159592 -0.03997,0.1407 -3.012576,0 0.04188,-0.1407 0.059,-0.159592 0.07611,-0.18059 0.09136,-0.199515 0.112295,-0.214193 0.121779,-0.231012 0.13893,-0.245691 0.146534,-0.256222 0.163657,-0.266689 0.169381,-0.277187 0.176988,-0.283507 0.190319,-0.289794 0.196017,-0.294005 0.196017,-0.296113 0.205531,-0.298185 0.205531,-0.296113 0.207439,-0.296112 0.205532,-0.289794 0.209319,-0.28558 0.20553,-0.279327 0.201744,-0.270901 0.199834,-0.260403 0.192199,-0.247797 0.184593,-0.237298 0.178897,-0.220479 0.173169,-0.203728 0.157958,-0.186876 0.146536,-0.165911 0.135112,-0.144913 0.121809,-0.123882 0.106568,-0.0987 0.09136,-0.07139 3.008758,0 -1.1e-5,0 z"
       id="path94"
       style="fill:#c8c8c8;fill-opacity:1" />
    <path
       d="m 38.532657,31.545643 1.9868,-2.887498 7.745546,0 -1.781299,2.887498 -7.951047,0 0,0 z"
       id="path104"
       style="fill:#ffffff" />
    <path
       d="m 39.377628,31.010159 1.334057,-1.940412 5.208724,0 -1.197036,1.940412 -5.345745,0 0,0 z"
       id="path114"
       style="fill:#000000" />
    <path
       d="m 37.676262,36.211856 1.802207,-2.793007 -0.140808,-0.111277 -1.804116,2.790901 0.142717,0.113383 0,0 0,0 z"
       id="path124"
       style="fill:#ffffff;fill-opacity:1" />
    <path
       d="m 36.587703,36.211856 1.800328,-2.793007 -0.142748,-0.111277 -1.802206,2.790901 0.144626,0.113383 0,0 z"
       id="path126"
       style="fill:#ffffff;fill-opacity:1" />
    <path
       d="m 40.138847,33.93758 -3.315161,0 0,0.193195 3.315161,0 0,-0.193195 z"
       id="path128"
       style="fill:#ffffff;fill-opacity:1" />
    <path
       d="m 39.697332,34.649474 -3.374156,0 0,0.193196 3.374156,0 0,-0.193196 z"
       id="path130"
       style="fill:#ffffff;fill-opacity:1" />
    <path
       d="m 39.213942,35.405471 -3.425517,0 0,0.193195 3.425517,0 0,-0.193195 z"
       id="path132"
       style="fill:#ffffff;fill-opacity:1" />
    <path
       d="m 46.042573,39.397573 -0.506206,0.04831 -0.485299,0.04617 -0.460544,0.04831 -0.443394,0.0441 -0.837364,0.0861 -0.774551,0.07981 -0.371095,0.03567 -0.361582,0.0315 -0.353975,0.03153 -0.342551,0.02939 -0.340673,0.021 -0.336826,0.01889 -0.334946,0.01889 -0.331158,0.01261 -0.338733,0.0063 -0.334946,0.0063 -0.342552,-0.0021 -0.350157,-0.0063 -0.353975,-0.01261 -0.363489,-0.01678 -0.376822,-0.02103 -0.386306,-0.02939 -0.399669,-0.03571 -0.418668,-0.04407 -0.433908,-0.04621 -0.45103,-0.05461 -0.471967,-0.063 -0.492874,-0.06721 -0.515751,-0.07981 -0.546174,-0.0861 -4.757696,0 0,-2.786688 0.82973,0 0.732706,-0.0042 0.631804,0 0.538568,0 0.460543,0 0.38061,0 0.314008,0 0.253134,0 0.196016,0 0.148445,0 0.108477,0 0.07421,0 0.04376,0 0.02666,0 0.01331,0 0.0057,0.0042 0.546174,0.08189 0.515752,0.07981 0.492874,0.06717 0.471967,0.06303 0.451028,0.05667 0.43391,0.04831 0.418668,0.042 0.399667,0.03361 0.386307,0.02939 0.376822,0.021 0.363489,0.01892 0.353975,0.0105 0.350157,0.0063 0.342552,0.0042 0.334946,-0.0063 0.338734,-0.0084 0.331158,-0.01261 0.334946,-0.01467 0.336825,-0.01892 0.340674,-0.02517 0.342551,-0.02522 0.353975,-0.03361 0.36158,-0.03361 0.371096,-0.03571 0.774551,-0.0756 0.837365,-0.09028 0.443394,-0.04411 0.460543,-0.0441 0.485299,-0.04831 0.506207,-0.04617 0,2.786688 0,-3e-6 1.4e-5,4.3e-5 z"
       id="path134"
       style="fill:#b4b4b4;fill-opacity:1" />
    <path
       d="m 42.000049,36.190858 0,-3.607785 0.662287,0 0,3.607785 -0.662287,0 z"
       id="path148"
       style="fill:#1f1a17" />
    <path
       d="m 43.29417,36.190858 0,-3.607785 1.060016,0 0.144627,0 0.133202,0.0021 0.117992,0.0042 0.102781,0.0063 0.04948,0.0021 0.04376,0.0063 0.03997,0.0042 0.03806,0.0042 0.03427,0.0063 0.03045,0.0063 0.03045,0.0063 0.02282,0.0063 0.03427,0.0084 0.03424,0.01261 0.03427,0.01678 0.03233,0.01261 0.03045,0.01889 0.03236,0.01472 0.02854,0.02311 0.03236,0.01889 0.02854,0.02311 0.02854,0.02521 0.02663,0.02517 0.02854,0.02939 0.02666,0.02731 0.02473,0.02939 0.02284,0.03361 0.02663,0.03361 0.02284,0.03361 0.02094,0.03571 0.01903,0.03778 0.02094,0.03781 0.01712,0.03778 0.01521,0.042 0.01333,0.0441 0.01143,0.042 0.01142,0.04411 0.0095,0.04411 0.0076,0.04831 0.0095,0.04828 0.002,0.05042 0.0057,0.05039 0,0.05039 0.0038,0.0546 -0.0038,0.042 0,0.03992 -0.002,0.03989 -0.0038,0.03778 -0.002,0.03781 -0.0057,0.03781 -0.0057,0.03567 -0.0057,0.03361 -0.0057,0.03571 -0.0095,0.03571 -0.01142,0.0315 -0.0076,0.0315 -0.01142,0.0315 -0.0095,0.02939 -0.01521,0.0315 -0.01143,0.02939 -0.01333,0.02731 -0.01521,0.02522 -0.01334,0.02939 -0.01712,0.02522 -0.01521,0.02308 -0.01715,0.02521 -0.01521,0.021 -0.01903,0.02311 -0.01715,0.021 -0.01713,0.02311 -0.01712,0.01889 -0.02094,0.02311 -0.02094,0.01889 -0.01903,0.01472 -0.02094,0.01678 -0.01903,0.01892 -0.04376,0.02939 -0.03997,0.02728 -0.04379,0.02521 -0.04376,0.02311 -0.04379,0.02311 -0.04188,0.01469 -0.04376,0.01681 -0.04379,0.0084 -0.06088,0.01261 -0.06851,0.01261 -0.07802,0.0105 -0.07993,0.0063 -0.08945,0.0021 -0.09518,0.0063 -0.10466,0.0042 -0.108477,0 -0.430091,0 0,1.360793 -0.662257,0 0.662257,-2.998808 0,1.024824 0.361581,0 0.09327,-0.0042 0.08373,0 0.07802,-0.0021 0.07233,-0.0063 0.02854,-0.0063 0.03236,-0.0042 0.02663,-0.0063 0.02473,-0.0021 0.02284,-0.0063 0.02285,-0.0063 0.02094,-0.0063 0.01712,-0.0063 0.03236,-0.01678 0.02854,-0.01681 0.02854,-0.01889 0.02663,-0.021 0.02473,-0.02311 0.02285,-0.02522 0.02094,-0.02939 0.02094,-0.02522 0.01713,-0.0315 0.01712,-0.0315 0.01142,-0.03571 0.01143,-0.03361 0.0057,-0.03567 0.0095,-0.03361 0.0019,-0.042 0,-0.03781 0,-0.02311 0,-0.02517 -0.0019,-0.02311 -0.0038,-0.021 -0.0057,-0.02521 -0.0038,-0.01889 -0.0057,-0.02311 -0.0057,-0.01889 -0.0076,-0.02311 -0.0057,-0.01889 -0.0095,-0.01892 -0.0076,-0.01889 -0.01142,-0.01472 -0.01143,-0.021 -0.0114,-0.01468 -0.01142,-0.01681 -0.01524,-0.01467 -0.0114,-0.01682 -0.01715,-0.01261 -0.01521,-0.01258 -0.01334,-0.01261 -0.01521,-0.01261 -0.01715,-0.0105 -0.01521,-0.01261 -0.01712,-0.0084 -0.01712,-0.0105 -0.01716,-0.0063 -0.01903,-0.0084 -0.01903,-0.0042 -0.01903,-0.0063 -0.02094,-0.0063 -0.01712,-0.0063 -0.03427,-0.0063 -0.03994,-0.0021 -0.04948,-0.0042 -0.05521,-0.0021 -0.06279,-0.0042 -0.06851,-0.0042 -0.08184,0 -0.08376,0 -0.319704,0 -0.662257,2.998809 0,0 1.1e-4,-6.3e-5 z"
       id="path150"
       style="fill:#1f1a17" />
    <path
       d="m 41.899208,36.079582 0,-3.612031 0.662256,0 0,3.612031 -0.662256,0 z"
       id="path152"
       style="fill:#ffffff" />
    <path
       d="m 43.189481,36.079582 0,-3.612031 1.063834,0 0.144626,0.0042 0.133204,0.0021 0.117991,0.0042 0.10278,0.0063 0.04566,0.0021 0.04757,0.0042 0.03997,0.0063 0.03809,0.0042 0.03424,0.0063 0.03045,0.0021 0.03045,0.0063 0.02282,0.0105 0.03427,0.0084 0.03424,0.01261 0.03236,0.01261 0.03427,0.01678 0.03045,0.01472 0.03233,0.021 0.02854,0.021 0.03236,0.01889 0.02854,0.02311 0.02854,0.02522 0.02666,0.02517 0.02473,0.02942 0.03045,0.02728 0.02473,0.02942 0.02285,0.0315 0.02663,0.03567 0.02285,0.0315 0.02094,0.03781 0.01903,0.03571 0.01712,0.03989 0.01712,0.03778 0.01906,0.04203 0.0114,0.042 0.01333,0.04411 0.01143,0.04411 0.0095,0.04407 0.0076,0.04831 0.0057,0.04831 0.0057,0.05039 0.0057,0.05039 0,0.05042 0.0038,0.0546 -0.0038,0.042 0,0.03778 -0.0019,0.042 -0.0038,0.03781 -0.002,0.03778 -0.0057,0.03571 -0.0057,0.03778 -0.0057,0.0336 -0.0095,0.03571 -0.0076,0.03571 -0.0095,0.0315 -0.0076,0.0315 -0.0114,0.0315 -0.01142,0.02939 -0.01334,0.0315 -0.01334,0.02522 -0.01521,0.02939 -0.01143,0.02731 -0.01712,0.02521 -0.01333,0.02517 -0.01521,0.02731 -0.01712,0.02517 -0.01716,0.021 -0.01712,0.02311 -0.01712,0.02311 -0.01712,0.021 -0.02094,0.01889 -0.01715,0.01892 -0.02091,0.01889 -0.01906,0.01889 -0.02091,0.01681 -0.01903,0.01678 -0.04379,0.0315 -0.04379,0.02731 -0.03994,0.02517 -0.04379,0.02311 -0.04379,0.01892 -0.04185,0.01889 -0.04379,0.01678 -0.04376,0.0084 -0.06282,0.01261 -0.06851,0.0105 -0.07611,0.0084 -0.08375,0.0105 -0.08564,0.0021 -0.09896,0.0042 -0.100871,0.0042 -0.108478,0 -0.435787,0 0,1.3629 -0.660378,0 0.660378,-2.996735 0,1.022719 0.367277,0 0.09136,-0.0042 0.08563,0 0.07802,-0.0063 0.07042,-0.0063 0.03045,-0.0021 0.03236,-0.0042 0.02663,-0.0063 0.02476,-0.0021 0.02282,-0.0063 0.02094,-0.0063 0.02094,-0.0063 0.01903,-0.0063 0.02854,-0.01678 0.03236,-0.01472 0.02854,-0.021 0.02663,-0.021 0.02285,-0.02311 0.02473,-0.02517 0.02094,-0.02731 0.02094,-0.02939 0.01712,-0.0315 0.01333,-0.02942 0.01524,-0.03567 0.0076,-0.03361 0.0095,-0.03571 0.0095,-0.03778 0,-0.03781 0.002,-0.03778 0,-0.02521 -0.002,-0.02311 0,-0.02522 -0.0038,-0.02311 -0.0057,-0.021 -0.0038,-0.01889 -0.0057,-0.02311 -0.0057,-0.02311 -0.0076,-0.01889 -0.0057,-0.01889 -0.0095,-0.01889 -0.01143,-0.01892 -0.0076,-0.01889 -0.01143,-0.01678 -0.01142,-0.01472 -0.01524,-0.01889 -0.0114,-0.01261 -0.01524,-0.01678 -0.01331,-0.01472 -0.01524,-0.0105 -0.01333,-0.01682 -0.01521,-0.0084 -0.01712,-0.01261 -0.01715,-0.0105 -0.01521,-0.0084 -0.01712,-0.0105 -0.01903,-0.0063 -0.01716,-0.0084 -0.01903,-0.0063 -0.01903,-0.0063 -0.02094,-0.0042 -0.01712,-0.0063 -0.03424,-0.0063 -0.03997,-0.0021 -0.04948,-0.0063 -0.05708,-0.0042 -0.06091,0 -0.07233,-0.0021 -0.07802,0 -0.08564,0 -0.323522,0 -0.660377,2.996736 0,0 1.23e-4,7.1e-5 z"
       id="path154"
       style="fill:#ffffff" />
  </g>
</svg>
