<?xml version="1.0" encoding="UTF-8" standalone="no"?>
<svg
   xmlns:ns="http://creativecommons.org/ns#"
   xmlns:dc="http://purl.org/dc/elements/1.1/"
   xmlns:cc="http://web.resource.org/cc/"
   xmlns:rdf="http://www.w3.org/1999/02/22-rdf-syntax-ns#"
   xmlns:svg="http://www.w3.org/2000/svg"
   xmlns="http://www.w3.org/2000/svg"
   xmlns:sodipodi="http://sodipodi.sourceforge.net/DTD/sodipodi-0.dtd"
   xmlns:inkscape="http://www.inkscape.org/namespaces/inkscape"
   width="40"
   height="24.999939"
   viewBox="11 7 20.696297 13.758299"
   id="svg2"
   version="1.1"
   inkscape:version="0.45.1"
   sodipodi:docname="ip_phone.selected.svg"
   sodipodi:version="0.32"
   inkscape:output_extension="org.inkscape.output.svg.inkscape"
   sodipodi:docbase="X:\symbols">
  <title
     id="title3763">IP phone</title>
  <metadata
     id="metadata160">
    <rdf:RDF>
      <ns:Work
         rdf:about="">
        <dc:format>image/svg+xml</dc:format>
        <dc:type
           rdf:resource="http://purl.org/dc/dcmitype/StillImage" />
        <dc:title>IP phone</dc:title>
        <dc:creator>
          <ns:Agent>
            <dc:title>Jeremy Grossmann</dc:title>
          </ns:Agent>
        </dc:creator>
        <dc:publisher>
          <ns:Agent>
            <dc:title>GNS-3</dc:title>
          </ns:Agent>
        </dc:publisher>
        <dc:description>Created for the GNS-3 project
(www.gns3.net)</dc:description>
      </ns:Work>
      <ns:Work
         rdf:about="">
        <dc:format>image/svg+xml</dc:format>
        <dc:type
           rdf:resource="http://purl.org/dc/dcmitype/StillImage" />
      </ns:Work>
      <cc:Work
         rdf:about="">
        <dc:format>image/svg+xml</dc:format>
        <dc:type
           rdf:resource="http://purl.org/dc/dcmitype/StillImage" />
      </cc:Work>
    </rdf:RDF>
  </metadata>
  <defs
     id="defs158">
    <inkscape:perspective
       sodipodi:type="inkscape:persp3d"
       inkscape:vp_x="0 : 70.866142 : 1"
       inkscape:vp_y="0 : 1000 : 0"
       inkscape:vp_z="212.59842 : 70.866142 : 1"
       inkscape:persp3d-origin="106.29921 : 47.244095 : 1"
       id="perspective162" />
  </defs>
  <sodipodi:namedview
     pagecolor="#ffffff"
     bordercolor="#666666"
     borderopacity="1"
     objecttolerance="10"
     gridtolerance="10"
     guidetolerance="10"
     inkscape:pageopacity="0"
     inkscape:pageshadow="2"
     inkscape:window-width="960"
     inkscape:window-height="676"
     id="namedview156"
     showgrid="false"
     inkscape:zoom="3.3302222"
     inkscape:cx="20.527196"
     inkscape:cy="53.043227"
     inkscape:window-x="0"
     inkscape:window-y="0"
     inkscape:window-maximized="0"
     inkscape:current-layer="g4" />
  <g
     id="g4"
     transform="translate(-18.08621,-48.389319)">
    <path
       id="path3757"
       d="M 46.042575,68.564438 L 45.544866,68.614318 L 45.067714,68.661988 L 44.614903,68.711868 L 44.178953,68.757398 L 43.355647,68.846288 L 42.594099,68.928688 L 42.229234,68.965518 L 41.873723,68.998038 L 41.525691,69.030588 L 41.18889,69.060928 L 40.853937,69.082608 L 40.522767,69.102108 L 40.193444,69.121608 L 39.867846,69.134618 L 39.534799,69.141118 L 39.205476,69.147618 L 38.868675,69.145418 L 38.524397,69.138918 L 38.176365,69.125908 L 37.818978,69.108578 L 37.448483,69.086868 L 37.068662,69.056528 L 36.675703,69.019658 L 36.264065,68.974158 L 35.837441,68.926448 L 35.393984,68.870078 L 34.929941,68.805038 L 34.445341,68.735658 L 33.938248,68.653258 L 33.401244,68.564368 L 28.723424,68.564368 L 28.723424,65.687356 L 29.539224,65.687356 L 30.259628,65.682956 L 30.880825,65.682956 L 31.410352,65.682956 L 31.863163,65.682956 L 32.237383,65.682956 L 32.54612,65.682956 L 32.795003,65.682956 L 32.987729,65.682956 L 33.133681,65.682956 L 33.240337,65.682956 L 33.313297,65.682956 L 33.356317,65.682956 L 33.382537,65.682956 L 33.395617,65.682956 L 33.401217,65.687356 L 33.938221,65.771896 L 34.445314,65.854296 L 34.929914,65.923646 L 35.393957,65.988716 L 35.837413,66.047226 L 36.264037,66.097106 L 36.675676,66.140466 L 37.068635,66.175156 L 37.448455,66.205496 L 37.818951,66.227176 L 38.176337,66.246716 L 38.524369,66.257556 L 38.868648,66.264056 L 39.205449,66.268456 L 39.534771,66.261956 L 39.867818,66.253256 L 40.193417,66.240246 L 40.52274,66.225096 L 40.85391,66.205556 L 41.188863,66.179566 L 41.525664,66.153536 L 41.873696,66.118846 L 42.229206,66.084156 L 42.594071,66.047286 L 43.355619,65.969236 L 44.178926,65.876036 L 44.614875,65.830506 L 45.067687,65.784976 L 45.544839,65.735096 L 46.042548,65.687426 L 46.042548,68.564438 L 46.042547,68.564432 L 46.042575,68.564438 z "
       style="fill:#000000;fill-opacity:0.39256197" />
    <path
       id="path3740"
       d="M 50.441025,58.072692 L 50.441025,63.636234 L 46.042575,68.637137 L 46.042575,65.650571 L 50.441025,58.072692 L 50.441025,58.072692 z "
       style="fill:#000000;fill-opacity:0.39215686" />
    <path
       style="fill:#646464;fill-opacity:1"
       d="M 49.665662,56.379975 L 49.665662,57.520076 L 49.665662,58.07519 L 48.605165,58.07519 L 49.665662,56.379975 L 49.665662,56.379975 L 49.665662,56.379975 z "
       id="path6"
       sodipodi:nodetypes="ccccc" />
    <path
       style="fill:#add6e7"
       d="M 48.660854,58.016409 L 48.744574,58.1865 L 49.665661,58.1865 L 49.665661,57.963914 L 48.744574,57.963914 L 48.660854,58.016414 L 48.744574,57.963914 L 48.733154,57.963914 L 48.721734,57.968114 L 48.708434,57.970214 L 48.700834,57.974414 L 48.689444,57.976514 L 48.683744,57.982814 L 48.674244,57.993314 L 48.668544,57.999614 L 48.660944,58.005914 L 48.657144,58.016414 L 48.651444,58.024814 L 48.649544,58.035314 L 48.645744,58.047924 L 48.643844,58.054224 L 48.643844,58.066834 L 48.643844,58.075234 L 48.643844,58.085734 L 48.643844,58.098344 L 48.645744,58.106744 L 48.649544,58.117244 L 48.651444,58.127744 L 48.657144,58.136144 L 48.660944,58.146644 L 48.668544,58.155044 L 48.674244,58.161344 L 48.683744,58.167644 L 48.689444,58.173944 L 48.700834,58.180244 L 48.708434,58.184444 L 48.721734,58.186544 L 48.733154,58.186544 L 48.744574,58.186544 L 48.660854,58.016453 L 48.660854,58.016453 L 48.660854,58.016409 z "
       id="path10" />
    <path
       style="fill:#646464;fill-opacity:1"
       d="M 38.829545,56.418434 L 38.829545,58.07519 L 37.642125,58.07519 L 38.829545,56.418434 L 38.829545,56.418434 z "
       id="path14" />
    <path
       style="fill:#add6e7"
       d="M 37.664839,58.01009 L 37.746679,58.1865 L 38.829542,58.1865 L 38.829542,57.963914 L 37.746679,57.963914 L 37.664839,58.010094 L 37.746679,57.963914 L 37.735259,57.963914 L 37.723839,57.968114 L 37.712419,57.970214 L 37.702919,57.974414 L 37.691529,57.976514 L 37.685829,57.982814 L 37.676329,57.993314 L 37.670629,57.999614 L 37.663029,58.005914 L 37.659229,58.016414 L 37.653529,58.024814 L 37.651629,58.035314 L 37.647829,58.047924 L 37.645929,58.054224 L 37.645929,58.066834 L 37.645929,58.075234 L 37.645929,58.085734 L 37.645929,58.098344 L 37.647829,58.106744 L 37.651629,58.117244 L 37.653529,58.127744 L 37.659229,58.136144 L 37.663029,58.146644 L 37.670629,58.155044 L 37.676329,58.161344 L 37.685829,58.167644 L 37.691529,58.173944 L 37.702919,58.180244 L 37.712419,58.184444 L 37.723839,58.186544 L 37.735259,58.186544 L 37.746679,58.186544 L 37.664839,58.010134 L 37.664839,58.010134 L 37.664839,58.01009 z "
       id="path18" />
    <path
       style="fill:#8c8c8c;fill-opacity:1"
       d="M 38.829545,56.422501 L 33.925284,56.422501 L 28.526269,65.034621 L 29.355999,65.034621 L 30.088705,65.030421 L 30.720509,65.030421 L 31.259077,65.030421 L 31.719621,65.030421 L 32.100231,65.030421 L 32.414239,65.030421 L 32.667372,65.030421 L 32.863389,65.030421 L 33.011833,65.030421 L 33.12031,65.030421 L 33.19452,65.030421 L 33.23828,65.030421 L 33.26494,65.030421 L 33.27824,65.030421 L 33.28394,65.034621 L 33.830114,65.116511 L 34.345865,65.196321 L 34.83874,65.263491 L 35.310707,65.326521 L 35.761736,65.383191 L 36.195645,65.431511 L 36.614312,65.473511 L 37.013981,65.507111 L 37.400287,65.536501 L 37.777109,65.557501 L 38.140599,65.576421 L 38.494574,65.586921 L 38.844731,65.593221 L 39.187283,65.597421 L 39.522229,65.591121 L 39.860963,65.582721 L 40.192121,65.570111 L 40.527067,65.555431 L 40.863892,65.536511 L 41.204565,65.511331 L 41.547117,65.486121 L 41.901092,65.452521 L 42.262672,65.418921 L 42.633768,65.383211 L 43.408319,65.307611 L 44.245684,65.217331 L 44.689078,65.173231 L 45.149621,65.129131 L 45.63492,65.080811 L 46.141127,65.034631 L 50.145269,57.963924 L 48.74455,57.963924 L 49.665637,56.422511 L 39.999892,56.422511 L 38.947512,57.963924 L 37.746657,57.963924 L 38.82952,56.422511 L 38.82952,56.422511 L 38.829545,56.422501 z "
       id="path22" />
    <path
       style="fill:#000000;fill-opacity:1"
       d="M 38.78576,64.578918 L 35.337396,64.578918 L 37.259504,61.787991 L 40.587967,61.787991 L 38.78576,64.578918 L 38.78576,64.578918 z "
       id="path46" />
    <path
       style="fill:#ffffff;fill-opacity:1"
       d="M 35.266977,64.517998 L 35.337397,64.677622 L 38.785761,64.677622 L 38.785761,64.480214 L 35.337397,64.480214 L 35.266977,64.517994 L 35.266977,64.517994 L 35.1585,64.677618 L 35.337396,64.677618 L 35.266976,64.517994 L 35.266977,64.517998 z "
       id="path48" />
    <path
       style="fill:#ffffff;fill-opacity:1"
       d="M 37.259504,61.68932 L 37.187174,61.7271 L 35.266975,64.517995 L 35.407784,64.63559 L 37.328012,61.844696 L 37.259502,61.689317 L 37.259502,61.689317 L 37.215722,61.689317 L 37.187182,61.727097 L 37.259512,61.689317 L 37.259512,61.689317 L 37.259504,61.68932 z "
       id="path50" />
    <path
       style="fill:#ffffff;fill-opacity:1"
       d="M 40.660295,61.842592 L 40.587965,61.68932 L 37.259502,61.68932 L 37.259502,61.884621 L 40.587965,61.884621 L 40.660295,61.842591 L 40.660295,61.842591 L 40.757345,61.689319 L 40.587963,61.689319 L 40.660293,61.842591 L 40.660293,61.842591 L 40.660295,61.842592 z "
       id="path52" />
    <path
       style="fill:#ffffff;fill-opacity:1"
       d="M 38.78576,64.677622 L 38.85809,64.635592 L 40.660297,61.842591 L 40.515671,61.731315 L 38.715343,64.522209 L 38.785763,64.677621 L 38.785763,64.677621 L 38.829543,64.677621 L 38.858083,64.635591 L 38.785753,64.677621 L 38.785753,64.677621 L 38.78576,64.677622 z "
       id="path54" />
    <path
       style="fill:#646464;fill-opacity:1"
       d="M 50.046716,58.018303 L 50.046716,63.209489 L 46.042576,67.875692 L 46.042576,65.08901 L 50.046716,58.018303 L 50.046716,58.018303 z "
       id="path56" />
    <path
       style="fill:#646464;fill-opacity:1"
       d="M 36.250848,58.390194 L 36.127159,58.549818 L 35.999653,58.70941 L 35.870238,58.871108 L 35.735126,59.034912 L 35.601923,59.205003 L 35.468691,59.375093 L 35.337396,59.545217 L 35.206073,59.71952 L 35.074749,59.893791 L 34.947242,60.068094 L 34.886372,60.158404 L 34.823562,60.244504 L 34.762662,60.332714 L 34.701762,60.420924 L 34.640882,60.507024 L 34.587582,60.599414 L 34.530492,60.685514 L 34.475282,60.773714 L 34.420102,60.864024 L 34.364922,60.952224 L 34.317322,61.042504 L 34.267872,61.126524 L 34.311622,61.737606 L 32.690191,64.490717 L 32.503689,62.701508 L 32.543659,62.560808 L 32.600749,62.401216 L 32.676899,62.220626 L 32.772049,62.021112 L 32.880526,61.806919 L 33.004214,61.575908 L 33.143144,61.330218 L 33.289679,61.073996 L 33.451455,60.807308 L 33.624625,60.530121 L 33.80543,60.246614 L 33.993811,59.956822 L 34.18604,59.662817 L 34.385874,59.366705 L 34.587588,59.06852 L 34.795027,58.772408 L 35.000558,58.476296 L 35.209907,58.186504 L 35.417317,57.900924 L 35.622848,57.621598 L 35.824591,57.350697 L 36.020608,57.090295 L 36.216625,56.842498 L 36.403127,56.605201 L 36.582023,56.384722 L 36.749496,56.180995 L 36.907455,55.994119 L 37.057778,55.828208 L 37.192889,55.683295 L 37.314699,55.559414 L 37.421267,55.460714 L 37.508807,55.389324 L 37.697217,57.178501 L 36.290832,58.963498 L 36.250862,58.390199 L 36.250862,58.390199 L 36.250848,58.390194 z "
       id="path66" />
    <path
       style="fill:#787878;fill-opacity:1"
       d="M 29.491111,62.701504 L 29.304609,64.490713 L 32.690189,64.490713 L 32.503687,62.701504 L 29.491111,62.701504 L 29.491111,62.701504 z "
       id="path84" />
    <path
       style="fill:#8c8c8c;fill-opacity:1"
       d="M 37.50879,55.389319 L 37.42125,55.460709 L 37.314682,55.559409 L 37.192873,55.68329 L 37.057761,55.828203 L 36.907438,55.994114 L 36.749479,56.18099 L 36.582006,56.384717 L 36.40311,56.605196 L 36.216608,56.842493 L 36.020591,57.09029 L 35.824575,57.350692 L 35.622832,57.621593 L 35.417301,57.900919 L 35.209891,58.186499 L 35.000542,58.476291 L 34.795011,58.772403 L 34.587571,59.068515 L 34.385858,59.3667 L 34.186023,59.662812 L 33.993795,59.956817 L 33.805414,60.246609 L 33.624608,60.530116 L 33.451439,60.807303 L 33.289662,61.073991 L 33.143127,61.330213 L 33.004198,61.575903 L 32.880509,61.806914 L 32.772032,62.021107 L 32.676882,62.220621 L 32.600732,62.401211 L 32.543642,62.560803 L 32.503672,62.701503 L 29.491096,62.701503 L 29.532976,62.560803 L 29.591976,62.401211 L 29.668096,62.220621 L 29.759456,62.021107 L 29.871751,61.806914 L 29.99353,61.575903 L 30.13246,61.330213 L 30.278995,61.073991 L 30.44265,60.807303 L 30.612032,60.530116 L 30.78902,60.246609 L 30.97934,59.956817 L 31.175356,59.662812 L 31.371373,59.3667 L 31.576904,59.068515 L 31.782435,58.772403 L 31.989875,58.476291 L 32.195406,58.186499 L 32.404725,57.900919 L 32.610256,57.621593 L 32.811999,57.350692 L 33.011833,57.09029 L 33.204032,56.842493 L 33.388625,56.605196 L 33.567521,56.384717 L 33.740691,56.18099 L 33.89865,55.994114 L 34.045185,55.828203 L 34.180297,55.68329 L 34.302106,55.559409 L 34.408674,55.460709 L 34.500034,55.389319 L 37.508792,55.389319 L 37.50879,55.389319 z "
       id="path94" />
    <path
       style="fill:#ffffff"
       d="M 38.532657,59.96939 L 40.519457,57.081898 L 48.265003,57.081898 L 46.483704,59.96939 L 38.532657,59.96939 L 38.532657,59.96939 z "
       id="path104" />
    <path
       style="fill:#000000"
       d="M 39.377628,59.433908 L 40.711685,57.493499 L 45.92041,57.493499 L 44.723373,59.433908 L 39.377628,59.433908 z "
       id="path114" />
    <path
       style="fill:#ffffff;fill-opacity:1"
       d="M 37.676263,64.635593 L 39.478469,61.842592 L 39.337661,61.731316 L 37.533545,64.52221 L 37.676263,64.635593 L 37.676263,64.635593 z "
       id="path124" />
    <path
       style="fill:#ffffff;fill-opacity:1"
       d="M 36.587703,64.635593 L 38.38803,61.842592 L 38.245283,61.731316 L 36.443076,64.52221 L 36.587703,64.635593 z "
       id="path126" />
    <path
       style="fill:#ffffff;fill-opacity:1"
       d="M 40.138847,62.361322 L 36.823686,62.361322 L 36.823686,62.554517 L 40.138847,62.554517 L 40.138847,62.361322 z "
       id="path128" />
    <path
       style="fill:#ffffff;fill-opacity:1"
       d="M 39.697333,63.073215 L 36.323176,63.073215 L 36.323176,63.26641 L 39.697333,63.26641 L 39.697333,63.073215 z "
       id="path130" />
    <path
       style="fill:#ffffff;fill-opacity:1"
       d="M 39.213942,63.82921 L 35.788425,63.82921 L 35.788425,64.022405 L 39.213942,64.022405 L 39.213942,63.82921 z "
       id="path132" />
    <path
       style="fill:#787878;fill-opacity:1"
       d="M 46.042574,67.821304 L 45.536367,67.869624 L 45.051068,67.915804 L 44.590525,67.964124 L 44.147131,68.008224 L 43.309766,68.094324 L 42.535214,68.174134 L 42.164119,68.209804 L 41.802539,68.241304 L 41.448563,68.272834 L 41.106012,68.302224 L 40.765339,68.323224 L 40.428514,68.342114 L 40.093568,68.361004 L 39.76241,68.373614 L 39.423676,68.379914 L 39.08873,68.386214 L 38.746178,68.384114 L 38.396021,68.377814 L 38.042045,68.365214 L 37.678557,68.348424 L 37.301735,68.327394 L 36.915429,68.298004 L 36.51576,68.262294 L 36.097092,68.218224 L 35.663184,68.172014 L 35.212155,68.117414 L 34.740188,68.054424 L 34.247313,67.987214 L 33.731562,67.907404 L 33.185388,67.821304 L 28.427692,67.821304 L 28.427692,65.034622 L 29.257422,65.034622 L 29.990127,65.030422 L 30.621932,65.030422 L 31.1605,65.030422 L 31.621043,65.030422 L 32.001653,65.030422 L 32.315661,65.030422 L 32.568795,65.030422 L 32.764811,65.030422 L 32.913255,65.030422 L 33.021733,65.030422 L 33.095943,65.030422 L 33.139693,65.030422 L 33.166363,65.030422 L 33.179663,65.030422 L 33.185363,65.034622 L 33.731537,65.116512 L 34.247288,65.196322 L 34.740163,65.263492 L 35.21213,65.326522 L 35.663159,65.383192 L 36.097067,65.431512 L 36.515735,65.473512 L 36.915404,65.507112 L 37.30171,65.536502 L 37.678532,65.557502 L 38.04202,65.576422 L 38.395996,65.586922 L 38.746153,65.593222 L 39.088705,65.597422 L 39.423651,65.591122 L 39.762385,65.582722 L 40.093543,65.570122 L 40.428489,65.555442 L 40.765314,65.536512 L 41.105987,65.511332 L 41.448538,65.486122 L 41.802514,65.452522 L 42.164094,65.418922 L 42.535189,65.383212 L 43.309741,65.307612 L 44.147106,65.217332 L 44.5905,65.173232 L 45.051043,65.129132 L 45.536342,65.080812 L 46.042549,65.034632 L 46.042549,67.821314 L 46.042549,67.821311 L 46.042574,67.821304 z "
       id="path134" />
    <path
       style="fill:#1f1a17"
       d="M 42.00005,64.614595 L 42.00005,61.006818 L 42.662336,61.006818 L 42.662336,64.614595 L 42.00005,64.614595 z "
       id="path148" />
    <path
       style="fill:#1f1a17"
       d="M 43.29417,64.614595 L 43.29417,61.006818 L 44.354187,61.006818 L 44.498813,61.006818 L 44.632016,61.008918 L 44.750008,61.013118 L 44.852788,61.019418 L 44.902268,61.021518 L 44.946028,61.027818 L 44.985998,61.032018 L 45.024058,61.036218 L 45.058328,61.042518 L 45.088778,61.048818 L 45.119228,61.055118 L 45.142048,61.061418 L 45.176318,61.069818 L 45.210558,61.082428 L 45.244828,61.099218 L 45.277158,61.111828 L 45.307608,61.130718 L 45.339968,61.145428 L 45.368508,61.168528 L 45.400868,61.187418 L 45.429408,61.210518 L 45.457948,61.235728 L 45.484578,61.260908 L 45.513118,61.290298 L 45.539778,61.317618 L 45.564508,61.347008 L 45.587358,61.380608 L 45.613988,61.414208 L 45.636838,61.447808 L 45.657778,61.483518 L 45.676808,61.521298 L 45.697748,61.559118 L 45.714868,61.596898 L 45.730078,61.638898 L 45.743408,61.682998 L 45.754828,61.724998 L 45.766248,61.769098 L 45.775748,61.813198 L 45.783348,61.861518 L 45.792848,61.909798 L 45.794748,61.960218 L 45.800448,62.010608 L 45.800448,62.060998 L 45.804248,62.115598 L 45.800448,62.157598 L 45.800448,62.197518 L 45.798548,62.237408 L 45.794748,62.275188 L 45.792848,62.313008 L 45.787148,62.350828 L 45.781448,62.386508 L 45.775748,62.420108 L 45.770048,62.455818 L 45.760548,62.491528 L 45.749128,62.523028 L 45.741528,62.554528 L 45.730108,62.586028 L 45.720608,62.615418 L 45.705398,62.646918 L 45.693978,62.676308 L 45.680648,62.703628 L 45.665438,62.728838 L 45.652108,62.758228 L 45.634988,62.783438 L 45.619778,62.806508 L 45.602628,62.831718 L 45.587418,62.852718 L 45.568388,62.875818 L 45.551238,62.896818 L 45.534118,62.919918 L 45.516998,62.938808 L 45.496058,62.961918 L 45.475118,62.980808 L 45.456088,62.995518 L 45.435148,63.012298 L 45.416118,63.031228 L 45.372358,63.060618 L 45.332388,63.087898 L 45.288608,63.113108 L 45.244858,63.136218 L 45.201078,63.159318 L 45.159198,63.173998 L 45.115448,63.190818 L 45.071668,63.199218 L 45.010798,63.211828 L 44.942288,63.224438 L 44.864258,63.234938 L 44.784328,63.241238 L 44.694878,63.243338 L 44.599698,63.249638 L 44.495038,63.253838 L 44.386561,63.253838 L 43.95647,63.253838 L 43.95647,64.614629 L 43.294213,64.614629 L 43.95647,61.615828 L 43.95647,62.64065 L 44.318051,62.64065 L 44.411321,62.63645 L 44.495041,62.63645 L 44.573061,62.63435 L 44.645391,62.62805 L 44.673931,62.62175 L 44.706291,62.61755 L 44.732931,62.61125 L 44.757651,62.60915 L 44.780501,62.60285 L 44.803351,62.59655 L 44.824291,62.59025 L 44.841411,62.58395 L 44.873771,62.56717 L 44.902311,62.55035 L 44.930851,62.53146 L 44.957481,62.51046 L 44.982211,62.48736 L 45.005061,62.46215 L 45.026001,62.43276 L 45.046941,62.40755 L 45.064061,62.37605 L 45.081181,62.34455 L 45.092601,62.30884 L 45.104021,62.27524 L 45.109721,62.23956 L 45.119221,62.20596 L 45.121121,62.16396 L 45.121121,62.12614 L 45.121121,62.10304 L 45.121121,62.07786 L 45.119221,62.05476 L 45.115421,62.03376 L 45.109721,62.00855 L 45.105921,61.98966 L 45.100221,61.96656 L 45.094521,61.94767 L 45.086921,61.92457 L 45.081221,61.90568 L 45.071721,61.88676 L 45.064121,61.86787 L 45.052701,61.85316 L 45.041281,61.83216 L 45.029891,61.81748 L 45.018471,61.80066 L 45.003231,61.78598 L 44.991841,61.76916 L 44.974691,61.75656 L 44.959481,61.74399 L 44.946151,61.73138 L 44.930941,61.71877 L 44.913791,61.70827 L 44.898581,61.69566 L 44.881461,61.68726 L 44.864341,61.67676 L 44.847191,61.67046 L 44.828161,61.66206 L 44.809131,61.65786 L 44.790101,61.65156 L 44.769161,61.64526 L 44.752041,61.63896 L 44.717771,61.63266 L 44.677831,61.63056 L 44.628351,61.62636 L 44.573141,61.62426 L 44.510361,61.62006 L 44.441851,61.61586 L 44.360011,61.61586 L 44.276261,61.61586 L 43.956556,61.61586 L 43.294299,64.614661 L 43.294299,64.614661 L 43.29417,64.614595 z "
       id="path150" />
    <path
       style="fill:#ffffff"
       d="M 41.899208,64.503319 L 41.899208,60.891296 L 42.561465,60.891296 L 42.561465,64.503319 L 41.899208,64.503319 z "
       id="path152" />
    <path
       style="fill:#ffffff"
       d="M 43.189481,64.503319 L 43.189481,60.891296 L 44.253315,60.891296 L 44.397941,60.895496 L 44.531144,60.897596 L 44.649136,60.901796 L 44.751917,60.908096 L 44.797577,60.910196 L 44.845147,60.914396 L 44.885117,60.920696 L 44.923207,60.924896 L 44.957447,60.931196 L 44.987897,60.933296 L 45.018347,60.939596 L 45.041167,60.950096 L 45.075437,60.958496 L 45.109677,60.971106 L 45.142037,60.983716 L 45.176307,61.000496 L 45.206757,61.015206 L 45.239087,61.036206 L 45.267627,61.057206 L 45.299987,61.076096 L 45.328527,61.099206 L 45.357067,61.124416 L 45.383727,61.149596 L 45.408457,61.179016 L 45.438907,61.206296 L 45.463637,61.235716 L 45.486487,61.267216 L 45.513127,61.302896 L 45.535977,61.334396 L 45.556917,61.372216 L 45.575947,61.407926 L 45.593067,61.447816 L 45.610187,61.485596 L 45.629247,61.527626 L 45.640637,61.569626 L 45.653967,61.613726 L 45.665387,61.657826 L 45.674887,61.701896 L 45.682487,61.750216 L 45.688187,61.798536 L 45.693887,61.848926 L 45.699587,61.899316 L 45.699587,61.949736 L 45.703387,62.004336 L 45.699587,62.046336 L 45.699587,62.084116 L 45.697687,62.126116 L 45.693887,62.163936 L 45.691987,62.201716 L 45.686287,62.237426 L 45.680587,62.275206 L 45.674887,62.308806 L 45.665387,62.344516 L 45.657787,62.380226 L 45.648287,62.411726 L 45.640687,62.443226 L 45.629297,62.474726 L 45.617877,62.504116 L 45.604547,62.535616 L 45.591217,62.560826 L 45.576007,62.590216 L 45.564587,62.617536 L 45.547467,62.642746 L 45.534137,62.667926 L 45.518927,62.695246 L 45.501807,62.720426 L 45.484657,62.741426 L 45.467537,62.764536 L 45.450417,62.787636 L 45.433297,62.808636 L 45.412357,62.827526 L 45.395207,62.846446 L 45.374297,62.865336 L 45.355237,62.884226 L 45.334327,62.901046 L 45.315297,62.917826 L 45.271517,62.949326 L 45.227737,62.976646 L 45.187797,63.001826 L 45.144017,63.024936 L 45.100237,63.043856 L 45.058387,63.062746 L 45.014607,63.079526 L 44.970847,63.087926 L 44.908037,63.100536 L 44.839527,63.111036 L 44.763407,63.119436 L 44.679657,63.129936 L 44.594027,63.132036 L 44.495067,63.136236 L 44.394196,63.140436 L 44.285719,63.140436 L 43.849931,63.140436 L 43.849931,64.503333 L 43.189553,64.503333 L 43.849931,61.506605 L 43.849931,62.529321 L 44.217208,62.529321 L 44.308568,62.525121 L 44.394198,62.525121 L 44.472228,62.518821 L 44.542648,62.512521 L 44.573098,62.510421 L 44.605458,62.506221 L 44.632088,62.499921 L 44.656848,62.497821 L 44.679668,62.491521 L 44.700608,62.485221 L 44.721548,62.478921 L 44.740578,62.472621 L 44.769118,62.455831 L 44.801478,62.441121 L 44.830018,62.420121 L 44.856648,62.399121 L 44.879498,62.376011 L 44.904218,62.350831 L 44.925158,62.323511 L 44.946098,62.294121 L 44.963218,62.262621 L 44.976548,62.233201 L 44.991788,62.197521 L 44.999388,62.163921 L 45.008888,62.128211 L 45.018388,62.090431 L 45.018388,62.052611 L 45.020288,62.014831 L 45.020288,61.989621 L 45.018388,61.966521 L 45.018388,61.941311 L 45.014588,61.918211 L 45.008888,61.897211 L 45.005088,61.878321 L 44.999388,61.855221 L 44.993688,61.832111 L 44.986088,61.813221 L 44.980388,61.794331 L 44.970888,61.775441 L 44.959468,61.756521 L 44.951868,61.737631 L 44.940448,61.720841 L 44.929028,61.706131 L 44.913788,61.687241 L 44.902398,61.674631 L 44.887158,61.657851 L 44.873858,61.643141 L 44.858618,61.632641 L 44.845288,61.615821 L 44.830078,61.607421 L 44.812958,61.594811 L 44.795808,61.584311 L 44.780598,61.575911 L 44.763478,61.565411 L 44.744448,61.559111 L 44.727298,61.550711 L 44.708268,61.544411 L 44.689238,61.538111 L 44.668298,61.533911 L 44.651178,61.527611 L 44.616938,61.521311 L 44.576968,61.519211 L 44.527488,61.512911 L 44.470398,61.508711 L 44.409498,61.508711 L 44.337168,61.506611 L 44.259138,61.506611 L 44.173508,61.506611 L 43.849986,61.506611 L 43.189608,64.503339 L 43.189608,64.503339 L 43.189481,64.503319 z "
       id="path154" />
  </g>
</svg>
