<?xml version="1.0" encoding="UTF-8" standalone="no"?>
<svg
   xmlns:ns="http://creativecommons.org/ns#"
   xmlns:dc="http://purl.org/dc/elements/1.1/"
   xmlns:cc="http://web.resource.org/cc/"
   xmlns:rdf="http://www.w3.org/1999/02/22-rdf-syntax-ns#"
   xmlns:svg="http://www.w3.org/2000/svg"
   xmlns="http://www.w3.org/2000/svg"
   xmlns:sodipodi="http://sodipodi.sourceforge.net/DTD/sodipodi-0.dtd"
   xmlns:inkscape="http://www.inkscape.org/namespaces/inkscape"
   width="40"
   height="25.000114"
   viewBox="11 7 20.696297 13.758396"
   id="svg2"
   version="1.1"
   inkscape:version="0.45.1"
   sodipodi:docname="ip_phone.normal.svg"
   sodipodi:version="0.32"
   inkscape:output_extension="org.inkscape.output.svg.inkscape"
   sodipodi:docbase="X:\symbols">
  <title
     id="title3763">IP phone</title>
  <metadata
     id="metadata160">
    <rdf:RDF>
      <ns:Work
         rdf:about="">
        <dc:format>image/svg+xml</dc:format>
        <dc:type
           rdf:resource="http://purl.org/dc/dcmitype/StillImage" />
        <dc:title>IP phone</dc:title>
        <dc:creator>
          <ns:Agent>
            <dc:title>Jeremy Grossmann</dc:title>
          </ns:Agent>
        </dc:creator>
        <dc:publisher>
          <ns:Agent>
            <dc:title>GNS-3</dc:title>
          </ns:Agent>
        </dc:publisher>
        <dc:description>Created for the GNS-3 project
(www.gns3.net)</dc:description>
      </ns:Work>
      <ns:Work
         rdf:about="">
        <dc:format>image/svg+xml</dc:format>
        <dc:type
           rdf:resource="http://purl.org/dc/dcmitype/StillImage" />
      </ns:Work>
      <cc:Work
         rdf:about="">
        <dc:format>image/svg+xml</dc:format>
        <dc:type
           rdf:resource="http://purl.org/dc/dcmitype/StillImage" />
      </cc:Work>
    </rdf:RDF>
  </metadata>
  <defs
     id="defs158">
    <inkscape:perspective
       sodipodi:type="inkscape:persp3d"
       inkscape:vp_x="0 : 70.866142 : 1"
       inkscape:vp_y="0 : 1000 : 0"
       inkscape:vp_z="212.59842 : 70.866142 : 1"
       inkscape:persp3d-origin="106.29921 : 47.244095 : 1"
       id="perspective162" />
  </defs>
  <sodipodi:namedview
     pagecolor="#ffffff"
     bordercolor="#666666"
     borderopacity="1"
     objecttolerance="10"
     gridtolerance="10"
     guidetolerance="10"
     inkscape:pageopacity="0"
     inkscape:pageshadow="2"
     inkscape:window-width="960"
     inkscape:window-height="676"
     id="namedview156"
     showgrid="false"
     inkscape:zoom="3.3302222"
     inkscape:cx="61.062497"
     inkscape:cy="-1.1348471"
     inkscape:window-x="0"
     inkscape:window-y="0"
     inkscape:window-maximized="0"
     inkscape:current-layer="g4" />
  <g
     id="g4"
     transform="translate(-18.08621,-19.965562)">
    <path
       id="path3757"
       d="M 46.042574,40.140708 L 45.544866,40.190598 L 45.067715,40.238268 L 44.614903,40.288148 L 44.178953,40.333688 L 43.355646,40.422578 L 42.594099,40.504978 L 42.229234,40.541818 L 41.873724,40.574328 L 41.525691,40.606888 L 41.18889,40.637238 L 40.853937,40.658918 L 40.522767,40.678428 L 40.193444,40.697938 L 39.867846,40.710958 L 39.534799,40.717458 L 39.205476,40.723958 L 38.868676,40.721758 L 38.524397,40.715258 L 38.176364,40.702248 L 37.818978,40.684918 L 37.448482,40.663208 L 37.068662,40.632858 L 36.675704,40.595998 L 36.264065,40.550508 L 35.83744,40.502808 L 35.393984,40.446438 L 34.929941,40.381408 L 34.445341,40.312028 L 33.938249,40.229628 L 33.401245,40.140738 L 28.723425,40.140738 L 28.723425,37.26372 L 29.539224,37.26372 L 30.259628,37.25942 L 30.880825,37.25942 L 31.410352,37.25942 L 31.863163,37.25942 L 32.237383,37.25942 L 32.54612,37.25942 L 32.795003,37.25942 L 32.987728,37.25942 L 33.13368,37.25942 L 33.240337,37.25942 L 33.313297,37.25942 L 33.356317,37.25942 L 33.382537,37.25942 L 33.395617,37.25942 L 33.401217,37.26372 L 33.938222,37.34826 L 34.445314,37.43066 L 34.929914,37.50001 L 35.393957,37.56508 L 35.837413,37.62359 L 36.264038,37.67348 L 36.675677,37.71683 L 37.068635,37.75153 L 37.448456,37.78188 L 37.818951,37.80356 L 38.176337,37.8231 L 38.52437,37.83394 L 38.868649,37.84044 L 39.205449,37.84474 L 39.534771,37.83824 L 39.867819,37.82964 L 40.193417,37.81662 L 40.52274,37.80146 L 40.85391,37.78192 L 41.188863,37.75592 L 41.525664,37.72989 L 41.873696,37.69519 L 42.229207,37.6605 L 42.594072,37.62363 L 43.355619,37.54558 L 44.178927,37.45237 L 44.614876,37.40683 L 45.067687,37.3613 L 45.544839,37.31142 L 46.042548,37.26375 L 46.042548,40.140768 L 46.042547,40.140761 L 46.042574,40.140708 z "
       style="fill:#000000;fill-opacity:0.39256197" />
    <path
       id="path3740"
       d="M 50.441025,29.648941 L 50.441025,35.212496 L 46.042575,40.213408 L 46.042575,37.226836 L 50.441025,29.648941 L 50.441025,29.648941 z "
       style="fill:#000000;fill-opacity:0.39215686" />
    <path
       style="fill:#8c8c8c;fill-opacity:1"
       d="M 49.665662,27.95622 L 49.665662,29.096324 L 49.665662,29.651439 L 48.605165,29.651439 L 49.665662,27.95622 L 49.665662,27.95622 z "
       id="path6"
       sodipodi:nodetypes="ccccc" />
    <path
       style="fill:#add6e7"
       d="M 48.660854,29.592658 L 48.744584,29.762749 L 49.665671,29.762749 L 49.665671,29.540162 L 48.744584,29.540162 L 48.660854,29.592662 L 48.744584,29.540162 L 48.733154,29.540162 L 48.721734,29.544362 L 48.708424,29.546462 L 48.700824,29.550662 L 48.689424,29.552762 L 48.683724,29.559062 L 48.674224,29.569562 L 48.668524,29.575862 L 48.660924,29.582162 L 48.657124,29.592662 L 48.651424,29.601062 L 48.649424,29.611562 L 48.645624,29.624172 L 48.643624,29.630472 L 48.643624,29.643082 L 48.643624,29.651482 L 48.643624,29.661982 L 48.643624,29.674592 L 48.645624,29.682992 L 48.649424,29.693492 L 48.651424,29.703992 L 48.657124,29.712392 L 48.660924,29.722892 L 48.668524,29.731292 L 48.674224,29.737592 L 48.683724,29.743892 L 48.689424,29.750192 L 48.700824,29.756492 L 48.708424,29.760692 L 48.721734,29.762792 L 48.733154,29.762792 L 48.744584,29.762792 L 48.660854,29.592701 L 48.660854,29.592701 L 48.660854,29.592658 z "
       id="path10" />
    <path
       style="fill:#8c8c8c;fill-opacity:1"
       d="M 38.829545,27.994679 L 38.829545,29.651439 L 37.642124,29.651439 L 38.829545,27.994679 L 38.829545,27.994679 z "
       id="path14" />
    <path
       style="fill:#add6e7"
       d="M 37.664839,29.586339 L 37.746679,29.762749 L 38.829543,29.762749 L 38.829543,29.540162 L 37.746679,29.540162 L 37.664839,29.586332 L 37.746679,29.540162 L 37.735259,29.540162 L 37.723829,29.544362 L 37.712409,29.546462 L 37.702909,29.550662 L 37.691509,29.552762 L 37.685809,29.559062 L 37.676309,29.569562 L 37.670609,29.575862 L 37.663009,29.582162 L 37.659209,29.592662 L 37.653509,29.601062 L 37.651609,29.611562 L 37.647809,29.624172 L 37.645809,29.630472 L 37.645809,29.643082 L 37.645809,29.651482 L 37.645809,29.661982 L 37.645809,29.674592 L 37.647809,29.682992 L 37.651609,29.693492 L 37.653509,29.703992 L 37.659209,29.712392 L 37.663009,29.722892 L 37.670609,29.731292 L 37.676309,29.737592 L 37.685809,29.743892 L 37.691509,29.750192 L 37.702909,29.756492 L 37.712409,29.760692 L 37.723829,29.762792 L 37.735259,29.762792 L 37.746679,29.762792 L 37.664839,29.586382 L 37.664839,29.586382 L 37.664839,29.586339 z "
       id="path18" />
    <path
       style="fill:#c8c8c8;fill-opacity:1"
       d="M 38.829545,27.998746 L 33.925284,27.998746 L 28.526269,36.610885 L 29.355999,36.610885 L 30.088705,36.606685 L 30.720509,36.606685 L 31.259078,36.606685 L 31.719621,36.606685 L 32.10023,36.606685 L 32.414239,36.606685 L 32.667372,36.606685 L 32.863389,36.606685 L 33.011833,36.606685 L 33.12031,36.606685 L 33.19452,36.606685 L 33.23828,36.606685 L 33.26494,36.606685 L 33.27825,36.606685 L 33.28395,36.610885 L 33.830123,36.692775 L 34.345875,36.772585 L 34.838749,36.839755 L 35.310716,36.902785 L 35.761745,36.959455 L 36.195654,37.007765 L 36.614322,37.049765 L 37.01399,37.083365 L 37.400296,37.112755 L 37.777119,37.133755 L 38.140608,37.152675 L 38.494583,37.163175 L 38.84474,37.169475 L 39.187292,37.173675 L 39.522238,37.167375 L 39.860972,37.158975 L 40.19213,37.146365 L 40.527076,37.131695 L 40.863901,37.112775 L 41.204574,37.087605 L 41.547126,37.062385 L 41.901101,37.028775 L 42.262681,36.995165 L 42.633777,36.959455 L 43.408328,36.883855 L 44.245694,36.793575 L 44.689087,36.749465 L 45.14963,36.705365 L 45.63493,36.657055 L 46.141136,36.610885 L 50.145278,29.540163 L 48.744559,29.540163 L 49.665646,27.998746 L 39.999901,27.998746 L 38.947521,29.540163 L 37.746666,29.540163 L 38.829529,27.998746 L 38.829529,27.998746 L 38.829545,27.998746 z "
       id="path22" />
    <path
       style="fill:#000000;fill-opacity:1"
       d="M 38.78576,36.155181 L 35.337396,36.155181 L 37.259504,33.364247 L 40.587967,33.364247 L 38.78576,36.155181 L 38.78576,36.155181 z "
       id="path46" />
    <path
       style="fill:#ffffff;fill-opacity:1"
       d="M 35.266977,36.09426 L 35.337397,36.253885 L 38.785761,36.253885 L 38.785761,36.056477 L 35.337397,36.056477 L 35.266977,36.094257 L 35.266977,36.094257 L 35.1585,36.253881 L 35.337396,36.253881 L 35.266976,36.094257 L 35.266977,36.09426 z "
       id="path48" />
    <path
       style="fill:#ffffff;fill-opacity:1"
       d="M 37.259504,33.265576 L 37.187174,33.303356 L 35.266975,36.094257 L 35.407784,36.211853 L 37.328012,33.420952 L 37.259502,33.265573 L 37.259502,33.265573 L 37.215712,33.265573 L 37.187172,33.303353 L 37.259502,33.265573 L 37.259502,33.265573 L 37.259504,33.265576 z "
       id="path50" />
    <path
       style="fill:#ffffff;fill-opacity:1"
       d="M 40.660295,33.418849 L 40.587965,33.265576 L 37.259502,33.265576 L 37.259502,33.460878 L 40.587965,33.460878 L 40.660295,33.418848 L 40.660295,33.418848 L 40.757345,33.265576 L 40.587964,33.265576 L 40.660294,33.418848 L 40.660294,33.418848 L 40.660295,33.418849 z "
       id="path52" />
    <path
       style="fill:#ffffff;fill-opacity:1"
       d="M 38.78576,36.253885 L 38.85809,36.211855 L 40.660297,33.418848 L 40.515671,33.307571 L 38.715343,36.098472 L 38.785763,36.253884 L 38.785763,36.253884 L 38.829553,36.253884 L 38.858093,36.211854 L 38.785763,36.253884 L 38.785763,36.253884 L 38.78576,36.253885 z "
       id="path54" />
    <path
       style="fill:#8c8c8c;fill-opacity:1"
       d="M 50.046715,29.594552 L 50.046715,34.785749 L 46.042575,39.451962 L 46.042575,36.665274 L 50.046715,29.594552 L 50.046715,29.594552 L 50.046715,29.594552 z "
       id="path56" />
    <path
       style="fill:#8c8c8c;fill-opacity:1"
       d="M 36.250847,29.966443 L 36.127159,30.126068 L 35.999652,30.28566 L 35.870238,30.447358 L 35.735126,30.611163 L 35.601923,30.781254 L 35.46869,30.951345 L 35.337396,31.121469 L 35.206073,31.295773 L 35.074748,31.470043 L 34.947242,31.644347 L 34.886362,31.734657 L 34.823542,31.820757 L 34.762632,31.908967 L 34.701722,31.997167 L 34.640842,32.083267 L 34.587542,32.175657 L 34.530462,32.261757 L 34.475252,32.349967 L 34.420082,32.440277 L 34.364902,32.528477 L 34.317302,32.618757 L 34.267852,32.702777 L 34.311612,33.31386 L 32.690181,36.066977 L 32.503679,34.277763 L 32.543649,34.137063 L 32.600729,33.977471 L 32.676869,33.796881 L 32.772019,33.597366 L 32.880496,33.383173 L 33.004185,33.152161 L 33.143115,32.90647 L 33.28965,32.650248 L 33.451427,32.383559 L 33.624596,32.106372 L 33.805402,31.822865 L 33.993782,31.533071 L 34.186011,31.239066 L 34.385846,30.942953 L 34.587559,30.644768 L 34.794999,30.348655 L 35.000529,30.052543 L 35.209878,29.76275 L 35.417288,29.477169 L 35.622819,29.197843 L 35.824563,28.926941 L 36.020579,28.666538 L 36.216596,28.418742 L 36.403097,28.181443 L 36.581994,27.960964 L 36.749467,27.757236 L 36.907425,27.57036 L 37.057748,27.404449 L 37.192861,27.259536 L 37.31467,27.135654 L 37.421238,27.036954 L 37.508778,26.965564 L 37.697189,28.754744 L 36.290803,30.539746 L 36.250833,29.966446 L 36.250833,29.966446 L 36.250847,29.966443 z "
       id="path66" />
    <path
       style="fill:#b4b4b4;fill-opacity:1"
       d="M 29.49111,34.277762 L 29.304609,36.066976 L 32.690189,36.066976 L 32.503687,34.277762 L 29.49111,34.277762 L 29.49111,34.277762 z "
       id="path84" />
    <path
       style="fill:#c8c8c8;fill-opacity:1"
       d="M 37.50879,26.965562 L 37.42125,27.036952 L 37.314682,27.135652 L 37.192872,27.259534 L 37.057761,27.404447 L 36.907437,27.570358 L 36.74948,27.757234 L 36.582006,27.960962 L 36.40311,28.181441 L 36.216607,28.418739 L 36.020591,28.666536 L 35.824575,28.926939 L 35.622831,29.19784 L 35.417301,29.477167 L 35.20989,29.762747 L 35.000541,30.052541 L 34.795011,30.348653 L 34.587571,30.644766 L 34.385857,30.942951 L 34.186023,31.239064 L 33.993794,31.533069 L 33.805413,31.822863 L 33.624609,32.10637 L 33.451438,32.383557 L 33.289661,32.650246 L 33.143127,32.906468 L 33.004197,33.152159 L 32.880509,33.383171 L 32.772031,33.597364 L 32.676881,33.796879 L 32.600741,33.977469 L 32.543661,34.137061 L 32.503691,34.277761 L 29.491115,34.277761 L 29.532995,34.137061 L 29.591995,33.977469 L 29.668105,33.796879 L 29.759465,33.597364 L 29.87176,33.383171 L 29.993539,33.152159 L 30.132469,32.906468 L 30.279003,32.650246 L 30.44266,32.383557 L 30.612041,32.10637 L 30.789029,31.822863 L 30.979348,31.533069 L 31.175365,31.239064 L 31.371382,30.942951 L 31.576913,30.644766 L 31.782444,30.348653 L 31.989883,30.052541 L 32.195415,29.762747 L 32.404734,29.477167 L 32.610264,29.19784 L 32.812008,28.926939 L 33.011842,28.666536 L 33.204041,28.418739 L 33.388634,28.181441 L 33.567531,27.960962 L 33.7407,27.757234 L 33.898658,27.570358 L 34.045194,27.404447 L 34.180306,27.259534 L 34.302115,27.135652 L 34.408683,27.036952 L 34.500043,26.965562 L 37.508801,26.965562 L 37.50879,26.965562 z "
       id="path94" />
    <path
       style="fill:#ffffff"
       d="M 38.532657,31.545643 L 40.519457,28.658145 L 48.265003,28.658145 L 46.483704,31.545643 L 38.532657,31.545643 L 38.532657,31.545643 z "
       id="path104" />
    <path
       style="fill:#000000"
       d="M 39.377628,31.010159 L 40.711685,29.069747 L 45.920409,29.069747 L 44.723373,31.010159 L 39.377628,31.010159 L 39.377628,31.010159 z "
       id="path114" />
    <path
       style="fill:#ffffff;fill-opacity:1"
       d="M 37.676262,36.211856 L 39.478469,33.418849 L 39.337661,33.307572 L 37.533545,36.098473 L 37.676262,36.211856 L 37.676262,36.211856 L 37.676262,36.211856 z "
       id="path124" />
    <path
       style="fill:#ffffff;fill-opacity:1"
       d="M 36.587703,36.211856 L 38.388031,33.418849 L 38.245283,33.307572 L 36.443077,36.098473 L 36.587703,36.211856 L 36.587703,36.211856 z "
       id="path126" />
    <path
       style="fill:#ffffff;fill-opacity:1"
       d="M 40.138847,33.93758 L 36.823686,33.93758 L 36.823686,34.130775 L 40.138847,34.130775 L 40.138847,33.93758 z "
       id="path128" />
    <path
       style="fill:#ffffff;fill-opacity:1"
       d="M 39.697332,34.649474 L 36.323176,34.649474 L 36.323176,34.84267 L 39.697332,34.84267 L 39.697332,34.649474 z "
       id="path130" />
    <path
       style="fill:#ffffff;fill-opacity:1"
       d="M 39.213942,35.405471 L 35.788425,35.405471 L 35.788425,35.598666 L 39.213942,35.598666 L 39.213942,35.405471 z "
       id="path132" />
    <path
       style="fill:#b4b4b4;fill-opacity:1"
       d="M 46.042573,39.397573 L 45.536367,39.445883 L 45.051068,39.492053 L 44.590524,39.540363 L 44.14713,39.584463 L 43.309766,39.670563 L 42.535215,39.750373 L 42.16412,39.786043 L 41.802538,39.817543 L 41.448563,39.849073 L 41.106012,39.878463 L 40.765339,39.899463 L 40.428513,39.918353 L 40.093567,39.937243 L 39.762409,39.949853 L 39.423676,39.956153 L 39.08873,39.962453 L 38.746178,39.960353 L 38.396021,39.954053 L 38.042046,39.941443 L 37.678557,39.924663 L 37.301735,39.903633 L 36.915429,39.874243 L 36.51576,39.838533 L 36.097092,39.794463 L 35.663184,39.748253 L 35.212154,39.693643 L 34.740187,39.630643 L 34.247313,39.563433 L 33.731562,39.483623 L 33.185388,39.397523 L 28.427692,39.397523 L 28.427692,36.610835 L 29.257422,36.610835 L 29.990128,36.606635 L 30.621932,36.606635 L 31.1605,36.606635 L 31.621043,36.606635 L 32.001653,36.606635 L 32.315661,36.606635 L 32.568795,36.606635 L 32.764811,36.606635 L 32.913256,36.606635 L 33.021733,36.606635 L 33.095943,36.606635 L 33.139703,36.606635 L 33.166363,36.606635 L 33.179673,36.606635 L 33.185373,36.610835 L 33.731547,36.692725 L 34.247299,36.772535 L 34.740173,36.839705 L 35.21214,36.902735 L 35.663168,36.959405 L 36.097078,37.007715 L 36.515746,37.049715 L 36.915413,37.083325 L 37.30172,37.112715 L 37.678542,37.133715 L 38.042031,37.152635 L 38.396006,37.163135 L 38.746163,37.169435 L 39.088715,37.173635 L 39.423661,37.167335 L 39.762395,37.158935 L 40.093553,37.146325 L 40.428499,37.131655 L 40.765324,37.112735 L 41.105998,37.087565 L 41.448549,37.062345 L 41.802524,37.028735 L 42.164104,36.995125 L 42.5352,36.959415 L 43.309751,36.883815 L 44.147116,36.793535 L 44.59051,36.749425 L 45.051053,36.705325 L 45.536352,36.657015 L 46.042559,36.610845 L 46.042559,39.397533 L 46.042559,39.39753 L 46.042573,39.397573 z "
       id="path134" />
    <path
       style="fill:#1f1a17"
       d="M 42.000049,36.190858 L 42.000049,32.583073 L 42.662336,32.583073 L 42.662336,36.190858 L 42.000049,36.190858 z "
       id="path148" />
    <path
       style="fill:#1f1a17"
       d="M 43.29417,36.190858 L 43.29417,32.583073 L 44.354186,32.583073 L 44.498813,32.583073 L 44.632015,32.585173 L 44.750007,32.589373 L 44.852788,32.595673 L 44.902268,32.597773 L 44.946028,32.604073 L 44.985998,32.608273 L 45.024058,32.612473 L 45.058328,32.618773 L 45.088778,32.625073 L 45.119228,32.631373 L 45.142048,32.637673 L 45.176318,32.646073 L 45.210558,32.658683 L 45.244828,32.675463 L 45.277158,32.688073 L 45.307608,32.706963 L 45.339968,32.721683 L 45.368508,32.744793 L 45.400868,32.763683 L 45.429408,32.786793 L 45.457948,32.812003 L 45.484578,32.837173 L 45.513118,32.866563 L 45.539778,32.893873 L 45.564508,32.923263 L 45.587348,32.956873 L 45.613978,32.990483 L 45.636818,33.024093 L 45.657758,33.059803 L 45.676788,33.097583 L 45.697728,33.135393 L 45.714848,33.173173 L 45.730058,33.215173 L 45.743388,33.259273 L 45.754818,33.301273 L 45.766238,33.345383 L 45.775738,33.389493 L 45.783338,33.437803 L 45.792838,33.486083 L 45.794838,33.536503 L 45.800538,33.586893 L 45.800538,33.637283 L 45.804338,33.691883 L 45.800538,33.733883 L 45.800538,33.773803 L 45.798538,33.813693 L 45.794738,33.851473 L 45.792738,33.889283 L 45.787038,33.927093 L 45.781338,33.962763 L 45.775638,33.996373 L 45.769938,34.032083 L 45.760438,34.067793 L 45.749018,34.099293 L 45.741418,34.130793 L 45.729998,34.162293 L 45.720498,34.191683 L 45.705288,34.223183 L 45.693858,34.252573 L 45.680528,34.279883 L 45.665318,34.305103 L 45.651978,34.334493 L 45.634858,34.359713 L 45.619648,34.382793 L 45.602498,34.408003 L 45.587288,34.429003 L 45.568258,34.452113 L 45.551108,34.473113 L 45.533978,34.496223 L 45.516858,34.515113 L 45.495918,34.538223 L 45.474978,34.557113 L 45.455948,34.571833 L 45.435008,34.588613 L 45.415978,34.607533 L 45.372218,34.636923 L 45.332248,34.664203 L 45.288458,34.689413 L 45.244698,34.712523 L 45.200908,34.735633 L 45.159028,34.750323 L 45.115268,34.767133 L 45.071478,34.775533 L 45.010598,34.788143 L 44.942088,34.800753 L 44.864068,34.811253 L 44.784138,34.817553 L 44.694688,34.819653 L 44.599508,34.825953 L 44.494848,34.830153 L 44.386371,34.830153 L 43.95628,34.830153 L 43.95628,36.190946 L 43.294023,36.190946 L 43.95628,33.192138 L 43.95628,34.216962 L 44.317861,34.216962 L 44.411131,34.212762 L 44.494861,34.212762 L 44.572881,34.210662 L 44.645211,34.204362 L 44.673751,34.198062 L 44.706111,34.193862 L 44.732741,34.187562 L 44.757471,34.185462 L 44.780311,34.179162 L 44.803161,34.172862 L 44.824101,34.166562 L 44.841221,34.160262 L 44.873581,34.143482 L 44.902121,34.126672 L 44.930661,34.107782 L 44.957291,34.086782 L 44.982021,34.063672 L 45.004871,34.038452 L 45.025811,34.009062 L 45.046751,33.983842 L 45.063881,33.952342 L 45.081001,33.920842 L 45.092421,33.885132 L 45.103851,33.851522 L 45.109551,33.815852 L 45.119051,33.782242 L 45.120951,33.740242 L 45.120951,33.702432 L 45.120951,33.679322 L 45.120951,33.654152 L 45.119051,33.631042 L 45.115251,33.610042 L 45.109551,33.584832 L 45.105751,33.565942 L 45.100051,33.542832 L 45.094351,33.523942 L 45.086751,33.500832 L 45.081051,33.481942 L 45.071551,33.463022 L 45.063951,33.444132 L 45.052531,33.429412 L 45.041101,33.408412 L 45.029701,33.393732 L 45.018281,33.376922 L 45.003041,33.362252 L 44.991641,33.345432 L 44.974491,33.332822 L 44.959281,33.320242 L 44.945941,33.307632 L 44.930731,33.295022 L 44.913581,33.284522 L 44.898371,33.271912 L 44.881251,33.263512 L 44.864131,33.253012 L 44.846971,33.246712 L 44.827941,33.238312 L 44.808911,33.234112 L 44.789881,33.227812 L 44.768941,33.221512 L 44.751821,33.215212 L 44.717551,33.208912 L 44.677611,33.206812 L 44.628131,33.202612 L 44.572921,33.200512 L 44.510131,33.196312 L 44.441621,33.192112 L 44.359781,33.192112 L 44.276021,33.192112 L 43.956317,33.192112 L 43.29406,36.190921 L 43.29406,36.190921 L 43.29417,36.190858 z "
       id="path150" />
    <path
       style="fill:#ffffff"
       d="M 41.899208,36.079582 L 41.899208,32.467551 L 42.561464,32.467551 L 42.561464,36.079582 L 41.899208,36.079582 z "
       id="path152" />
    <path
       style="fill:#ffffff"
       d="M 43.189481,36.079582 L 43.189481,32.467551 L 44.253315,32.467551 L 44.397941,32.471751 L 44.531145,32.473851 L 44.649136,32.478051 L 44.751916,32.484351 L 44.797576,32.486451 L 44.845146,32.490651 L 44.885116,32.496951 L 44.923206,32.501151 L 44.957446,32.507451 L 44.987896,32.509551 L 45.018346,32.515851 L 45.041166,32.526351 L 45.075436,32.534751 L 45.109676,32.547361 L 45.142036,32.559971 L 45.176306,32.576751 L 45.206756,32.591471 L 45.239086,32.612471 L 45.267626,32.633471 L 45.299986,32.652361 L 45.328526,32.675471 L 45.357066,32.700691 L 45.383726,32.725861 L 45.408456,32.755281 L 45.438906,32.782561 L 45.463636,32.811981 L 45.486486,32.843481 L 45.513116,32.879151 L 45.535966,32.910651 L 45.556906,32.948461 L 45.575936,32.984171 L 45.593056,33.024061 L 45.610176,33.061841 L 45.629236,33.103871 L 45.640636,33.145871 L 45.653966,33.189981 L 45.665396,33.234091 L 45.674896,33.278161 L 45.682496,33.326471 L 45.688196,33.374781 L 45.693896,33.425171 L 45.699596,33.475561 L 45.699596,33.525981 L 45.703396,33.580581 L 45.699596,33.622581 L 45.699596,33.660361 L 45.697696,33.702361 L 45.693896,33.740171 L 45.691896,33.777951 L 45.686196,33.813661 L 45.680496,33.851441 L 45.674796,33.885041 L 45.665296,33.920751 L 45.657696,33.956461 L 45.648196,33.987961 L 45.640596,34.019461 L 45.629196,34.050961 L 45.617776,34.080351 L 45.604436,34.111851 L 45.591096,34.137071 L 45.575886,34.166461 L 45.564456,34.193771 L 45.547336,34.218981 L 45.534006,34.244151 L 45.518796,34.271461 L 45.501676,34.296631 L 45.484516,34.317631 L 45.467396,34.340741 L 45.450276,34.363851 L 45.433156,34.384851 L 45.412216,34.403741 L 45.395066,34.422661 L 45.374156,34.441551 L 45.355096,34.460441 L 45.334186,34.477251 L 45.315156,34.494031 L 45.271366,34.525531 L 45.227576,34.552841 L 45.187636,34.578011 L 45.143846,34.601121 L 45.100056,34.620041 L 45.058206,34.638931 L 45.014416,34.655711 L 44.970656,34.664111 L 44.907836,34.676721 L 44.839326,34.687221 L 44.763216,34.695621 L 44.679466,34.706121 L 44.593826,34.708221 L 44.494866,34.712421 L 44.393995,34.716621 L 44.285517,34.716621 L 43.84973,34.716621 L 43.84973,36.079521 L 43.189352,36.079521 L 43.84973,33.082786 L 43.84973,34.105505 L 44.217007,34.105505 L 44.308367,34.101305 L 44.393997,34.101305 L 44.472017,34.095005 L 44.542437,34.088705 L 44.572887,34.086605 L 44.605247,34.082405 L 44.631877,34.076105 L 44.656637,34.074005 L 44.679457,34.067705 L 44.700397,34.061405 L 44.721337,34.055105 L 44.740367,34.048805 L 44.768907,34.032025 L 44.801267,34.017305 L 44.829807,33.996305 L 44.856437,33.975305 L 44.879287,33.952195 L 44.904017,33.927025 L 44.924957,33.899715 L 44.945897,33.870325 L 44.963017,33.838825 L 44.976347,33.809405 L 44.991587,33.773735 L 44.999187,33.740125 L 45.008687,33.704415 L 45.018187,33.666635 L 45.018187,33.628825 L 45.020187,33.591045 L 45.020187,33.565835 L 45.018187,33.542725 L 45.018187,33.517505 L 45.014387,33.494395 L 45.008687,33.473395 L 45.004887,33.454505 L 44.999187,33.431395 L 44.993487,33.408285 L 44.985887,33.389395 L 44.980187,33.370505 L 44.970687,33.351615 L 44.959257,33.332695 L 44.951657,33.313805 L 44.940227,33.297025 L 44.928807,33.282305 L 44.913567,33.263415 L 44.902167,33.250805 L 44.886927,33.234025 L 44.873617,33.219305 L 44.858377,33.208805 L 44.845047,33.191985 L 44.829837,33.183585 L 44.812717,33.170975 L 44.795567,33.160475 L 44.780357,33.152075 L 44.763237,33.141575 L 44.744207,33.135275 L 44.727047,33.126875 L 44.708017,33.120575 L 44.688987,33.114275 L 44.668047,33.110075 L 44.650927,33.103775 L 44.616687,33.097475 L 44.576717,33.095375 L 44.527237,33.089075 L 44.470157,33.084875 L 44.409247,33.084875 L 44.336917,33.082775 L 44.258897,33.082775 L 44.173257,33.082775 L 43.849735,33.082775 L 43.189358,36.079511 L 43.189358,36.079511 L 43.189481,36.079582 z "
       id="path154" />
  </g>
</svg>
