<?xml version="1.0" encoding="UTF-8" standalone="no"?>
<!-- Created with Inkscape (http://www.inkscape.org/) -->
<svg
   xmlns:dc="http://purl.org/dc/elements/1.1/"
   xmlns:cc="http://web.resource.org/cc/"
   xmlns:rdf="http://www.w3.org/1999/02/22-rdf-syntax-ns#"
   xmlns:svg="http://www.w3.org/2000/svg"
   xmlns="http://www.w3.org/2000/svg"
   xmlns:sodipodi="http://sodipodi.sourceforge.net/DTD/sodipodi-0.dtd"
   xmlns:inkscape="http://www.inkscape.org/namespaces/inkscape"
   id="svg1998"
   sodipodi:version="0.32"
   inkscape:version="0.45.1"
   width="65.937935"
   height="55.615818"
   version="1.0"
   sodipodi:docbase="/home/grossmj/workspace/gns3-artwork/symbols"
   sodipodi:docname="label_switch_router.selected.svg"
   inkscape:output_extension="org.inkscape.output.svg.inkscape">
  <metadata
     id="metadata2003">
    <rdf:RDF>
      <cc:Work
         rdf:about="">
        <dc:format>image/svg+xml</dc:format>
        <dc:type
           rdf:resource="http://purl.org/dc/dcmitype/StillImage" />
        <dc:title>Router</dc:title>
        <dc:creator>
          <cc:Agent>
            <dc:title>Jeremy Grossmann</dc:title>
          </cc:Agent>
        </dc:creator>
        <dc:publisher>
          <cc:Agent>
            <dc:title>GNS-3</dc:title>
          </cc:Agent>
        </dc:publisher>
        <dc:description>Created for the GNS-3 project (www.gns3.net)</dc:description>
        <cc:license
           rdf:resource="http://creativecommons.org/licenses/GPL/2.0/" />
      </cc:Work>
      <cc:License
         rdf:about="http://creativecommons.org/licenses/GPL/2.0/">
        <cc:permits
           rdf:resource="http://web.resource.org/cc/Reproduction" />
        <cc:permits
           rdf:resource="http://web.resource.org/cc/Distribution" />
        <cc:requires
           rdf:resource="http://web.resource.org/cc/Notice" />
        <cc:permits
           rdf:resource="http://web.resource.org/cc/DerivativeWorks" />
        <cc:requires
           rdf:resource="http://web.resource.org/cc/ShareAlike" />
        <cc:requires
           rdf:resource="http://web.resource.org/cc/SourceCode" />
      </cc:License>
    </rdf:RDF>
  </metadata>
  <defs
     id="defs2001">
    <linearGradient
       id="linearGradient9312">
      <stop
         style="stop-color:#3c8c8c;stop-opacity:1;"
         offset="0"
         id="stop9314" />
      <stop
         style="stop-color:#ffffff;stop-opacity:0.94117647;"
         offset="1"
         id="stop9316" />
    </linearGradient>
    <marker
       inkscape:stockid="Arrow2Lstart"
       orient="auto"
       refY="0"
       refX="0"
       id="Arrow2Lstart"
       style="overflow:visible">
      <path
         id="path11918"
         style="font-size:12px;fill-rule:evenodd;stroke-width:0.625;stroke-linejoin:round"
         d="M 8.7185878,4.0337352 L -2.2072895,0.016013256 L 8.7185884,-4.0017078 C 6.97309,-1.6296469 6.9831476,1.6157441 8.7185878,4.0337352 z "
         transform="matrix(1.1,0,0,1.1,1.1,0)" />
    </marker>
    <marker
       inkscape:stockid="Arrow1Send"
       orient="auto"
       refY="0"
       refX="0"
       id="Arrow1Send"
       style="overflow:visible">
      <path
         id="path11921"
         d="M 0,0 L 5,-5 L -12.5,0 L 5,5 L 0,0 z "
         style="fill-rule:evenodd;stroke:#000000;stroke-width:1pt;marker-start:none"
         transform="matrix(-0.2,0,0,-0.2,-1.2,0)" />
    </marker>
    <marker
       inkscape:stockid="Arrow1Lstart"
       orient="auto"
       refY="0"
       refX="0"
       id="Arrow1Lstart"
       style="overflow:visible">
      <path
         id="path11936"
         d="M 0,0 L 5,-5 L -12.5,0 L 5,5 L 0,0 z "
         style="fill-rule:evenodd;stroke:#000000;stroke-width:1pt;marker-start:none"
         transform="matrix(0.8,0,0,0.8,10,0)" />
    </marker>
  </defs>
  <sodipodi:namedview
     inkscape:window-height="979"
     inkscape:window-width="1400"
     inkscape:pageshadow="2"
     inkscape:pageopacity="0.0"
     guidetolerance="10.0"
     gridtolerance="10.0"
     objecttolerance="10.0"
     borderopacity="1.0"
     bordercolor="#666666"
     pagecolor="#ffffff"
     id="base"
     showguides="true"
     inkscape:guide-bbox="true"
     inkscape:zoom="7.8958336"
     inkscape:cx="22.434518"
     inkscape:cy="32.976937"
     inkscape:window-x="124"
     inkscape:window-y="71"
     inkscape:current-layer="svg1998" />
  <rect
     style="opacity:1;fill:#000000;fill-opacity:0.39215686;fill-rule:evenodd;stroke:none;stroke-width:0.2;stroke-linecap:square;stroke-linejoin:miter;stroke-miterlimit:4;stroke-dasharray:none;stroke-opacity:1"
     id="rect4558"
     width="64.552505"
     height="54.743603"
     x="1.3854325"
     y="0.87221658"
     ry="15.329386"
     rx="32.212925"
     inkscape:transform-center-x="8.4568136" />
  <rect
     style="opacity:1;fill:#194b4b;fill-opacity:1;fill-rule:evenodd;stroke:none;stroke-width:0.015;stroke-linecap:square;stroke-linejoin:miter;stroke-miterlimit:4;stroke-dasharray:none;stroke-opacity:1"
     id="rect9971"
     width="64.499474"
     height="52.321022"
     x="0"
     y="0.61581755"
     ry="11.865912"
     rx="32.249737"
     inkscape:transform-center-x="8.2952569" />
  <g
     id="g4160"
     transform="matrix(1.0000067,0,0,0.995335,-7.7865845e-2,0.2576119)"
     style="stroke:none;stroke-opacity:1">
    <path
       id="path4819"
       d="M 33.023738,8.6936939 L 37.664889,10.327433 L 48.909313,5.4458969 L 53.946665,7.0599533 L 51.229891,3.0248142 L 38.061087,3.0248142 L 43.475766,4.225514 L 33.023738,8.6936939"
       style="fill:#000000;stroke:none;stroke-width:0.001;stroke-opacity:1" />
    <path
       id="path4821"
       d="M 31.08049,13.161874 L 26.439334,11.528132 L 15.591104,16.429352 L 10.176425,14.775929 L 12.874332,19.244109 L 26.439334,19.244109 L 20.628458,17.630052 L 31.08049,13.161874"
       style="fill:#000000;stroke:none;stroke-width:0.001;stroke-opacity:1" />
    <path
       id="path4823"
       d="M 11.327278,4.225514 L 15.968435,2.611458 L 27.212859,7.0599533 L 32.25021,5.8592533 L 29.552303,9.8943939 L 16.364632,9.8943939 L 21.779313,8.6936939 L 11.327278,4.225514"
       style="fill:#000000;stroke:none;stroke-width:0.001;stroke-opacity:1" />
    <path
       id="path4825"
       d="M 53.154272,18.023723 L 48.513117,19.657467 L 37.664889,14.775929 L 32.25021,16.429352 L 34.966985,12.33516 L 48.513117,12.33516 L 42.70224,13.555544 L 53.154272,18.023723"
       style="fill:#000000;stroke:none;stroke-width:0.001;stroke-opacity:1" />
    <path
       id="path4827"
       d="M 33.419936,9.1070493 L 38.061087,10.721105 L 49.286643,5.8592533 L 54.323994,7.4929926 L 51.60722,3.4184854 L 38.438415,3.4184854 L 43.871962,4.6191872 L 33.419936,9.1070493"
       style="fill:#ffffff;stroke:none;stroke-width:0.001;stroke-opacity:1" />
    <path
       id="path4829"
       d="M 31.476681,13.555544 L 26.816665,11.941487 L 15.968435,16.803341 L 10.553753,15.189284 L 13.25166,19.657467 L 26.816665,19.657467 L 21.005786,18.023723 L 31.476681,13.555544"
       style="fill:#ffffff;stroke:none;stroke-width:0.001;stroke-opacity:1" />
    <path
       id="path4831"
       d="M 11.723476,4.6191872 L 16.364632,3.0248142 L 27.609055,7.4929926 L 32.627541,6.2529266 L 29.929634,10.327433 L 16.741963,10.327433 L 22.175509,9.1070493 L 11.723476,4.6191872"
       style="fill:#ffffff;stroke:none;stroke-width:0.001;stroke-opacity:1" />
    <path
       id="path4833"
       d="M 53.531602,18.43708 L 48.909313,20.070823 L 38.061087,15.189284 L 32.627541,16.803341 L 35.344315,12.7682 L 48.909313,12.7682 L 43.098437,13.9689 L 53.531602,18.43708"
       style="fill:#ffffff;stroke:none;stroke-width:0.001;stroke-opacity:1" />
  </g>
  <g
     id="g2348"
     transform="matrix(17.401911,0,0,14.795846,42.176668,18.997897)">
    <path
       id="path2339"
       d="M -1.142098,0.44241813 L -1.142098,0.62241813 L -0.780098,0.62241813 L -0.582098,1.0334181 L -0.385098,0.62241813 L -0.023097999,0.62241813 L -0.023097999,0.44241813 L 0.205902,0.67341813 L -0.023097999,0.90241813 L -0.023097999,0.73841813 L -0.286098,0.73841813 L -0.501098,1.1974181 L -0.286098,1.6564181 L -0.023097999,1.6564181 L -0.023097999,1.4924181 L 0.205902,1.7224181 L -0.023097999,1.9514181 L -0.023097999,1.7884181 L -0.385098,1.7884181 L -0.582098,1.3614181 L -0.780098,1.7884181 L -1.142098,1.7884181 L -1.142098,1.9514181 L -1.373098,1.7224181 L -1.142098,1.4924181 L -1.142098,1.6564181 L -0.895098,1.6564181 L -0.665098,1.1974181 L -0.895098,0.73841813 L -1.142098,0.73841813 L -1.142098,0.90241813 L -1.373098,0.67341813 L -1.142098,0.44241813"
       style="fill:#000000;stroke:none;stroke-width:0.001" />
    <path
       id="path2341"
       d="M -1.126098,0.45941813 L -1.126098,0.64041813 L -0.764098,0.64041813 L -0.566098,1.0494181 L -0.369098,0.64041813 L -0.0080979988,0.64041813 L -0.0080979988,0.45941813 L 0.222902,0.68941813 L -0.0080979988,0.91941813 L -0.0080979988,0.75541813 L -0.270098,0.75541813 L -0.484098,1.2144181 L -0.270098,1.6734181 L -0.0080979988,1.6734181 L -0.0080979988,1.5094181 L 0.222902,1.7384181 L -0.0080979988,1.9684181 L -0.0080979988,1.8044181 L -0.369098,1.8044181 L -0.566098,1.3774181 L -0.764098,1.8044181 L -1.126098,1.8044181 L -1.126098,1.9684181 L -1.356098,1.7384181 L -1.126098,1.5094181 L -1.126098,1.6734181 L -0.879098,1.6734181 L -0.649098,1.2144181 L -0.879098,0.75541813 L -1.126098,0.75541813 L -1.126098,0.91941813 L -1.356098,0.68941813 L -1.126098,0.45941813"
       style="fill:#ffffff;stroke:none;stroke-width:0.001" />
  </g>
</svg>
