<?xml version="1.0" encoding="UTF-8" standalone="no"?>
<!-- Created with Inkscape (http://www.inkscape.org/) -->
<svg
   xmlns:dc="http://purl.org/dc/elements/1.1/"
   xmlns:cc="http://web.resource.org/cc/"
   xmlns:rdf="http://www.w3.org/1999/02/22-rdf-syntax-ns#"
   xmlns:svg="http://www.w3.org/2000/svg"
   xmlns="http://www.w3.org/2000/svg"
   xmlns:xlink="http://www.w3.org/1999/xlink"
   xmlns:sodipodi="http://sodipodi.sourceforge.net/DTD/sodipodi-0.dtd"
   xmlns:inkscape="http://www.inkscape.org/namespaces/inkscape"
   id="svg1998"
   sodipodi:version="0.32"
   inkscape:version="0.45"
   width="51.358818"
   height="47.630692"
   version="1.0"
   sodipodi:docname="sw_multilayer.svg"
   inkscape:output_extension="org.inkscape.output.svg.inkscape"
   sodipodi:modified="true">
  <metadata
     id="metadata2003">
    <rdf:RDF>
      <cc:Work
         rdf:about="">
        <dc:format>image/svg+xml</dc:format>
        <dc:type
           rdf:resource="http://purl.org/dc/dcmitype/StillImage" />
        <dc:title>Multilayer switch</dc:title>
        <dc:creator>
          <cc:Agent>
            <dc:title>Jeremy Grossmann</dc:title>
          </cc:Agent>
        </dc:creator>
        <dc:publisher>
          <cc:Agent>
            <dc:title>GNS-3</dc:title>
          </cc:Agent>
        </dc:publisher>
        <dc:description>Created for the GNS-3 project (www.gns3.net)</dc:description>
        <cc:license
           rdf:resource="http://creativecommons.org/licenses/GPL/2.0/" />
      </cc:Work>
      <cc:License
         rdf:about="http://creativecommons.org/licenses/GPL/2.0/">
        <cc:permits
           rdf:resource="http://web.resource.org/cc/Reproduction" />
        <cc:permits
           rdf:resource="http://web.resource.org/cc/Distribution" />
        <cc:requires
           rdf:resource="http://web.resource.org/cc/Notice" />
        <cc:permits
           rdf:resource="http://web.resource.org/cc/DerivativeWorks" />
        <cc:requires
           rdf:resource="http://web.resource.org/cc/ShareAlike" />
        <cc:requires
           rdf:resource="http://web.resource.org/cc/SourceCode" />
      </cc:License>
    </rdf:RDF>
  </metadata>
  <defs
     id="defs2001">
    <linearGradient
       inkscape:collect="always"
       id="linearGradient10123">
      <stop
         style="stop-color:#e4405c;stop-opacity:1;"
         offset="0"
         id="stop10125" />
      <stop
         style="stop-color:#e4405c;stop-opacity:0;"
         offset="1"
         id="stop10127" />
    </linearGradient>
    <linearGradient
       id="linearGradient8331">
      <stop
         style="stop-color:#6e8caa;stop-opacity:1;"
         offset="0"
         id="stop8333" />
      <stop
         style="stop-color:#cfd8e9;stop-opacity:1;"
         offset="1"
         id="stop8335" />
    </linearGradient>
    <linearGradient
       inkscape:collect="always"
       id="linearGradient6603">
      <stop
         style="stop-color:#506eaa;stop-opacity:1;"
         offset="0"
         id="stop6605" />
      <stop
         style="stop-color:#506eaa;stop-opacity:0;"
         offset="1"
         id="stop6607" />
    </linearGradient>
    <linearGradient
       inkscape:collect="always"
       id="linearGradient6587">
      <stop
         style="stop-color:#506eaa;stop-opacity:1;"
         offset="0"
         id="stop6589" />
      <stop
         style="stop-color:#506eaa;stop-opacity:0;"
         offset="1"
         id="stop6591" />
    </linearGradient>
    <marker
       inkscape:stockid="Arrow2Lstart"
       orient="auto"
       refY="0"
       refX="0"
       id="Arrow2Lstart"
       style="overflow:visible">
      <path
         id="path11918"
         style="font-size:12px;fill-rule:evenodd;stroke-width:0.625;stroke-linejoin:round"
         d="M 8.7185878,4.0337352 L -2.2072895,0.016013256 L 8.7185884,-4.0017078 C 6.97309,-1.6296469 6.9831476,1.6157441 8.7185878,4.0337352 z "
         transform="matrix(1.1,0,0,1.1,1.1,0)" />
    </marker>
    <marker
       inkscape:stockid="Arrow1Send"
       orient="auto"
       refY="0"
       refX="0"
       id="Arrow1Send"
       style="overflow:visible">
      <path
         id="path11921"
         d="M 0,0 L 5,-5 L -12.5,0 L 5,5 L 0,0 z "
         style="fill-rule:evenodd;stroke:black;stroke-width:1pt;marker-start:none"
         transform="matrix(-0.2,0,0,-0.2,-1.2,0)" />
    </marker>
    <marker
       inkscape:stockid="Arrow1Lstart"
       orient="auto"
       refY="0"
       refX="0"
       id="Arrow1Lstart"
       style="overflow:visible">
      <path
         id="path11936"
         d="M 0,0 L 5,-5 L -12.5,0 L 5,5 L 0,0 z "
         style="fill-rule:evenodd;stroke:black;stroke-width:1pt;marker-start:none"
         transform="matrix(0.8,0,0,0.8,10,0)" />
    </marker>
    <linearGradient
       inkscape:collect="always"
       xlink:href="#linearGradient6587"
       id="linearGradient6593"
       x1="3.95626"
       y1="0.64267641"
       x2="-1.2664427"
       y2="0.62730032"
       gradientUnits="userSpaceOnUse"
       gradientTransform="matrix(1.060042,0,0,1.074658,-3.942481e-3,-0.356572)" />
    <linearGradient
       inkscape:collect="always"
       xlink:href="#linearGradient6603"
       id="linearGradient6609"
       x1="2.2801981"
       y1="1.4519272"
       x2="-0.41311559"
       y2="1.4649135"
       gradientUnits="userSpaceOnUse"
       gradientTransform="matrix(1.060042,0,0,1.074658,-3.942482e-3,-0.356572)" />
    <linearGradient
       inkscape:collect="always"
       xlink:href="#linearGradient8331"
       id="linearGradient8337"
       x1="2.1178279"
       y1="0.30649999"
       x2="-0.4954865"
       y2="0.30649999"
       gradientUnits="userSpaceOnUse"
       gradientTransform="matrix(1.117962,0,0,1.035008,-4.0973e-2,-6.788682e-3)" />
    <linearGradient
       inkscape:collect="always"
       xlink:href="#linearGradient10123"
       id="linearGradient9177"
       gradientUnits="userSpaceOnUse"
       gradientTransform="matrix(24.600134,0,0,23.288307,-8.5475463,-4.5293485)"
       x1="1.3990936"
       y1="1.4711363"
       x2="0.49966058"
       y2="0.56367606" />
    <linearGradient
       inkscape:collect="always"
       xlink:href="#linearGradient8331"
       id="linearGradient9199"
       gradientUnits="userSpaceOnUse"
       gradientTransform="matrix(24.666332,1.3331909e-2,-1.2883406e-2,23.708747,-8.6563136,-4.6316275)"
       x1="2.1178279"
       y1="0.30649999"
       x2="-0.4954865"
       y2="0.30649999" />
  </defs>
  <sodipodi:namedview
     inkscape:window-height="940"
     inkscape:window-width="1280"
     inkscape:pageshadow="2"
     inkscape:pageopacity="0.0"
     guidetolerance="10.0"
     gridtolerance="10.0"
     objecttolerance="10.0"
     borderopacity="1.0"
     bordercolor="#666666"
     pagecolor="#ffffff"
     id="base"
     showguides="true"
     inkscape:guide-bbox="true"
     inkscape:zoom="15.791667"
     inkscape:cx="28.769432"
     inkscape:cy="30.461883"
     inkscape:window-x="0"
     inkscape:window-y="46"
     inkscape:current-layer="svg1998" />
  <path
     id="path11907"
     d="M 1.8402723,44.565612 L 1.8402723,47.615693 L 44.293781,47.615693 L 44.293781,44.565612 L 1.8402723,44.565612"
     style="fill:#000000;fill-opacity:0.39215686;stroke:none;stroke-width:0.001" />
  <path
     id="path11020"
     d="M 44.370594,6.1851672 L 51.194316,1.0980117 L 51.358819,41.344844 L 44.266438,47.63069 L 44.370594,6.1851672"
     style="fill:#000000;fill-opacity:0.39215686;stroke:none;stroke-width:0.001"
     sodipodi:nodetypes="ccccc" />
  <path
     id="path2037"
     d="M 0.062500355,5.0439492 L 0.062500355,46.326915 L 44.31814,46.326915 L 44.31814,5.0439492 L 0.062500355,5.0439492"
     style="fill:#6e8caa;fill-opacity:1;stroke:none;stroke-width:0.001" />
  <path
     id="path2041"
     d="M -0.028418806,5.1647552 L 5.5982489,0.11782966 L 50.022311,0.14184042 L 44.346312,5.1887393 L -0.028418806,5.1647552"
     style="fill:url(#linearGradient9199);fill-opacity:1;stroke:none;stroke-width:0.001" />
  <path
     id="path2045"
     d="M 44.228586,5.0887264 L 49.976169,0.12831483 L 49.976169,41.348635 L 44.228586,46.309047 L 44.228586,5.0887264"
     style="fill:#6e8296;fill-opacity:1;stroke:none;stroke-width:0.001" />
  <path
     id="path2049"
     d="M 17.380994,23.789246 L 5.6713307,23.789246 L 5.6713307,22.252216 L 2.0797111,25.326273 L 5.6713307,28.749657 L 5.6713307,27.235915 L 17.380994,27.235915 L 17.380994,23.789246"
     style="fill:#000000;stroke:none;stroke-width:0.001" />
  <path
     id="path2051"
     d="M 19.767207,21.506989 L 11.329361,13.495809 L 12.534768,12.354681 L 7.7131417,12.354681 L 7.7131417,16.919191 L 8.893948,15.778064 L 17.380994,23.789246 L 19.767207,21.506989"
     style="fill:#000000;stroke:none;stroke-width:0.001" />
  <path
     id="path2053"
     d="M 23.383427,21.506989 L 23.383427,10.049138 L 24.982435,10.049138 L 21.784419,6.9983684 L 18.168199,10.049138 L 19.767207,10.049138 L 19.767207,21.506989 L 23.383427,21.506989"
     style="fill:#000000;stroke:none;stroke-width:0.001" />
  <path
     id="path2055"
     d="M 25.818839,23.789246 L 34.281285,15.778064 L 35.462092,16.919191 L 35.462092,12.354681 L 30.665065,12.354681 L 31.845872,13.495809 L 23.383427,21.506989 L 25.818839,23.789246"
     style="fill:#000000;stroke:none;stroke-width:0.001" />
  <path
     id="path2057"
     d="M 25.818839,27.235915 L 37.872905,27.235915 L 37.872905,28.749657 L 41.120121,25.326273 L 37.872905,22.252216 L 37.872905,23.789246 L 25.818839,23.789246 L 25.818839,27.235915"
     style="fill:#000000;stroke:none;stroke-width:0.001" />
  <path
     id="path2059"
     d="M 23.383427,29.51817 L 31.845872,37.529351 L 30.665065,38.693768 L 35.462092,38.321154 L 35.462092,34.129257 L 34.281285,35.270385 L 25.818839,27.235915 L 23.383427,29.51817"
     style="fill:#000000;stroke:none;stroke-width:0.001" />
  <path
     id="path2061"
     d="M 19.767207,29.51817 L 19.767207,40.999311 L 18.168199,40.999311 L 21.784419,44.026792 L 24.982435,40.999311 L 23.383427,40.999311 L 23.383427,29.51817 L 19.767207,29.51817"
     style="fill:#000000;stroke:none;stroke-width:0.001" />
  <path
     id="path2063"
     d="M 17.380994,27.235915 L 8.893948,35.270385 L 7.7131417,34.129257 L 7.7131417,38.693768 L 12.534768,38.693768 L 11.329361,37.529351 L 19.767207,29.51817 L 17.380994,27.235915"
     style="fill:#000000;stroke:none;stroke-width:0.001" />
  <path
     id="path2065"
     d="M 17.749996,24.185146 L 6.0895329,24.185146 L 6.0895329,22.648118 L 2.4733134,25.698888 L 6.0895329,29.145558 L 6.0895329,27.631818 L 17.749996,27.631818 L 17.749996,24.185146"
     style="fill:#ffffff;stroke:none;stroke-width:0.001" />
  <path
     id="path2067"
     d="M 20.185408,21.902892 L 11.722963,13.868422 L 12.95297,12.727294 L 8.1067438,12.727294 L 8.1067438,17.315093 L 9.2875501,16.150677 L 17.749996,24.185146 L 20.185408,21.902892"
     style="fill:#ffffff;stroke:none;stroke-width:0.001" />
  <path
     id="path2069"
     d="M 23.801628,21.902892 L 23.801628,10.421751 L 25.400638,10.421751 L 22.178019,7.3709816 L 18.561799,10.421751 L 20.185408,10.421751 L 20.185408,21.902892 L 23.801628,21.902892"
     style="fill:#ffffff;stroke:none;stroke-width:0.001" />
  <path
     id="path2071"
     d="M 26.237042,24.185146 L 34.674887,16.150677 L 35.880293,17.315093 L 35.880293,12.727294 L 31.034067,12.727294 L 32.239475,13.868422 L 23.801628,21.902892 L 26.237042,24.185146"
     style="fill:#ffffff;stroke:none;stroke-width:0.001" />
  <path
     id="path2073"
     d="M 26.237042,27.631818 L 38.266506,27.631818 L 38.266506,29.145558 L 41.513724,25.698888 L 38.266506,22.648118 L 38.266506,24.185146 L 26.237042,24.185146 L 26.237042,27.631818"
     style="fill:#ffffff;stroke:none;stroke-width:0.001" />
  <path
     id="path2075"
     d="M 23.801628,29.914073 L 32.239475,37.925254 L 31.034067,39.066381 L 35.880293,38.693768 L 35.880293,34.478581 L 34.674887,35.619709 L 26.237042,27.631818 L 23.801628,29.914073"
     style="fill:#ffffff;stroke:none;stroke-width:0.001" />
  <path
     id="path2077"
     d="M 20.185408,29.914073 L 20.185408,41.348635 L 18.561799,41.348635 L 22.178019,44.422693 L 25.400638,41.348635 L 23.801628,41.348635 L 23.801628,29.914073 L 20.185408,29.914073"
     style="fill:#ffffff;stroke:none;stroke-width:0.001" />
  <path
     id="path2079"
     d="M 17.749996,27.631818 L 9.2875501,35.619709 L 8.1067438,34.478581 L 8.1067438,39.066381 L 12.95297,39.066381 L 11.722963,37.925254 L 20.185408,29.914073 L 17.749996,27.631818"
     style="fill:#ffffff;stroke:none;stroke-width:0.001" />
  <path
     id="path2081"
     d="M 28.229653,25.885193 L 28.205052,25.582445 L 28.180453,25.233121 L 28.131251,24.930373 L 28.082051,24.627625 L 28.008251,24.301589 L 27.909851,23.998839 L 27.786851,23.696091 L 27.688449,23.393343 L 27.540848,23.113883 L 27.393248,22.834423 L 27.221046,22.554964 L 27.024245,22.275504 L 26.827446,22.019332 L 26.606044,21.786449 L 26.384642,21.530277 L 26.163242,21.320684 L 25.89264,21.111088 L 25.646639,20.901493 L 25.376037,20.715188 L 25.105435,20.552169 L 24.785634,20.365862 L 24.515032,20.226133 L 24.19523,20.10969 L 23.875428,19.993249 L 23.580228,19.876809 L 23.235825,19.806942 L 22.940625,19.71379 L 22.571621,19.667213 L 22.251819,19.620637 L 21.907419,19.597347 L 21.587617,19.597347 L 21.587617,19.597347 L 21.243215,19.597347 L 20.923413,19.620637 L 20.579011,19.667213 L 20.259209,19.71379 L 19.914806,19.806942 L 19.595005,19.876809 L 19.275203,19.993249 L 18.955402,20.10969 L 18.660201,20.226133 L 18.389599,20.365862 L 18.069797,20.552169 L 17.774597,20.715188 L 17.528594,20.901493 L 17.257994,21.111088 L 17.011991,21.320684 L 16.790591,21.530277 L 16.54459,21.786449 L 16.347789,22.019332 L 16.150988,22.275504 L 15.954187,22.554964 L 15.781984,22.834423 L 15.634385,23.113883 L 15.486783,23.393343 L 15.363783,23.696091 L 15.240783,23.998839 L 15.166982,24.301589 L 15.093181,24.627625 L 15.01938,24.930373 L 14.970181,25.233121 L 14.970181,25.582445 L 14.94558,25.885193 L 14.94558,25.885193 L 14.970181,26.187941 L 14.970181,26.513979 L 15.01938,26.840015 L 15.093181,27.166051 L 15.166982,27.468799 L 15.240783,27.771547 L 15.363783,28.074295 L 15.486783,28.377043 L 15.634385,28.656502 L 15.781984,28.935962 L 15.954187,29.215422 L 16.150988,29.494882 L 16.347789,29.751053 L 16.54459,29.983937 L 16.790591,30.21682 L 17.011991,30.449704 L 17.257994,30.659299 L 17.528594,30.868893 L 17.774597,31.0552 L 18.069797,31.218219 L 18.389599,31.381236 L 18.660201,31.544255 L 18.955402,31.683984 L 19.275203,31.800427 L 19.595005,31.870291 L 19.914806,31.963443 L 20.259209,32.056598 L 20.579011,32.079886 L 20.923413,32.149751 L 21.243215,32.173039 L 21.587617,32.173039 L 21.587617,32.173039 L 21.907419,32.173039 L 22.251819,32.149751 L 22.571621,32.079886 L 22.940625,32.056598 L 23.235825,31.963443 L 23.580228,31.870291 L 23.875428,31.800427 L 24.19523,31.683984 L 24.515032,31.544255 L 24.785634,31.381236 L 25.105435,31.218219 L 25.376037,31.0552 L 25.646639,30.868893 L 25.89264,30.659299 L 26.163242,30.449704 L 26.384642,30.21682 L 26.606044,29.983937 L 26.827446,29.751053 L 27.024245,29.494882 L 27.221046,29.215422 L 27.393248,28.935962 L 27.540848,28.656502 L 27.688449,28.377043 L 27.786851,28.074295 L 27.909851,27.771547 L 28.008251,27.468799 L 28.082051,27.166051 L 28.131251,26.840015 L 28.180453,26.513979 L 28.205052,26.187941 L 28.229653,25.885193"
     style="fill:#000000;stroke:none;stroke-width:0.001" />
  <path
     id="path2083"
     d="M 29.016857,26.653708 L 28.992256,26.35096 L 28.967655,26.024924 L 28.918456,25.698888 L 28.893857,25.372849 L 28.795455,25.070102 L 28.697056,24.767354 L 28.598654,24.464606 L 28.475654,24.185146 L 28.328052,23.882398 L 28.180453,23.602938 L 28.008251,23.323479 L 27.83605,23.044019 L 27.614648,22.787847 L 27.393248,22.554964 L 27.196447,22.32208 L 26.950446,22.089199 L 26.679844,21.879603 L 26.433844,21.670008 L 26.163242,21.483701 L 25.89264,21.320684 L 25.597439,21.157665 L 25.302236,20.994648 L 24.982435,20.854917 L 24.687234,20.738476 L 24.367432,20.645321 L 24.047631,20.575457 L 23.727827,20.482305 L 23.383427,20.435728 L 23.063625,20.38915 L 22.719222,20.365862 L 22.37482,20.365862 L 22.37482,20.365862 L 22.030419,20.365862 L 21.710618,20.38915 L 21.390816,20.435728 L 21.046414,20.482305 L 20.726612,20.575457 L 20.40681,20.645321 L 20.062408,20.738476 L 19.767207,20.854917 L 19.472004,20.994648 L 19.152203,21.157665 L 18.881601,21.320684 L 18.5864,21.483701 L 18.315798,21.670008 L 18.045196,21.879603 L 17.799195,22.089199 L 17.577796,22.32208 L 17.331792,22.554964 L 17.134993,22.787847 L 16.938192,23.044019 L 16.741391,23.323479 L 16.569189,23.602938 L 16.42159,23.882398 L 16.273988,24.185146 L 16.150988,24.464606 L 16.052586,24.767354 L 15.954187,25.070102 L 15.880386,25.372849 L 15.831186,25.698888 L 15.781984,26.024924 L 15.757385,26.35096 L 15.757385,26.653708 L 15.757385,26.653708 L 15.757385,26.979744 L 15.781984,27.30578 L 15.831186,27.58524 L 15.880386,27.911278 L 15.954187,28.237314 L 16.052586,28.540062 L 16.150988,28.84281 L 16.273988,29.145558 L 16.42159,29.425017 L 16.569189,29.704477 L 16.741391,29.983937 L 16.938192,30.240109 L 17.134993,30.519568 L 17.331792,30.752452 L 17.577796,30.985335 L 17.799195,31.218219 L 18.045196,31.427812 L 18.315798,31.614119 L 18.5864,31.823715 L 18.881601,31.986732 L 19.152203,32.149751 L 19.472004,32.31277 L 19.767207,32.429211 L 20.062408,32.545651 L 20.40681,32.662094 L 20.726612,32.755247 L 21.046414,32.825111 L 21.390816,32.871689 L 21.710618,32.918266 L 22.030419,32.941554 L 22.37482,32.941554 L 22.37482,32.941554 L 22.719222,32.941554 L 23.063625,32.918266 L 23.383427,32.871689 L 23.727827,32.825111 L 24.047631,32.755247 L 24.367432,32.662094 L 24.687234,32.545651 L 24.982435,32.429211 L 25.302236,32.31277 L 25.597439,32.149751 L 25.89264,31.986732 L 26.163242,31.823715 L 26.433844,31.614119 L 26.679844,31.427812 L 26.950446,31.218219 L 27.196447,30.985335 L 27.393248,30.752452 L 27.614648,30.519568 L 27.83605,30.240109 L 28.008251,29.983937 L 28.180453,29.704477 L 28.328052,29.425017 L 28.475654,29.145558 L 28.598654,28.84281 L 28.697056,28.540062 L 28.795455,28.237314 L 28.893857,27.911278 L 28.918456,27.58524 L 28.967655,27.30578 L 28.992256,26.979744 L 29.016857,26.653708"
     style="fill:#ffffff;stroke:none;stroke-width:0.001" />
  <path
     id="path2085"
     d="M 28.598654,26.281095 L 28.574053,25.955059 L 28.574053,25.629021 L 28.524853,25.326273 L 28.451053,25.000237 L 28.377254,24.697489 L 28.303453,24.394741 L 28.180453,24.091993 L 28.05745,23.789246 L 27.93445,23.509786 L 27.786851,23.230326 L 27.59005,22.950866 L 27.393248,22.671406 L 27.221046,22.415235 L 26.999646,22.182351 L 26.778244,21.949468 L 26.532243,21.716584 L 26.286242,21.506989 L 26.040241,21.297396 L 25.769639,21.111088 L 25.474436,20.924781 L 25.179236,20.761764 L 24.908634,20.622033 L 24.588832,20.482305 L 24.269031,20.365862 L 23.949229,20.249421 L 23.629427,20.179557 L 23.309626,20.10969 L 22.965223,20.063114 L 22.645422,20.016537 L 22.301021,19.993249 L 21.98122,19.993249 L 21.98122,19.993249 L 21.636817,19.993249 L 21.317015,20.016537 L 20.972613,20.063114 L 20.62821,20.10969 L 20.308409,20.179557 L 19.988607,20.249421 L 19.668805,20.365862 L 19.349004,20.482305 L 19.053803,20.622033 L 18.7586,20.761764 L 18.4634,20.924781 L 18.168199,21.111088 L 17.922196,21.297396 L 17.651596,21.506989 L 17.405593,21.716584 L 17.184193,21.949468 L 16.938192,22.182351 L 16.71679,22.415235 L 16.54459,22.671406 L 16.347789,22.950866 L 16.150988,23.230326 L 16.027987,23.509786 L 15.880386,23.789246 L 15.757385,24.091993 L 15.634385,24.394741 L 15.560584,24.697489 L 15.486783,25.000237 L 15.412983,25.326273 L 15.363783,25.629021 L 15.363783,25.955059 L 15.339182,26.281095 L 15.339182,26.281095 L 15.363783,26.583843 L 15.363783,26.909879 L 15.412983,27.235915 L 15.486783,27.538663 L 15.560584,27.864699 L 15.634385,28.167449 L 15.757385,28.470197 L 15.880386,28.749657 L 16.027987,29.052405 L 16.150988,29.331865 L 16.347789,29.611325 L 16.54459,29.867496 L 16.71679,30.123668 L 16.938192,30.356549 L 17.184193,30.612721 L 17.405593,30.822316 L 17.651596,31.0552 L 17.922196,31.241507 L 18.168199,31.4511 L 18.4634,31.614119 L 18.7586,31.777138 L 19.053803,31.940155 L 19.349004,32.056598 L 19.668805,32.173039 L 19.988607,32.28948 L 20.308409,32.359346 L 20.62821,32.429211 L 20.972613,32.499075 L 21.317015,32.545651 L 21.636817,32.545651 L 21.98122,32.568939 L 21.98122,32.568939 L 22.301021,32.545651 L 22.645422,32.545651 L 22.965223,32.499075 L 23.309626,32.429211 L 23.629427,32.359346 L 23.949229,32.28948 L 24.269031,32.173039 L 24.588832,32.056598 L 24.908634,31.940155 L 25.179236,31.777138 L 25.474436,31.614119 L 25.769639,31.4511 L 26.040241,31.241507 L 26.286242,31.0552 L 26.532243,30.822316 L 26.778244,30.612721 L 26.999646,30.356549 L 27.221046,30.123668 L 27.393248,29.867496 L 27.59005,29.611325 L 27.786851,29.331865 L 27.93445,29.052405 L 28.05745,28.749657 L 28.180453,28.470197 L 28.303453,28.167449 L 28.377254,27.864699 L 28.451053,27.538663 L 28.524853,27.235915 L 28.574053,26.909879 L 28.574053,26.583843 L 28.598654,26.281095"
     style="fill:url(#linearGradient9177);fill-opacity:1;stroke:none;stroke-width:0.001" />
</svg>
