<?xml version="1.0" encoding="UTF-8" standalone="no"?>
<!-- Created with Inkscape (http://www.inkscape.org/) -->

<svg
   version="1.1"
   width="4.5009999cm"
   height="2.0009999cm"
   viewBox="0.2 0.149 4.7 2.151"
   id="svg2"
   sodipodi:docname="nat.svg"
   inkscape:version="1.1.2 (0a00cf5339, 2022-02-04)"
   xmlns:inkscape="http://www.inkscape.org/namespaces/inkscape"
   xmlns:sodipodi="http://sodipodi.sourceforge.net/DTD/sodipodi-0.dtd"
   xmlns="http://www.w3.org/2000/svg"
   xmlns:svg="http://www.w3.org/2000/svg"
   xmlns:rdf="http://www.w3.org/1999/02/22-rdf-syntax-ns#"
   xmlns:cc="http://creativecommons.org/ns#"
   xmlns:dc="http://purl.org/dc/elements/1.1/">
  <sodipodi:namedview
     id="namedview30"
     pagecolor="#ffffff"
     bordercolor="#666666"
     borderopacity="1.0"
     inkscape:pageshadow="2"
     inkscape:pageopacity="0.0"
     inkscape:pagecheckerboard="0"
     inkscape:document-units="cm"
     showgrid="false"
     inkscape:lockguides="true"
     inkscape:zoom="5.7444245"
     inkscape:cx="75.725602"
     inkscape:cy="42.040765"
     inkscape:window-width="1658"
     inkscape:window-height="1016"
     inkscape:window-x="70"
     inkscape:window-y="27"
     inkscape:window-maximized="1"
     inkscape:current-layer="svg2" />
  <metadata
     id="metadata57">
    <rdf:RDF>
      <cc:Work
         rdf:about="">
        <dc:format>image/svg+xml</dc:format>
        <dc:type
           rdf:resource="http://purl.org/dc/dcmitype/StillImage" />
        <dc:title />
        <dc:creator>
          <cc:Agent>
            <dc:title>Jeremy Grossmann</dc:title>
          </cc:Agent>
        </dc:creator>
        <dc:publisher>
          <cc:Agent>
            <dc:title>GNS-3</dc:title>
          </cc:Agent>
        </dc:publisher>
        <dc:description>Created for the GNS-3 project (www.gns3.net)</dc:description>
        <cc:license
           rdf:resource="http://creativecommons.org/licenses/GPL/2.0/" />
      </cc:Work>
      <cc:License
         rdf:about="http://creativecommons.org/licenses/GPL/2.0/">
        <cc:permits
           rdf:resource="http://web.resource.org/cc/Reproduction" />
        <cc:permits
           rdf:resource="http://web.resource.org/cc/Distribution" />
        <cc:requires
           rdf:resource="http://web.resource.org/cc/Notice" />
        <cc:permits
           rdf:resource="http://web.resource.org/cc/DerivativeWorks" />
        <cc:requires
           rdf:resource="http://web.resource.org/cc/ShareAlike" />
        <cc:requires
           rdf:resource="http://web.resource.org/cc/SourceCode" />
      </cc:License>
    </rdf:RDF>
  </metadata>
  <defs
     id="defs55" />
  <path
     d="m 3.7599791,0.61531938 -10e-4,-0.021 -0.003,-0.021 -0.007,-0.02 -0.009,-0.02 -0.011,-0.021 -0.013,-0.02 -0.017,-0.02 -0.018,-0.019 -0.021,-0.019 -0.023,-0.019 -0.024,-0.017 -0.028,-0.017 -0.03,-0.017 -0.031,-0.017 -0.033,-0.015 -0.035,-0.015 -0.037,-0.014 -0.038,-0.013 -0.04,-0.012 -0.041,-0.011 -0.043,-0.011 -0.045,-0.01 -0.044,-0.008 -0.046,-0.008 -0.048,-0.007 -0.047,-0.006 -0.048,-0.004 -0.049,-0.004 -0.05,-0.003 -0.049,-0.001 -0.049,-0.001 0,0 -0.05,0.001 -0.049,0.001 -0.05,0.003 -0.048,0.004 -0.049,0.004 -0.047,0.006 -0.047,0.007 -0.046,0.008 -0.045,0.008 -0.043,0.01 -0.043,0.011 -0.042,0.011 -0.04,0.012 -0.039,0.013 -0.036,0.014 -0.035,0.015 -0.033,0.015 -0.032,0.017 -0.029,0.017 -0.027,0.017 -0.026,0.017 -0.023,0.019 -0.02,0.019 -0.019,0.019 -0.016,0.02 -0.014,0.02 -0.01,0.021 -0.009,0.02 -0.006,0.02 -0.005,0.021 -0.001,0.021 0,0 0.001,0.02 0.005,0.022 0.006,0.02 0.009,0.021 0.01,0.02 0.014,0.019 0.016,0.02 0.019,0.02 0.02,0.019 0.023,0.018 0.026,0.018 0.027,0.017 0.029,0.017 0.032,0.016 0.033,0.016 0.035,0.014 0.036,0.014 0.039,0.013 0.04,0.013 0.042,0.011 0.043,0.01 0.043,0.011 0.045,0.008 0.046,0.007 0.047,0.007 0.047,0.006 0.049,0.005 0.048,0.003 0.05,0.003 0.049,10e-4 0.05,0.001 0,0 0.049,-0.001 0.049,-10e-4 0.05,-0.003 0.049,-0.003 0.048,-0.005 0.047,-0.006 0.048,-0.007 0.046,-0.007 0.044,-0.008 0.045,-0.011 0.043,-0.01 0.041,-0.011 0.04,-0.013 0.038,-0.013 0.037,-0.014 0.035,-0.014 0.033,-0.016 0.031,-0.016 0.03,-0.017 0.028,-0.017 0.024,-0.018 0.023,-0.018 0.021,-0.019 0.018,-0.02 0.017,-0.02 0.013,-0.019 0.011,-0.02 0.009,-0.021 0.007,-0.02 0.003,-0.022 10e-4,-0.02"
     id="path4"
     style="fill:#ffffff;stroke:none" />
  <path
     d="m 2.2259791,0.83031938 -10e-4,-0.021 -0.003,-0.02 -0.004,-0.021 -0.007,-0.02 -0.009,-0.021 -0.01,-0.02 -0.012,-0.02 -0.015,-0.018 -0.015,-0.019 -0.018,-0.019 -0.019,-0.018 -0.021,-0.017 -0.022,-0.017 -0.024,-0.016 -0.026,-0.015 -0.026,-0.015 -0.029,-0.014 -0.029,-0.013 -0.031,-0.013 -0.032,-0.011 -0.032,-0.011 -0.034,-0.009 -0.035,-0.009 -0.035,-0.008 -0.036,-0.006 -0.036,-0.006 -0.037,-0.005 -0.038,-0.004 -0.037,-0.002 -0.039,-0.002 -0.038,0 0,0 -0.037,0 -0.038,0.002 -0.038,0.002 -0.038,0.004 -0.037,0.005 -0.036,0.006 -0.036,0.006 -0.035,0.008 -0.035,0.009 -0.033,0.009 -0.033,0.011 -0.032,0.011 -0.03,0.013 -0.03,0.013 -0.028,0.014 -0.027,0.015 -0.025,0.015 -0.024,0.016 -0.023,0.017 -0.021,0.017 -0.018,0.018 -0.019,0.019 -0.015,0.019 -0.015,0.018 -0.012,0.02 -0.011,0.02 -0.008,0.021 -0.007,0.02 -0.005,0.021 -0.002,0.02 -0.001,0.021 0,0 0.001,0.021 0.002,0.021 0.005,0.02 0.007,0.021 0.008,0.02 0.011,0.02 0.012,0.02 0.015,0.019 0.015,0.019 0.019,0.018 0.018,0.018 0.021,0.018 0.023,0.016 0.024,0.016 0.025,0.016 0.027,0.014 0.028,0.015 0.03,0.012 0.03,0.013 0.032,0.012 0.033,0.01 0.033,0.01 0.035,0.008 0.035,0.008 0.036,0.007 0.036,0.005 0.037,0.005 0.038,0.004 0.038,0.002 0.038,0.002 0.037,0 0,0 0.038,0 0.039,-0.002 0.037,-0.002 0.038,-0.004 0.037,-0.005 0.036,-0.005 0.036,-0.007 0.035,-0.008 0.035,-0.008 0.034,-0.01 0.032,-0.01 0.032,-0.012 0.031,-0.013 0.029,-0.012 0.029,-0.015 0.026,-0.014 0.026,-0.016 0.024,-0.016 0.022,-0.016 0.021,-0.018 0.019,-0.018 0.018,-0.018 0.015,-0.019 0.015,-0.019 0.012,-0.02 0.01,-0.02 0.009,-0.02 0.007,-0.021 0.004,-0.02 0.003,-0.021 10e-4,-0.021"
     id="path6"
     style="fill:#ffffff;stroke:none" />
  <path
     d="m 1.2809791,1.2493194 -10e-4,-0.017 -0.001,-0.017 -0.004,-0.017 -0.005,-0.017 -0.005,-0.016 -0.007,-0.016 -0.009,-0.016 -0.009,-0.017 -0.011,-0.015 -0.012,-0.015 -0.012,-0.014 -0.014,-0.015 -0.015,-0.014 -0.017,-0.012 -0.017,-0.013 -0.018,-0.012 -0.019,-0.011 -0.02,-0.011 -0.02,-0.01 -0.022,-0.01 -0.022,-0.008 -0.023,-0.008 -0.023,-0.007 -0.024,-0.006 -0.024,-0.006 -0.025,-0.004 -0.024,-0.005 -0.026,-0.002 -0.025,-0.002 -0.025,-0.002 -0.026,0 0,0 -0.026,0 -0.026,0.002 -0.025,0.002 -0.025,0.002 -0.024,0.005 -0.026,0.004 -0.024,0.006 -0.023,0.006 -0.023,0.007 -0.023,0.008 -0.022,0.008 -0.022,0.01 -0.021,0.01 -0.019,0.011 -0.019,0.011 -0.018,0.012 -0.017,0.013 -0.017,0.012 -0.015,0.014 -0.014,0.015 -0.013,0.014 -0.011,0.015 -0.011,0.015 -0.01,0.017 -0.008,0.016 -0.007,0.016 -0.006,0.016 -0.004,0.017 -0.004,0.017 -0.002,0.017 0,0.017 0,0 0,0.016 0.002,0.018 0.004,0.016 0.004,0.017 0.006,0.017 0.007,0.016 0.008,0.016 0.01,0.015 0.011,0.016 0.011,0.015 0.013,0.015 0.014,0.014 0.015,0.014 0.017,0.013 0.017,0.012 0.018,0.012 0.019,0.012 0.019,0.01 0.021,0.01 0.022,0.01 0.022,0.008 0.023,0.008 0.023,0.007 0.023,0.007 0.024,0.005 0.026,0.005 0.024,0.004 0.025,0.003 0.025,10e-4 0.026,0.002 0.026,0.001 0,0 0.026,-0.001 0.025,-0.002 0.025,-10e-4 0.026,-0.003 0.024,-0.004 0.025,-0.005 0.024,-0.005 0.024,-0.007 0.023,-0.007 0.023,-0.008 0.022,-0.008 0.022,-0.01 0.02,-0.01 0.02,-0.01 0.019,-0.012 0.018,-0.012 0.017,-0.012 0.017,-0.013 0.015,-0.014 0.014,-0.014 0.012,-0.015 0.012,-0.015 0.011,-0.016 0.009,-0.015 0.009,-0.016 0.007,-0.016 0.005,-0.017 0.005,-0.017 0.004,-0.016 0.001,-0.018 10e-4,-0.016"
     id="path8"
     style="fill:#ffffff;stroke:none" />
  <path
     d="m 2.0969791,1.5713194 -0.002,-0.018 -0.003,-0.018 -0.004,-0.019 -0.007,-0.018 -0.009,-0.017 -0.01,-0.018 -0.013,-0.017 -0.015,-0.018 -0.016,-0.016 -0.017,-0.016 -0.019,-0.016 -0.021,-0.016 -0.024,-0.015 -0.024,-0.014 -0.026,-0.013 -0.027,-0.013 -0.028,-0.012 -0.031,-0.012 -0.03,-0.011 -0.032,-0.01 -0.034,-0.009 -0.035,-0.009 -0.034,-0.008 -0.036,-0.007 -0.036,-0.005 -0.038,-0.006 -0.037,-0.004 -0.038,-0.003 -0.038,-0.002 -0.039,-0.002 -0.038,0 0,0 -0.038,0 -0.039,0.002 -0.039,0.002 -0.038,0.003 -0.037,0.004 -0.037,0.006 -0.037,0.005 -0.035,0.007 -0.035,0.008 -0.034,0.009 -0.034,0.009 -0.032,0.01 -0.031,0.011 -0.03,0.012 -0.029,0.012 -0.027,0.013 -0.026,0.013 -0.024,0.014 -0.023,0.015 -0.021,0.016 -0.019,0.016 -0.018,0.016 -0.017,0.016 -0.014,0.018 -0.012,0.017 -0.01,0.018 -0.01,0.017 -0.006,0.018 -0.005,0.019 -0.003,0.018 -0.001,0.018 0,0 0.001,0.019 0.003,0.018 0.005,0.018 0.006,0.018 0.01,0.019 0.01,0.017 0.012,0.017 0.014,0.018 0.017,0.016 0.018,0.016 0.019,0.016 0.021,0.015 0.023,0.015 0.024,0.015 0.026,0.014 0.027,0.012 0.029,0.013 0.03,0.011 0.031,0.011 0.032,0.01 0.034,0.01 0.034,0.008 0.035,0.008 0.035,0.006 0.037,0.007 0.037,0.004 0.037,0.005 0.038,0.003 0.039,0.003 0.039,10e-4 0.038,0 0,0 0.038,0 0.039,-10e-4 0.038,-0.003 0.038,-0.003 0.037,-0.005 0.038,-0.004 0.036,-0.007 0.036,-0.006 0.034,-0.008 0.035,-0.008 0.034,-0.01 0.032,-0.01 0.03,-0.011 0.031,-0.011 0.028,-0.013 0.027,-0.012 0.026,-0.014 0.024,-0.015 0.024,-0.015 0.021,-0.015 0.019,-0.016 0.017,-0.016 0.016,-0.016 0.015,-0.018 0.013,-0.017 0.01,-0.017 0.009,-0.019 0.007,-0.018 0.004,-0.018 0.003,-0.018 0.002,-0.019"
     id="path10"
     style="fill:#ffffff;stroke:none" />
  <path
     d="m 3.9229791,1.7583194 -0.002,-0.021 -0.004,-0.022 -0.007,-0.022 -0.011,-0.021 -0.012,-0.021 -0.016,-0.021 -0.019,-0.021 -0.021,-0.02 -0.024,-0.02 -0.027,-0.02 -0.029,-0.018 -0.032,-0.019 -0.033,-0.017 -0.037,-0.017 -0.039,-0.016 -0.04,-0.016 -0.043,-0.014 -0.045,-0.014 -0.046,-0.013 -0.048,-0.012 -0.05,-0.01 -0.051,-0.011 -0.052,-0.009 -0.054,-0.008 -0.054,-0.007 -0.056,-0.006 -0.055,-0.005 -0.057,-0.004 -0.057,-0.002 -0.058,-0.002 -0.057,0 0,0 -0.057,0 -0.058,0.002 -0.057,0.002 -0.057,0.004 -0.056,0.005 -0.055,0.006 -0.054,0.007 -0.054,0.008 -0.052,0.009 -0.051,0.011 -0.05,0.01 -0.048,0.012 -0.047,0.013 -0.044,0.014 -0.043,0.014 -0.04,0.016 -0.039,0.016 -0.037,0.017 -0.034,0.017 -0.031,0.019 -0.029,0.018 -0.027,0.02 -0.024,0.02 -0.021,0.02 -0.018,0.021 -0.017,0.021 -0.012,0.021 -0.011,0.021 -0.007,0.022 -0.005,0.022 -10e-4,0.021 0,0 10e-4,0.023 0.005,0.021 0.007,0.022 0.011,0.021 0.012,0.022 0.017,0.02 0.018,0.021 0.021,0.02 0.024,0.02 0.027,0.02 0.029,0.018 0.031,0.018 0.034,0.018 0.037,0.017 0.039,0.016 0.04,0.016 0.043,0.015 0.044,0.013 0.047,0.013 0.048,0.012 0.05,0.011 0.051,0.01 0.052,0.009 0.054,0.009 0.054,0.007 0.055,0.005 0.056,0.005 0.057,0.004 0.057,0.003 0.058,0.002 0.057,0 0,0 0.057,0 0.058,-0.002 0.057,-0.003 0.057,-0.004 0.055,-0.005 0.056,-0.005 0.054,-0.007 0.054,-0.009 0.052,-0.009 0.051,-0.01 0.05,-0.011 0.048,-0.012 0.046,-0.013 0.045,-0.013 0.043,-0.015 0.04,-0.016 0.039,-0.016 0.037,-0.017 0.033,-0.018 0.032,-0.018 0.029,-0.018 0.027,-0.02 0.024,-0.02 0.021,-0.02 0.019,-0.021 0.016,-0.02 0.012,-0.022 0.011,-0.021 0.007,-0.022 0.004,-0.021 0.002,-0.023"
     id="path12"
     style="fill:#ffffff;stroke:none" />
  <path
     d="m 4.5529791,0.76631938 0,-0.016 -0.003,-0.016 -0.004,-0.017 -0.008,-0.016 -0.007,-0.016 -0.011,-0.016 -0.012,-0.015 -0.013,-0.015 -0.016,-0.015 -0.017,-0.015 -0.019,-0.013 -0.02,-0.014 -0.022,-0.013 -0.023,-0.013 -0.025,-0.012 -0.026,-0.011 -0.027,-0.012 -0.029,-0.01 -0.03,-0.01 -0.031,-0.009 -0.031,-0.008 -0.033,-0.008 -0.034,-0.007 -0.034,-0.006 -0.035,-0.005 -0.035,-0.005 -0.036,-0.003 -0.037,-0.003 -0.036,-0.002 -0.037,-0.001 -0.037,0 0,0 -0.037,0 -0.036,0.001 -0.038,0.002 -0.035,0.003 -0.036,0.003 -0.036,0.005 -0.034,0.005 -0.035,0.006 -0.034,0.007 -0.032,0.008 -0.032,0.008 -0.031,0.009 -0.03,0.01 -0.028,0.01 -0.028,0.012 -0.026,0.011 -0.025,0.012 -0.023,0.013 -0.022,0.013 -0.02,0.014 -0.019,0.013 -0.016,0.015 -0.016,0.015 -0.014,0.015 -0.012,0.015 -0.01,0.016 -0.009,0.016 -0.006,0.016 -0.005,0.017 -0.002,0.016 -10e-4,0.016 0,0 10e-4,0.016 0.002,0.016 0.005,0.017 0.006,0.016 0.009,0.016 0.01,0.016 0.012,0.016 0.014,0.014 0.016,0.016 0.016,0.014 0.019,0.014 0.02,0.013 0.022,0.014 0.023,0.013 0.025,0.012 0.026,0.011 0.028,0.011 0.028,0.011 0.03,0.009 0.031,0.009 0.032,0.009 0.032,0.007 0.034,0.007 0.035,0.006 0.034,0.006 0.036,0.004 0.036,0.003 0.035,0.003 0.038,0.003 0.036,0 0.037,10e-4 0,0 0.037,-10e-4 0.037,0 0.036,-0.003 0.037,-0.003 0.036,-0.003 0.035,-0.004 0.035,-0.006 0.034,-0.006 0.034,-0.007 0.033,-0.007 0.031,-0.009 0.031,-0.009 0.03,-0.009 0.029,-0.011 0.027,-0.011 0.026,-0.011 0.025,-0.012 0.023,-0.013 0.022,-0.014 0.02,-0.013 0.019,-0.014 0.017,-0.014 0.016,-0.016 0.013,-0.014 0.012,-0.016 0.011,-0.016 0.007,-0.016 0.008,-0.016 0.004,-0.017 0.003,-0.016 0,-0.016"
     id="path14"
     style="fill:#ffffff;stroke:none" />
  <path
     d="m 4.7599791,1.1813194 -10e-4,-0.016 -0.002,-0.016 -0.005,-0.017 -0.007,-0.016 -0.008,-0.016 -0.01,-0.016 -0.012,-0.016 -0.013,-0.014 -0.015,-0.015 -0.018,-0.015 -0.019,-0.014 -0.019,-0.013 -0.022,-0.013 -0.023,-0.014 -0.024,-0.011 -0.027,-0.012 -0.027,-0.011 -0.028,-0.01 -0.03,-0.01 -0.03,-0.009 -0.032,-0.008 -0.033,-0.008 -0.033,-0.007 -0.033,-0.005 -0.035,-0.006 -0.035,-0.004 -0.036,-0.004 -0.036,-0.003 -0.036,-0.002 -0.037,-0.001 -0.036,-0.001 0,0 -0.038,0.001 -0.036,0.001 -0.036,0.002 -0.036,0.003 -0.036,0.004 -0.035,0.004 -0.035,0.006 -0.033,0.005 -0.034,0.007 -0.032,0.008 -0.032,0.008 -0.03,0.009 -0.03,0.01 -0.028,0.01 -0.027,0.011 -0.027,0.012 -0.024,0.011 -0.022,0.014 -0.022,0.013 -0.021,0.013 -0.018,0.014 -0.018,0.015 -0.015,0.015 -0.013,0.014 -0.012,0.016 -0.01,0.016 -0.008,0.016 -0.007,0.016 -0.005,0.017 -0.002,0.016 -10e-4,0.016 0,0 10e-4,0.016 0.002,0.016 0.005,0.016 0.007,0.016 0.008,0.017 0.01,0.016 0.012,0.015 0.013,0.015 0.015,0.015 0.018,0.015 0.018,0.013 0.021,0.014 0.022,0.013 0.022,0.013 0.024,0.012 0.027,0.011 0.027,0.012 0.028,0.01 0.03,0.01 0.03,0.009 0.032,0.008 0.032,0.007 0.034,0.007 0.033,0.006 0.035,0.005 0.035,0.005 0.036,0.004 0.036,0.003 0.036,0.002 0.036,0.001 0.038,0 0,0 0.036,0 0.037,-0.001 0.036,-0.002 0.036,-0.003 0.036,-0.004 0.035,-0.005 0.035,-0.005 0.033,-0.006 0.033,-0.007 0.033,-0.007 0.032,-0.008 0.03,-0.009 0.03,-0.01 0.028,-0.01 0.027,-0.012 0.027,-0.011 0.024,-0.012 0.023,-0.013 0.022,-0.013 0.019,-0.014 0.019,-0.013 0.018,-0.015 0.015,-0.015 0.013,-0.015 0.012,-0.015 0.01,-0.016 0.008,-0.017 0.007,-0.016 0.005,-0.016 0.002,-0.016 10e-4,-0.016"
     id="path16"
     style="fill:#ffffff;stroke:none" />
  <path
     d="m 4.6189791,1.5243194 -10e-4,-0.027 -0.002,-0.027 -0.005,-0.026 -0.006,-0.027 -0.009,-0.026 -0.01,-0.026 -0.012,-0.025 -0.014,-0.025 -0.014,-0.025 -0.017,-0.023 -0.018,-0.024 -0.021,-0.022 -0.021,-0.022 -0.023,-0.02 -0.024,-0.021 -0.027,-0.018 -0.027,-0.018 -0.027,-0.018 -0.029,-0.015 -0.031,-0.015 -0.032,-0.013 -0.031,-0.013 -0.033,-0.011 -0.034,-0.01 -0.035,-0.009 -0.035,-0.007 -0.036,-0.006 -0.035,-0.005 -0.036,-0.003 -0.036,-0.002 -0.036,-0.001 0,0 -0.037,0.001 -0.036,0.002 -0.036,0.003 -0.036,0.005 -0.035,0.006 -0.035,0.007 -0.035,0.009 -0.034,0.01 -0.033,0.011 -0.032,0.013 -0.031,0.013 -0.031,0.015 -0.029,0.015 -0.028,0.018 -0.027,0.018 -0.026,0.018 -0.024,0.021 -0.023,0.02 -0.022,0.022 -0.019,0.022 -0.019,0.024 -0.017,0.023 -0.015,0.025 -0.014,0.025 -0.011,0.025 -0.01,0.026 -0.008,0.026 -0.007,0.027 -0.005,0.026 -0.002,0.027 -10e-4,0.027 0,0 10e-4,0.027 0.002,0.027 0.005,0.026 0.007,0.026 0.008,0.026 0.01,0.026 0.011,0.026 0.014,0.025 0.015,0.024 0.017,0.024 0.019,0.023 0.019,0.022 0.022,0.022 0.023,0.021 0.024,0.02 0.026,0.019 0.027,0.018 0.028,0.017 0.029,0.016 0.031,0.015 0.031,0.013 0.032,0.013 0.033,0.011 0.034,0.01 0.035,0.008 0.035,0.008 0.035,0.006 0.036,0.005 0.036,0.003 0.036,0.002 0.037,10e-4 0,0 0.036,-10e-4 0.036,-0.002 0.036,-0.003 0.035,-0.005 0.036,-0.006 0.035,-0.008 0.035,-0.008 0.034,-0.01 0.033,-0.011 0.031,-0.013 0.032,-0.013 0.031,-0.015 0.029,-0.016 0.027,-0.017 0.027,-0.018 0.027,-0.019 0.024,-0.02 0.023,-0.021 0.021,-0.022 0.021,-0.022 0.018,-0.023 0.017,-0.024 0.014,-0.024 0.014,-0.025 0.012,-0.026 0.01,-0.026 0.009,-0.026 0.006,-0.026 0.005,-0.026 0.002,-0.027 10e-4,-0.027"
     id="path18"
     style="fill:#ffffff;stroke:none" />
  <path
     d="m 2.7919791,0.61131938 0.965,-0.091 -0.013,-0.021 -0.014,-0.019 -0.017,-0.02 -0.019,-0.02 -0.022,-0.019 -0.024,-0.018 -0.026,-0.018 -0.028,-0.017 -0.031,-0.017 -0.032,-0.016 -0.034,-0.015 -0.036,-0.014 -0.038,-0.014 -0.039,-0.013 -0.042,-0.012 -0.042,-0.011 -0.043,-0.011 -0.045,-0.009 -0.046,-0.009 -0.047,-0.007 -0.048,-0.007 -0.048,-0.005 -0.049,-0.004 -0.049,-0.004 -0.049,-0.002 -0.051,-0.001 -0.05,0 -0.05,0 -0.049,0.003 -0.05,0.002 -0.049,0.004 -0.049,0.006 -0.047,0.006 -0.048,0.007 -0.046,0.008 -0.045,0.009 -0.044,0.01 -0.043,0.011 -0.041,0.012 -0.04,0.013 -0.038,0.013 -0.036,0.014 -0.036,0.016 -0.032,0.015 -0.032,0.017 -0.029,0.017 -0.026,0.018 -0.024,0.018 -0.024,0.019 -0.02,0.018 -0.018,0.02 -0.015,0.02 -0.012,0.021 -0.011,0.02 0.971,0.077"
     id="path22"
     style="fill:#ffffff;stroke:none" />
  <path
     d="m 3.7569791,0.51931938 -0.013,-0.021 -0.014,-0.019 -0.017,-0.02 -0.02,-0.019 -0.022,-0.019 -0.024,-0.018 -0.026,-0.018 -0.029,-0.018 -0.03,-0.016 -0.032,-0.016 -0.035,-0.016 -0.035,-0.014 -0.038,-0.014 -0.04,-0.012 -0.04,-0.013 -0.042,-0.011 -0.044,-0.01 -0.045,-0.01 -0.046,-0.008 -0.046,-0.008 -0.048,-0.006 -0.048,-0.005 -0.049,-0.004 -0.05,-0.004 -0.05,-0.002 -0.049,-0.001 -0.051,0 -0.049,0 -0.049,0.003 -0.051,0.002 -0.048,0.004 -0.049,0.006 -0.047,0.006 -0.048,0.007 -0.046,0.008 -0.045,0.009 -0.043,0.01 -0.043,0.011 -0.042,0.012 -0.039,0.013 -0.038,0.013 -0.036,0.014 -0.036,0.015 -0.033,0.015 -0.031,0.017 -0.028,0.018 -0.028,0.017 -0.024,0.018 -0.022,0.019 -0.021,0.019 -0.018,0.019 -0.016,0.02 -0.012,0.021 -0.011,0.02"
     id="path24"
     style="fill:none;stroke:#6c8f93;stroke-width:0.06067566;stroke-linecap:round;stroke-linejoin:round;stroke-miterlimit:4;stroke-dasharray:none" />
  <path
     d="m 1.4819791,0.82631938 0.486,-0.317 -0.029,-0.013 -0.032,-0.012 -0.032,-0.012 -0.033,-0.01 -0.034,-0.01 -0.035,-0.008 -0.036,-0.008 -0.036,-0.006 -0.037,-0.006 -0.037,-0.005 -0.038,-0.003 -0.038,-0.003 -0.039,-0.001 -0.038,0 -0.038,0 -0.038,0.002 -0.038,0.003 -0.038,0.004 -0.037,0.005 -0.036,0.006 -0.037,0.007 -0.035,0.008 -0.034,0.009 -0.034,0.009 -0.033,0.011 -0.031,0.013 -0.031,0.012 -0.029,0.013 -0.028,0.015 -0.027,0.015 -0.026,0.015 -0.024,0.016 -0.022,0.018 -0.021,0.017 -0.018,0.018 -0.018,0.02 -0.016,0.018 -0.014,0.02 -0.012,0.02 -0.01,0.02 -0.008,0.02 -0.006,0.022 -0.005,0.02 -0.003,0.021 0,0.021 0.001,0.021 0.003,0.021 0.005,0.021 0.74600003,-0.067"
     id="path26"
     style="fill:#ffffff;stroke:none" />
  <path
     d="m 1.9659791,0.50831938 -0.03,-0.014 -0.031,-0.011 -0.033,-0.012 -0.033,-0.01 -0.035,-0.01 -0.034,-0.008 -0.036,-0.008 -0.036,-0.006 -0.037,-0.005 -0.037,-0.005 -0.038,-0.004 -0.038,-0.002 -0.039,-0.001 -0.038,0 -0.038,0 -0.038,0.003 -0.038,0.002 -0.038,0.004 -0.037,0.005 -0.036,0.007 -0.036,0.006 -0.035,0.009 -0.034,0.008 -0.034,0.011 -0.033,0.011 -0.032,0.011 -0.03,0.013 -0.029,0.013 -0.028,0.015 -0.027,0.015 -0.025,0.015 -0.024,0.016 -0.022,0.018 -0.02,0.017 -0.02,0.019 -0.017,0.018 -0.016,0.019 -0.013,0.02 -0.012,0.02 -0.01,0.02 -0.008,0.021 -0.006,0.02 -0.005,0.021 -0.003,0.02 0,0.022 0.002,0.021 0.002,0.02 0.006,0.021"
     id="path28"
     style="fill:none;stroke:#6c8f93;stroke-width:0.06067566;stroke-linecap:round;stroke-linejoin:round;stroke-miterlimit:4;stroke-dasharray:none" />
  <path
     d="m 1.3459791,1.5683194 -0.78100003,-0.012 0,0.019 0.001,0.019 0.003,0.019 0.006,0.018 0.008,0.019 0.009,0.018 0.012,0.018 0.014,0.018 0.015,0.017 0.017,0.017 0.019,0.017 0.02,0.016 0.023,0.015 0.023,0.015 0.026,0.015 0.027,0.014 0.027,0.012 0.03,0.013 0.031,0.012 0.032,0.01 0.034,0.011 0.033,0.009 0.035,0.008 0.036,0.008 0.037,0.007 0.038,0.006 0.037,0.005 0.039,0.004 0.039,0.003 0.039,0.003 0.04,10e-4 0.039,0 0.039,-10e-4 0.039,-0.002 0.039,-0.002 0.039,-0.003 0.039,-0.005 0.037,-0.006 0.037,-0.005 0.037,-0.008 0.035,-0.008 0.035,-0.009 0.033,-0.009 0.033,-0.01 0.033,-0.011 0.03,-0.013 -0.513,-0.282"
     id="path30"
     style="fill:#ffffff;stroke:none" />
  <path
     d="m 0.56497907,1.5563194 -0.001,0.019 0.002,0.019 0.003,0.018 0.006,0.019 0.008,0.018 0.01,0.019 0.011,0.018 0.014,0.018 0.015,0.017 0.017,0.017 0.018,0.016 0.02,0.016 0.023,0.016 0.024,0.015 0.024,0.014 0.026,0.014 0.029,0.013 0.029,0.013 0.032,0.011 0.032,0.011 0.032,0.01 0.034,0.009 0.035,0.009 0.037,0.008 0.036,0.006 0.037,0.007 0.038,0.005 0.038,0.004 0.039,0.003 0.039,0.002 0.039,0.002 0.04,0 0.039,0 0.039,-0.003 0.039,-0.002 0.038,-0.003 0.038,-0.005 0.038,-0.004 0.038,-0.007 0.036,-0.007 0.036,-0.008 0.034,-0.009 0.034,-0.009 0.034,-0.01 0.031,-0.011 0.03,-0.012"
     id="path32"
     style="fill:none;stroke:#6c8f93;stroke-width:0.06067566;stroke-linecap:round;stroke-linejoin:round;stroke-miterlimit:4;stroke-dasharray:none" />
  <path
     d="m 3.8359791,0.75931938 0.689,0.104 0.011,-0.016 0.01,-0.015 0.007,-0.016 0.006,-0.016 0.003,-0.016 0.002,-0.017 0,-0.016 -0.002,-0.017 -0.003,-0.016 -0.006,-0.016 -0.007,-0.016 -0.01,-0.016 -0.01,-0.016 -0.013,-0.015 -0.015,-0.015 -0.016,-0.015 -0.018,-0.014 -0.02,-0.014 -0.022,-0.014 -0.021,-0.012 -0.025,-0.013 -0.025,-0.012 -0.027,-0.011 -0.029,-0.011 -0.028,-0.01 -0.03,-0.009 -0.032,-0.009 -0.032,-0.008 -0.034,-0.007 -0.033,-0.006 -0.036,-0.006 -0.034,-0.005 -0.037,-0.004 -0.036,-0.003 -0.037,-0.003 -0.037,-0.001 -0.036,-0.001 -0.037,0 -0.037,0.001 -0.037,0.002 -0.036,0.002 -0.036,0.003 -0.036,0.004 -0.036,0.005 0.238,0.306"
     id="path34"
     style="fill:#ffffff;stroke:none" />
  <path
     d="m 4.4569791,0.92331938 0.067,-0.059 0.011,-0.016 0.009,-0.015 0.009,-0.016 0.005,-0.017 0.004,-0.016 0.002,-0.016 0.001,-0.016 -0.003,-0.017 -0.003,-0.016 -0.006,-0.017 -0.007,-0.015 -0.009,-0.016 -0.011,-0.016 -0.012,-0.015 -0.016,-0.015 -0.016,-0.015 -0.017,-0.014 -0.02,-0.014 -0.021,-0.014 -0.023,-0.013 -0.023,-0.012 -0.026,-0.012 -0.027,-0.011 -0.028,-0.011 -0.029,-0.011 -0.03,-0.009 -0.032,-0.008 -0.031,-0.008 -0.033,-0.008 -0.034,-0.006 -0.035,-0.006 -0.035,-0.005 -0.036,-0.004 -0.036,-0.003 -0.037,-0.002 -0.037,-0.002 -0.037,-0.001 -0.037,0 -0.037,0.001 -0.037,0.002 -0.036,0.002 -0.036,0.003 -0.036,0.004 -0.035,0.005"
     id="path36"
     style="fill:none;stroke:#6c8f93;stroke-width:0.06067566;stroke-linecap:round;stroke-linejoin:round;stroke-miterlimit:4;stroke-dasharray:none" />
  <path
     d="m 3.9329791,1.1853194 0.775,0.132 0.016,-0.017 0.013,-0.017 0.012,-0.018 0.008,-0.018 0.008,-0.018 0.004,-0.019 10e-4,-0.018 0,-0.018 -0.003,-0.019 -0.004,-0.019 -0.008,-0.018 -0.009,-0.018 -0.012,-0.017 -0.014,-0.018 -0.016,-0.017 -0.018,-0.017 -0.02,-0.016 -0.023,-0.016 -0.024,-0.015 -0.686,0.20100002"
     id="path38"
     style="fill:#ffffff;stroke:none" />
  <path
     d="m 4.6121701,1.38473 0.098479,-0.059128 0.014482,-0.018039 0.013517,-0.018039 0.01062,-0.018039 0.00869,-0.018039 0.00772,-0.018039 0.00386,-0.018039 0.00193,-0.019041 0,-0.018039 -0.00386,-0.020044 -0.00386,-0.018039 -0.00676,-0.018039 -0.00965,-0.018039 -0.011586,-0.018039 -0.013517,-0.018039 -0.015448,-0.017037 -0.018344,-0.017037 -0.021241,-0.016035 -0.020275,-0.016035 -0.024137,-0.0160349 -0.1544773,-0.0591286"
     id="path40"
     style="fill:none;stroke:#6c8f93;stroke-width:0.0596842;stroke-linecap:round;stroke-linejoin:round;stroke-miterlimit:4;stroke-dasharray:none" />
  <path
     d="m 3.9009791,1.5363194 -0.245,0.503 0.036,0.008 0.036,0.007 0.037,0.006 0.038,0.004 0.038,0.003 0.037,0.002 0.037,0 0.038,-0.002 0.037,-0.002 0.038,-0.004 0.036,-0.005 0.038,-0.007 0.035,-0.008 0.036,-0.009 0.034,-0.011 0.034,-0.012 0.033,-0.013 0.032,-0.014 0.031,-0.016 0.03,-0.016 0.028,-0.018 0.027,-0.019 0.027,-0.02 0.025,-0.02 0.022,-0.022 0.022,-0.021 0.02,-0.024 0.018,-0.024 0.016,-0.024 0.015,-0.025 0.014,-0.026 0.01,-0.025 0.01,-0.027 0.008,-0.027 0.006,-0.026 0.003,-0.028 0.002,-0.027 0,-0.027 -0.002,-0.027 -0.004,-0.027 -0.006,-0.026 -0.008,-0.028 -0.009,-0.025 -0.71,0.149"
     id="path42"
     style="fill:#ffffff;stroke:none" />
  <path
     d="m 3.6589791,2.0403194 0.036,0.008 0.036,0.007 0.037,0.006 0.037,0.004 0.037,0.002 0.038,0.002 0.038,10e-4 0.037,-0.003 0.038,-0.002 0.037,-0.004 0.037,-0.005 0.036,-0.007 0.036,-0.009 0.036,-0.009 0.034,-0.011 0.033,-0.011 0.034,-0.014 0.032,-0.014 0.031,-0.015 0.029,-0.018 0.029,-0.017 0.027,-0.019 0.026,-0.019 0.025,-0.021 0.023,-0.022 0.021,-0.022 0.019,-0.024 0.019,-0.023 0.016,-0.024 0.015,-0.025 0.014,-0.026 0.011,-0.026 0.008,-0.026 0.008,-0.027 0.006,-0.027 0.003,-0.027 0.002,-0.027 0,-0.027 -0.002,-0.027 -0.005,-0.027 -0.005,-0.028 -0.008,-0.026 -0.01,-0.026"
     id="path44"
     style="fill:none;stroke:#6c8f93;stroke-width:0.06067566;stroke-linecap:round;stroke-linejoin:round;stroke-miterlimit:4;stroke-dasharray:none" />
  <path
     d="m 0.80297907,1.2493194 -0.037,-0.34200002 -0.028,0.002 -0.026,0.002 -0.027,0.004 -0.026,0.004 -0.026,0.005 -0.026,0.006 -0.024,0.007 -0.025,0.008 -0.024,0.008 -0.023,0.009 -0.022,0.01 -0.021,0.01 -0.021,0.012 -0.02,0.012 -0.019,0.013 -0.017,0.013 -0.017,0.014 -0.015,0.014 -0.015,0.015 -0.013,0.015 -0.011,0.016 -0.011,0.016 -0.01,0.016 -0.008,0.017 -0.006,0.017 -0.006,0.016 -0.004,0.018 -0.003,0.018 -0.001,0.017 0,0.017 0.001,0.018 0.003,0.017 0.004,0.017 0.006,0.017 0.007,0.017 0.008,0.017 0.009,0.016 0.011,0.016 0.012,0.016 0.013,0.015 0.016,0.015 0.015,0.014 0.017,0.014 0.018,0.013 0.018,0.013 0.02,0.011 0.021,0.011 0.021,0.012 0.022,0.009 0.024,0.009 0.023,0.009 0.243,-0.305"
     id="path46"
     style="fill:#ffffff;stroke:none" />
  <path
     d="m 0.76697907,0.90731938 -0.027,0.002 -0.027,0.002 -0.026,0.003 -0.026,0.005 -0.025,0.004 -0.026,0.006 -0.025,0.007 -0.023,0.007 -0.023,0.009 -0.023,0.009 -0.023,0.009 -0.021,0.01 -0.02,0.011 -0.02,0.012 -0.018,0.012 -0.018,0.013 -0.017,0.013 -0.016,0.015 -0.015,0.014 -0.012,0.014 -0.012,0.016 -0.012,0.015 -0.009,0.016 -0.009,0.016 -0.007,0.017 -0.006,0.017 -0.005,0.017 -0.003,0.017 -0.002,0.017 0,0.017 0,0.017 0.003,0.017 0.003,0.018 0.004,0.016 0.007,0.017 0.006,0.016 0.009,0.017 0.009,0.016 0.012,0.015 0.012,0.016 0.014,0.014 0.014,0.014 0.016,0.015 0.016,0.013 0.018,0.013 0.019,0.012 0.019,0.011 0.021,0.012 0.021,0.01 0.022,0.009 0.023,0.009 0.024,0.009"
     id="path48"
     style="fill:none;stroke:#6c8f93;stroke-width:0.06067566;stroke-linecap:round;stroke-linejoin:round;stroke-miterlimit:4;stroke-dasharray:none" />
  <path
     d="m 2.7759791,1.7874896 -1.109,0.040159 0.008,0.020594 0.009,0.019565 0.013,0.020594 0.015,0.020595 0.018,0.019565 0.021,0.018535 0.023,0.018535 0.025,0.018535 0.029,0.018535 0.031,0.017505 0.032,0.015446 0.036,0.016475 0.037,0.015446 0.039,0.015446 0.042,0.013386 0.043,0.013386 0.045,0.011327 0.047,0.012357 0.048,0.010297 0.049,0.00927 0.051,0.00927 0.052,0.00824 0.053,0.00618 0.053,0.00618 0.055,0.00515 0.055,0.00412 0.056,0.00206 0.055,0.00206 0.057,0.00103 0.055,0 0.057,-0.00103 0.055,-0.00309 0.055,-0.00309 0.055,-0.00515 0.054,-0.00515 0.053,-0.00618 0.052,-0.00721 0.052,-0.00824 0.05,-0.010297 0.049,-0.00927 0.047,-0.011327 0.046,-0.011327 0.044,-0.013386 0.042,-0.014416 0.04,-0.013386 0.039,-0.015446 0.036,-0.015446 0.034,-0.016476 0.031,-0.016476 0.03,-0.017505 0.027,-0.019565 0.025,-0.017505 0.022,-0.019565 0.018,-0.018535 -1.056,-0.1307748"
     id="path50"
     style="fill:#ffffff;stroke:none" />
  <path
     d="m 1.6669791,1.8393194 0.008,0.019 0.01,0.02 0.012,0.02 0.016,0.019 0.017,0.019 0.021,0.018 0.023,0.018 0.025,0.019 0.03,0.017 0.03,0.017 0.032,0.015 0.036,0.016 0.037,0.015 0.039,0.015 0.042,0.013 0.044,0.013 0.043,0.011 0.048,0.012 0.047,0.01 0.049,0.009 0.051,0.009 0.052,0.008 0.053,0.006 0.053,0.005 0.055,0.006 0.054,0.003 0.056,0.003 0.056,0.002 0.056,10e-4 0.056,0 0.056,-10e-4 0.055,-0.003 0.055,-0.003 0.055,-0.005 0.054,-0.005 0.054,-0.006 0.051,-0.007 0.052,-0.008 0.05,-0.009 0.048,-0.01 0.048,-0.011 0.046,-0.011 0.043,-0.013 0.043,-0.012 0.04,-0.015 0.039,-0.014 0.036,-0.016 0.034,-0.015 0.032,-0.017 0.029,-0.016 0.027,-0.018 0.024,-0.018 0.022,-0.019 0.02,-0.018"
     id="path52"
     style="fill:none;stroke:#6c8f93;stroke-width:0.06067566;stroke-linecap:round;stroke-linejoin:round;stroke-miterlimit:4;stroke-dasharray:none" />
  <rect
     width="2.7800133"
     height="0.61515152"
     rx="0"
     ry="0.28983101"
     x="1.2692652"
     y="0.80605406"
     transform="matrix(0.999604,0.02812984,-0.02812984,0.999604,0,0)"
     id="rect1892"
     style="fill:#ffffff;fill-opacity:1;fill-rule:evenodd;stroke:none" />
  <path
     d="m 2.5029776,1.9073766 0.023,-0.00895 0.020913,-0.00976 0.022119,-0.011947 0.021191,-0.0142 0.021284,-0.015682 0.02031,-0.017195 0.020402,-0.018676 0.020541,-0.020897 0.018455,-0.021702 0.018546,-0.023184 0.018685,-0.025405 0.016552,-0.02547 0.016691,-0.027691 0.014651,-0.029236 0.015717,-0.029204 0.013676,-0.03075 0.012702,-0.032263 0.012748,-0.033004 0.010665,-0.033809 0.010665,-0.033809 0.00863,-0.035354 0.00756,-0.035386 0.00653,-0.036158 0.00658,-0.0369 0.00445,-0.036963 0.00333,-0.036256 0.00236,-0.037768 0.00226,-0.036288 -9.319e-4,-0.036384 2.273e-4,-0.037833 -0.00205,-0.035676 -0.00413,-0.03648 L 2.883076,0.9720976 2.877836,0.9363258 2.871426,0.902003 2.863906,0.8683889 2.855226,0.8362236 2.845476,0.8040261 2.834621,0.7725371 2.82256,0.7432375 2.810453,0.7146786 2.797187,0.6875686 2.782854,0.6604265 2.768383,0.635506 2.751686,0.6120024 2.733784,0.590685 2.716948,0.569403 2.69886,0.5510511 2.679613,0.5341483 2.660319,0.517986 2.640887,0.5040454 2.620296,0.4915538 2.598453,0.4819918 2.577631,0.4732028"
     id="path24-7"
     style="fill:none;stroke:#6c8f93;stroke-width:0.107496;stroke-linecap:round;stroke-linejoin:round;stroke-miterlimit:4;stroke-dasharray:none" />
  <path
     id="path2057-3"
     d="M 1.5298421,1.2403194 H 2.3548856 V 1.303797 L 2.577141,1.1602384 2.3548856,1.0313279 v 0.064457 H 1.5298421 v 0.1445348"
     style="fill:#6c8f93;fill-opacity:1;stroke:none;stroke-width:5.35746e-05;stroke-opacity:0.994961" />
  <path
     id="path2057-3-9"
     d="M 3.1225773,1.2403194 H 3.9476208 V 1.303797 L 4.1698762,1.1602384 3.9476208,1.0313279 v 0.064457 H 3.1225773 v 0.1445348"
     style="fill:#6c8f93;fill-opacity:1;stroke:none;stroke-width:5.35746e-05;stroke-opacity:0.994961" />
  <path
     id="path2057-3-5"
     d="m 1.5278616,0.86827348 h 0.8319275 v 0.063478 L 2.5838989,0.78819244 2.3597891,0.65928186 v 0.064457 H 1.5278616 v 0.14453482"
     style="fill:#6c8f93;fill-opacity:1;stroke:none;stroke-width:5.37977e-05;stroke-opacity:0.994961" />
  <path
     id="path2057-3-6"
     d="m 1.527029,1.6225499 h 0.8217599 v 0.063478 L 2.5701597,1.5424689 2.3487889,1.4135585 v 0.064457 H 1.5270291 v 0.1445347"
     style="fill:#6c8f93;fill-opacity:1;stroke:none;stroke-width:5.34679e-05;stroke-opacity:0.994961" />
</svg>
