<?xml version="1.0" encoding="UTF-8" standalone="no"?>
<!-- Created with Inkscape (http://www.inkscape.org/) -->
<svg
   xmlns:dc="http://purl.org/dc/elements/1.1/"
   xmlns:cc="http://web.resource.org/cc/"
   xmlns:rdf="http://www.w3.org/1999/02/22-rdf-syntax-ns#"
   xmlns:svg="http://www.w3.org/2000/svg"
   xmlns="http://www.w3.org/2000/svg"
   xmlns:xlink="http://www.w3.org/1999/xlink"
   xmlns:sodipodi="http://sodipodi.sourceforge.net/DTD/sodipodi-0.dtd"
   xmlns:inkscape="http://www.inkscape.org/namespaces/inkscape"
   id="svg1998"
   sodipodi:version="0.32"
   inkscape:version="0.45.1"
   width="65.937935"
   height="55.615818"
   version="1.0"
   sodipodi:docbase="/home/grossmj/workspace/gns3-artwork/symbols"
   sodipodi:docname="optical_router.selected.svg"
   inkscape:output_extension="org.inkscape.output.svg.inkscape">
  <metadata
     id="metadata2003">
    <rdf:RDF>
      <cc:Work
         rdf:about="">
        <dc:format>image/svg+xml</dc:format>
        <dc:type
           rdf:resource="http://purl.org/dc/dcmitype/StillImage" />
        <dc:title>Router</dc:title>
        <dc:creator>
          <cc:Agent>
            <dc:title>Jeremy Grossmann</dc:title>
          </cc:Agent>
        </dc:creator>
        <dc:publisher>
          <cc:Agent>
            <dc:title>GNS-3</dc:title>
          </cc:Agent>
        </dc:publisher>
        <dc:description>Created for the GNS-3 project (www.gns3.net)</dc:description>
        <cc:license
           rdf:resource="http://creativecommons.org/licenses/GPL/2.0/" />
      </cc:Work>
      <cc:License
         rdf:about="http://creativecommons.org/licenses/GPL/2.0/">
        <cc:permits
           rdf:resource="http://web.resource.org/cc/Reproduction" />
        <cc:permits
           rdf:resource="http://web.resource.org/cc/Distribution" />
        <cc:requires
           rdf:resource="http://web.resource.org/cc/Notice" />
        <cc:permits
           rdf:resource="http://web.resource.org/cc/DerivativeWorks" />
        <cc:requires
           rdf:resource="http://web.resource.org/cc/ShareAlike" />
        <cc:requires
           rdf:resource="http://web.resource.org/cc/SourceCode" />
      </cc:License>
    </rdf:RDF>
  </metadata>
  <defs
     id="defs2001">
    <linearGradient
       id="linearGradient9312">
      <stop
         style="stop-color:#3c8c8c;stop-opacity:1;"
         offset="0"
         id="stop9314" />
      <stop
         style="stop-color:#ffffff;stop-opacity:0.94117647;"
         offset="1"
         id="stop9316" />
    </linearGradient>
    <marker
       inkscape:stockid="Arrow2Lstart"
       orient="auto"
       refY="0"
       refX="0"
       id="Arrow2Lstart"
       style="overflow:visible">
      <path
         id="path11918"
         style="font-size:12px;fill-rule:evenodd;stroke-width:0.625;stroke-linejoin:round"
         d="M 8.7185878,4.0337352 L -2.2072895,0.016013256 L 8.7185884,-4.0017078 C 6.97309,-1.6296469 6.9831476,1.6157441 8.7185878,4.0337352 z "
         transform="matrix(1.1,0,0,1.1,1.1,0)" />
    </marker>
    <marker
       inkscape:stockid="Arrow1Send"
       orient="auto"
       refY="0"
       refX="0"
       id="Arrow1Send"
       style="overflow:visible">
      <path
         id="path11921"
         d="M 0,0 L 5,-5 L -12.5,0 L 5,5 L 0,0 z "
         style="fill-rule:evenodd;stroke:#000000;stroke-width:1pt;marker-start:none"
         transform="matrix(-0.2,0,0,-0.2,-1.2,0)" />
    </marker>
    <marker
       inkscape:stockid="Arrow1Lstart"
       orient="auto"
       refY="0"
       refX="0"
       id="Arrow1Lstart"
       style="overflow:visible">
      <path
         id="path11936"
         d="M 0,0 L 5,-5 L -12.5,0 L 5,5 L 0,0 z "
         style="fill-rule:evenodd;stroke:#000000;stroke-width:1pt;marker-start:none"
         transform="matrix(0.8,0,0,0.8,10,0)" />
    </marker>
    <linearGradient
       inkscape:collect="always"
       xlink:href="#linearGradient9312"
       id="linearGradient2216"
       gradientUnits="userSpaceOnUse"
       gradientTransform="matrix(15.252829,0,0,14.082619,53.467529,3.4188377)"
       x1="-1.0929121"
       y1="0.63145506"
       x2="-4.5832458"
       y2="0.070047863" />
  </defs>
  <sodipodi:namedview
     inkscape:window-height="979"
     inkscape:window-width="1400"
     inkscape:pageshadow="2"
     inkscape:pageopacity="0.0"
     guidetolerance="10.0"
     gridtolerance="10.0"
     objecttolerance="10.0"
     borderopacity="1.0"
     bordercolor="#666666"
     pagecolor="#ffffff"
     id="base"
     showguides="true"
     inkscape:guide-bbox="true"
     inkscape:zoom="7.8958336"
     inkscape:cx="1.710508"
     inkscape:cy="33.547491"
     inkscape:window-x="124"
     inkscape:window-y="71"
     inkscape:current-layer="svg1998" />
  <rect
     style="opacity:1;fill:#000000;fill-opacity:0.39215686;fill-rule:evenodd;stroke:none;stroke-width:0.2;stroke-linecap:square;stroke-linejoin:miter;stroke-miterlimit:4;stroke-dasharray:none;stroke-opacity:1"
     id="rect4558"
     width="64.552505"
     height="54.743603"
     x="1.3854325"
     y="0.87221658"
     ry="15.329386"
     rx="32.212925"
     inkscape:transform-center-x="8.4568136" />
  <rect
     style="opacity:1;fill:#194b4b;fill-opacity:1;fill-rule:evenodd;stroke:none;stroke-width:0.015;stroke-linecap:square;stroke-linejoin:miter;stroke-miterlimit:4;stroke-dasharray:none;stroke-opacity:1"
     id="rect9971"
     width="64.499474"
     height="52.321022"
     x="0"
     y="0.61581755"
     ry="11.865912"
     rx="32.249737"
     inkscape:transform-center-x="8.2952569" />
  <g
     id="g2348"
     transform="matrix(17.401911,0,0,14.795846,42.176668,18.997897)">
    <path
       id="path2339"
       d="M -1.142098,0.44241813 L -1.142098,0.62241813 L -0.780098,0.62241813 L -0.582098,1.0334181 L -0.385098,0.62241813 L -0.023097999,0.62241813 L -0.023097999,0.44241813 L 0.205902,0.67341813 L -0.023097999,0.90241813 L -0.023097999,0.73841813 L -0.286098,0.73841813 L -0.501098,1.1974181 L -0.286098,1.6564181 L -0.023097999,1.6564181 L -0.023097999,1.4924181 L 0.205902,1.7224181 L -0.023097999,1.9514181 L -0.023097999,1.7884181 L -0.385098,1.7884181 L -0.582098,1.3614181 L -0.780098,1.7884181 L -1.142098,1.7884181 L -1.142098,1.9514181 L -1.373098,1.7224181 L -1.142098,1.4924181 L -1.142098,1.6564181 L -0.895098,1.6564181 L -0.665098,1.1974181 L -0.895098,0.73841813 L -1.142098,0.73841813 L -1.142098,0.90241813 L -1.373098,0.67341813 L -1.142098,0.44241813"
       style="fill:#000000;stroke:none;stroke-width:0.001" />
    <path
       id="path2341"
       d="M -1.126098,0.45941813 L -1.126098,0.64041813 L -0.764098,0.64041813 L -0.566098,1.0494181 L -0.369098,0.64041813 L -0.0080979988,0.64041813 L -0.0080979988,0.45941813 L 0.222902,0.68941813 L -0.0080979988,0.91941813 L -0.0080979988,0.75541813 L -0.270098,0.75541813 L -0.484098,1.2144181 L -0.270098,1.6734181 L -0.0080979988,1.6734181 L -0.0080979988,1.5094181 L 0.222902,1.7384181 L -0.0080979988,1.9684181 L -0.0080979988,1.8044181 L -0.369098,1.8044181 L -0.566098,1.3774181 L -0.764098,1.8044181 L -1.126098,1.8044181 L -1.126098,1.9684181 L -1.356098,1.7384181 L -1.126098,1.5094181 L -1.126098,1.6734181 L -0.879098,1.6734181 L -0.649098,1.2144181 L -0.879098,0.75541813 L -1.126098,0.75541813 L -1.126098,0.91941813 L -1.356098,0.68941813 L -1.126098,0.45941813"
       style="fill:#ffffff;stroke:none;stroke-width:0.001" />
  </g>
  <path
     d="M 7.447082,13.747068 L 12.519423,15.308704 L 33.42696,5.9042749 L 38.9551,7.0739642 L 36.053482,3.2857187 L 21.628559,3.0903771 L 27.525178,4.6631733 L 7.447082,13.747068 L 7.447082,13.747068 L 7.447082,13.747068"
     id="path7562"
     style="fill:#000000;stroke:none;stroke-width:0.001" />
  <path
     d="M 27.764824,18.16928 L 32.799692,19.730408 L 53.290455,10.618927 L 59.229705,11.860535 L 56.328593,8.03912 L 41.491534,7.8381971 L 47.843439,9.052217 L 27.764824,18.16928 L 27.764824,18.16928 L 27.764824,18.16928"
     id="path7564"
     style="fill:#000000;stroke:none;stroke-width:0.001" />
  <path
     d="M 7.8910148,14.118023 L 12.925372,15.712319 L 33.871408,6.2420601 L 39.361566,7.4444113 L 36.459948,3.656165 L 22.035027,3.4608231 L 27.969119,5.034128 L 7.8910148,14.118023 L 7.8910148,14.118023 L 7.8910148,14.118023"
     id="path7566"
     style="fill:#ffffff;stroke:none;stroke-width:0.001" />
  <path
     d="M 28.17129,18.539728 L 33.206157,20.100854 L 54.146012,11.028631 L 59.636686,12.197814 L 56.734542,8.4427364 L 42.309624,8.2473946 L 48.243714,9.8206984 L 28.17129,18.539728 L 28.17129,18.539728 L 28.17129,18.539728"
     id="path7568"
     style="fill:#ffffff;stroke:none;stroke-width:0.001" />
</svg>
