<?xml version="1.0" encoding="UTF-8" standalone="no"?>
<!-- Created with Inkscape (http://www.inkscape.org/) -->
<svg
   xmlns:dc="http://purl.org/dc/elements/1.1/"
   xmlns:cc="http://web.resource.org/cc/"
   xmlns:rdf="http://www.w3.org/1999/02/22-rdf-syntax-ns#"
   xmlns:svg="http://www.w3.org/2000/svg"
   xmlns="http://www.w3.org/2000/svg"
   xmlns:xlink="http://www.w3.org/1999/xlink"
   xmlns:sodipodi="http://sodipodi.sourceforge.net/DTD/sodipodi-0.dtd"
   xmlns:inkscape="http://www.inkscape.org/namespaces/inkscape"
   id="svg1998"
   sodipodi:version="0.32"
   inkscape:version="0.45"
   width="66.000435"
   height="44.5159"
   version="1.0"
   sodipodi:docname="rt_netflow.svg"
   inkscape:output_extension="org.inkscape.output.svg.inkscape"
   sodipodi:modified="true">
  <metadata
     id="metadata2003">
    <rdf:RDF>
      <cc:Work
         rdf:about="">
        <dc:format>image/svg+xml</dc:format>
        <dc:type
           rdf:resource="http://purl.org/dc/dcmitype/StillImage" />
        <dc:title>Netflow router</dc:title>
        <dc:creator>
          <cc:Agent>
            <dc:title>Jeremy Grossmann</dc:title>
          </cc:Agent>
        </dc:creator>
        <dc:publisher>
          <cc:Agent>
            <dc:title>GNS-3</dc:title>
          </cc:Agent>
        </dc:publisher>
        <dc:description>Created for the GNS-3 project (www.gns3.net)</dc:description>
        <cc:license
           rdf:resource="http://creativecommons.org/licenses/GPL/2.0/" />
      </cc:Work>
      <cc:License
         rdf:about="http://creativecommons.org/licenses/GPL/2.0/">
        <cc:permits
           rdf:resource="http://web.resource.org/cc/Reproduction" />
        <cc:permits
           rdf:resource="http://web.resource.org/cc/Distribution" />
        <cc:requires
           rdf:resource="http://web.resource.org/cc/Notice" />
        <cc:permits
           rdf:resource="http://web.resource.org/cc/DerivativeWorks" />
        <cc:requires
           rdf:resource="http://web.resource.org/cc/ShareAlike" />
        <cc:requires
           rdf:resource="http://web.resource.org/cc/SourceCode" />
      </cc:License>
    </rdf:RDF>
  </metadata>
  <defs
     id="defs2001">
    <linearGradient
       id="linearGradient9312">
      <stop
         style="stop-color:#3c8c8c;stop-opacity:1;"
         offset="0"
         id="stop9314" />
      <stop
         style="stop-color:#ffffff;stop-opacity:0.94117647;"
         offset="1"
         id="stop9316" />
    </linearGradient>
    <marker
       inkscape:stockid="Arrow2Lstart"
       orient="auto"
       refY="0"
       refX="0"
       id="Arrow2Lstart"
       style="overflow:visible">
      <path
         id="path11918"
         style="font-size:12px;fill-rule:evenodd;stroke-width:0.625;stroke-linejoin:round"
         d="M 8.7185878,4.0337352 L -2.2072895,0.016013256 L 8.7185884,-4.0017078 C 6.97309,-1.6296469 6.9831476,1.6157441 8.7185878,4.0337352 z "
         transform="matrix(1.1,0,0,1.1,1.1,0)" />
    </marker>
    <marker
       inkscape:stockid="Arrow1Send"
       orient="auto"
       refY="0"
       refX="0"
       id="Arrow1Send"
       style="overflow:visible">
      <path
         id="path11921"
         d="M 0,0 L 5,-5 L -12.5,0 L 5,5 L 0,0 z "
         style="fill-rule:evenodd;stroke:black;stroke-width:1pt;marker-start:none"
         transform="matrix(-0.2,0,0,-0.2,-1.2,0)" />
    </marker>
    <marker
       inkscape:stockid="Arrow1Lstart"
       orient="auto"
       refY="0"
       refX="0"
       id="Arrow1Lstart"
       style="overflow:visible">
      <path
         id="path11936"
         d="M 0,0 L 5,-5 L -12.5,0 L 5,5 L 0,0 z "
         style="fill-rule:evenodd;stroke:black;stroke-width:1pt;marker-start:none"
         transform="matrix(0.8,0,0,0.8,10,0)" />
    </marker>
    <linearGradient
       inkscape:collect="always"
       xlink:href="#linearGradient9312"
       id="linearGradient2216"
       gradientUnits="userSpaceOnUse"
       gradientTransform="matrix(15.252829,0,0,14.082619,53.467529,3.4188377)"
       x1="-1.0929121"
       y1="0.63145506"
       x2="-4.5832458"
       y2="0.070047863" />
  </defs>
  <sodipodi:namedview
     inkscape:window-height="979"
     inkscape:window-width="1400"
     inkscape:pageshadow="2"
     inkscape:pageopacity="0.0"
     guidetolerance="10.0"
     gridtolerance="10.0"
     objecttolerance="10.0"
     borderopacity="1.0"
     bordercolor="#666666"
     pagecolor="#ffffff"
     id="base"
     showguides="true"
     inkscape:guide-bbox="true"
     inkscape:zoom="7.8958335"
     inkscape:cx="27.334225"
     inkscape:cy="34.916118"
     inkscape:window-x="0"
     inkscape:window-y="25"
     inkscape:current-layer="g4160" />
  <rect
     style="opacity:1;fill:#000000;fill-opacity:0.39215687;fill-rule:evenodd;stroke:none;stroke-width:0.2;stroke-linecap:square;stroke-linejoin:miter;stroke-miterlimit:4;stroke-dasharray:none;stroke-opacity:1"
     id="rect4558"
     width="64.552505"
     height="41.53862"
     x="1.4479325"
     y="2.9772801"
     ry="11.631706"
     rx="32.212925"
     inkscape:transform-center-x="8.4568136" />
  <rect
     style="opacity:1;fill:#3c8c8c;fill-opacity:1;fill-rule:evenodd;stroke:none;stroke-width:0.015;stroke-linecap:square;stroke-linejoin:miter;stroke-miterlimit:4;stroke-dasharray:none;stroke-opacity:1"
     id="rect9971"
     width="64.499474"
     height="42.154343"
     x="0.0625"
     y="0.18084908"
     ry="11.557454"
     rx="32.249737"
     inkscape:transform-center-x="8.2952569" />
  <g
     id="g4160">
    <path
       id="path4815"
       d="M 64.514069,11.541297 L 64.457031,10.955643 L 64.342949,10.36999 L 64.152814,9.8038604 L 63.867612,9.2182077 L 63.487345,8.6520765 L 63.050034,8.0859452 L 62.517657,7.5393369 L 61.909226,7.0122499 L 61.224742,6.4851607 L 60.464203,5.9775955 L 59.646626,5.4700289 L 58.752993,4.9819859 L 57.783307,4.4939413 L 56.75658,4.0644625 L 55.6538,3.6349838 L 54.493981,3.2055052 L 53.296132,2.8150692 L 52.022232,2.4636777 L 50.710303,2.1122862 L 49.341334,1.7999375 L 47.934339,1.5071117 L 46.489316,1.2338059 L 45.006267,0.99954576 L 43.504204,0.76528425 L 41.964114,0.58958842 L 40.385997,0.43341443 L 38.788867,0.29676153 L 37.191738,0.19915292 L 35.575597,0.12106555 L 33.940437,0.06250017 L 32.324296,0.06250017 L 32.324296,0.06250017 L 30.689136,0.06250017 L 29.053981,0.12106555 L 27.45685,0.19915292 L 25.840705,0.29676153 L 24.243576,0.43341443 L 22.684472,0.58958842 L 21.125372,0.76528425 L 19.623307,0.99954576 L 18.140258,1.2338059 L 16.695234,1.5071117 L 15.28824,1.7999375 L 13.919273,2.1122862 L 12.607342,2.4636777 L 11.333442,2.8150692 L 10.135592,3.2055052 L 8.9757693,3.6349838 L 7.8729941,4.0644625 L 6.8462664,4.4939413 L 5.8765785,4.9819859 L 4.9829488,5.4700289 L 4.1653682,5.9775955 L 3.4048335,6.4851607 L 2.7203448,7.0122499 L 2.1309311,7.5393369 L 1.5795405,8.0859452 L 1.1422325,8.6520765 L 0.76195982,9.2182077 L 0.47676065,9.8038604 L 0.26760898,10.36999 L 0.15353084,10.955643 L 0.11550327,11.541297 L 0.11550327,11.541297 L 0.15353084,12.12695 L 0.26760898,12.693081 L 0.47676065,13.278734 L 0.76195982,13.825344 L 1.1422325,14.410996 L 1.5795405,14.957605 L 2.1309311,15.523736 L 2.7203448,16.070348 L 3.4048335,16.597435 L 4.1653682,17.085479 L 4.9829488,17.593043 L 5.8765785,18.100608 L 6.8462664,18.549609 L 7.8729941,18.998611 L 8.9757693,19.447613 L 10.135592,19.857571 L 11.333442,20.248007 L 12.607342,20.599396 L 13.919273,20.950787 L 15.28824,21.263135 L 16.695234,21.575486 L 18.140258,21.829265 L 19.623307,22.083049 L 21.125372,22.297787 L 22.684472,22.473485 L 24.243576,22.629661 L 25.840705,22.766312 L 27.45685,22.863921 L 29.053981,22.942009 L 30.689136,23.000574 L 32.324296,23.000574 L 32.324296,23.000574 L 33.940437,23.000574 L 35.575597,22.942009 L 37.191738,22.863921 L 38.788867,22.766312 L 40.385997,22.629661 L 41.964114,22.473485 L 43.504204,22.297787 L 45.006267,22.083049 L 46.489316,21.829265 L 47.934339,21.575486 L 49.341334,21.263135 L 50.710303,20.950787 L 52.022232,20.599396 L 53.296132,20.248007 L 54.493981,19.857571 L 55.6538,19.447613 L 56.75658,18.998611 L 57.783307,18.549609 L 58.752993,18.100608 L 59.646626,17.593043 L 60.464203,17.085479 L 61.224742,16.597435 L 61.909226,16.070348 L 62.517657,15.523736 L 63.050034,14.957605 L 63.487345,14.410996 L 63.867612,13.825344 L 64.152814,13.278734 L 64.342949,12.693081 L 64.457031,12.12695 L 64.514069,11.541297"
       style="fill:url(#linearGradient2216);fill-opacity:1;stroke:none;stroke-width:0.01928605;stroke-miterlimit:4;stroke-dasharray:none;stroke-opacity:1" />
    <path
       d="M 2.9265595,6.8895923 L 5.6373838,5.3601584 L 8.7134984,3.7115477 L 12.693221,2.4403287 L 14.250503,1.6656807 L 15.11566,1.6656807 L 15.846236,1.6656807 L 16.211526,2.0629359 L 16.596038,2.4403287 L 17.076682,2.9170364 L 17.826485,3.7115477 L 18.191773,4.0889405 L 19.056931,4.9827655 L 20.172021,5.3601584 L 20.902598,5.7375513 L 22.133044,5.7375513 L 22.882846,5.7375513 L 24.113292,5.7375513 L 24.84387,5.3601584 L 25.6898,4.9827655 L 26.420378,4.0889405 L 27.689274,3.3341547 L 29.285008,2.0629359 L 30.4001,1.6656807 L 31.630544,1.6656807 L 32.726411,1.6656807 L 33.93763,1.6656807 L 35.071948,2.0629359 L 36.302392,2.9170364 L 37.513612,3.7115477 L 38.647929,4.4464701 L 39.859148,5.3601584 L 40.993466,5.7375513 L 42.550748,5.7375513 L 43.781194,5.7375513 L 44.877059,5.3601584 L 46.126731,4.9827655 L 47.222596,4.0889405 L 48.106979,3.3341547 L 48.837556,2.4403287 L 50.068001,2.0629359 L 50.817804,2.0629359 L 51.663735,2.0629359 L 53.144116,2.9170364 L 54.759075,3.3341547 L 55.970293,3.7115477 L 57.585253,4.4464701 L 58.681119,4.9827655 L 59.430923,5.3601584 L 60.296079,5.7375513 L 57.085385,4.9827655 L 55.124363,4.9827655 L 54.009272,4.9827655 L 52.413538,5.3601584 L 51.183091,5.7375513 L 50.068001,6.5320618 L 48.837556,7.4060243 L 47.722465,7.7834172 L 46.49202,8.1608101 L 44.530997,8.5382041 L 42.550748,8.9354593 L 40.993466,8.5382041 L 39.493861,8.5382041 L 38.647929,7.7834172 L 37.917352,7.4060243 L 37.052195,6.5320618 L 36.302392,5.7375513 L 35.071948,5.3601584 L 33.93763,4.9827655 L 32.361122,4.9827655 L 31.246031,4.9827655 L 30.015585,5.3601584 L 29.285008,5.7375513 L 28.054563,6.5320618 L 26.824117,7.4060243 L 25.6898,8.1608101 L 24.47858,8.5382041 L 23.344264,8.9354593 L 21.402467,8.9354593 L 19.422219,8.9354593 L 18.191773,8.1608101 L 17.461197,7.7834172 L 16.211526,6.8895923 L 15.480948,6.1348065 L 14.615792,5.7375513 L 13.519926,4.9827655 L 11.558903,4.9827655 L 10.328458,4.9827655 L 8.7134984,4.9827655 L 7.9829211,4.9827655 L 6.7524754,5.3601584 L 5.2720957,5.7375513 L 2.9265595,6.8895923"
       id="path2472"
       style="fill:#0082a0;stroke:none;stroke-width:0.001;fill-opacity:1" />
    <path
       id="path4819"
       d="M 33.023738,8.6936939 L 37.664889,10.327433 L 48.909313,5.4458969 L 53.946665,7.0599533 L 51.229891,3.0248142 L 38.061087,3.0248142 L 43.475766,4.225514 L 33.023738,8.6936939"
       style="fill:#000000;stroke:none;stroke-width:0.001" />
    <path
       d="M 0.46566785,9.8292844 L 0.10037977,10.58407 L 0.10037977,11.477897 L 0.10037977,11.855288 L 0.10037977,12.629938 L 0.46566785,13.484036 L 0.46566785,13.901155 L 2.0614017,13.00733 L 3.2918475,12.232683 L 4.0416509,11.855288 L 4.9068076,11.477897 L 6.002673,11.477897 L 7.2331178,10.961463 L 8.7134984,10.961463 L 10.328458,10.961463 L 11.21284,10.961463 L 12.28948,11.477897 L 13.154637,11.855288 L 13.885214,11.855288 L 14.615792,12.629938 L 15.480948,13.00733 L 17.076682,13.901155 L 17.826485,14.65594 L 19.422219,15.033333 L 21.402467,15.033333 L 22.882846,15.033333 L 24.113292,15.033333 L 24.84387,15.033333 L 26.055089,14.65594 L 26.824117,13.901155 L 27.689274,13.00733 L 28.400625,12.232683 L 30.015585,11.477897 L 31.246031,10.961463 L 33.110924,11.477897 L 34.34137,11.477897 L 35.071948,11.855288 L 35.937104,12.629938 L 37.052195,13.484036 L 37.917352,13.901155 L 38.647929,14.278547 L 40.224438,15.033333 L 42.18546,15.033333 L 43.415907,15.033333 L 44.877059,14.65594 L 46.857307,13.901155 L 47.722465,13.484036 L 48.837556,13.00733 L 50.068001,12.232683 L 51.183091,11.855288 L 52.413538,11.477897 L 54.009272,10.961463 L 55.624231,10.961463 L 57.085385,10.961463 L 57.950544,10.961463 L 59.065634,11.477897 L 60.296079,11.855288 L 61.391944,11.855288 L 63.987415,13.384725 L 64.102769,11.855288 L 64.23735,10.58407 L 63.006904,9.8292844 L 61.391944,8.9354593 L 59.911565,8.5382041 L 57.950544,7.7834172 L 56.720097,7.7834172 L 55.624231,7.7834172 L 54.37456,8.1608101 L 53.144116,8.5382041 L 52.04825,8.9354593 L 50.817804,9.4320291 L 49.202845,10.206677 L 48.106979,10.58407 L 46.49202,11.477897 L 44.877059,11.855288 L 43.415907,12.232683 L 42.18546,12.232683 L 40.993466,11.855288 L 40.224438,11.855288 L 38.993992,11.477897 L 38.282642,10.58407 L 37.513612,9.8292844 L 36.648455,8.9354593 L 35.571816,8.5382041 L 34.706659,8.1608101 L 33.93763,7.7834172 L 33.110924,7.7834172 L 31.995834,7.4060243 L 31.246031,7.7834172 L 30.4001,7.7834172 L 29.650297,8.1608101 L 28.765915,8.5382041 L 28.054563,9.4320291 L 26.824117,10.58407 L 25.6898,11.477897 L 24.84387,11.855288 L 24.113292,11.855288 L 22.882846,12.232683 L 21.767755,12.232683 L 20.902598,12.232683 L 19.787507,11.855288 L 19.056931,11.477897 L 17.826485,10.58407 L 16.596038,9.8292844 L 15.480948,9.4320291 L 14.615792,8.5382041 L 13.885214,8.1608101 L 13.154637,7.7834172 L 11.924192,7.4060243 L 10.328458,7.4060243 L 9.213367,7.4060243 L 7.9829211,7.4060243 L 6.7524754,7.7834172 L 6.002673,7.7834172 L 5.2720957,8.1608101 L 4.0416509,8.5382041 L 3.2918475,8.5382041 L 2.4651423,8.9354593 L 2.0614017,9.4320291 L 1.3308255,9.4320291 L 0.46566785,9.8292844"
       id="path2474"
       style="fill:#0082a0;stroke:none;stroke-width:0.001;fill-opacity:1" />
    <path
       id="path4821"
       d="M 31.08049,13.161874 L 26.439334,11.528132 L 15.591104,16.429352 L 10.176425,14.775929 L 12.874332,19.244109 L 26.439334,19.244109 L 20.628458,17.630052 L 31.08049,13.161874"
       style="fill:#000000;stroke:none;stroke-width:0.001" />
    <path
       d="M 32.361122,13.901155 L 33.110924,13.901155 L 34.34137,13.901155 L 35.071948,14.278547 L 35.571816,14.65594 L 36.302392,15.033333 L 37.052195,15.549766 L 37.513612,16.284688 L 38.282642,16.701807 L 38.647929,17.079199 L 39.493861,17.595631 L 39.859148,17.973025 L 40.628178,17.973025 L 41.454882,18.350417 L 42.18546,18.350417 L 42.916037,18.350417 L 44.146482,17.973025 L 44.877059,17.973025 L 45.761442,17.595631 L 46.857307,17.079199 L 48.106979,16.284688 L 48.837556,15.927158 L 49.702713,15.549766 L 50.43329,14.65594 L 51.183091,14.278547 L 52.413538,13.901155 L 53.643985,13.901155 L 54.37456,13.901155 L 55.124363,13.901155 L 56.354809,13.901155 L 57.585253,14.278547 L 58.681119,14.278547 L 59.911565,14.65594 L 60.661368,15.033333 L 61.391944,15.549766 L 62.276328,15.927158 L 61.026657,16.701807 L 59.430923,17.973025 L 58.681119,17.595631 L 57.950544,17.079199 L 57.085385,16.701807 L 55.970293,16.701807 L 54.759075,16.701807 L 53.643985,16.701807 L 52.778825,17.079199 L 51.663735,17.595631 L 50.817804,17.973025 L 49.702713,18.707947 L 48.837556,19.621636 L 47.722465,20.356558 L 46.126731,20.773677 L 44.530997,21.15107 L 42.916037,21.15107 L 41.820172,21.508599 L 40.628178,21.15107 L 39.493861,20.773677 L 38.647929,20.356558 L 37.917352,19.979166 L 37.052195,19.085341 L 36.648455,18.350417 L 35.937104,17.973025 L 35.071948,17.595631 L 34.34137,17.595631 L 33.110924,17.595631 L 31.995834,17.595631 L 30.765388,17.595631 L 29.650297,17.973025 L 28.765915,18.350417 L 28.054563,18.707947 L 27.689274,19.085341 L 26.824117,19.979166 L 26.055089,20.773677 L 24.84387,21.15107 L 24.113292,21.508599 L 22.882846,21.508599 L 21.767755,21.508599 L 20.53731,21.508599 L 19.422219,21.15107 L 18.557062,21.15107 L 17.826485,20.356558 L 16.596038,19.621636 L 15.846236,18.707947 L 15.11566,18.350417 L 13.885214,17.973025 L 13.154637,17.595631 L 11.924192,17.595631 L 10.693745,17.595631 L 9.213367,17.595631 L 7.9829211,17.595631 L 7.2331178,17.973025 L 6.7524754,17.973025 L 6.3871873,18.350417 L 6.3871873,18.707947 L 4.9068076,17.973025 L 4.0416509,17.079199 L 3.2918475,16.701807 L 4.406939,15.549766 L 6.002673,14.65594 L 7.2331178,14.278547 L 8.7134984,13.901155 L 9.9823946,13.901155 L 11.558903,13.901155 L 12.28948,14.278547 L 13.154637,14.278547 L 14.250503,14.65594 L 15.11566,15.033333 L 15.846236,15.927158 L 16.596038,16.284688 L 17.826485,17.079199 L 19.056931,17.973025 L 20.172021,18.350417 L 21.767755,18.350417 L 22.882846,18.350417 L 24.47858,17.973025 L 25.343738,17.595631 L 26.055089,17.079199 L 26.824117,16.701807 L 27.689274,15.927158 L 28.400625,15.033333 L 29.650297,14.278547 L 30.4001,13.901155 L 31.630544,13.901155 L 32.361122,13.901155"
       id="path2476"
       style="fill:#0082a0;stroke:none;stroke-width:0.001;fill-opacity:1" />
    <path
       id="path4823"
       d="M 11.327278,4.225514 L 15.968435,2.611458 L 27.212859,7.0599533 L 32.25021,5.8592533 L 29.552303,9.8943939 L 16.364632,9.8943939 L 21.779313,8.6936939 L 11.327278,4.225514"
       style="fill:#000000;stroke:none;stroke-width:0.001" />
    <path
       id="path4825"
       d="M 53.154272,18.023723 L 48.513117,19.657467 L 37.664889,14.775929 L 32.25021,16.429352 L 34.966985,12.33516 L 48.513117,12.33516 L 42.70224,13.555544 L 53.154272,18.023723"
       style="fill:#000000;stroke:none;stroke-width:0.001" />
    <path
       id="path4827"
       d="M 33.419936,9.1070493 L 38.061087,10.721105 L 49.286643,5.8592533 L 54.323994,7.4929926 L 51.60722,3.4184854 L 38.438415,3.4184854 L 43.871962,4.6191872 L 33.419936,9.1070493"
       style="fill:#ffffff;stroke:none;stroke-width:0.001" />
    <path
       id="path4829"
       d="M 31.476681,13.555544 L 26.816665,11.941487 L 15.968435,16.803341 L 10.553753,15.189284 L 13.25166,19.657467 L 26.816665,19.657467 L 21.005786,18.023723 L 31.476681,13.555544"
       style="fill:#ffffff;stroke:none;stroke-width:0.001" />
    <path
       id="path4831"
       d="M 11.723476,4.6191872 L 16.364632,3.0248142 L 27.609055,7.4929926 L 32.627541,6.2529266 L 29.929634,10.327433 L 16.741963,10.327433 L 22.175509,9.1070493 L 11.723476,4.6191872"
       style="fill:#ffffff;stroke:none;stroke-width:0.001" />
    <path
       id="path4833"
       d="M 53.531602,18.43708 L 48.909313,20.070823 L 38.061087,15.189284 L 32.627541,16.803341 L 35.344315,12.7682 L 48.909313,12.7682 L 43.098437,13.9689 L 53.531602,18.43708"
       style="fill:#ffffff;stroke:none;stroke-width:0.001" />
  </g>
</svg>
