<?xml version="1.0" encoding="UTF-8" standalone="no"?>
<!-- Created with Inkscape (http://www.inkscape.org/) -->
<svg
   xmlns:dc="http://purl.org/dc/elements/1.1/"
   xmlns:cc="http://web.resource.org/cc/"
   xmlns:rdf="http://www.w3.org/1999/02/22-rdf-syntax-ns#"
   xmlns:svg="http://www.w3.org/2000/svg"
   xmlns="http://www.w3.org/2000/svg"
   xmlns:xlink="http://www.w3.org/1999/xlink"
   xmlns:sodipodi="http://sodipodi.sourceforge.net/DTD/sodipodi-0.dtd"
   xmlns:inkscape="http://www.inkscape.org/namespaces/inkscape"
   id="svg1998"
   sodipodi:version="0.32"
   inkscape:version="0.45"
   width="51.399269"
   height="66.033699"
   version="1.0"
   sodipodi:docbase="/home/grossmj/workspace/gns3-artwork/symbols"
   sodipodi:docname="route_swproc.selected.svg"
   inkscape:output_extension="org.inkscape.output.svg.inkscape"
   sodipodi:modified="true">
  <metadata
     id="metadata2003">
    <rdf:RDF>
      <cc:Work
         rdf:about="">
        <dc:format>image/svg+xml</dc:format>
        <dc:type
           rdf:resource="http://purl.org/dc/dcmitype/StillImage" />
        <dc:title>Route switch processor</dc:title>
        <dc:creator>
          <cc:Agent>
            <dc:title>Jeremy Grossmann</dc:title>
          </cc:Agent>
        </dc:creator>
        <dc:publisher>
          <cc:Agent>
            <dc:title>GNS-3</dc:title>
          </cc:Agent>
        </dc:publisher>
        <dc:description>Created for the GNS-3 project (www.gns3.net)</dc:description>
        <cc:license
           rdf:resource="http://creativecommons.org/licenses/GPL/2.0/" />
      </cc:Work>
      <cc:License
         rdf:about="http://creativecommons.org/licenses/GPL/2.0/">
        <cc:permits
           rdf:resource="http://web.resource.org/cc/Reproduction" />
        <cc:permits
           rdf:resource="http://web.resource.org/cc/Distribution" />
        <cc:requires
           rdf:resource="http://web.resource.org/cc/Notice" />
        <cc:permits
           rdf:resource="http://web.resource.org/cc/DerivativeWorks" />
        <cc:requires
           rdf:resource="http://web.resource.org/cc/ShareAlike" />
        <cc:requires
           rdf:resource="http://web.resource.org/cc/SourceCode" />
      </cc:License>
    </rdf:RDF>
  </metadata>
  <defs
     id="defs2001">
    <linearGradient
       id="linearGradient2276">
      <stop
         style="stop-color:#e4405c;stop-opacity:1;"
         offset="0"
         id="stop2278" />
      <stop
         style="stop-color:#e4405c;stop-opacity:0;"
         offset="1"
         id="stop2280" />
    </linearGradient>
    <linearGradient
       inkscape:collect="always"
       id="linearGradient10123">
      <stop
         style="stop-color:#e4405c;stop-opacity:1;"
         offset="0"
         id="stop10125" />
      <stop
         style="stop-color:#e4405c;stop-opacity:0;"
         offset="1"
         id="stop10127" />
    </linearGradient>
    <linearGradient
       inkscape:collect="always"
       id="linearGradient6603">
      <stop
         style="stop-color:#506eaa;stop-opacity:1;"
         offset="0"
         id="stop6605" />
      <stop
         style="stop-color:#506eaa;stop-opacity:0;"
         offset="1"
         id="stop6607" />
    </linearGradient>
    <linearGradient
       inkscape:collect="always"
       id="linearGradient6587">
      <stop
         style="stop-color:#506eaa;stop-opacity:1;"
         offset="0"
         id="stop6589" />
      <stop
         style="stop-color:#506eaa;stop-opacity:0;"
         offset="1"
         id="stop6591" />
    </linearGradient>
    <marker
       inkscape:stockid="Arrow2Lstart"
       orient="auto"
       refY="0"
       refX="0"
       id="Arrow2Lstart"
       style="overflow:visible">
      <path
         id="path11918"
         style="font-size:12px;fill-rule:evenodd;stroke-width:0.625;stroke-linejoin:round"
         d="M 8.7185878,4.0337352 L -2.2072895,0.016013256 L 8.7185884,-4.0017078 C 6.97309,-1.6296469 6.9831476,1.6157441 8.7185878,4.0337352 z "
         transform="matrix(1.1,0,0,1.1,1.1,0)" />
    </marker>
    <marker
       inkscape:stockid="Arrow1Send"
       orient="auto"
       refY="0"
       refX="0"
       id="Arrow1Send"
       style="overflow:visible">
      <path
         id="path11921"
         d="M 0,0 L 5,-5 L -12.5,0 L 5,5 L 0,0 z "
         style="fill-rule:evenodd;stroke:black;stroke-width:1pt;marker-start:none"
         transform="matrix(-0.2,0,0,-0.2,-1.2,0)" />
    </marker>
    <marker
       inkscape:stockid="Arrow1Lstart"
       orient="auto"
       refY="0"
       refX="0"
       id="Arrow1Lstart"
       style="overflow:visible">
      <path
         id="path11936"
         d="M 0,0 L 5,-5 L -12.5,0 L 5,5 L 0,0 z "
         style="fill-rule:evenodd;stroke:black;stroke-width:1pt;marker-start:none"
         transform="matrix(0.8,0,0,0.8,10,0)" />
    </marker>
    <linearGradient
       inkscape:collect="always"
       xlink:href="#linearGradient6587"
       id="linearGradient6593"
       x1="3.95626"
       y1="0.64267641"
       x2="-1.2664427"
       y2="0.62730032"
       gradientUnits="userSpaceOnUse"
       gradientTransform="matrix(1.060042,0,0,1.074658,-3.942481e-3,-0.356572)" />
    <linearGradient
       inkscape:collect="always"
       xlink:href="#linearGradient6603"
       id="linearGradient6609"
       x1="2.2801981"
       y1="1.4519272"
       x2="-0.41311559"
       y2="1.4649135"
       gradientUnits="userSpaceOnUse"
       gradientTransform="matrix(1.060042,0,0,1.074658,-3.942482e-3,-0.356572)" />
    <linearGradient
       inkscape:collect="always"
       xlink:href="#linearGradient10123"
       id="linearGradient10129"
       x1="1.3990936"
       y1="1.4711363"
       x2="0.49966058"
       y2="0.56367606"
       gradientUnits="userSpaceOnUse"
       gradientTransform="matrix(1.117962,0,0,1.035008,-4.0972948e-2,-6.788682e-3)" />
  </defs>
  <sodipodi:namedview
     inkscape:window-height="979"
     inkscape:window-width="1400"
     inkscape:pageshadow="2"
     inkscape:pageopacity="0.0"
     guidetolerance="10.0"
     gridtolerance="10.0"
     objecttolerance="10.0"
     borderopacity="1.0"
     bordercolor="#666666"
     pagecolor="#ffffff"
     id="base"
     showguides="true"
     inkscape:guide-bbox="true"
     inkscape:zoom="15.791667"
     inkscape:cx="33.183505"
     inkscape:cy="49.541423"
     inkscape:window-x="0"
     inkscape:window-y="25"
     inkscape:current-layer="g2219" />
  <g
     transform="matrix(22.004446,0,0,22.500606,-7.6055081,13.899756)"
     id="g2092">
    <path
       style="fill:#000000;fill-opacity:0.55686277;stroke:none;stroke-width:0.001"
       d="M 0.43110517,2.1751508 L 0.43110517,2.3107063 L 2.3604202,2.3107063 L 2.3604202,2.1751508 L 0.43110517,2.1751508"
       id="path11907" />
    <path
       sodipodi:nodetypes="ccccc"
       style="fill:#000000;fill-opacity:0.55686277;stroke:none;stroke-width:0.001"
       d="M 2.363911,-0.31376958 L 2.6768953,-0.58611604 L 2.6753887,2.0318074 L 2.3600205,2.3090414 L 2.363911,-0.31376958"
       id="path11020" />
    <path
       style="fill:#49659d;fill-opacity:1;stroke:none;stroke-width:0.001"
       d="M 0.34827089,0.38881235 L 0.34827089,2.2534288 L 2.3622275,2.2534288 L 2.3622275,0.38881235 L 0.34827089,0.38881235"
       id="path2037" />
    <path
       sodipodi:nodetypes="ccccc"
       style="fill:#495b89;fill-opacity:1;stroke:none;stroke-width:0.001"
       d="M 2.3564399,0.41069919 L 2.6225552,0.2198796 L 2.6255673,2.0327286 L 2.3564399,2.2546248 L 2.3564399,0.41069919"
       id="path2045" />
    <path
       style="fill:#000000;stroke:none;stroke-width:0.001"
       d="M 1.1373589,1.2517816 L 0.605209,1.2517816 L 0.605209,1.183471 L 0.44198655,1.3200921 L 0.605209,1.4722384 L 0.605209,1.4049628 L 1.1373589,1.4049628 L 1.1373589,1.2517816"
       id="path2049" />
    <path
       style="fill:#000000;stroke:none;stroke-width:0.001"
       d="M 1.2458012,1.1503507 L 0.86234024,0.79430784 L 0.91712037,0.74359243 L 0.69799984,0.74359243 L 0.69799984,0.94645408 L 0.75166201,0.89573867 L 1.1373589,1.2517816 L 1.2458012,1.1503507"
       id="path2051" />
    <path
       style="fill:#000000;stroke:none;stroke-width:0.001"
       d="M 1.4101416,1.1503507 L 1.4101416,0.64112659 L 1.4828091,0.64112659 L 1.3374741,0.50554049 L 1.1731337,0.64112659 L 1.2458012,0.64112659 L 1.2458012,1.1503507 L 1.4101416,1.1503507"
       id="path2053" />
    <path
       style="fill:#000000;stroke:none;stroke-width:0.001"
       d="M 1.5208198,1.2517816 L 1.9053987,0.89573867 L 1.9590609,0.94645408 L 1.9590609,0.74359243 L 1.7410583,0.74359243 L 1.7947205,0.79430784 L 1.4101416,1.1503507 L 1.5208198,1.2517816"
       id="path2055" />
    <path
       style="fill:#000000;stroke:none;stroke-width:0.001"
       d="M 1.5208198,1.4049628 L 2.0686212,1.4049628 L 2.0686212,1.4722384 L 2.2161921,1.3200921 L 2.0686212,1.183471 L 2.0686212,1.2517816 L 1.5208198,1.2517816 L 1.5208198,1.4049628"
       id="path2057" />
    <path
       style="fill:#000000;stroke:none;stroke-width:0.001"
       d="M 1.4101416,1.5063936 L 1.7947205,1.8624365 L 1.7410583,1.914187 L 1.9590609,1.8976268 L 1.9590609,1.7113253 L 1.9053987,1.7620407 L 1.5208198,1.4049628 L 1.4101416,1.5063936"
       id="path2059" />
    <path
       style="fill:#000000;stroke:none;stroke-width:0.001"
       d="M 1.2458012,1.5063936 L 1.2458012,2.0166528 L 1.1731337,2.0166528 L 1.3374741,2.1512039 L 1.4828091,2.0166528 L 1.4101416,2.0166528 L 1.4101416,1.5063936 L 1.2458012,1.5063936"
       id="path2061" />
    <path
       style="fill:#000000;stroke:none;stroke-width:0.001"
       d="M 1.1373589,1.4049628 L 0.75166201,1.7620407 L 0.69799984,1.7113253 L 0.69799984,1.914187 L 0.91712037,1.914187 L 0.86234024,1.8624365 L 1.2458012,1.5063936 L 1.1373589,1.4049628"
       id="path2063" />
    <path
       style="fill:#ffffff;stroke:none;stroke-width:0.001"
       d="M 1.1541283,1.2693767 L 0.62421435,1.2693767 L 0.62421435,1.2010662 L 0.45987395,1.3366523 L 0.62421435,1.4898335 L 0.62421435,1.422558 L 1.1541283,1.422558 L 1.1541283,1.2693767"
       id="path2065" />
    <path
       style="fill:#ffffff;stroke:none;stroke-width:0.001"
       d="M 1.2648065,1.1679459 L 0.88022763,0.81086798 L 0.93612573,0.76015256 L 0.71588723,0.76015256 L 0.71588723,0.96404922 L 0.7695494,0.9122988 L 1.1541283,1.2693767 L 1.2648065,1.1679459"
       id="path2067" />
    <path
       style="fill:#ffffff;stroke:none;stroke-width:0.001"
       d="M 1.4291469,1.1679459 L 1.4291469,0.65768673 L 1.5018145,0.65768673 L 1.3553614,0.52210063 L 1.191021,0.65768673 L 1.2648065,0.65768673 L 1.2648065,1.1679459 L 1.4291469,1.1679459"
       id="path2069" />
    <path
       style="fill:#ffffff;stroke:none;stroke-width:0.001"
       d="M 1.5398252,1.2693767 L 1.9232861,0.9122988 L 1.9780662,0.96404922 L 1.9780662,0.76015256 L 1.7578277,0.76015256 L 1.8126079,0.81086798 L 1.4291469,1.1679459 L 1.5398252,1.2693767"
       id="path2071" />
    <path
       style="fill:#ffffff;stroke:none;stroke-width:0.001"
       d="M 1.5398252,1.422558 L 2.0865085,1.422558 L 2.0865085,1.4898335 L 2.2340795,1.3366523 L 2.0865085,1.2010662 L 2.0865085,1.2693767 L 1.5398252,1.2693767 L 1.5398252,1.422558"
       id="path2073" />
    <path
       style="fill:#ffffff;stroke:none;stroke-width:0.001"
       d="M 1.4291469,1.5239888 L 1.8126079,1.8800317 L 1.7578277,1.9307471 L 1.9780662,1.914187 L 1.9780662,1.7268504 L 1.9232861,1.7775658 L 1.5398252,1.422558 L 1.4291469,1.5239888"
       id="path2075" />
    <path
       style="fill:#ffffff;stroke:none;stroke-width:0.001"
       d="M 1.2648065,1.5239888 L 1.2648065,2.0321779 L 1.191021,2.0321779 L 1.3553614,2.168799 L 1.5018145,2.0321779 L 1.4291469,2.0321779 L 1.4291469,1.5239888 L 1.2648065,1.5239888"
       id="path2077" />
    <path
       style="fill:#ffffff;stroke:none;stroke-width:0.001"
       d="M 1.1541283,1.422558 L 0.7695494,1.7775658 L 0.71588723,1.7268504 L 0.71588723,1.9307471 L 0.93612573,1.9307471 L 0.88022763,1.8800317 L 1.2648065,1.5239888 L 1.1541283,1.422558"
       id="path2079" />
    <path
       style="fill:#000000;stroke:none;stroke-width:0.001"
       d="M 1.6303801,1.3449323 L 1.6292621,1.3314772 L 1.6281442,1.3159521 L 1.6259082,1.302497 L 1.6236723,1.2890419 L 1.6203184,1.2745518 L 1.6158466,1.2610966 L 1.6102568,1.2476415 L 1.6057849,1.2341864 L 1.5990771,1.2217663 L 1.5923694,1.2093462 L 1.5845436,1.1969261 L 1.5755999,1.184506 L 1.5666563,1.1731209 L 1.5565946,1.1627708 L 1.5465329,1.1513857 L 1.5364713,1.1420707 L 1.5241737,1.1327556 L 1.5129941,1.1234405 L 1.5006965,1.1151605 L 1.4883989,1.1079154 L 1.4738654,1.0996353 L 1.4615678,1.0934253 L 1.4470343,1.0882502 L 1.4325008,1.0830752 L 1.4190853,1.0779002 L 1.4034338,1.0747951 L 1.3900183,1.0706551 L 1.3732488,1.0685851 L 1.3587153,1.0665151 L 1.3430639,1.06548 L 1.3285304,1.06548 L 1.3285304,1.06548 L 1.3128789,1.06548 L 1.2983454,1.0665151 L 1.2826939,1.0685851 L 1.2681604,1.0706551 L 1.2525089,1.0747951 L 1.2379754,1.0779002 L 1.2234419,1.0830752 L 1.2089084,1.0882502 L 1.1954929,1.0934253 L 1.1831953,1.0996353 L 1.1686618,1.1079154 L 1.1552463,1.1151605 L 1.1440666,1.1234405 L 1.1317691,1.1327556 L 1.1205894,1.1420707 L 1.1105278,1.1513857 L 1.0993482,1.1627708 L 1.0904045,1.1731209 L 1.0814608,1.184506 L 1.0725171,1.1969261 L 1.0646913,1.2093462 L 1.0579836,1.2217663 L 1.0512758,1.2341864 L 1.045686,1.2476415 L 1.0400962,1.2610966 L 1.0367423,1.2745518 L 1.0333884,1.2890419 L 1.0300345,1.302497 L 1.0277986,1.3159521 L 1.0277986,1.3314772 L 1.0266806,1.3449323 L 1.0266806,1.3449323 L 1.0277986,1.3583874 L 1.0277986,1.3728776 L 1.0300345,1.3873677 L 1.0333884,1.4018578 L 1.0367423,1.4153129 L 1.0400962,1.428768 L 1.045686,1.4422231 L 1.0512758,1.4556782 L 1.0579836,1.4680983 L 1.0646913,1.4805184 L 1.0725171,1.4929385 L 1.0814608,1.5053586 L 1.0904045,1.5167437 L 1.0993482,1.5270938 L 1.1105278,1.5374439 L 1.1205894,1.547794 L 1.1317691,1.5571091 L 1.1440666,1.5664241 L 1.1552463,1.5747042 L 1.1686618,1.5819493 L 1.1831953,1.5891943 L 1.1954929,1.5964394 L 1.2089084,1.6026494 L 1.2234419,1.6078245 L 1.2379754,1.6109295 L 1.2525089,1.6150695 L 1.2681604,1.6192096 L 1.2826939,1.6202446 L 1.2983454,1.6233496 L 1.3128789,1.6243846 L 1.3285304,1.6243846 L 1.3285304,1.6243846 L 1.3430639,1.6243846 L 1.3587153,1.6233496 L 1.3732488,1.6202446 L 1.3900183,1.6192096 L 1.4034338,1.6150695 L 1.4190853,1.6109295 L 1.4325008,1.6078245 L 1.4470343,1.6026494 L 1.4615678,1.5964394 L 1.4738654,1.5891943 L 1.4883989,1.5819493 L 1.5006965,1.5747042 L 1.5129941,1.5664241 L 1.5241737,1.5571091 L 1.5364713,1.547794 L 1.5465329,1.5374439 L 1.5565946,1.5270938 L 1.5666563,1.5167437 L 1.5755999,1.5053586 L 1.5845436,1.4929385 L 1.5923694,1.4805184 L 1.5990771,1.4680983 L 1.6057849,1.4556782 L 1.6102568,1.4422231 L 1.6158466,1.428768 L 1.6203184,1.4153129 L 1.6236723,1.4018578 L 1.6259082,1.3873677 L 1.6281442,1.3728776 L 1.6292621,1.3583874 L 1.6303801,1.3449323"
       id="path2081" />
    <path
       style="fill:#ffffff;stroke:none;stroke-width:0.001"
       d="M 1.6661549,1.3790876 L 1.6650369,1.3656325 L 1.6639189,1.3511424 L 1.661683,1.3366523 L 1.6605651,1.3221621 L 1.6560932,1.308707 L 1.6516214,1.2952519 L 1.6471495,1.2817968 L 1.6415597,1.2693767 L 1.6348519,1.2559216 L 1.6281442,1.2435015 L 1.6203184,1.2310814 L 1.6124927,1.2186613 L 1.602431,1.2072762 L 1.5923694,1.1969261 L 1.5834257,1.186576 L 1.5722461,1.176226 L 1.5599485,1.1669109 L 1.5487689,1.1575958 L 1.5364713,1.1493157 L 1.5241737,1.1420707 L 1.5107582,1.1348256 L 1.4973426,1.1275806 L 1.4828091,1.1213705 L 1.4693936,1.1161955 L 1.4548601,1.1120554 L 1.4403266,1.1089504 L 1.425793,1.1048104 L 1.4101416,1.1027404 L 1.3956081,1.1006703 L 1.3799566,1.0996353 L 1.3643051,1.0996353 L 1.3643051,1.0996353 L 1.3486537,1.0996353 L 1.3341202,1.1006703 L 1.3195867,1.1027404 L 1.3039352,1.1048104 L 1.2894017,1.1089504 L 1.2748682,1.1120554 L 1.2592167,1.1161955 L 1.2458012,1.1213705 L 1.2323856,1.1275806 L 1.2178521,1.1348256 L 1.2055545,1.1420707 L 1.192139,1.1493157 L 1.1798414,1.1575958 L 1.1675438,1.1669109 L 1.1563642,1.176226 L 1.1463026,1.186576 L 1.1351229,1.1969261 L 1.1261793,1.2072762 L 1.1172356,1.2186613 L 1.1082919,1.2310814 L 1.1004661,1.2435015 L 1.0937584,1.2559216 L 1.0870506,1.2693767 L 1.0814608,1.2817968 L 1.0769889,1.2952519 L 1.0725171,1.308707 L 1.0691632,1.3221621 L 1.0669273,1.3366523 L 1.0646913,1.3511424 L 1.0635734,1.3656325 L 1.0635734,1.3790876 L 1.0635734,1.3790876 L 1.0635734,1.3935777 L 1.0646913,1.4080678 L 1.0669273,1.4204879 L 1.0691632,1.4349781 L 1.0725171,1.4494682 L 1.0769889,1.4629233 L 1.0814608,1.4763784 L 1.0870506,1.4898335 L 1.0937584,1.5022536 L 1.1004661,1.5146737 L 1.1082919,1.5270938 L 1.1172356,1.5384789 L 1.1261793,1.550899 L 1.1351229,1.5612491 L 1.1463026,1.5715992 L 1.1563642,1.5819493 L 1.1675438,1.5912643 L 1.1798414,1.5995444 L 1.192139,1.6088595 L 1.2055545,1.6161045 L 1.2178521,1.6233496 L 1.2323856,1.6305947 L 1.2458012,1.6357697 L 1.2592167,1.6409447 L 1.2748682,1.6461198 L 1.2894017,1.6502598 L 1.3039352,1.6533648 L 1.3195867,1.6554349 L 1.3341202,1.6575049 L 1.3486537,1.6585399 L 1.3643051,1.6585399 L 1.3643051,1.6585399 L 1.3799566,1.6585399 L 1.3956081,1.6575049 L 1.4101416,1.6554349 L 1.425793,1.6533648 L 1.4403266,1.6502598 L 1.4548601,1.6461198 L 1.4693936,1.6409447 L 1.4828091,1.6357697 L 1.4973426,1.6305947 L 1.5107582,1.6233496 L 1.5241737,1.6161045 L 1.5364713,1.6088595 L 1.5487689,1.5995444 L 1.5599485,1.5912643 L 1.5722461,1.5819493 L 1.5834257,1.5715992 L 1.5923694,1.5612491 L 1.602431,1.550899 L 1.6124927,1.5384789 L 1.6203184,1.5270938 L 1.6281442,1.5146737 L 1.6348519,1.5022536 L 1.6415597,1.4898335 L 1.6471495,1.4763784 L 1.6516214,1.4629233 L 1.6560932,1.4494682 L 1.6605651,1.4349781 L 1.661683,1.4204879 L 1.6639189,1.4080678 L 1.6650369,1.3935777 L 1.6661549,1.3790876"
       id="path2083" />
    <path
       style="fill:url(#linearGradient10129);fill-opacity:1;stroke:none;stroke-width:0.001"
       d="M 1.6471495,1.3625275 L 1.6460315,1.3480374 L 1.6460315,1.3335472 L 1.6437956,1.3200921 L 1.6404417,1.305602 L 1.6370879,1.2921469 L 1.633734,1.2786918 L 1.6281442,1.2652367 L 1.6225543,1.2517816 L 1.6169645,1.2393615 L 1.6102568,1.2269414 L 1.6013131,1.2145213 L 1.5923694,1.2021012 L 1.5845436,1.1907161 L 1.574482,1.180366 L 1.5644203,1.1700159 L 1.5532407,1.1596658 L 1.5420611,1.1503507 L 1.5308815,1.1410357 L 1.5185839,1.1327556 L 1.5051683,1.1244755 L 1.4917528,1.1172305 L 1.4794552,1.1110204 L 1.4649217,1.1048104 L 1.4503882,1.0996353 L 1.4358547,1.0944603 L 1.4213212,1.0913553 L 1.4067877,1.0882502 L 1.3911362,1.0861802 L 1.3766027,1.0841102 L 1.3609513,1.0830752 L 1.3464178,1.0830752 L 1.3464178,1.0830752 L 1.3307663,1.0830752 L 1.3162328,1.0841102 L 1.3005813,1.0861802 L 1.2849298,1.0882502 L 1.2703963,1.0913553 L 1.2558628,1.0944603 L 1.2413293,1.0996353 L 1.2267958,1.1048104 L 1.2133803,1.1110204 L 1.1999647,1.1172305 L 1.1865492,1.1244755 L 1.1731337,1.1327556 L 1.161954,1.1410357 L 1.1496565,1.1503507 L 1.1384768,1.1596658 L 1.1284152,1.1700159 L 1.1172356,1.180366 L 1.1071739,1.1907161 L 1.0993482,1.2021012 L 1.0904045,1.2145213 L 1.0814608,1.2269414 L 1.075871,1.2393615 L 1.0691632,1.2517816 L 1.0635734,1.2652367 L 1.0579836,1.2786918 L 1.0546297,1.2921469 L 1.0512758,1.305602 L 1.0479219,1.3200921 L 1.045686,1.3335472 L 1.045686,1.3480374 L 1.044568,1.3625275 L 1.044568,1.3625275 L 1.045686,1.3759826 L 1.045686,1.3904727 L 1.0479219,1.4049628 L 1.0512758,1.4184179 L 1.0546297,1.432908 L 1.0579836,1.4463632 L 1.0635734,1.4598183 L 1.0691632,1.4722384 L 1.075871,1.4856935 L 1.0814608,1.4981136 L 1.0904045,1.5105337 L 1.0993482,1.5219188 L 1.1071739,1.5333039 L 1.1172356,1.5436539 L 1.1284152,1.555039 L 1.1384768,1.5643541 L 1.1496565,1.5747042 L 1.161954,1.5829843 L 1.1731337,1.5922993 L 1.1865492,1.5995444 L 1.1999647,1.6067895 L 1.2133803,1.6140345 L 1.2267958,1.6192096 L 1.2413293,1.6243846 L 1.2558628,1.6295596 L 1.2703963,1.6326647 L 1.2849298,1.6357697 L 1.3005813,1.6388747 L 1.3162328,1.6409447 L 1.3307663,1.6409447 L 1.3464178,1.6419797 L 1.3464178,1.6419797 L 1.3609513,1.6409447 L 1.3766027,1.6409447 L 1.3911362,1.6388747 L 1.4067877,1.6357697 L 1.4213212,1.6326647 L 1.4358547,1.6295596 L 1.4503882,1.6243846 L 1.4649217,1.6192096 L 1.4794552,1.6140345 L 1.4917528,1.6067895 L 1.5051683,1.5995444 L 1.5185839,1.5922993 L 1.5308815,1.5829843 L 1.5420611,1.5747042 L 1.5532407,1.5643541 L 1.5644203,1.555039 L 1.574482,1.5436539 L 1.5845436,1.5333039 L 1.5923694,1.5219188 L 1.6013131,1.5105337 L 1.6102568,1.4981136 L 1.6169645,1.4856935 L 1.6225543,1.4722384 L 1.6281442,1.4598183 L 1.633734,1.4463632 L 1.6370879,1.432908 L 1.6404417,1.4184179 L 1.6437956,1.4049628 L 1.6460315,1.3904727 L 1.6460315,1.3759826 L 1.6471495,1.3625275"
       id="path2085" />
    <g
       transform="matrix(1.510681,0,0,1.185319,0.673428,2.073334e-2)"
       id="g2219">
      <path
         style="fill:#bc0c2b;fill-opacity:1;stroke:none;stroke-width:0.001"
         d="M -0.21510344,-0.37831648 L -0.21510344,0.33868352 L 1.1168966,0.33868352 L 1.1168966,-0.37831648 L -0.21510344,-0.37831648"
         id="path2154" />
      <path
         style="fill:#bc0c2b;fill-opacity:1;stroke:none;stroke-width:0.001"
         d="M -0.21577695,-0.37663757 L -0.04657302,-0.53524039 L 1.2870343,-0.53524039 L 1.1178305,-0.37663757 L -0.21577695,-0.37663757"
         id="path2158" />
      <path
         style="fill:#6e0012;fill-opacity:1;stroke:none;stroke-width:0.001"
         d="M 1.1168966,-0.38244594 L 1.2858966,-0.54135591 L 1.2858966,0.17977354 L 1.1168966,0.33868352 L 1.1168966,-0.38244594"
         id="path2162" />
      <path
         style="fill:none;stroke:#000000;stroke-width:0.03"
         d="M 0.14689656,-0.15931648 L 0.72789656,0.094683521"
         id="path2166" />
      <path
         style="fill:none;stroke:#000000;stroke-width:0.03"
         d="M -0.034103438,-0.22131648 L 0.89589656,-0.22131648"
         id="path2168" />
      <path
         style="fill:none;stroke:#000000;stroke-width:0.03"
         d="M -0.034103438,0.14368352 L 0.89589656,0.14368352"
         id="path2170" />
      <path
         style="fill:#000000;stroke:none;stroke-width:0.03"
         d="M -0.13010344,-0.29331648 L 0.17189656,-0.29331648 L 0.17189656,-0.13531648 L -0.13010344,-0.13531648 L -0.13010344,-0.29331648"
         id="path2172" />
      <path
         style="fill:#000000;stroke:none;stroke-width:0.002"
         d="M 0.69089656,-0.29331648 L 0.98089656,-0.29331648 L 0.98089656,-0.13531648 L 0.69089656,-0.13531648 L 0.69089656,-0.29331648"
         id="path2176" />
      <path
         style="fill:#000000;stroke:none;stroke-width:0.002"
         d="M -0.13010344,0.070683521 L 0.17189656,0.070683521 L 0.17189656,0.22868352 L -0.13010344,0.22868352 L -0.13010344,0.070683521"
         id="path2180" />
      <path
         style="fill:#000000;stroke:none;stroke-width:0.002"
         d="M 0.69089656,0.070683521 L 0.9808966,0.070683521 L 0.9808966,0.22868352 L 0.69089656,0.22868352 L 0.69089656,0.070683521"
         id="path2184" />
      <path
         style="fill:none;stroke:#000000;stroke-width:0.03"
         d="M 0.71589656,-0.15931648 L 0.13489656,0.094683521"
         id="path2188" />
      <path
         style="fill:none;stroke:#ffffff;stroke-width:0.03"
         d="M 0.15889656,-0.14831648 L 0.73889656,0.10768352"
         id="path2190" />
      <path
         style="fill:none;stroke:#ffffff;stroke-width:0.03"
         d="M -0.021103438,-0.20931648 L 0.90789656,-0.20931648"
         id="path2192" />
      <path
         style="fill:none;stroke:#ffffff;stroke-width:0.03"
         d="M -0.021103438,0.15568352 L 0.90789656,0.15568352"
         id="path2194" />
      <path
         style="fill:#ffffff;stroke:none;stroke-width:0.03"
         d="M -0.11810344,-0.28131648 L 0.18389656,-0.28131648 L 0.18389656,-0.12431648 L -0.11810344,-0.12431648 L -0.11810344,-0.28131648"
         id="path2196" />
      <path
         style="fill:#ffffff;stroke:none;stroke-width:0.002"
         d="M 0.70289656,-0.28131648 L 0.9928966,-0.28131648 L 0.9928966,-0.12431648 L 0.70289656,-0.12431648 L 0.70289656,-0.28131648"
         id="path2200" />
      <path
         style="fill:#ffffff;stroke:none;stroke-width:0.002"
         d="M -0.11810344,0.082683521 L 0.18389656,0.082683521 L 0.18389656,0.24068352 L -0.11810344,0.24068352 L -0.11810344,0.082683521"
         id="path2204" />
      <path
         style="fill:#ffffff;stroke:none;stroke-width:0.002"
         d="M 0.70289656,0.082683521 L 0.9928966,0.082683521 L 0.9928966,0.24068352 L 0.70289656,0.24068352 L 0.70289656,0.082683521"
         id="path2208" />
      <path
         style="fill:none;stroke:#ffffff;stroke-width:0.03"
         d="M 0.72789656,-0.14831648 L 0.14689656,0.10768352"
         id="path2212" />
    </g>
  </g>
</svg>
