<?xml version="1.0" encoding="UTF-8" standalone="no"?>
<!-- Created with Inkscape (http://www.inkscape.org/) -->
<svg
   xmlns:dc="http://purl.org/dc/elements/1.1/"
   xmlns:cc="http://web.resource.org/cc/"
   xmlns:rdf="http://www.w3.org/1999/02/22-rdf-syntax-ns#"
   xmlns:svg="http://www.w3.org/2000/svg"
   xmlns="http://www.w3.org/2000/svg"
   xmlns:xlink="http://www.w3.org/1999/xlink"
   xmlns:sodipodi="http://sodipodi.sourceforge.net/DTD/sodipodi-0.dtd"
   xmlns:inkscape="http://www.inkscape.org/namespaces/inkscape"
   id="svg1998"
   sodipodi:version="0.32"
   inkscape:version="0.45"
   width="51.399269"
   height="66.033699"
   version="1.0"
   sodipodi:docbase="/home/grossmj/workspace/gns3-artwork/symbols"
   sodipodi:docname="route_swproc.svg"
   inkscape:output_extension="org.inkscape.output.svg.inkscape"
   sodipodi:modified="true">
  <metadata
     id="metadata2003">
    <rdf:RDF>
      <cc:Work
         rdf:about="">
        <dc:format>image/svg+xml</dc:format>
        <dc:type
           rdf:resource="http://purl.org/dc/dcmitype/StillImage" />
        <dc:title>Route switch processor</dc:title>
        <dc:creator>
          <cc:Agent>
            <dc:title>Jeremy Grossmann</dc:title>
          </cc:Agent>
        </dc:creator>
        <dc:publisher>
          <cc:Agent>
            <dc:title>GNS-3</dc:title>
          </cc:Agent>
        </dc:publisher>
        <dc:description>Created for the GNS-3 project (www.gns3.net)</dc:description>
        <cc:license
           rdf:resource="http://creativecommons.org/licenses/GPL/2.0/" />
      </cc:Work>
      <cc:License
         rdf:about="http://creativecommons.org/licenses/GPL/2.0/">
        <cc:permits
           rdf:resource="http://web.resource.org/cc/Reproduction" />
        <cc:permits
           rdf:resource="http://web.resource.org/cc/Distribution" />
        <cc:requires
           rdf:resource="http://web.resource.org/cc/Notice" />
        <cc:permits
           rdf:resource="http://web.resource.org/cc/DerivativeWorks" />
        <cc:requires
           rdf:resource="http://web.resource.org/cc/ShareAlike" />
        <cc:requires
           rdf:resource="http://web.resource.org/cc/SourceCode" />
      </cc:License>
    </rdf:RDF>
  </metadata>
  <defs
     id="defs2001">
    <linearGradient
       id="linearGradient2276">
      <stop
         style="stop-color:#e4405c;stop-opacity:1;"
         offset="0"
         id="stop2278" />
      <stop
         style="stop-color:#fad3d5;stop-opacity:1;"
         offset="1"
         id="stop2280" />
    </linearGradient>
    <linearGradient
       inkscape:collect="always"
       id="linearGradient10123">
      <stop
         style="stop-color:#e4405c;stop-opacity:1;"
         offset="0"
         id="stop10125" />
      <stop
         style="stop-color:#e4405c;stop-opacity:0;"
         offset="1"
         id="stop10127" />
    </linearGradient>
    <linearGradient
       inkscape:collect="always"
       id="linearGradient6603">
      <stop
         style="stop-color:#506eaa;stop-opacity:1;"
         offset="0"
         id="stop6605" />
      <stop
         style="stop-color:#506eaa;stop-opacity:0;"
         offset="1"
         id="stop6607" />
    </linearGradient>
    <linearGradient
       inkscape:collect="always"
       id="linearGradient6587">
      <stop
         style="stop-color:#506eaa;stop-opacity:1;"
         offset="0"
         id="stop6589" />
      <stop
         style="stop-color:#506eaa;stop-opacity:0;"
         offset="1"
         id="stop6591" />
    </linearGradient>
    <marker
       inkscape:stockid="Arrow2Lstart"
       orient="auto"
       refY="0"
       refX="0"
       id="Arrow2Lstart"
       style="overflow:visible">
      <path
         id="path11918"
         style="font-size:12px;fill-rule:evenodd;stroke-width:0.625;stroke-linejoin:round"
         d="M 8.7185878,4.0337352 L -2.2072895,0.016013256 L 8.7185884,-4.0017078 C 6.97309,-1.6296469 6.9831476,1.6157441 8.7185878,4.0337352 z "
         transform="matrix(1.1,0,0,1.1,1.1,0)" />
    </marker>
    <marker
       inkscape:stockid="Arrow1Send"
       orient="auto"
       refY="0"
       refX="0"
       id="Arrow1Send"
       style="overflow:visible">
      <path
         id="path11921"
         d="M 0,0 L 5,-5 L -12.5,0 L 5,5 L 0,0 z "
         style="fill-rule:evenodd;stroke:black;stroke-width:1pt;marker-start:none"
         transform="matrix(-0.2,0,0,-0.2,-1.2,0)" />
    </marker>
    <marker
       inkscape:stockid="Arrow1Lstart"
       orient="auto"
       refY="0"
       refX="0"
       id="Arrow1Lstart"
       style="overflow:visible">
      <path
         id="path11936"
         d="M 0,0 L 5,-5 L -12.5,0 L 5,5 L 0,0 z "
         style="fill-rule:evenodd;stroke:black;stroke-width:1pt;marker-start:none"
         transform="matrix(0.8,0,0,0.8,10,0)" />
    </marker>
    <linearGradient
       inkscape:collect="always"
       xlink:href="#linearGradient6587"
       id="linearGradient6593"
       x1="3.95626"
       y1="0.64267641"
       x2="-1.2664427"
       y2="0.62730032"
       gradientUnits="userSpaceOnUse"
       gradientTransform="matrix(1.060042,0,0,1.074658,-3.942481e-3,-0.356572)" />
    <linearGradient
       inkscape:collect="always"
       xlink:href="#linearGradient6603"
       id="linearGradient6609"
       x1="2.2801981"
       y1="1.4519272"
       x2="-0.41311559"
       y2="1.4649135"
       gradientUnits="userSpaceOnUse"
       gradientTransform="matrix(1.060042,0,0,1.074658,-3.942482e-3,-0.356572)" />
    <linearGradient
       inkscape:collect="always"
       xlink:href="#linearGradient10123"
       id="linearGradient10129"
       x1="1.3990936"
       y1="1.4711363"
       x2="0.49966058"
       y2="0.56367606"
       gradientUnits="userSpaceOnUse"
       gradientTransform="matrix(1.117962,0,0,1.035008,-4.0972948e-2,-6.788682e-3)" />
    <linearGradient
       inkscape:collect="always"
       xlink:href="#linearGradient2276"
       id="linearGradient2282"
       x1="0.88995945"
       y1="0.14170313"
       x2="-0.82563519"
       y2="-0.82482123"
       gradientUnits="userSpaceOnUse"
       gradientTransform="matrix(1.0012147,0,0,1.0037569,-6.9120064e-4,2.6084526e-3)" />
    <linearGradient
       inkscape:collect="always"
       xlink:href="#linearGradient10123"
       id="linearGradient5943"
       gradientUnits="userSpaceOnUse"
       gradientTransform="matrix(24.600134,0,0,23.288307,-8.5070951,13.747007)"
       x1="1.3990936"
       y1="1.4711363"
       x2="0.49966058"
       y2="0.56367606" />
  </defs>
  <sodipodi:namedview
     inkscape:window-height="979"
     inkscape:window-width="1400"
     inkscape:pageshadow="2"
     inkscape:pageopacity="0.0"
     guidetolerance="10.0"
     gridtolerance="10.0"
     objecttolerance="10.0"
     borderopacity="1.0"
     bordercolor="#666666"
     pagecolor="#ffffff"
     id="base"
     showguides="true"
     inkscape:guide-bbox="true"
     inkscape:zoom="22.33279"
     inkscape:cx="21.886346"
     inkscape:cy="53.66193"
     inkscape:window-x="0"
     inkscape:window-y="25"
     inkscape:current-layer="svg1998" />
  <path
     id="path11907"
     d="M 1.8807223,62.841967 L 1.8807223,65.892048 L 44.334231,65.892048 L 44.334231,62.841967 L 1.8807223,62.841967"
     style="fill:#000000;fill-opacity:0.39215686;stroke:none;stroke-width:0.001" />
  <path
     id="path11020"
     d="M 44.411044,6.8397503 L 51.29809,0.71178991 L 51.264938,59.616654 L 44.325436,65.854587 L 44.411044,6.8397503"
     style="fill:#000000;fill-opacity:0.39215686;stroke:none;stroke-width:0.001"
     sodipodi:nodetypes="ccccc" />
  <path
     id="path2037"
     d="M 0.058173141,22.648646 L 0.058173141,64.60327 L 44.37442,64.60327 L 44.37442,22.648646 L 0.058173141,22.648646"
     style="fill:#6e8caa;fill-opacity:1;stroke:none;stroke-width:0.001" />
  <path
     id="path2045"
     d="M 44.114388,23.203353 L 49.960305,18.908684 L 50.036765,59.697473 L 44.124843,64.691373 L 44.114388,23.203353"
     style="fill:#6e8296;fill-opacity:1;stroke:none;stroke-width:0.001"
     sodipodi:nodetypes="ccccc" />
  <path
     id="path2049"
     d="M 17.421444,42.065601 L 5.7117807,42.065601 L 5.7117807,40.528571 L 2.1201611,43.602628 L 5.7117807,47.026012 L 5.7117807,45.51227 L 17.421444,45.51227 L 17.421444,42.065601"
     style="fill:#000000;stroke:none;stroke-width:0.001" />
  <path
     id="path2051"
     d="M 19.807657,39.783344 L 11.369811,31.772164 L 12.575218,30.631036 L 7.7535917,30.631036 L 7.7535917,35.195546 L 8.934398,34.054419 L 17.421444,42.065601 L 19.807657,39.783344"
     style="fill:#000000;stroke:none;stroke-width:0.001" />
  <path
     id="path2053"
     d="M 23.423877,39.783344 L 23.423877,28.325493 L 25.022885,28.325493 L 21.824869,25.274723 L 18.208649,28.325493 L 19.807657,28.325493 L 19.807657,39.783344 L 23.423877,39.783344"
     style="fill:#000000;stroke:none;stroke-width:0.001" />
  <path
     id="path2055"
     d="M 25.859289,42.065601 L 34.321735,34.054419 L 35.502542,35.195546 L 35.502542,30.631036 L 30.705515,30.631036 L 31.886322,31.772164 L 23.423877,39.783344 L 25.859289,42.065601"
     style="fill:#000000;stroke:none;stroke-width:0.001" />
  <path
     id="path2057"
     d="M 25.859289,45.51227 L 37.913355,45.51227 L 37.913355,47.026012 L 41.160571,43.602628 L 37.913355,40.528571 L 37.913355,42.065601 L 25.859289,42.065601 L 25.859289,45.51227"
     style="fill:#000000;stroke:none;stroke-width:0.001" />
  <path
     id="path2059"
     d="M 23.423877,47.794525 L 31.886322,55.805706 L 30.705515,56.970123 L 35.502542,56.597509 L 35.502542,52.405612 L 34.321735,53.54674 L 25.859289,45.51227 L 23.423877,47.794525"
     style="fill:#000000;stroke:none;stroke-width:0.001" />
  <path
     id="path2061"
     d="M 19.807657,47.794525 L 19.807657,59.275666 L 18.208649,59.275666 L 21.824869,62.303147 L 25.022885,59.275666 L 23.423877,59.275666 L 23.423877,47.794525 L 19.807657,47.794525"
     style="fill:#000000;stroke:none;stroke-width:0.001" />
  <path
     id="path2063"
     d="M 17.421444,45.51227 L 8.934398,53.54674 L 7.7535917,52.405612 L 7.7535917,56.970123 L 12.575218,56.970123 L 11.369811,55.805706 L 19.807657,47.794525 L 17.421444,45.51227"
     style="fill:#000000;stroke:none;stroke-width:0.001" />
  <path
     id="path2065"
     d="M 17.790446,42.461501 L 6.1299829,42.461501 L 6.1299829,40.924473 L 2.5137634,43.975243 L 6.1299829,47.421913 L 6.1299829,45.908173 L 17.790446,45.908173 L 17.790446,42.461501"
     style="fill:#ffffff;stroke:none;stroke-width:0.001" />
  <path
     id="path2067"
     d="M 20.225858,40.179247 L 11.763413,32.144777 L 12.99342,31.003649 L 8.1471938,31.003649 L 8.1471938,35.591448 L 9.3280001,34.427032 L 17.790446,42.461501 L 20.225858,40.179247"
     style="fill:#ffffff;stroke:none;stroke-width:0.001" />
  <path
     id="path2069"
     d="M 23.842078,40.179247 L 23.842078,28.698106 L 25.441088,28.698106 L 22.218469,25.647337 L 18.602249,28.698106 L 20.225858,28.698106 L 20.225858,40.179247 L 23.842078,40.179247"
     style="fill:#ffffff;stroke:none;stroke-width:0.001" />
  <path
     id="path2071"
     d="M 26.277492,42.461501 L 34.715337,34.427032 L 35.920743,35.591448 L 35.920743,31.003649 L 31.074517,31.003649 L 32.279925,32.144777 L 23.842078,40.179247 L 26.277492,42.461501"
     style="fill:#ffffff;stroke:none;stroke-width:0.001" />
  <path
     id="path2073"
     d="M 26.277492,45.908173 L 38.306956,45.908173 L 38.306956,47.421913 L 41.554174,43.975243 L 38.306956,40.924473 L 38.306956,42.461501 L 26.277492,42.461501 L 26.277492,45.908173"
     style="fill:#ffffff;stroke:none;stroke-width:0.001" />
  <path
     id="path2075"
     d="M 23.842078,48.190428 L 32.279925,56.201609 L 31.074517,57.342736 L 35.920743,56.970123 L 35.920743,52.754936 L 34.715337,53.896064 L 26.277492,45.908173 L 23.842078,48.190428"
     style="fill:#ffffff;stroke:none;stroke-width:0.001" />
  <path
     id="path2077"
     d="M 20.225858,48.190428 L 20.225858,59.62499 L 18.602249,59.62499 L 22.218469,62.699048 L 25.441088,59.62499 L 23.842078,59.62499 L 23.842078,48.190428 L 20.225858,48.190428"
     style="fill:#ffffff;stroke:none;stroke-width:0.001" />
  <path
     id="path2079"
     d="M 17.790446,45.908173 L 9.3280001,53.896064 L 8.1471938,52.754936 L 8.1471938,57.342736 L 12.99342,57.342736 L 11.763413,56.201609 L 20.225858,48.190428 L 17.790446,45.908173"
     style="fill:#ffffff;stroke:none;stroke-width:0.001" />
  <path
     id="path2081"
     d="M 28.270103,44.161548 L 28.245502,43.8588 L 28.220903,43.509476 L 28.171701,43.206728 L 28.122501,42.90398 L 28.048701,42.577944 L 27.950301,42.275194 L 27.827301,41.972446 L 27.728899,41.669698 L 27.581298,41.390238 L 27.433698,41.110778 L 27.261496,40.831319 L 27.064695,40.551859 L 26.867896,40.295687 L 26.646494,40.062804 L 26.425092,39.806632 L 26.203692,39.597039 L 25.93309,39.387443 L 25.687089,39.177848 L 25.416487,38.991543 L 25.145885,38.828524 L 24.826084,38.642217 L 24.555482,38.502488 L 24.23568,38.386045 L 23.915878,38.269604 L 23.620678,38.153164 L 23.276275,38.083297 L 22.981075,37.990145 L 22.612071,37.943568 L 22.292269,37.896992 L 21.947869,37.873702 L 21.628067,37.873702 L 21.628067,37.873702 L 21.283665,37.873702 L 20.963863,37.896992 L 20.619461,37.943568 L 20.299659,37.990145 L 19.955256,38.083297 L 19.635455,38.153164 L 19.315653,38.269604 L 18.995852,38.386045 L 18.700651,38.502488 L 18.430049,38.642217 L 18.110247,38.828524 L 17.815047,38.991543 L 17.569044,39.177848 L 17.298444,39.387443 L 17.052441,39.597039 L 16.831041,39.806632 L 16.58504,40.062804 L 16.388239,40.295687 L 16.191438,40.551859 L 15.994637,40.831319 L 15.822434,41.110778 L 15.674835,41.390238 L 15.527233,41.669698 L 15.404233,41.972446 L 15.281233,42.275194 L 15.207432,42.577944 L 15.133631,42.90398 L 15.05983,43.206728 L 15.010631,43.509476 L 15.010631,43.8588 L 14.98603,44.161548 L 14.98603,44.161548 L 15.010631,44.464296 L 15.010631,44.790334 L 15.05983,45.11637 L 15.133631,45.442406 L 15.207432,45.745154 L 15.281233,46.047902 L 15.404233,46.35065 L 15.527233,46.653398 L 15.674835,46.932857 L 15.822434,47.212317 L 15.994637,47.491777 L 16.191438,47.771237 L 16.388239,48.027408 L 16.58504,48.260292 L 16.831041,48.493175 L 17.052441,48.726059 L 17.298444,48.935654 L 17.569044,49.145248 L 17.815047,49.331555 L 18.110247,49.494574 L 18.430049,49.657591 L 18.700651,49.82061 L 18.995852,49.960339 L 19.315653,50.076782 L 19.635455,50.146646 L 19.955256,50.239798 L 20.299659,50.332953 L 20.619461,50.356241 L 20.963863,50.426106 L 21.283665,50.449394 L 21.628067,50.449394 L 21.628067,50.449394 L 21.947869,50.449394 L 22.292269,50.426106 L 22.612071,50.356241 L 22.981075,50.332953 L 23.276275,50.239798 L 23.620678,50.146646 L 23.915878,50.076782 L 24.23568,49.960339 L 24.555482,49.82061 L 24.826084,49.657591 L 25.145885,49.494574 L 25.416487,49.331555 L 25.687089,49.145248 L 25.93309,48.935654 L 26.203692,48.726059 L 26.425092,48.493175 L 26.646494,48.260292 L 26.867896,48.027408 L 27.064695,47.771237 L 27.261496,47.491777 L 27.433698,47.212317 L 27.581298,46.932857 L 27.728899,46.653398 L 27.827301,46.35065 L 27.950301,46.047902 L 28.048701,45.745154 L 28.122501,45.442406 L 28.171701,45.11637 L 28.220903,44.790334 L 28.245502,44.464296 L 28.270103,44.161548"
     style="fill:#000000;stroke:none;stroke-width:0.001" />
  <path
     id="path2083"
     d="M 29.057307,44.930063 L 29.032706,44.627315 L 29.008105,44.301279 L 28.958906,43.975243 L 28.934307,43.649204 L 28.835905,43.346457 L 28.737506,43.043709 L 28.639104,42.740961 L 28.516104,42.461501 L 28.368502,42.158753 L 28.220903,41.879293 L 28.048701,41.599834 L 27.8765,41.320374 L 27.655098,41.064202 L 27.433698,40.831319 L 27.236897,40.598435 L 26.990896,40.365554 L 26.720294,40.155958 L 26.474294,39.946363 L 26.203692,39.760056 L 25.93309,39.597039 L 25.637889,39.43402 L 25.342686,39.271003 L 25.022885,39.131272 L 24.727684,39.014831 L 24.407882,38.921676 L 24.088081,38.851812 L 23.768277,38.75866 L 23.423877,38.712083 L 23.104075,38.665505 L 22.759672,38.642217 L 22.41527,38.642217 L 22.41527,38.642217 L 22.070869,38.642217 L 21.751068,38.665505 L 21.431266,38.712083 L 21.086864,38.75866 L 20.767062,38.851812 L 20.44726,38.921676 L 20.102858,39.014831 L 19.807657,39.131272 L 19.512454,39.271003 L 19.192653,39.43402 L 18.922051,39.597039 L 18.62685,39.760056 L 18.356248,39.946363 L 18.085646,40.155958 L 17.839645,40.365554 L 17.618246,40.598435 L 17.372242,40.831319 L 17.175443,41.064202 L 16.978642,41.320374 L 16.781841,41.599834 L 16.609639,41.879293 L 16.46204,42.158753 L 16.314438,42.461501 L 16.191438,42.740961 L 16.093036,43.043709 L 15.994637,43.346457 L 15.920836,43.649204 L 15.871636,43.975243 L 15.822434,44.301279 L 15.797835,44.627315 L 15.797835,44.930063 L 15.797835,44.930063 L 15.797835,45.256099 L 15.822434,45.582135 L 15.871636,45.861595 L 15.920836,46.187633 L 15.994637,46.513669 L 16.093036,46.816417 L 16.191438,47.119165 L 16.314438,47.421913 L 16.46204,47.701372 L 16.609639,47.980832 L 16.781841,48.260292 L 16.978642,48.516464 L 17.175443,48.795923 L 17.372242,49.028807 L 17.618246,49.26169 L 17.839645,49.494574 L 18.085646,49.704167 L 18.356248,49.890474 L 18.62685,50.10007 L 18.922051,50.263087 L 19.192653,50.426106 L 19.512454,50.589125 L 19.807657,50.705566 L 20.102858,50.822006 L 20.44726,50.938449 L 20.767062,51.031602 L 21.086864,51.101466 L 21.431266,51.148044 L 21.751068,51.194621 L 22.070869,51.217909 L 22.41527,51.217909 L 22.41527,51.217909 L 22.759672,51.217909 L 23.104075,51.194621 L 23.423877,51.148044 L 23.768277,51.101466 L 24.088081,51.031602 L 24.407882,50.938449 L 24.727684,50.822006 L 25.022885,50.705566 L 25.342686,50.589125 L 25.637889,50.426106 L 25.93309,50.263087 L 26.203692,50.10007 L 26.474294,49.890474 L 26.720294,49.704167 L 26.990896,49.494574 L 27.236897,49.26169 L 27.433698,49.028807 L 27.655098,48.795923 L 27.8765,48.516464 L 28.048701,48.260292 L 28.220903,47.980832 L 28.368502,47.701372 L 28.516104,47.421913 L 28.639104,47.119165 L 28.737506,46.816417 L 28.835905,46.513669 L 28.934307,46.187633 L 28.958906,45.861595 L 29.008105,45.582135 L 29.032706,45.256099 L 29.057307,44.930063"
     style="fill:#ffffff;stroke:none;stroke-width:0.001" />
  <path
     id="path2085"
     d="M 28.639104,44.55745 L 28.614503,44.231414 L 28.614503,43.905376 L 28.565303,43.602628 L 28.491503,43.276592 L 28.417704,42.973844 L 28.343903,42.671096 L 28.220903,42.368348 L 28.0979,42.065601 L 27.9749,41.786141 L 27.827301,41.506681 L 27.6305,41.227221 L 27.433698,40.947761 L 27.261496,40.69159 L 27.040096,40.458706 L 26.818694,40.225823 L 26.572693,39.992939 L 26.326692,39.783344 L 26.080691,39.573751 L 25.810089,39.387443 L 25.514886,39.201136 L 25.219686,39.038119 L 24.949084,38.898388 L 24.629282,38.75866 L 24.309481,38.642217 L 23.989679,38.525776 L 23.669877,38.455912 L 23.350076,38.386045 L 23.005673,38.339469 L 22.685872,38.292892 L 22.341471,38.269604 L 22.02167,38.269604 L 22.02167,38.269604 L 21.677267,38.269604 L 21.357465,38.292892 L 21.013063,38.339469 L 20.66866,38.386045 L 20.348859,38.455912 L 20.029057,38.525776 L 19.709255,38.642217 L 19.389454,38.75866 L 19.094253,38.898388 L 18.79905,39.038119 L 18.50385,39.201136 L 18.208649,39.387443 L 17.962646,39.573751 L 17.692046,39.783344 L 17.446043,39.992939 L 17.224643,40.225823 L 16.978642,40.458706 L 16.75724,40.69159 L 16.58504,40.947761 L 16.388239,41.227221 L 16.191438,41.506681 L 16.068437,41.786141 L 15.920836,42.065601 L 15.797835,42.368348 L 15.674835,42.671096 L 15.601034,42.973844 L 15.527233,43.276592 L 15.453433,43.602628 L 15.404233,43.905376 L 15.404233,44.231414 L 15.379632,44.55745 L 15.379632,44.55745 L 15.404233,44.860198 L 15.404233,45.186234 L 15.453433,45.51227 L 15.527233,45.815018 L 15.601034,46.141054 L 15.674835,46.443804 L 15.797835,46.746552 L 15.920836,47.026012 L 16.068437,47.32876 L 16.191438,47.60822 L 16.388239,47.88768 L 16.58504,48.143851 L 16.75724,48.400023 L 16.978642,48.632904 L 17.224643,48.889076 L 17.446043,49.098671 L 17.692046,49.331555 L 17.962646,49.517862 L 18.208649,49.727455 L 18.50385,49.890474 L 18.79905,50.053493 L 19.094253,50.21651 L 19.389454,50.332953 L 19.709255,50.449394 L 20.029057,50.565835 L 20.348859,50.635701 L 20.66866,50.705566 L 21.013063,50.77543 L 21.357465,50.822006 L 21.677267,50.822006 L 22.02167,50.845294 L 22.02167,50.845294 L 22.341471,50.822006 L 22.685872,50.822006 L 23.005673,50.77543 L 23.350076,50.705566 L 23.669877,50.635701 L 23.989679,50.565835 L 24.309481,50.449394 L 24.629282,50.332953 L 24.949084,50.21651 L 25.219686,50.053493 L 25.514886,49.890474 L 25.810089,49.727455 L 26.080691,49.517862 L 26.326692,49.331555 L 26.572693,49.098671 L 26.818694,48.889076 L 27.040096,48.632904 L 27.261496,48.400023 L 27.433698,48.143851 L 27.6305,47.88768 L 27.827301,47.60822 L 27.9749,47.32876 L 28.0979,47.026012 L 28.220903,46.746552 L 28.343903,46.443804 L 28.417704,46.141054 L 28.491503,45.815018 L 28.565303,45.51227 L 28.614503,45.186234 L 28.614503,44.860198 L 28.639104,44.55745"
     style="fill:url(#linearGradient5943);fill-opacity:1;stroke:none;stroke-width:0.001" />
  <g
     id="g2219"
     transform="matrix(33.241698,0,0,26.670396,7.212902,14.366269)">
    <path
       id="path2154"
       d="M -0.21510344,-0.37831648 L -0.21510344,0.33868352 L 1.1168966,0.33868352 L 1.1168966,-0.37831648 L -0.21510344,-0.37831648"
       style="fill:#cf0e30;stroke:none;stroke-width:0.001" />
    <path
       id="path2158"
       d="M -0.21605593,-0.37712931 L -0.046850643,-0.53572289 L 1.2867674,-0.53572289 L 1.1175621,-0.37712931 L -0.21605593,-0.37712931"
       style="fill:url(#linearGradient2282);fill-opacity:1;stroke:none;stroke-width:0.001" />
    <path
       id="path2162"
       d="M 1.1074675,-0.37740699 L 1.2764721,-0.53631648 L 1.2764721,0.18481076 L 1.1074675,0.34372025 L 1.1074675,-0.37740699"
       style="fill:#790015;stroke:none;stroke-width:0.001" />
    <path
       id="path2166"
       d="M 0.14689656,-0.15931648 L 0.72789656,0.094683521"
       style="fill:none;stroke:#000000;stroke-width:0.03" />
    <path
       id="path2168"
       d="M -0.034103438,-0.22131648 L 0.89589656,-0.22131648"
       style="fill:none;stroke:#000000;stroke-width:0.03" />
    <path
       id="path2170"
       d="M -0.034103438,0.14368352 L 0.89589656,0.14368352"
       style="fill:none;stroke:#000000;stroke-width:0.03" />
    <path
       id="path2172"
       d="M -0.13010344,-0.29331648 L 0.17189656,-0.29331648 L 0.17189656,-0.13531648 L -0.13010344,-0.13531648 L -0.13010344,-0.29331648"
       style="fill:#000000;stroke:none;stroke-width:0.03" />
    <path
       id="path2176"
       d="M 0.69089656,-0.29331648 L 0.98089656,-0.29331648 L 0.98089656,-0.13531648 L 0.69089656,-0.13531648 L 0.69089656,-0.29331648"
       style="fill:#000000;stroke:none;stroke-width:0.002" />
    <path
       id="path2180"
       d="M -0.13010344,0.070683521 L 0.17189656,0.070683521 L 0.17189656,0.22868352 L -0.13010344,0.22868352 L -0.13010344,0.070683521"
       style="fill:#000000;stroke:none;stroke-width:0.002" />
    <path
       id="path2184"
       d="M 0.69089656,0.070683521 L 0.9808966,0.070683521 L 0.9808966,0.22868352 L 0.69089656,0.22868352 L 0.69089656,0.070683521"
       style="fill:#000000;stroke:none;stroke-width:0.002" />
    <path
       id="path2188"
       d="M 0.71589656,-0.15931648 L 0.13489656,0.094683521"
       style="fill:none;stroke:#000000;stroke-width:0.03" />
    <path
       id="path2190"
       d="M 0.15889656,-0.14831648 L 0.73889656,0.10768352"
       style="fill:none;stroke:#ffffff;stroke-width:0.03" />
    <path
       id="path2192"
       d="M -0.021103438,-0.20931648 L 0.90789656,-0.20931648"
       style="fill:none;stroke:#ffffff;stroke-width:0.03" />
    <path
       id="path2194"
       d="M -0.021103438,0.15568352 L 0.90789656,0.15568352"
       style="fill:none;stroke:#ffffff;stroke-width:0.03" />
    <path
       id="path2196"
       d="M -0.11810344,-0.28131648 L 0.18389656,-0.28131648 L 0.18389656,-0.12431648 L -0.11810344,-0.12431648 L -0.11810344,-0.28131648"
       style="fill:#ffffff;stroke:none;stroke-width:0.03" />
    <path
       id="path2200"
       d="M 0.70289656,-0.28131648 L 0.9928966,-0.28131648 L 0.9928966,-0.12431648 L 0.70289656,-0.12431648 L 0.70289656,-0.28131648"
       style="fill:#ffffff;stroke:none;stroke-width:0.002" />
    <path
       id="path2204"
       d="M -0.11810344,0.082683521 L 0.18389656,0.082683521 L 0.18389656,0.24068352 L -0.11810344,0.24068352 L -0.11810344,0.082683521"
       style="fill:#ffffff;stroke:none;stroke-width:0.002" />
    <path
       id="path2208"
       d="M 0.70289656,0.082683521 L 0.9928966,0.082683521 L 0.9928966,0.24068352 L 0.70289656,0.24068352 L 0.70289656,0.082683521"
       style="fill:#ffffff;stroke:none;stroke-width:0.002" />
    <path
       id="path2212"
       d="M 0.72789656,-0.14831648 L 0.14689656,0.10768352"
       style="fill:none;stroke:#ffffff;stroke-width:0.03" />
  </g>
</svg>
