<?xml version="1.0" encoding="UTF-8" standalone="no"?>
<!-- Created with Inkscape (http://www.inkscape.org/) -->
<svg
   xmlns:dc="http://purl.org/dc/elements/1.1/"
   xmlns:cc="http://web.resource.org/cc/"
   xmlns:rdf="http://www.w3.org/1999/02/22-rdf-syntax-ns#"
   xmlns:svg="http://www.w3.org/2000/svg"
   xmlns="http://www.w3.org/2000/svg"
   xmlns:xlink="http://www.w3.org/1999/xlink"
   xmlns:sodipodi="http://sodipodi.sourceforge.net/DTD/sodipodi-0.dtd"
   xmlns:inkscape="http://www.inkscape.org/namespaces/inkscape"
   id="svg1998"
   sodipodi:version="0.32"
   inkscape:version="0.45"
   width="66.000435"
   height="44.5159"
   version="1.0"
   sodipodi:docname="rt_firewall.svg"
   inkscape:output_extension="org.inkscape.output.svg.inkscape"
   sodipodi:modified="true">
  <metadata
     id="metadata2003">
    <rdf:RDF>
      <cc:Work
         rdf:about="">
        <dc:format>image/svg+xml</dc:format>
        <dc:type
           rdf:resource="http://purl.org/dc/dcmitype/StillImage" />
        <dc:title>Router with firewall</dc:title>
        <dc:creator>
          <cc:Agent>
            <dc:title>Jeremy Grossmann</dc:title>
          </cc:Agent>
        </dc:creator>
        <dc:publisher>
          <cc:Agent>
            <dc:title>GNS-3</dc:title>
          </cc:Agent>
        </dc:publisher>
        <dc:description>Created for the GNS-3 project (www.gns3.net)</dc:description>
        <cc:license
           rdf:resource="http://creativecommons.org/licenses/GPL/2.0/" />
      </cc:Work>
      <cc:License
         rdf:about="http://creativecommons.org/licenses/GPL/2.0/">
        <cc:permits
           rdf:resource="http://web.resource.org/cc/Reproduction" />
        <cc:permits
           rdf:resource="http://web.resource.org/cc/Distribution" />
        <cc:requires
           rdf:resource="http://web.resource.org/cc/Notice" />
        <cc:permits
           rdf:resource="http://web.resource.org/cc/DerivativeWorks" />
        <cc:requires
           rdf:resource="http://web.resource.org/cc/ShareAlike" />
        <cc:requires
           rdf:resource="http://web.resource.org/cc/SourceCode" />
      </cc:License>
    </rdf:RDF>
  </metadata>
  <defs
     id="defs2001">
    <linearGradient
       id="linearGradient10310">
      <stop
         style="stop-color:#d25e6c;stop-opacity:1;"
         offset="0"
         id="stop10312" />
      <stop
         style="stop-color:#ffe6e6;stop-opacity:1;"
         offset="1"
         id="stop10314" />
    </linearGradient>
    <marker
       inkscape:stockid="Arrow2Lstart"
       orient="auto"
       refY="0"
       refX="0"
       id="Arrow2Lstart"
       style="overflow:visible">
      <path
         id="path11918"
         style="font-size:12px;fill-rule:evenodd;stroke-width:0.625;stroke-linejoin:round"
         d="M 8.7185878,4.0337352 L -2.2072895,0.016013256 L 8.7185884,-4.0017078 C 6.97309,-1.6296469 6.9831476,1.6157441 8.7185878,4.0337352 z "
         transform="matrix(1.1,0,0,1.1,1.1,0)" />
    </marker>
    <marker
       inkscape:stockid="Arrow1Send"
       orient="auto"
       refY="0"
       refX="0"
       id="Arrow1Send"
       style="overflow:visible">
      <path
         id="path11921"
         d="M 0,0 L 5,-5 L -12.5,0 L 5,5 L 0,0 z "
         style="fill-rule:evenodd;stroke:black;stroke-width:1pt;marker-start:none"
         transform="matrix(-0.2,0,0,-0.2,-1.2,0)" />
    </marker>
    <marker
       inkscape:stockid="Arrow1Lstart"
       orient="auto"
       refY="0"
       refX="0"
       id="Arrow1Lstart"
       style="overflow:visible">
      <path
         id="path11936"
         d="M 0,0 L 5,-5 L -12.5,0 L 5,5 L 0,0 z "
         style="fill-rule:evenodd;stroke:black;stroke-width:1pt;marker-start:none"
         transform="matrix(0.8,0,0,0.8,10,0)" />
    </marker>
    <linearGradient
       inkscape:collect="always"
       xlink:href="#linearGradient10310"
       id="linearGradient10316"
       x1="10.303786"
       y1="3.8715167"
       x2="5.81774"
       y2="1.5821224"
       gradientUnits="userSpaceOnUse" />
  </defs>
  <sodipodi:namedview
     inkscape:window-height="940"
     inkscape:window-width="1280"
     inkscape:pageshadow="2"
     inkscape:pageopacity="0.0"
     guidetolerance="10.0"
     gridtolerance="10.0"
     objecttolerance="10.0"
     borderopacity="1.0"
     bordercolor="#666666"
     pagecolor="#ffffff"
     id="base"
     showguides="true"
     inkscape:guide-bbox="true"
     inkscape:zoom="4"
     inkscape:cx="27.67188"
     inkscape:cy="20.275743"
     inkscape:window-x="0"
     inkscape:window-y="46"
     inkscape:current-layer="svg1998" />
  <rect
     style="opacity:1;fill:#000000;fill-opacity:0.39215687;fill-rule:evenodd;stroke:none;stroke-width:0.2;stroke-linecap:square;stroke-linejoin:miter;stroke-miterlimit:4;stroke-dasharray:none;stroke-opacity:1"
     id="rect4558"
     width="64.552505"
     height="41.53862"
     x="1.4479325"
     y="2.9772801"
     ry="11.631706"
     rx="32.212925"
     inkscape:transform-center-x="8.4568136" />
  <rect
     style="opacity:1;fill:#3c8c8c;fill-opacity:1;fill-rule:evenodd;stroke:none;stroke-width:0.015;stroke-linecap:square;stroke-linejoin:miter;stroke-miterlimit:4;stroke-dasharray:none;stroke-opacity:1"
     id="rect9971"
     width="64.499474"
     height="42.154343"
     x="0.0625"
     y="0.18084903"
     ry="11.557454"
     rx="32.249737"
     inkscape:transform-center-x="8.2952569" />
  <g
     id="g2708"
     transform="matrix(12.83041,0,0,10.93561,-81.22974,-21.98874)">
    <path
       id="path2411"
       d="M 11.354848,3.6699657 L 11.350851,3.7197874 L 11.341527,3.769609 L 11.325541,3.817921 L 11.302895,3.8647229 L 11.274919,3.9130349 L 11.241615,3.9583273 L 11.201651,4.0036198 L 11.156357,4.0489123 L 11.108401,4.0911851 L 11.052451,4.1319481 L 10.991173,4.1727114 L 10.925897,4.2119647 L 10.857958,4.2497086 L 10.782025,4.2859425 L 10.704761,4.3221764 L 10.62217,4.3569005 L 10.534246,4.3870956 L 10.443661,4.4188001 L 10.34908,4.4474854 L 10.251833,4.473151 L 10.149258,4.5003264 L 10.044018,4.5229726 L 9.9374453,4.545619 L 9.8255466,4.5637358 L 9.7123136,4.580343 L 9.5964174,4.5969504 L 9.4778565,4.6090283 L 9.3566315,4.6195965 L 9.232742,4.6286549 L 9.1075205,4.634694 L 8.9809668,4.6377135 L 8.8517487,4.640733 L 8.7238629,4.6377135 L 8.5973091,4.634694 L 8.4720877,4.6286549 L 8.3481983,4.6195965 L 8.2269731,4.6090283 L 8.1084123,4.5969504 L 7.9911835,4.580343 L 7.8792833,4.5637358 L 7.7687155,4.545619 L 7.6594798,4.5229726 L 7.5555723,4.5003264 L 7.4529974,4.473151 L 7.3544186,4.4474854 L 7.2598362,4.4188001 L 7.1705827,4.3870956 L 7.0826613,4.3569005 L 7.0014004,4.3221764 L 6.9214717,4.2859425 L 6.8468715,4.2497086 L 6.7776001,4.2119647 L 6.712325,4.1727114 L 6.6523786,4.1319481 L 6.5964285,4.0911851 L 6.5471392,4.0489123 L 6.5031784,4.0036198 L 6.4618819,3.9583273 L 6.4285784,3.9130349 L 6.4006033,3.8647229 L 6.3779568,3.817921 L 6.3633034,3.769609 L 6.3539782,3.7197874 L 6.3499817,3.6699657 L 6.3539782,3.6201441 L 6.3633034,3.5703223 L 6.3779568,3.5220105 L 6.4006033,3.4752083 L 6.4285784,3.4268965 L 6.4618819,3.3800944 L 6.5031784,3.3363116 L 6.5471392,3.292529 L 6.5964285,3.2502561 L 6.6523786,3.2064734 L 6.712325,3.1657101 L 6.7776001,3.1264567 L 6.8468715,3.088713 L 6.9214717,3.0509693 L 7.0014004,3.0177548 L 7.0826613,2.9830308 L 7.1705827,2.9498163 L 7.2598362,2.9211312 L 7.3544186,2.8924459 L 7.4529974,2.8652705 L 7.5555723,2.8411145 L 7.6594798,2.8169585 L 7.7687155,2.7943124 L 7.8792833,2.7761955 L 7.9911835,2.7580784 L 8.1084123,2.7429811 L 8.2269731,2.7293933 L 8.3481983,2.7203348 L 8.4720877,2.7097666 L 8.5973091,2.7037277 L 8.7238629,2.7007081 L 8.8517487,2.7007081 L 8.9809668,2.7007081 L 9.1075205,2.7037277 L 9.232742,2.7097666 L 9.3566315,2.7203348 L 9.4778565,2.7293933 L 9.5964174,2.7429811 L 9.7123136,2.7580784 L 9.8255466,2.7761955 L 9.9374453,2.7943124 L 10.044018,2.8169585 L 10.149258,2.8411145 L 10.251833,2.8652705 L 10.34908,2.8924459 L 10.443661,2.9211312 L 10.534246,2.9498163 L 10.62217,2.9830308 L 10.704761,3.0177548 L 10.782025,3.0509693 L 10.857958,3.088713 L 10.925897,3.1264567 L 10.991173,3.1657101 L 11.052451,3.2064734 L 11.108401,3.2502561 L 11.156357,3.292529 L 11.201651,3.3363116 L 11.241615,3.3800944 L 11.274919,3.4268965 L 11.302895,3.4752083 L 11.325541,3.5220105 L 11.341527,3.5703223 L 11.350851,3.6201441 L 11.354848,3.6699657"
       style="fill:#a04f5c;stroke:none;stroke-width:0.001" />
    <path
       id="path2413"
       d="M 8.8517487,4.6573403 L 8.8517487,4.6573403 L 8.9170238,4.6558304 L 8.9809668,4.6558304 L 9.0462418,4.6543207 L 9.1075205,4.6528109 L 9.1714634,4.6497915 L 9.2340742,4.6467719 L 9.2953528,4.6422427 L 9.3579635,4.6377135 L 9.4179101,4.6316744 L 9.4791887,4.6271452 L 9.5391352,4.6195965 L 9.5977495,4.6135576 L 9.6550313,4.6060088 L 9.7136457,4.5969504 L 9.77226,4.5894016 L 9.8282104,4.580343 L 9.8841603,4.5712846 L 9.9387793,4.5607164 L 9.9947293,4.5516579 L 10.048014,4.5395799 L 10.099967,4.5290116 L 10.153253,4.5169336 L 10.203876,4.5033459 L 10.25583,4.4912679 L 10.30512,4.4776801 L 10.353077,4.4640925 L 10.401033,4.4505049 L 10.447657,4.4354074 L 10.470304,4.4278586 L 10.494283,4.4203099 L 10.516928,4.4127611 L 10.538243,4.4052123 L 10.56089,4.396154 L 10.582204,4.3886052 L 10.604851,4.3795468 L 10.626165,4.371998 L 10.647479,4.3644493 L 10.667462,4.3553908 L 10.688776,4.3478421 L 10.708758,4.3387836 L 10.730071,4.3297251 L 10.750055,4.3206666 L 10.770037,4.3131178 L 10.790017,4.3040594 L 10.808669,4.295001 L 10.825987,4.2844327 L 10.84597,4.2753741 L 10.863286,4.2663159 L 10.881937,4.2557475 L 10.899255,4.2466891 L 10.916573,4.2376306 L 10.933891,4.2270623 L 10.951207,4.2180039 L 10.967195,4.2074355 L 10.98318,4.1983771 L 10.999165,4.1893186 L 11.015151,4.1787503 L 11.031137,4.168182 L 11.045791,4.1576141 L 11.060445,4.1470457 L 11.075097,4.1364775 L 11.08842,4.1259092 L 11.103072,4.1153409 L 11.116394,4.1047728 L 11.129716,4.0942044 L 11.143036,4.0836364 L 11.153693,4.0730681 L 11.168348,4.0609902 L 11.179004,4.0504218 L 11.189662,4.0398537 L 11.201651,4.0277758 L 11.21364,4.0156978 L 11.222965,4.0051296 L 11.233623,3.9930516 L 11.242949,3.9824833 L 11.253605,3.9704054 L 11.261598,3.9583273 L 11.270923,3.9477591 L 11.280248,3.9356811 L 11.28824,3.9236032 L 11.294903,3.9115252 L 11.302895,3.8994471 L 11.309555,3.8873692 L 11.317548,3.8752913 L 11.322875,3.8617036 L 11.329538,3.8496255 L 11.334867,3.8375476 L 11.338863,3.8239598 L 11.344192,3.8118818 L 11.349519,3.7998038 L 11.352183,3.7877259 L 11.35618,3.7741383 L 11.358844,3.7620603 L 11.36284,3.7484725 L 11.364173,3.7363946 L 11.366837,3.722807 L 11.368169,3.7092192 L 11.369502,3.6956315 L 11.369502,3.6835535 L 11.369502,3.6699657 L 11.338863,3.6699657 L 11.338863,3.6820436 L 11.338863,3.6941217 L 11.338863,3.7061996 L 11.336198,3.7182775 L 11.334867,3.7303557 L 11.333534,3.7409237 L 11.329538,3.7530018 L 11.326872,3.76357 L 11.322875,3.7756479 L 11.321544,3.7877259 L 11.316216,3.7998038 L 11.310886,3.8103722 L 11.305559,3.8224502 L 11.301563,3.8330183 L 11.296234,3.8450964 L 11.290905,3.8571743 L 11.285576,3.8677426 L 11.277584,3.8798205 L 11.270923,3.8903888 L 11.26293,3.9024668 L 11.25627,3.9130349 L 11.246944,3.9251129 L 11.240284,3.9356811 L 11.230958,3.9477591 L 11.221634,3.9568176 L 11.212307,3.9688956 L 11.201651,3.9794638 L 11.192327,3.9915419 L 11.18167,4.00211 L 11.172344,4.0126784 L 11.160354,4.0232466 L 11.148365,4.0338146 L 11.136377,4.0458926 L 11.124387,4.0564609 L 11.111066,4.0670291 L 11.099076,4.0760876 L 11.085755,4.0866558 L 11.072433,4.0972241 L 11.059113,4.1077923 L 11.044459,4.1168507 L 11.029806,4.127419 L 11.015151,4.1379873 L 10.999165,4.1485554 L 10.984513,4.1576141 L 10.969858,4.168182 L 10.953872,4.1772406 L 10.937887,4.1878087 L 10.92057,4.1968673 L 10.903251,4.2074355 L 10.885935,4.2164939 L 10.868616,4.2255526 L 10.849966,4.2346111 L 10.833979,4.2436695 L 10.813997,4.252728 L 10.796679,4.2617865 L 10.776698,4.270845 L 10.758047,4.2799034 L 10.738065,4.2889619 L 10.718082,4.2980204 L 10.698102,4.3070789 L 10.67945,4.3161374 L 10.658137,4.3221764 L 10.636822,4.3327445 L 10.61684,4.3402933 L 10.595526,4.3478421 L 10.574211,4.3553908 L 10.551566,4.3629394 L 10.53025,4.3704882 L 10.507604,4.3795468 L 10.48629,4.3870956 L 10.462311,4.3946442 L 10.439664,4.4021929 L 10.39304,4.4157807 L 10.345084,4.4308782 L 10.297125,4.4429561 L 10.247837,4.4580534 L 10.197216,4.4701315 L 10.146594,4.4837192 L 10.094641,4.4942874 L 10.042686,4.5063654 L 9.9893993,4.5169336 L 9.9334503,4.5275018 L 9.8801653,4.5365604 L 9.8242138,4.5471287 L 9.7682638,4.556187 L 9.7109822,4.5652457 L 9.6523677,4.5712846 L 9.5950853,4.5788332 L 9.5351388,4.586382 L 9.4751922,4.5924209 L 9.416578,4.5969504 L 9.3552992,4.6029892 L 9.2953528,4.6075185 L 9.232742,4.610538 L 9.1714634,4.6150671 L 9.1075205,4.6180868 L 9.0449097,4.6195965 L 8.9809668,4.6211064 L 8.9170238,4.6226159 L 8.8517487,4.6226159 L 8.8517487,4.6226159 L 8.8517487,4.6573403 L 8.8517487,4.6573403 L 8.8517487,4.6573403"
       style="fill:#d98e9a;stroke:none;stroke-width:0.001" />
    <path
       id="path2415"
       d="M 6.3353283,3.6699657 L 6.3353283,3.6699657 L 6.3353283,3.6835535 L 6.3353283,3.6956315 L 6.3353283,3.7092192 L 6.3379927,3.722807 L 6.3393245,3.7363946 L 6.3433211,3.7484725 L 6.3446532,3.7620603 L 6.3486497,3.7741383 L 6.351314,3.7877259 L 6.3553104,3.7998038 L 6.3593069,3.8118818 L 6.3646355,3.8239598 L 6.3699641,3.8375476 L 6.3752925,3.8496255 L 6.3806213,3.8617036 L 6.3872819,3.8752913 L 6.3939426,3.8873692 L 6.4019355,3.8994471 L 6.4099282,3.9115252 L 6.416589,3.9236032 L 6.4245819,3.9356811 L 6.4339069,3.9477591 L 6.4418998,3.9583273 L 6.4498926,3.9704054 L 6.4618819,3.9824833 L 6.4698749,3.9930516 L 6.4805319,4.0051296 L 6.4911892,4.0156978 L 6.5031784,4.0277758 L 6.5138355,4.0398537 L 6.5258249,4.0504218 L 6.5364819,4.0609902 L 6.5498035,4.0730681 L 6.5617927,4.0836364 L 6.5737821,4.0942044 L 6.5884357,4.1047728 L 6.6017571,4.1153409 L 6.6150785,4.1259092 L 6.6297321,4.1364775 L 6.6443858,4.1470457 L 6.6590392,4.1576141 L 6.6736929,4.168182 L 6.6896786,4.1787503 L 6.7043322,4.1893186 L 6.7203179,4.1983771 L 6.7363036,4.2074355 L 6.7536215,4.2180039 L 6.7709395,4.2270623 L 6.7882574,4.2376306 L 6.8055752,4.2466891 L 6.8228931,4.2557475 L 6.8415431,4.2663159 L 6.860193,4.2753741 L 6.8775111,4.2844327 L 6.896161,4.295001 L 6.9148111,4.3040594 L 6.9347932,4.3131178 L 6.9547753,4.3206666 L 6.9747574,4.3297251 L 6.9947396,4.3387836 L 7.0147218,4.3478421 L 7.0360362,4.3553908 L 7.0573504,4.3644493 L 7.0786647,4.371998 L 7.099979,4.3795468 L 7.1212933,4.3886052 L 7.1426077,4.396154 L 7.165254,4.4052123 L 7.1879007,4.4127611 L 7.2105472,4.4203099 L 7.2331933,4.4278586 L 7.2571721,4.4354074 L 7.3037971,4.4505049 L 7.3517543,4.4640925 L 7.3997116,4.4776801 L 7.4490009,4.4912679 L 7.5009545,4.5033459 L 7.5515759,4.5169336 L 7.6048617,4.5290116 L 7.6568154,4.5395799 L 7.710101,4.5516579 L 7.7660512,4.5607164 L 7.8206691,4.5712846 L 7.875287,4.580343 L 7.9339014,4.5894016 L 7.9911835,4.5969504 L 8.0484657,4.6060088 L 8.1057479,4.6135576 L 8.1656946,4.6195965 L 8.2243088,4.6271452 L 8.2855875,4.6316744 L 8.3468661,4.6377135 L 8.4081447,4.6422427 L 8.4707555,4.6467719 L 8.5333662,4.6497915 L 8.5973091,4.6528109 L 8.6585878,4.6543207 L 8.7225308,4.6558304 L 8.7878059,4.6558304 L 8.8517487,4.6573403 L 8.8517487,4.6226159 L 8.7878059,4.6226159 L 8.7238629,4.6211064 L 8.6612521,4.6195965 L 8.5973091,4.6180868 L 8.5333662,4.6150671 L 8.4720877,4.610538 L 8.4094768,4.6075185 L 8.3495304,4.6029892 L 8.2882517,4.5969504 L 8.2283052,4.5924209 L 8.169691,4.586382 L 8.1097444,4.5788332 L 8.0524622,4.5712846 L 7.9938478,4.5652457 L 7.9365656,4.556187 L 7.8806156,4.5471287 L 7.8246655,4.5365604 L 7.7700476,4.5275018 L 7.7154298,4.5169336 L 7.6634761,4.5063654 L 7.6088582,4.4942874 L 7.5582368,4.4837192 L 7.5076152,4.4701315 L 7.4569937,4.4580534 L 7.4063723,4.4429561 L 7.358415,4.4308782 L 7.31179,4.4157807 L 7.265165,4.4021929 L 7.2425185,4.3946442 L 7.2185398,4.3870956 L 7.1972255,4.3795468 L 7.1745791,4.3704882 L 7.1519327,4.3629394 L 7.1306183,4.3553908 L 7.1106361,4.3478421 L 7.0879898,4.3402933 L 7.0680076,4.3327445 L 7.0466933,4.3221764 L 7.0253789,4.3161374 L 7.0053968,4.3070789 L 6.9854148,4.2980204 L 6.9654324,4.2889619 L 6.9467825,4.2799034 L 6.9281325,4.270845 L 6.9081504,4.2617865 L 6.8895002,4.252728 L 6.8721824,4.2436695 L 6.8535323,4.2346111 L 6.8362145,4.2255526 L 6.8188966,4.2164939 L 6.8015788,4.2074355 L 6.7842609,4.1968673 L 6.766943,4.1878087 L 6.7509573,4.1772406 L 6.7349716,4.168182 L 6.7189857,4.1576141 L 6.7043322,4.1485554 L 6.6896786,4.1379873 L 6.6750251,4.127419 L 6.6603714,4.1168507 L 6.6457178,4.1077923 L 6.6323965,4.0972241 L 6.619075,4.0866558 L 6.6057536,4.0760876 L 6.5937642,4.0670291 L 6.5791106,4.0564609 L 6.5684535,4.0458926 L 6.5564642,4.0338146 L 6.5444749,4.0232466 L 6.5324855,4.0126784 L 6.5231606,4.00211 L 6.5125035,3.9915419 L 6.5031784,3.9794638 L 6.4925213,3.9688956 L 6.4831963,3.9568176 L 6.4725391,3.9477591 L 6.4645463,3.9356811 L 6.4565534,3.9251129 L 6.4485605,3.9130349 L 6.4418998,3.9024668 L 6.4339069,3.8903888 L 6.4259141,3.8798205 L 6.4205855,3.8677426 L 6.4139248,3.8571743 L 6.4085961,3.8450964 L 6.4019355,3.8330183 L 6.3966068,3.8224502 L 6.3939426,3.8103722 L 6.388614,3.7998038 L 6.3832854,3.7877259 L 6.3806213,3.7756479 L 6.3779568,3.76357 L 6.3739604,3.7530018 L 6.3712961,3.7409237 L 6.3699641,3.7303557 L 6.3686319,3.7182775 L 6.3659676,3.7061996 L 6.3659676,3.6941217 L 6.3659676,3.6820436 L 6.3646355,3.6699657 L 6.3646355,3.6699657 L 6.3353283,3.6699657 L 6.3353283,3.6699657 L 6.3353283,3.6699657"
       style="fill:#d98e9a;fill-opacity:1;stroke:none;stroke-width:0.001" />
    <path
       id="path2421"
       d="M 6.3433211,3.0449305 L 6.3433211,3.7031801 L 11.354848,3.7031801 L 11.354848,3.0449305 L 6.3433211,3.0449305"
       style="fill:#a04f5c;stroke:none;stroke-width:0.001" />
    <path
       id="path2423"
       d="M 11.354848,3.0177548 L 11.350851,3.0675766 L 11.341527,3.1173982 L 11.325541,3.1657101 L 11.302895,3.2125124 L 11.274919,3.2608243 L 11.241615,3.3061167 L 11.201651,3.3529188 L 11.156357,3.3951919 L 11.108401,3.4389744 L 11.052451,3.4797376 L 10.991173,3.5205007 L 10.925897,3.5597541 L 10.857958,3.5974979 L 10.782025,3.6352415 L 10.704761,3.6699657 L 10.62217,3.7046898 L 10.534246,3.7363946 L 10.443661,3.7665896 L 10.34908,3.7952748 L 10.251833,3.8224502 L 10.149258,3.8466061 L 10.044018,3.870762 L 9.9374457,3.8918984 L 9.8255464,3.9115252 L 9.7123139,3.9296422 L 9.5964174,3.9447396 L 9.4778565,3.9568176 L 9.3566315,3.9688956 L 9.232742,3.9764445 L 9.1075205,3.9824833 L 8.9809668,3.9870125 L 8.8517487,3.9885224 L 8.7238629,3.9870125 L 8.5973091,3.9824833 L 8.4720877,3.9764445 L 8.3481983,3.9688956 L 8.2269731,3.9568176 L 8.1084123,3.9447396 L 7.9911835,3.9296422 L 7.8792833,3.9115252 L 7.7687155,3.8918984 L 7.6594798,3.870762 L 7.5555723,3.8466061 L 7.4529974,3.8224502 L 7.3544186,3.7952748 L 7.2598362,3.7665896 L 7.1705827,3.7363946 L 7.0826613,3.7046898 L 7.0014004,3.6699657 L 6.9214717,3.6352415 L 6.8468715,3.5974979 L 6.7776001,3.5597541 L 6.712325,3.5205007 L 6.6523786,3.4797376 L 6.5964285,3.4389744 L 6.5471392,3.3951919 L 6.5031784,3.3529188 L 6.4618819,3.3061167 L 6.4285784,3.2608243 L 6.4006033,3.2125124 L 6.3779568,3.1657101 L 6.3633034,3.1173982 L 6.3539782,3.0675766 L 6.3499817,3.0177548 L 6.3539782,2.9679333 L 6.3633034,2.9181116 L 6.3779568,2.8713095 L 6.4006033,2.8229976 L 6.4285784,2.7761955 L 6.4618819,2.7293933 L 6.5031784,2.6841009 L 6.5471392,2.6403181 L 6.5964285,2.5980453 L 6.6523786,2.5572822 L 6.712325,2.5150092 L 6.7776001,2.4757558 L 6.8468715,2.4380122 L 6.9214717,2.4017782 L 7.0014004,2.3670541 L 7.0826613,2.3323298 L 7.1705827,2.3006251 L 7.2598362,2.2689205 L 7.3544186,2.2417451 L 7.4529974,2.2145696 L 7.5555723,2.188904 L 7.6594798,2.1662577 L 7.7687155,2.1436114 L 7.8792833,2.1239848 L 7.9911835,2.1073775 L 8.1084123,2.0922801 L 8.2269731,2.0786924 L 8.3481983,2.0681242 L 8.4720877,2.0590658 L 8.5973091,2.0545364 L 8.7238629,2.0500072 L 8.8517487,2.0484975 L 8.9809668,2.0500072 L 9.1075205,2.0545364 L 9.232742,2.0590658 L 9.3566315,2.0681242 L 9.4778565,2.0786924 L 9.5964174,2.0922801 L 9.7123139,2.1073775 L 9.8255464,2.1239848 L 9.9374457,2.1436114 L 10.044018,2.1662577 L 10.149258,2.188904 L 10.251833,2.2145696 L 10.34908,2.2417451 L 10.443661,2.2689205 L 10.534246,2.3006251 L 10.62217,2.3323298 L 10.704761,2.3670541 L 10.782025,2.4017782 L 10.857958,2.4380122 L 10.925897,2.4757558 L 10.991173,2.5150092 L 11.052451,2.5572822 L 11.108401,2.5980453 L 11.156357,2.6403181 L 11.201651,2.6841009 L 11.241615,2.7293933 L 11.274919,2.7761955 L 11.302895,2.8229976 L 11.325541,2.8713095 L 11.341527,2.9181116 L 11.350851,2.9679333 L 11.354848,3.0177548"
       style="fill:url(#linearGradient10316);fill-opacity:1;stroke:none;stroke-width:0.001" />
    <path
       id="path2435"
       d="M 6.3646355,3.7122386 L 6.3646355,2.9985218 L 6.3353283,2.9985218 L 6.3353283,3.7122386 L 6.3646355,3.7122386"
       style="fill:#d98e9a;stroke:none;stroke-width:0.001" />
    <path
       id="path2441"
       d="M 11.369502,3.7122386 L 11.369502,3.0046744 L 11.338863,3.0046744 L 11.338863,3.7122386 L 11.369502,3.7122386"
       style="fill:#d98e9a;stroke:none;stroke-width:0.001" />
    <path
       id="path2453"
       d="M 9.416578,3.5645033 L 8.8581814,3.2858638 L 8.8442909,3.3189227 L 9.4040765,3.5959881 L 9.416578,3.5645033"
       style="fill:#714049;stroke:none;stroke-width:0.001" />
    <path
       id="path2459"
       d="M 9.0895948,2.0386742 L 6.4372966,3.2595341 L 6.4481779,3.2919056 L 9.1004761,2.0710454 L 9.0895948,2.0386742"
       style="fill:#714049;stroke:none;stroke-width:0.001" />
    <path
       id="path2465"
       d="M 10.065122,2.1636107 L 6.9054859,3.619958 L 6.9162056,3.6518488 L 10.077183,2.1955014 L 10.065122,2.1636107"
       style="fill:#714049;stroke:none;stroke-width:0.001" />
    <path
       id="path2471"
       d="M 10.78469,2.3987589 L 7.6221796,3.8556645 L 7.6341688,3.8873692 L 10.796679,2.4304634 L 10.78469,2.3987589"
       style="fill:#714049;stroke:none;stroke-width:0.001" />
    <path
       id="path2477"
       d="M 7.7331351,2.1593475 L 6.4245144,2.7611569 L 6.4357232,2.7960905 L 7.7443437,2.1926931 L 7.7331351,2.1593475"
       style="fill:#714049;stroke:none;stroke-width:0.001" />
    <path
       id="path2483"
       d="M 11.241615,2.7354322 L 8.5893163,3.9568176 L 8.6013057,3.9885224 L 11.253605,2.7671371 L 11.241615,2.7354322"
       style="fill:#714049;stroke:none;stroke-width:0.001" />
    <path
       id="path2489"
       d="M 11.170525,3.3619774 L 10.294347,3.792958 L 10.306885,3.8261104 L 11.18167,3.3951297 L 11.170525,3.3619774"
       style="fill:#714049;stroke:none;stroke-width:0.001" />
    <path
       id="path2495"
       d="M 7.2318612,2.8949803 L 6.7151958,2.6389946 L 6.7043754,2.6711845 L 7.218336,2.9271701 L 7.2318612,2.8949803"
       style="fill:#714049;stroke:none;stroke-width:0.001" />
    <path
       id="path2501"
       d="M 8.2402945,2.4164801 L 7.7395948,2.1671677 L 7.7287981,2.1977583 L 8.2281481,2.4470706 L 8.2402945,2.4164801"
       style="fill:#714049;stroke:none;stroke-width:0.001" />
    <path
       id="path2507"
       d="M 7.3024648,3.4442645 L 6.7011144,3.1429107 L 6.6874783,3.1769096 L 7.2901925,3.4767181 L 7.3024648,3.4442645"
       style="fill:#714049;stroke:none;stroke-width:0.001" />
    <path
       id="path2513"
       d="M 8.3295482,2.9644837 L 7.7422026,2.6722091 L 7.7300504,2.7028138 L 8.3160459,2.9966186 L 8.3295482,2.9644837"
       style="fill:#714049;stroke:none;stroke-width:0.001" />
    <path
       id="path2519"
       d="M 9.371285,2.4782017 L 8.7853869,2.184623 L 8.7718245,2.2169012 L 9.3590788,2.51048 L 9.371285,2.4782017"
       style="fill:#714049;stroke:none;stroke-width:0.001" />
    <path
       id="path2525"
       d="M 8.3854982,3.4918156 L 7.8220014,3.2094929 L 7.8086797,3.2411975 L 8.373509,3.5235202 L 8.3854982,3.4918156"
       style="fill:#714049;stroke:none;stroke-width:0.001" />
    <path
       id="path2531"
       d="M 9.4338958,3.0169892 L 8.8533795,2.7259604 L 8.8410862,2.7584689 L 9.4216024,3.0479499 L 9.4338958,3.0169892"
       style="fill:#714049;stroke:none;stroke-width:0.001" />
    <path
       id="path2537"
       d="M 10.475632,2.5285969 L 9.9054755,2.2432548 L 9.894818,2.2749594 L 10.463644,2.5603017 L 10.475632,2.5285969"
       style="fill:#714049;stroke:none;stroke-width:0.001" />
    <path
       id="path2543"
       d="M 10.52359,3.0565577 L 9.9731605,2.780022 L 9.960393,2.813785 L 10.510823,3.088713 L 10.52359,3.0565577"
       style="fill:#714049;stroke:none;stroke-width:0.001" />
    <path
       id="path2549"
       d="M 9.3379814,3.9598372 L 8.9862954,3.7831968 L 8.9729738,3.8149014 L 9.325992,3.9915419 L 9.3379814,3.9598372"
       style="fill:#714049;stroke:none;stroke-width:0.001" />
    <path
       id="path2555"
       d="M 10.636822,3.6141051 L 10.025368,3.3061167 L 10.012047,3.3393313 L 10.624833,3.6458097 L 10.636822,3.6141051"
       style="fill:#714049;stroke:none;stroke-width:0.001" />
    <path
       id="path2561"
       d="M 11.356269,2.9633493 L 11.06951,2.817269 L 11.055028,2.8533787 L 11.341785,2.9978178 L 11.356269,2.9633493"
       style="fill:#714049;stroke:none;stroke-width:0.001" />
    <path
       id="path2567"
       d="M 9.4069527,3.5548147 L 8.8486255,3.2748167 L 8.8360632,3.3080367 L 9.3957861,3.5880347 L 9.4069527,3.5548147"
       style="fill:#ecaab4;stroke:none;stroke-width:0.001" />
    <path
       id="path2579"
       d="M 10.038869,2.1484391 L 6.8841716,3.6034082 L 6.8948701,3.6367514 L 10.050905,2.1832977 L 10.038869,2.1484391"
       style="fill:#ecaab4;stroke:none;stroke-width:0.001" />
    <path
       id="path2585"
       d="M 10.763442,2.3826119 L 7.591393,3.8439615 L 7.6021049,3.8758288 L 10.775494,2.4144792 L 10.763442,2.3826119"
       style="fill:#ecaab4;stroke:none;stroke-width:0.001" />
    <path
       id="path2597"
       d="M 11.232291,2.715268 L 8.5153114,3.9667687 L 8.5274167,3.9987802 L 11.244396,2.7457553 L 11.232291,2.715268"
       style="fill:#ecaab4;stroke:none;stroke-width:0.001" />
    <path
       id="path2603"
       d="M 11.214243,3.3136654 L 10.152984,3.8373657 L 10.165701,3.8693963 L 11.226962,3.3456962 L 11.214243,3.3136654"
       style="fill:#ecaab4;stroke:none;stroke-width:0.001" />
    <path
       id="path2609"
       d="M 7.2105472,2.8798878 L 6.6953158,2.6208778 L 6.6831448,2.6530625 L 7.1983762,2.9120727 L 7.2105472,2.8798878"
       style="fill:#ecaab4;stroke:none;stroke-width:0.001" />
    <path
       id="path2615"
       d="M 8.2334313,2.4073733 L 7.7135893,2.1469415 L 7.7009786,2.1802893 L 8.2208207,2.4407211 L 8.2334313,2.4073733"
       style="fill:#ecaab4;stroke:none;stroke-width:0.001" />
    <path
       id="path2627"
       d="M 8.309566,2.9473191 L 7.710658,2.6499745 L 7.6969217,2.6826668 L 8.2958296,2.9800113 L 8.309566,2.9473191"
       style="fill:#ecaab4;stroke:none;stroke-width:0.001" />
    <path
       id="path2639"
       d="M 8.3815566,3.4844228 L 7.7984166,3.1929478 L 7.7860385,3.2256803 L 8.3691784,3.5171553 L 8.3815566,3.4844228"
       style="fill:#ecaab4;stroke:none;stroke-width:0.001" />
    <path
       id="path2645"
       d="M 9.4139136,3.0006065 L 8.8380861,2.7119281 L 8.825892,2.7441739 L 9.4017196,3.0328525 L 9.4139136,3.0006065"
       style="fill:#ecaab4;stroke:none;stroke-width:0.001" />
    <path
       id="path2651"
       d="M 10.455651,2.5119897 L 9.8854922,2.2266476 L 9.8735032,2.2583522 L 10.443661,2.5452043 L 10.455651,2.5119897"
       style="fill:#ecaab4;stroke:none;stroke-width:0.001" />
    <path
       id="path2657"
       d="M 10.514843,3.0453656 L 9.9541634,2.7653184 L 9.9397122,2.7997102 L 10.501837,3.0797576 L 10.514843,3.0453656"
       style="fill:#ecaab4;stroke:none;stroke-width:0.001" />
    <path
       id="path2663"
       d="M 9.3505158,3.9604755 L 8.9660491,3.7680991 L 8.9529918,3.8026282 L 9.3360076,3.9933603 L 9.3505158,3.9604755"
       style="fill:#ecaab4;stroke:none;stroke-width:0.001" />
    <path
       id="path2669"
       d="M 10.632545,3.6051853 L 10.004388,3.2910192 L 9.9907332,3.3235193 L 10.61889,3.6376853 L 10.632545,3.6051853"
       style="fill:#ecaab4;stroke:none;stroke-width:0.001" />
    <path
       id="path2675"
       d="M 11.353516,2.9581748 L 11.053651,2.8083348 L 11.040021,2.8407742 L 11.341249,2.9890698 L 11.353516,2.9581748"
       style="fill:#ecaab4;stroke:none;stroke-width:0.001" />
    <path
       id="path2679"
       d="M 8.8511398,4.0131389 L 8.8511398,4.0131389 L 8.9164307,4.0131389 L 8.9803891,4.0116168 L 9.0456799,4.0116168 L 9.1069735,4.0085728 L 9.1709318,4.0055288 L 9.2335578,4.0009629 L 9.2948512,3.997919 L 9.357477,3.9918309 L 9.4174381,3.9872649 L 9.4787315,3.9826989 L 9.53736,3.9766109 L 9.597321,3.9690009 L 9.6546167,3.9629131 L 9.7132452,3.9537811 L 9.7718737,3.9461712 L 9.8278376,3.9370391 L 9.8838013,3.9263853 L 9.9384333,3.9172533 L 9.9943963,3.9065991 L 10.047694,3.8944233 L 10.09966,3.8837693 L 10.152959,3.8715933 L 10.203594,3.8578955 L 10.255561,3.8441975 L 10.304863,3.8335435 L 10.352831,3.8183236 L 10.400799,3.8046257 L 10.447434,3.7894058 L 10.470087,3.7817958 L 10.494071,3.7741857 L 10.516722,3.7665759 L 10.538042,3.7589659 L 10.560694,3.749834 L 10.582014,3.742224 L 10.604666,3.733092 L 10.625985,3.725482 L 10.647304,3.7178721 L 10.667292,3.70874 L 10.688611,3.6996082 L 10.708598,3.6919983 L 10.729916,3.6828663 L 10.749905,3.6737342 L 10.769892,3.6646024 L 10.789877,3.6554705 L 10.808533,3.6463385 L 10.825856,3.6372064 L 10.845843,3.6280744 L 10.863164,3.6189426 L 10.881819,3.6082885 L 10.899141,3.5991566 L 10.916463,3.5900247 L 10.933786,3.5793706 L 10.951106,3.5702387 L 10.967098,3.5611067 L 10.983087,3.5504528 L 10.999075,3.5397988 L 11.015065,3.529145 L 11.031055,3.5200129 L 11.045713,3.5093589 L 11.06037,3.498705 L 11.075026,3.488051 L 11.088352,3.4773971 L 11.103008,3.4667432 L 11.116333,3.4560891 L 11.129658,3.4454353 L 11.142981,3.4332593 L 11.153641,3.4226054 L 11.168299,3.4104294 L 11.178958,3.4012975 L 11.189619,3.3891215 L 11.20161,3.3784676 L 11.213602,3.3662915 L 11.22293,3.3556376 L 11.23359,3.3434617 L 11.242918,3.3328077 L 11.253577,3.3206318 L 11.261572,3.3084558 L 11.270899,3.2978021 L 11.280226,3.2856262 L 11.28822,3.2734498 L 11.294885,3.2597519 L 11.302879,3.2490981 L 11.309541,3.2354001 L 11.317535,3.2232241 L 11.322864,3.2110482 L 11.329528,3.1988722 L 11.334859,3.1866962 L 11.338856,3.1745205 L 11.344186,3.1623442 L 11.349514,3.1486463 L 11.352179,3.1364705 L 11.356177,3.1227725 L 11.358841,3.1105965 L 11.362838,3.0968986 L 11.364172,3.0832006 L 11.366836,3.0710246 L 11.368169,3.0573268 L 11.369502,3.045151 L 11.369502,3.0314529 L 11.369502,3.0177548 L 11.338856,3.0177548 L 11.338856,3.0299309 L 11.338856,3.0421067 L 11.338856,3.0542826 L 11.33619,3.0664587 L 11.334859,3.0786345 L 11.333525,3.0892886 L 11.329528,3.1014646 L 11.326862,3.1136404 L 11.322864,3.1242945 L 11.321532,3.1364705 L 11.316203,3.1486463 L 11.310872,3.1593004 L 11.305544,3.1714764 L 11.301547,3.1836524 L 11.296216,3.1958284 L 11.290886,3.2064822 L 11.285556,3.2171361 L 11.277562,3.2293121 L 11.270899,3.2399661 L 11.262904,3.2521421 L 11.256243,3.262796 L 11.246914,3.274972 L 11.240253,3.2856262 L 11.230924,3.2978021 L 11.221598,3.3084558 L 11.212269,3.3206318 L 11.20161,3.3312857 L 11.192284,3.3419398 L 11.181625,3.3525936 L 11.172296,3.3632476 L 11.160303,3.3739016 L 11.148312,3.3845555 L 11.136321,3.3967314 L 11.124328,3.4058634 L 11.111003,3.4165173 L 11.099011,3.4286932 L 11.085686,3.4378253 L 11.072361,3.4484791 L 11.059038,3.4576113 L 11.04438,3.4697871 L 11.029724,3.4789191 L 11.015065,3.489573 L 10.999075,3.500227 L 10.98442,3.5093589 L 10.969761,3.5200129 L 10.953771,3.529145 L 10.937783,3.5397988 L 10.920461,3.5504528 L 10.903138,3.5580626 L 10.885818,3.5687168 L 10.868495,3.5778485 L 10.84984,3.5869806 L 10.833849,3.5976346 L 10.813863,3.6052447 L 10.79654,3.6143765 L 10.776555,3.6235085 L 10.757899,3.6326405 L 10.737912,3.6417725 L 10.717924,3.6509043 L 10.69794,3.6600363 L 10.679283,3.6676463 L 10.657965,3.6767784 L 10.636645,3.6859103 L 10.616658,3.6919983 L 10.595339,3.7011302 L 10.574019,3.70874 L 10.551368,3.7178721 L 10.530047,3.7239599 L 10.507396,3.733092 L 10.486076,3.740702 L 10.462092,3.748312 L 10.439439,3.7559219 L 10.392804,3.7696198 L 10.344836,3.7848398 L 10.296866,3.7985376 L 10.247566,3.8122357 L 10.196932,3.8244117 L 10.146298,3.8365876 L 10.094333,3.8487635 L 10.042365,3.8609395 L 9.9890653,3.8715933 L 9.9331033,3.8822474 L 9.8798053,3.8913792 L 9.8238401,3.9020334 L 9.7678765,3.9111654 L 9.7105811,3.9187752 L 9.6519524,3.9263853 L 9.5946562,3.9355172 L 9.5346952,3.9416052 L 9.4747341,3.9476933 L 9.4161057,3.9537811 L 9.3548121,3.9583471 L 9.2948512,3.9629131 L 9.2322252,3.9674791 L 9.1709318,3.9705231 L 9.1069735,3.973567 L 9.0443475,3.975089 L 8.9803891,3.9766109 L 8.9164307,3.9781331 L 8.8511398,3.9781331 L 8.8511398,3.9781331 L 8.8511398,4.0131389 L 8.8511398,4.0131389 L 8.8511398,4.0131389"
       style="fill:#d98e9a;stroke:none;stroke-width:0.001" />
    <path
       id="path2681"
       d="M 6.3353283,3.0177548 L 6.3353283,3.0177548 L 6.3353283,3.0314585 L 6.3353283,3.045162 L 6.3353283,3.0573428 L 6.337993,3.0710461 L 6.339325,3.0832271 L 6.3433221,3.0969306 L 6.3446543,3.110634 L 6.3486513,3.122815 L 6.3513159,3.1365184 L 6.3553128,3.1486991 L 6.3593098,3.1624026 L 6.364639,3.1745838 L 6.3699683,3.1867645 L 6.3752973,3.1989454 L 6.3806268,3.2111263 L 6.3872882,3.223307 L 6.3939497,3.2354879 L 6.4019436,3.2491915 L 6.4099372,3.2598496 L 6.4165988,3.2720305 L 6.4245927,3.2857344 L 6.4339188,3.2979152 L 6.4419127,3.3085731 L 6.4499065,3.3207541 L 6.4618972,3.3329349 L 6.4698912,3.3435932 L 6.4805495,3.3557741 L 6.4912081,3.3664323 L 6.5031987,3.3786132 L 6.5138571,3.3892715 L 6.5258479,3.4014524 L 6.5365062,3.410588 L 6.5498294,3.422769 L 6.5618201,3.4334272 L 6.5738109,3.445608 L 6.5884663,3.4562661 L 6.6017893,3.4669245 L 6.6151123,3.4775827 L 6.6297677,3.4882409 L 6.6444232,3.4988993 L 6.6590784,3.5095574 L 6.6737338,3.5202157 L 6.6897215,3.5293515 L 6.7043768,3.5400096 L 6.7203645,3.5506679 L 6.7363521,3.5613261 L 6.7536721,3.5704618 L 6.7709922,3.5795974 L 6.7883122,3.5902559 L 6.8056321,3.5993914 L 6.8229521,3.608527 L 6.8416043,3.6191854 L 6.8602565,3.6283208 L 6.8775767,3.6374566 L 6.8962289,3.6465923 L 6.9148812,3.6557281 L 6.9348657,3.6648636 L 6.9548502,3.6739991 L 6.9748348,3.6831349 L 6.9948194,3.6922706 L 7.014804,3.6998835 L 7.036121,3.7090191 L 7.0574378,3.7181547 L 7.0787546,3.7257678 L 7.1000715,3.7333809 L 7.1213884,3.7425166 L 7.1427054,3.7501296 L 7.1653544,3.7592652 L 7.1880038,3.7668783 L 7.2106531,3.7744911 L 7.2333019,3.7821043 L 7.2572836,3.7897175 L 7.3039143,3.8049435 L 7.3518773,3.8186469 L 7.3998404,3.8338729 L 7.4491356,3.8445312 L 7.5010955,3.8582348 L 7.551723,3.8719382 L 7.6050153,3.884119 L 7.6569753,3.8947773 L 7.7102673,3.906958 L 7.7662243,3.9176165 L 7.8208488,3.9267522 L 7.8754733,3.9374104 L 7.9340948,3.9465461 L 7.9913838,3.954159 L 8.048673,3.9632948 L 8.1059621,3.9693851 L 8.165916,3.9769981 L 8.2245373,3.9830886 L 8.2858235,3.9876563 L 8.3471095,3.9922243 L 8.4083955,3.9983148 L 8.4710139,4.00136 L 8.5336321,4.0059276 L 8.5975828,4.008973 L 8.6588689,4.0120182 L 8.7228196,4.0120182 L 8.7881026,4.0135408 L 8.8520532,4.0135408 L 8.8520532,3.9785209 L 8.7881026,3.9785209 L 8.7241519,3.9769981 L 8.6615335,3.9754756 L 8.5975828,3.9739529 L 8.5336321,3.9709078 L 8.4723462,3.9678626 L 8.4097277,3.9632948 L 8.3497741,3.9587269 L 8.288488,3.954159 L 8.2285342,3.9480689 L 8.1699129,3.9419782 L 8.1099591,3.9358878 L 8.0526699,3.9267522 L 7.9940485,3.9191391 L 7.9367593,3.9115262 L 7.8808026,3.9023904 L 7.8248457,3.8917321 L 7.7702212,3.8825965 L 7.7155968,3.8719382 L 7.6636368,3.8612801 L 7.6090123,3.8490991 L 7.5583848,3.8369182 L 7.507757,3.8247375 L 7.4571294,3.8125566 L 7.4065019,3.7988529 L 7.3585388,3.7851496 L 7.3119081,3.7699235 L 7.2652775,3.75622 L 7.2426283,3.7486071 L 7.2186467,3.740994 L 7.1973298,3.7333809 L 7.1746806,3.7242451 L 7.1520315,3.7181547 L 7.1307145,3.7090191 L 7.1080655,3.7014062 L 7.0880809,3.6922706 L 7.0680962,3.6861801 L 7.0467794,3.6770446 L 7.0254624,3.6679087 L 7.0054779,3.6602956 L 6.9854935,3.6511599 L 6.9655086,3.6420245 L 6.9468565,3.6328888 L 6.9282042,3.6237531 L 6.9082197,3.6146173 L 6.8895672,3.605482 L 6.8722474,3.5978688 L 6.853595,3.5872104 L 6.8362751,3.5780747 L 6.8189551,3.5689393 L 6.8016352,3.5582808 L 6.7843152,3.5506679 L 6.7669952,3.5400096 L 6.7510076,3.5293515 L 6.73502,3.5202157 L 6.7190321,3.5095574 L 6.7043768,3.5004218 L 6.6897215,3.4897636 L 6.6750662,3.4791054 L 6.6604107,3.4699697 L 6.6457554,3.4577889 L 6.6324324,3.4486531 L 6.6191093,3.4379949 L 6.6057863,3.4288592 L 6.5937955,3.4166783 L 6.5791401,3.4060202 L 6.5684817,3.3968844 L 6.556491,3.3847036 L 6.5445002,3.3740455 L 6.5325094,3.3633871 L 6.5231833,3.3527288 L 6.5125249,3.3420707 L 6.5031987,3.3314122 L 6.4925403,3.3207541 L 6.4832142,3.3085731 L 6.4725557,3.2979152 L 6.4645619,3.2857344 L 6.4565681,3.2750759 L 6.4485742,3.2628951 L 6.4419127,3.2522367 L 6.4339188,3.2400558 L 6.4259251,3.2293975 L 6.4205958,3.2172167 L 6.4139343,3.2065585 L 6.408605,3.1959003 L 6.4019436,3.1837193 L 6.3966142,3.1715385 L 6.3939497,3.1593577 L 6.3886204,3.1486991 L 6.3832912,3.1365184 L 6.3806268,3.1243375 L 6.377962,3.1136792 L 6.3739651,3.1014984 L 6.3713005,3.0893175 L 6.3699683,3.078659 L 6.3686359,3.0664784 L 6.3659713,3.0542974 L 6.3659713,3.0421165 L 6.3659713,3.0299359 L 6.364639,3.0177548 L 6.364639,3.0177548 L 6.3353283,3.0177548 L 6.3353283,3.0177548 L 6.3353283,3.0177548"
       style="fill:#d98e9a;stroke:none;stroke-width:0.001" />
    <path
       id="path2591"
       d="M 7.7073334,2.1451213 L 6.4523682,2.7243987 L 6.4631289,2.7548867 L 7.718094,2.177134 L 7.7073334,2.1451213"
       style="fill:#ecaab4;stroke:none;stroke-width:0.001" />
    <path
       id="path2683"
       d="M 8.8517487,2.0303805 L 8.8517487,2.0303805 L 8.7878059,2.0303805 L 8.7225308,2.0303805 L 8.6585878,2.0334 L 8.5973091,2.0349098 L 8.5333662,2.0394391 L 8.4707555,2.0424585 L 8.4081447,2.0469879 L 8.3468661,2.051517 L 8.2855875,2.0560462 L 8.2243088,2.0620852 L 8.1656946,2.0681242 L 8.1057479,2.075673 L 8.0484657,2.0817119 L 7.9911835,2.0907703 L 7.9339014,2.0998289 L 7.875287,2.1073775 L 7.8206691,2.1179459 L 7.7660512,2.1270042 L 7.710101,2.1360628 L 7.6568154,2.1481408 L 7.6048617,2.158709 L 7.5515759,2.1722967 L 7.5009545,2.1843747 L 7.4490009,2.1979625 L 7.3997116,2.2115501 L 7.3517543,2.223628 L 7.3037971,2.2387255 L 7.2571721,2.2523132 L 7.2105472,2.2689205 L 7.165254,2.2825082 L 7.1426077,2.2915668 L 7.1212933,2.3006251 L 7.099979,2.3081738 L 7.0786647,2.3157227 L 7.0573504,2.3232714 L 7.0360362,2.3323298 L 7.0147218,2.3413884 L 6.9947396,2.3504468 L 6.9747574,2.3595054 L 6.9547753,2.3685638 L 6.9347932,2.3761127 L 6.9148111,2.385171 L 6.896161,2.3942295 L 6.8775111,2.403288 L 6.860193,2.4138562 L 6.8415431,2.4214049 L 6.8228931,2.4319732 L 6.8055752,2.4410316 L 6.7882574,2.4500902 L 6.7709395,2.4606584 L 6.7536215,2.4697168 L 6.7363036,2.4802851 L 6.7203179,2.4908533 L 6.7043322,2.4999118 L 6.6896786,2.51048 L 6.6736929,2.5210483 L 6.6590392,2.5316164 L 6.6443858,2.5421846 L 6.6297321,2.552753 L 6.6150785,2.5618114 L 6.6017571,2.5738894 L 6.5884357,2.5844576 L 6.5737821,2.5935161 L 6.5617927,2.6055941 L 6.5498035,2.6161623 L 6.5364819,2.6267303 L 6.5258249,2.6372987 L 6.5138355,2.6493766 L 6.5031784,2.659945 L 6.4911892,2.672023 L 6.4805319,2.6841009 L 6.4698749,2.6946692 L 6.4618819,2.7067471 L 6.4498926,2.7188252 L 6.4418998,2.7293933 L 6.4339069,2.7414712 L 6.4245819,2.7535493 L 6.416589,2.7656272 L 6.4099282,2.7761955 L 6.4019355,2.7897832 L 6.3939426,2.8018612 L 6.3872819,2.8124294 L 6.3806213,2.8260172 L 6.3752925,2.8380951 L 6.3699641,2.850173 L 6.3646355,2.8637608 L 6.3593069,2.8758388 L 6.3553104,2.8879167 L 6.351314,2.9015044 L 6.3486497,2.9135824 L 6.3446532,2.9271701 L 6.3433211,2.939248 L 6.3393245,2.9528358 L 6.3379927,2.9664234 L 6.3353283,2.9785015 L 6.3353283,2.9920893 L 6.3353283,3.0056769 L 6.3353283,3.0177548 L 6.3646355,3.0177548 L 6.3659676,3.0056769 L 6.3659676,2.9935991 L 6.3659676,2.9830308 L 6.3686319,2.9709529 L 6.3699641,2.9588747 L 6.3712961,2.9467968 L 6.3739604,2.9362286 L 6.3779568,2.9226408 L 6.3806213,2.9120727 L 6.3832854,2.9015044 L 6.388614,2.8894264 L 6.3939426,2.8773485 L 6.3966068,2.8652705 L 6.4019355,2.8547023 L 6.4085961,2.8441339 L 6.4139248,2.8305463 L 6.4205855,2.8214877 L 6.4259141,2.8079 L 6.4339069,2.7973318 L 6.4418998,2.7852538 L 6.4485605,2.7761955 L 6.4565534,2.7626079 L 6.4645463,2.7535493 L 6.4725391,2.7399616 L 6.4831963,2.7293933 L 6.4925213,2.7203348 L 6.5031784,2.7082569 L 6.5125035,2.6976887 L 6.5231606,2.6856106 L 6.5324855,2.6765521 L 6.5444749,2.6659839 L 6.5564642,2.6554157 L 6.5684535,2.6433376 L 6.5791106,2.6327696 L 6.5937642,2.6222013 L 6.6057536,2.6116329 L 6.619075,2.6025745 L 6.6323965,2.5920062 L 6.6457178,2.5799283 L 6.6603714,2.5708698 L 6.6750251,2.5603017 L 6.6896786,2.5512431 L 6.7043322,2.5406749 L 6.7189857,2.5316164 L 6.7349716,2.5210483 L 6.7509573,2.51048 L 6.766943,2.5014215 L 6.7842609,2.4908533 L 6.8015788,2.4817947 L 6.8188966,2.4727364 L 6.8362145,2.4636779 L 6.8535323,2.4531095 L 6.8721824,2.4440512 L 6.8895002,2.4365025 L 6.9081504,2.4259341 L 6.9281325,2.4168756 L 6.9467825,2.4078173 L 6.9654324,2.4002686 L 6.9854148,2.3912101 L 7.0053968,2.3821515 L 7.0253789,2.3730929 L 7.0466933,2.3670541 L 7.0680076,2.3564859 L 7.0879898,2.3489371 L 7.107972,2.3413884 L 7.1306183,2.3323298 L 7.1519327,2.3232714 L 7.1745791,2.3172323 L 7.2185398,2.3006251 L 7.265165,2.2870374 L 7.31179,2.2719399 L 7.358415,2.2583522 L 7.4063723,2.2447646 L 7.4569937,2.2296671 L 7.5076152,2.2190989 L 7.5582368,2.2055112 L 7.6088582,2.1949429 L 7.6634761,2.1813553 L 7.7154298,2.1722967 L 7.7700476,2.1617286 L 7.8246655,2.1511602 L 7.8806156,2.1421018 L 7.9365656,2.1330434 L 7.9938478,2.1239848 L 8.0524622,2.1164361 L 8.1097444,2.1088874 L 8.169691,2.1028484 L 8.2283052,2.0968095 L 8.2882517,2.0907703 L 8.3495304,2.0847314 L 8.4094768,2.0802022 L 8.4720877,2.0771827 L 8.5333662,2.0741632 L 8.5973091,2.0711437 L 8.6612521,2.0681242 L 8.7238629,2.0681242 L 8.7878059,2.0666145 L 8.8517487,2.0651047 L 8.8517487,2.0651047 L 8.8517487,2.0303805 L 8.8517487,2.0303805 L 8.8517487,2.0303805"
       style="fill:#d98e9a;stroke:none;stroke-width:0.001" />
    <path
       id="path2573"
       d="M 9.0315883,2.0394391 L 6.4339069,3.2351585 L 6.4458961,3.268373 L 9.0422454,2.0711437 L 9.0315883,2.0394391"
       style="fill:#ecaab4;stroke:none;stroke-width:0.001" />
    <path
       id="path2685"
       d="M 11.369502,3.0177548 L 11.369502,3.0056769 L 11.369502,2.9920893 L 11.368169,2.9785015 L 11.366837,2.9664234 L 11.364173,2.9528358 L 11.36284,2.939248 L 11.358844,2.9271701 L 11.35618,2.9135824 L 11.352183,2.9015044 L 11.349519,2.8879167 L 11.344192,2.8758388 L 11.338863,2.8637608 L 11.334867,2.850173 L 11.329538,2.8380951 L 11.322875,2.8260172 L 11.317548,2.8124294 L 11.309555,2.8018612 L 11.302895,2.7897832 L 11.294903,2.7761955 L 11.28824,2.7656272 L 11.280248,2.7535493 L 11.270923,2.7414712 L 11.261598,2.7293933 L 11.253605,2.7188252 L 11.242949,2.7067471 L 11.233623,2.6946692 L 11.222965,2.6841009 L 11.21364,2.672023 L 11.201651,2.659945 L 11.189662,2.6493766 L 11.179004,2.6372987 L 11.168348,2.6267303 L 11.153693,2.6161623 L 11.143036,2.6055941 L 11.129716,2.5935161 L 11.116394,2.5844576 L 11.103072,2.5738894 L 11.08842,2.5618114 L 11.075097,2.552753 L 11.060445,2.5421846 L 11.045791,2.5316164 L 11.031137,2.5210483 L 11.015151,2.51048 L 10.999165,2.4999118 L 10.98318,2.4908533 L 10.967195,2.4802851 L 10.951207,2.4697168 L 10.933891,2.4606584 L 10.916573,2.4500902 L 10.899255,2.4410316 L 10.881937,2.4319732 L 10.863286,2.4214049 L 10.84597,2.4138562 L 10.825987,2.403288 L 10.808669,2.3942295 L 10.790017,2.385171 L 10.770037,2.3761127 L 10.750055,2.3685638 L 10.730071,2.3595054 L 10.708758,2.3504468 L 10.688776,2.3413884 L 10.667462,2.3323298 L 10.647479,2.3232714 L 10.626165,2.3157227 L 10.604851,2.3081738 L 10.582204,2.3006251 L 10.56089,2.2915668 L 10.538243,2.2825082 L 10.494283,2.2689205 L 10.447657,2.2523132 L 10.401033,2.2387255 L 10.353077,2.223628 L 10.30512,2.2115501 L 10.25583,2.1979625 L 10.203876,2.1843747 L 10.153253,2.1722967 L 10.099967,2.158709 L 10.048014,2.1481408 L 9.9947289,2.1360628 L 9.9387792,2.1270042 L 9.8841606,2.1179459 L 9.8282104,2.1073775 L 9.77226,2.0998289 L 9.7136457,2.0907703 L 9.6550313,2.0817119 L 9.5977495,2.075673 L 9.537803,2.0681242 L 9.4791887,2.0620852 L 9.4179101,2.0560462 L 9.3579635,2.051517 L 9.2953528,2.0469879 L 9.2340742,2.0424585 L 9.1714634,2.0394391 L 9.1075205,2.0349098 L 9.0462418,2.0334 L 8.9809668,2.0303805 L 8.9170238,2.0303805 L 8.8517487,2.0303805 L 8.8517487,2.0651047 L 8.9170238,2.0666145 L 8.9809668,2.0681242 L 9.0449097,2.0681242 L 9.1075205,2.0711437 L 9.1714634,2.0741632 L 9.232742,2.0771827 L 9.2953528,2.0802022 L 9.3552992,2.0847314 L 9.416578,2.0907703 L 9.4751922,2.0968095 L 9.5351388,2.1028484 L 9.5950853,2.1088874 L 9.6523677,2.1164361 L 9.7109822,2.1239848 L 9.7682638,2.1330434 L 9.8242138,2.1421018 L 9.880165,2.1511602 L 9.93345,2.1617286 L 9.9893996,2.1722967 L 10.042686,2.1813553 L 10.094641,2.1949429 L 10.146594,2.2055112 L 10.197216,2.2190989 L 10.247837,2.2296671 L 10.297125,2.2447646 L 10.345084,2.2583522 L 10.39304,2.2719399 L 10.439664,2.2870374 L 10.48629,2.3006251 L 10.53025,2.3172323 L 10.551566,2.3232714 L 10.574211,2.3323298 L 10.595526,2.3413884 L 10.61684,2.3489371 L 10.636822,2.3564859 L 10.658137,2.3670541 L 10.67945,2.3730929 L 10.698102,2.3821515 L 10.718082,2.3912101 L 10.738065,2.4002686 L 10.758047,2.4078173 L 10.776698,2.4168756 L 10.796679,2.4259341 L 10.813997,2.4365025 L 10.833979,2.4440512 L 10.849966,2.4531095 L 10.868616,2.4636779 L 10.885935,2.4727364 L 10.903251,2.4817947 L 10.92057,2.4908533 L 10.937887,2.5014215 L 10.953872,2.51048 L 10.969858,2.5210483 L 10.984513,2.5316164 L 10.999165,2.5406749 L 11.015151,2.5512431 L 11.029806,2.5603017 L 11.044459,2.5708698 L 11.059113,2.5799283 L 11.072433,2.5920062 L 11.085755,2.6025745 L 11.099076,2.6116329 L 11.111066,2.6222013 L 11.124387,2.6327696 L 11.136377,2.6433376 L 11.148365,2.6554157 L 11.160354,2.6659839 L 11.172344,2.6765521 L 11.18167,2.6856106 L 11.192327,2.6976887 L 11.201651,2.7082569 L 11.212307,2.7203348 L 11.221634,2.7293933 L 11.230958,2.7399616 L 11.240284,2.7535493 L 11.246944,2.7626079 L 11.25627,2.7761955 L 11.26293,2.7852538 L 11.270923,2.7973318 L 11.277584,2.8079 L 11.285576,2.8214877 L 11.290905,2.8305463 L 11.296234,2.8441339 L 11.301563,2.8547023 L 11.305559,2.8652705 L 11.310886,2.8773485 L 11.316216,2.8894264 L 11.321544,2.9015044 L 11.322875,2.9120727 L 11.326872,2.9226408 L 11.329538,2.9362286 L 11.333534,2.9467968 L 11.334867,2.9588747 L 11.336198,2.9709529 L 11.338863,2.9830308 L 11.338863,2.9935991 L 11.338863,3.0056769 L 11.338863,3.0177548 L 11.369502,3.0177548"
       style="fill:#d98e9a;stroke:none;stroke-width:0.001" />
    <path
       id="path2687"
       d="M 8.9170238,2.803371 L 9.2846956,2.9422675 L 10.155919,2.5497334 L 10.563556,2.6614548 L 10.34908,2.3127031 L 9.3006814,2.3127031 L 9.7389564,2.4334828 L 8.9170238,2.803371"
       style="fill:#1f1a17;stroke:none;stroke-width:0.001" />
    <path
       id="path2621"
       d="M 7.2824828,3.42961 L 6.6877075,3.1322254 L 6.6755968,3.1627264 L 7.2690263,3.4601109 L 7.2824828,3.42961"
       style="fill:#ecaab4;stroke:none;stroke-width:0.001" />
    <path
       id="path2689"
       d="M 8.7638272,3.2034539 L 8.3948232,3.0660668 L 7.5236009,3.4586011 L 7.1186291,3.34688 L 7.3317721,3.6956315 L 8.3815018,3.6956315 L 7.9432263,3.5733418 L 8.7638272,3.2034539"
       style="fill:#1f1a17;stroke:none;stroke-width:0.001" />
    <path
       id="path2691"
       d="M 7.2065506,2.4334828 L 7.5768866,2.2960959 L 8.446777,2.6886302 L 8.8544132,2.575399 L 8.6386056,2.9241506 L 7.588876,2.9241506 L 8.0284836,2.803371 L 7.2065506,2.4334828"
       style="fill:#1f1a17;stroke:none;stroke-width:0.001" />
    <path
       id="path2693"
       d="M 8.9476631,2.8380951 L 9.316667,2.9769919 L 10.18789,2.5844576 L 10.594193,2.6961789 L 10.379719,2.3459176 L 9.3299885,2.3459176 L 9.7682638,2.4682071 L 8.9476631,2.8380951"
       style="fill:white;stroke:none;stroke-width:0.001" />
    <path
       id="path2695"
       d="M 8.7957987,3.2381781 L 8.4254627,3.100791 L 7.5542404,3.4933253 L 7.1479361,3.3800944 L 7.3624115,3.7303557 L 8.4121412,3.7303557 L 7.9738656,3.6095758 L 8.7957987,3.2381781"
       style="fill:white;stroke:none;stroke-width:0.001" />
    <path
       id="path2697"
       d="M 7.23719,2.4682071 L 7.6061939,2.3293103 L 8.4774162,2.7218445 L 8.8837202,2.6101233 L 8.6705771,2.9588747 L 7.6208474,2.9588747 L 8.059123,2.8380951 L 7.23719,2.4682071"
       style="fill:white;stroke:none;stroke-width:0.001" />
    <path
       id="path2699"
       d="M 10.470304,3.6382611 L 10.105297,3.7756479 L 9.2433991,3.3861333 L 8.8397595,3.4978545 L 9.0529024,3.1521225 L 10.090643,3.1521225 L 9.6576958,3.2729024 L 10.470304,3.6382611"
       style="fill:#1f1a17;stroke:none;stroke-width:0.001" />
    <path
       id="path2701"
       d="M 10.495615,3.6820436 L 10.133272,3.8194307 L 9.2713742,3.429916 L 8.8677345,3.5416372 L 9.0808777,3.1959051 L 10.118618,3.1959051 L 9.6843384,3.3151753 L 10.495615,3.6820436"
       style="fill:white;stroke:none;stroke-width:0.001" />
    <path
       id="path2633"
       d="M 9.3513028,2.4618837 L 8.76931,2.1724586 L 8.7572132,2.2029244 L 9.3392062,2.4938728 L 9.3513028,2.4618837"
       style="fill:#ecaab4;stroke:none;stroke-width:0.001" />
  </g>
</svg>
