<?xml version="1.0" encoding="UTF-8" standalone="no"?>
<svg
   xmlns:ns="http://creativecommons.org/ns#"
   xmlns:dc="http://purl.org/dc/elements/1.1/"
   xmlns:cc="http://web.resource.org/cc/"
   xmlns:rdf="http://www.w3.org/1999/02/22-rdf-syntax-ns#"
   xmlns:svg="http://www.w3.org/2000/svg"
   xmlns="http://www.w3.org/2000/svg"
   xmlns:sodipodi="http://sodipodi.sourceforge.net/DTD/sodipodi-0.dtd"
   xmlns:inkscape="http://www.inkscape.org/namespaces/inkscape"
   width="40.000019"
   height="60"
   viewBox="4 5 19.567417 26.67"
   id="svg2"
   version="1.1"
   inkscape:version="0.45.1"
   sodipodi:docname="sip_server.selected.svg"
   sodipodi:version="0.32"
   inkscape:output_extension="org.inkscape.output.svg.inkscape"
   sodipodi:docbase="X:\symbols">
  <title
     id="title5193">SIP server</title>
  <metadata
     id="metadata122">
    <rdf:RDF>
      <ns:Work
         rdf:about="">
        <dc:format>image/svg+xml</dc:format>
        <dc:type
           rdf:resource="http://purl.org/dc/dcmitype/StillImage" />
        <ns:license
           rdf:resource="" />
        <dc:title>SIP server</dc:title>
        <dc:creator>
          <ns:Agent>
            <dc:title>Jeremy Grossmann</dc:title>
          </ns:Agent>
        </dc:creator>
        <dc:publisher>
          <ns:Agent>
            <dc:title>GNS-3</dc:title>
          </ns:Agent>
        </dc:publisher>
        <dc:description>Created for the GNS-3 project
(www.gns3.net)</dc:description>
      </ns:Work>
      <ns:Work
         rdf:about="">
        <dc:format>image/svg+xml</dc:format>
        <dc:type
           rdf:resource="http://purl.org/dc/dcmitype/StillImage" />
      </ns:Work>
      <cc:Work
         rdf:about="">
        <dc:format>image/svg+xml</dc:format>
        <dc:type
           rdf:resource="http://purl.org/dc/dcmitype/StillImage" />
      </cc:Work>
    </rdf:RDF>
  </metadata>
  <defs
     id="defs120">
    <linearGradient
       id="linearGradient5116">
      <stop
         style="stop-color:#6e8caa;stop-opacity:1;"
         offset="0"
         id="stop5118" />
      <stop
         style="stop-color:#6e8caa;stop-opacity:0;"
         offset="1"
         id="stop5120" />
    </linearGradient>
    <inkscape:perspective
       sodipodi:type="inkscape:persp3d"
       inkscape:vp_x="0 : 70.866142 : 1"
       inkscape:vp_y="0 : 1000 : 0"
       inkscape:vp_z="106.29921 : 70.866142 : 1"
       inkscape:persp3d-origin="53.149605 : 47.244095 : 1"
       id="perspective124" />
  </defs>
  <sodipodi:namedview
     pagecolor="#ffffff"
     bordercolor="#666666"
     borderopacity="1"
     objecttolerance="10"
     gridtolerance="10"
     guidetolerance="10"
     inkscape:pageopacity="0"
     inkscape:pageshadow="2"
     inkscape:window-width="960"
     inkscape:window-height="676"
     id="namedview118"
     showgrid="false"
     inkscape:zoom="4.7096454"
     inkscape:cx="-4.2539352"
     inkscape:cy="25.709671"
     inkscape:window-x="0"
     inkscape:window-y="0"
     inkscape:window-maximized="0"
     inkscape:current-layer="g4" />
  <g
     id="g4"
     transform="translate(-16.555088,-23.017903)">
    <rect
       style="fill:#000000;fill-opacity:0.55686275"
       id="rect5191"
       width="15.630231"
       height="1.182209"
       x="21.305155"
       y="54.826042" />
    <path
       id="path5176"
       d="M 36.917434,56.028459 L 40.122505,53.873553 L 40.122505,27.028588 L 36.917434,29.180231 L 36.917434,56.028459 z "
       style="fill:#000000;fill-opacity:0.55686275" />
    <path
       style="fill:#49659d;fill-opacity:1"
       d="M 20.585662,28.800475 L 20.585662,55.292865 L 36.944954,55.292865 L 36.944954,28.800475 L 20.585662,28.800475 L 20.585662,28.800475 L 20.585662,28.800475 z "
       id="path6" />
    <path
       style="fill:none;stroke:#8dcaef;stroke-width:0.01464331"
       d="M 20.585662,28.800475 L 20.585662,55.228266"
       id="path8" />
    <path
       style="fill:#506daa;fill-opacity:1"
       d="M 20.585662,28.905561 L 22.8444,26.782433 L 39.674276,26.782433 L 37.394689,28.905561 L 20.585662,28.905561 L 20.585662,28.905561 z "
       id="path12" />
    <path
       style="fill:#009bdf"
       d="M 21.543539,30.348431 L 28.817724,30.348431 L 28.817724,33.634924 L 21.543539,33.634924 L 21.543539,30.348431 L 21.543539,30.348431 z "
       id="path16" />
    <path
       style="fill:#495b89;fill-opacity:1"
       d="M 21.543539,30.348431 L 28.817724,30.348431 L 28.817724,33.634924 L 21.543539,33.634924 L 21.543539,30.348431 L 21.543539,30.348431 z "
       id="path18" />
    <path
       style="fill:#00688f"
       d="M 28.919334,30.348431 L 28.817724,30.251421 L 21.543539,30.251421 L 21.543539,30.448582 L 28.817724,30.448582 L 28.919334,30.348427 L 28.919334,30.348427 L 28.919334,30.251417 L 28.817724,30.251417 L 28.919334,30.348427 L 28.919334,30.348431 z "
       id="path20" />
    <path
       style="fill:#00688f"
       d="M 28.817724,33.72542 L 28.919334,33.63492 L 28.919334,30.348427 L 28.719561,30.348427 L 28.719561,33.63492 L 28.817721,33.72542 L 28.817721,33.72542 L 28.919331,33.72542 L 28.919331,33.63492 L 28.817721,33.72542 L 28.817724,33.72542 z "
       id="path22" />
    <path
       style="fill:#00688f"
       d="M 21.445375,33.634924 L 21.543535,33.725424 L 28.81772,33.725424 L 28.81772,33.537993 L 21.543535,33.537993 L 21.445375,33.634933 L 21.445375,33.634933 L 21.445375,33.725433 L 21.543535,33.725433 L 21.445375,33.634933 L 21.445375,33.634924 z "
       id="path24" />
    <path
       style="fill:#00688f"
       d="M 21.543539,30.251425 L 21.445379,30.348435 L 21.445379,33.634928 L 21.641706,33.634928 L 21.641706,30.348435 L 21.543546,30.251425 L 21.543546,30.251425 L 21.445386,30.251425 L 21.445386,30.348435 L 21.543546,30.251425 L 21.543539,30.251425 z "
       id="path26" />
    <path
       style="fill:#000000;fill-opacity:1"
       d="M 27.609344,32.216503 L 22.758739,32.216503 L 22.758739,31.763562 L 27.609344,31.763562 L 27.609344,32.216503 z "
       id="path30" />
    <path
       style="fill:#e6e9e9"
       d="M 20.890267,53.308665 L 20.690569,53.308665 L 20.690569,53.696477 L 20.890267,53.696477 L 20.890267,53.308665 z "
       id="path34" />
    <path
       style="fill:#e6e9e9"
       d="M 36.630158,53.308665 L 20.890267,53.308665 L 20.890267,53.696477 L 36.630158,53.696477 L 36.630158,53.308665 z "
       id="path36" />
    <path
       style="fill:#e6e9e9"
       d="M 36.630158,53.696477 L 36.833229,53.696477 L 36.833229,53.308665 L 36.630158,53.308665 L 36.630158,53.696477 z "
       id="path38" />
    <path
       style="fill:#e6e9e9"
       d="M 20.890267,39.164087 L 20.690569,39.164087 L 20.690569,39.54546 L 20.890267,39.54546 L 20.890267,39.164087 z "
       id="path40" />
    <path
       style="fill:#e6e9e9"
       d="M 36.653837,39.164087 L 20.890267,39.164087 L 20.890267,39.54546 L 36.653837,39.54546 L 36.653837,39.164087 z "
       id="path42" />
    <path
       style="fill:#e6e9e9"
       d="M 36.653837,39.54546 L 36.853535,39.54546 L 36.853535,39.164087 L 36.653837,39.164087 L 36.653837,39.54546 z "
       id="path44" />
    <path
       style="fill:#00688f"
       d="M 20.788732,53.189124 L 20.585662,53.189124 L 20.585662,53.576936 L 20.788732,53.576936 L 20.788732,53.189124 z "
       id="path46" />
    <path
       style="fill:#00688f"
       d="M 36.728322,53.189124 L 20.788732,53.189124 L 20.788732,53.576936 L 36.728322,53.576936 L 36.728322,53.189124 z "
       id="path48" />
    <path
       style="fill:#00688f"
       d="M 36.728322,53.576936 L 36.92802,53.576936 L 36.92802,53.189124 L 36.728322,53.189124 L 36.728322,53.576936 z "
       id="path50" />
    <path
       style="fill:#00688f"
       d="M 20.815783,39.041325 L 20.60934,39.041325 L 20.60934,39.425847 L 20.815783,39.425847 L 20.815783,39.041325 z "
       id="path52" />
    <path
       style="fill:#00688f"
       d="M 36.779052,39.041325 L 20.815783,39.041325 L 20.815783,39.425847 L 36.779052,39.425847 L 36.779052,39.041325 z "
       id="path54" />
    <path
       style="fill:#00688f"
       d="M 36.779052,39.425847 L 36.982196,39.425847 L 36.982196,39.041325 L 36.779052,39.041325 L 36.779052,39.425847 z "
       id="path56" />
    <path
       style="fill:#1f1a17"
       d="M 30.730256,50.70079 L 29.569234,50.70079 L 29.569234,45.388104 L 30.730256,45.388104 L 30.730256,50.70079 z "
       id="path66" />
    <path
       style="fill:#1f1a17"
       d="M 32.977816,50.70079 L 31.813422,50.70079 L 31.813422,45.388104 L 34.358844,45.388104 L 34.453634,45.388104 L 34.548424,45.391304 L 34.64996,45.404254 L 34.74137,45.420424 L 34.82597,45.436594 L 34.91401,45.452764 L 34.99861,45.478584 L 35.07984,45.507694 L 35.1577,45.533514 L 35.23219,45.572284 L 35.3066,45.611054 L 35.37771,45.649824 L 35.43863,45.695104 L 35.50292,45.743534 L 35.56391,45.792034 L 35.62483,45.846974 L 35.67556,45.901914 L 35.72637,45.963304 L 35.77373,46.027914 L 35.81772,46.092594 L 35.85841,46.160414 L 35.89901,46.231524 L 35.93281,46.305854 L 35.95993,46.383404 L 35.98698,46.460954 L 36.01403,46.541794 L 36.03096,46.632224 L 36.05126,46.719504 L 36.06482,46.806784 L 36.07152,46.900504 L 36.08171,46.991004 L 36.08171,47.091158 L 36.08171,47.133148 L 36.07152,47.188088 L 36.07152,47.243028 L 36.06482,47.297968 L 36.05812,47.359348 L 36.04793,47.424008 L 36.031,47.491828 L 36.01407,47.556508 L 35.99722,47.627558 L 35.97347,47.692238 L 35.94304,47.763348 L 35.91592,47.834468 L 35.88212,47.908728 L 35.8415,47.979838 L 35.80089,48.050948 L 35.75345,48.115628 L 35.70272,48.177018 L 35.64854,48.248138 L 35.58761,48.312748 L 35.52332,48.374128 L 35.45558,48.429078 L 35.3811,48.484018 L 35.30324,48.535738 L 35.21527,48.587458 L 35.12386,48.629448 L 35.02907,48.668218 L 34.924162,48.700548 L 34.815883,48.726368 L 34.693967,48.752188 L 34.575496,48.771568 L 34.443538,48.778068 L 34.311505,48.784468 L 32.977834,48.784468 L 32.977834,50.700777 L 34.054257,47.869917 L 34.135487,47.863517 L 34.209967,47.853817 L 34.277627,47.853817 L 34.335187,47.837647 L 34.396107,47.824697 L 34.453667,47.808527 L 34.507847,47.792357 L 34.548457,47.769757 L 34.599187,47.747157 L 34.633057,47.721267 L 34.673667,47.692227 L 34.707537,47.666407 L 34.741407,47.637297 L 34.768457,47.601747 L 34.785387,47.572707 L 34.809067,47.540377 L 34.832747,47.508047 L 34.846307,47.475717 L 34.859867,47.433727 L 34.873347,47.404687 L 34.883537,47.369137 L 34.897097,47.333587 L 34.900497,47.298037 L 34.907197,47.265707 L 34.913997,47.201097 L 34.917397,47.139647 L 34.917397,47.084777 L 34.917397,47.036277 L 34.917397,46.991067 L 34.917397,46.942567 L 34.913997,46.900577 L 34.907197,46.855297 L 34.897077,46.816527 L 34.886897,46.777757 L 34.880197,46.738987 L 34.859897,46.703437 L 34.842967,46.667887 L 34.826037,46.642067 L 34.809107,46.609737 L 34.785427,46.577477 L 34.761747,46.548367 L 34.734627,46.522547 L 34.707577,46.499877 L 34.677067,46.477277 L 34.650017,46.454677 L 34.616137,46.432077 L 34.575517,46.415917 L 34.541727,46.399747 L 34.501037,46.383577 L 34.453677,46.373877 L 34.409687,46.357707 L 34.362247,46.344757 L 34.311517,46.335057 L 34.260707,46.328557 L 34.209977,46.318857 L 34.152427,46.312357 L 34.094877,46.312357 L 34.030587,46.305957 L 33.966217,46.305957 L 33.898557,46.302757 L 32.977846,46.302757 L 32.977846,47.870029 L 34.054269,47.870029 L 32.977846,50.70089 L 32.977816,50.70079 z "
       id="path68" />
    <path
       style="fill:#000000"
       d="M 24.447817,42.363372 L 34.866594,42.363372 L 34.866594,41.293725 L 24.447817,41.293725 L 24.447817,42.363372 L 24.447817,42.363372 z "
       id="path70" />
    <path
       style="fill:#000000"
       d="M 22.856901,43.878993 L 22.856901,43.878993 L 22.856901,43.843443 L 22.856901,43.798163 L 22.860301,43.759393 L 22.860301,43.720623 L 22.867101,43.688363 L 22.870501,43.646303 L 22.877201,43.610753 L 22.883901,43.575273 L 22.894091,43.536433 L 22.907651,43.500953 L 22.911051,43.465403 L 22.924611,43.429853 L 22.934731,43.394303 L 22.951661,43.358753 L 22.965221,43.323203 L 22.975341,43.287653 L 22.992271,43.255323 L 23.009201,43.223063 L 23.026131,43.190733 L 23.039611,43.158403 L 23.059911,43.122853 L 23.080211,43.090593 L 23.107331,43.064703 L 23.124261,43.032443 L 23.147941,43.000113 L 23.168241,42.971003 L 23.191921,42.945183 L 23.215601,42.909633 L 23.239351,42.883813 L 23.266401,42.861143 L 23.290081,42.835323 L 23.320581,42.806283 L 23.347631,42.780393 L 23.378131,42.751353 L 23.405181,42.728683 L 23.432231,42.709303 L 23.462731,42.686703 L 23.489781,42.657663 L 23.527021,42.638283 L 23.554141,42.622113 L 23.587941,42.599513 L 23.618441,42.583353 L 23.652311,42.560683 L 23.686101,42.544593 L 23.716611,42.528423 L 23.753861,42.512253 L 23.787661,42.496083 L 23.824891,42.476703 L 23.858771,42.467003 L 23.899391,42.450913 L 23.929891,42.441213 L 23.970491,42.428263 L 24.011111,42.418563 L 24.048341,42.405613 L 24.082141,42.395913 L 24.122741,42.389413 L 24.159981,42.386213 L 24.200591,42.379813 L 24.241201,42.370113 L 24.281891,42.370113 L 24.322501,42.370113 L 24.363121,42.363713 L 24.400351,42.363713 L 24.447711,42.363713 L 24.447711,41.294066 L 24.373231,41.294066 L 24.308941,41.300466 L 24.234461,41.300466 L 24.173531,41.306966 L 24.095671,41.316666 L 24.034741,41.323066 L 23.967081,41.332766 L 23.902711,41.348936 L 23.835051,41.361886 L 23.767311,41.371586 L 23.703021,41.394186 L 23.638731,41.410356 L 23.577801,41.432956 L 23.513431,41.452336 L 23.455951,41.475006 L 23.394961,41.497606 L 23.330671,41.520206 L 23.273111,41.552536 L 23.215551,41.578356 L 23.154621,41.607466 L 23.100441,41.639726 L 23.039511,41.668836 L 22.985401,41.701166 L 22.931221,41.739936 L 22.877041,41.772196 L 22.826311,41.811036 L 22.775501,41.846516 L 22.724691,41.885286 L 22.677331,41.924126 L 22.626521,41.969336 L 22.575791,42.008106 L 22.528351,42.050096 L 22.484361,42.098596 L 22.443751,42.137366 L 22.396391,42.189086 L 22.355781,42.237516 L 22.315171,42.279506 L 22.277921,42.334446 L 22.233861,42.386166 L 22.203441,42.434666 L 22.166211,42.489606 L 22.132331,42.538026 L 22.098461,42.592976 L 22.064661,42.647916 L 22.037541,42.702856 L 22.007121,42.757796 L 21.980001,42.819186 L 21.949581,42.874126 L 21.925901,42.932296 L 21.905601,42.993746 L 21.881851,43.051916 L 21.854801,43.113306 L 21.841241,43.174686 L 21.824391,43.239366 L 21.807461,43.300756 L 21.793901,43.358916 L 21.776971,43.426816 L 21.766851,43.491426 L 21.760051,43.552806 L 21.756651,43.617486 L 21.749951,43.682096 L 21.743151,43.749996 L 21.739751,43.814606 L 21.739751,43.879286 L 21.739751,43.879286 L 22.856786,43.879286 L 22.856786,43.879286 L 22.856786,43.879286 L 22.856786,43.879286 L 22.856901,43.878993 z "
       id="path72" />
    <path
       style="fill:#000000"
       d="M 24.539237,45.320285 L 24.491797,45.320285 L 24.454567,45.320285 L 24.407207,45.316985 L 24.366597,45.316985 L 24.325977,45.310585 L 24.288747,45.304185 L 24.241317,45.300885 L 24.200707,45.294485 L 24.160097,45.281535 L 24.122857,45.278335 L 24.082257,45.265455 L 24.041647,45.255755 L 24.001027,45.249355 L 23.960427,45.233185 L 23.919807,45.223485 L 23.885937,45.207395 L 23.841947,45.194445 L 23.801327,45.178275 L 23.770907,45.162105 L 23.737037,45.145935 L 23.703167,45.129765 L 23.662557,45.113675 L 23.628687,45.091005 L 23.591447,45.074835 L 23.561027,45.052235 L 23.527157,45.029635 L 23.496737,45.010255 L 23.462857,44.987655 L 23.432357,44.965055 L 23.398557,44.942385 L 23.371437,44.922995 L 23.337637,44.893955 L 23.313887,44.871355 L 23.283457,44.845465 L 23.263157,44.816425 L 23.239477,44.797045 L 23.208977,44.761495 L 23.188677,44.742115 L 23.158177,44.713005 L 23.134507,44.680675 L 23.114207,44.651635 L 23.097277,44.625815 L 23.073597,44.599925 L 23.056667,44.564375 L 23.032987,44.532115 L 23.016057,44.506225 L 22.995757,44.477185 L 22.982197,44.438415 L 22.968717,44.406085 L 22.955157,44.380195 L 22.941597,44.347935 L 22.931487,44.312385 L 22.914557,44.276835 L 22.907857,44.241285 L 22.894297,44.208955 L 22.890897,44.176695 L 22.877337,44.137855 L 22.870637,44.105595 L 22.867237,44.066825 L 22.860437,44.034495 L 22.860437,43.995725 L 22.857037,43.956955 L 22.857037,43.918185 L 22.857037,43.879415 L 21.740002,43.879415 L 21.740002,43.947235 L 21.743402,44.018345 L 21.750202,44.083025 L 21.756902,44.150845 L 21.760302,44.215525 L 21.770482,44.280135 L 21.783962,44.348035 L 21.800892,44.406195 L 21.811082,44.474015 L 21.834762,44.532245 L 21.851692,44.600075 L 21.875372,44.658235 L 21.895672,44.719625 L 21.922792,44.777855 L 21.949842,44.839235 L 21.980262,44.894175 L 22.007382,44.949115 L 22.037802,45.010505 L 22.064922,45.065445 L 22.098722,45.120385 L 22.132592,45.175325 L 22.173212,45.223755 L 22.207082,45.272255 L 22.247692,45.327195 L 22.288312,45.375625 L 22.328912,45.427345 L 22.372902,45.469335 L 22.413522,45.514615 L 22.460962,45.563035 L 22.504952,45.605095 L 22.559132,45.650305 L 22.603122,45.695585 L 22.650562,45.731065 L 22.701292,45.769835 L 22.752102,45.808675 L 22.802832,45.847445 L 22.857012,45.886215 L 22.907822,45.918475 L 22.965382,45.957245 L 23.022862,45.989575 L 23.080422,46.018685 L 23.131232,46.044505 L 23.188782,46.076835 L 23.249712,46.105875 L 23.307272,46.131765 L 23.371562,46.160805 L 23.429112,46.180185 L 23.490042,46.202855 L 23.554412,46.225455 L 23.611892,46.248055 L 23.672892,46.264225 L 23.743932,46.286825 L 23.801482,46.302995 L 23.869222,46.312695 L 23.930152,46.328865 L 24.001192,46.341815 L 24.068932,46.351515 L 24.133222,46.361215 L 24.200882,46.374165 L 24.268622,46.380565 L 24.332912,46.383765 L 24.400652,46.383765 L 24.471692,46.390265 L 24.539432,46.390265 L 24.539432,45.320615 L 24.539432,45.320615 L 24.539237,45.320285 z "
       id="path74" />
    <path
       style="fill:#000000"
       d="M 26.279047,45.320285 L 24.539237,45.320285 L 24.539237,46.389935 L 26.279047,46.389935 L 26.279047,45.320285 z "
       id="path76" />
    <path
       style="fill:#000000"
       d="M 28.892208,48.021877 L 28.892208,48.021877 L 28.892208,47.953977 L 28.885508,47.889297 L 28.885508,47.824687 L 28.878708,47.763297 L 28.875308,47.698617 L 28.865198,47.630797 L 28.851638,47.572647 L 28.838078,47.507967 L 28.831378,47.446587 L 28.817818,47.378687 L 28.800888,47.320517 L 28.784038,47.259137 L 28.767108,47.200977 L 28.743428,47.139517 L 28.726498,47.081357 L 28.702748,47.019967 L 28.682448,46.958577 L 28.652028,46.903637 L 28.624978,46.845477 L 28.601228,46.784087 L 28.570808,46.729147 L 28.536928,46.674207 L 28.509878,46.619267 L 28.476008,46.564327 L 28.445508,46.515827 L 28.411718,46.460887 L 28.371108,46.412467 L 28.337238,46.357527 L 28.296618,46.305807 L 28.256018,46.257307 L 28.215408,46.208877 L 28.171348,46.160377 L 28.130728,46.115167 L 28.086738,46.073177 L 28.039378,46.027897 L 27.988568,45.982687 L 27.941208,45.940697 L 27.897148,45.895417 L 27.843038,45.856647 L 27.792228,45.821097 L 27.738048,45.782327 L 27.690688,45.749997 L 27.633128,45.711227 L 27.575578,45.678967 L 27.524848,45.643417 L 27.460478,45.611087 L 27.399548,45.585267 L 27.345368,45.556157 L 27.284438,45.523827 L 27.226878,45.501227 L 27.162588,45.478627 L 27.098298,45.452807 L 27.030558,45.436637 L 26.969628,45.414037 L 26.905338,45.397867 L 26.837678,45.381697 L 26.763198,45.371997 L 26.698908,45.352617 L 26.631168,45.349417 L 26.566878,45.336467 L 26.492398,45.333267 L 26.424738,45.326867 L 26.353628,45.320467 L 26.279148,45.320467 L 26.279148,46.390116 L 26.319758,46.390116 L 26.360378,46.390116 L 26.400978,46.396516 L 26.441598,46.396516 L 26.475468,46.399716 L 26.516088,46.406116 L 26.549958,46.415816 L 26.590578,46.422216 L 26.617628,46.428716 L 26.658228,46.438416 L 26.692108,46.451366 L 26.722608,46.461066 L 26.763228,46.470766 L 26.797098,46.486936 L 26.830908,46.499816 L 26.858028,46.515986 L 26.891818,46.532156 L 26.929048,46.548326 L 26.956168,46.564496 L 26.989968,46.580666 L 27.017088,46.603266 L 27.047508,46.619436 L 27.081388,46.642036 L 27.111888,46.664636 L 27.138938,46.684016 L 27.169358,46.706616 L 27.196478,46.735726 L 27.226898,46.755106 L 27.254018,46.784216 L 27.284438,46.810036 L 27.304738,46.839076 L 27.335238,46.864966 L 27.355538,46.894006 L 27.385958,46.919896 L 27.399518,46.948936 L 27.433388,46.981266 L 27.453688,47.013596 L 27.477368,47.042636 L 27.494298,47.074966 L 27.517978,47.107296 L 27.534908,47.146066 L 27.558588,47.171886 L 27.575518,47.210656 L 27.592448,47.242986 L 27.609378,47.281756 L 27.626308,47.314086 L 27.643238,47.352856 L 27.660088,47.388406 L 27.673648,47.423956 L 27.683838,47.459506 L 27.693958,47.501496 L 27.707518,47.540266 L 27.717638,47.579036 L 27.731198,47.621026 L 27.737898,47.656576 L 27.748088,47.692126 L 27.751488,47.737336 L 27.758188,47.772886 L 27.764988,47.814876 L 27.768388,47.853716 L 27.775088,47.902146 L 27.775088,47.940916 L 27.775088,47.979686 L 27.775088,48.021746 L 27.775088,48.021746 L 28.892124,48.021746 L 28.892124,48.021746 L 28.892124,48.021746 L 28.892124,48.021746 L 28.892208,48.021877 z "
       id="path78" />
    <path
       style="fill:#000000"
       d="M 26.187703,50.607074 L 26.255363,50.607074 L 26.326473,50.600674 L 26.394133,50.597474 L 26.465243,50.590974 L 26.532903,50.584574 L 26.593833,50.574874 L 26.664943,50.568374 L 26.732603,50.552204 L 26.796963,50.539324 L 26.864623,50.526374 L 26.928913,50.510204 L 26.989833,50.494044 L 27.054203,50.471444 L 27.118493,50.448844 L 27.179423,50.422954 L 27.243713,50.406864 L 27.301263,50.377754 L 27.362193,50.348714 L 27.419753,50.322824 L 27.477303,50.297004 L 27.534863,50.267894 L 27.585673,50.229124 L 27.643233,50.196794 L 27.700783,50.164534 L 27.751513,50.132204 L 27.805693,50.093434 L 27.856423,50.054664 L 27.903863,50.015894 L 27.958043,49.973904 L 28.005403,49.935064 L 28.056213,49.893074 L 28.103573,49.851084 L 28.147563,49.802584 L 28.188163,49.760594 L 28.235603,49.712174 L 28.272833,49.666894 L 28.313453,49.615174 L 28.354063,49.566754 L 28.394683,49.518254 L 28.428553,49.469824 L 28.469173,49.414874 L 28.496223,49.359934 L 28.533453,49.308214 L 28.567333,49.256494 L 28.594383,49.201554 L 28.624883,49.146614 L 28.651933,49.085224 L 28.682353,49.030284 L 28.702653,48.968894 L 28.726403,48.910734 L 28.750083,48.849344 L 28.773763,48.787884 L 28.790693,48.726494 L 28.807623,48.661884 L 28.824553,48.600434 L 28.834673,48.542274 L 28.851603,48.477664 L 28.865163,48.409764 L 28.868563,48.348374 L 28.875263,48.283694 L 28.878663,48.219084 L 28.885463,48.154474 L 28.892163,48.086574 L 28.892163,48.021964 L 27.775127,48.021964 L 27.775127,48.060734 L 27.775127,48.105944 L 27.768427,48.141494 L 27.768427,48.177044 L 27.765027,48.212594 L 27.758227,48.257804 L 27.751527,48.290134 L 27.748127,48.328904 L 27.734567,48.367674 L 27.731167,48.403224 L 27.717607,48.438774 L 27.707487,48.477544 L 27.693927,48.509874 L 27.676997,48.542134 L 27.666877,48.580904 L 27.653317,48.613234 L 27.639757,48.645564 L 27.619457,48.681114 L 27.602607,48.713374 L 27.585677,48.742484 L 27.565377,48.778034 L 27.545077,48.807074 L 27.524777,48.839404 L 27.507847,48.871734 L 27.480727,48.904064 L 27.460427,48.933104 L 27.436747,48.958924 L 27.416447,48.984814 L 27.392767,49.020364 L 27.362267,49.039744 L 27.341967,49.065564 L 27.311547,49.094674 L 27.284427,49.123714 L 27.254007,49.146314 L 27.226887,49.172204 L 27.196467,49.194804 L 27.169347,49.217404 L 27.138927,49.236784 L 27.101697,49.259384 L 27.078017,49.282054 L 27.044147,49.304654 L 27.013727,49.317604 L 26.976487,49.336984 L 26.945987,49.359584 L 26.912117,49.372464 L 26.874877,49.388634 L 26.841077,49.408014 L 26.803847,49.417714 L 26.763247,49.437094 L 26.732737,49.446794 L 26.698937,49.459744 L 26.658247,49.469444 L 26.624457,49.485614 L 26.590577,49.495314 L 26.549967,49.501714 L 26.509357,49.511414 L 26.465367,49.517814 L 26.434867,49.524314 L 26.390877,49.527514 L 26.353647,49.533914 L 26.316397,49.533914 L 26.275787,49.540314 L 26.228427,49.540314 L 26.187807,49.540314 L 26.187807,50.606743 L 26.187807,50.606743 L 26.187703,50.607074 z "
       id="path80" />
    <path
       style="fill:#000000"
       d="M 23.00587,50.607074 L 26.187703,50.607074 L 26.187703,49.540645 L 23.00587,49.540645 L 23.00587,50.607074 L 23.00587,50.607074 z "
       id="path82" />
    <path
       style="fill:#000000"
       d="M 23.059972,51.347143 L 23.059972,48.768313 L 21.431888,50.006006 L 23.059972,51.347143 L 23.059972,51.347143 z "
       id="path84" />
    <path
       style="fill:#000000"
       d="M 34.815864,40.408289 L 34.815864,42.987048 L 36.443948,41.742917 L 34.815864,40.408289 L 34.815864,40.408289 z "
       id="path86" />
    <path
       style="fill:#ffffff"
       d="M 30.486496,50.51014 L 29.328847,50.51014 L 29.328847,45.200672 L 30.486496,45.200672 L 30.486496,50.51014 z "
       id="path88" />
    <path
       style="fill:#ffffff"
       d="M 32.727313,50.51014 L 31.566291,50.51014 L 31.566291,45.200672 L 34.115159,45.200672 L 34.209949,45.200672 L 34.311484,45.207172 L 34.402824,45.216872 L 34.500984,45.226572 L 34.585664,45.249172 L 34.673634,45.265342 L 34.758314,45.294382 L 34.839544,45.320272 L 34.917404,45.349312 L 34.991814,45.388082 L 35.062924,45.420412 L 35.137404,45.462402 L 35.198334,45.507682 L 35.262624,45.556112 L 35.326994,45.604612 L 35.381104,45.659552 L 35.435284,45.714492 L 35.486094,45.775872 L 35.530084,45.840482 L 35.577444,45.901922 L 35.618054,45.972972 L 35.658664,46.044092 L 35.692534,46.121642 L 35.719584,46.199192 L 35.750084,46.273522 L 35.773764,46.357582 L 35.794064,46.444792 L 35.810994,46.525632 L 35.824554,46.619352 L 35.834674,46.713072 L 35.841474,46.806792 L 35.841474,46.900512 L 35.841474,46.948932 L 35.834674,47.003872 L 35.834674,47.052372 L 35.824554,47.110532 L 35.817754,47.171922 L 35.807634,47.239822 L 35.790704,47.297992 L 35.773774,47.369102 L 35.753474,47.433712 L 35.733174,47.508042 L 35.702754,47.579152 L 35.675634,47.650272 L 35.641834,47.721322 L 35.601154,47.792442 L 35.560544,47.863552 L 35.513184,47.924942 L 35.462374,47.996052 L 35.411644,48.060732 L 35.347354,48.125342 L 35.286364,48.186732 L 35.215324,48.248192 L 35.140844,48.303052 L 35.062984,48.348332 L 34.971574,48.400052 L 34.883604,48.445262 L 34.785444,48.484032 L 34.683909,48.516362 L 34.575555,48.542182 L 34.453713,48.564782 L 34.335243,48.580952 L 34.203209,48.590652 L 34.071251,48.597052 L 32.727391,48.597052 L 32.727391,50.510143 L 33.814004,47.676062 L 33.891784,47.676062 L 33.966264,47.672862 L 34.037374,47.659912 L 34.098304,47.650212 L 34.155854,47.637262 L 34.210034,47.621092 L 34.264144,47.601712 L 34.311584,47.582332 L 34.358944,47.556512 L 34.396184,47.530622 L 34.433424,47.508022 L 34.463924,47.478982 L 34.501094,47.446652 L 34.524844,47.420762 L 34.548524,47.385282 L 34.568824,47.352952 L 34.592504,47.320622 L 34.609434,47.281852 L 34.619624,47.249522 L 34.633104,47.217262 L 34.643294,47.178492 L 34.656784,47.146162 L 34.660184,47.110612 L 34.666884,47.081502 L 34.673584,47.013682 L 34.676984,46.955512 L 34.676984,46.900572 L 34.676984,46.848852 L 34.676984,46.800352 L 34.676984,46.755142 L 34.673584,46.713152 L 34.666884,46.667872 L 34.656694,46.632322 L 34.649994,46.593552 L 34.633064,46.554782 L 34.619584,46.516012 L 34.602654,46.483752 L 34.585724,46.451422 L 34.568794,46.415872 L 34.545114,46.390052 L 34.524814,46.360942 L 34.494314,46.335122 L 34.470634,46.312452 L 34.436764,46.289852 L 34.409714,46.270472 L 34.375844,46.247872 L 34.335234,46.231702 L 34.301364,46.215532 L 34.250634,46.199362 L 34.210034,46.179982 L 34.165974,46.170282 L 34.121984,46.160582 L 34.071254,46.147702 L 34.020444,46.144402 L 33.966264,46.131522 L 33.912154,46.128322 L 33.847784,46.121822 L 33.786854,46.121822 L 33.722564,46.121822 L 33.658274,46.115422 L 32.727374,46.115422 L 32.727374,47.676256 L 33.813988,47.676256 L 32.727374,50.510336 L 32.727374,50.510336 L 32.727313,50.51014 z "
       id="path90" />
    <path
       style="fill:#ffffff"
       d="M 24.200686,42.172721 L 34.626282,42.172721 L 34.626282,41.109512 L 24.200686,41.109512 L 24.200686,42.172721 L 24.200686,42.172721 z "
       id="path92" />
    <path
       style="fill:#ffffff"
       d="M 22.613217,43.69478 L 22.613217,43.69478 L 22.613217,43.6495 L 22.613217,43.61073 L 22.616617,43.57525 L 22.616617,43.53641 L 22.626737,43.49764 L 22.633537,43.45887 L 22.636937,43.42661 L 22.643637,43.38784 L 22.653827,43.349 L 22.667307,43.31023 L 22.670707,43.27797 L 22.684187,43.2392 L 22.694377,43.20687 L 22.707857,43.1681 L 22.724787,43.13577 L 22.734977,43.10344 L 22.751907,43.07118 L 22.768837,43.03563 L 22.785687,43.00008 L 22.802617,42.97097 L 22.819547,42.93871 L 22.843227,42.90638 L 22.860157,42.87405 L 22.883837,42.84501 L 22.907587,42.81268 L 22.931267,42.78357 L 22.951567,42.75131 L 22.975247,42.72542 L 22.995547,42.69638 L 23.026047,42.67049 L 23.049727,42.64145 L 23.080147,42.61556 L 23.107267,42.59296 L 23.134317,42.56714 L 23.164817,42.54454 L 23.191867,42.51543 L 23.222367,42.49605 L 23.249417,42.47345 L 23.283287,42.45085 L 23.313717,42.43468 L 23.347587,42.41208 L 23.378087,42.38941 L 23.411877,42.37324 L 23.445757,42.35715 L 23.479627,42.33448 L 23.513427,42.32478 L 23.547297,42.30861 L 23.581167,42.29244 L 23.618417,42.27949 L 23.652287,42.2634 L 23.692907,42.2537 L 23.730067,42.244 L 23.770757,42.23105 L 23.801177,42.22135 L 23.841797,42.20847 L 23.879027,42.20527 L 23.919637,42.19877 L 23.960257,42.19237 L 24.000857,42.18267 L 24.041477,42.18267 L 24.082087,42.17627 L 24.122687,42.17627 L 24.159917,42.17627 L 24.200527,42.17307 L 24.200527,41.10986 L 24.139597,41.10986 L 24.065187,41.10986 L 23.994077,41.11306 L 23.926337,41.11956 L 23.862047,41.12596 L 23.794387,41.13566 L 23.726647,41.14536 L 23.655607,41.15831 L 23.591237,41.17448 L 23.526947,41.18418 L 23.462657,41.20678 L 23.398367,41.22295 L 23.333997,41.23912 L 23.273067,41.26172 L 23.215507,41.28432 L 23.154587,41.31021 L 23.090297,41.33281 L 23.032737,41.36192 L 22.975177,41.38774 L 22.910887,41.42007 L 22.856707,41.45233 L 22.799147,41.48144 L 22.741597,41.51377 L 22.687417,41.54603 L 22.636687,41.5848 L 22.585877,41.62364 L 22.531767,41.6559 L 22.484327,41.70118 L 22.430147,41.73995 L 22.386157,41.7755 L 22.338797,41.82071 L 22.287987,41.86592 L 22.247377,41.90798 L 22.203387,41.95319 L 22.152577,42.00169 L 22.115347,42.05012 L 22.074727,42.0954 L 22.037497,42.14383 L 21.996897,42.19877 L 21.963097,42.24727 L 21.925847,42.29569 L 21.891977,42.35063 L 21.854737,42.40557 L 21.824317,42.46051 L 21.793817,42.51546 L 21.766767,42.5704 L 21.739647,42.62534 L 21.709217,42.68673 L 21.685467,42.74811 L 21.665167,42.79983 L 21.641487,42.86773 L 21.617807,42.92267 L 21.600877,42.98728 L 21.583947,43.04867 L 21.567017,43.11335 L 21.553537,43.17473 L 21.536607,43.23941 L 21.526417,43.3008 L 21.516297,43.36541 L 21.509597,43.43009 L 21.502797,43.49791 L 21.502797,43.56258 L 21.496097,43.62719 L 21.496097,43.69509 L 21.496097,43.69509 L 22.613133,43.69509 L 22.613133,43.69509 L 22.613133,43.69509 L 22.613133,43.69509 L 22.613217,43.69478 z "
       id="path94" />
    <path
       style="fill:#ffffff"
       d="M 24.298849,45.136073 L 24.251489,45.136073 L 24.214259,45.136073 L 24.166899,45.129573 L 24.126289,45.129573 L 24.085669,45.123173 L 24.041609,45.119973 L 24.000989,45.113573 L 23.960389,45.107073 L 23.919769,45.097373 L 23.879159,45.090873 L 23.841919,45.081173 L 23.801299,45.068223 L 23.757309,45.058523 L 23.716709,45.048823 L 23.676089,45.029443 L 23.645589,45.019743 L 23.604979,45.010043 L 23.564359,44.993873 L 23.530489,44.977703 L 23.496699,44.958323 L 23.462819,44.942153 L 23.418829,44.926063 L 23.388329,44.903393 L 23.354449,44.884013 L 23.320659,44.867843 L 23.290159,44.845243 L 23.252919,44.822643 L 23.222499,44.800043 L 23.191999,44.777443 L 23.164949,44.758063 L 23.131079,44.735393 L 23.100569,44.706353 L 23.073519,44.680463 L 23.039639,44.657863 L 23.022709,44.632043 L 22.992289,44.609443 L 22.968609,44.577113 L 22.948309,44.548003 L 22.914439,44.522183 L 22.894139,44.493073 L 22.870459,44.467253 L 22.850159,44.438213 L 22.829859,44.405883 L 22.816299,44.379993 L 22.799369,44.347733 L 22.775689,44.318623 L 22.758759,44.286293 L 22.741829,44.254033 L 22.728349,44.221703 L 22.711419,44.186153 L 22.701229,44.153823 L 22.687669,44.128003 L 22.677549,44.089233 L 22.667369,44.056903 L 22.653889,44.024573 L 22.650489,43.989093 L 22.636929,43.950323 L 22.633529,43.917993 L 22.626729,43.879223 L 22.616609,43.843673 L 22.616609,43.808123 L 22.613209,43.772573 L 22.613209,43.733803 L 22.613209,43.695033 L 21.496173,43.695033 L 21.496173,43.759643 L 21.502873,43.824323 L 21.502873,43.898653 L 21.516433,43.963263 L 21.516433,44.027943 L 21.533363,44.095763 L 21.543483,44.153933 L 21.557043,44.221833 L 21.570603,44.286443 L 21.594283,44.347893 L 21.611213,44.412503 L 21.628143,44.473883 L 21.658563,44.532113 L 21.682243,44.593493 L 21.709363,44.648443 L 21.739793,44.706603 L 21.760093,44.761543 L 21.793963,44.822933 L 21.824463,44.877873 L 21.865073,44.926373 L 21.892123,44.981243 L 21.932743,45.036183 L 21.966623,45.084683 L 22.007223,45.136403 L 22.047833,45.184833 L 22.088453,45.233333 L 22.132443,45.281753 L 22.173063,45.327033 L 22.220503,45.375453 L 22.264493,45.420733 L 22.311853,45.462723 L 22.362663,45.508003 L 22.406653,45.540263 L 22.460833,45.585543 L 22.511563,45.624313 L 22.562373,45.659863 L 22.613183,45.695413 L 22.667293,45.730893 L 22.724853,45.766443 L 22.782403,45.798773 L 22.836583,45.831103 L 22.890763,45.856923 L 22.951693,45.892473 L 23.009253,45.918293 L 23.066803,45.947403 L 23.124353,45.973223 L 23.188643,45.995893 L 23.249573,46.018493 L 23.313863,46.037873 L 23.371423,46.060473 L 23.439163,46.076643 L 23.503453,46.092813 L 23.564383,46.115413 L 23.628673,46.128363 L 23.693043,46.144453 L 23.757333,46.154153 L 23.828373,46.163853 L 23.892743,46.176803 L 23.960403,46.180003 L 24.028143,46.186503 L 24.092433,46.192903 L 24.160093,46.199303 L 24.231203,46.202603 L 24.298863,46.202603 L 24.298863,45.136174 L 24.298863,45.136174 L 24.298849,45.136073 z "
       id="path96" />
    <path
       style="fill:#ffffff"
       d="M 26.038735,45.136073 L 24.298849,45.136073 L 24.298849,46.202502 L 26.038735,46.202502 L 26.038735,45.136073 z "
       id="path98" />
    <path
       style="fill:#ffffff"
       d="M 28.651897,47.834446 L 28.651897,47.834446 L 28.651897,47.769766 L 28.645197,47.701866 L 28.645197,47.637256 L 28.641797,47.572646 L 28.624947,47.511196 L 28.624947,47.446586 L 28.611387,47.378686 L 28.601207,47.320516 L 28.584277,47.259136 L 28.577577,47.191236 L 28.560647,47.133076 L 28.540347,47.074906 L 28.526867,47.013526 L 28.499747,46.948846 L 28.479447,46.893896 L 28.462517,46.832516 L 28.438837,46.774346 L 28.411787,46.712966 L 28.388037,46.658016 L 28.360987,46.596636 L 28.327107,46.541686 L 28.303427,46.486756 L 28.269547,46.431816 L 28.235757,46.380096 L 28.201887,46.325156 L 28.171387,46.270206 L 28.130767,46.224996 L 28.090167,46.170066 L 28.056367,46.121566 L 28.015767,46.073136 L 27.975077,46.021416 L 27.937897,45.972916 L 27.890457,45.930926 L 27.843097,45.885716 L 27.799037,45.840436 L 27.751677,45.792006 L 27.700947,45.753236 L 27.653517,45.711176 L 27.602787,45.672406 L 27.551977,45.633636 L 27.501167,45.594866 L 27.450437,45.556096 L 27.392877,45.523766 L 27.335317,45.491506 L 27.277767,45.459176 L 27.220207,45.426846 L 27.162647,45.391296 L 27.101727,45.365476 L 27.044167,45.336366 L 26.986607,45.316986 L 26.922317,45.287946 L 26.858027,45.265346 L 26.790287,45.249176 L 26.722627,45.226576 L 26.665077,45.210406 L 26.593967,45.194236 L 26.526307,45.178066 L 26.458567,45.168366 L 26.390907,45.155486 L 26.319797,45.152286 L 26.252137,45.139336 L 26.184397,45.139336 L 26.113357,45.136136 L 26.038877,45.136136 L 26.038877,46.202565 L 26.079487,46.202565 L 26.120107,46.202565 L 26.160707,46.208965 L 26.194587,46.208965 L 26.235207,46.215365 L 26.275807,46.218565 L 26.309687,46.225065 L 26.340107,46.234765 L 26.377347,46.241265 L 26.417967,46.254145 L 26.451837,46.263845 L 26.485707,46.273545 L 26.522947,46.286495 L 26.553367,46.296195 L 26.590597,46.312285 L 26.617647,46.325235 L 26.651517,46.341405 L 26.688757,46.360785 L 26.715807,46.380165 L 26.749687,46.396335 L 26.780187,46.412495 L 26.803867,46.431875 L 26.841107,46.454475 L 26.871527,46.477075 L 26.898647,46.499675 L 26.929067,46.522345 L 26.956187,46.541725 L 26.986607,46.570765 L 27.013727,46.593365 L 27.044147,46.619255 L 27.061077,46.648295 L 27.094957,46.674185 L 27.118637,46.703225 L 27.138937,46.735555 L 27.162607,46.761375 L 27.193107,46.790485 L 27.213407,46.822815 L 27.237087,46.855075 L 27.254017,46.887405 L 27.277697,46.919735 L 27.294627,46.955285 L 27.314927,46.984325 L 27.335227,47.026315 L 27.352157,47.058645 L 27.369087,47.097415 L 27.385937,47.129745 L 27.399497,47.162075 L 27.416427,47.200845 L 27.433357,47.239615 L 27.440057,47.278385 L 27.453617,47.313935 L 27.467177,47.352705 L 27.477297,47.388255 L 27.490857,47.430245 L 27.500977,47.469015 L 27.507777,47.507785 L 27.511177,47.549775 L 27.517877,47.588545 L 27.524677,47.627315 L 27.524677,47.672595 L 27.534797,47.708145 L 27.534797,47.753355 L 27.534797,47.792125 L 27.534797,47.834185 L 27.534797,47.834185 L 28.651834,47.834185 L 28.651834,47.834185 L 28.651834,47.834185 L 28.651834,47.834185 L 28.651897,47.834446 z "
       id="path100" />
    <path
       style="fill:#ffffff"
       d="M 25.947315,50.422862 L 26.018425,50.422862 L 26.086085,50.416462 L 26.153825,50.410062 L 26.224865,50.406862 L 26.292605,50.400362 L 26.353535,50.387482 L 26.424645,50.377782 L 26.492305,50.368082 L 26.553235,50.355132 L 26.617525,50.335752 L 26.688635,50.322802 L 26.749555,50.296982 L 26.813845,50.284032 L 26.874775,50.261432 L 26.939145,50.242052 L 26.996705,50.212942 L 27.057635,50.187122 L 27.121925,50.164522 L 27.179485,50.135412 L 27.237045,50.106372 L 27.294595,50.077262 L 27.345325,50.044932 L 27.399505,50.012672 L 27.460425,49.973902 L 27.511235,49.938352 L 27.565415,49.906022 L 27.616145,49.864032 L 27.666955,49.831702 L 27.717685,49.783202 L 27.765125,49.747652 L 27.809115,49.702442 L 27.863295,49.660452 L 27.903915,49.615172 L 27.947905,49.569962 L 27.988525,49.527972 L 28.032515,49.479472 L 28.073125,49.431042 L 28.113805,49.379322 L 28.154425,49.327602 L 28.188215,49.282392 L 28.222085,49.227452 L 28.255965,49.172512 L 28.286385,49.124012 L 28.326985,49.065852 L 28.354105,49.014132 L 28.384525,48.952742 L 28.411645,48.894582 L 28.438695,48.839642 L 28.462375,48.778252 L 28.486055,48.723312 L 28.509805,48.661922 L 28.533485,48.600472 L 28.550415,48.535862 L 28.567345,48.477702 L 28.580825,48.416322 L 28.594385,48.358092 L 28.611315,48.290272 L 28.618015,48.225592 L 28.624815,48.157772 L 28.634935,48.093092 L 28.645125,48.034922 L 28.645125,47.960602 L 28.651825,47.902432 L 28.651825,47.834612 L 27.534788,47.834612 L 27.534788,47.873382 L 27.534788,47.912152 L 27.524668,47.950922 L 27.524668,47.989692 L 27.524668,48.025242 L 27.517868,48.067232 L 27.511168,48.106002 L 27.507768,48.141552 L 27.494208,48.177102 L 27.490808,48.212652 L 27.477248,48.248202 L 27.467128,48.283682 L 27.453568,48.322522 L 27.436638,48.358002 L 27.426518,48.393552 L 27.409588,48.429102 L 27.396028,48.461432 L 27.379098,48.490472 L 27.362168,48.526022 L 27.345238,48.558352 L 27.328388,48.590682 L 27.304638,48.626232 L 27.284338,48.652052 L 27.267408,48.681162 L 27.243728,48.713422 L 27.220048,48.742532 L 27.196368,48.771572 L 27.172688,48.800682 L 27.152388,48.823282 L 27.121888,48.855612 L 27.098208,48.881432 L 27.071088,48.910542 L 27.044038,48.933142 L 27.013618,48.958962 L 26.989868,48.981632 L 26.956068,49.004232 L 26.928948,49.030052 L 26.898528,49.049432 L 26.864658,49.075322 L 26.837608,49.094702 L 26.800368,49.110872 L 26.773248,49.130252 L 26.739458,49.146342 L 26.705588,49.165722 L 26.671708,49.188392 L 26.634478,49.204562 L 26.600678,49.217432 L 26.566808,49.233602 L 26.526198,49.246552 L 26.492328,49.259432 L 26.458458,49.275602 L 26.417848,49.288552 L 26.380618,49.291752 L 26.339998,49.304702 L 26.309578,49.314402 L 26.268968,49.317702 L 26.228368,49.327402 L 26.187748,49.337102 L 26.150498,49.337102 L 26.113268,49.346802 L 26.069208,49.346802 L 26.035408,49.353202 L 25.987968,49.353202 L 25.947358,49.353202 L 25.947358,50.422849 L 25.947358,50.422849 L 25.947315,50.422862 z "
       id="path102" />
    <path
       style="fill:#ffffff"
       d="M 22.76211,50.422862 L 25.947315,50.422862 L 25.947315,49.353214 L 22.76211,49.353214 L 22.76211,50.422862 L 22.76211,50.422862 z "
       id="path104" />
    <path
       style="fill:#ffffff"
       d="M 22.819659,51.162931 L 22.819659,48.580881 L 21.194873,49.818574 L 22.819659,51.162931 z "
       id="path106" />
    <path
       style="fill:none;stroke:#ffffff;stroke-width:0.01464331"
       d="M 22.819659,51.162931 L 22.819659,48.580881 L 21.194873,49.818574 L 22.819659,51.162931"
       id="path108" />
    <path
       style="fill:#ffffff"
       d="M 34.575477,40.220857 L 34.575477,42.796397 L 36.200264,41.558704 L 34.575477,40.220857 L 34.575477,40.220857 z "
       id="path110" />
    <path
       style="fill:none;stroke:#ffffff;stroke-width:0.01464331"
       d="M 34.575477,40.220857 L 34.575477,42.796397 L 36.200264,41.558704 L 34.575477,40.220857"
       id="path112" />
    <path
       style="fill:#495b89;fill-opacity:1"
       d="M 36.834882,55.292865 L 39.738072,53.166518 L 39.738072,26.677347 L 36.834882,28.800475 L 36.834882,55.292865 z "
       id="path114" />
  </g>
</svg>
