<?xml version="1.0" encoding="UTF-8" standalone="no"?>
<!-- Created with Inkscape (http://www.inkscape.org/) -->

<svg
   xmlns:dc="http://purl.org/dc/elements/1.1/"
   xmlns:cc="http://creativecommons.org/ns#"
   xmlns:rdf="http://www.w3.org/1999/02/22-rdf-syntax-ns#"
   xmlns:svg="http://www.w3.org/2000/svg"
   xmlns="http://www.w3.org/2000/svg"
   xmlns:xlink="http://www.w3.org/1999/xlink"
   version="1.1"
   width="40.016354"
   height="59.99538"
   viewBox="4 5 19.575408 26.667946"
   id="svg2">
  <title
     id="title5193">SIP server</title>
  <metadata
     id="metadata122">
    <rdf:RDF>
      <cc:Work
         rdf:about="">
        <dc:format>image/svg+xml</dc:format>
        <dc:type
           rdf:resource="http://purl.org/dc/dcmitype/StillImage" />
        <cc:license
           rdf:resource="" />
        <dc:title>SIP server</dc:title>
        <dc:creator>
          <cc:Agent>
            <dc:title>Jeremy Grossmann</dc:title>
          </cc:Agent>
        </dc:creator>
        <dc:publisher>
          <cc:Agent>
            <dc:title>GNS-3</dc:title>
          </cc:Agent>
        </dc:publisher>
        <dc:description>Created for the GNS-3 project
(www.gns3.net)</dc:description>
      </cc:Work>
      <cc:Work
         rdf:about="">
        <dc:format>image/svg+xml</dc:format>
        <dc:type
           rdf:resource="http://purl.org/dc/dcmitype/StillImage" />
      </cc:Work>
      <cc:Work
         rdf:about="">
        <dc:format>image/svg+xml</dc:format>
        <dc:type
           rdf:resource="http://purl.org/dc/dcmitype/StillImage" />
      </cc:Work>
    </rdf:RDF>
  </metadata>
  <defs
     id="defs120">
    <linearGradient
       id="linearGradient5116">
      <stop
         id="stop5118"
         style="stop-color:#6e8caa;stop-opacity:1"
         offset="0" />
      <stop
         id="stop5120"
         style="stop-color:#6e8caa;stop-opacity:0"
         offset="1" />
    </linearGradient>
    <linearGradient
       x1="42.174862"
       y1="18.114693"
       x2="13.401131"
       y2="18.114693"
       id="linearGradient5122"
       xlink:href="#linearGradient5116"
       gradientUnits="userSpaceOnUse"
       gradientTransform="matrix(1.0266399,0,0,1,-0.5486097,0)" />
    <linearGradient
       x1="42.174862"
       y1="18.114693"
       x2="13.401131"
       y2="18.114693"
       id="linearGradient2257"
       xlink:href="#linearGradient5116"
       gradientUnits="userSpaceOnUse"
       gradientTransform="matrix(0.76961353,0,0,0.71533288,-11.818463,-7.0704459)" />
    <linearGradient
       x1="42.174862"
       y1="18.114693"
       x2="13.401131"
       y2="18.114693"
       id="linearGradient2263"
       xlink:href="#linearGradient5116"
       gradientUnits="userSpaceOnUse"
       gradientTransform="matrix(0.7696135,0,0,0.7153329,-11.818463,-7.0704459)" />
    <linearGradient
       x1="42.174862"
       y1="18.114693"
       x2="13.401131"
       y2="18.114693"
       id="linearGradient2310"
       xlink:href="#linearGradient5116"
       gradientUnits="userSpaceOnUse"
       gradientTransform="matrix(0.7696135,0,0,0.7153329,-11.818463,-7.0704459)" />
  </defs>
  <rect
     width="15.636623"
     height="1.1821179"
     x="4.7503614"
     y="31.806076"
     id="rect5191"
     style="fill:#000000;fill-opacity:0.39215686" />
  <path
     d="m 20.369026,33.008399 3.206382,-2.15474 0,-26.8428981 -3.206382,2.151477 0,26.8461611 z"
     id="path5176"
     style="fill:#000000;fill-opacity:0.39215686" />
  <path
     d="m 4.0305741,5.7825119 0,26.4903491 16.3659829,0 0,-26.4903491 -16.3659829,0 0,0 0,0 z"
     id="path6"
     style="fill:#6e8caa;fill-opacity:1" />
  <path
     d="m 4.0305741,5.7825119 0,26.4257551"
     id="path8"
     style="fill:none;stroke:#8dcaef;stroke-width:0.01464574" />
  <path
     d="m 4.0305741,5.8875899 2.2596628,-2.122965 16.8367581,0 -2.280519,2.122965 -16.8159019,0 0,0 0,0 z"
     id="path12"
     style="fill:url(#linearGradient2310);fill-opacity:1" />
  <path
     d="m 4.9888429,7.3303489 7.2771601,0 0,3.2862401 -7.2771601,0 0,-3.2862401 0,0 z"
     id="path16"
     style="fill:#009bdf" />
  <path
     d="m 4.9888429,7.3303489 7.2771601,0 0,3.2862401 -7.2771601,0 0,-3.2862401 0,0 z"
     id="path18"
     style="fill:#6e8296;fill-opacity:1" />
  <path
     d="m 12.367655,7.3303489 -0.101652,-0.097 -7.2771601,0 0,0.197146 7.2771601,0 0.101652,-0.100147 0,0 0,-0.097 -0.101652,0 0.101652,0.097 0,1e-6 z"
     id="path20"
     style="fill:#00688f" />
  <path
     d="m 12.266003,10.707078 0.101652,-0.09049 0,-3.2862401 -0.199855,0 0,3.2862401 0.0982,0.09049 0,0 0.101652,0 0,-0.09049 -0.101652,0.09049 3e-6,0 z"
     id="path22"
     style="fill:#00688f" />
  <path
     d="m 4.8906396,10.616589 0.098203,0.09049 7.2771604,0 0,-0.187417 -7.2771604,0 -0.098203,0.09693 0,0 0,0.09049 0.098203,0 -0.098203,-0.09049 0,-3e-6 z"
     id="path24"
     style="fill:#00688f" />
  <path
     d="m 4.9888429,7.2333499 -0.098203,0.097 0,3.2862401 0.1964065,0 0,-3.2862401 -0.098203,-0.097 0,0 -0.098203,0 0,0.097 0.098203,-0.097 -5e-7,0 z"
     id="path26"
     style="fill:#00688f" />
  <path
     d="m 11.057129,9.1982769 -4.8525891,0 0,-0.452906 4.8525891,0 0,0.452906 z"
     id="path30"
     style="fill:#000000;fill-opacity:1" />
  <path
     d="m 4.335304,30.288814 -0.1997799,0 0,0.387782 0.1997799,0 0,-0.387782 z"
     id="path34"
     style="fill:#e6e9e9" />
  <path
     d="m 20.081632,30.288814 -15.746328,0 0,0.387782 15.746328,0 0,-0.387782 z"
     id="path36"
     style="fill:#e6e9e9" />
  <path
     d="m 20.081632,30.676596 0.203154,0 0,-0.387782 -0.203154,0 0,0.387782 z"
     id="path38"
     style="fill:#e6e9e9" />
  <path
     d="m 4.335304,16.145325 -0.1997799,0 0,0.381344 0.1997799,0 0,-0.381344 z"
     id="path40"
     style="fill:#e6e9e9" />
  <path
     d="m 20.105321,16.145325 -15.770017,0 0,0.381344 15.770017,0 0,-0.381344 z"
     id="path42"
     style="fill:#e6e9e9" />
  <path
     d="m 20.105321,16.526669 0.19978,0 0,-0.381344 -0.19978,0 0,0.381344 z"
     id="path44"
     style="fill:#e6e9e9" />
  <path
     d="m 4.2337274,30.169282 -0.2031533,0 0,0.387782 0.2031533,0 0,-0.387782 z"
     id="path46"
     style="fill:#00688f" />
  <path
     d="m 20.179836,30.169282 -15.9461086,0 0,0.387782 15.9461086,0 0,-0.387782 z"
     id="path48"
     style="fill:#00688f" />
  <path
     d="m 20.179836,30.557064 0.19978,0 0,-0.387782 -0.19978,0 0,0.387782 z"
     id="path50"
     style="fill:#00688f" />
  <path
     d="m 4.2607895,16.022573 -0.2065267,0 0,0.384492 0.2065267,0 0,-0.384492 z"
     id="path52"
     style="fill:#00688f" />
  <path
     d="m 20.230587,16.022573 -15.9697975,0 0,0.384492 15.9697975,0 0,-0.384492 z"
     id="path54"
     style="fill:#00688f" />
  <path
     d="m 20.230587,16.407065 0.203227,0 0,-0.384492 -0.203227,0 0,0.384492 z"
     id="path56"
     style="fill:#00688f" />
  <path
     d="m 14.179317,27.68114 -1.161497,0 0,-5.312277 1.161497,0 0,5.312277 z"
     id="path66"
     style="fill:#1f1a17" />
  <path
     d="m 16.427796,27.68114 -1.16487,0 0,-5.312277 2.546463,0 0.09483,0 0.09483,0.0032 0.101577,0.01295 0.09145,0.01616 0.08463,0.01617 0.08808,0.01617 0.08463,0.02582 0.08126,0.02911 0.07789,0.02582 0.07452,0.03877 0.07444,0.03877 0.07114,0.03877 0.06095,0.04528 0.06432,0.04843 0.06102,0.0485 0.06095,0.05494 0.05075,0.05494 0.05083,0.06138 0.04738,0.0646 0.04401,0.06467 0.04071,0.06782 0.04064,0.07111 0.03381,0.07432 0.02713,0.07754 0.02706,0.07754 0.02706,0.08083 0.01694,0.09042 0.02031,0.08727 0.01357,0.08727 0.0067,0.09371 0.01019,0.09049 0,0.100147 0,0.04199 -0.01019,0.05493 0,0.05494 -0.0067,0.05494 -0.0067,0.06138 -0.01019,0.06467 -0.01694,0.06782 -0.01694,0.06467 -0.01686,0.07104 -0.02376,0.06467 -0.03043,0.07111 -0.02713,0.07111 -0.0338,0.07425 -0.04064,0.07111 -0.04064,0.07111 -0.04746,0.06467 -0.05075,0.06138 -0.0542,0.07111 -0.06095,0.0646 -0.06432,0.06138 -0.06777,0.05494 -0.07451,0.05494 -0.07789,0.05172 -0.08801,0.05172 -0.09145,0.04199 -0.09483,0.03877 -0.10495,0.03233 -0.108324,0.02582 -0.121966,0.02582 -0.118519,0.01938 -0.132012,0.0065 -0.132087,0.0064 -1.334216,0 0,1.916162 1.076863,-2.830644 0.08126,-0.0064 0.07451,-0.0097 0.06769,0 0.05758,-0.01617 0.06095,-0.01295 0.05758,-0.01616 0.0542,-0.01617 0.04063,-0.0226 0.05075,-0.0226 0.03388,-0.02589 0.04063,-0.02904 0.03389,-0.02582 0.03388,-0.02911 0.02706,-0.03555 0.01694,-0.02904 0.02369,-0.03233 0.02369,-0.03233 0.01357,-0.03233 0.01357,-0.04199 0.01349,-0.02904 0.01019,-0.03555 0.01357,-0.03555 0.0034,-0.03555 0.0067,-0.03233 0.0068,-0.0646 0.0034,-0.06145 0,-0.05486 0,-0.0485 0,-0.04521 0,-0.0485 -0.0034,-0.04199 -0.0068,-0.04528 -0.01012,-0.03877 -0.01019,-0.03877 -0.0067,-0.03877 -0.02031,-0.03555 -0.01694,-0.03555 -0.01694,-0.02582 -0.01694,-0.03233 -0.02369,-0.03226 -0.02369,-0.02911 -0.02713,-0.02582 -0.02706,-0.02267 -0.03051,-0.0226 -0.02706,-0.0226 -0.03388,-0.0226 -0.04064,-0.01617 -0.03381,-0.01617 -0.04071,-0.01617 -0.04738,-0.0097 -0.04401,-0.01617 -0.04746,-0.01295 -0.05075,-0.0097 -0.05083,-0.0065 -0.05075,-0.0097 -0.05757,-0.0065 -0.05758,0 -0.06432,-0.0064 -0.0644,0 -0.06769,-0.0032 -0.921087,0 0,1.56715 1.076863,0 -1.076863,2.830644 -8.2e-5,-2.2e-5 z"
     id="path68"
     style="fill:#1f1a17" />
  <path
     d="m 7.8943096,19.344364 10.4230374,0 0,-1.069565 -10.4230374,0 0,1.069565 0,0 0,0 z"
     id="path70"
     style="fill:#000000" />
  <path
     d="m 6.3027424,20.859869 0,0 0,-0.03555 0,-0.04528 0.00337,-0.03877 0,-0.03877 0.00682,-0.03226 0.00337,-0.04206 0.00675,-0.03555 0.00675,-0.03548 0.010195,-0.03884 0.013569,-0.03548 0.00337,-0.03555 0.013569,-0.03555 0.01012,-0.03555 0.016942,-0.03555 0.013569,-0.03555 0.01012,-0.03555 0.016942,-0.03233 0.016942,-0.03226 0.016942,-0.03233 0.013494,-0.03233 0.020316,-0.03555 0.020316,-0.03226 0.027137,-0.02589 0.016942,-0.03226 0.023689,-0.03233 0.020316,-0.02911 0.023689,-0.02582 0.023689,-0.03555 0.023763,-0.02582 0.027062,-0.02267 0.023689,-0.02582 0.03051,-0.02904 0.027062,-0.02589 0.03051,-0.02904 0.027062,-0.02267 0.027062,-0.01938 0.03051,-0.0226 0.027062,-0.02904 0.037257,-0.01938 0.027137,-0.01617 0.033809,-0.0226 0.03051,-0.01617 0.033884,-0.02267 0.033809,-0.01609 0.03051,-0.01617 0.037257,-0.01617 0.033809,-0.01616 0.037257,-0.01938 0.033884,-0.0097 0.040631,-0.01609 0.03051,-0.0097 0.040631,-0.01295 0.04063,-0.0097 0.037257,-0.01295 0.033809,-0.0097 0.040631,-0.0065 0.037257,-0.0032 0.040631,-0.0064 0.04063,-0.0097 0.040706,0 0.04063,0 0.040631,-0.0064 0.037257,0 0.047377,0 0,-1.069565 -0.074514,0 -0.06432,0.0064 -0.074514,0 -0.060946,0.0065 -0.077888,0.0097 -0.060946,0.0064 -0.067693,0.0097 -0.064395,0.01617 -0.067692,0.01295 -0.067768,0.0097 -0.06432,0.0226 -0.06432,0.01616 -0.060946,0.0226 -0.064394,0.01938 -0.057498,0.02267 -0.061021,0.0226 -0.06432,0.0226 -0.057573,0.03233 -0.057573,0.02582 -0.060946,0.02911 -0.054199,0.03226 -0.060946,0.02911 -0.054124,0.03233 -0.054199,0.03877 -0.054199,0.03226 -0.050751,0.03884 -0.050826,0.03548 -0.050826,0.03877 -0.047377,0.03884 -0.050826,0.04521 -0.050751,0.03877 -0.047452,0.04199 -0.044004,0.0485 -0.04063,0.03877 -0.047378,0.05172 -0.04063,0.04843 -0.040631,0.04199 -0.037257,0.05494 -0.044079,0.05172 -0.030435,0.0485 -0.037257,0.05494 -0.033884,0.04843 -0.033884,0.05493 -0.033809,0.05494 -0.027137,0.05494 -0.030435,0.05494 -0.027137,0.06138 -0.030435,0.05494 -0.023689,0.05816 -0.020316,0.06145 -0.023763,0.05816 -0.027062,0.06138 -0.013569,0.06138 -0.016867,0.06467 -0.016942,0.06138 -0.013569,0.05816 -0.016942,0.06789 -0.01012,0.0646 -0.00682,0.06138 -0.00337,0.06467 -0.00675,0.0646 -0.00682,0.06789 -0.00337,0.0646 0,0.06467 0,0 1.117493,0 0,0 0,0 0,0 0,-2.25e-4 z"
     id="path72"
     style="fill:#000000" />
  <path
     d="m 7.9857661,22.30105 -0.047452,0 -0.037257,0 -0.047377,-0.0033 -0.040631,0 -0.040631,-0.0064 -0.037257,-0.0064 -0.047453,-0.0033 -0.04063,-0.0064 -0.040631,-0.01295 -0.037257,-0.0032 -0.040631,-0.01288 -0.040631,-0.0097 -0.040631,-0.0064 -0.040631,-0.01617 -0.040631,-0.0097 -0.033884,-0.01609 -0.044004,-0.01295 -0.040631,-0.01617 -0.030435,-0.01617 -0.033884,-0.01617 -0.033884,-0.01617 -0.04063,-0.01609 -0.033884,-0.02267 -0.037257,-0.01617 -0.030435,-0.0226 -0.033884,-0.0226 -0.030435,-0.01938 -0.033884,-0.0226 -0.03051,-0.0226 -0.033809,-0.02267 -0.027137,-0.01938 -0.033809,-0.02904 -0.023763,-0.0226 -0.030435,-0.02589 -0.020316,-0.02904 -0.023688,-0.01938 -0.03051,-0.03555 -0.020316,-0.01938 -0.03051,-0.02911 -0.023689,-0.03233 -0.020316,-0.02904 -0.016942,-0.02582 -0.023689,-0.02589 -0.016942,-0.03555 -0.023689,-0.03226 -0.016942,-0.02589 -0.020316,-0.02904 -0.013569,-0.03877 -0.013494,-0.03233 -0.013569,-0.02589 -0.013569,-0.03226 -0.01012,-0.03555 -0.016942,-0.03555 -0.00675,-0.03555 -0.013569,-0.03233 -0.00337,-0.03226 -0.013569,-0.03884 -0.00675,-0.03226 -0.00337,-0.03877 -0.00682,-0.03233 0,-0.03877 -0.00337,-0.03877 0,-0.03877 0,-0.03877 -1.117493,0 0,0.06782 0.00337,0.07111 0.00682,0.06467 0.00675,0.06782 0.00337,0.06467 0.010195,0.0646 0.013494,0.06789 0.016942,0.05816 0.010195,0.06782 0.023689,0.05823 0.016942,0.06782 0.023689,0.05816 0.020316,0.06138 0.027137,0.05823 0.027062,0.06138 0.030435,0.05494 0.027137,0.05494 0.030435,0.06138 0.027137,0.05494 0.033809,0.05494 0.033884,0.05494 0.040631,0.04842 0.033884,0.0485 0.040631,0.05494 0.04063,0.04843 0.040631,0.05172 0.044004,0.04199 0.04063,0.04528 0.047453,0.04842 0.044004,0.04206 0.054199,0.04521 0.044004,0.04528 0.047453,0.03548 0.050751,0.03877 0.050826,0.03884 0.050751,0.03877 0.054199,0.03877 0.050826,0.03226 0.057573,0.03877 0.057498,0.03233 0.057573,0.02911 0.050826,0.02582 0.057573,0.03233 0.060946,0.02904 0.057573,0.02589 0.06432,0.02904 0.057573,0.01938 0.060946,0.02267 0.064395,0.0226 0.057498,0.0226 0.061021,0.01617 0.071067,0.0226 0.057573,0.01617 0.067768,0.0097 0.060946,0.01617 0.071066,0.01295 0.067768,0.0097 0.06432,0.0097 0.067693,0.01295 0.067767,0.0064 0.06432,0.0032 0.067768,0 0.071067,0.0065 0.067768,0 0,-1.069566 0,0 -7e-6,-3.44e-4 z"
     id="path74"
     style="fill:#000000" />
  <path
     d="m 9.7262874,22.30105 -1.7405213,0 0,1.069566 1.7405213,0 0,-1.069566 0,0 z"
     id="path76"
     style="fill:#000000" />
  <path
     d="m 12.340517,25.002433 0,0 0,-0.06789 -0.0067,-0.06467 0,-0.0646 -0.0068,-0.06138 -0.0034,-0.06467 -0.01012,-0.06782 -0.01357,-0.05816 -0.01357,-0.06467 -0.0067,-0.06138 -0.01357,-0.06789 -0.01694,-0.05815 -0.01686,-0.06138 -0.01694,-0.05816 -0.02369,-0.06145 -0.01694,-0.05815 -0.02376,-0.06138 -0.02031,-0.06138 -0.03043,-0.05494 -0.02706,-0.05816 -0.02376,-0.06138 -0.03043,-0.05494 -0.03388,-0.05494 -0.02706,-0.05494 -0.03388,-0.05494 -0.03051,-0.0485 -0.0338,-0.05494 -0.04064,-0.04843 -0.03388,-0.05494 -0.04064,-0.05172 -0.04063,-0.0485 -0.04063,-0.04843 -0.04408,-0.0485 -0.04064,-0.04521 -0.04401,-0.04199 -0.04738,-0.04528 -0.05083,-0.04521 -0.04738,-0.04199 -0.04408,-0.04528 -0.05413,-0.03877 -0.05083,-0.03555 -0.0542,-0.03877 -0.04738,-0.03233 -0.05758,-0.03877 -0.05757,-0.03226 -0.05075,-0.03555 -0.0644,-0.03233 -0.06095,-0.02582 -0.0542,-0.02911 -0.06095,-0.03233 -0.05758,-0.0226 -0.06432,-0.0226 -0.06432,-0.02582 -0.06777,-0.01617 -0.06095,-0.0226 -0.06432,-0.01617 -0.06769,-0.01617 -0.07451,-0.0097 -0.06432,-0.01938 -0.06777,-0.0032 -0.06432,-0.01295 -0.074514,-0.0032 -0.067693,-0.0064 -0.071141,-0.0064 -0.074514,0 0,1.069565 0.040631,0 0.04063,0 0.040631,0.0064 0.040631,0 0.033884,0.0032 0.04063,0.0064 0.033884,0.0097 0.04063,0.0064 0.02706,0.0065 0.04063,0.0097 0.03388,0.01295 0.03051,0.0097 0.04064,0.0097 0.03388,0.01617 0.0338,0.01288 0.02713,0.01617 0.0338,0.01617 0.03726,0.01617 0.02713,0.01617 0.03381,0.01617 0.02713,0.0226 0.03043,0.01617 0.03388,0.0226 0.03051,0.0226 0.02706,0.01938 0.03043,0.0226 0.02713,0.02911 0.03043,0.01938 0.02713,0.02911 0.03043,0.02582 0.02031,0.02904 0.03051,0.02589 0.02031,0.02904 0.03043,0.02589 0.01357,0.02904 0.03388,0.03233 0.02031,0.03233 0.02369,0.02904 0.01694,0.03233 0.02369,0.03233 0.01694,0.03877 0.02369,0.02582 0.01694,0.03877 0.01694,0.03233 0.01694,0.03877 0.01694,0.03233 0.01694,0.03877 0.01686,0.03555 0.01357,0.03555 0.01019,0.03555 0.01012,0.04199 0.01357,0.03877 0.01012,0.03877 0.01357,0.04199 0.0067,0.03555 0.01019,0.03555 0.0034,0.04521 0.0067,0.03555 0.0068,0.04199 0.0034,0.03884 0.0067,0.04842 0,0.03877 0,0.03877 0,0.04206 0,0 1.117492,0 0,0 0,0 0,0 1.79e-4,1.05e-4 z"
     id="path78"
     style="fill:#000000" />
  <path
     d="m 9.634906,27.587431 0.067692,0 0.071141,-0.0064 0.067693,-0.0032 0.071141,-0.0065 0.067693,-0.0064 0.060946,-0.0097 0.07114,-0.0065 0.06769,-0.01617 0.06439,-0.01288 0.06769,-0.01295 0.06432,-0.01617 0.06095,-0.01617 0.0644,-0.0226 0.06432,-0.0226 0.06095,-0.02589 0.06432,-0.01609 0.05757,-0.02911 0.06095,-0.02904 0.05758,-0.02589 0.05757,-0.02582 0.05758,-0.02911 0.05083,-0.03877 0.05758,-0.03233 0.05757,-0.03226 0.05075,-0.03233 0.0542,-0.03877 0.05075,-0.03877 0.04746,-0.03877 0.0542,-0.04199 0.04738,-0.03884 0.05083,-0.04199 0.04738,-0.04199 0.04401,-0.0485 0.04064,-0.04199 0.04746,-0.04842 0.03726,-0.04528 0.04063,-0.05172 0.04064,-0.04843 0.04063,-0.0485 0.03388,-0.04843 0.04063,-0.05494 0.02706,-0.05494 0.03726,-0.05172 0.03388,-0.05172 0.02706,-0.05494 0.03052,-0.05494 0.02706,-0.06138 0.03043,-0.05494 0.02031,-0.06137 0.02376,-0.05816 0.02369,-0.06138 0.02369,-0.06145 0.01694,-0.06138 0.01694,-0.0646 0.01694,-0.06145 0.01012,-0.05816 0.01694,-0.0646 0.01357,-0.06789 0.0034,-0.06138 0.0067,-0.06467 0.0034,-0.0646 0.0068,-0.0646 0.0067,-0.06789 0,-0.0646 -1.117492,0 0,0.03877 0,0.04521 -0.0067,0.03555 0,0.03555 -0.0034,0.03555 -0.0068,0.04521 -0.0067,0.03233 -0.0034,0.03877 -0.01357,0.03877 -0.0034,0.03555 -0.01357,0.03555 -0.01012,0.03877 -0.01357,0.03233 -0.01694,0.03226 -0.01012,0.03877 -0.01357,0.03233 -0.01357,0.03233 -0.02031,0.03555 -0.01686,0.03226 -0.01694,0.02911 -0.02031,0.03555 -0.02031,0.02904 -0.02031,0.03233 -0.01694,0.03233 -0.02713,0.03233 -0.02031,0.02904 -0.02369,0.02582 -0.02031,0.02589 -0.02369,0.03555 -0.03051,0.01938 -0.02031,0.02582 -0.03043,0.02911 -0.02713,0.02904 -0.03044,0.0226 -0.02713,0.02589 -0.03043,0.0226 -0.02713,0.0226 -0.03043,0.01938 -0.03726,0.0226 -0.02369,0.02267 -0.03388,0.0226 -0.03043,0.01295 -0.03726,0.01938 -0.03051,0.0226 -0.03388,0.01288 -0.03726,0.01617 -0.0338,0.01938 -0.03726,0.0097 -0.04064,0.01938 -0.03051,0.0097 -0.03381,0.01295 -0.04071,0.0097 -0.0338,0.01616 -0.03388,0.0097 -0.040631,0.0064 -0.04063,0.0097 -0.044004,0.0064 -0.03051,0.0065 -0.044004,0.0032 -0.037257,0.0064 -0.037257,0 -0.040631,0.0064 -0.047377,0 -0.040631,0 0,1.066347 0,0 -1.22e-4,2.83e-4 z"
     id="path80"
     style="fill:#000000" />
  <path
     d="m 6.4517714,27.587431 3.1831346,0 0,-1.066347 -3.1831346,0 0,1.066347 0,0 0,0 z"
     id="path82"
     style="fill:#000000" />
  <path
     d="m 6.5058956,28.327443 0,-2.578632 -1.6287496,1.237598 1.6287496,1.341034 z"
     id="path84"
     style="fill:#000000" />
  <path
     d="m 18.266596,17.389432 0,2.57856 1.62875,-1.244035 -1.62875,-1.334525 z"
     id="path86"
     style="fill:#000000" />
  <path
     d="m 13.935458,27.490504 -1.158123,0 0,-5.309058 1.158123,0 0,5.309058 z"
     id="path88"
     style="fill:#ffffff" />
  <path
     d="m 16.177191,27.490504 -1.161497,0 0,-5.309058 2.549911,0 0.09483,0 0.101577,0.0065 0.09138,0.0097 0.0982,0.0097 0.08471,0.0226 0.08801,0.01617 0.08471,0.02904 0.08126,0.02589 0.07789,0.02904 0.07444,0.03877 0.07114,0.03233 0.07451,0.04199 0.06095,0.04528 0.06432,0.04843 0.0644,0.0485 0.05413,0.05494 0.0542,0.05494 0.05083,0.06138 0.04401,0.0646 0.04738,0.06145 0.04064,0.07104 0.04063,0.07111 0.03388,0.07754 0.02706,0.07754 0.03051,0.07432 0.02369,0.08405 0.02031,0.0872 0.01694,0.08083 0.01357,0.09371 0.01012,0.09371 0.0068,0.09371 0,0.09371 0,0.04842 -0.0068,0.05493 0,0.0485 -0.01012,0.05816 -0.0068,0.06138 -0.01012,0.06789 -0.01694,0.05816 -0.01694,0.07111 -0.02031,0.0646 -0.02031,0.07432 -0.03043,0.07111 -0.02713,0.07111 -0.03381,0.07103 -0.0407,0.07111 -0.04063,0.07111 -0.04738,0.06138 -0.05083,0.07111 -0.05075,0.06467 -0.06432,0.0646 -0.06102,0.06138 -0.07107,0.06145 -0.07451,0.05487 -0.07789,0.04528 -0.09145,0.05172 -0.08801,0.04521 -0.0982,0.03877 -0.101577,0.03233 -0.108398,0.02582 -0.121892,0.0226 -0.118518,0.01617 -0.132088,0.0097 -0.132012,0.0064 -1.34441,0 0,1.912943 1.087058,-2.833863 0.07781,0 0.07451,-0.0032 0.07114,-0.01295 0.06095,-0.0097 0.05757,-0.01295 0.0542,-0.01617 0.05413,-0.01938 0.04746,-0.01938 0.04738,-0.02582 0.03726,-0.02589 0.03725,-0.0226 0.03051,-0.02904 0.03719,-0.03233 0.02376,-0.02589 0.02369,-0.03548 0.02031,-0.03233 0.02369,-0.03233 0.01694,-0.03877 0.01019,-0.03233 0.01349,-0.03226 0.01019,-0.03877 0.01349,-0.03233 0.0034,-0.03555 0.0067,-0.02911 0.0067,-0.06782 0.0034,-0.05816 0,-0.05494 0,-0.05172 0,-0.0485 0,-0.04521 -0.0034,-0.04199 -0.0067,-0.04528 -0.01019,-0.03555 -0.0067,-0.03877 -0.01694,-0.03877 -0.01349,-0.03877 -0.01694,-0.03226 -0.01694,-0.03233 -0.01694,-0.03555 -0.02369,-0.02582 -0.02031,-0.02911 -0.03051,-0.02582 -0.02369,-0.02267 -0.03388,-0.0226 -0.02706,-0.01938 -0.03388,-0.0226 -0.04063,-0.01617 -0.03388,-0.01617 -0.05075,-0.01617 -0.04062,-0.01938 -0.04408,-0.0097 -0.04401,-0.0097 -0.05075,-0.01288 -0.05083,-0.0033 -0.0542,-0.01288 -0.05413,-0.0032 -0.0644,-0.0065 -0.06095,0 -0.06432,0 -0.06432,-0.0064 -0.931281,0 0,1.560713 1.087058,0 -1.087058,2.833863 0,0 -3.3e-5,-8.8e-5 z"
     id="path90"
     style="fill:#ffffff" />
  <path
     d="m 7.6470774,19.153728 10.4298596,0 0,-1.063127 -10.4298596,0 0,1.063127 0,0 z"
     id="path92"
     style="fill:#ffffff" />
  <path
     d="m 6.0589584,20.67567 0,0 0,-0.04528 0,-0.03877 0.00337,-0.03548 0,-0.03884 0.01012,-0.03877 0.00682,-0.03877 0.00337,-0.03226 0.00675,-0.03877 0.010195,-0.03884 0.013494,-0.03877 0.00345,-0.03226 0.013494,-0.03877 0.010195,-0.03233 0.013494,-0.03877 0.016942,-0.03233 0.010195,-0.03233 0.016942,-0.03226 0.016942,-0.03555 0.016867,-0.03555 0.016942,-0.02911 0.016942,-0.03226 0.023689,-0.03233 0.016942,-0.03233 0.023689,-0.02904 0.023763,-0.03233 0.023688,-0.02911 0.020316,-0.03226 0.023689,-0.02589 0.020316,-0.02904 0.03051,-0.02589 0.023688,-0.02904 0.030435,-0.02589 0.027137,-0.0226 0.027062,-0.02582 0.03051,-0.0226 0.027062,-0.02911 0.03051,-0.01938 0.027063,-0.0226 0.033884,-0.0226 0.030435,-0.01617 0.033884,-0.0226 0.03051,-0.02267 0.033809,-0.01617 0.033884,-0.01609 0.033884,-0.02267 0.033809,-0.0097 0.033884,-0.01616 0.033884,-0.01617 0.037257,-0.01295 0.033884,-0.01609 0.040631,-0.0097 0.037182,-0.0097 0.040706,-0.01295 0.030435,-0.0097 0.040631,-0.01287 0.037257,-0.0032 0.04063,-0.0065 0.040631,-0.0064 0.04063,-0.0097 0.040631,0 0.04063,-0.0064 0.040631,0 0.037257,0 0.040631,-0.0032 0,-1.063128 -0.060946,0 -0.074439,0 -0.071141,0.0032 -0.067768,0.0065 -0.06432,0.0064 -0.067693,0.0097 -0.067768,0.0097 -0.071066,0.01295 -0.064395,0.01617 -0.06432,0.0097 -0.06432,0.0226 -0.06432,0.01616 -0.064395,0.01617 -0.060946,0.0226 -0.057573,0.0226 -0.060946,0.02589 -0.06432,0.0226 -0.057573,0.02911 -0.057573,0.02582 -0.06432,0.03233 -0.054199,0.03226 -0.057573,0.02911 -0.057573,0.03233 -0.054199,0.03226 -0.050751,0.03877 -0.050826,0.03884 -0.054124,0.03226 -0.047453,0.04528 -0.054199,0.03877 -0.044004,0.03555 -0.047377,0.04521 -0.050826,0.04521 -0.04063,0.04206 -0.044004,0.04521 -0.050826,0.0485 -0.037257,0.04843 -0.04063,0.04528 -0.037257,0.04842 -0.040631,0.05494 -0.033809,0.0485 -0.037257,0.04843 -0.033884,0.05494 -0.037257,0.05494 -0.030435,0.05493 -0.03051,0.05494 -0.027062,0.05494 -0.027137,0.05494 -0.030435,0.06138 -0.023763,0.06138 -0.020316,0.05172 -0.023689,0.06789 -0.023689,0.05494 -0.016942,0.0646 -0.016942,0.06138 -0.016942,0.06467 -0.013494,0.06138 -0.016942,0.06467 -0.010195,0.06138 -0.01012,0.0646 -0.00675,0.06467 -0.00682,0.06782 0,0.06467 -0.00675,0.0646 0,0.06789 0,0 1.117493,0 0,0 0,0 0,0 1.4e-5,-2.72e-4 z"
     id="path94"
     style="fill:#ffffff" />
  <path
     d="m 7.7452806,22.116852 -0.047377,0 -0.037257,0 -0.047377,-0.0065 -0.040631,0 -0.04063,-0.0064 -0.044079,-0.0032 -0.040631,-0.0064 -0.04063,-0.0065 -0.040631,-0.0097 -0.040631,-0.0065 -0.037257,-0.0097 -0.040631,-0.01295 -0.044004,-0.0097 -0.04063,-0.0097 -0.040631,-0.01938 -0.03051,-0.0097 -0.040631,-0.0097 -0.04063,-0.01616 -0.033884,-0.01617 -0.033809,-0.01938 -0.033884,-0.01617 -0.044004,-0.01609 -0.03051,-0.02267 -0.033884,-0.01938 -0.033809,-0.01617 -0.03051,-0.0226 -0.037257,-0.0226 -0.030435,-0.0226 -0.03051,-0.0226 -0.027062,-0.01938 -0.033884,-0.02268 -0.03051,-0.02904 -0.027062,-0.02589 -0.033884,-0.0226 -0.016942,-0.02582 -0.030435,-0.0226 -0.023689,-0.03233 -0.020315,-0.02911 -0.033884,-0.02582 -0.020316,-0.02911 -0.023689,-0.02582 -0.020316,-0.02904 -0.020316,-0.03233 -0.013569,-0.02589 -0.016942,-0.03226 -0.023689,-0.02911 -0.016942,-0.03233 -0.016942,-0.03226 -0.013494,-0.03233 -0.016942,-0.03555 -0.010195,-0.03233 -0.013569,-0.02582 -0.01012,-0.03877 -0.010195,-0.03233 -0.013494,-0.03233 -0.00337,-0.03548 -0.013569,-0.03877 -0.00337,-0.03233 -0.00682,-0.03877 -0.01012,-0.03555 0,-0.03555 -0.00337,-0.03555 0,-0.03877 0,-0.03877 -1.117493,0 0,0.0646 0.00675,0.06467 0,0.07432 0.013569,0.0646 0,0.06467 0.016942,0.06782 0.01012,0.05816 0.013569,0.06789 0.013569,0.0646 0.023688,0.06145 0.016942,0.0646 0.016942,0.06138 0.030435,0.05823 0.023689,0.06138 0.027137,0.05494 0.030435,0.05816 0.020316,0.05494 0.033884,0.06138 0.03051,0.05494 0.04063,0.0485 0.027062,0.05487 0.040631,0.05494 0.033884,0.0485 0.04063,0.05172 0.040631,0.04843 0.04063,0.0485 0.044004,0.04843 0.040631,0.04528 0.047453,0.04843 0.044004,0.04528 0.047377,0.04199 0.050826,0.04528 0.044004,0.03226 0.054199,0.04528 0.050751,0.03877 0.050826,0.03555 0.050826,0.03555 0.054124,0.03548 0.057573,0.03555 0.057573,0.03233 0.054199,0.03233 0.054199,0.02582 0.060946,0.03555 0.057573,0.02582 0.057573,0.02911 0.057573,0.02582 0.06432,0.02268 0.060946,0.0226 0.06432,0.01938 0.057573,0.0226 0.067768,0.01617 0.06432,0.01617 0.060946,0.0226 0.06432,0.01295 0.064395,0.01609 0.06432,0.0097 0.071066,0.0097 0.064395,0.01295 0.067693,0.0032 0.067768,0.0065 0.06432,0.0064 0.067693,0.0064 0.071141,0.0033 0.067693,0 0,-1.066347 0,0 -2.3e-5,-1.03e-4 z"
     id="path96"
     style="fill:#ffffff" />
  <path
     d="m 9.4858769,22.116852 -1.7405963,0 0,1.066347 1.7405963,0 0,-1.066347 z"
     id="path98"
     style="fill:#ffffff" />
  <path
     d="m 12.100108,24.815016 0,0 0,-0.06467 -0.0067,-0.06789 0,-0.0646 -0.0034,-0.0646 -0.01686,-0.06145 0,-0.0646 -0.01357,-0.06789 -0.01019,-0.05815 -0.01694,-0.06138 -0.0067,-0.06789 -0.01694,-0.05815 -0.02031,-0.05816 -0.01349,-0.06138 -0.02713,-0.06467 -0.02031,-0.05494 -0.01694,-0.06138 -0.02369,-0.05816 -0.02706,-0.06138 -0.02376,-0.05494 -0.02706,-0.06138 -0.03388,-0.05494 -0.02369,-0.05494 -0.03388,-0.05494 -0.0338,-0.05172 -0.03388,-0.05494 -0.03051,-0.05494 -0.04064,-0.04521 -0.04062,-0.05494 -0.03381,-0.0485 -0.04063,-0.04843 -0.04071,-0.05172 -0.03718,-0.0485 -0.04746,-0.04199 -0.04738,-0.04521 -0.04408,-0.04528 -0.04738,-0.04843 -0.05075,-0.03877 -0.04745,-0.04206 -0.05075,-0.03877 -0.05083,-0.03877 -0.05083,-0.03877 -0.05075,-0.03877 -0.05758,-0.03233 -0.05758,-0.03226 -0.05757,-0.03233 -0.05758,-0.03233 -0.05758,-0.03555 -0.06095,-0.02582 -0.05758,-0.02911 -0.05758,-0.01938 -0.06432,-0.02904 -0.06432,-0.0226 -0.06777,-0.01617 -0.06769,-0.0226 -0.05757,-0.01617 -0.07114,-0.01617 -0.067694,-0.01617 -0.067768,-0.0097 -0.067692,-0.01288 -0.071141,-0.0032 -0.067693,-0.01295 -0.067768,0 -0.071066,-0.0032 -0.074514,0 0,1.066347 0.040631,0 0.04063,0 0.040631,0.0064 0.033884,0 0.040631,0.0064 0.04063,0.0032 0.033884,0.0065 0.030435,0.0097 0.037257,0.0065 0.040631,0.01288 0.033884,0.0097 0.033884,0.0097 0.037257,0.01295 0.030435,0.0097 0.03726,0.01609 0.02706,0.01295 0.03388,0.01617 0.03726,0.01938 0.02706,0.01938 0.03388,0.01617 0.03051,0.01616 0.02369,0.01938 0.03726,0.0226 0.03043,0.0226 0.02713,0.0226 0.03043,0.02267 0.02713,0.01938 0.03043,0.02904 0.02713,0.0226 0.03043,0.02589 0.01694,0.02904 0.03388,0.02589 0.02369,0.02904 0.02031,0.03233 0.02368,0.02582 0.03051,0.02911 0.02031,0.03233 0.02369,0.03226 0.01694,0.03233 0.02369,0.03233 0.01694,0.03555 0.02031,0.02904 0.02031,0.04199 0.01694,0.03233 0.01694,0.03877 0.01686,0.03233 0.01357,0.03233 0.01694,0.03877 0.01694,0.03877 0.0067,0.03877 0.01357,0.03555 0.01357,0.03877 0.01012,0.03555 0.01357,0.04199 0.01012,0.03877 0.0068,0.03877 0.0034,0.04199 0.0067,0.03877 0.0068,0.03877 0,0.04528 0.01012,0.03555 0,0.04521 0,0.03877 0,0.04206 0,0 1.117494,0 0,0 0,0 0,0 5.8e-5,1.93e-4 z"
     id="path100"
     style="fill:#ffffff" />
  <path
     d="m 9.3944204,27.403233 0.071141,0 0.067692,-0.0064 0.067768,-0.0064 0.071066,-0.0032 0.067768,-0.0065 0.060946,-0.01288 0.071141,-0.0097 0.067693,-0.0097 0.060946,-0.01295 0.06432,-0.01938 0.07114,-0.01295 0.06095,-0.02582 0.06432,-0.01295 0.06095,-0.0226 0.06439,-0.01938 0.05758,-0.02911 0.06095,-0.02582 0.06432,-0.0226 0.05757,-0.02911 0.05758,-0.02904 0.05757,-0.02911 0.05075,-0.03233 0.0542,-0.03226 0.06095,-0.03877 0.05083,-0.03555 0.0542,-0.03233 0.05075,-0.04199 0.05083,-0.03233 0.05075,-0.0485 0.04746,-0.03555 0.04401,-0.04521 0.0542,-0.04199 0.04063,-0.04528 0.04401,-0.04521 0.04064,-0.04199 0.04401,-0.0485 0.04063,-0.04843 0.04071,-0.05172 0.04064,-0.05172 0.0338,-0.04521 0.03388,-0.05494 0.03388,-0.05494 0.03043,-0.0485 0.04063,-0.05816 0.02713,-0.05172 0.03043,-0.06138 0.02713,-0.05816 0.02706,-0.05493 0.02369,-0.06138 0.02369,-0.05494 0.02376,-0.06138 0.02369,-0.06145 0.01694,-0.0646 0.01694,-0.05816 0.01349,-0.06138 0.01357,-0.05822 0.01694,-0.06782 0.0067,-0.06467 0.0068,-0.06782 0.01012,-0.06467 0.01019,-0.05816 0,-0.07432 0.0067,-0.05816 0,-0.06782 -1.117494,0 0,0.03877 0,0.03877 -0.01012,0.03877 0,0.03877 0,0.03555 -0.0068,0.04199 -0.0067,0.03877 -0.0034,0.03555 -0.01357,0.03555 -0.0034,0.03555 -0.01357,0.03555 -0.01012,0.03548 -0.01357,0.03884 -0.01694,0.03548 -0.01012,0.03555 -0.01694,0.03555 -0.01357,0.03233 -0.01694,0.02904 -0.01694,0.03555 -0.01694,0.03233 -0.01686,0.03233 -0.02376,0.03555 -0.02031,0.02582 -0.01694,0.02911 -0.02369,0.03226 -0.02369,0.02911 -0.02369,0.02904 -0.02369,0.02911 -0.02031,0.0226 -0.03051,0.03233 -0.02369,0.02582 -0.02713,0.02911 -0.02706,0.0226 -0.03043,0.02582 -0.02376,0.02267 -0.0338,0.0226 -0.02713,0.02582 -0.03043,0.01938 -0.03388,0.02589 -0.02706,0.01938 -0.03726,0.01617 -0.02713,0.01938 -0.03381,0.01609 -0.03388,0.01938 -0.03388,0.02267 -0.03726,0.01617 -0.0338,0.01287 -0.03388,0.01617 -0.040631,0.01295 -0.033884,0.01288 -0.033884,0.01617 -0.040631,0.01295 -0.037257,0.0032 -0.040631,0.01295 -0.030435,0.0097 -0.040631,0.0033 -0.040631,0.0097 -0.04063,0.0097 -0.037257,0 -0.037257,0.0097 -0.044079,0 -0.033809,0.0064 -0.047453,0 -0.040631,0 0,1.069566 0,0 -6e-6,-6e-6 z"
     id="path102"
     style="fill:#ffffff" />
  <path
     d="m 6.2079125,27.403233 3.1865079,0 0,-1.069566 -3.1865079,0 0,1.069566 0,0 0,0 z"
     id="path104"
     style="fill:#ffffff" />
  <path
     d="m 6.2654851,28.143245 0,-2.581851 -1.6254511,1.237598 1.6254511,1.344253 0,0 z"
     id="path106"
     style="fill:#ffffff" />
  <path
     d="m 6.2654851,28.143245 0,-2.581851 -1.6254511,1.237598 1.6254511,1.344253"
     id="path108"
     style="fill:none;stroke:#ffffff;stroke-width:0.01464574" />
  <path
     d="m 18.026111,17.202014 0,2.575342 1.625452,-1.237598 -1.625452,-1.337744 z"
     id="path110"
     style="fill:#ffffff" />
  <path
     d="m 18.026111,17.202014 0,2.575342 1.625452,-1.237598 -1.625452,-1.337744"
     id="path112"
     style="fill:none;stroke:#ffffff;stroke-width:0.01464574" />
  <path
     d="m 20.28644,32.272861 2.904378,-2.126183 0,-26.4871311 -2.904378,2.122965 0,26.4903491 z"
     id="path114"
     style="fill:#6e8296;fill-opacity:1" />
</svg>
