<?xml version="1.0" encoding="UTF-8" standalone="no"?>
<!-- Created with Inkscape (http://www.inkscape.org/) -->

<svg
   xmlns:dc="http://purl.org/dc/elements/1.1/"
   xmlns:cc="http://creativecommons.org/ns#"
   xmlns:rdf="http://www.w3.org/1999/02/22-rdf-syntax-ns#"
   xmlns:svg="http://www.w3.org/2000/svg"
   xmlns="http://www.w3.org/2000/svg"
   version="1.1"
   width="40.000019"
   height="60"
   viewBox="4 5 19.567417 26.67"
   id="svg2">
  <title
     id="title5193">SIP server</title>
  <metadata
     id="metadata122">
    <rdf:RDF>
      <cc:Work
         rdf:about="">
        <dc:format>image/svg+xml</dc:format>
        <dc:type
           rdf:resource="http://purl.org/dc/dcmitype/StillImage" />
        <cc:license
           rdf:resource="" />
        <dc:title>SIP server</dc:title>
        <dc:creator>
          <cc:Agent>
            <dc:title>Jeremy Grossmann</dc:title>
          </cc:Agent>
        </dc:creator>
        <dc:publisher>
          <cc:Agent>
            <dc:title>GNS-3</dc:title>
          </cc:Agent>
        </dc:publisher>
        <dc:description>Created for the GNS-3 project
(www.gns3.net)</dc:description>
      </cc:Work>
      <cc:Work
         rdf:about="">
        <dc:format>image/svg+xml</dc:format>
        <dc:type
           rdf:resource="http://purl.org/dc/dcmitype/StillImage" />
      </cc:Work>
      <cc:Work
         rdf:about="">
        <dc:format>image/svg+xml</dc:format>
        <dc:type
           rdf:resource="http://purl.org/dc/dcmitype/StillImage" />
      </cc:Work>
    </rdf:RDF>
  </metadata>
  <defs
     id="defs120">
    <linearGradient
       id="linearGradient5116">
      <stop
         id="stop5118"
         style="stop-color:#6e8caa;stop-opacity:1"
         offset="0" />
      <stop
         id="stop5120"
         style="stop-color:#6e8caa;stop-opacity:0"
         offset="1" />
    </linearGradient>
  </defs>
  <g
     transform="translate(-16.555088,-23.017903)"
     id="g4">
    <rect
       width="15.630231"
       height="1.182209"
       x="21.305155"
       y="54.826042"
       id="rect5191"
       style="fill:#000000;fill-opacity:0.55686275" />
    <path
       d="m 36.917434,56.028459 3.205071,-2.154906 0,-26.844965 -3.205071,2.151643 0,26.848228 z"
       id="path5176"
       style="fill:#000000;fill-opacity:0.55686275" />
    <path
       d="m 20.585662,28.800475 0,26.49239 16.359292,0 0,-26.49239 -16.359292,0 0,0 0,0 z"
       id="path6"
       style="fill:#49659d;fill-opacity:1" />
    <path
       d="m 20.585662,28.800475 0,26.427791"
       id="path8"
       style="fill:none;stroke:#8dcaef;stroke-width:0.01464331" />
    <path
       d="m 20.585662,28.905561 2.258738,-2.123128 16.829876,0 -2.279587,2.123128 -16.809027,0 0,0 z"
       id="path12"
       style="fill:#506daa;fill-opacity:1" />
    <path
       d="m 21.543539,30.348431 7.274185,0 0,3.286493 -7.274185,0 0,-3.286493 0,0 z"
       id="path16"
       style="fill:#009bdf" />
    <path
       d="m 21.543539,30.348431 7.274185,0 0,3.286493 -7.274185,0 0,-3.286493 0,0 z"
       id="path18"
       style="fill:#495b89;fill-opacity:1" />
    <path
       d="m 28.919334,30.348431 -0.10161,-0.09701 -7.274185,0 0,0.197161 7.274185,0 0.10161,-0.100155 0,0 0,-0.09701 -0.10161,0 0.10161,0.09701 0,4e-6 z"
       id="path20"
       style="fill:#00688f" />
    <path
       d="m 28.817724,33.72542 0.10161,-0.0905 0,-3.286493 -0.199773,0 0,3.286493 0.09816,0.0905 0,0 0.10161,0 0,-0.0905 -0.10161,0.0905 3e-6,0 z"
       id="path22"
       style="fill:#00688f" />
    <path
       d="m 21.445375,33.634924 0.09816,0.0905 7.274185,0 0,-0.187431 -7.274185,0 -0.09816,0.09694 0,0 0,0.0905 0.09816,0 -0.09816,-0.0905 0,-9e-6 z"
       id="path24"
       style="fill:#00688f" />
    <path
       d="m 21.543539,30.251425 -0.09816,0.09701 0,3.286493 0.196327,0 0,-3.286493 -0.09816,-0.09701 0,0 -0.09816,0 0,0.09701 0.09816,-0.09701 -7e-6,0 z"
       id="path26"
       style="fill:#00688f" />
    <path
       d="m 27.609344,32.216503 -4.850605,0 0,-0.452941 4.850605,0 0,0.452941 z"
       id="path30"
       style="fill:#000000;fill-opacity:1" />
    <path
       d="m 20.890267,53.308665 -0.199698,0 0,0.387812 0.199698,0 0,-0.387812 z"
       id="path34"
       style="fill:#e6e9e9" />
    <path
       d="m 36.630158,53.308665 -15.739891,0 0,0.387812 15.739891,0 0,-0.387812 z"
       id="path36"
       style="fill:#e6e9e9" />
    <path
       d="m 36.630158,53.696477 0.203071,0 0,-0.387812 -0.203071,0 0,0.387812 z"
       id="path38"
       style="fill:#e6e9e9" />
    <path
       d="m 20.890267,39.164087 -0.199698,0 0,0.381373 0.199698,0 0,-0.381373 z"
       id="path40"
       style="fill:#e6e9e9" />
    <path
       d="m 36.653837,39.164087 -15.76357,0 0,0.381373 15.76357,0 0,-0.381373 z"
       id="path42"
       style="fill:#e6e9e9" />
    <path
       d="m 36.653837,39.54546 0.199698,0 0,-0.381373 -0.199698,0 0,0.381373 z"
       id="path44"
       style="fill:#e6e9e9" />
    <path
       d="m 20.788732,53.189124 -0.20307,0 0,0.387812 0.20307,0 0,-0.387812 z"
       id="path46"
       style="fill:#00688f" />
    <path
       d="m 36.728322,53.189124 -15.93959,0 0,0.387812 15.93959,0 0,-0.387812 z"
       id="path48"
       style="fill:#00688f" />
    <path
       d="m 36.728322,53.576936 0.199698,0 0,-0.387812 -0.199698,0 0,0.387812 z"
       id="path50"
       style="fill:#00688f" />
    <path
       d="m 20.815783,39.041325 -0.206443,0 0,0.384522 0.206443,0 0,-0.384522 z"
       id="path52"
       style="fill:#00688f" />
    <path
       d="m 36.779052,39.041325 -15.963269,0 0,0.384522 15.963269,0 0,-0.384522 z"
       id="path54"
       style="fill:#00688f" />
    <path
       d="m 36.779052,39.425847 0.203144,0 0,-0.384522 -0.203144,0 0,0.384522 z"
       id="path56"
       style="fill:#00688f" />
    <path
       d="m 30.730256,50.70079 -1.161022,0 0,-5.312686 1.161022,0 0,5.312686 z"
       id="path66"
       style="fill:#1f1a17" />
    <path
       d="m 32.977816,50.70079 -1.164394,0 0,-5.312686 2.545422,0 0.09479,0 0.09479,0.0032 0.101536,0.01295 0.09141,0.01617 0.0846,0.01617 0.08804,0.01617 0.0846,0.02582 0.08123,0.02911 0.07786,0.02582 0.07449,0.03877 0.07441,0.03877 0.07111,0.03877 0.06092,0.04528 0.06429,0.04843 0.06099,0.0485 0.06092,0.05494 0.05073,0.05494 0.05081,0.06139 0.04736,0.06461 0.04399,0.06468 0.04069,0.06782 0.0406,0.07111 0.0338,0.07433 0.02712,0.07755 0.02705,0.07755 0.02705,0.08084 0.01693,0.09043 0.0203,0.08728 0.01356,0.08728 0.0067,0.09372 0.01019,0.0905 0,0.100154 0,0.04199 -0.01019,0.05494 0,0.05494 -0.0067,0.05494 -0.0067,0.06138 -0.01019,0.06466 -0.01693,0.06782 -0.01693,0.06468 -0.01685,0.07105 -0.02375,0.06468 -0.03043,0.07111 -0.02712,0.07112 -0.0338,0.07426 -0.04062,0.07111 -0.04061,0.07111 -0.04744,0.06468 -0.05073,0.06139 -0.05418,0.07112 -0.06093,0.06461 -0.06429,0.06138 -0.06774,0.05495 -0.07448,0.05494 -0.07786,0.05172 -0.08797,0.05172 -0.09141,0.04199 -0.09479,0.03877 -0.104908,0.03233 -0.108279,0.02582 -0.121916,0.02582 -0.118471,0.01938 -0.131958,0.0065 -0.132033,0.0064 -1.333671,0 0,1.916309 1.076423,-2.83086 0.08123,-0.0064 0.07448,-0.0097 0.06766,0 0.05756,-0.01617 0.06092,-0.01295 0.05756,-0.01617 0.05418,-0.01617 0.04061,-0.0226 0.05073,-0.0226 0.03387,-0.02589 0.04061,-0.02904 0.03387,-0.02582 0.03387,-0.02911 0.02705,-0.03555 0.01693,-0.02904 0.02368,-0.03233 0.02368,-0.03233 0.01356,-0.03233 0.01356,-0.04199 0.01348,-0.02904 0.01019,-0.03555 0.01356,-0.03555 0.0034,-0.03555 0.0067,-0.03233 0.0068,-0.06461 0.0034,-0.06145 0,-0.05487 0,-0.0485 0,-0.04521 0,-0.0485 -0.0034,-0.04199 -0.0068,-0.04528 -0.01012,-0.03877 -0.01018,-0.03877 -0.0067,-0.03877 -0.0203,-0.03555 -0.01693,-0.03555 -0.01693,-0.02582 -0.01693,-0.03233 -0.02368,-0.03226 -0.02368,-0.02911 -0.02712,-0.02582 -0.02705,-0.02267 -0.03051,-0.0226 -0.02705,-0.0226 -0.03388,-0.0226 -0.04062,-0.01616 -0.03379,-0.01617 -0.04069,-0.01617 -0.04736,-0.0097 -0.04399,-0.01617 -0.04744,-0.01295 -0.05073,-0.0097 -0.05081,-0.0065 -0.05073,-0.0097 -0.05755,-0.0065 -0.05755,0 -0.06429,-0.0064 -0.06437,0 -0.06766,-0.0032 -0.920711,0 0,1.567272 1.076423,0 -1.076423,2.830861 -3e-5,-1e-4 z"
       id="path68"
       style="fill:#1f1a17" />
    <path
       d="m 24.447817,42.363372 10.418777,0 0,-1.069647 -10.418777,0 0,1.069647 0,0 z"
       id="path70"
       style="fill:#000000" />
    <path
       d="m 22.856901,43.878993 0,0 0,-0.03555 0,-0.04528 0.0034,-0.03877 0,-0.03877 0.0068,-0.03226 0.0034,-0.04206 0.0067,-0.03555 0.0067,-0.03548 0.01019,-0.03884 0.01356,-0.03548 0.0034,-0.03555 0.01356,-0.03555 0.01012,-0.03555 0.01693,-0.03555 0.01356,-0.03555 0.01012,-0.03555 0.01693,-0.03233 0.01693,-0.03226 0.01693,-0.03233 0.01348,-0.03233 0.0203,-0.03555 0.0203,-0.03226 0.02712,-0.02589 0.01693,-0.03226 0.02368,-0.03233 0.0203,-0.02911 0.02368,-0.02582 0.02368,-0.03555 0.02375,-0.02582 0.02705,-0.02267 0.02368,-0.02582 0.0305,-0.02904 0.02705,-0.02589 0.0305,-0.02904 0.02705,-0.02267 0.02705,-0.01938 0.0305,-0.0226 0.02705,-0.02904 0.03724,-0.01938 0.02712,-0.01617 0.0338,-0.0226 0.0305,-0.01616 0.03387,-0.02267 0.03379,-0.01609 0.03051,-0.01617 0.03725,-0.01617 0.0338,-0.01617 0.03723,-0.01938 0.03388,-0.0097 0.04062,-0.01609 0.0305,-0.0097 0.0406,-0.01295 0.04062,-0.0097 0.03723,-0.01295 0.0338,-0.0097 0.0406,-0.0065 0.03724,-0.0032 0.04061,-0.0064 0.04061,-0.0097 0.04069,0 0.04061,0 0.04062,-0.0064 0.03723,0 0.04736,0 0,-1.069647 -0.07448,0 -0.06429,0.0064 -0.07448,0 -0.06093,0.0065 -0.07786,0.0097 -0.06093,0.0064 -0.06766,0.0097 -0.06437,0.01617 -0.06766,0.01295 -0.06774,0.0097 -0.06429,0.0226 -0.06429,0.01617 -0.06093,0.0226 -0.06437,0.01938 -0.05748,0.02267 -0.06099,0.0226 -0.06429,0.0226 -0.05756,0.03233 -0.05756,0.02582 -0.06093,0.02911 -0.05418,0.03226 -0.06093,0.02911 -0.05411,0.03233 -0.05418,0.03877 -0.05418,0.03226 -0.05073,0.03884 -0.05081,0.03548 -0.05081,0.03877 -0.04736,0.03884 -0.05081,0.04521 -0.05073,0.03877 -0.04744,0.04199 -0.04399,0.0485 -0.04061,0.03877 -0.04736,0.05172 -0.04061,0.04843 -0.04061,0.04199 -0.03725,0.05494 -0.04406,0.05172 -0.03042,0.0485 -0.03723,0.05494 -0.03388,0.04842 -0.03387,0.05495 -0.0338,0.05494 -0.02712,0.05494 -0.03042,0.05494 -0.02712,0.06139 -0.03042,0.05494 -0.02368,0.05817 -0.0203,0.06145 -0.02375,0.05817 -0.02705,0.06139 -0.01356,0.06138 -0.01685,0.06468 -0.01693,0.06139 -0.01356,0.05816 -0.01693,0.0679 -0.01012,0.06461 -0.0068,0.06138 -0.0034,0.06468 -0.0067,0.06461 -0.0068,0.0679 -0.0034,0.06461 0,0.06468 0,0 1.117035,0 0,0 0,0 0,0 1.15e-4,-2.93e-4 z"
       id="path72"
       style="fill:#000000" />
    <path
       d="m 24.539237,45.320285 -0.04744,0 -0.03723,0 -0.04736,-0.0033 -0.04061,0 -0.04062,-0.0064 -0.03723,-0.0064 -0.04743,-0.0033 -0.04061,-0.0064 -0.04061,-0.01295 -0.03724,-0.0032 -0.0406,-0.01288 -0.04061,-0.0097 -0.04062,-0.0064 -0.0406,-0.01617 -0.04062,-0.0097 -0.03387,-0.01609 -0.04399,-0.01295 -0.04062,-0.01617 -0.03042,-0.01617 -0.03387,-0.01617 -0.03387,-0.01617 -0.04061,-0.01609 -0.03387,-0.02267 -0.03724,-0.01617 -0.03042,-0.0226 -0.03387,-0.0226 -0.03042,-0.01938 -0.03388,-0.0226 -0.0305,-0.0226 -0.0338,-0.02267 -0.02712,-0.01939 -0.0338,-0.02904 -0.02375,-0.0226 -0.03043,-0.02589 -0.0203,-0.02904 -0.02368,-0.01938 -0.0305,-0.03555 -0.0203,-0.01938 -0.0305,-0.02911 -0.02367,-0.03233 -0.0203,-0.02904 -0.01693,-0.02582 -0.02368,-0.02589 -0.01693,-0.03555 -0.02368,-0.03226 -0.01693,-0.02589 -0.0203,-0.02904 -0.01356,-0.03877 -0.01348,-0.03233 -0.01356,-0.02589 -0.01356,-0.03226 -0.01011,-0.03555 -0.01693,-0.03555 -0.0067,-0.03555 -0.01356,-0.03233 -0.0034,-0.03226 -0.01356,-0.03884 -0.0067,-0.03226 -0.0034,-0.03877 -0.0068,-0.03233 0,-0.03877 -0.0034,-0.03877 0,-0.03877 0,-0.03877 -1.117035,0 0,0.06782 0.0034,0.07111 0.0068,0.06468 0.0067,0.06782 0.0034,0.06468 0.01018,0.06461 0.01348,0.0679 0.01693,0.05816 0.01019,0.06782 0.02368,0.05823 0.01693,0.06783 0.02368,0.05816 0.0203,0.06139 0.02712,0.05823 0.02705,0.06138 0.03042,0.05494 0.02712,0.05494 0.03042,0.06139 0.02712,0.05494 0.0338,0.05494 0.03387,0.05494 0.04062,0.04843 0.03387,0.0485 0.04061,0.05494 0.04062,0.04843 0.0406,0.05172 0.04399,0.04199 0.04062,0.04528 0.04744,0.04842 0.04399,0.04206 0.05418,0.04521 0.04399,0.04528 0.04744,0.03548 0.05073,0.03877 0.05081,0.03884 0.05073,0.03877 0.05418,0.03877 0.05081,0.03226 0.05756,0.03877 0.05748,0.03233 0.05756,0.02911 0.05081,0.02582 0.05755,0.03233 0.06093,0.02904 0.05756,0.02589 0.06429,0.02904 0.05755,0.01938 0.06093,0.02267 0.06437,0.0226 0.05748,0.0226 0.061,0.01617 0.07104,0.0226 0.05755,0.01617 0.06774,0.0097 0.06093,0.01617 0.07104,0.01295 0.06774,0.0097 0.06429,0.0097 0.06766,0.01295 0.06774,0.0064 0.06429,0.0032 0.06774,0 0.07104,0.0065 0.06774,0 0,-1.06965 0,0 -1.95e-4,-3.3e-4 z"
       id="path74"
       style="fill:#000000" />
    <path
       d="m 26.279047,45.320285 -1.73981,0 0,1.06965 1.73981,0 0,-1.06965 z"
       id="path76"
       style="fill:#000000" />
    <path
       d="m 28.892208,48.021877 0,0 0,-0.0679 -0.0067,-0.06468 0,-0.06461 -0.0068,-0.06139 -0.0034,-0.06468 -0.01011,-0.06782 -0.01356,-0.05815 -0.01356,-0.06468 -0.0067,-0.06138 -0.01356,-0.0679 -0.01693,-0.05817 -0.01685,-0.06138 -0.01693,-0.05816 -0.02368,-0.06146 -0.01693,-0.05816 -0.02375,-0.06139 -0.0203,-0.06139 -0.03042,-0.05494 -0.02705,-0.05816 -0.02375,-0.06139 -0.03042,-0.05494 -0.03388,-0.05494 -0.02705,-0.05494 -0.03387,-0.05494 -0.0305,-0.0485 -0.03379,-0.05494 -0.04061,-0.04842 -0.03387,-0.05494 -0.04062,-0.05172 -0.0406,-0.0485 -0.04061,-0.04843 -0.04406,-0.0485 -0.04062,-0.04521 -0.04399,-0.04199 -0.04736,-0.04528 -0.05081,-0.04521 -0.04736,-0.04199 -0.04406,-0.04528 -0.05411,-0.03877 -0.05081,-0.03555 -0.05418,-0.03877 -0.04736,-0.03233 -0.05756,-0.03877 -0.05755,-0.03226 -0.05073,-0.03555 -0.06437,-0.03233 -0.06093,-0.02582 -0.05418,-0.02911 -0.06093,-0.03233 -0.05756,-0.0226 -0.06429,-0.0226 -0.06429,-0.02582 -0.06774,-0.01617 -0.06093,-0.0226 -0.06429,-0.01617 -0.06766,-0.01617 -0.07448,-0.0097 -0.06429,-0.01938 -0.06774,-0.0032 -0.06429,-0.01295 -0.07448,-0.0032 -0.06766,-0.0064 -0.07111,-0.0064 -0.07448,0 0,1.069649 0.04061,0 0.04062,0 0.0406,0.0064 0.04062,0 0.03387,0.0032 0.04062,0.0064 0.03387,0.0097 0.04062,0.0064 0.02705,0.0065 0.0406,0.0097 0.03388,0.01295 0.0305,0.0097 0.04062,0.0097 0.03387,0.01617 0.03381,0.01288 0.02712,0.01617 0.03379,0.01617 0.03723,0.01617 0.02712,0.01617 0.0338,0.01617 0.02712,0.0226 0.03042,0.01617 0.03388,0.0226 0.0305,0.0226 0.02705,0.01938 0.03042,0.0226 0.02712,0.02911 0.03042,0.01938 0.02712,0.02911 0.03042,0.02582 0.0203,0.02904 0.0305,0.02589 0.0203,0.02904 0.03042,0.02589 0.01356,0.02904 0.03387,0.03233 0.0203,0.03233 0.02368,0.02904 0.01693,0.03233 0.02368,0.03233 0.01693,0.03877 0.02368,0.02582 0.01693,0.03877 0.01693,0.03233 0.01693,0.03877 0.01693,0.03233 0.01693,0.03877 0.01685,0.03555 0.01356,0.03555 0.01019,0.03555 0.01012,0.04199 0.01356,0.03877 0.01012,0.03877 0.01356,0.04199 0.0067,0.03555 0.01019,0.03555 0.0034,0.04521 0.0067,0.03555 0.0068,0.04199 0.0034,0.03884 0.0067,0.04843 0,0.03877 0,0.03877 0,0.04206 0,0 1.117036,0 0,0 0,0 0,0 8.4e-5,1.31e-4 z"
       id="path78"
       style="fill:#000000" />
    <path
       d="m 26.187703,50.607074 0.06766,0 0.07111,-0.0064 0.06766,-0.0032 0.07111,-0.0065 0.06766,-0.0064 0.06093,-0.0097 0.07111,-0.0065 0.06766,-0.01617 0.06436,-0.01288 0.06766,-0.01295 0.06429,-0.01617 0.06092,-0.01616 0.06437,-0.0226 0.06429,-0.0226 0.06093,-0.02589 0.06429,-0.01609 0.05755,-0.02911 0.06093,-0.02904 0.05756,-0.02589 0.05755,-0.02582 0.05756,-0.02911 0.05081,-0.03877 0.05756,-0.03233 0.05755,-0.03226 0.05073,-0.03233 0.05418,-0.03877 0.05073,-0.03877 0.04744,-0.03877 0.05418,-0.04199 0.04736,-0.03884 0.05081,-0.04199 0.04736,-0.04199 0.04399,-0.0485 0.0406,-0.04199 0.04744,-0.04842 0.03723,-0.04528 0.04062,-0.05172 0.04061,-0.04842 0.04062,-0.0485 0.03387,-0.04843 0.04062,-0.05495 0.02705,-0.05494 0.03723,-0.05172 0.03388,-0.05172 0.02705,-0.05494 0.0305,-0.05494 0.02705,-0.06139 0.03042,-0.05494 0.0203,-0.06139 0.02375,-0.05816 0.02368,-0.06139 0.02368,-0.06146 0.01693,-0.06139 0.01693,-0.06461 0.01693,-0.06145 0.01012,-0.05816 0.01693,-0.06461 0.01356,-0.0679 0.0034,-0.06139 0.0067,-0.06468 0.0034,-0.06461 0.0068,-0.06461 0.0067,-0.0679 0,-0.06461 -1.117036,0 0,0.03877 0,0.04521 -0.0067,0.03555 0,0.03555 -0.0034,0.03555 -0.0068,0.04521 -0.0067,0.03233 -0.0034,0.03877 -0.01356,0.03877 -0.0034,0.03555 -0.01356,0.03555 -0.01012,0.03877 -0.01356,0.03233 -0.01693,0.03226 -0.01012,0.03877 -0.01356,0.03233 -0.01356,0.03233 -0.0203,0.03555 -0.01685,0.03226 -0.01693,0.02911 -0.0203,0.03555 -0.0203,0.02904 -0.0203,0.03233 -0.01693,0.03233 -0.02712,0.03233 -0.0203,0.02904 -0.02368,0.02582 -0.0203,0.02589 -0.02368,0.03555 -0.0305,0.01938 -0.0203,0.02582 -0.03042,0.02911 -0.02712,0.02904 -0.03042,0.0226 -0.02712,0.02589 -0.03042,0.0226 -0.02712,0.0226 -0.03042,0.01938 -0.03723,0.0226 -0.02368,0.02267 -0.03387,0.0226 -0.03042,0.01295 -0.03724,0.01938 -0.0305,0.0226 -0.03387,0.01288 -0.03724,0.01617 -0.0338,0.01938 -0.03723,0.0097 -0.0406,0.01938 -0.03051,0.0097 -0.0338,0.01295 -0.04069,0.0097 -0.03379,0.01617 -0.03388,0.0097 -0.04061,0.0064 -0.04061,0.0097 -0.04399,0.0064 -0.0305,0.0065 -0.04399,0.0032 -0.03723,0.0064 -0.03725,0 -0.04061,0.0064 -0.04736,0 -0.04062,0 0,1.066429 0,0 -1.04e-4,3.31e-4 z"
       id="path80"
       style="fill:#000000" />
    <path
       d="m 23.00587,50.607074 3.181833,0 0,-1.066429 -3.181833,0 0,1.066429 0,0 z"
       id="path82"
       style="fill:#000000" />
    <path
       d="m 23.059972,51.347143 0,-2.57883 -1.628084,1.237693 1.628084,1.341137 0,0 z"
       id="path84"
       style="fill:#000000" />
    <path
       d="m 34.815864,40.408289 0,2.578759 1.628084,-1.244131 -1.628084,-1.334628 0,0 z"
       id="path86"
       style="fill:#000000" />
    <path
       d="m 30.486496,50.51014 -1.157649,0 0,-5.309468 1.157649,0 0,5.309468 z"
       id="path88"
       style="fill:#ffffff" />
    <path
       d="m 32.727313,50.51014 -1.161022,0 0,-5.309468 2.548868,0 0.09479,0 0.101535,0.0065 0.09134,0.0097 0.09816,0.0097 0.08468,0.0226 0.08797,0.01617 0.08468,0.02904 0.08123,0.02589 0.07786,0.02904 0.07441,0.03877 0.07111,0.03233 0.07448,0.04199 0.06093,0.04528 0.06429,0.04843 0.06437,0.0485 0.05411,0.05494 0.05418,0.05494 0.05081,0.06138 0.04399,0.06461 0.04736,0.06144 0.04061,0.07105 0.04061,0.07112 0.03387,0.07755 0.02705,0.07755 0.0305,0.07433 0.02368,0.08406 0.0203,0.08721 0.01693,0.08084 0.01356,0.09372 0.01012,0.09372 0.0068,0.09372 0,0.09372 0,0.04842 -0.0068,0.05494 0,0.0485 -0.01012,0.05816 -0.0068,0.06139 -0.01012,0.0679 -0.01693,0.05817 -0.01693,0.07111 -0.0203,0.06461 -0.0203,0.07433 -0.03042,0.07111 -0.02712,0.07112 -0.0338,0.07105 -0.04068,0.07112 -0.04061,0.07111 -0.04736,0.06139 -0.05081,0.07111 -0.05073,0.06468 -0.06429,0.06461 -0.06099,0.06139 -0.07104,0.06146 -0.07448,0.05486 -0.07786,0.04528 -0.09141,0.05172 -0.08797,0.04521 -0.09816,0.03877 -0.101535,0.03233 -0.108354,0.02582 -0.121842,0.0226 -0.11847,0.01617 -0.132034,0.0097 -0.131958,0.0064 -1.34386,0 0,1.913091 1.086613,-2.834081 0.07778,0 0.07448,-0.0032 0.07111,-0.01295 0.06093,-0.0097 0.05755,-0.01295 0.05418,-0.01617 0.05411,-0.01938 0.04744,-0.01938 0.04736,-0.02582 0.03724,-0.02589 0.03724,-0.0226 0.0305,-0.02904 0.03717,-0.03233 0.02375,-0.02589 0.02368,-0.03548 0.0203,-0.03233 0.02368,-0.03233 0.01693,-0.03877 0.01019,-0.03233 0.01348,-0.03226 0.01019,-0.03877 0.01349,-0.03233 0.0034,-0.03555 0.0067,-0.02911 0.0067,-0.06782 0.0034,-0.05817 0,-0.05494 0,-0.05172 0,-0.0485 0,-0.04521 -0.0034,-0.04199 -0.0067,-0.04528 -0.01019,-0.03555 -0.0067,-0.03877 -0.01693,-0.03877 -0.01348,-0.03877 -0.01693,-0.03226 -0.01693,-0.03233 -0.01693,-0.03555 -0.02368,-0.02582 -0.0203,-0.02911 -0.0305,-0.02582 -0.02368,-0.02267 -0.03387,-0.0226 -0.02705,-0.01938 -0.03387,-0.0226 -0.04061,-0.01617 -0.03387,-0.01617 -0.05073,-0.01617 -0.0406,-0.01938 -0.04406,-0.0097 -0.04399,-0.0097 -0.05073,-0.01288 -0.05081,-0.0033 -0.05418,-0.01288 -0.05411,-0.0032 -0.06437,-0.0065 -0.06093,0 -0.06429,0 -0.06429,-0.0064 -0.9309,0 0,1.560834 1.086614,0 -1.086614,2.83408 0,0 -6.1e-5,-1.96e-4 z"
       id="path90"
       style="fill:#ffffff" />
    <path
       d="m 24.200686,42.172721 10.425596,0 0,-1.063209 -10.425596,0 0,1.063209 0,0 z"
       id="path92"
       style="fill:#ffffff" />
    <path
       d="m 22.613217,43.69478 0,0 0,-0.04528 0,-0.03877 0.0034,-0.03548 0,-0.03884 0.01012,-0.03877 0.0068,-0.03877 0.0034,-0.03226 0.0067,-0.03877 0.01019,-0.03884 0.01348,-0.03877 0.0034,-0.03226 0.01348,-0.03877 0.01019,-0.03233 0.01348,-0.03877 0.01693,-0.03233 0.01019,-0.03233 0.01693,-0.03226 0.01693,-0.03555 0.01685,-0.03555 0.01693,-0.02911 0.01693,-0.03226 0.02368,-0.03233 0.01693,-0.03233 0.02368,-0.02904 0.02375,-0.03233 0.02368,-0.02911 0.0203,-0.03226 0.02368,-0.02589 0.0203,-0.02904 0.0305,-0.02589 0.02368,-0.02904 0.03042,-0.02589 0.02712,-0.0226 0.02705,-0.02582 0.0305,-0.0226 0.02705,-0.02911 0.0305,-0.01938 0.02705,-0.0226 0.03387,-0.0226 0.03043,-0.01617 0.03387,-0.0226 0.0305,-0.02267 0.03379,-0.01617 0.03388,-0.01609 0.03387,-0.02267 0.0338,-0.0097 0.03387,-0.01617 0.03387,-0.01617 0.03725,-0.01295 0.03387,-0.01609 0.04062,-0.0097 0.03716,-0.0097 0.04069,-0.01295 0.03042,-0.0097 0.04062,-0.01288 0.03723,-0.0032 0.04061,-0.0065 0.04062,-0.0064 0.0406,-0.0097 0.04062,0 0.04061,-0.0064 0.0406,0 0.03723,0 0.04061,-0.0032 0,-1.06321 -0.06093,0 -0.07441,0 -0.07111,0.0032 -0.06774,0.0065 -0.06429,0.0064 -0.06766,0.0097 -0.06774,0.0097 -0.07104,0.01295 -0.06437,0.01617 -0.06429,0.0097 -0.06429,0.0226 -0.06429,0.01617 -0.06437,0.01617 -0.06093,0.0226 -0.05756,0.0226 -0.06092,0.02589 -0.06429,0.0226 -0.05756,0.02911 -0.05756,0.02582 -0.06429,0.03233 -0.05418,0.03226 -0.05756,0.02911 -0.05755,0.03233 -0.05418,0.03226 -0.05073,0.03877 -0.05081,0.03884 -0.05411,0.03226 -0.04744,0.04528 -0.05418,0.03877 -0.04399,0.03555 -0.04736,0.04521 -0.05081,0.04521 -0.04061,0.04206 -0.04399,0.04521 -0.05081,0.0485 -0.03723,0.04843 -0.04062,0.04528 -0.03723,0.04843 -0.0406,0.05494 -0.0338,0.0485 -0.03725,0.04842 -0.03387,0.05494 -0.03724,0.05494 -0.03042,0.05494 -0.0305,0.05495 -0.02705,0.05494 -0.02712,0.05494 -0.03043,0.06139 -0.02375,0.06138 -0.0203,0.05172 -0.02368,0.0679 -0.02368,0.05494 -0.01693,0.06461 -0.01693,0.06139 -0.01693,0.06468 -0.01348,0.06138 -0.01693,0.06468 -0.01019,0.06139 -0.01012,0.06461 -0.0067,0.06468 -0.0068,0.06782 0,0.06467 -0.0067,0.06461 0,0.0679 0,0 1.117036,0 0,0 0,0 0,0 8.4e-5,-3.1e-4 z"
       id="path94"
       style="fill:#ffffff" />
    <path
       d="m 24.298849,45.136073 -0.04736,0 -0.03723,0 -0.04736,-0.0065 -0.04061,0 -0.04062,-0.0064 -0.04406,-0.0032 -0.04062,-0.0064 -0.0406,-0.0065 -0.04062,-0.0097 -0.04061,-0.0065 -0.03724,-0.0097 -0.04062,-0.01295 -0.04399,-0.0097 -0.0406,-0.0097 -0.04062,-0.01938 -0.0305,-0.0097 -0.04061,-0.0097 -0.04062,-0.01617 -0.03387,-0.01617 -0.03379,-0.01938 -0.03388,-0.01617 -0.04399,-0.01609 -0.0305,-0.02267 -0.03388,-0.01938 -0.03379,-0.01617 -0.0305,-0.0226 -0.03724,-0.0226 -0.03042,-0.0226 -0.0305,-0.0226 -0.02705,-0.01938 -0.03387,-0.02267 -0.03051,-0.02904 -0.02705,-0.02589 -0.03388,-0.0226 -0.01693,-0.02582 -0.03042,-0.0226 -0.02368,-0.03233 -0.0203,-0.02911 -0.03387,-0.02582 -0.0203,-0.02911 -0.02368,-0.02582 -0.0203,-0.02904 -0.0203,-0.03233 -0.01356,-0.02589 -0.01693,-0.03226 -0.02368,-0.02911 -0.01693,-0.03233 -0.01693,-0.03226 -0.01348,-0.03233 -0.01693,-0.03555 -0.01019,-0.03233 -0.01356,-0.02582 -0.01012,-0.03877 -0.01018,-0.03233 -0.01348,-0.03233 -0.0034,-0.03548 -0.01356,-0.03877 -0.0034,-0.03233 -0.0068,-0.03877 -0.01012,-0.03555 0,-0.03555 -0.0034,-0.03555 0,-0.03877 0,-0.03877 -1.117036,0 0,0.06461 0.0067,0.06468 0,0.07433 0.01356,0.06461 0,0.06468 0.01693,0.06782 0.01012,0.05817 0.01356,0.0679 0.01356,0.06461 0.02368,0.06145 0.01693,0.06461 0.01693,0.06138 0.03042,0.05823 0.02368,0.06138 0.02712,0.05495 0.03043,0.05816 0.0203,0.05494 0.03387,0.06139 0.0305,0.05494 0.04061,0.0485 0.02705,0.05487 0.04062,0.05494 0.03388,0.0485 0.0406,0.05172 0.04061,0.04843 0.04062,0.0485 0.04399,0.04842 0.04062,0.04528 0.04744,0.04842 0.04399,0.04528 0.04736,0.04199 0.05081,0.04528 0.04399,0.03226 0.05418,0.04528 0.05073,0.03877 0.05081,0.03555 0.05081,0.03555 0.05411,0.03548 0.05756,0.03555 0.05755,0.03233 0.05418,0.03233 0.05418,0.02582 0.06093,0.03555 0.05756,0.02582 0.05755,0.02911 0.05755,0.02582 0.06429,0.02267 0.06093,0.0226 0.06429,0.01938 0.05756,0.0226 0.06774,0.01617 0.06429,0.01617 0.06093,0.0226 0.06429,0.01295 0.06437,0.01609 0.06429,0.0097 0.07104,0.0097 0.06437,0.01295 0.06766,0.0032 0.06774,0.0065 0.06429,0.0064 0.06766,0.0064 0.07111,0.0033 0.06766,0 0,-1.066429 0,0 -1.4e-5,-1.01e-4 z"
       id="path96"
       style="fill:#ffffff" />
    <path
       d="m 26.038735,45.136073 -1.739886,0 0,1.066429 1.739886,0 0,-1.066429 z"
       id="path98"
       style="fill:#ffffff" />
    <path
       d="m 28.651897,47.834446 0,0 0,-0.06468 -0.0067,-0.0679 0,-0.06461 -0.0034,-0.06461 -0.01685,-0.06145 0,-0.06461 -0.01356,-0.0679 -0.01018,-0.05817 -0.01693,-0.06138 -0.0067,-0.0679 -0.01693,-0.05816 -0.0203,-0.05817 -0.01348,-0.06138 -0.02712,-0.06468 -0.0203,-0.05495 -0.01693,-0.06138 -0.02368,-0.05817 -0.02705,-0.06138 -0.02375,-0.05495 -0.02705,-0.06138 -0.03388,-0.05495 -0.02368,-0.05493 -0.03388,-0.05494 -0.03379,-0.05172 -0.03387,-0.05494 -0.0305,-0.05495 -0.04062,-0.04521 -0.0406,-0.05493 -0.0338,-0.0485 -0.0406,-0.04843 -0.04069,-0.05172 -0.03718,-0.0485 -0.04744,-0.04199 -0.04736,-0.04521 -0.04406,-0.04528 -0.04736,-0.04843 -0.05073,-0.03877 -0.04743,-0.04206 -0.05073,-0.03877 -0.05081,-0.03877 -0.05081,-0.03877 -0.05073,-0.03877 -0.05756,-0.03233 -0.05756,-0.03226 -0.05755,-0.03233 -0.05756,-0.03233 -0.05756,-0.03555 -0.06092,-0.02582 -0.05756,-0.02911 -0.05756,-0.01938 -0.06429,-0.02904 -0.06429,-0.0226 -0.06774,-0.01617 -0.06766,-0.0226 -0.05755,-0.01617 -0.07111,-0.01617 -0.06766,-0.01617 -0.06774,-0.0097 -0.06766,-0.01288 -0.07111,-0.0032 -0.06766,-0.01295 -0.06774,0 -0.07104,-0.0032 -0.07448,0 0,1.066429 0.04061,0 0.04062,0 0.0406,0.0064 0.03388,0 0.04062,0.0064 0.0406,0.0032 0.03388,0.0065 0.03042,0.0097 0.03724,0.0065 0.04062,0.01288 0.03387,0.0097 0.03387,0.0097 0.03724,0.01295 0.03042,0.0097 0.03723,0.01609 0.02705,0.01295 0.03387,0.01617 0.03724,0.01938 0.02705,0.01938 0.03388,0.01617 0.0305,0.01616 0.02368,0.01938 0.03724,0.0226 0.03042,0.0226 0.02712,0.0226 0.03042,0.02267 0.02712,0.01938 0.03042,0.02904 0.02712,0.0226 0.03042,0.02589 0.01693,0.02904 0.03388,0.02589 0.02368,0.02904 0.0203,0.03233 0.02367,0.02582 0.0305,0.02911 0.0203,0.03233 0.02368,0.03226 0.01693,0.03233 0.02368,0.03233 0.01693,0.03555 0.0203,0.02904 0.0203,0.04199 0.01693,0.03233 0.01693,0.03877 0.01685,0.03233 0.01356,0.03233 0.01693,0.03877 0.01693,0.03877 0.0067,0.03877 0.01356,0.03555 0.01356,0.03877 0.01012,0.03555 0.01356,0.04199 0.01012,0.03877 0.0068,0.03877 0.0034,0.04199 0.0067,0.03877 0.0068,0.03877 0,0.04528 0.01012,0.03555 0,0.04521 0,0.03877 0,0.04206 0,0 1.117037,0 0,0 0,0 0,0 6.3e-5,2.61e-4 z"
       id="path100"
       style="fill:#ffffff" />
    <path
       d="m 25.947315,50.422862 0.07111,0 0.06766,-0.0064 0.06774,-0.0064 0.07104,-0.0032 0.06774,-0.0065 0.06093,-0.01288 0.07111,-0.0097 0.06766,-0.0097 0.06093,-0.01295 0.06429,-0.01938 0.07111,-0.01295 0.06092,-0.02582 0.06429,-0.01295 0.06093,-0.0226 0.06437,-0.01938 0.05756,-0.02911 0.06093,-0.02582 0.06429,-0.0226 0.05756,-0.02911 0.05756,-0.02904 0.05755,-0.02911 0.05073,-0.03233 0.05418,-0.03226 0.06092,-0.03877 0.05081,-0.03555 0.05418,-0.03233 0.05073,-0.04199 0.05081,-0.03233 0.05073,-0.0485 0.04744,-0.03555 0.04399,-0.04521 0.05418,-0.04199 0.04062,-0.04528 0.04399,-0.04521 0.04062,-0.04199 0.04399,-0.0485 0.04061,-0.04843 0.04068,-0.05172 0.04062,-0.05172 0.03379,-0.04521 0.03387,-0.05494 0.03388,-0.05494 0.03042,-0.0485 0.0406,-0.05816 0.02712,-0.05172 0.03042,-0.06139 0.02712,-0.05816 0.02705,-0.05494 0.02368,-0.06139 0.02368,-0.05494 0.02375,-0.06139 0.02368,-0.06145 0.01693,-0.06461 0.01693,-0.05816 0.01348,-0.06138 0.01356,-0.05823 0.01693,-0.06782 0.0067,-0.06468 0.0068,-0.06782 0.01012,-0.06468 0.01019,-0.05817 0,-0.07432 0.0067,-0.05817 0,-0.06782 -1.117037,0 0,0.03877 0,0.03877 -0.01012,0.03877 0,0.03877 0,0.03555 -0.0068,0.04199 -0.0067,0.03877 -0.0034,0.03555 -0.01356,0.03555 -0.0034,0.03555 -0.01356,0.03555 -0.01012,0.03548 -0.01356,0.03884 -0.01693,0.03548 -0.01012,0.03555 -0.01693,0.03555 -0.01356,0.03233 -0.01693,0.02904 -0.01693,0.03555 -0.01693,0.03233 -0.01685,0.03233 -0.02375,0.03555 -0.0203,0.02582 -0.01693,0.02911 -0.02368,0.03226 -0.02368,0.02911 -0.02368,0.02904 -0.02368,0.02911 -0.0203,0.0226 -0.0305,0.03233 -0.02368,0.02582 -0.02712,0.02911 -0.02705,0.0226 -0.03042,0.02582 -0.02375,0.02267 -0.0338,0.0226 -0.02712,0.02582 -0.03042,0.01938 -0.03387,0.02589 -0.02705,0.01938 -0.03724,0.01617 -0.02712,0.01938 -0.03379,0.01609 -0.03387,0.01938 -0.03388,0.02267 -0.03723,0.01617 -0.0338,0.01287 -0.03387,0.01617 -0.04061,0.01295 -0.03387,0.01288 -0.03387,0.01617 -0.04061,0.01295 -0.03723,0.0032 -0.04062,0.01295 -0.03042,0.0097 -0.04061,0.0033 -0.0406,0.0097 -0.04062,0.0097 -0.03725,0 -0.03723,0.0097 -0.04406,0 -0.0338,0.0064 -0.04744,0 -0.04061,0 0,1.069647 0,0 -4.3e-5,1.3e-5 z"
       id="path102"
       style="fill:#ffffff" />
    <path
       d="m 22.76211,50.422862 3.185205,0 0,-1.069648 -3.185205,0 0,1.069648 0,0 z"
       id="path104"
       style="fill:#ffffff" />
    <path
       d="m 22.819659,51.162931 0,-2.58205 -1.624786,1.237693 1.624786,1.344357 z"
       id="path106"
       style="fill:#ffffff" />
    <path
       d="m 22.819659,51.162931 0,-2.58205 -1.624786,1.237693 1.624786,1.344357"
       id="path108"
       style="fill:none;stroke:#ffffff;stroke-width:0.01464331" />
    <path
       d="m 34.575477,40.220857 0,2.57554 1.624787,-1.237693 -1.624787,-1.337847 0,0 z"
       id="path110"
       style="fill:#ffffff" />
    <path
       d="m 34.575477,40.220857 0,2.57554 1.624787,-1.237693 -1.624787,-1.337847"
       id="path112"
       style="fill:none;stroke:#ffffff;stroke-width:0.01464331" />
    <path
       d="m 36.834882,55.292865 2.90319,-2.126347 0,-26.489171 -2.90319,2.123128 0,26.49239 z"
       id="path114"
       style="fill:#495b89;fill-opacity:1" />
  </g>
</svg>
