<?xml version="1.0" encoding="UTF-8" standalone="no"?>
<svg
   xmlns:ns="http://creativecommons.org/ns#"
   xmlns:dc="http://purl.org/dc/elements/1.1/"
   xmlns:cc="http://web.resource.org/cc/"
   xmlns:rdf="http://www.w3.org/1999/02/22-rdf-syntax-ns#"
   xmlns:svg="http://www.w3.org/2000/svg"
   xmlns="http://www.w3.org/2000/svg"
   xmlns:xlink="http://www.w3.org/1999/xlink"
   xmlns:sodipodi="http://sodipodi.sourceforge.net/DTD/sodipodi-0.dtd"
   xmlns:inkscape="http://www.inkscape.org/namespaces/inkscape"
   width="40.016354"
   height="59.99538"
   viewBox="4 5 19.575408 26.667946"
   id="svg2"
   version="1.1"
   inkscape:version="0.45.1"
   sodipodi:docname="sip_server.normal.svg"
   sodipodi:version="0.32"
   inkscape:output_extension="org.inkscape.output.svg.inkscape"
   sodipodi:docbase="X:\symbols">
  <title
     id="title5193">SIP server</title>
  <metadata
     id="metadata122">
    <rdf:RDF>
      <ns:Work
         rdf:about="">
        <dc:format>image/svg+xml</dc:format>
        <dc:type
           rdf:resource="http://purl.org/dc/dcmitype/StillImage" />
        <ns:license
           rdf:resource="" />
        <dc:title>SIP server</dc:title>
        <dc:creator>
          <ns:Agent>
            <dc:title>Jeremy Grossmann</dc:title>
          </ns:Agent>
        </dc:creator>
        <dc:publisher>
          <ns:Agent>
            <dc:title>GNS-3</dc:title>
          </ns:Agent>
        </dc:publisher>
        <dc:description>Created for the GNS-3 project
(www.gns3.net)</dc:description>
      </ns:Work>
      <ns:Work
         rdf:about="">
        <dc:format>image/svg+xml</dc:format>
        <dc:type
           rdf:resource="http://purl.org/dc/dcmitype/StillImage" />
      </ns:Work>
      <cc:Work
         rdf:about="">
        <dc:format>image/svg+xml</dc:format>
        <dc:type
           rdf:resource="http://purl.org/dc/dcmitype/StillImage" />
      </cc:Work>
    </rdf:RDF>
  </metadata>
  <defs
     id="defs120">
    <linearGradient
       id="linearGradient5116">
      <stop
         style="stop-color:#6e8caa;stop-opacity:1;"
         offset="0"
         id="stop5118" />
      <stop
         style="stop-color:#6e8caa;stop-opacity:0;"
         offset="1"
         id="stop5120" />
    </linearGradient>
    <inkscape:perspective
       sodipodi:type="inkscape:persp3d"
       inkscape:vp_x="0 : 70.866142 : 1"
       inkscape:vp_y="0 : 1000 : 0"
       inkscape:vp_z="106.29921 : 70.866142 : 1"
       inkscape:persp3d-origin="53.149605 : 47.244095 : 1"
       id="perspective124" />
    <linearGradient
       inkscape:collect="always"
       xlink:href="#linearGradient5116"
       id="linearGradient5122"
       x1="42.174862"
       y1="18.114693"
       x2="13.401131"
       y2="18.114693"
       gradientUnits="userSpaceOnUse"
       gradientTransform="matrix(1.0266399,0,0,1,-0.5486097,0)" />
    <linearGradient
       inkscape:collect="always"
       xlink:href="#linearGradient5116"
       id="linearGradient2257"
       gradientUnits="userSpaceOnUse"
       gradientTransform="matrix(0.76961353,0,0,0.71533288,-11.818463,-7.0704459)"
       x1="42.174862"
       y1="18.114693"
       x2="13.401131"
       y2="18.114693" />
    <linearGradient
       inkscape:collect="always"
       xlink:href="#linearGradient5116"
       id="linearGradient2263"
       gradientUnits="userSpaceOnUse"
       gradientTransform="matrix(0.7696135,0,0,0.7153329,-11.818463,-7.0704459)"
       x1="42.174862"
       y1="18.114693"
       x2="13.401131"
       y2="18.114693" />
    <linearGradient
       inkscape:collect="always"
       xlink:href="#linearGradient5116"
       id="linearGradient2310"
       gradientUnits="userSpaceOnUse"
       gradientTransform="matrix(0.7696135,0,0,0.7153329,-11.818463,-7.0704459)"
       x1="42.174862"
       y1="18.114693"
       x2="13.401131"
       y2="18.114693" />
  </defs>
  <sodipodi:namedview
     pagecolor="#ffffff"
     bordercolor="#666666"
     borderopacity="1"
     objecttolerance="10"
     gridtolerance="10"
     guidetolerance="10"
     inkscape:pageopacity="0"
     inkscape:pageshadow="2"
     inkscape:window-width="960"
     inkscape:window-height="676"
     id="namedview118"
     showgrid="false"
     inkscape:zoom="4.7096454"
     inkscape:cx="35.133296"
     inkscape:cy="35.84544"
     inkscape:window-x="0"
     inkscape:window-y="0"
     inkscape:window-maximized="0"
     inkscape:current-layer="svg2" />
  <rect
     y="31.806076"
     x="4.7503614"
     height="1.1821179"
     width="15.636623"
     id="rect5191"
     style="fill:#000000;fill-opacity:0.39215686" />
  <path
     style="fill:#000000;fill-opacity:0.39215686"
     d="M 20.369026,33.008399 L 23.575408,30.853659 L 23.575408,4.0107609 L 20.369026,6.1622379 L 20.369026,33.008399 z "
     id="path5176" />
  <path
     id="path6"
     d="M 4.0305741,5.7825119 L 4.0305741,32.272861 L 20.396557,32.272861 L 20.396557,5.7825119 L 4.0305741,5.7825119 L 4.0305741,5.7825119 L 4.0305741,5.7825119 z "
     style="fill:#6e8caa;fill-opacity:1" />
  <path
     id="path8"
     d="M 4.0305741,5.7825119 L 4.0305741,32.208267"
     style="fill:none;stroke:#8dcaef;stroke-width:0.01464574" />
  <path
     id="path12"
     d="M 4.0305741,5.8875899 L 6.2902369,3.7646249 L 23.126995,3.7646249 L 20.846476,5.8875899 L 4.0305741,5.8875899 L 4.0305741,5.8875899 L 4.0305741,5.8875899 z "
     style="fill:url(#linearGradient2310);fill-opacity:1" />
  <path
     id="path16"
     d="M 4.9888429,7.3303489 L 12.266003,7.3303489 L 12.266003,10.616589 L 4.9888429,10.616589 L 4.9888429,7.3303489 L 4.9888429,7.3303489 z "
     style="fill:#009bdf" />
  <path
     id="path18"
     d="M 4.9888429,7.3303489 L 12.266003,7.3303489 L 12.266003,10.616589 L 4.9888429,10.616589 L 4.9888429,7.3303489 L 4.9888429,7.3303489 z "
     style="fill:#6e8296;fill-opacity:1" />
  <path
     id="path20"
     d="M 12.367655,7.3303489 L 12.266003,7.2333489 L 4.9888429,7.2333489 L 4.9888429,7.4304949 L 12.266003,7.4304949 L 12.367655,7.3303479 L 12.367655,7.3303479 L 12.367655,7.2333479 L 12.266003,7.2333479 L 12.367655,7.3303479 L 12.367655,7.3303489 z "
     style="fill:#00688f" />
  <path
     id="path22"
     d="M 12.266003,10.707078 L 12.367655,10.616588 L 12.367655,7.3303479 L 12.1678,7.3303479 L 12.1678,10.616588 L 12.266,10.707078 L 12.266,10.707078 L 12.367652,10.707078 L 12.367652,10.616588 L 12.266,10.707078 L 12.266003,10.707078 z "
     style="fill:#00688f" />
  <path
     id="path24"
     d="M 4.8906396,10.616589 L 4.9888426,10.707079 L 12.266003,10.707079 L 12.266003,10.519662 L 4.9888426,10.519662 L 4.8906396,10.616592 L 4.8906396,10.616592 L 4.8906396,10.707082 L 4.9888426,10.707082 L 4.8906396,10.616592 L 4.8906396,10.616589 z "
     style="fill:#00688f" />
  <path
     id="path26"
     d="M 4.9888429,7.2333499 L 4.8906399,7.3303499 L 4.8906399,10.61659 L 5.0870464,10.61659 L 5.0870464,7.3303499 L 4.9888434,7.2333499 L 4.9888434,7.2333499 L 4.8906404,7.2333499 L 4.8906404,7.3303499 L 4.9888434,7.2333499 L 4.9888429,7.2333499 z "
     style="fill:#00688f" />
  <path
     id="path30"
     d="M 11.057129,9.1982769 L 6.2045399,9.1982769 L 6.2045399,8.7453709 L 11.057129,8.7453709 L 11.057129,9.1982769 z "
     style="fill:#000000;fill-opacity:1" />
  <path
     id="path34"
     d="M 4.335304,30.288814 L 4.1355241,30.288814 L 4.1355241,30.676596 L 4.335304,30.676596 L 4.335304,30.288814 z "
     style="fill:#e6e9e9" />
  <path
     id="path36"
     d="M 20.081632,30.288814 L 4.335304,30.288814 L 4.335304,30.676596 L 20.081632,30.676596 L 20.081632,30.288814 z "
     style="fill:#e6e9e9" />
  <path
     id="path38"
     d="M 20.081632,30.676596 L 20.284786,30.676596 L 20.284786,30.288814 L 20.081632,30.288814 L 20.081632,30.676596 z "
     style="fill:#e6e9e9" />
  <path
     id="path40"
     d="M 4.335304,16.145325 L 4.1355241,16.145325 L 4.1355241,16.526669 L 4.335304,16.526669 L 4.335304,16.145325 z "
     style="fill:#e6e9e9" />
  <path
     id="path42"
     d="M 20.105321,16.145325 L 4.335304,16.145325 L 4.335304,16.526669 L 20.105321,16.526669 L 20.105321,16.145325 z "
     style="fill:#e6e9e9" />
  <path
     id="path44"
     d="M 20.105321,16.526669 L 20.305101,16.526669 L 20.305101,16.145325 L 20.105321,16.145325 L 20.105321,16.526669 z "
     style="fill:#e6e9e9" />
  <path
     id="path46"
     d="M 4.2337274,30.169282 L 4.0305741,30.169282 L 4.0305741,30.557064 L 4.2337274,30.557064 L 4.2337274,30.169282 z "
     style="fill:#00688f" />
  <path
     id="path48"
     d="M 20.179836,30.169282 L 4.2337274,30.169282 L 4.2337274,30.557064 L 20.179836,30.557064 L 20.179836,30.169282 z "
     style="fill:#00688f" />
  <path
     id="path50"
     d="M 20.179836,30.557064 L 20.379616,30.557064 L 20.379616,30.169282 L 20.179836,30.169282 L 20.179836,30.557064 z "
     style="fill:#00688f" />
  <path
     id="path52"
     d="M 4.2607895,16.022573 L 4.0542628,16.022573 L 4.0542628,16.407065 L 4.2607895,16.407065 L 4.2607895,16.022573 z "
     style="fill:#00688f" />
  <path
     id="path54"
     d="M 20.230587,16.022573 L 4.2607895,16.022573 L 4.2607895,16.407065 L 20.230587,16.407065 L 20.230587,16.022573 z "
     style="fill:#00688f" />
  <path
     id="path56"
     d="M 20.230587,16.407065 L 20.433814,16.407065 L 20.433814,16.022573 L 20.230587,16.022573 L 20.230587,16.407065 z "
     style="fill:#00688f" />
  <path
     id="path66"
     d="M 14.179317,27.68114 L 13.01782,27.68114 L 13.01782,22.368863 L 14.179317,22.368863 L 14.179317,27.68114 z "
     style="fill:#1f1a17" />
  <path
     id="path68"
     d="M 16.427796,27.68114 L 15.262926,27.68114 L 15.262926,22.368863 L 17.809389,22.368863 L 17.904219,22.368863 L 17.999049,22.372063 L 18.100626,22.385013 L 18.192076,22.401173 L 18.276706,22.417343 L 18.364786,22.433513 L 18.449416,22.459333 L 18.530676,22.488443 L 18.608566,22.514263 L 18.683086,22.553033 L 18.757526,22.591803 L 18.828666,22.630573 L 18.889616,22.675853 L 18.953936,22.724283 L 19.014956,22.772783 L 19.075906,22.827723 L 19.126656,22.882663 L 19.177486,22.944043 L 19.224866,23.008643 L 19.268876,23.073313 L 19.309586,23.141133 L 19.350226,23.212243 L 19.384036,23.286563 L 19.411166,23.364103 L 19.438226,23.441643 L 19.465286,23.522473 L 19.482226,23.612893 L 19.502536,23.700163 L 19.516106,23.787433 L 19.522806,23.881143 L 19.532996,23.971633 L 19.532996,24.07178 L 19.532996,24.11377 L 19.522806,24.1687 L 19.522806,24.22364 L 19.516106,24.27858 L 19.509406,24.33996 L 19.499216,24.40463 L 19.482276,24.47245 L 19.465336,24.53712 L 19.448476,24.60816 L 19.424716,24.67283 L 19.394286,24.74394 L 19.367156,24.81505 L 19.333356,24.8893 L 19.292716,24.96041 L 19.252076,25.03152 L 19.204616,25.09619 L 19.153866,25.15757 L 19.099666,25.22868 L 19.038716,25.29328 L 18.974396,25.35466 L 18.906626,25.4096 L 18.832116,25.46454 L 18.754226,25.51626 L 18.666216,25.56798 L 18.574766,25.60997 L 18.479936,25.64874 L 18.374986,25.68107 L 18.266662,25.70689 L 18.144696,25.73271 L 18.026177,25.75209 L 17.894165,25.75859 L 17.762078,25.76499 L 16.427862,25.76499 L 16.427862,27.681152 L 17.504725,24.850508 L 17.585985,24.844108 L 17.660495,24.834408 L 17.728185,24.834408 L 17.785765,24.818238 L 17.846715,24.805288 L 17.904295,24.789128 L 17.958495,24.772958 L 17.999125,24.750358 L 18.049875,24.727758 L 18.083755,24.701868 L 18.124385,24.672828 L 18.158275,24.647008 L 18.192155,24.617898 L 18.219215,24.582348 L 18.236155,24.553308 L 18.259845,24.520978 L 18.283535,24.488648 L 18.297105,24.456318 L 18.310675,24.414328 L 18.324165,24.385288 L 18.334355,24.349738 L 18.347925,24.314188 L 18.351325,24.278638 L 18.358025,24.246308 L 18.364825,24.181708 L 18.368225,24.120258 L 18.368225,24.065398 L 18.368225,24.016898 L 18.368225,23.971688 L 18.368225,23.923188 L 18.364825,23.881198 L 18.358025,23.835918 L 18.347905,23.797148 L 18.337715,23.758378 L 18.331015,23.719608 L 18.310705,23.684058 L 18.293765,23.648508 L 18.276825,23.622688 L 18.259885,23.590358 L 18.236195,23.558098 L 18.212505,23.528988 L 18.185375,23.503168 L 18.158315,23.480498 L 18.127805,23.457898 L 18.100745,23.435298 L 18.066865,23.412698 L 18.026225,23.396528 L 17.992415,23.380358 L 17.951705,23.364188 L 17.904325,23.354488 L 17.860315,23.338318 L 17.812855,23.325368 L 17.762105,23.315668 L 17.711275,23.309168 L 17.660525,23.299468 L 17.602955,23.292968 L 17.545375,23.292968 L 17.481055,23.286568 L 17.416655,23.286568 L 17.348965,23.283368 L 16.427878,23.283368 L 16.427878,24.850518 L 17.504741,24.850518 L 16.427878,27.681162 L 16.427796,27.68114 z "
     style="fill:#1f1a17" />
  <path
     id="path70"
     d="M 7.8943096,19.344364 L 18.317347,19.344364 L 18.317347,18.274799 L 7.8943096,18.274799 L 7.8943096,19.344364 L 7.8943096,19.344364 L 7.8943096,19.344364 z "
     style="fill:#000000" />
  <path
     id="path72"
     d="M 6.3027424,20.859869 L 6.3027424,20.859869 L 6.3027424,20.824319 L 6.3027424,20.779039 L 6.3061124,20.740269 L 6.3061124,20.701499 L 6.3129324,20.669239 L 6.3163024,20.627179 L 6.3230524,20.591629 L 6.3298024,20.556149 L 6.3399974,20.517309 L 6.3535664,20.481829 L 6.3569364,20.446279 L 6.3705054,20.410729 L 6.3806254,20.375179 L 6.3975674,20.339629 L 6.4111364,20.304079 L 6.4212564,20.268529 L 6.4381984,20.236199 L 6.4551404,20.203939 L 6.4720824,20.171609 L 6.4855764,20.139279 L 6.5058924,20.103729 L 6.5262084,20.071469 L 6.5533454,20.045579 L 6.5702874,20.013319 L 6.5939764,19.980989 L 6.6142924,19.951879 L 6.6379814,19.926059 L 6.6616704,19.890509 L 6.6854334,19.864689 L 6.7124954,19.842019 L 6.7361844,19.816199 L 6.7666944,19.787159 L 6.7937564,19.761269 L 6.8242664,19.732229 L 6.8513284,19.709559 L 6.8783904,19.690179 L 6.9089004,19.667579 L 6.9359624,19.638539 L 6.9732194,19.619159 L 7.0003564,19.602989 L 7.0341654,19.580389 L 7.0646754,19.564219 L 7.0985594,19.541549 L 7.1323684,19.525459 L 7.1628784,19.509289 L 7.2001354,19.493119 L 7.2339444,19.476959 L 7.2712014,19.457579 L 7.3050854,19.447879 L 7.3457164,19.431789 L 7.3762264,19.422089 L 7.4168574,19.409139 L 7.4574874,19.399439 L 7.4947444,19.386489 L 7.5285534,19.376789 L 7.5691844,19.370289 L 7.6064414,19.367089 L 7.6470724,19.360689 L 7.6877024,19.350989 L 7.7284084,19.350989 L 7.7690384,19.350989 L 7.8096694,19.344589 L 7.8469264,19.344589 L 7.8943034,19.344589 L 7.8943034,18.275024 L 7.8197894,18.275024 L 7.7554694,18.281424 L 7.6809554,18.281424 L 7.6200094,18.287924 L 7.5421214,18.297624 L 7.4811754,18.304024 L 7.4134824,18.313724 L 7.3490874,18.329894 L 7.2813954,18.342844 L 7.2136274,18.352544 L 7.1493074,18.375144 L 7.0849874,18.391304 L 7.0240414,18.413904 L 6.9596474,18.433284 L 6.9021494,18.455954 L 6.8411284,18.478554 L 6.7768084,18.501154 L 6.7192354,18.533484 L 6.6616624,18.559304 L 6.6007164,18.588414 L 6.5465174,18.620674 L 6.4855714,18.649784 L 6.4314474,18.682114 L 6.3772484,18.720884 L 6.3230494,18.753144 L 6.2722984,18.791984 L 6.2214724,18.827464 L 6.1706464,18.866234 L 6.1232694,18.905074 L 6.0724434,18.950284 L 6.0216924,18.989054 L 5.9742404,19.031044 L 5.9302364,19.079544 L 5.8896064,19.118314 L 5.8422284,19.170034 L 5.8015984,19.218464 L 5.7609674,19.260454 L 5.7237104,19.315394 L 5.6796314,19.367114 L 5.6491964,19.415614 L 5.6119394,19.470554 L 5.5780554,19.518984 L 5.5441714,19.573914 L 5.5103624,19.628854 L 5.4832254,19.683794 L 5.4527904,19.738734 L 5.4256534,19.800114 L 5.3952184,19.855054 L 5.3715294,19.913214 L 5.3512134,19.974664 L 5.3274504,20.032824 L 5.3003884,20.094204 L 5.2868194,20.155584 L 5.2699524,20.220254 L 5.2530104,20.281634 L 5.2394414,20.339794 L 5.2224994,20.407684 L 5.2123794,20.472284 L 5.2055594,20.533664 L 5.2021894,20.598334 L 5.1954394,20.662934 L 5.1886194,20.730824 L 5.1852494,20.795424 L 5.1852494,20.860094 L 5.1852494,20.860094 L 6.3027424,20.860094 L 6.3027424,20.860094 L 6.3027424,20.860094 L 6.3027424,20.860094 L 6.3027424,20.859869 z "
     style="fill:#000000" />
  <path
     id="path74"
     d="M 7.9857661,22.30105 L 7.9383141,22.30105 L 7.9010571,22.30105 L 7.8536801,22.29775 L 7.8130491,22.29775 L 7.7724181,22.29135 L 7.7351611,22.28495 L 7.6877081,22.28165 L 7.6470781,22.27525 L 7.6064471,22.2623 L 7.5691901,22.2591 L 7.5285591,22.24622 L 7.4879281,22.23652 L 7.4472971,22.23012 L 7.4066661,22.21395 L 7.3660351,22.20425 L 7.3321511,22.18816 L 7.2881471,22.17521 L 7.2475161,22.15904 L 7.2170811,22.14287 L 7.1831971,22.1267 L 7.1493131,22.11053 L 7.1086831,22.09444 L 7.0747991,22.07177 L 7.0375421,22.0556 L 7.0071071,22.033 L 6.9732231,22.0104 L 6.9427881,21.99102 L 6.9089041,21.96842 L 6.8783941,21.94582 L 6.8445851,21.92315 L 6.8174481,21.90377 L 6.7836391,21.87473 L 6.7598761,21.85213 L 6.7294411,21.82624 L 6.7091251,21.7972 L 6.6854371,21.77782 L 6.6549271,21.74227 L 6.6346111,21.72289 L 6.6041011,21.69378 L 6.5804121,21.66145 L 6.5600961,21.63241 L 6.5431541,21.60659 L 6.5194651,21.5807 L 6.5025231,21.54515 L 6.4788341,21.51289 L 6.4618921,21.487 L 6.4415761,21.45796 L 6.4280071,21.41919 L 6.4145131,21.38686 L 6.4009441,21.36097 L 6.3873751,21.32871 L 6.3772551,21.29316 L 6.3603131,21.25761 L 6.3535631,21.22206 L 6.3399941,21.18973 L 6.3366241,21.15747 L 6.3230551,21.11863 L 6.3163051,21.08637 L 6.3129351,21.0476 L 6.3061151,21.01527 L 6.3061151,20.9765 L 6.3027451,20.93773 L 6.3027451,20.89896 L 6.3027451,20.86019 L 5.1852521,20.86019 L 5.1852521,20.92801 L 5.1886221,20.99912 L 5.1954421,21.06379 L 5.2021921,21.13161 L 5.2055621,21.19628 L 5.2157571,21.26088 L 5.2292511,21.32877 L 5.2461931,21.38693 L 5.2563881,21.45475 L 5.2800771,21.51298 L 5.2970191,21.5808 L 5.3207081,21.63896 L 5.3410241,21.70034 L 5.3681611,21.75857 L 5.3952231,21.81995 L 5.4256581,21.87489 L 5.4527951,21.92983 L 5.4832301,21.99121 L 5.5103671,22.04615 L 5.5441761,22.10109 L 5.5780601,22.15603 L 5.6186911,22.20445 L 5.6525751,22.25295 L 5.6932061,22.30789 L 5.7338361,22.35632 L 5.7744671,22.40804 L 5.8184711,22.45003 L 5.8591011,22.49531 L 5.9065541,22.54373 L 5.9505581,22.58579 L 6.0047571,22.631 L 6.0487611,22.67628 L 6.0962141,22.71176 L 6.1469651,22.75053 L 6.1977911,22.78937 L 6.2485421,22.82814 L 6.3027411,22.86691 L 6.3535671,22.89917 L 6.4111401,22.93794 L 6.4686381,22.97027 L 6.5262111,22.99938 L 6.5770371,23.0252 L 6.6346101,23.05753 L 6.6955561,23.08657 L 6.7531291,23.11246 L 6.8174491,23.1415 L 6.8750221,23.16088 L 6.9359681,23.18355 L 7.0003631,23.20615 L 7.0578611,23.22875 L 7.1188821,23.24492 L 7.1899491,23.26752 L 7.2475221,23.28369 L 7.3152901,23.29339 L 7.3762361,23.30956 L 7.4473021,23.32251 L 7.5150701,23.33221 L 7.5793901,23.34191 L 7.6470831,23.35486 L 7.7148501,23.36126 L 7.7791701,23.36446 L 7.8469381,23.36446 L 7.9180051,23.37096 L 7.9857731,23.37096 L 7.9857731,22.301394 L 7.9857731,22.301394 L 7.9857661,22.30105 z "
     style="fill:#000000" />
  <path
     id="path76"
     d="M 9.7262874,22.30105 L 7.9857661,22.30105 L 7.9857661,23.370616 L 9.7262874,23.370616 L 9.7262874,22.30105 L 9.7262874,22.30105 z "
     style="fill:#000000" />
  <path
     id="path78"
     d="M 12.340517,25.002433 L 12.340517,25.002433 L 12.340517,24.934543 L 12.333817,24.869873 L 12.333817,24.805273 L 12.327017,24.743893 L 12.323617,24.679223 L 12.313497,24.611403 L 12.299927,24.553243 L 12.286357,24.488573 L 12.279657,24.427193 L 12.266087,24.359303 L 12.249147,24.301153 L 12.232287,24.239773 L 12.215347,24.181613 L 12.191657,24.120163 L 12.174717,24.062013 L 12.150957,24.000633 L 12.130647,23.939253 L 12.100217,23.884313 L 12.073157,23.826153 L 12.049397,23.764773 L 12.018967,23.709833 L 11.985087,23.654893 L 11.958027,23.599953 L 11.924147,23.545013 L 11.893637,23.496513 L 11.859837,23.441573 L 11.819197,23.393143 L 11.785317,23.338203 L 11.744677,23.286483 L 11.704047,23.237983 L 11.663417,23.189553 L 11.619337,23.141053 L 11.578697,23.095843 L 11.534687,23.053853 L 11.487307,23.008573 L 11.436477,22.963363 L 11.389097,22.921373 L 11.345017,22.876093 L 11.290887,22.837323 L 11.240057,22.801773 L 11.185857,22.763003 L 11.138477,22.730673 L 11.080897,22.691903 L 11.023327,22.659643 L 10.972577,22.624093 L 10.908177,22.591763 L 10.847227,22.565943 L 10.793027,22.536833 L 10.732077,22.504503 L 10.674497,22.481903 L 10.610177,22.459303 L 10.545857,22.433483 L 10.478087,22.417313 L 10.417137,22.394713 L 10.352817,22.378543 L 10.285127,22.362373 L 10.210617,22.352673 L 10.146297,22.333293 L 10.078527,22.330093 L 10.014207,22.317143 L 9.939693,22.313943 L 9.872,22.307543 L 9.800859,22.301143 L 9.726345,22.301143 L 9.726345,23.370708 L 9.766976,23.370708 L 9.807606,23.370708 L 9.848237,23.377108 L 9.888868,23.377108 L 9.922752,23.380308 L 9.963382,23.386708 L 9.997266,23.396408 L 10.037896,23.402808 L 10.064956,23.409308 L 10.105586,23.419008 L 10.139466,23.431958 L 10.169976,23.441658 L 10.210616,23.451358 L 10.244496,23.467528 L 10.278296,23.480408 L 10.305426,23.496578 L 10.339226,23.512748 L 10.376486,23.528918 L 10.403616,23.545088 L 10.437426,23.561258 L 10.464556,23.583858 L 10.494986,23.600028 L 10.528866,23.622628 L 10.559376,23.645228 L 10.586436,23.664608 L 10.616866,23.687208 L 10.643996,23.716318 L 10.674426,23.735698 L 10.701556,23.764808 L 10.731986,23.790628 L 10.752296,23.819668 L 10.782806,23.845558 L 10.803116,23.874598 L 10.833546,23.900488 L 10.847116,23.929528 L 10.880996,23.961858 L 10.901306,23.994188 L 10.924996,24.023228 L 10.941936,24.055558 L 10.965626,24.087888 L 10.982566,24.126658 L 11.006256,24.152478 L 11.023196,24.191248 L 11.040136,24.223578 L 11.057076,24.262348 L 11.074016,24.294678 L 11.090956,24.333448 L 11.107816,24.368998 L 11.121386,24.404548 L 11.131576,24.440098 L 11.141696,24.482088 L 11.155266,24.520858 L 11.165386,24.559628 L 11.178956,24.601618 L 11.185656,24.637168 L 11.195846,24.672718 L 11.199246,24.717928 L 11.205946,24.753478 L 11.212746,24.795468 L 11.216146,24.834308 L 11.222846,24.882728 L 11.222846,24.921498 L 11.222846,24.960268 L 11.222846,25.002328 L 11.222846,25.002328 L 12.340338,25.002328 L 12.340338,25.002328 L 12.340338,25.002328 L 12.340338,25.002328 L 12.340517,25.002433 z "
     style="fill:#000000" />
  <path
     id="path80"
     d="M 9.634906,27.587431 L 9.702598,27.587431 L 9.773739,27.581031 L 9.841432,27.577831 L 9.912573,27.571331 L 9.980266,27.564931 L 10.041212,27.555231 L 10.112352,27.548731 L 10.180042,27.532561 L 10.244432,27.519681 L 10.312122,27.506731 L 10.376442,27.490561 L 10.437392,27.474391 L 10.501792,27.451791 L 10.566112,27.429191 L 10.627062,27.403301 L 10.691382,27.387211 L 10.748952,27.358101 L 10.809902,27.329061 L 10.867482,27.303171 L 10.925052,27.277351 L 10.982632,27.248241 L 11.033462,27.209471 L 11.091042,27.177141 L 11.148612,27.144881 L 11.199362,27.112551 L 11.253562,27.073781 L 11.304312,27.035011 L 11.351772,26.996241 L 11.405972,26.954251 L 11.453352,26.915411 L 11.504182,26.873421 L 11.551562,26.831431 L 11.595572,26.782931 L 11.636212,26.740941 L 11.683672,26.692521 L 11.720932,26.647241 L 11.761562,26.595521 L 11.802202,26.547091 L 11.842832,26.498591 L 11.876712,26.450161 L 11.917342,26.395221 L 11.944402,26.340281 L 11.981662,26.288561 L 12.015542,26.236841 L 12.042602,26.181901 L 12.073122,26.126961 L 12.100182,26.065581 L 12.130612,26.010641 L 12.150922,25.949271 L 12.174682,25.891111 L 12.198372,25.829731 L 12.222062,25.768281 L 12.239002,25.706901 L 12.255942,25.642301 L 12.272882,25.580851 L 12.283002,25.522691 L 12.299942,25.458091 L 12.313512,25.390201 L 12.316912,25.328821 L 12.323612,25.264151 L 12.327012,25.199551 L 12.333812,25.134951 L 12.340512,25.067061 L 12.340512,25.002461 L 11.22302,25.002461 L 11.22302,25.041231 L 11.22302,25.086441 L 11.21632,25.121991 L 11.21632,25.157541 L 11.21292,25.193091 L 11.20612,25.238301 L 11.19942,25.270631 L 11.19602,25.309401 L 11.18245,25.348171 L 11.17905,25.383721 L 11.16548,25.419271 L 11.15536,25.458041 L 11.14179,25.490371 L 11.12485,25.522631 L 11.11473,25.561401 L 11.10116,25.593731 L 11.08759,25.626061 L 11.06728,25.661611 L 11.05042,25.693871 L 11.03348,25.722981 L 11.01317,25.758531 L 10.99286,25.787571 L 10.97255,25.819901 L 10.95561,25.852231 L 10.92848,25.884561 L 10.90817,25.913601 L 10.88448,25.939421 L 10.86417,25.965311 L 10.84048,26.000861 L 10.80997,26.020241 L 10.78966,26.046061 L 10.75923,26.075171 L 10.7321,26.104211 L 10.70166,26.126811 L 10.67453,26.152701 L 10.6441,26.175301 L 10.61697,26.197901 L 10.58654,26.217281 L 10.54928,26.239881 L 10.52559,26.262551 L 10.49171,26.285151 L 10.46128,26.298101 L 10.42402,26.317481 L 10.39351,26.340081 L 10.35963,26.352961 L 10.32237,26.369131 L 10.28857,26.388511 L 10.25131,26.398211 L 10.21067,26.417591 L 10.18016,26.427291 L 10.14635,26.440241 L 10.10564,26.449941 L 10.07184,26.466101 L 10.03796,26.475801 L 9.997329,26.482201 L 9.956699,26.491901 L 9.912695,26.498301 L 9.882185,26.504801 L 9.838181,26.508001 L 9.800924,26.514401 L 9.763667,26.514401 L 9.723036,26.520801 L 9.675659,26.520801 L 9.635028,26.520801 L 9.635028,27.587148 L 9.635028,27.587148 L 9.634906,27.587431 z "
     style="fill:#000000" />
  <path
     id="path82"
     d="M 6.4517714,27.587431 L 9.634906,27.587431 L 9.634906,26.521084 L 6.4517714,26.521084 L 6.4517714,27.587431 L 6.4517714,27.587431 L 6.4517714,27.587431 z "
     style="fill:#000000" />
  <path
     id="path84"
     d="M 6.5058956,28.327443 L 6.5058956,25.748811 L 4.877146,26.986409 L 6.5058956,28.327443 z "
     style="fill:#000000" />
  <path
     id="path86"
     d="M 18.266596,17.389432 L 18.266596,19.967992 L 19.895346,18.723957 L 18.266596,17.389432 z "
     style="fill:#000000" />
  <path
     id="path88"
     d="M 13.935458,27.490504 L 12.777335,27.490504 L 12.777335,22.181446 L 13.935458,22.181446 L 13.935458,27.490504 z "
     style="fill:#ffffff" />
  <path
     id="path90"
     d="M 16.177191,27.490504 L 15.015694,27.490504 L 15.015694,22.181446 L 17.565605,22.181446 L 17.660435,22.181446 L 17.762012,22.187946 L 17.853392,22.197646 L 17.951592,22.207346 L 18.036302,22.229946 L 18.124312,22.246116 L 18.209022,22.275156 L 18.290282,22.301046 L 18.368172,22.330086 L 18.442612,22.368856 L 18.513752,22.401186 L 18.588262,22.443176 L 18.649212,22.488456 L 18.713532,22.536886 L 18.777932,22.585386 L 18.832062,22.640326 L 18.886262,22.695266 L 18.937092,22.756646 L 18.981102,22.821246 L 19.028482,22.882696 L 19.069122,22.953736 L 19.109752,23.024846 L 19.143632,23.102386 L 19.170692,23.179926 L 19.201202,23.254246 L 19.224892,23.338296 L 19.245202,23.425496 L 19.262142,23.506326 L 19.275712,23.600036 L 19.285832,23.693746 L 19.292632,23.787456 L 19.292632,23.881166 L 19.292632,23.929586 L 19.285832,23.984516 L 19.285832,24.033016 L 19.275712,24.091176 L 19.268912,24.152556 L 19.258792,24.220446 L 19.241852,24.278606 L 19.224912,24.349716 L 19.204602,24.414316 L 19.184292,24.488636 L 19.153862,24.559746 L 19.126732,24.630856 L 19.092922,24.701886 L 19.052222,24.772996 L 19.011592,24.844106 L 18.964212,24.905486 L 18.913382,24.976596 L 18.862632,25.041266 L 18.798312,25.105866 L 18.737292,25.167246 L 18.666222,25.228696 L 18.591712,25.283566 L 18.513822,25.328846 L 18.422372,25.380566 L 18.334362,25.425776 L 18.236162,25.464546 L 18.134585,25.496876 L 18.026187,25.522696 L 17.904295,25.545296 L 17.785777,25.561466 L 17.653689,25.571166 L 17.521677,25.577566 L 16.177267,25.577566 L 16.177267,27.490509 L 17.264325,24.656646 L 17.342135,24.656646 L 17.416645,24.653446 L 17.487785,24.640496 L 17.548735,24.630796 L 17.606305,24.617846 L 17.660505,24.601676 L 17.714635,24.582296 L 17.762095,24.562916 L 17.809475,24.537096 L 17.846735,24.511206 L 17.883985,24.488606 L 17.914495,24.459566 L 17.951685,24.427236 L 17.975445,24.401346 L 17.999135,24.365866 L 18.019445,24.333536 L 18.043135,24.301206 L 18.060075,24.262436 L 18.070265,24.230106 L 18.083755,24.197846 L 18.093945,24.159076 L 18.107435,24.126746 L 18.110835,24.091196 L 18.117535,24.062086 L 18.124235,23.994266 L 18.127635,23.936106 L 18.127635,23.881166 L 18.127635,23.829446 L 18.127635,23.780946 L 18.127635,23.735736 L 18.124235,23.693746 L 18.117535,23.648466 L 18.107345,23.612916 L 18.100645,23.574146 L 18.083705,23.535376 L 18.070215,23.496606 L 18.053275,23.464346 L 18.036335,23.432016 L 18.019395,23.396466 L 17.995705,23.370646 L 17.975395,23.341536 L 17.944885,23.315716 L 17.921195,23.293046 L 17.887315,23.270446 L 17.860255,23.251066 L 17.826375,23.228466 L 17.785745,23.212296 L 17.751865,23.196126 L 17.701115,23.179956 L 17.660495,23.160576 L 17.616415,23.150876 L 17.572405,23.141176 L 17.521655,23.128296 L 17.470825,23.124996 L 17.416625,23.112116 L 17.362495,23.108916 L 17.298095,23.102416 L 17.237145,23.102416 L 17.172825,23.102416 L 17.108505,23.096016 L 16.177224,23.096016 L 16.177224,24.656729 L 17.264282,24.656729 L 16.177224,27.490592 L 16.177224,27.490592 L 16.177191,27.490504 z "
     style="fill:#ffffff" />
  <path
     id="path92"
     d="M 7.6470774,19.153728 L 18.076937,19.153728 L 18.076937,18.090601 L 7.6470774,18.090601 L 7.6470774,19.153728 L 7.6470774,19.153728 z "
     style="fill:#ffffff" />
  <path
     id="path94"
     d="M 6.0589584,20.67567 L 6.0589584,20.67567 L 6.0589584,20.63039 L 6.0589584,20.59162 L 6.0623284,20.55614 L 6.0623284,20.5173 L 6.0724484,20.47853 L 6.0792684,20.43976 L 6.0826384,20.4075 L 6.0893884,20.36873 L 6.0995834,20.32989 L 6.1130774,20.29112 L 6.1165274,20.25886 L 6.1300214,20.22009 L 6.1402164,20.18776 L 6.1537104,20.14899 L 6.1706524,20.11666 L 6.1808474,20.08433 L 6.1977894,20.05207 L 6.2147314,20.01652 L 6.2315984,19.98097 L 6.2485404,19.95186 L 6.2654824,19.9196 L 6.2891714,19.88727 L 6.3061134,19.85494 L 6.3298024,19.8259 L 6.3535654,19.79357 L 6.3772534,19.76446 L 6.3975694,19.7322 L 6.4212584,19.70631 L 6.4415744,19.67727 L 6.4720844,19.65138 L 6.4957724,19.62234 L 6.5262074,19.59645 L 6.5533444,19.57385 L 6.5804064,19.54803 L 6.6109164,19.52543 L 6.6379784,19.49632 L 6.6684884,19.47694 L 6.6955514,19.45434 L 6.7294354,19.43174 L 6.7598704,19.41557 L 6.7937544,19.39297 L 6.8242644,19.3703 L 6.8580734,19.35413 L 6.8919574,19.33804 L 6.9258414,19.31537 L 6.9596504,19.30567 L 6.9935344,19.28951 L 7.0274184,19.27334 L 7.0646754,19.26039 L 7.0985594,19.2443 L 7.1391904,19.2346 L 7.1763724,19.2249 L 7.2170784,19.21195 L 7.2475134,19.20225 L 7.2881444,19.18938 L 7.3254014,19.18618 L 7.3660314,19.17968 L 7.4066624,19.17328 L 7.4472924,19.16358 L 7.4879234,19.16358 L 7.5285534,19.15718 L 7.5691844,19.15718 L 7.6064414,19.15718 L 7.6470724,19.15398 L 7.6470724,18.090852 L 7.5861264,18.090852 L 7.5116874,18.090852 L 7.4405464,18.094052 L 7.3727784,18.100552 L 7.3084584,18.106952 L 7.2407654,18.116652 L 7.1729974,18.126352 L 7.1019314,18.139302 L 7.0375364,18.155472 L 6.9732164,18.165172 L 6.9088964,18.187772 L 6.8445764,18.203932 L 6.7801814,18.220102 L 6.7192354,18.242702 L 6.6616624,18.265302 L 6.6007164,18.291192 L 6.5363964,18.313792 L 6.4788234,18.342902 L 6.4212504,18.368722 L 6.3569304,18.401052 L 6.3027314,18.433312 L 6.2451584,18.462422 L 6.1875854,18.494752 L 6.1333864,18.527012 L 6.0826354,18.565782 L 6.0318094,18.604622 L 5.9776854,18.636882 L 5.9302324,18.682162 L 5.8760334,18.720932 L 5.8320294,18.756482 L 5.7846524,18.801692 L 5.7338264,18.846902 L 5.6931964,18.888962 L 5.6491924,18.934172 L 5.5983664,18.982672 L 5.5611094,19.031102 L 5.5204794,19.076382 L 5.4832224,19.124802 L 5.4425914,19.179742 L 5.4087824,19.228242 L 5.3715254,19.276672 L 5.3376414,19.331612 L 5.3003844,19.386552 L 5.2699494,19.441482 L 5.2394394,19.496422 L 5.2123774,19.551362 L 5.1852404,19.606302 L 5.1548054,19.667682 L 5.1310424,19.729062 L 5.1107264,19.780782 L 5.0870374,19.848672 L 5.0633484,19.903612 L 5.0464064,19.968212 L 5.0294644,20.029592 L 5.0125224,20.094262 L 4.9990284,20.155642 L 4.9820864,20.220312 L 4.9718914,20.281692 L 4.9617714,20.346292 L 4.9550214,20.410962 L 4.9482014,20.478782 L 4.9482014,20.543452 L 4.9414514,20.608052 L 4.9414514,20.675942 L 4.9414514,20.675942 L 6.0589444,20.675942 L 6.0589444,20.675942 L 6.0589444,20.675942 L 6.0589444,20.675942 L 6.0589584,20.67567 z "
     style="fill:#ffffff" />
  <path
     id="path96"
     d="M 7.7452806,22.116852 L 7.6979036,22.116852 L 7.6606466,22.116852 L 7.6132696,22.110352 L 7.5726386,22.110352 L 7.5320086,22.103952 L 7.4879296,22.100752 L 7.4472986,22.094352 L 7.4066686,22.087852 L 7.3660376,22.078152 L 7.3254066,22.071652 L 7.2881496,22.061952 L 7.2475186,22.049002 L 7.2035146,22.039302 L 7.1628846,22.029602 L 7.1222536,22.010222 L 7.0917436,22.000522 L 7.0511126,21.990822 L 7.0104826,21.974662 L 6.9765986,21.958492 L 6.9427896,21.939112 L 6.9089056,21.922942 L 6.8649016,21.906852 L 6.8343916,21.884182 L 6.8005076,21.864802 L 6.7666986,21.848632 L 6.7361886,21.826032 L 6.6989316,21.803432 L 6.6684966,21.780832 L 6.6379866,21.758232 L 6.6109246,21.738852 L 6.5770406,21.716172 L 6.5465306,21.687132 L 6.5194686,21.661242 L 6.4855846,21.638642 L 6.4686426,21.612822 L 6.4382076,21.590222 L 6.4145186,21.557892 L 6.3942036,21.528782 L 6.3603196,21.502962 L 6.3400036,21.473852 L 6.3163146,21.448032 L 6.2959986,21.418992 L 6.2756826,21.386662 L 6.2621136,21.360772 L 6.2451716,21.328512 L 6.2214826,21.299402 L 6.2045406,21.267072 L 6.1875986,21.234812 L 6.1741046,21.202482 L 6.1571626,21.166932 L 6.1469676,21.134602 L 6.1333986,21.108782 L 6.1232786,21.070012 L 6.1130836,21.037682 L 6.0995896,21.005352 L 6.0962196,20.969872 L 6.0826506,20.931102 L 6.0792806,20.898772 L 6.0724606,20.860002 L 6.0623406,20.824452 L 6.0623406,20.788902 L 6.0589706,20.753352 L 6.0589706,20.714582 L 6.0589706,20.675812 L 4.9414776,20.675812 L 4.9414776,20.740412 L 4.9482276,20.805082 L 4.9482276,20.879402 L 4.9617966,20.944002 L 4.9617966,21.008672 L 4.9787386,21.076492 L 4.9888586,21.134652 L 5.0024276,21.202542 L 5.0159966,21.267142 L 5.0396846,21.328592 L 5.0566266,21.393192 L 5.0735686,21.454572 L 5.1040036,21.512802 L 5.1276926,21.574182 L 5.1548296,21.629122 L 5.1852646,21.687282 L 5.2055806,21.742222 L 5.2394646,21.803602 L 5.2699746,21.858542 L 5.3106046,21.907042 L 5.3376666,21.961912 L 5.3782976,22.016852 L 5.4121816,22.065352 L 5.4528116,22.117072 L 5.4934426,22.165502 L 5.5340726,22.214002 L 5.5780766,22.262432 L 5.6187076,22.307712 L 5.6661606,22.356142 L 5.7101646,22.401422 L 5.7575416,22.443412 L 5.8083676,22.488692 L 5.8523716,22.520952 L 5.9065706,22.566232 L 5.9573216,22.605002 L 6.0081476,22.640552 L 6.0589736,22.676102 L 6.1130976,22.711582 L 6.1706706,22.747132 L 6.2282436,22.779462 L 6.2824426,22.811792 L 6.3366416,22.837612 L 6.3975876,22.873162 L 6.4551606,22.898982 L 6.5127336,22.928092 L 6.5703066,22.953912 L 6.6346266,22.976592 L 6.6955726,22.999192 L 6.7598926,23.018572 L 6.8174656,23.041172 L 6.8852336,23.057342 L 6.9495536,23.073512 L 7.0104996,23.096112 L 7.0748196,23.109062 L 7.1392146,23.125152 L 7.2035346,23.134852 L 7.2746006,23.144552 L 7.3389956,23.157502 L 7.4066886,23.160702 L 7.4744566,23.167202 L 7.5387766,23.173602 L 7.6064696,23.180002 L 7.6776106,23.183302 L 7.7453036,23.183302 L 7.7453036,22.116955 L 7.7453036,22.116955 L 7.7452806,22.116852 z "
     style="fill:#ffffff" />
  <path
     id="path98"
     d="M 9.4858769,22.116852 L 7.7452806,22.116852 L 7.7452806,23.183199 L 9.4858769,23.183199 L 9.4858769,22.116852 z "
     style="fill:#ffffff" />
  <path
     id="path100"
     d="M 12.100108,24.815016 L 12.100108,24.815016 L 12.100108,24.750346 L 12.093408,24.682456 L 12.093408,24.617856 L 12.090008,24.553256 L 12.073148,24.491806 L 12.073148,24.427206 L 12.059578,24.359316 L 12.049388,24.301166 L 12.032448,24.239786 L 12.025748,24.171896 L 12.008808,24.113746 L 11.988498,24.055586 L 11.975008,23.994206 L 11.947878,23.929536 L 11.927568,23.874596 L 11.910628,23.813216 L 11.886938,23.755056 L 11.859878,23.693676 L 11.836118,23.638736 L 11.809058,23.577356 L 11.775178,23.522416 L 11.751488,23.467476 L 11.717608,23.412536 L 11.683808,23.360816 L 11.649928,23.305876 L 11.619418,23.250936 L 11.578778,23.205726 L 11.538158,23.150786 L 11.504348,23.102286 L 11.463718,23.053856 L 11.423008,23.002136 L 11.385828,22.953636 L 11.338368,22.911646 L 11.290988,22.866436 L 11.246908,22.821156 L 11.199528,22.772726 L 11.148778,22.733956 L 11.101328,22.691896 L 11.050578,22.653126 L 10.999748,22.614356 L 10.948918,22.575586 L 10.898168,22.536816 L 10.840588,22.504486 L 10.783008,22.472226 L 10.725438,22.439896 L 10.667858,22.407566 L 10.610278,22.372016 L 10.549328,22.346196 L 10.491748,22.317086 L 10.434168,22.297706 L 10.369848,22.268666 L 10.305528,22.246066 L 10.237758,22.229896 L 10.170068,22.207296 L 10.112498,22.191126 L 10.041358,22.174956 L 9.973664,22.158786 L 9.905896,22.149086 L 9.838204,22.136206 L 9.767063,22.133006 L 9.69937,22.120056 L 9.631602,22.120056 L 9.560536,22.116856 L 9.486022,22.116856 L 9.486022,23.183203 L 9.526653,23.183203 L 9.567283,23.183203 L 9.607914,23.189603 L 9.641798,23.189603 L 9.682429,23.196003 L 9.723059,23.199203 L 9.756943,23.205703 L 9.787378,23.215403 L 9.824635,23.221903 L 9.865266,23.234783 L 9.89915,23.244483 L 9.933034,23.254183 L 9.970291,23.267133 L 10.000726,23.276833 L 10.037986,23.292923 L 10.065046,23.305873 L 10.098926,23.322043 L 10.136186,23.341423 L 10.163246,23.360803 L 10.197126,23.376973 L 10.227636,23.393133 L 10.251326,23.412513 L 10.288586,23.435113 L 10.319016,23.457713 L 10.346146,23.480313 L 10.376576,23.502983 L 10.403706,23.522363 L 10.434136,23.551403 L 10.461266,23.574003 L 10.491696,23.599893 L 10.508636,23.628933 L 10.542516,23.654823 L 10.566206,23.683863 L 10.586516,23.716193 L 10.610196,23.742013 L 10.640706,23.771123 L 10.661016,23.803453 L 10.684706,23.835713 L 10.701646,23.868043 L 10.725336,23.900373 L 10.742276,23.935923 L 10.762586,23.964963 L 10.782896,24.006953 L 10.799836,24.039283 L 10.816776,24.078053 L 10.833636,24.110383 L 10.847206,24.142713 L 10.864146,24.181483 L 10.881086,24.220253 L 10.887786,24.259023 L 10.901356,24.294573 L 10.914926,24.333343 L 10.925046,24.368893 L 10.938616,24.410883 L 10.948736,24.449653 L 10.955536,24.488423 L 10.958936,24.530413 L 10.965636,24.569183 L 10.972436,24.607953 L 10.972436,24.653233 L 10.982556,24.688783 L 10.982556,24.733993 L 10.982556,24.772763 L 10.982556,24.814823 L 10.982556,24.814823 L 12.10005,24.814823 L 12.10005,24.814823 L 12.10005,24.814823 L 12.10005,24.814823 L 12.100108,24.815016 z "
     style="fill:#ffffff" />
  <path
     id="path102"
     d="M 9.3944204,27.403233 L 9.4655614,27.403233 L 9.5332534,27.396833 L 9.6010214,27.390433 L 9.6720874,27.387233 L 9.7398554,27.380733 L 9.8008014,27.367853 L 9.8719424,27.358153 L 9.9396354,27.348453 L 10.000581,27.335503 L 10.064901,27.316123 L 10.136041,27.303173 L 10.196991,27.277353 L 10.261311,27.264403 L 10.322261,27.241803 L 10.386651,27.222423 L 10.444231,27.193313 L 10.505181,27.167493 L 10.569501,27.144893 L 10.627071,27.115783 L 10.684651,27.086743 L 10.742221,27.057633 L 10.792971,27.025303 L 10.847171,26.993043 L 10.908121,26.954273 L 10.958951,26.918723 L 11.013151,26.886393 L 11.063901,26.844403 L 11.114731,26.812073 L 11.165481,26.763573 L 11.212941,26.728023 L 11.256951,26.682813 L 11.311151,26.640823 L 11.351781,26.595543 L 11.395791,26.550333 L 11.436431,26.508343 L 11.480441,26.459843 L 11.521071,26.411413 L 11.561781,26.359693 L 11.602421,26.307973 L 11.636221,26.262763 L 11.670101,26.207823 L 11.703981,26.152883 L 11.734411,26.104383 L 11.775041,26.046223 L 11.802171,25.994503 L 11.832601,25.933123 L 11.859731,25.874963 L 11.886791,25.820033 L 11.910481,25.758653 L 11.934171,25.703713 L 11.957931,25.642333 L 11.981621,25.580883 L 11.998561,25.516283 L 12.015501,25.458123 L 12.028991,25.396743 L 12.042561,25.338523 L 12.059501,25.270703 L 12.066201,25.206033 L 12.073001,25.138213 L 12.083121,25.073543 L 12.093311,25.015383 L 12.093311,24.941063 L 12.100011,24.882903 L 12.100011,24.815083 L 10.982517,24.815083 L 10.982517,24.853853 L 10.982517,24.892623 L 10.972397,24.931393 L 10.972397,24.970163 L 10.972397,25.005713 L 10.965597,25.047703 L 10.958897,25.086473 L 10.955497,25.122023 L 10.941927,25.157573 L 10.938527,25.193123 L 10.924957,25.228673 L 10.914837,25.264153 L 10.901267,25.302993 L 10.884327,25.338473 L 10.874207,25.374023 L 10.857267,25.409573 L 10.843697,25.441903 L 10.826757,25.470943 L 10.809817,25.506493 L 10.792877,25.538823 L 10.776017,25.571153 L 10.752257,25.606703 L 10.731947,25.632523 L 10.715007,25.661633 L 10.691317,25.693893 L 10.667627,25.723003 L 10.643937,25.752043 L 10.620247,25.781153 L 10.599937,25.803753 L 10.569427,25.836083 L 10.545737,25.861903 L 10.518607,25.891013 L 10.491547,25.913613 L 10.461117,25.939433 L 10.437357,25.962103 L 10.403557,25.984703 L 10.376427,26.010523 L 10.345997,26.029903 L 10.312117,26.055793 L 10.285057,26.075173 L 10.247797,26.091343 L 10.220667,26.110723 L 10.186857,26.126813 L 10.152977,26.146193 L 10.119097,26.168863 L 10.081837,26.185033 L 10.048037,26.197903 L 10.014157,26.214073 L 9.9735264,26.227023 L 9.9396424,26.239903 L 9.9057584,26.256073 L 9.8651274,26.269023 L 9.8278704,26.272223 L 9.7872394,26.285173 L 9.7568044,26.294873 L 9.7161734,26.298173 L 9.6755424,26.307873 L 9.6349124,26.317573 L 9.5976554,26.317573 L 9.5603984,26.327273 L 9.5163194,26.327273 L 9.4825104,26.333673 L 9.4350574,26.333673 L 9.3944264,26.333673 L 9.3944264,27.403239 L 9.3944264,27.403239 L 9.3944204,27.403233 z "
     style="fill:#ffffff" />
  <path
     id="path104"
     d="M 6.2079125,27.403233 L 9.3944204,27.403233 L 9.3944204,26.333667 L 6.2079125,26.333667 L 6.2079125,27.403233 L 6.2079125,27.403233 L 6.2079125,27.403233 z "
     style="fill:#ffffff" />
  <path
     id="path106"
     d="M 6.2654851,28.143245 L 6.2654851,25.561394 L 4.640034,26.798992 L 6.2654851,28.143245 L 6.2654851,28.143245 z "
     style="fill:#ffffff" />
  <path
     id="path108"
     d="M 6.2654851,28.143245 L 6.2654851,25.561394 L 4.640034,26.798992 L 6.2654851,28.143245"
     style="fill:none;stroke:#ffffff;stroke-width:0.01464574" />
  <path
     id="path110"
     d="M 18.026111,17.202014 L 18.026111,19.777356 L 19.651563,18.539758 L 18.026111,17.202014 z "
     style="fill:#ffffff" />
  <path
     id="path112"
     d="M 18.026111,17.202014 L 18.026111,19.777356 L 19.651563,18.539758 L 18.026111,17.202014"
     style="fill:none;stroke:#ffffff;stroke-width:0.01464574" />
  <path
     id="path114"
     d="M 20.28644,32.272861 L 23.190818,30.146678 L 23.190818,3.6595469 L 20.28644,5.7825119 L 20.28644,32.272861 z "
     style="fill:#6e8296;fill-opacity:1" />
</svg>
