<svg xmlns="http://www.w3.org/2000/svg" style="fill-rule:evenodd;clip-rule:evenodd;stroke-linejoin:round;stroke-miterlimit:2" xml:space="preserve" viewBox="0 0 300 300" height="60" width="60">
    <path style="fill:#fffefe" d="M300 30.271C300 13.564 286.436 0 269.729 0H30.271C13.564 0 0 13.564 0 30.271v239.458C0 286.436 13.564 300 30.271 300h239.458C286.436 300 300 286.436 300 269.729V30.271Z" transform="matrix(.9616 0 0 .9616 5.76 5.76)"/>
    <path style="fill:#2d67b9" d="m269.729 0 .391.002.39.008.195.005.194.007.194.008.193.009.386.022.193.013.192.014.192.016.191.016.192.018.191.018.19.02.38.044.19.023.189.025.188.026.189.027.188.028.187.029.188.031.186.031.187.033.186.034.186.035.185.036.185.037.368.078.184.041.183.042.183.043.182.043.364.092.181.047.18.048.181.05.179.05.18.052.179.052.178.054.178.055.177.056.177.057.177.058.176.059.175.06.175.061.175.062.174.063.174.064.173.066.172.066.172.067.172.068.171.07.17.07.17.071.17.073.169.073.168.074.168.076.167.076.167.077.332.158.165.08.165.081.164.083.163.083.163.084.162.085.162.086.161.087.161.088.16.088.159.09.159.091.316.184.157.094.156.094.156.095.155.096.308.196.306.198.152.101.302.204.15.104.149.104.149.105.148.106.294.214.146.109.145.109.145.111.144.111.143.112.143.113.142.113.282.23.139.116.14.117.276.236.137.12.136.12.135.121.135.122.134.122.134.124.132.124.132.125.131.125.26.254.129.128.128.129.254.26.125.131.125.132.124.132.124.134.122.134.122.135.121.135.12.136.12.137.236.276.117.14.116.139.23.282.113.142.113.143.112.143.111.144.111.145.109.145.109.146.214.294.106.148.105.149.104.149.104.15.204.302.101.152.198.306.196.308.096.155.095.156.094.156.094.157.184.316.091.159.09.159.088.16.088.161.087.161.086.162.085.162.084.163.083.163.083.164.081.165.08.165.158.332.077.167.076.167.076.168.074.168.073.169.073.17.071.17.07.17.07.171.068.172.067.172.066.172.066.173.064.174.063.174.062.175.061.175.06.175.059.176.058.177.057.177.056.177.055.178.054.178.052.179.052.18.05.179.05.181.048.18.047.181.092.364.043.182.043.183.042.183.041.184.078.368.037.185.036.185.035.186.034.186.033.187.031.186.031.188.029.187.028.188.027.189.026.188.025.189.023.19.044.38.02.19.018.191.018.192.016.191.016.192.014.192.013.193.022.386.009.193.008.194.007.194.005.195.008.39.002.391v239.458l-.002.391-.008.39-.005.195-.007.194-.008.194-.009.193-.022.386-.013.193-.014.192-.016.192-.016.191-.018.192-.018.191-.02.19-.044.38-.023.19-.025.189-.026.188-.027.189-.028.188-.029.187-.031.188-.031.186-.033.187-.034.186-.035.186-.036.185-.037.185-.078.368-.041.184-.042.183-.043.183-.043.182-.092.364-.047.181-.048.18-.05.181-.05.179-.052.18-.052.179-.054.178-.055.178-.056.177-.057.177-.058.177-.059.176-.06.175-.061.175-.062.175-.063.174-.064.174-.066.173-.066.172-.067.172-.068.172-.07.171-.07.17-.071.17-.073.17-.073.169-.074.168-.076.168-.076.167-.077.167-.158.332-.08.165-.081.165-.083.164-.083.163-.084.163-.085.162-.086.162-.087.161-.088.161-.088.16-.09.159-.091.159-.184.316-.094.157-.094.156-.095.156-.096.155-.196.308-.198.306-.101.152-.204.302-.104.15-.104.149-.105.149-.106.148-.214.294-.109.146-.109.145-.111.145-.111.144-.112.143-.113.143-.113.142-.23.282-.116.139-.117.14-.236.276-.12.137-.12.136-.121.135-.122.135-.122.134-.124.134-.124.132-.125.132-.125.131-.254.26-.128.129-.129.128-.26.254-.131.125-.132.125-.132.124-.134.124-.134.122-.135.122-.135.121-.136.12-.137.12-.276.236-.14.117-.139.116-.282.23-.142.113-.143.113-.143.112-.144.111-.145.111-.145.109-.146.109-.294.214-.148.106-.149.105-.149.104-.15.104-.302.204-.152.101-.306.198-.308.196-.155.096-.156.095-.156.094-.157.094-.316.184-.159.091-.159.09-.16.088-.161.088-.161.087-.162.086-.162.085-.163.084-.163.083-.164.083-.165.081-.165.08-.332.158-.167.077-.167.076-.168.076-.168.074-.169.073-.17.073-.17.071-.17.07-.171.07-.172.068-.172.067-.172.066-.173.066-.174.064-.174.063-.175.062-.175.061-.175.06-.176.059-.177.058-.177.057-.177.056-.178.055-.178.054-.179.052-.18.052-.179.05-.181.05-.18.048-.181.047-.364.092-.182.043-.183.043-.183.042-.184.041-.368.078-.185.037-.185.036-.186.035-.186.034-.187.033-.186.031-.188.031-.187.029-.188.028-.189.027-.188.026-.189.025-.19.023-.38.044-.19.02-.191.018-.192.018-.191.016-.192.016-.192.014-.193.013-.386.022-.193.009-.194.008-.194.007-.195.005-.39.008-.391.002H30.271l-.391-.002-.39-.008-.195-.005-.194-.007-.194-.008-.193-.009-.386-.022-.193-.013-.192-.014-.192-.016-.191-.016-.192-.018-.191-.018-.19-.02-.38-.044-.19-.023-.189-.025-.188-.026-.189-.027-.188-.028-.187-.029-.188-.031-.186-.031-.187-.033-.186-.034-.186-.035-.185-.036-.185-.037-.368-.078-.184-.041-.183-.042-.183-.043-.182-.043-.364-.092-.181-.047-.18-.048-.181-.05-.179-.05-.18-.052-.179-.052-.178-.054-.178-.055-.177-.056-.177-.057-.177-.058-.176-.059-.175-.06-.175-.061-.175-.062-.174-.063-.174-.064-.173-.066-.172-.066-.172-.067-.172-.068-.171-.07-.17-.07-.17-.071-.17-.073-.169-.073-.168-.074-.168-.076-.167-.076-.167-.077-.332-.158-.165-.08-.165-.081-.164-.083-.163-.083-.163-.084-.162-.085-.162-.086-.161-.087-.161-.088-.16-.088-.159-.09-.159-.091-.316-.184-.157-.094-.156-.094-.156-.095-.155-.096-.308-.196-.306-.198-.152-.101-.302-.204-.15-.104-.149-.104-.149-.105-.148-.106-.294-.214-.146-.109-.145-.109-.145-.111-.144-.111-.143-.112-.143-.113-.142-.113-.282-.23-.139-.116-.14-.117-.276-.236-.137-.12-.136-.12-.135-.121-.135-.122-.134-.122-.134-.124-.132-.124-.132-.125-.131-.125-.26-.254-.129-.128-.128-.129-.254-.26-.125-.131-.125-.132-.124-.132-.124-.134-.122-.134-.122-.135-.121-.135-.12-.136-.12-.137-.236-.276-.117-.14-.116-.139-.23-.282-.113-.142-.113-.143-.112-.143-.111-.144-.111-.145-.109-.145-.109-.146-.214-.294-.106-.148-.105-.149-.104-.149-.104-.15-.204-.302-.101-.152-.198-.306-.196-.308-.096-.155-.095-.156-.094-.156-.094-.157-.184-.316-.091-.159-.09-.159-.088-.16-.088-.161-.087-.161-.086-.162-.085-.162-.084-.163-.083-.163-.083-.164-.081-.165-.08-.165-.158-.332-.077-.167-.076-.167-.076-.168-.074-.168-.073-.169-.073-.17-.071-.17-.07-.17-.07-.171-.068-.172-.067-.172-.066-.172-.066-.173-.064-.174-.063-.174-.062-.175-.061-.175-.06-.175-.059-.176-.058-.177-.057-.177-.056-.177-.055-.178-.054-.178-.052-.179-.052-.18-.05-.179-.05-.181-.048-.18-.047-.181-.092-.364-.043-.182-.043-.183-.042-.183-.041-.184-.078-.368-.037-.185-.036-.185-.035-.186-.034-.186-.033-.187-.031-.186-.031-.188-.029-.187-.028-.188-.027-.189-.026-.188-.025-.189-.023-.19-.044-.38-.02-.19-.018-.191-.018-.192-.016-.191-.016-.192-.014-.192-.013-.193-.022-.386-.009-.193-.008-.194-.007-.194-.005-.195-.008-.39-.002-.391V30.271l.002-.391.008-.39.005-.195.007-.194.008-.194.009-.193.022-.386.013-.193.014-.192.016-.192.016-.191.018-.192.018-.191.02-.19.044-.38.023-.19.025-.189.026-.188.027-.189.028-.188.029-.187.031-.188.031-.186.033-.187.034-.186.035-.186.036-.185.037-.185.078-.368.041-.184.042-.183.043-.183.043-.182.092-.364.047-.181.048-.18.05-.181.05-.179.052-.18.052-.179.054-.178.055-.178.056-.177.057-.177.058-.177.059-.176.06-.175.061-.175.062-.175.063-.174.064-.174.066-.173.066-.172.067-.172.068-.172.07-.171.07-.17.071-.17.073-.17.073-.169.074-.168.076-.168.076-.167.077-.167.158-.332.08-.165.081-.165.083-.164.083-.163.084-.163.085-.162.086-.162.087-.161.088-.161.088-.16.09-.159.091-.159.184-.316.094-.157.094-.156.095-.156.096-.155.196-.308.198-.306.101-.152.204-.302.104-.15.104-.149.105-.149.106-.148.214-.294.109-.146.109-.145.111-.145.111-.144.112-.143.113-.143.113-.142.23-.282.116-.139.117-.14.236-.276.12-.137.12-.136.121-.135.122-.135.122-.134.124-.134.124-.132.125-.132.125-.131.254-.26.128-.129.129-.128.26-.254.131-.125.132-.125.132-.124.134-.124.134-.122.135-.122.135-.121.136-.12.137-.12.276-.236.14-.117.139-.116.282-.23.142-.113.143-.113.143-.112.144-.111.145-.111.145-.109.146-.109.294-.214.148-.106.149-.105.149-.104.15-.104.302-.204.152-.101.306-.198.308-.196.155-.096.156-.095.156-.094.157-.094.316-.184.159-.091.159-.09.16-.088.161-.088.161-.087.162-.086.162-.085.163-.084.163-.083.164-.083.165-.081.165-.08.332-.158.167-.077.167-.076.168-.076.168-.074.169-.073.17-.073.17-.071.17-.07.171-.07.172-.068.172-.067.172-.066.173-.066.174-.064.174-.063.175-.062.175-.061.175-.06.176-.059.177-.058.177-.057.177-.056.178-.055.178-.054.179-.052.18-.052.179-.05.181-.05.18-.048.181-.047.364-.092.182-.043.183-.043.183-.042.184-.041.368-.078.185-.037.185-.036.186-.035.186-.034.187-.033.186-.031.188-.031.187-.029.188-.028.189-.027.188-.026.189-.025.19-.023.38-.044.19-.02.191-.018.192-.018.191-.016.192-.016.192-.014.193-.013.386-.022.193-.009.194-.008.194-.007.195-.005.39-.008.391-.002h239.458Zm.095 16H30.176l-.093.001-.187.004-.093.002-.186.008-.092.004-.184.01-.091.007-.091.006-.091.007-.091.008-.091.009-.09.008-.18.02-.089.01-.089.011-.09.012-.088.012-.089.013-.088.013-.176.028-.088.015-.087.015-.088.016-.087.017-.086.017-.087.017-.172.036-.086.019-.086.02-.085.02-.255.063-.085.022-.252.069-.084.025-.084.024-.083.025-.166.052-.082.026-.083.028-.082.027-.082.028-.082.029-.081.029-.082.029-.081.03-.162.062-.08.031-.08.032-.24.099-.158.068-.158.07-.156.072-.156.074-.078.038-.077.038-.154.078-.076.039-.077.04-.152.082-.075.041-.15.084-.15.086-.222.132-.073.045-.073.046-.073.045-.073.047-.072.046-.073.048-.071.047-.072.048-.213.147-.14.1-.14.102-.069.051-.069.052-.068.052-.069.053-.068.053-.067.053-.068.054-.067.055-.066.054-.067.056-.066.055-.066.056-.065.056-.13.114-.064.058-.064.057-.064.059-.063.058-.063.059-.063.06-.186.18-.122.122-.18.186-.06.063-.059.063-.058.063-.059.064-.057.064-.058.064-.114.13-.056.065-.056.066-.055.066-.056.067-.054.066-.055.067-.054.068-.053.067-.053.068-.053.069-.052.068-.052.069-.051.069-.102.14-.1.14-.147.213-.048.072-.047.071-.048.073-.046.072-.047.073-.045.073-.046.073-.045.073-.132.222-.086.15-.084.15-.041.075-.082.152-.04.077-.039.076-.078.154-.038.077-.038.078-.074.156-.072.156-.07.158-.068.158-.099.24-.032.08-.031.08-.062.162-.03.081-.029.082-.029.081-.029.082-.028.082-.027.082-.028.083-.026.082-.052.166-.025.083-.024.084-.025.084-.069.252-.022.085-.063.255-.02.085-.02.086-.019.086-.036.172-.017.087-.017.086-.017.087-.016.088-.015.087-.015.088-.028.176-.013.088-.013.089-.012.088-.012.09-.011.089-.01.089-.02.18-.008.09-.009.091-.008.091-.007.091-.006.091-.007.091-.01.184-.004.092-.008.186-.004.186-.002.094-.001.093v239.648l.001.093.004.187.002.093.008.186.004.092.01.184.007.091.006.091.007.091.008.091.009.091.008.09.02.18.01.089.011.089.012.09.012.088.013.089.013.088.028.176.015.088.015.087.016.087.051.261.018.086.019.086.018.086.02.086.02.085.021.085.021.086.021.084.022.085.069.252.025.084.024.084.025.083.078.249.028.082.027.082.028.082.029.082.029.081.029.082.03.081.062.162.031.08.032.08.099.24.034.08.034.078.07.158.072.156.074.156.038.078.038.077.117.231.04.076.04.075.041.076.042.077.042.074.042.075.043.075.043.074.044.075.088.148.09.146.047.074.092.144.048.073.048.072.047.071.049.071.048.071.05.071.05.07.05.071.051.069.05.069.052.07.052.069.052.068.053.069.053.068.053.067.055.068.054.067.055.067.054.065.056.067.056.066.056.065.114.13.057.064.058.064.118.128.059.062.058.062.061.064.06.061.06.062.122.122.062.061.061.059.126.12.063.059.063.058.064.059.064.057.064.058.13.114.065.056.066.056.066.055.067.056.066.054.068.055.067.054.067.053.136.106.068.052.07.052.069.052.069.05.071.051.14.1.071.05.071.048.071.049.071.048.073.047.072.048.072.047.072.045.073.046.074.046.073.045.074.044.074.045.148.086.076.043.074.042.075.042.152.082.077.041.076.04.077.039.076.04.231.114.078.037.078.036.079.037.079.036.156.07.079.034.08.034.081.034.078.032.081.033.081.032.079.031.162.062.082.03.081.029.08.029.083.029.164.056.083.027.164.052.085.026.083.025.082.024.084.024.085.024.168.046.085.022.086.022.083.02.086.021.085.02.085.019.087.02.172.036.086.017.088.017.087.017.087.016.174.03.088.014.089.014.176.026.091.012.088.012.089.011.089.01.18.02.09.008.09.009.091.008.184.014.091.006.09.005.093.005.093.004.092.004.093.004.092.002.188.004.093.001h239.648l.093-.001.188-.004.092-.002.093-.004.092-.004.093-.004.093-.005.09-.005.091-.006.184-.014.091-.008.09-.009.09-.008.18-.02.089-.01.089-.011.088-.012.091-.012.176-.026.089-.014.088-.014.174-.03.087-.016.087-.017.088-.017.086-.017.172-.036.087-.02.085-.019.085-.02.086-.021.084-.02.17-.044.168-.046.085-.024.084-.024.082-.024.083-.025.085-.026.164-.052.083-.028.082-.027.082-.028.082-.029.162-.058.082-.03.162-.062.079-.031.081-.032.081-.033.078-.032.162-.068.077-.034.078-.035.079-.035.158-.072.156-.074.077-.038.154-.077.077-.039.076-.039.077-.04.075-.04.076-.041.077-.043.074-.041.075-.042.076-.043.148-.086.074-.045.074-.044.073-.045.073-.046.074-.046.072-.045.071-.047.074-.048.072-.048.071-.047.071-.049.07-.048.072-.05.07-.05.071-.05.07-.051.068-.05.07-.052.07-.053.067-.051.069-.053.068-.053.067-.053.067-.054.068-.055.067-.055.065-.054.067-.057.066-.055.065-.056.065-.057.064-.057.065-.058.064-.057.128-.118.062-.058.126-.12.061-.059.062-.061.122-.122.061-.062.059-.061.12-.126.058-.062.118-.128.057-.064.058-.065.057-.064.057-.065.056-.065.055-.066.057-.067.054-.065.055-.067.055-.068.054-.067.053-.067.053-.068.053-.069.051-.067.053-.07.052-.07.05-.068.051-.07.05-.071.05-.07.05-.072.048-.07.049-.071.047-.071.048-.072.048-.074.047-.071.045-.072.046-.074.046-.073.045-.073.044-.074.045-.074.086-.148.043-.076.042-.075.041-.074.043-.077.041-.076.04-.075.04-.077.039-.076.039-.077.077-.154.038-.077.074-.156.072-.158.035-.079.035-.078.034-.077.068-.162.032-.078.033-.081.032-.081.031-.079.062-.162.03-.082.058-.162.029-.082.028-.082.027-.082.028-.083.052-.164.026-.085.025-.083.024-.082.024-.084.024-.085.046-.168.044-.17.02-.084.021-.086.02-.085.019-.085.02-.087.036-.172.017-.086.017-.088.017-.087.016-.087.03-.174.014-.088.014-.089.026-.176.012-.091.012-.088.011-.089.01-.089.02-.18.008-.09.009-.09.008-.091.014-.184.006-.091.005-.09.005-.093.004-.093.004-.092.004-.093.002-.092.004-.188.001-.093V30.176l-.001-.093-.004-.188-.002-.092-.004-.093-.004-.092-.004-.093-.005-.093-.005-.09-.006-.091-.014-.184-.008-.091-.009-.09-.008-.09-.02-.18-.01-.089-.011-.089-.012-.088-.012-.091-.026-.176-.014-.089-.014-.088-.03-.174-.016-.087-.017-.087-.017-.088-.017-.086-.036-.172-.02-.087-.019-.085-.02-.085-.021-.086-.02-.083-.022-.086-.022-.085-.046-.168-.024-.085-.024-.084-.024-.082-.025-.083-.026-.085-.052-.164-.027-.083-.056-.164-.029-.083-.029-.08-.029-.081-.03-.082-.062-.162-.031-.079-.032-.081-.033-.081-.032-.078-.034-.081-.034-.08-.034-.079-.07-.156-.036-.079-.037-.079-.036-.078-.037-.078-.114-.231-.04-.076-.039-.077-.04-.076-.041-.077-.082-.152-.042-.075-.042-.074-.043-.076-.086-.148-.045-.074-.044-.074-.045-.073-.046-.074-.046-.073-.045-.072-.047-.072-.048-.072-.047-.073-.048-.071-.049-.071-.048-.071-.05-.071-.1-.14-.051-.071-.05-.069-.052-.069-.052-.07-.052-.068-.106-.136-.053-.067-.054-.067-.055-.068-.054-.066-.056-.067-.055-.066-.056-.066-.056-.065-.114-.13-.058-.064-.057-.064-.059-.064-.058-.063-.059-.063-.12-.126-.059-.061-.061-.062-.122-.122-.062-.06-.061-.06-.064-.061-.062-.058-.062-.059-.128-.118-.064-.058-.064-.057-.13-.114-.065-.056-.066-.056-.067-.056-.065-.054-.067-.055-.067-.054-.068-.055-.067-.053-.068-.053-.069-.053-.068-.052-.069-.052-.07-.052-.069-.05-.069-.051-.071-.05-.07-.05-.071-.05-.071-.048-.071-.049-.071-.047-.072-.048-.073-.048-.144-.092-.074-.047-.146-.09-.148-.088-.075-.044-.074-.043-.075-.043-.075-.042-.074-.042-.077-.042-.076-.041-.075-.04-.076-.04-.231-.117-.077-.038-.078-.038-.156-.074-.156-.072-.158-.07-.078-.034-.08-.034-.24-.099-.08-.032-.08-.031-.162-.062-.081-.03-.082-.029-.081-.029-.082-.029-.082-.028-.082-.027-.082-.028-.249-.078-.083-.025-.084-.024-.084-.025-.252-.069-.085-.022-.084-.021-.086-.021-.085-.021-.085-.02-.086-.02-.086-.018-.086-.019-.086-.018-.261-.051-.087-.016-.087-.015-.088-.015-.176-.028-.088-.013-.089-.013-.088-.012-.09-.012-.089-.011-.089-.01-.18-.02-.09-.008-.091-.009-.091-.008-.091-.007-.091-.006-.091-.007-.184-.01-.092-.004-.186-.008-.186-.004-.094-.002-.093-.001Z"/>
    <g style="clip-rule:evenodd;fill-rule:evenodd;stroke-linejoin:round;stroke-miterlimit:1.41420996">
        <path d="M102.612 974.832v52.715h52.714v-52.715zm4.393 4.393h43.928v25.991h-5.994l-5.835-17.754-1.693-5.125-1.784 5.102-3.684 10.524-3.386-10.112-1.945-5.857-1.556 5.971-5.125 19.608-3.843-12.767-.412-1.304h-8.671zm30.315 14.506 4.553 13.888.412 1.258h8.648v14.277h-43.928v-25.991h5.948l5.354 17.708 1.876 6.224 1.647-6.292 5.217-19.928 3.112 9.357 1.693 5.08 1.784-5.057z" style="fill:#2d67b9;fill-opacity:1;fill-rule:nonzero;stroke:none" transform="matrix(3.79963 0 0 3.27246 -340.937 -3125.622)"/>
    </g>
</svg>
