<?xml version="1.0" encoding="utf-8"?>
<!-- Generator: Adobe Illustrator 18.0.0, SVG Export Plug-In . SVG Version: 6.00 Build 0)  -->
<!DOCTYPE svg PUBLIC "-//W3C//DTD SVG 1.1//EN" "http://www.w3.org/Graphics/SVG/1.1/DTD/svg11.dtd">
<svg version="1.1"
	 id="svg7631" xmlns:cc="http://creativecommons.org/ns#" xmlns:inkscape="http://www.inkscape.org/namespaces/inkscape" xmlns:sodipodi="http://sodipodi.sourceforge.net/DTD/sodipodi-0.dtd" xmlns:dc="http://purl.org/dc/elements/1.1/" xmlns:svg="http://www.w3.org/2000/svg" xmlns:rdf="http://www.w3.org/1999/02/22-rdf-syntax-ns#" sodipodi:docname="camera-photo.svg" sodipodi:version="0.32" inkscape:version="0.48.3.1 r9886" inkscape:output_extension="org.inkscape.output.svg.inkscape"
	 xmlns="http://www.w3.org/2000/svg" xmlns:xlink="http://www.w3.org/1999/xlink" x="0px" y="0px" viewBox="0 0 288 288"
	 enable-background="new 0 0 288 288" xml:space="preserve">
<g>
	<path fill="#231F20" d="M43,26.9v114.8h47.7v29h23v26h21.7c-0.4,7.7-2.5,19.2-10.9,29.2c-11.7,13.8-32.1,20.8-60.8,20.8v15
		c33.2,0,57.5-8.8,72.2-26.1c11.4-13.4,14.1-28.7,14.5-38.9h22.5v-26h23v-29h47.7V26.9H43z M136.9,36.5h7.2v33.8h-7.2V36.5z
		 M68,70.4h-7.2V36.5H68V70.4z M93.4,70.4h-7.2V36.5h7.2V70.4z M118.7,70.4h-7.2V36.5h7.2V70.4z M169.5,70.4h-7.2V36.5h7.2V70.4z
		 M194.8,70.4h-7.2V36.5h7.2V70.4z M220.2,70.4H213V36.5h7.2V70.4z"/>
	<path fill="#CDCDCD" d="M43,38.8v114.8h47.7v29h23v26h21.7c-0.4,7.7-2.5,19.2-10.9,29.2c-11.7,13.8-32.1,20.8-60.8,20.8v15
		c33.2,0,57.5-8.8,72.2-26.1c11.4-13.4,14.1-28.7,14.5-38.9h22.5v-26h23v-29h47.7V38.8H43z M136.9,48.5h7.2v33.8h-7.2V48.5z
		 M68,82.3h-7.2V48.5H68V82.3z M93.4,82.3h-7.2V48.5h7.2V82.3z M118.7,82.3h-7.2V48.5h7.2V82.3z M169.5,82.3h-7.2V48.5h7.2V82.3z
		 M194.8,82.3h-7.2V48.5h7.2V82.3z M220.2,82.3H213V48.5h7.2V82.3z"/>
</g>
</svg>
