<?xml version="1.0" encoding="utf-8"?>
<!-- Generator: Adobe Illustrator 18.0.0, SVG Export Plug-In . SVG Version: 6.00 Build 0)  -->
<!DOCTYPE svg PUBLIC "-//W3C//DTD SVG 1.1//EN" "http://www.w3.org/Graphics/SVG/1.1/DTD/svg11.dtd">
<svg version="1.1"
	 id="svg7631" xmlns:cc="http://creativecommons.org/ns#" xmlns:inkscape="http://www.inkscape.org/namespaces/inkscape" xmlns:sodipodi="http://sodipodi.sourceforge.net/DTD/sodipodi-0.dtd" xmlns:dc="http://purl.org/dc/elements/1.1/" xmlns:svg="http://www.w3.org/2000/svg" xmlns:rdf="http://www.w3.org/1999/02/22-rdf-syntax-ns#" sodipodi:docname="camera-photo.svg" sodipodi:version="0.32" inkscape:version="0.48.3.1 r9886" inkscape:output_extension="org.inkscape.output.svg.inkscape"
	 xmlns="http://www.w3.org/2000/svg" xmlns:xlink="http://www.w3.org/1999/xlink" x="0px" y="0px" viewBox="0 0 288 288"
	 enable-background="new 0 0 288 288" xml:space="preserve">
<g>
	<path fill="#231F20" d="M144.1,21.6c68.4,0,124.1,54.2,126.8,121.9c0.1-1.7,0.3-3.4,0.3-5.1c0-70.2-56.9-127.1-127.1-127.1
		C73.9,11.3,17,68.2,17,138.4c0,1.7,0.2,3.4,0.3,5.1C20,75.8,75.6,21.6,144.1,21.6z"/>
	<path fill="#FFFFFF" d="M144.1,21.6C73.9,21.6,17,78.5,17,148.7c0,70.2,56.9,127.1,127.1,127.1c70.2,0,127.1-56.9,127.1-127.1
		C271.1,78.5,214.3,21.6,144.1,21.6z M73.7,196.6V93.7l61.5,51.4L73.7,196.6z M197.1,207.5h-31.6v-125h31.6V207.5z"/>
</g>
</svg>
