<?xml version="1.0" encoding="utf-8"?>
<!-- Generator: Adobe Illustrator 18.0.0, SVG Export Plug-In . SVG Version: 6.00 Build 0)  -->
<!DOCTYPE svg PUBLIC "-//W3C//DTD SVG 1.1//EN" "http://www.w3.org/Graphics/SVG/1.1/DTD/svg11.dtd">
<svg version="1.1"
	 id="svg7631" xmlns:cc="http://creativecommons.org/ns#" xmlns:inkscape="http://www.inkscape.org/namespaces/inkscape" xmlns:sodipodi="http://sodipodi.sourceforge.net/DTD/sodipodi-0.dtd" xmlns:dc="http://purl.org/dc/elements/1.1/" xmlns:svg="http://www.w3.org/2000/svg" xmlns:rdf="http://www.w3.org/1999/02/22-rdf-syntax-ns#" sodipodi:docname="camera-photo.svg" sodipodi:version="0.32" inkscape:version="0.48.3.1 r9886" inkscape:output_extension="org.inkscape.output.svg.inkscape"
	 xmlns="http://www.w3.org/2000/svg" xmlns:xlink="http://www.w3.org/1999/xlink" x="0px" y="0px" viewBox="0 0 288 288"
	 enable-background="new 0 0 288 288" xml:space="preserve">
<g>
	<g>
		<path fill="#231F20" d="M95.6,53.2L80.1,11.3L11.3,123.9l124.2,36.6l-18.9-50.8c26.7-40.9,85-27,85-27l17,5.4
			C180.6,34.7,122.5,44.7,95.6,53.2z"/>
		<path fill="#CDCDCD" d="M95.6,63.8L80.1,21.9L11.3,134.6l124.2,36.6l-18.9-50.8c26.7-40.9,85-27,85-27l17,5.4
			C180.6,45.4,122.5,55.3,95.6,63.8z"/>
	</g>
	<g>
		<path fill="#231F20" d="M193.3,228.9l15.5,41.8l68.8-112.6l-124.2-36.6l18.9,50.8c-26.7,40.9-85,27-85,27l-17-5.4
			C108.3,247.3,166.4,237.3,193.3,228.9z"/>
		<path fill="#FFFFFF" d="M193.3,235.8l15.5,41.8L277.6,165l-124.2-36.6l18.9,50.8c-26.7,40.9-85,27-85,27l-17-5.4
			C108.3,254.2,166.4,244.3,193.3,235.8z"/>
	</g>
</g>
</svg>
