<?xml version="1.0" encoding="utf-8"?>
<!-- Generator: Adobe Illustrator 18.0.0, SVG Export Plug-In . SVG Version: 6.00 Build 0)  -->
<!DOCTYPE svg PUBLIC "-//W3C//DTD SVG 1.1//EN" "http://www.w3.org/Graphics/SVG/1.1/DTD/svg11.dtd">
<svg version="1.1"
	 id="svg7631" xmlns:cc="http://creativecommons.org/ns#" xmlns:inkscape="http://www.inkscape.org/namespaces/inkscape" xmlns:sodipodi="http://sodipodi.sourceforge.net/DTD/sodipodi-0.dtd" xmlns:dc="http://purl.org/dc/elements/1.1/" xmlns:svg="http://www.w3.org/2000/svg" xmlns:rdf="http://www.w3.org/1999/02/22-rdf-syntax-ns#" sodipodi:docname="camera-photo.svg" sodipodi:version="0.32" inkscape:version="0.48.3.1 r9886" inkscape:output_extension="org.inkscape.output.svg.inkscape"
	 xmlns="http://www.w3.org/2000/svg" xmlns:xlink="http://www.w3.org/1999/xlink" x="0px" y="0px" viewBox="0 0 288 288"
	 enable-background="new 0 0 288 288" xml:space="preserve">
<g>
	<path fill="#231F20" d="M66.8,122.8c0.9-1.9,2.8-3,4.8-3h176.4V96.2c1-18.3-13.1-22.7-14.8-23.6h-92c-7-21.9-31.4-23.6-31.4-23.6
		S70,49,43.1,49c-29,0-30.9,23.5-30.9,23.5l-0.5,152.4h5.9L66.8,122.8z"/>
	<g>
		<path fill="#CDCDCD" d="M66.8,130.7c0.9-1.9,2.8-3,4.8-3h176.4v-23.5c1-18.3-13.1-22.7-14.8-23.6c-1.7-0.9-96,0-96,0
			c-2-25.4-27.4-23.6-27.4-23.6s-39.9,0-66.8,0c-29,0-30.9,23.5-30.9,23.5l-0.5,152.4h5.9L66.8,130.7z"/>
		<path fill="#FFFFFF" d="M22.1,241.8h201.4l58.1-95.2c2.2-3.6-0.4-8.2-4.6-8.2H75.1c-2.1,0-3.9,1.2-4.8,3L22.1,241.8z"/>
	</g>
</g>
</svg>
