<?xml version="1.0" encoding="utf-8"?>
<!-- Generator: Adobe Illustrator 18.0.0, SVG Export Plug-In . SVG Version: 6.00 Build 0)  -->
<!DOCTYPE svg PUBLIC "-//W3C//DTD SVG 1.1//EN" "http://www.w3.org/Graphics/SVG/1.1/DTD/svg11.dtd">
<svg version="1.1"
	 id="svg7631" xmlns:cc="http://creativecommons.org/ns#" xmlns:inkscape="http://www.inkscape.org/namespaces/inkscape" xmlns:sodipodi="http://sodipodi.sourceforge.net/DTD/sodipodi-0.dtd" xmlns:dc="http://purl.org/dc/elements/1.1/" xmlns:svg="http://www.w3.org/2000/svg" xmlns:rdf="http://www.w3.org/1999/02/22-rdf-syntax-ns#" sodipodi:docname="camera-photo.svg" sodipodi:version="0.32" inkscape:version="0.48.3.1 r9886" inkscape:output_extension="org.inkscape.output.svg.inkscape"
	 xmlns="http://www.w3.org/2000/svg" xmlns:xlink="http://www.w3.org/1999/xlink" x="0px" y="0px" viewBox="0 0 288 288"
	 enable-background="new 0 0 288 288" xml:space="preserve">
<g>
	<g>
		<path fill="#231F20" d="M259,14.2H32.3c-8.6,0-15.5,6.9-15.5,15.5v154.9c0,8.6,6.9,15.5,15.5,15.5H259c8.6,0,15.5-6.9,15.5-15.5
			V29.7C274.5,21.1,267.6,14.2,259,14.2z M243.8,171.4H48.3V46.8h195.5V171.4z"/>
		<g>
			<rect x="130.1" y="192.1" fill="#231F20" width="31.4" height="46.3"/>
			<rect x="104.5" y="233" fill="#231F20" width="83.6" height="10.8"/>
			<rect x="97.4" y="243.2" fill="#231F20" width="97.7" height="10.8"/>
			<rect x="94.6" y="253.3" fill="#231F20" width="103.4" height="10.8"/>
		</g>
	</g>
	<g>
		<path fill="#CDCDCD" d="M259,24.5H32.3c-8.6,0-15.5,6.9-15.5,15.5v154.9c0,8.6,6.9,15.5,15.5,15.5H259c8.6,0,15.5-6.9,15.5-15.5
			V40C274.5,31.4,267.6,24.5,259,24.5z M243.8,181.7H48.3V57.2h195.5V181.7z"/>
		<g>
			<rect x="130.1" y="202.4" fill="#CDCDCD" width="31.4" height="46.3"/>
			<rect x="104.5" y="243.3" fill="#CDCDCD" width="83.6" height="10.8"/>
			<rect x="97.4" y="253.6" fill="#B3B4B4" width="97.7" height="10.8"/>
			<rect x="94.6" y="263.6" fill="#A4A5A6" width="103.4" height="10.8"/>
		</g>
	</g>
</g>
</svg>
