<?xml version="1.0" encoding="utf-8"?>
<!-- Generator: Adobe Illustrator 18.0.0, SVG Export Plug-In . SVG Version: 6.00 Build 0)  -->
<!DOCTYPE svg PUBLIC "-//W3C//DTD SVG 1.1//EN" "http://www.w3.org/Graphics/SVG/1.1/DTD/svg11.dtd">
<svg version="1.1"
	 id="svg7631" xmlns:cc="http://creativecommons.org/ns#" xmlns:inkscape="http://www.inkscape.org/namespaces/inkscape" xmlns:sodipodi="http://sodipodi.sourceforge.net/DTD/sodipodi-0.dtd" xmlns:dc="http://purl.org/dc/elements/1.1/" xmlns:svg="http://www.w3.org/2000/svg" xmlns:rdf="http://www.w3.org/1999/02/22-rdf-syntax-ns#" sodipodi:docname="camera-photo.svg" sodipodi:version="0.32" inkscape:version="0.48.3.1 r9886" inkscape:output_extension="org.inkscape.output.svg.inkscape"
	 xmlns="http://www.w3.org/2000/svg" xmlns:xlink="http://www.w3.org/1999/xlink" x="0px" y="0px" viewBox="0 0 288 288"
	 enable-background="new 0 0 288 288" xml:space="preserve">
<g>
	<path fill="#231F20" d="M142.8,217.1c-39.7,0-71.9-32.2-71.9-71.9c0-39.7,32.2-71.9,71.9-71.9c14.6,0,28,4.6,39.4,12.1l-14.3,30.4
		l102.7-12.5L221.8,5.1l-15.4,31.2c-18.7-11-40.4-17.4-63.6-17.4c-69.8,0-126.4,56.6-126.4,126.4s56.6,126.4,126.4,126.4
		c43.5,0,81.9-22,104.6-55.5l-43.3-33.6C191.6,203.3,168.9,217.1,142.8,217.1z"/>
	<path fill="#CDCDCD" d="M142.8,227.1c-39.7,0-71.9-32.2-71.9-71.9c0-39.7,32.2-71.9,71.9-71.9c14.6,0,28,4.6,39.4,12.1l-15.6,31.8
		l104-13.9L221.8,15l-15.4,31.2c-18.7-11-40.4-17.4-63.6-17.4c-69.8,0-126.4,56.6-126.4,126.4s56.6,126.4,126.4,126.4
		c43.5,0,81.9-22,104.6-55.5l-43.3-33.6C191.6,213.2,168.9,227.1,142.8,227.1z"/>
</g>
</svg>
