<?xml version="1.0" encoding="utf-8"?>
<!-- Generator: Adobe Illustrator 18.0.0, SVG Export Plug-In . SVG Version: 6.00 Build 0)  -->
<!DOCTYPE svg PUBLIC "-//W3C//DTD SVG 1.1//EN" "http://www.w3.org/Graphics/SVG/1.1/DTD/svg11.dtd">
<svg version="1.1"
	 id="svg7631" xmlns:cc="http://creativecommons.org/ns#" xmlns:inkscape="http://www.inkscape.org/namespaces/inkscape" xmlns:sodipodi="http://sodipodi.sourceforge.net/DTD/sodipodi-0.dtd" xmlns:dc="http://purl.org/dc/elements/1.1/" xmlns:svg="http://www.w3.org/2000/svg" xmlns:rdf="http://www.w3.org/1999/02/22-rdf-syntax-ns#" sodipodi:docname="camera-photo.svg" sodipodi:version="0.32" inkscape:version="0.48.3.1 r9886" inkscape:output_extension="org.inkscape.output.svg.inkscape"
	 xmlns="http://www.w3.org/2000/svg" xmlns:xlink="http://www.w3.org/1999/xlink" x="0px" y="0px" viewBox="0 0 288 288"
	 enable-background="new 0 0 288 288" xml:space="preserve">
<g>
	<path fill="#231F20" d="M256.2,231l-44.4-54c9.6-15.6,15-33.6,15-52.8c0-55.8-45-100.8-100.8-100.8S24.6,67.8,24.6,123.6
		s45,100.8,100.8,100.8c22.2,0,42.6-7.2,59.4-19.8l41.4,50.4c3.6,4.2,9.6,4.8,13.2,1.2l15-12.6C258.6,240.6,259.2,234.6,256.2,231z
		 M52.8,123.6c0-40.2,32.4-72.6,72.6-72.6S198,83.4,198,123.6s-32.4,72.6-72.6,72.6S52.8,163.8,52.8,123.6z"/>
	<rect x="87" y="114" fill="#231F20" width="80.4" height="25.8"/>
</g>
<g>
	<g>
		<path fill="#FFFFFF" d="M256.2,240l-44.4-54c9.6-15.6,15-33.6,15-52.8c0-55.8-45-100.8-100.8-100.8S24.6,76.8,24.6,132.6
			s45,100.8,100.8,100.8c22.2,0,42.6-7.2,59.4-19.8l41.4,50.4c3.6,4.2,9.6,4.8,13.2,1.2l15-12.6C258.6,250.2,259.2,244.2,256.2,240z
			 M52.8,132.6c0-40.2,32.4-72.6,72.6-72.6S198,93,198,132.6c0,40.2-32.4,72.6-72.6,72.6S52.8,172.8,52.8,132.6z"/>
		<rect x="87" y="123" fill="#FFFFFF" width="80.4" height="25.8"/>
	</g>
</g>
</svg>
