<?xml version="1.0" encoding="utf-8"?>
<!-- Generator: Adobe Illustrator 18.0.0, SVG Export Plug-In . SVG Version: 6.00 Build 0)  -->
<!DOCTYPE svg PUBLIC "-//W3C//DTD SVG 1.1//EN" "http://www.w3.org/Graphics/SVG/1.1/DTD/svg11.dtd">
<svg version="1.1"
	 id="svg7631" xmlns:cc="http://creativecommons.org/ns#" xmlns:inkscape="http://www.inkscape.org/namespaces/inkscape" xmlns:sodipodi="http://sodipodi.sourceforge.net/DTD/sodipodi-0.dtd" xmlns:dc="http://purl.org/dc/elements/1.1/" xmlns:svg="http://www.w3.org/2000/svg" xmlns:rdf="http://www.w3.org/1999/02/22-rdf-syntax-ns#" sodipodi:docname="camera-photo.svg" sodipodi:version="0.32" inkscape:version="0.48.3.1 r9886" inkscape:output_extension="org.inkscape.output.svg.inkscape"
	 xmlns="http://www.w3.org/2000/svg" xmlns:xlink="http://www.w3.org/1999/xlink" x="0px" y="0px" viewBox="0 0 48 48"
	 enable-background="new 0 0 48 48" xml:space="preserve">
<g>
	<g>
		<path fill="#231F20" d="M42.8,38.4l-7.4-9c1.6-2.6,2.5-5.6,2.5-8.8c0-9.3-7.5-16.8-16.8-16.8S4.3,11.3,4.3,20.6
			c0,9.3,7.5,16.8,16.8,16.8c3.7,0,7.1-1.2,9.9-3.2l6.8,8.3c0.6,0.7,1.5,0.8,2.2,0.2l2.5-2.1C43.2,40.1,43.3,39.1,42.8,38.4z
			 M9,20.6c0-6.7,5.4-12.1,12.1-12.1s12.1,5.4,12.1,12.1c0,6.7-5.4,12.1-12.1,12.1S9,27.3,9,20.6z"/>
		<polygon fill="#231F20" points="27.6,19 23.2,19 23.2,14.4 19,14.4 19,19 14.5,19 14.5,23.2 19,23.2 19,27.8 23.2,27.8 23.2,23.2 
			27.6,23.2 		"/>
	</g>
	<g>
		<path fill="#CDCDCD" d="M42.6,40l-7.4-9c1.6-2.6,2.5-5.6,2.5-8.8C37.7,13,30.2,5.4,21,5.4S4.2,13,4.2,22.2C4.2,31.5,11.7,39,21,39
			c3.7,0,7.1-1.2,9.9-3.2l6.8,8.3c0.6,0.7,1.5,0.8,2.2,0.2l2.5-2.1C43.1,41.7,43.2,40.7,42.6,40z M8.9,22.2
			c0-6.7,5.4-12.1,12.1-12.1S33,15.6,33,22.2c0,6.7-5.4,12.1-12.1,12.1S8.9,28.9,8.9,22.2z"/>
		<polygon fill="#CDCDCD" points="27.8,20.6 23.2,20.6 23.2,16 18.9,16 18.9,20.6 14.4,20.6 14.4,24.9 18.9,24.9 18.9,29.4 
			23.2,29.4 23.2,24.9 27.8,24.9 		"/>
	</g>
</g>
</svg>
