<?xml version="1.0" encoding="UTF-8" standalone="no"?>
<!-- Created with Inkscape (http://www.inkscape.org/) -->

<svg
   xmlns:dc="http://purl.org/dc/elements/1.1/"
   xmlns:cc="http://creativecommons.org/ns#"
   xmlns:rdf="http://www.w3.org/1999/02/22-rdf-syntax-ns#"
   xmlns:svg="http://www.w3.org/2000/svg"
   xmlns="http://www.w3.org/2000/svg"
   xmlns:sodipodi="http://sodipodi.sourceforge.net/DTD/sodipodi-0.dtd"
   xmlns:inkscape="http://www.inkscape.org/namespaces/inkscape"
   version="1.1"
   width="100%"
   height="100%"
   viewBox="0 0 288 288"
   id="svg7631"
   xml:space="preserve"
   inkscape:version="0.48.4 r9939"
   sodipodi:docname="add-note.svg"><sodipodi:namedview
     pagecolor="#ffffff"
     bordercolor="#666666"
     borderopacity="1"
     objecttolerance="10"
     gridtolerance="10"
     guidetolerance="10"
     inkscape:pageopacity="0"
     inkscape:pageshadow="2"
     inkscape:window-width="741"
     inkscape:window-height="480"
     id="namedview23"
     showgrid="false"
     inkscape:zoom="1.6388889"
     inkscape:cx="120.77891"
     inkscape:cy="162.51574"
     inkscape:window-x="458"
     inkscape:window-y="199"
     inkscape:window-maximized="0"
     inkscape:current-layer="g3" /><metadata
     id="metadata43"><rdf:RDF><cc:Work
         rdf:about=""><dc:format>image/svg+xml</dc:format><dc:type
           rdf:resource="http://purl.org/dc/dcmitype/StillImage" /><dc:title /></cc:Work></rdf:RDF></metadata><defs
     id="defs41" /><g
     id="g3"><g
       id="g5"><polygon
         points="172.7,53.7 165.1,60.8 40.9,60.8 40.9,232.2 232.1,232.2 232.1,130.5 232.1,52.4 188,52.4 187.8,52.6 177.5,56.1 "
         id="polygon7"
         style="fill:none" /><rect
         width="191.10001"
         height="8.5"
         x="40.900002"
         y="232.2"
         id="rect9"
         style="fill:#221f1f" /><path
         d="m 31.5,29.2 h 167.3 l 6.9,-8.3 0.1,-0.2 H 31.5 C 19.3,20.7 9.4,30.6 9.4,42.8 v 8.5 c 0,-12.1 9.9,-22.1 22.1,-22.1 z"
         id="path11"
         style="fill:#221f1f" /><polygon
         points="232.1,130.5 263.6,101 263.6,90.6 232.1,120.4 "
         id="polygon13"
         style="fill:#221f1f" /><polygon
         points="172.6,53.6 174,52.4 40.9,52.4 40.9,60.8 165.1,60.8 172.7,53.7 "
         id="polygon15"
         style="fill:#666666" /><path
         d="m 241.5,263.8 h -210 c -12.2,0 -22.1,-9.9 -22.1,-22.1 v 8.5 c 0,12.2 9.9,22.1 22.1,22.1 h 210.1 c 12.2,0 22.1,-9.9 22.1,-22.1 v -8.5 c -0.1,12.2 -10,22.1 -22.2,22.1 z"
         id="path17"
         style="fill:#666666" /><path
         d="m 232.1,232.2 0,8.5 -191.2,0 0,-8.5 0,-171.4 0,-8.5 133.1,0 24.8,-23.1 -167.3,0 C 19.3,29.2 9.4,39.1 9.4,51.3 l 0,190.3 c 0,12.2 9.9,22.1 22.1,22.1 l 38.059322,0 31.728818,0 140.31186,0 c 12.2,0 22.1,-9.9 22.1,-22.1 l 0,-140.6 -31.6,29.5 z"
         id="path19"
         style="fill:#808080;fill-opacity:1"
         inkscape:connector-curvature="0"
         sodipodi:nodetypes="ccccccccssssccssccc" /></g><g
       id="g21"><path
         d="M 279.4,56.4 135.7,191.6 90.8,143.9 233.8,9.3 c 2.8,-2.7 7.3,-2.5 10,0.3 l 35.9,38.1 c 2.3,2.5 2.2,6.4 -0.3,8.7 z"
         id="path23"
         style="fill:#221f1f" /></g><path
       d="M 279.4,56.4 135.7,191.6 90.8,143.9 233.8,9.3 c 2.8,-2.7 7.3,-2.5 10,0.3 l 35.9,38.1 c 2.3,2.5 2.2,6.4 -0.3,8.7 z"
       id="path25"
       style="fill:#221f1f" /><path
       d="M 279.4,64.9 135.7,200.1 90.8,152.4 233.8,17.8 c 2.8,-2.7 7.3,-2.5 10,0.3 l 35.9,38.1 c 2.3,2.5 2.2,6.3 -0.3,8.7 z"
       id="path27"
       style="fill:#cdcdcd" /><polygon
       points="232.1,240.7 232.1,130.5 147,210.1 80.7,139.7 165.1,60.8 40.9,60.8 40.9,240.7 "
       id="polygon29"
       style="fill:none" /><polygon
       points="232.1,88 232.1,60.8 210.8,60.8 112.8,153 136.3,178.1 "
       id="polygon31"
       style="fill:none" /><polygon
       points="261.9,60 238.3,34.9 210.8,60.8 232.1,60.8 232.1,88 "
       id="polygon33"
       style="fill:#cdcdcd" /><path
       d="M 279.4,64.9 135.7,200.1 90.8,152.4 233.8,17.8 c 2.8,-2.7 7.3,-2.5 10,0.3 l 35.9,38.1 c 2.3,2.5 2.2,6.3 -0.3,8.7 z"
       id="path35"
       style="fill:#808080;fill-opacity:1" /><path
       d="m 129.6,206.4 -45,-47.7 -2.8,39.3 c -0.2,2.6 1.8,4.9 4.4,5.1 l 43.4,3.3 z"
       id="path37"
       style="fill:#808080;fill-opacity:1" /></g></svg>