<?xml version="1.0" encoding="UTF-8" standalone="no"?>
<!-- Created with Inkscape (http://www.inkscape.org/) -->

<svg
   xmlns:dc="http://purl.org/dc/elements/1.1/"
   xmlns:cc="http://creativecommons.org/ns#"
   xmlns:rdf="http://www.w3.org/1999/02/22-rdf-syntax-ns#"
   xmlns:svg="http://www.w3.org/2000/svg"
   xmlns="http://www.w3.org/2000/svg"
   xmlns:sodipodi="http://sodipodi.sourceforge.net/DTD/sodipodi-0.dtd"
   xmlns:inkscape="http://www.inkscape.org/namespaces/inkscape"
   version="1.1"
   width="100%"
   height="100%"
   viewBox="0 0 48 48"
   id="svg7631"
   xml:space="preserve"
   inkscape:version="0.48.4 r9939"
   sodipodi:docname="camera-photo.svg"><sodipodi:namedview
     pagecolor="#ffffff"
     bordercolor="#666666"
     borderopacity="1"
     objecttolerance="10"
     gridtolerance="10"
     guidetolerance="10"
     inkscape:pageopacity="0"
     inkscape:pageshadow="2"
     inkscape:window-width="640"
     inkscape:window-height="480"
     id="namedview8"
     showgrid="false"
     inkscape:zoom="4.9166667"
     inkscape:cx="24"
     inkscape:cy="11.186441"
     inkscape:window-x="855"
     inkscape:window-y="415"
     inkscape:window-maximized="0"
     inkscape:current-layer="g3" /><metadata
     id="metadata13"><rdf:RDF><cc:Work
         rdf:about=""><dc:format>image/svg+xml</dc:format><dc:type
           rdf:resource="http://purl.org/dc/dcmitype/StillImage" /><dc:title /></cc:Work></rdf:RDF></metadata><defs
     id="defs11" /><g
     id="g3"><path
       d="M 43.6,43.1 H 4.2 C 2.6,43.1 1.4,41.8 1.4,40.3 V 12.2 c 0,-1.6 1.3,-2.8 2.8,-2.8 h 8.4 V 6.5 c 0,-1.6 1.3,-2.8 2.8,-2.8 h 16.9 c 1.6,0 2.8,1.3 2.8,2.8 v 2.8 h 8.5 c 1.6,0 2.8,1.3 2.8,2.8 v 28.2 c 0.1,1.6 -1.2,2.8 -2.8,2.8 z M 40.8,15 H 32.3 29.5 V 9.3 H 18.3 V 15 H 15.5 7 V 37.5 H 40.8 V 15 z m -29.5,2.8 c 0.8,0 1.4,0.6 1.4,1.4 0,0.8 -0.6,1.4 -1.4,1.4 -0.8,0 -1.4,-0.6 -1.4,-1.4 0,-0.8 0.6,-1.4 1.4,-1.4 z m 12.6,0 c 4.7,0 8.4,3.8 8.4,8.4 0,4.7 -3.8,8.5 -8.4,8.5 -4.7,0 -8.5,-3.8 -8.5,-8.5 0.1,-4.6 3.9,-8.4 8.5,-8.4 z m 0,14.1 c 3.1,0 5.6,-2.5 5.6,-5.6 0,-3.1 -2.5,-5.6 -5.6,-5.6 -3.1,0 -5.6,2.5 -5.6,5.6 0,3 2.5,5.6 5.6,5.6 z"
       id="path5"
       style="fill:#231f20" /><path
       d="M 43.6,44.6 H 4.2 C 2.6,44.6 1.4,43.3 1.4,41.8 V 13.6 c 0,-1.6 1.3,-2.8 2.8,-2.8 h 8.4 V 7.9 c 0,-1.6 1.3,-2.8 2.8,-2.8 h 16.9 c 1.6,0 2.8,1.3 2.8,2.8 v 2.8 h 8.5 c 1.6,0 2.8,1.3 2.8,2.8 v 28.2 c 0.1,1.6 -1.2,2.9 -2.8,2.9 z M 40.8,16.4 H 32.3 29.5 V 10.8 H 18.3 v 5.6 H 15.5 7 V 38.9 H 40.8 V 16.4 z m -29.5,2.8 c 0.8,0 1.4,0.6 1.4,1.4 0,0.8 -0.6,1.4 -1.4,1.4 -0.8,0 -1.4,-0.6 -1.4,-1.4 -0.1,-0.8 0.6,-1.4 1.4,-1.4 z m 12.6,0 c 4.7,0 8.4,3.8 8.4,8.4 0,4.7 -3.8,8.5 -8.4,8.5 -4.7,0 -8.5,-3.8 -8.5,-8.5 0.1,-4.6 3.9,-8.4 8.5,-8.4 z m 0,14.1 c 3.1,0 5.6,-2.5 5.6,-5.6 0,-3.1 -2.5,-5.6 -5.6,-5.6 -3.1,0 -5.6,2.5 -5.6,5.6 0,3.1 2.5,5.6 5.6,5.6 z"
       id="path7"
       style="fill:#808080;fill-opacity:1" /></g></svg>