<?xml version="1.0" encoding="UTF-8" standalone="no"?>
<!-- Created with Inkscape (http://www.inkscape.org/) -->

<svg
   xmlns:dc="http://purl.org/dc/elements/1.1/"
   xmlns:cc="http://creativecommons.org/ns#"
   xmlns:rdf="http://www.w3.org/1999/02/22-rdf-syntax-ns#"
   xmlns:svg="http://www.w3.org/2000/svg"
   xmlns="http://www.w3.org/2000/svg"
   xmlns:sodipodi="http://sodipodi.sourceforge.net/DTD/sodipodi-0.dtd"
   xmlns:inkscape="http://www.inkscape.org/namespaces/inkscape"
   version="1.1"
   width="100%"
   height="100%"
   viewBox="0 0 288 288"
   id="svg7631"
   xml:space="preserve"
   inkscape:version="0.91 r13725"
   sodipodi:docname="configuration.svg"><sodipodi:namedview
     pagecolor="#ffffff"
     bordercolor="#666666"
     borderopacity="1"
     objecttolerance="10"
     gridtolerance="10"
     guidetolerance="10"
     inkscape:pageopacity="0"
     inkscape:pageshadow="2"
     inkscape:window-width="3070"
     inkscape:window-height="1752"
     id="namedview23"
     showgrid="false"
     inkscape:zoom="2.3177389"
     inkscape:cx="21.423793"
     inkscape:cy="66.657207"
     inkscape:window-x="130"
     inkscape:window-y="48"
     inkscape:window-maximized="1"
     inkscape:current-layer="g3" /><metadata
     id="metadata43"><rdf:RDF><cc:Work
         rdf:about=""><dc:format>image/svg+xml</dc:format><dc:type
           rdf:resource="http://purl.org/dc/dcmitype/StillImage" /><dc:title /></cc:Work></rdf:RDF></metadata><defs
     id="defs41"><linearGradient
       id="linearGradient3087"><stop
         style="stop-color:#3465a4;stop-opacity:1;"
         offset="0"
         id="stop3089" /><stop
         id="stop3095"
         offset="0"
         style="stop-color:#9fbce1;stop-opacity:1;" /><stop
         style="stop-color:#6b95ca;stop-opacity:1;"
         offset="0"
         id="stop2242" /><stop
         id="stop2244"
         offset="0.75"
         style="stop-color:#3d6aa5;stop-opacity:1;" /><stop
         style="stop-color:#386eb4;stop-opacity:1;"
         offset="1"
         id="stop3091" /></linearGradient><linearGradient
       id="linearGradient3077"><stop
         style="stop-color:#98a0a9;stop-opacity:1;"
         offset="0"
         id="stop3079" /><stop
         style="stop-color:#c3d0dd;stop-opacity:1;"
         offset="1"
         id="stop3081" /></linearGradient><linearGradient
       id="linearGradient3061"><stop
         style="stop-color:#ffffff;stop-opacity:1;"
         offset="0"
         id="stop3063" /><stop
         style="stop-color:#000000;stop-opacity:1;"
         offset="1"
         id="stop3065" /></linearGradient><linearGradient
       id="linearGradient3049"><stop
         style="stop-color:#b6b6b6;stop-opacity:1;"
         offset="0"
         id="stop3051" /><stop
         id="stop2262"
         offset="0.5"
         style="stop-color:#f2f2f2;stop-opacity:1;" /><stop
         style="stop-color:#fafafa;stop-opacity:1;"
         offset="0.67612958"
         id="stop2264" /><stop
         id="stop2268"
         offset="0.84051722"
         style="stop-color:#d8d8d8;stop-opacity:1;" /><stop
         id="stop2266"
         offset="0.875"
         style="stop-color:#f2f2f2;stop-opacity:1;" /><stop
         style="stop-color:#dbdbdb;stop-opacity:1;"
         offset="1"
         id="stop3053" /></linearGradient></defs><g
     id="g3"><path
       inkscape:connector-curvature="0"
       style="color:#000000;display:inline;overflow:visible;visibility:visible;opacity:1;fill:#000000;fill-opacity:1;fill-rule:nonzero;stroke:none;stroke-width:5.5438838;stroke-linecap:butt;stroke-linejoin:miter;stroke-miterlimit:4;stroke-dasharray:none;stroke-dashoffset:0;stroke-opacity:1;marker:none;marker-start:none;marker-mid:none;marker-end:none"
       d="m 143.75554,180.91872 c 5.4597,-4.67974 87.00937,-88.087997 87.00937,-88.087997 l 20.13443,-1.438177 31.63974,-43.864258 -26.35943,-23.483085 -40.98788,35.235219 0,20.134413 -83.41398,86.649855 c -3.95498,3.95495 6.94413,19.16854 11.97775,14.85403 z"
       id="path2144-6"
       sodipodi:nodetypes="ccccccccc" /><path
       inkscape:connector-curvature="0"
       style="color:#000000;display:inline;overflow:visible;visibility:visible;fill:#000000;fill-opacity:1;fill-rule:nonzero;stroke:none;stroke-width:5.5438838;stroke-linecap:butt;stroke-linejoin:miter;stroke-miterlimit:4;stroke-dasharray:none;stroke-dashoffset:0;stroke-opacity:1;marker:none;marker-start:none;marker-mid:none;marker-end:none"
       d="m 51.835897,269.2535 c 8.623681,9.59728 32.577779,13.93952 43.200329,-4.64996 4.631527,-8.10523 13.715354,-30.80344 54.241574,-67.27702 6.80639,-6.11884 14.01639,-20.11602 7.90418,-27.66642 l -15.81987,-15.81988 c -6.47178,-7.19083 -24.46046,-3.83668 -31.84084,6.22826 -21.999875,30.10517 -57.941936,54.06963 -66.047135,56.96436 -15.509919,5.53925 -13.764334,28.40187 -3.503143,39.27713 l 11.864905,12.94353 z"
       id="path2142-7"
       sodipodi:nodetypes="ccccccscc" /><path
       inkscape:connector-curvature="0"
       style="color:#000000;display:inline;overflow:visible;visibility:visible;opacity:1;fill:#000000;fill-opacity:1;fill-rule:nonzero;stroke:none;stroke-width:5.30023384;stroke-linecap:butt;stroke-linejoin:miter;stroke-miterlimit:4;stroke-dasharray:none;stroke-dashoffset:0;stroke-opacity:1;marker:none;marker-start:none;marker-mid:none;marker-end:none"
       d="m 102.55384,117.64274 130.33751,133.3511 c 5.27379,6.02717 21.98422,10.68541 33.14945,0 10.78195,-10.31862 8.28733,-24.86206 -2.26019,-35.40962 L 138.71686,81.479709 C 154.15759,38.58878 122.90631,2.5633722 82.58885,10.283742 l -8.664119,7.910651 27.122289,25.61548 1.50682,22.601907 L 82.303491,84.896756 58.103476,82.233105 33.241346,58.877828 c 0,0 -8.716245,8.611828 -8.716245,8.611828 -4.054125,38.713784 36.424555,73.314164 78.028739,50.153084 z"
       id="path2140-3"
       sodipodi:nodetypes="cczcccccccccsc" /><path
       inkscape:connector-curvature="0"
       style="color:#000000;display:inline;overflow:visible;visibility:visible;opacity:1;fill:#808080;fill-opacity:1;fill-rule:nonzero;stroke:#808080;stroke-width:6.86254501;stroke-linecap:butt;stroke-linejoin:miter;stroke-miterlimit:4;stroke-dasharray:none;stroke-dashoffset:0;stroke-opacity:1;marker:none;marker-start:none;marker-mid:none;marker-end:none"
       d="M 92.876213,130.04925 223.2137,263.40035 c 5.2738,6.02717 21.98424,10.6854 33.14946,0 10.78195,-10.31861 8.28735,-24.86207 -2.2602,-35.40963 L 129.03923,93.886212 C 144.47996,50.995286 113.22867,14.969876 72.911217,22.690241 L 64.24711,30.6009 91.369395,56.216374 92.876213,78.818284 72.625871,97.303263 48.425844,94.639607 23.563725,71.284328 c 0,0 -8.716255,8.611835 -8.716255,8.611835 -4.054115,38.713797 36.424566,73.314167 78.028743,50.153087 z"
       id="path2140"
       sodipodi:nodetypes="cczcccccccccsc" /><path
       inkscape:connector-curvature="0"
       style="color:#000000;display:inline;overflow:visible;visibility:visible;opacity:1;fill:#808080;fill-opacity:1;fill-rule:nonzero;stroke:#808080;stroke-width:6.54979086;stroke-linecap:butt;stroke-linejoin:miter;stroke-miterlimit:4;stroke-dasharray:none;stroke-dashoffset:0;stroke-opacity:1;marker:none;marker-start:none;marker-mid:none;marker-end:none"
       d="m 127.65709,180.83558 c 5.45971,-4.67976 87.00938,-88.088009 87.00938,-88.088009 l 20.13442,-1.438176 31.63974,-43.86426 -26.35943,-23.483083 -40.98789,35.235222 0,20.134411 -83.41398,86.649845 c -3.95498,3.95497 6.94413,19.16855 11.97776,14.85405 z"
       id="path2144"
       sodipodi:nodetypes="ccccccccc" /><path
       inkscape:connector-curvature="0"
       style="color:#000000;display:inline;overflow:visible;visibility:visible;fill:#808080;fill-opacity:1;fill-rule:nonzero;stroke:#808080;stroke-width:6.54979086;stroke-linecap:butt;stroke-linejoin:miter;stroke-miterlimit:4;stroke-dasharray:none;stroke-dashoffset:0;stroke-opacity:1;marker:none;marker-start:none;marker-mid:none;marker-end:none"
       d="m 35.737445,269.17035 c 8.623678,9.59727 32.577769,13.93952 43.200327,-4.64996 4.631528,-8.10523 13.715358,-30.80345 54.241578,-67.27702 6.80638,-6.11885 14.01638,-20.11602 7.90416,-27.66642 l -15.81985,-15.81988 c -6.47177,-7.19084 -24.46047,-3.83666 -31.840848,6.22827 -21.999869,30.10515 -57.941932,54.06962 -66.04713,56.96435 -15.50993,5.53925 -13.764346,28.40186 -3.503144,39.27713 l 11.864907,12.94353 z"
       id="path2142"
       sodipodi:nodetypes="ccccccscc" /></g></svg>