<?xml version="1.0" encoding="UTF-8" standalone="no"?>
<!-- Created with Inkscape (http://www.inkscape.org/) -->

<svg
   xmlns:dc="http://purl.org/dc/elements/1.1/"
   xmlns:cc="http://creativecommons.org/ns#"
   xmlns:rdf="http://www.w3.org/1999/02/22-rdf-syntax-ns#"
   xmlns:svg="http://www.w3.org/2000/svg"
   xmlns="http://www.w3.org/2000/svg"
   xmlns:sodipodi="http://sodipodi.sourceforge.net/DTD/sodipodi-0.dtd"
   xmlns:inkscape="http://www.inkscape.org/namespaces/inkscape"
   version="1.1"
   width="100%"
   height="100%"
   viewBox="0 0 288 288"
   id="svg7631"
   xml:space="preserve"
   inkscape:version="0.48.4 r9939"
   sodipodi:docname="pc-hover.svg"><sodipodi:namedview
     pagecolor="#ffffff"
     bordercolor="#666666"
     borderopacity="1"
     objecttolerance="10"
     gridtolerance="10"
     guidetolerance="10"
     inkscape:pageopacity="0"
     inkscape:pageshadow="2"
     inkscape:window-width="640"
     inkscape:window-height="480"
     id="namedview20"
     showgrid="false"
     inkscape:zoom="0.81944444"
     inkscape:cx="144"
     inkscape:cy="144"
     inkscape:window-x="75"
     inkscape:window-y="34"
     inkscape:window-maximized="0"
     inkscape:current-layer="g3" /><metadata
     id="metadata37"><rdf:RDF><cc:Work
         rdf:about=""><dc:format>image/svg+xml</dc:format><dc:type
           rdf:resource="http://purl.org/dc/dcmitype/StillImage" /><dc:title /></cc:Work></rdf:RDF></metadata><defs
     id="defs35" /><g
     id="g3"><g
       id="g5"><path
         d="M 259,14.2 H 32.3 c -8.6,0 -15.5,6.9 -15.5,15.5 v 154.9 c 0,8.6 6.9,15.5 15.5,15.5 H 259 c 8.6,0 15.5,-6.9 15.5,-15.5 V 29.7 c 0,-8.6 -6.9,-15.5 -15.5,-15.5 z M 243.8,171.4 H 48.3 V 46.8 h 195.5 v 124.6 z"
         id="path7"
         style="fill:#231f20" /><g
         id="g9"><rect
           width="31.4"
           height="46.299999"
           x="130.10001"
           y="192.10001"
           id="rect11"
           style="fill:#231f20" /><rect
           width="83.599998"
           height="10.8"
           x="104.5"
           y="233"
           id="rect13"
           style="fill:#231f20" /><rect
           width="97.699997"
           height="10.8"
           x="97.400002"
           y="243.2"
           id="rect15"
           style="fill:#231f20" /><rect
           width="103.4"
           height="10.8"
           x="94.599998"
           y="253.3"
           id="rect17"
           style="fill:#231f20" /></g></g><g
       id="g19"
       style="fill:#666666"><path
         d="M 259,24.5 H 32.3 c -8.6,0 -15.5,6.9 -15.5,15.5 v 154.9 c 0,8.6 6.9,15.5 15.5,15.5 H 259 c 8.6,0 15.5,-6.9 15.5,-15.5 V 40 c 0,-8.6 -6.9,-15.5 -15.5,-15.5 z M 243.8,181.7 H 48.3 V 57.2 h 195.5 v 124.5 z"
         id="path21"
         style="fill:#666666" /><g
         id="g23"
         style="fill:#666666"><rect
           width="31.4"
           height="46.299999"
           x="130.10001"
           y="202.39999"
           id="rect25"
           style="fill:#666666" /><rect
           width="83.599998"
           height="10.8"
           x="104.5"
           y="243.3"
           id="rect27"
           style="fill:#666666" /><rect
           width="97.699997"
           height="10.8"
           x="97.400002"
           y="253.60001"
           id="rect29"
           style="fill:#666666" /><rect
           width="103.4"
           height="10.8"
           x="94.599998"
           y="263.60001"
           id="rect31"
           style="fill:#666666" /></g></g></g></svg>